<?xml version="1.0" encoding="utf-8"?>
<!-- Generator: Adobe Illustrator 16.0.0, SVG Export Plug-In . SVG Version: 6.00 Build 0)  -->
<!DOCTYPE svg PUBLIC "-//W3C//DTD SVG 1.1 Tiny//EN" "http://www.w3.org/Graphics/SVG/1.1/DTD/svg11-tiny.dtd">
<svg version="1.1" baseProfile="tiny" id="Layer_1" xmlns="http://www.w3.org/2000/svg" xmlns:xlink="http://www.w3.org/1999/xlink"
	 x="0px" y="0px" viewBox="-92 12.863 936.3 218.116" xml:space="preserve">
<g>
	<polygon fill="#A09F9F" points="525.957,196.927 486.36,196.515 486.117,219.584 525.957,219.584 	"/>
	<path fill="#A09F9F" d="M496.847,69.939c-8.284,0.09-74.084,0.727-112.985-1.12c0,0-4.563-0.492-1.233,3.947
		c3.328,4.438,43.742,49.037,114.219,52.538V69.939L496.847,69.939z"/>
	<path fill="#A09F9F" d="M489.848,194.353c32.356-10.701,41.815-23.896,44.582-30.882c-2.568,2.862-10.041,8.41-30.922,12.198
		l-16.33,19.504C487.755,194.94,488.602,194.669,489.848,194.353z"/>
	<path fill="#A09F9F" d="M645.729,175.545c0,0-19.008-4.625-26.357-10.688c9.377,13.179,43.644,29.717,49.367,32.415l-17.338-18.644
		C651.4,178.63,649.677,176.038,645.729,175.545z"/>
	<path fill="#A09F9F" d="M519.173,58.084v4.935c0,0-0.038,0.042-0.094,0.1c-0.024,1.126,0.255,2.009,0.875,2.601
		c1.398,1.332,4.002,0.907,4.028,0.904l205.436-0.006v0.739H524.046c-0.023,0.006-0.449,0.077-1.062,0.077
		c-1.002,0-2.502-0.19-3.538-1.177c-0.659-0.628-1.021-1.487-1.102-2.547c-1.075,0.759-3.267,1.859-6.941,1.778l-11.348,0.005
		c0,0-2.96,0.118-2.221,1.969l-0.119,2.468c0,0-0.052,0-0.13,0.001v55.29c5.01-0.711,39.967-4.579,39.967,25.997
		c0,0,0.307,3.988-1.367,9.038c-0.829,5.298-6.645,21.748-46.131,34.806c-0.829,0.212-1.73,0.484-2.394,0.726l38.488,0.402
		c2.26-2.808,29.324-35.866,50.397-34.78c20.863,1.071,51.392,32.651,53.431,34.787l37.627,1.365
		c-8.959-4.24-49.821-24.299-51.303-37.971c-3.207-10.432-7.933-42.071,41.76-65.24c0,0,16.652-8.634,64.512-13.813
		c0,0,3.453,0.247,4.193-4.563c0,0-0.617-7.646,3.082-8.388v-9.501L519.173,58.084L519.173,58.084z"/>
	<polygon fill="#A09F9F" points="630.186,196.944 630.186,219.609 629.836,219.609 669.164,220.57 669.408,198.367 	"/>
	<path fill="#A09F9F" d="M629.445,196.707c-1.873-1.963-32.301-33.499-52.936-34.56c-0.318-0.018-0.644-0.023-0.965-0.023
		c-20.537,0-47.313,32.671-48.849,34.567v22.73l7.772-3.416c0,0,29.106-27.094,83.38-0.572l1.481,1.189l9.498,2.96l0.615,0.015
		v-22.891H629.445z"/>
</g>
<line fill="none" stroke="#FFFFFF" stroke-miterlimit="10" x1="654.609" y1="125.513" x2="654.609" y2="183.239"/>
<g>
	<path fill="#FFFFFF" d="M678.972,59.194c-1.198,11.842-22.588,18.748-52.548,18.748c-29.958,0-55.445-5.546-53.944-18.748
		c1.599-14.062,24.686-15.788,54.646-15.788C657.084,43.406,679.89,50.135,678.972,59.194z"/>
	<g>
		<path fill="#333333" d="M625.649,41.461c-29.14,0-52.762,7.15-52.762,15.974c0,8.819,23.623,15.97,52.762,15.97
			c29.141,0,52.762-7.149,52.762-15.97C678.412,48.613,654.789,41.461,625.649,41.461z M625.649,70.398
			c-23.617,0-42.83-5.813-42.83-12.963c0-7.15,19.213-12.966,42.83-12.966c23.616,0,42.83,5.815,42.83,12.966
			C668.479,64.584,649.266,70.398,625.649,70.398z"/>
		<path fill="#60965A" d="M625.649,45.875c-21.052,0-38.18,5.188-38.18,11.56c0,6.373,17.128,11.555,38.18,11.555
			s38.178-5.182,38.178-11.555C663.827,51.06,646.701,45.875,625.649,45.875z"/>
		<path id="path4934_1_" fill="#FFFFFF" d="M629.078,48.898c-0.731,0-1.469,0.003-2.225,0.01h-7.727h-8.666v13.018h-1.511v1.938
			h1.511v2.86h7.727v-2.86h0.94v2.86h7.728v-2.86h1.283v-1.938h-1.283V59.82l3.364,0.004c6.732,0,12.626,0.15,17.725-1.861
			c1.982-0.885,3.198-1.923,3.531-2.975c0.669-2.128-2.251-4.313-9.665-5.413C638.644,49.084,634.191,48.901,629.078,48.898
			L629.078,48.898z M618.187,50.826h0.94v6.501v1.926v2.668h-0.94v-2.668v-1.926V50.826z M626.853,50.826
			c15.277,0.164,21.17,2.854,18.211,5.252c-0.837,0.668-1.728,1.035-3.6,1.414c0.076-0.096,0.154-0.192,0.214-0.289
			c1.107-1.873-0.99-4.125-11.257-5.371c8.168,1.426,11.463,3.962,7.655,5.601c-6.485,0.301-11.223-1.324-11.223-3.194
			L626.853,50.826L626.853,50.826z"/>
		<path fill="#333333" d="M573.016,59.097c0,0-9.655,18.8,51.511,18.855c59.94,0.056,54.014-18.855,54.014-18.855
			s-1.337,15.532-53.016,15.532C573.844,74.629,573.016,59.097,573.016,59.097z"/>
	</g>
</g>
<g>
	<g>
		<path fill="#FFFFFF" d="M738.641,177.781c-1,15.341-18.842,24.289-43.833,24.289s-46.251-7.186-45-24.289
			c1.333-18.217,20.593-20.454,45.583-20.454C720.383,157.327,739.406,166.047,738.641,177.781z"/>
		<g>
			<path fill="#333333" d="M694.16,154.811c-24.307,0-44.013,9.265-44.013,20.693c0,11.427,19.706,20.688,44.013,20.688
				c24.31,0,44.014-9.262,44.014-20.688C738.174,164.074,718.468,154.811,694.16,154.811z M694.16,192.298
				c-19.699,0-35.728-7.532-35.728-16.794c0-9.263,16.026-16.798,35.728-16.798s35.729,7.535,35.729,16.798
				C729.888,184.766,713.86,192.298,694.16,192.298z"/>
			<path fill="#60965A" d="M694.16,160.529c-17.561,0-31.848,6.721-31.848,14.976c0,8.256,14.287,14.97,31.848,14.97
				c17.562,0,31.848-6.714,31.848-14.97C726.008,167.245,711.721,160.529,694.16,160.529z"/>
			<path id="path4934_2_" fill="#FFFFFF" d="M697.02,164.443c-0.609,0-1.225,0.004-1.855,0.015h-6.444h-7.229v16.862h-1.26v2.511
				h1.26v3.706h6.445v-3.706h0.784v3.706h6.445v-3.706h1.07v-2.511h-1.07v-2.729l2.808,0.005c5.615,0,10.532,0.195,14.785-2.411
				c1.652-1.146,2.668-2.491,2.945-3.854c0.56-2.757-1.879-5.588-8.063-7.012C705.002,164.687,701.286,164.447,697.02,164.443
				L697.02,164.443z M687.936,166.941h0.784v8.425v2.493v3.457h-0.784v-3.457v-2.493V166.941z M695.164,166.941
				c12.744,0.214,17.659,3.697,15.192,6.807c-0.699,0.864-1.441,1.341-3.004,1.831c0.063-0.123,0.13-0.251,0.179-0.374
				c0.924-2.428-0.826-5.346-9.391-6.959c6.813,1.847,9.563,5.133,6.386,7.255c-5.409,0.39-9.362-1.716-9.362-4.14V166.941z"/>
			<path fill="#333333" d="M650.257,177.656c0,0-8.056,24.355,42.968,24.43c50,0.07,45.058-24.43,45.058-24.43
				s-1.116,20.123-44.225,20.123C650.946,197.78,650.257,177.656,650.257,177.656z"/>
		</g>
	</g>
	<g>
		<path fill="#FFFFFF" d="M809.641,171.782c-1,15.34-18.842,24.288-43.833,24.288s-46.251-7.186-45-24.288
			c1.333-18.218,20.593-20.455,45.583-20.455C791.383,151.327,810.406,160.047,809.641,171.782z"/>
		<g>
			<path fill="#333333" d="M765.16,148.811c-24.307,0-44.013,9.265-44.013,20.693c0,11.427,19.706,20.688,44.013,20.688
				c24.31,0,44.014-9.262,44.014-20.688C809.174,158.074,789.468,148.811,765.16,148.811z M765.16,186.298
				c-19.699,0-35.728-7.532-35.728-16.794c0-9.263,16.026-16.798,35.728-16.798s35.729,7.535,35.729,16.798
				C800.888,178.766,784.86,186.298,765.16,186.298z"/>
			<path fill="#60965A" d="M765.16,154.529c-17.561,0-31.848,6.721-31.848,14.976c0,8.256,14.287,14.97,31.848,14.97
				c17.562,0,31.848-6.714,31.848-14.97C797.008,161.245,782.721,154.529,765.16,154.529z"/>
			<path id="path4934_3_" fill="#FFFFFF" d="M768.02,158.443c-0.609,0-1.225,0.004-1.855,0.015h-6.444h-7.229v16.862h-1.26v2.511
				h1.26v3.706h6.445v-3.706h0.784v3.706h6.445v-3.706h1.07v-2.511h-1.07v-2.729l2.808,0.005c5.615,0,10.532,0.195,14.785-2.411
				c1.652-1.146,2.668-2.491,2.945-3.854c0.56-2.757-1.879-5.588-8.063-7.012C776.002,158.687,772.286,158.447,768.02,158.443
				L768.02,158.443z M758.936,160.941h0.784v8.425v2.493v3.457h-0.784v-3.457v-2.493V160.941z M766.164,160.941
				c12.744,0.214,17.659,3.697,15.192,6.807c-0.699,0.864-1.441,1.341-3.004,1.831c0.063-0.123,0.13-0.251,0.179-0.374
				c0.924-2.428-0.826-5.346-9.391-6.959c6.813,1.847,9.563,5.133,6.386,7.255c-5.409,0.39-9.362-1.716-9.362-4.14V160.941z"/>
			<path fill="#333333" d="M721.257,171.657c0,0-8.056,24.354,42.968,24.429c49.999,0.07,45.058-24.43,45.058-24.43
				s-1.116,20.123-44.225,20.123C721.946,191.78,721.257,171.657,721.257,171.657z"/>
		</g>
	</g>
	<g>
		<path fill="#FFFFFF" d="M806.641,200.781c-1,15.341-18.842,24.289-43.833,24.289s-46.251-7.186-45-24.289
			c1.333-18.217,20.593-20.455,45.583-20.455C788.383,180.326,807.406,189.047,806.641,200.781z"/>
		<g>
			<path fill="#333333" d="M762.16,177.811c-24.307,0-44.013,9.264-44.013,20.693c0,11.427,19.706,20.688,44.013,20.688
				c24.31,0,44.014-9.262,44.014-20.688C806.174,187.073,786.468,177.811,762.16,177.811z M762.16,215.298
				c-19.699,0-35.728-7.532-35.728-16.794c0-9.264,16.026-16.799,35.728-16.799s35.729,7.535,35.729,16.799
				C797.888,207.766,781.86,215.298,762.16,215.298z"/>
			<path fill="#60965A" d="M762.16,183.529c-17.561,0-31.848,6.72-31.848,14.976s14.287,14.97,31.848,14.97
				c17.562,0,31.848-6.714,31.848-14.97C794.008,190.244,779.721,183.529,762.16,183.529z"/>
			<path id="path4934_4_" fill="#FFFFFF" d="M765.02,187.443c-0.609,0-1.225,0.004-1.855,0.014h-6.444h-7.229v16.863h-1.26v2.511
				h1.26v3.706h6.445v-3.706h0.784v3.706h6.445v-3.706h1.07v-2.511h-1.07v-2.729l2.808,0.005c5.615,0,10.532,0.195,14.785-2.411
				c1.652-1.146,2.668-2.491,2.945-3.854c0.56-2.757-1.879-5.588-8.063-7.011C773.002,187.687,769.286,187.447,765.02,187.443
				L765.02,187.443z M755.936,189.941h0.784v8.424v2.494v3.457h-0.784v-3.457v-2.494V189.941z M763.164,189.941
				c12.744,0.214,17.659,3.697,15.192,6.806c-0.699,0.865-1.441,1.342-3.004,1.831c0.063-0.123,0.13-0.251,0.179-0.374
				c0.924-2.427-0.826-5.345-9.391-6.959c6.813,1.848,9.563,5.134,6.386,7.256c-5.409,0.39-9.362-1.717-9.362-4.14V189.941z"/>
			<path fill="#333333" d="M718.257,200.656c0,0-8.056,24.355,42.968,24.43c50,0.07,45.058-24.43,45.058-24.43
				s-1.116,20.123-44.225,20.123C718.946,220.78,718.257,200.656,718.257,200.656z"/>
		</g>
	</g>
	<g>
		<path fill="#FFFFFF" d="M706.641,200.781c-1,15.341-18.842,24.289-43.833,24.289s-46.251-7.186-45-24.289
			c1.333-18.217,20.593-20.455,45.583-20.455C688.383,180.326,707.406,189.047,706.641,200.781z"/>
		<g>
			<path fill="#333333" d="M662.16,177.811c-24.307,0-44.013,9.264-44.013,20.693c0,11.427,19.706,20.688,44.013,20.688
				c24.31,0,44.014-9.262,44.014-20.688C706.174,187.073,686.468,177.811,662.16,177.811z M662.16,215.298
				c-19.699,0-35.728-7.532-35.728-16.794c0-9.264,16.026-16.799,35.728-16.799s35.729,7.535,35.729,16.799
				C697.888,207.766,681.86,215.298,662.16,215.298z"/>
			<path fill="#60965A" d="M662.16,183.529c-17.561,0-31.848,6.72-31.848,14.976s14.287,14.97,31.848,14.97
				c17.562,0,31.848-6.714,31.848-14.97C694.008,190.244,679.721,183.529,662.16,183.529z"/>
			<path id="path4934_5_" fill="#FFFFFF" d="M665.02,187.443c-0.609,0-1.225,0.004-1.855,0.014h-6.444h-7.229v16.863h-1.26v2.511
				h1.26v3.706h6.445v-3.706h0.784v3.706h6.445v-3.706h1.07v-2.511h-1.07v-2.729l2.808,0.005c5.615,0,10.532,0.195,14.785-2.411
				c1.652-1.146,2.668-2.491,2.945-3.854c0.56-2.757-1.879-5.588-8.063-7.011C673.002,187.687,669.286,187.447,665.02,187.443
				L665.02,187.443z M655.936,189.941h0.784v8.424v2.494v3.457h-0.784v-3.457v-2.494V189.941z M663.164,189.941
				c12.744,0.214,17.659,3.697,15.192,6.806c-0.699,0.865-1.441,1.342-3.004,1.831c0.063-0.123,0.13-0.251,0.179-0.374
				c0.924-2.427-0.826-5.345-9.391-6.959c6.813,1.848,9.563,5.134,6.386,7.256c-5.409,0.39-9.362-1.717-9.362-4.14V189.941z"/>
			<path fill="#333333" d="M618.257,200.656c0,0-8.056,24.355,42.968,24.43c50,0.07,45.058-24.43,45.058-24.43
				s-1.116,20.123-44.225,20.123C618.946,220.78,618.257,200.656,618.257,200.656z"/>
		</g>
	</g>
	<g>
		<path fill="#FFFFFF" d="M750.641,144.782c-1,15.341-18.842,24.288-43.833,24.288s-46.251-7.186-45-24.288
			c1.333-18.218,20.593-20.455,45.583-20.455C732.383,124.327,751.406,133.047,750.641,144.782z"/>
		<g>
			<path fill="#333333" d="M706.16,121.811c-24.307,0-44.013,9.265-44.013,20.693c0,11.427,19.706,20.688,44.013,20.688
				c24.31,0,44.014-9.262,44.014-20.688C750.174,131.074,730.468,121.811,706.16,121.811z M706.16,159.298
				c-19.699,0-35.728-7.532-35.728-16.794c0-9.263,16.026-16.798,35.728-16.798s35.729,7.535,35.729,16.798
				C741.888,151.766,725.86,159.298,706.16,159.298z"/>
			<path fill="#60965A" d="M706.16,127.529c-17.561,0-31.848,6.721-31.848,14.976c0,8.256,14.287,14.97,31.848,14.97
				c17.562,0,31.848-6.714,31.848-14.97C738.008,134.245,723.721,127.529,706.16,127.529z"/>
			<path id="path4934_6_" fill="#FFFFFF" d="M709.02,131.443c-0.609,0-1.225,0.004-1.855,0.015h-6.444h-7.229v16.862h-1.26v2.512
				h1.26v3.706h6.445v-3.706h0.784v3.706h6.445v-3.706h1.07v-2.512h-1.07v-2.729l2.808,0.005c5.615,0,10.532,0.195,14.785-2.411
				c1.652-1.146,2.668-2.491,2.945-3.854c0.56-2.757-1.879-5.588-8.063-7.012C717.002,131.687,713.286,131.447,709.02,131.443
				L709.02,131.443z M699.936,133.941h0.784v8.424v2.494v3.457h-0.784v-3.457v-2.494V133.941z M707.164,133.941
				c12.744,0.214,17.659,3.697,15.192,6.807c-0.699,0.864-1.441,1.341-3.004,1.831c0.063-0.123,0.13-0.251,0.179-0.374
				c0.924-2.428-0.826-5.346-9.391-6.959c6.813,1.847,9.563,5.133,6.386,7.255c-5.409,0.39-9.362-1.716-9.362-4.14V133.941z"/>
			<path fill="#333333" d="M662.257,144.657c0,0-8.056,24.354,42.968,24.429c50,0.071,45.058-24.43,45.058-24.43
				s-1.116,20.123-44.225,20.123C662.946,164.78,662.257,144.657,662.257,144.657z"/>
		</g>
	</g>
	<g>
		<path fill="#FFFFFF" d="M705.464,166.029c-1,15.341-18.843,24.289-43.833,24.289c-24.991,0-46.251-7.186-45-24.289
			c1.333-18.217,20.593-20.454,45.583-20.454S706.229,154.294,705.464,166.029z"/>
		<g>
			<path fill="#333333" d="M660.982,143.058c-24.307,0-44.013,9.264-44.013,20.693c0,11.427,19.706,20.688,44.013,20.688
				c24.309,0,44.013-9.262,44.013-20.688C704.995,152.321,685.289,143.058,660.982,143.058z M660.982,180.545
				c-19.7,0-35.729-7.532-35.729-16.794c0-9.264,16.027-16.798,35.729-16.798s35.729,7.534,35.729,16.798
				C696.711,173.013,680.683,180.545,660.982,180.545z"/>
			<path fill="#60965A" d="M660.982,148.776c-17.561,0-31.848,6.721-31.848,14.976c0,8.256,14.287,14.97,31.848,14.97
				s31.847-6.714,31.847-14.97C692.829,155.492,678.543,148.776,660.982,148.776z"/>
			<path id="path4934_7_" fill="#FFFFFF" d="M663.843,152.69c-0.609,0-1.226,0.004-1.855,0.015h-6.444h-7.229v16.862h-1.26v2.512
				h1.26v3.705h6.445v-3.705h0.784v3.705h6.445v-3.705h1.07v-2.512h-1.07v-2.729l2.808,0.005c5.614,0,10.531,0.195,14.784-2.411
				c1.653-1.146,2.668-2.491,2.946-3.854c0.56-2.758-1.879-5.589-8.063-7.012C671.823,152.934,668.108,152.694,663.843,152.69
				L663.843,152.69z M654.759,155.188h0.783v8.424v2.494v3.457h-0.783v-3.457v-2.494V155.188z M661.986,155.188
				c12.744,0.214,17.659,3.697,15.192,6.807c-0.699,0.864-1.441,1.341-3.004,1.831c0.063-0.123,0.13-0.252,0.179-0.374
				c0.924-2.428-0.826-5.346-9.391-6.959c6.813,1.847,9.563,5.133,6.386,7.255c-5.409,0.39-9.362-1.717-9.362-4.14V155.188z"/>
			<path fill="#333333" d="M617.078,165.904c0,0-8.055,24.355,42.969,24.429c50,0.071,45.058-24.429,45.058-24.429
				s-1.116,20.123-44.225,20.123C617.769,186.027,617.078,165.904,617.078,165.904z"/>
		</g>
	</g>
	<g>
		<path fill="#FFFFFF" d="M804.723,151.949c-1,15.341-18.842,24.288-43.833,24.288s-46.251-7.186-45-24.288
			c1.333-18.218,20.593-20.455,45.583-20.455C786.465,131.494,805.488,140.214,804.723,151.949z"/>
		<g>
			<path fill="#333333" d="M760.242,128.978c-24.307,0-44.013,9.265-44.013,20.693c0,11.427,19.706,20.688,44.013,20.688
				c24.31,0,44.014-9.262,44.014-20.688C804.256,138.241,784.55,128.978,760.242,128.978z M760.242,166.465
				c-19.7,0-35.728-7.532-35.728-16.794c0-9.263,16.026-16.798,35.728-16.798s35.729,7.535,35.729,16.798
				C795.97,158.933,779.942,166.465,760.242,166.465z"/>
			<path fill="#60965A" d="M760.242,134.696c-17.561,0-31.848,6.721-31.848,14.976c0,8.256,14.287,14.97,31.848,14.97
				c17.562,0,31.848-6.714,31.848-14.97C792.09,141.412,777.803,134.696,760.242,134.696z"/>
			<path id="path4934_8_" fill="#FFFFFF" d="M763.102,138.61c-0.609,0-1.226,0.004-1.855,0.015h-6.444h-7.229v16.862h-1.26v2.512
				h1.26v3.706h6.445v-3.706h0.784v3.706h6.445v-3.706h1.07v-2.512h-1.07v-2.729l2.808,0.005c5.614,0,10.532,0.195,14.785-2.411
				c1.652-1.146,2.668-2.491,2.945-3.854c0.56-2.757-1.879-5.588-8.063-7.012C771.083,138.854,767.368,138.614,763.102,138.61
				L763.102,138.61z M754.018,141.108h0.784v8.425v2.493v3.457h-0.784v-3.457v-2.493V141.108z M761.246,141.108
				c12.744,0.214,17.659,3.697,15.192,6.807c-0.699,0.864-1.441,1.341-3.004,1.831c0.063-0.123,0.13-0.251,0.179-0.374
				c0.924-2.428-0.826-5.346-9.391-6.959c6.813,1.847,9.563,5.133,6.386,7.255c-5.409,0.39-9.362-1.716-9.362-4.14V141.108z"/>
			<path fill="#333333" d="M716.339,151.824c0,0-8.056,24.354,42.968,24.429c50,0.07,45.058-24.43,45.058-24.43
				s-1.116,20.123-44.225,20.123C717.028,171.947,716.339,151.824,716.339,151.824z"/>
		</g>
	</g>
	<g>
		<path fill="#FFFFFF" d="M751.286,180.034c-1,15.342-18.842,24.289-43.833,24.289c-24.99,0-46.251-7.186-45-24.289
			c1.333-18.217,20.594-20.454,45.583-20.454C733.027,159.58,752.052,168.3,751.286,180.034z"/>
		<g>
			<path fill="#333333" d="M706.806,157.063c-24.308,0-44.014,9.265-44.014,20.693c0,11.427,19.706,20.688,44.014,20.688
				c24.309,0,44.013-9.262,44.013-20.688C750.818,166.327,731.112,157.063,706.806,157.063z M706.806,194.551
				c-19.7,0-35.729-7.532-35.729-16.794c0-9.263,16.027-16.798,35.729-16.798s35.728,7.535,35.728,16.798
				C742.533,187.019,726.507,194.551,706.806,194.551z"/>
			<path fill="#60965A" d="M706.806,162.782c-17.562,0-31.849,6.72-31.849,14.975c0,8.256,14.287,14.97,31.849,14.97
				c17.561,0,31.847-6.714,31.847-14.97C738.652,169.498,724.366,162.782,706.806,162.782z"/>
			<path id="path4934_9_" fill="#FFFFFF" d="M709.665,166.696c-0.608,0-1.225,0.005-1.854,0.015h-6.445h-7.229v16.862h-1.26v2.512
				h1.26v3.705h6.444v-3.705h0.784v3.705h6.446v-3.705h1.07v-2.512h-1.07v-2.729l2.807,0.005c5.615,0,10.532,0.195,14.785-2.411
				c1.653-1.146,2.668-2.491,2.946-3.854c0.559-2.757-1.879-5.588-8.063-7.011C717.647,166.939,713.932,166.7,709.665,166.696
				L709.665,166.696z M700.581,169.194h0.784v8.424v2.494v3.457h-0.784v-3.457v-2.494V169.194z M707.81,169.194
				c12.744,0.215,17.659,3.697,15.191,6.807c-0.698,0.864-1.44,1.341-3.004,1.83c0.063-0.123,0.131-0.251,0.18-0.374
				c0.924-2.427-0.826-5.345-9.392-6.958c6.813,1.847,9.563,5.133,6.387,7.255c-5.409,0.39-9.362-1.717-9.362-4.14V169.194z"/>
			<path fill="#333333" d="M662.901,179.909c0,0-8.055,24.355,42.968,24.43c50,0.07,45.059-24.43,45.059-24.43
				s-1.116,20.123-44.226,20.123S662.901,179.909,662.901,179.909z"/>
		</g>
	</g>
	<g>
		<path fill="#FFFFFF" d="M841.625,213.713c-9.387,12.174-29.186,9.646-49.927-4.294s-34.378-31.765-23.799-45.261
			c11.269-14.376,28.502-5.489,49.241,8.45C837.884,186.551,848.809,204.4,841.625,213.713z"/>
		<g>
			<path fill="#333333" d="M817.523,169.834c-20.172-13.56-41.695-16.863-48.07-7.378c-6.375,9.483,4.813,28.163,24.986,41.723
				c20.176,13.561,41.695,16.865,48.068,7.382C848.885,202.073,837.697,183.394,817.523,169.834z M796.612,200.946
				c-16.35-10.989-25.45-26.182-20.283-33.867c5.167-7.688,22.672-5,39.022,5.988c16.35,10.989,25.447,26.185,20.281,33.871
				C830.467,214.625,812.964,211.937,796.612,200.946z"/>
			<path fill="#60965A" d="M814.334,174.58c-14.573-9.796-30.18-12.188-34.784-5.337c-4.605,6.851,3.507,20.394,18.081,30.188
				c14.573,9.795,30.177,12.192,34.781,5.342C837.02,197.92,828.908,184.376,814.334,174.58z"/>
			<path id="path4934_10_" fill="#FFFFFF" d="M814.523,179.424c-0.506-0.34-1.018-0.681-1.547-1.023l-5.35-3.596l-6-4.032
				l-9.406,13.996l-1.045-0.703l-1.401,2.084l1.046,0.702l-2.066,3.076l5.35,3.596l2.067-3.076l0.649,0.438l-2.066,3.076
				l5.351,3.596l2.067-3.076l0.888,0.598l1.4-2.084l-0.889-0.597l1.521-2.265l2.327,1.568c4.659,3.134,8.631,6.037,13.614,6.247
				c2.013-0.028,3.604-0.58,4.597-1.556c2.002-1.978,1.559-5.687-2.781-10.316C821.012,184.077,818.063,181.808,814.523,179.424
				L814.523,179.424z M805.593,176.43l0.649,0.438l-4.698,6.991l-1.393,2.07l-1.929,2.869l-0.65-0.438l1.93-2.869l1.392-2.069
				L805.593,176.43z M811.592,180.462c10.456,7.286,12.593,12.92,8.812,14.124c-1.063,0.326-1.942,0.309-3.514-0.156
				c0.121-0.067,0.248-0.136,0.354-0.211c2.121-1.499,2.297-4.896-3.91-11.015c4.623,5.333,5.072,9.595,1.253,9.583
				c-4.706-2.693-6.813-6.646-5.462-8.656L811.592,180.462z"/>
			<path fill="#333333" d="M768.343,164.304c0,0-20.271,15.721,22.032,44.244c41.457,27.95,51.021,4.859,51.021,4.859
				s-12.15,16.078-47.928-7.969C757.69,181.391,768.343,164.304,768.343,164.304z"/>
		</g>
	</g>
	<g>
		<path fill="#FFFFFF" d="M661.927,166.547c6.381,13.986-5.101,30.313-27.114,42.144c-22.015,11.83-44.144,15.563-51.137-0.095
			c-7.448-16.68,8.458-27.768,30.471-39.595C636.161,157.171,657.048,155.848,661.927,166.547z"/>
		<g>
			<path fill="#333333" d="M611.872,167.366c-21.411,11.504-34.386,28.992-28.976,39.062c5.409,10.064,27.151,8.896,48.563-2.609
				c21.413-11.506,34.388-28.99,28.979-39.057C655.026,154.693,633.283,155.861,611.872,167.366z M629.616,200.388
				c-17.354,9.325-35.037,10.275-39.421,2.118c-4.385-8.159,6.167-22.385,23.521-31.708c17.354-9.325,35.038-10.273,39.423-2.114
				C657.523,176.842,646.97,191.063,629.616,200.388z"/>
			<path fill="#60965A" d="M614.579,172.403c-15.469,8.313-24.874,20.994-20.966,28.267c3.907,7.271,19.671,6.424,35.141-1.889
				c15.469-8.313,24.875-20.987,20.967-28.261C645.811,163.245,630.049,164.092,614.579,172.403z"/>
			<path id="path4934_11_" fill="#FFFFFF" d="M618.95,174.498c-0.537,0.288-1.077,0.583-1.628,0.891l-5.678,3.051l-6.367,3.421
				l7.981,14.854l-1.109,0.597l1.188,2.212l1.108-0.597l1.755,3.265l5.678-3.051l-1.755-3.266l0.691-0.37l1.754,3.265l5.679-3.051
				l-1.755-3.266l0.943-0.507l-1.188-2.212l-0.942,0.507l-1.291-2.402l2.475-1.324c4.946-2.658,9.37-4.813,11.883-9.123
				c0.913-1.792,1.171-3.457,0.771-4.789c-0.813-2.692-4.3-4.033-10.421-2.358C626.096,170.935,622.711,172.482,618.95,174.498
				L618.95,174.498z M612.132,180.997l0.689-0.37l3.987,7.421l1.181,2.195l1.638,3.046l-0.691,0.371l-1.636-3.045l-1.182-2.196
				L612.132,180.997z M618.498,177.576c11.327-5.844,17.307-5.103,16.604-1.195c-0.207,1.093-0.636,1.862-1.779,3.033
				c-0.003-0.138-0.005-0.281-0.021-0.414c-0.334-2.573-3.258-4.315-11.565-1.685c6.876-1.599,10.854-0.005,9.061,3.368
				c-4.581,2.903-9.061,2.92-10.207,0.786L618.498,177.576z"/>
			<path fill="#333333" d="M584.012,208.273c0,0,4.433,25.267,49.412,1.18c44.077-23.604,28.128-42.846,28.128-42.846
				s8.541,18.254-29.433,38.659C594.145,225.672,584.012,208.273,584.012,208.273z"/>
		</g>
	</g>
	<g>
		<path fill="#FFFFFF" d="M712.533,138.269c-1,15.341-18.842,24.289-43.833,24.289s-46.251-7.186-45-24.289
			c1.333-18.217,20.593-20.455,45.583-20.455C694.274,117.813,713.3,126.533,712.533,138.269z"/>
		<g>
			<path fill="#333333" d="M668.053,115.297c-24.308,0-44.014,9.264-44.014,20.692c0,11.428,19.706,20.688,44.014,20.688
				c24.309,0,44.013-9.262,44.013-20.688C712.065,124.561,692.359,115.297,668.053,115.297z M668.053,152.784
				c-19.7,0-35.729-7.532-35.729-16.795s16.027-16.798,35.729-16.798s35.728,7.535,35.728,16.798
				C703.78,145.252,687.754,152.784,668.053,152.784z"/>
			<path fill="#60965A" d="M668.053,121.016c-17.562,0-31.849,6.72-31.849,14.976s14.287,14.97,31.849,14.97
				c17.561,0,31.847-6.714,31.847-14.97C699.899,127.731,685.613,121.016,668.053,121.016z"/>
			<path id="path4934_12_" fill="#FFFFFF" d="M670.912,124.93c-0.608,0-1.225,0.004-1.854,0.014h-6.445h-7.229v16.863h-1.261v2.511
				h1.261v3.706h6.444v-3.706h0.784v3.706h6.446v-3.706h1.07v-2.511h-1.07v-2.729l2.807,0.005c5.615,0,10.532,0.194,14.785-2.411
				c1.653-1.146,2.668-2.491,2.946-3.854c0.559-2.757-1.879-5.588-8.063-7.011C678.894,125.173,675.179,124.934,670.912,124.93
				L670.912,124.93z M661.828,127.428h0.784v8.424v2.494v3.457h-0.784v-3.457v-2.494V127.428z M669.057,127.428
				c12.744,0.214,17.659,3.697,15.191,6.806c-0.698,0.865-1.44,1.342-3.004,1.831c0.063-0.123,0.13-0.251,0.18-0.374
				c0.924-2.427-0.826-5.345-9.392-6.959c6.813,1.848,9.563,5.134,6.387,7.255c-5.409,0.391-9.362-1.716-9.362-4.139V127.428z"/>
			<path fill="#333333" d="M624.148,138.144c0,0-8.055,24.355,42.968,24.429c50,0.071,45.059-24.429,45.059-24.429
				s-1.116,20.123-44.226,20.123S624.148,138.144,624.148,138.144z"/>
		</g>
	</g>
	<g>
		<path fill="#FFFFFF" d="M770.942,140.432c-4.784,14.61-24.291,18.84-48.497,12.624c-24.205-6.215-43.01-18.463-37.545-34.718
			c5.822-17.313,25.033-14.69,49.238-8.476C758.345,116.078,774.603,129.256,770.942,140.432z"/>
		<g>
			<path fill="#333333" d="M733.573,107.119c-23.543-6.045-44.934-1.975-47.775,9.097c-2.844,11.067,13.94,24.938,37.482,30.985
				c23.545,6.046,44.935,1.976,47.775-9.093C773.898,127.038,757.116,113.165,733.573,107.119z M724.249,143.429
				c-19.081-4.899-32.73-16.182-30.428-25.152c2.304-8.972,19.702-12.283,38.783-7.384s32.729,16.186,30.427,25.155
				S743.33,148.328,724.249,143.429z"/>
			<path fill="#60965A" d="M732.15,112.658c-17.009-4.367-32.518-1.412-34.571,6.583c-2.053,7.996,10.115,18.053,27.124,22.421
				c17.01,4.366,32.517,1.417,34.569-6.579C761.326,127.084,749.159,117.025,732.15,112.658z"/>
			<path id="path4934_13_" fill="#FFFFFF" d="M733.946,117.16c-0.59-0.151-1.187-0.302-1.8-0.448l-6.243-1.604l-7.001-1.798
				l-4.193,16.333l-1.222-0.313l-0.624,2.432l1.22,0.313l-0.921,3.589l6.242,1.604l0.922-3.59l0.76,0.195l-0.922,3.59l6.243,1.603
				l0.922-3.589l1.037,0.267l0.624-2.433l-1.036-0.267l0.68-2.644l2.717,0.703c5.438,1.396,10.151,2.81,14.92,1.342
				c1.887-0.698,3.204-1.748,3.813-3.001c1.228-2.53-0.43-5.879-6.064-8.796C741.617,119.381,738.078,118.226,733.946,117.16
				L733.946,117.16z M724.527,117.321l0.759,0.194l-2.095,8.159l-0.62,2.416l-0.859,3.349l-0.761-0.194l0.86-3.35l0.62-2.416
				L724.527,117.321z M731.528,119.119c12.29,3.376,16.186,7.973,13.022,10.369c-0.894,0.664-1.729,0.94-3.365,1.026
				c0.092-0.104,0.188-0.211,0.267-0.318c1.498-2.119,0.528-5.382-7.364-9.074c6.14,3.482,7.984,7.35,4.381,8.613
				c-5.336-0.968-8.643-3.989-8.039-6.337L731.528,119.119z"/>
			<path fill="#333333" d="M685.366,118.328c0,0-13.858,21.587,35.542,34.348c48.411,12.505,49.717-12.454,49.717-12.454
				s-6.086,19.213-47.84,8.491C681.03,137.991,685.366,118.328,685.366,118.328z"/>
		</g>
	</g>
	<g>
		<path fill="#FFFFFF" d="M759.941,206.675c-1,15.341-18.842,24.289-43.833,24.289s-46.251-7.187-45-24.289
			c1.333-18.218,20.593-20.455,45.583-20.455C741.683,186.22,760.707,194.939,759.941,206.675z"/>
		<g>
			<path fill="#333333" d="M715.461,183.702c-24.307,0-44.013,9.265-44.013,20.693c0,11.427,19.706,20.688,44.013,20.688
				c24.31,0,44.014-9.263,44.014-20.688C759.474,192.967,739.768,183.702,715.461,183.702z M715.461,221.19
				c-19.699,0-35.728-7.532-35.728-16.794c0-9.263,16.027-16.798,35.728-16.798c19.701,0,35.729,7.535,35.729,16.798
				C751.189,213.657,735.161,221.19,715.461,221.19z"/>
			<path fill="#60965A" d="M715.461,189.422c-17.561,0-31.848,6.72-31.848,14.975c0,8.256,14.287,14.97,31.848,14.97
				c17.562,0,31.848-6.714,31.848-14.97C747.308,196.138,733.022,189.422,715.461,189.422z"/>
			<path id="path4934_14_" fill="#FFFFFF" d="M718.32,193.336c-0.609,0-1.225,0.004-1.854,0.014h-6.445h-7.229v16.863h-1.26v2.511
				h1.26v3.706h6.445v-3.706h0.784v3.706h6.446v-3.706h1.069v-2.511h-1.069v-2.729l2.807,0.005c5.615,0,10.532,0.195,14.785-2.411
				c1.652-1.146,2.668-2.49,2.945-3.854c0.56-2.757-1.879-5.588-8.063-7.011C726.302,193.578,722.588,193.34,718.32,193.336
				L718.32,193.336z M709.236,195.834h0.784v8.424v2.494v3.457h-0.784v-3.457v-2.494V195.834z M716.466,195.834
				c12.743,0.214,17.658,3.696,15.191,6.806c-0.698,0.865-1.44,1.341-3.004,1.831c0.063-0.123,0.13-0.251,0.179-0.374
				c0.925-2.427-0.825-5.345-9.391-6.959c6.813,1.847,9.563,5.133,6.386,7.255c-5.409,0.39-9.361-1.716-9.361-4.139V195.834z"/>
			<path fill="#333333" d="M671.557,206.55c0,0-8.056,24.354,42.968,24.429c50,0.071,45.058-24.429,45.058-24.429
				s-1.115,20.123-44.225,20.123C672.247,226.673,671.557,206.55,671.557,206.55z"/>
		</g>
	</g>
</g>
<g>
	<path fill="#333333" d="M-35.615,150.074c0.603,1.436,1.195,2.881,1.779,4.337c0.582-1.498,1.186-2.974,1.81-4.431
		c0.624-1.456,1.289-2.849,1.997-4.181l26.71-49.988c0.333-0.624,0.676-1.124,1.03-1.498c0.353-0.375,0.749-0.645,1.186-0.811
		c0.437-0.166,0.925-0.271,1.467-0.312c0.54-0.041,1.186-0.063,1.935-0.063h12.669v90.241H0.176V125.08
		c0-1.082,0.031-2.267,0.094-3.557c0.063-1.289,0.156-2.6,0.281-3.932l-27.272,51.174c-0.624,1.166-1.436,2.07-2.434,2.715
		c-0.999,0.646-2.164,0.967-3.495,0.967h-2.309c-1.332,0-2.496-0.322-3.495-0.967c-0.999-0.645-1.81-1.549-2.434-2.715
		l-27.646-51.361c0.166,1.373,0.281,2.715,0.343,4.025s0.093,2.527,0.093,3.651v58.289h-14.791V93.127h12.669
		c0.749,0,1.394,0.021,1.935,0.063c0.54,0.042,1.03,0.146,1.467,0.312c0.437,0.167,0.842,0.437,1.217,0.811s0.728,0.874,1.061,1.498
		l26.96,50.113C-36.874,147.256-36.219,148.638-35.615,150.074z"/>
	<path fill="#333333" d="M51.037,100.678c0,1.332-0.271,2.58-0.811,3.744c-0.542,1.166-1.259,2.185-2.153,3.058
		c-0.895,0.874-1.945,1.571-3.151,2.091c-1.208,0.521-2.497,0.78-3.869,0.78c-1.332,0-2.59-0.259-3.776-0.78
		c-1.186-0.52-2.215-1.217-3.089-2.091c-0.874-0.874-1.571-1.893-2.09-3.058c-0.521-1.164-0.78-2.412-0.78-3.744
		c0-1.373,0.259-2.662,0.78-3.869c0.52-1.207,1.217-2.247,2.09-3.121c0.874-0.874,1.904-1.57,3.089-2.091
		c1.186-0.52,2.444-0.78,3.776-0.78c1.373,0,2.662,0.26,3.869,0.78c1.206,0.521,2.256,1.217,3.151,2.091
		c0.894,0.874,1.612,1.914,2.153,3.121C50.766,98.016,51.037,99.305,51.037,100.678z M48.728,119.338v64.03H33.313v-64.03H48.728z"
		/>
	<path fill="#333333" d="M66.139,183.368v-64.03h9.423c1.997,0,3.308,0.936,3.932,2.809l1.061,5.055
		c1.289-1.331,2.652-2.537,4.088-3.62c1.436-1.081,2.954-2.018,4.556-2.808c1.601-0.79,3.317-1.394,5.148-1.81
		c1.831-0.415,3.828-0.624,5.991-0.624c3.495,0,6.594,0.593,9.299,1.779c2.704,1.186,4.961,2.85,6.771,4.993
		c1.81,2.143,3.183,4.702,4.119,7.676c0.936,2.975,1.404,6.251,1.404,9.83v40.752h-15.415v-40.752c0-3.911-0.905-6.937-2.715-9.081
		c-1.81-2.142-4.525-3.214-8.145-3.214c-2.663,0-5.159,0.604-7.489,1.81c-2.331,1.208-4.535,2.851-6.615,4.93v46.307H66.139z"/>
	<path fill="#333333" d="M158.127,184.366c-5.534,0-9.798-1.569-12.793-4.711c-2.996-3.141-4.493-7.479-4.493-13.012v-35.76h-6.491
		c-0.833,0-1.55-0.27-2.153-0.811c-0.604-0.541-0.905-1.352-0.905-2.434v-6.116l10.297-1.685l3.246-17.474
		c0.166-0.832,0.551-1.477,1.154-1.935c0.603-0.458,1.362-0.687,2.278-0.687h7.988V119.9h16.85v10.983h-16.85v34.699
		c0,1.997,0.499,3.557,1.498,4.681c0.999,1.123,2.33,1.685,3.994,1.685c0.957,0,1.757-0.114,2.403-0.343
		c0.645-0.229,1.206-0.468,1.685-0.718c0.478-0.25,0.905-0.489,1.279-0.718c0.375-0.228,0.749-0.343,1.124-0.343
		c0.457,0,0.832,0.115,1.123,0.343c0.291,0.229,0.603,0.572,0.936,1.03l4.618,7.489c-2.247,1.872-4.827,3.287-7.738,4.244
		C164.264,183.888,161.248,184.366,158.127,184.366z"/>
	<path fill="#333333" d="M204.121,100.678c0,1.332-0.271,2.58-0.811,3.744c-0.542,1.166-1.259,2.185-2.153,3.058
		c-0.895,0.874-1.945,1.571-3.151,2.091c-1.208,0.521-2.497,0.78-3.869,0.78c-1.332,0-2.59-0.259-3.776-0.78
		c-1.186-0.52-2.215-1.217-3.089-2.091c-0.874-0.874-1.571-1.893-2.09-3.058c-0.521-1.164-0.78-2.412-0.78-3.744
		c0-1.373,0.259-2.662,0.78-3.869c0.52-1.207,1.217-2.247,2.09-3.121c0.874-0.874,1.904-1.57,3.089-2.091
		c1.186-0.52,2.444-0.78,3.776-0.78c1.373,0,2.662,0.26,3.869,0.78c1.206,0.521,2.256,1.217,3.151,2.091
		c0.894,0.874,1.612,1.914,2.153,3.121C203.85,98.016,204.121,99.305,204.121,100.678z M201.812,119.338v64.03h-15.415v-64.03
		H201.812z"/>
	<path fill="#333333" d="M219.223,183.368v-64.03h9.423c1.997,0,3.308,0.936,3.932,2.809l1.061,5.055
		c1.289-1.331,2.652-2.537,4.088-3.62c1.436-1.081,2.954-2.018,4.556-2.808c1.601-0.79,3.317-1.394,5.148-1.81
		c1.831-0.415,3.828-0.624,5.991-0.624c3.495,0,6.594,0.593,9.299,1.779c2.704,1.186,4.961,2.85,6.771,4.993
		c1.81,2.143,3.183,4.702,4.119,7.676c0.936,2.975,1.404,6.251,1.404,9.83v40.752h-15.415v-40.752c0-3.911-0.905-6.937-2.715-9.081
		c-1.81-2.142-4.525-3.214-8.145-3.214c-2.663,0-5.159,0.604-7.489,1.81c-2.331,1.208-4.535,2.851-6.615,4.93v46.307H219.223z"/>
	<path fill="#333333" d="M312.335,118.215c2.746,0,5.325,0.281,7.738,0.842c2.413,0.562,4.618,1.384,6.615,2.465h18.41v5.741
		c0,0.958-0.25,1.707-0.749,2.247c-0.5,0.542-1.353,0.916-2.559,1.124l-5.741,1.061c0.416,1.082,0.738,2.226,0.967,3.432
		c0.228,1.208,0.343,2.476,0.343,3.807c0,3.162-0.635,6.022-1.903,8.581c-1.27,2.559-3.017,4.733-5.242,6.521
		c-2.227,1.79-4.868,3.173-7.926,4.15c-3.058,0.978-6.376,1.467-9.954,1.467c-2.414,0-4.765-0.228-7.052-0.687
		c-1.997,1.216-2.996,2.578-2.996,4.086c0,1.3,0.593,2.253,1.779,2.861c1.186,0.607,2.746,1.037,4.681,1.288
		s4.128,0.377,6.584,0.377c2.454,0,4.971,0.104,7.551,0.313c2.579,0.208,5.096,0.574,7.551,1.096
		c2.454,0.521,4.649,1.346,6.584,2.473c1.935,1.127,3.495,2.662,4.681,4.603c1.186,1.94,1.778,4.435,1.778,7.481
		c0,2.838-0.697,5.593-2.09,8.265c-1.395,2.671-3.412,5.051-6.054,7.138c-2.643,2.086-5.877,3.767-9.705,5.041
		c-3.828,1.272-8.197,1.909-13.105,1.909c-4.868,0-9.091-0.468-12.668-1.404c-3.579-0.937-6.543-2.185-8.893-3.744
		c-2.351-1.561-4.109-3.36-5.273-5.398c-1.166-2.039-1.748-4.161-1.748-6.366c0-2.995,0.915-5.513,2.746-7.551
		c1.83-2.038,4.368-3.661,7.614-4.868c-1.582-0.874-2.851-2.038-3.807-3.495c-0.958-1.456-1.436-3.349-1.436-5.679
		c0-0.957,0.166-1.944,0.5-2.964c0.333-1.019,0.842-2.028,1.529-3.026s1.55-1.944,2.59-2.84c1.04-0.894,2.268-1.695,3.682-2.402
		c-3.245-1.748-5.794-4.077-7.645-6.99c-1.852-2.912-2.777-6.324-2.777-10.235c0-3.162,0.634-6.022,1.903-8.581
		c1.269-2.559,3.037-4.743,5.305-6.553c2.267-1.81,4.951-3.193,8.051-4.15C305.292,118.694,308.673,118.215,312.335,118.215z
		 M329.247,186.057c0-1.274-0.375-2.315-1.124-3.121c-0.749-0.808-1.769-1.434-3.058-1.88c-1.29-0.447-2.798-0.775-4.524-0.988
		c-1.727-0.213-3.557-0.319-5.492-0.319c-1.935,0-3.932,0-5.991,0s-4.047-0.228-5.96-0.686c-1.748,0.957-3.152,2.09-4.212,3.4
		c-1.061,1.311-1.592,2.818-1.592,4.525c0,1.123,0.281,2.173,0.843,3.151c0.562,0.977,1.456,1.819,2.684,2.527
		c1.227,0.707,2.818,1.258,4.774,1.653c1.955,0.396,4.347,0.593,7.177,0.593c2.871,0,5.346-0.223,7.427-0.668
		c2.08-0.447,3.796-1.063,5.148-1.849c1.352-0.786,2.34-1.721,2.964-2.803C328.935,188.509,329.247,187.33,329.247,186.057z
		 M312.335,149.793c1.913,0,3.578-0.259,4.993-0.78c1.414-0.52,2.59-1.237,3.526-2.153c0.936-0.915,1.643-2.018,2.122-3.308
		c0.478-1.289,0.717-2.704,0.717-4.244c0-3.162-0.947-5.668-2.839-7.521c-1.894-1.851-4.733-2.777-8.519-2.777
		c-3.787,0-6.626,0.926-8.519,2.777c-1.894,1.852-2.84,4.359-2.84,7.521c0,1.498,0.239,2.892,0.718,4.181
		c0.478,1.29,1.186,2.403,2.122,3.339c0.936,0.936,2.122,1.665,3.557,2.184C308.809,149.534,310.462,149.793,312.335,149.793z"/>
</g>
<g>
	<path fill="#333333" d="M463.254,182.74l14.52,2.938c5.694-31.291,29.433-162.145,29.433-162.145
		c1.648-9.103-1.693-9.348-5.703-10.161c-4.014-0.788-7.184-1.894-8.837,7.231L463.254,182.74z"/>
	<path fill="#333333" d="M420.483,190.275l-1.971,9.997c-0.916,4.735-0.085,8.883,3.769,9.655c0,0,3.65,0.715,9.106,1.793
		c0,0,5.429-6.833,10.54-5.841c5.12,0.999,7.243,9.194,7.243,9.194c15.521,3.043,37.356,7.433,40.289,8.018
		c4.939,0.944,34.481-14.134,34.481-14.134l1.31-6.722c-3.16-0.614-29.083,2.988-32.014,2.404
		c-2.933-0.569-7.963-10.929-7.963-10.929l-31.061-5.523c0,0-4.56,5.853-10.13,5.084c-5.572-0.784-7.565-8.87-7.565-8.87
		l-8.914-1.658C423.762,181.99,421.409,185.514,420.483,190.275z"/>
</g>
</svg>
