<?xml version="1.0" encoding="utf-8"?>
<!-- Generator: Adobe Illustrator 16.0.0, SVG Export Plug-In . SVG Version: 6.00 Build 0)  -->
<!DOCTYPE svg PUBLIC "-//W3C//DTD SVG 1.1//EN" "http://www.w3.org/Graphics/SVG/1.1/DTD/svg11.dtd">
<svg version="1.1" id="Layer_1" xmlns="http://www.w3.org/2000/svg" xmlns:xlink="http://www.w3.org/1999/xlink" x="0px" y="0px"
	 viewBox="6.044 83.479 983.951 836.045"
	 enable-background="new 6.044 83.479 983.951 836.045" xml:space="preserve">
<g>
	<path fill="#333333" d="M851.998,691.912c-12.338-16.133-28.261-24.472-55.155-27.152c-4.854-0.979-8.512-5.279-8.512-10.387
		c0-3.741,11.998-14.938,11.914-15.019c12.386-12.81,19.024-33.626,19.024-49.624c0-24.853-20.003-45.027-44.685-45.027
		c-24.685,0-44.688,20.175-44.688,45.027c0,16.085,6.47,37.028,18.982,49.837c0,0,11.959,11.067,11.959,14.81
		c0,5.407-4.083,9.917-9.362,10.557c-26.345,2.769-42.09,11.062-54.305,26.981c-3.531,4.591-5.447,13.827-5.576,18.767
		c0.042,1.279,0,21.282,0,21.282c0,9.407,7.621,17.024,17.025,17.024h131.934c9.407,0,17.025-7.617,17.025-17.024
		c0,0-0.042-20.003,0-21.282C857.454,705.742,855.53,696.506,851.998,691.912z"/>
	<g>
		<g>
			<path fill="#FFFFFF" d="M847.813,748.259c-0.727,11.134-13.674,17.629-31.81,17.629c-18.139,0-33.566-5.216-32.656-17.629
				c0.967-13.221,14.943-14.842,33.079-14.842C834.563,733.417,848.368,739.74,847.813,748.259z"/>
			<g>
				<path fill="#333333" d="M815.531,731.589c-17.641,0-31.941,6.72-31.941,15.016c0,8.293,14.301,15.013,31.941,15.013
					s31.941-6.72,31.941-15.013C847.473,738.308,833.172,731.589,815.531,731.589z M815.531,758.792
					c-14.295,0-25.928-5.462-25.928-12.188c0-6.72,11.633-12.19,25.928-12.19c14.296,0,25.931,5.468,25.931,12.19
					S829.826,758.792,815.531,758.792z"/>
				<path fill="#60965A" d="M815.531,735.738c-12.746,0-23.111,4.876-23.111,10.869c0,5.99,10.368,10.86,23.111,10.86
					s23.114-4.87,23.114-10.86C838.646,740.611,828.278,735.738,815.531,735.738z"/>
				<path id="path4934_14_" fill="#FFFFFF" d="M817.607,738.578c-0.441,0-0.889,0.004-1.346,0.01h-4.678h-5.246v12.238h-0.915v1.822
					h0.915v2.69h4.679v-2.69h0.567v2.69h4.678v-2.69h0.775v-1.822h-0.775v-1.981l2.036,0.006c4.074,0,7.645,0.141,10.731-1.751
					c1.198-0.831,1.937-1.811,2.138-2.798c0.405-2.003-1.363-4.057-5.852-5.087C823.402,738.753,820.705,738.581,817.607,738.578
					L817.607,738.578z M811.016,740.392h0.567v6.113v1.811v2.51h-0.567v-2.51v-1.811V740.392z M816.261,740.392
					c9.248,0.155,12.815,2.684,11.022,4.938c-0.504,0.631-1.045,0.974-2.18,1.33c0.045-0.087,0.096-0.183,0.129-0.272
					c0.673-1.763-0.598-3.88-6.815-5.051c4.945,1.339,6.942,3.724,4.633,5.264c-3.925,0.285-6.792-1.243-6.792-3.003v-3.206H816.261
					z"/>
				<path fill="#333333" d="M783.671,748.169c0,0-5.847,17.676,31.182,17.728c36.284,0.054,32.698-17.728,32.698-17.728
					s-0.808,14.604-32.095,14.604S783.671,748.169,783.671,748.169z"/>
			</g>
		</g>
		<g>
			<path fill="#FFFFFF" d="M847.813,738.094c-0.727,11.134-13.674,17.629-31.81,17.629c-18.139,0-33.566-5.216-32.656-17.629
				c0.967-13.22,14.943-14.842,33.079-14.842C834.563,723.253,848.368,729.577,847.813,738.094z"/>
			<g>
				<path fill="#333333" d="M815.531,721.425c-17.641,0-31.941,6.72-31.941,15.016c0,8.294,14.301,15.014,31.941,15.014
					s31.941-6.72,31.941-15.014C847.473,728.147,833.169,721.425,815.531,721.425z M815.531,748.628
					c-14.295,0-25.928-5.462-25.928-12.188c0-6.72,11.633-12.19,25.928-12.19s25.931,5.468,25.931,12.19
					S829.826,748.628,815.531,748.628z"/>
				<path fill="#60965A" d="M815.531,725.574c-12.746,0-23.111,4.876-23.111,10.869c0,5.99,10.368,10.86,23.111,10.86
					s23.114-4.87,23.114-10.86C838.646,730.447,828.278,725.574,815.531,725.574z"/>
				<path id="path4934_1_" fill="#FFFFFF" d="M817.607,728.415c-0.441,0-0.889,0.003-1.346,0.009h-4.678h-5.246v12.238h-0.915v1.823
					h0.915v2.69h4.679v-2.69h0.567v2.69h4.678v-2.69h0.775v-1.823h-0.775v-1.981l2.036,0.006c4.074,0,7.645,0.142,10.731-1.75
					c1.194-0.832,1.937-1.811,2.135-2.799c0.408-2.003-1.36-4.057-5.849-5.087C823.402,728.589,820.702,728.418,817.607,728.415
					L817.607,728.415z M811.016,730.228h0.567v6.113v1.811v2.51h-0.567v-2.51v-1.811V730.228z M816.261,730.228
					c9.248,0.156,12.815,2.684,11.022,4.939c-0.507,0.63-1.045,0.973-2.18,1.33c0.045-0.088,0.094-0.184,0.129-0.273
					c0.673-1.763-0.598-3.88-6.815-5.051c4.945,1.34,6.938,3.724,4.633,5.264c-3.925,0.285-6.792-1.243-6.792-3.002v-3.207H816.261z
					"/>
				<path fill="#333333" d="M783.671,738.005c0,0-5.847,17.677,31.182,17.728c36.284,0.054,32.695-17.728,32.695-17.728
					s-0.805,14.604-32.092,14.604S783.671,738.005,783.671,738.005z"/>
			</g>
		</g>
		<g>
			<path fill="#FFFFFF" d="M847.518,727.466c-0.727,11.134-13.674,17.628-31.809,17.628c-18.139,0-33.566-5.215-32.657-17.628
				c0.967-13.221,14.944-14.842,33.08-14.842S848.076,718.947,847.518,727.466z"/>
			<g>
				<path fill="#333333" d="M815.238,710.795c-17.641,0-31.942,6.721-31.942,15.017c0,8.293,14.302,15.013,31.942,15.013
					c17.64,0,31.941-6.72,31.941-15.013S832.877,710.795,815.238,710.795z M815.238,737.999c-14.296,0-25.928-5.462-25.928-12.188
					c0-6.72,11.632-12.19,25.928-12.19c14.295,0,25.931,5.468,25.931,12.19S829.532,737.999,815.238,737.999z"/>
				<path fill="#60965A" d="M815.238,714.945c-12.746,0-23.111,4.876-23.111,10.869c0,5.99,10.368,10.86,23.111,10.86
					s23.114-4.87,23.114-10.86C838.352,719.818,827.984,714.945,815.238,714.945z"/>
				<path id="path4934_2_" fill="#FFFFFF" d="M817.312,717.785c-0.441,0-0.889,0.003-1.345,0.01h-4.678h-5.246v12.238h-0.916v1.822
					h0.916v2.69h4.678v-2.69h0.568v2.69h4.678v-2.69h0.774v-1.822h-0.774v-1.981l2.036,0.006c4.074,0,7.645,0.141,10.731-1.751
					c1.194-0.831,1.936-1.811,2.135-2.798c0.408-2.003-1.36-4.057-5.85-5.087C823.108,717.96,820.407,717.788,817.312,717.785
					L817.312,717.785z M810.722,719.598h0.567v6.113v1.811v2.511h-0.567v-2.511v-1.811V719.598z M815.967,719.598
					c9.248,0.156,12.815,2.685,11.022,4.939c-0.508,0.631-1.045,0.974-2.18,1.33c0.045-0.087,0.093-0.183,0.129-0.272
					c0.673-1.763-0.598-3.88-6.815-5.051c4.945,1.339,6.938,3.723,4.633,5.264c-3.925,0.285-6.792-1.243-6.792-3.003v-3.207H815.967
					z"/>
				<path fill="#333333" d="M783.376,727.376c0,0-5.846,17.676,31.183,17.728c36.283,0.054,32.695-17.728,32.695-17.728
					s-0.805,14.604-32.092,14.604S783.376,727.376,783.376,727.376z"/>
			</g>
		</g>
		<g>
			<path fill="#FFFFFF" d="M848.101,717.302c-0.727,11.134-13.677,17.629-31.813,17.629c-18.139,0-33.566-5.216-32.656-17.629
				c0.967-13.22,14.943-14.842,33.079-14.842C834.848,702.46,848.651,708.783,848.101,717.302z"/>
			<g>
				<path fill="#333333" d="M815.814,700.635c-17.641,0-31.938,6.72-31.938,15.016c0,8.293,14.302,15.014,31.938,15.014
					c17.644,0,31.944-6.721,31.944-15.014C847.758,707.354,833.454,700.635,815.814,700.635z M815.814,727.835
					c-14.295,0-25.928-5.462-25.928-12.188c0-6.72,11.633-12.19,25.928-12.19c14.299,0,25.934,5.468,25.934,12.19
					C841.741,722.37,830.113,727.835,815.814,727.835z"/>
				<path fill="#60965A" d="M815.814,704.781c-12.743,0-23.111,4.876-23.111,10.869c0,5.99,10.368,10.86,23.111,10.86
					c12.746,0,23.114-4.87,23.114-10.86C838.928,709.654,828.56,704.781,815.814,704.781z"/>
				<path id="path4934_3_" fill="#FFFFFF" d="M817.892,707.625c-0.438,0-0.889,0.003-1.343,0.009h-4.681h-5.245v12.238h-0.916v1.823
					h0.916v2.689h4.678v-2.689h0.567v2.689h4.681v-2.689h0.775v-1.823h-0.775v-1.981l2.036,0.006c4.075,0,7.645,0.142,10.731-1.75
					c1.195-0.832,1.937-1.811,2.135-2.799c0.408-2.003-1.36-4.057-5.849-5.086C823.684,707.796,820.988,707.628,817.892,707.625
					L817.892,707.625z M811.298,709.435h0.567v6.113v1.811v2.51h-0.567v-2.51v-1.811V709.435z M816.546,709.435
					c9.245,0.156,12.815,2.684,11.022,4.939c-0.507,0.63-1.045,0.973-2.18,1.33c0.045-0.088,0.094-0.184,0.129-0.273
					c0.673-1.763-0.598-3.88-6.815-5.051c4.942,1.339,6.938,3.724,4.633,5.264c-3.924,0.285-6.792-1.243-6.792-3.003v-3.206H816.546
					z"/>
				<path fill="#333333" d="M783.953,717.212c0,0-5.846,17.677,31.182,17.728c36.287,0.054,32.699-17.728,32.699-17.728
					s-0.812,14.604-32.096,14.604S783.953,717.212,783.953,717.212z"/>
			</g>
		</g>
	</g>
	<g>
		<g>
			<path fill="#FFFFFF" d="M889.957,752.291c-0.727,11.134-13.677,17.629-31.813,17.629c-18.139,0-33.566-5.216-32.66-17.629
				c0.967-13.22,14.944-14.842,33.083-14.842C876.703,737.446,890.51,743.773,889.957,752.291z"/>
			<g>
				<path fill="#333333" d="M857.67,735.621c-17.637,0-31.938,6.72-31.938,15.016c0,8.293,14.302,15.014,31.938,15.014
					c17.644,0,31.947-6.721,31.947-15.014C889.617,742.341,875.314,735.621,857.67,735.621z M857.67,762.821
					c-14.293,0-25.925-5.462-25.925-12.188c0-6.72,11.632-12.19,25.925-12.19c14.302,0,25.937,5.468,25.937,12.19
					C883.601,757.356,871.972,762.821,857.67,762.821z"/>
				<path fill="#60965A" d="M857.67,739.77c-12.743,0-23.108,4.876-23.108,10.869c0,5.99,10.365,10.86,23.108,10.86
					c12.746,0,23.114-4.87,23.114-10.86C880.784,744.643,870.416,739.77,857.67,739.77z"/>
				<path id="path4934_4_" fill="#FFFFFF" d="M859.745,742.611c-0.438,0-0.886,0.003-1.343,0.009h-4.681h-5.243v12.238h-0.915v1.823
					h0.915v2.689h4.676v-2.689h0.567v2.689h4.681v-2.689h0.775v-1.823h-0.775v-1.981l2.036,0.006c4.074,0,7.645,0.142,10.734-1.75
					c1.195-0.832,1.937-1.811,2.135-2.799c0.405-2.003-1.36-4.057-5.853-5.086C865.54,742.785,862.844,742.614,859.745,742.611
					L859.745,742.611z M853.155,744.425h0.567v6.113v1.811v2.51h-0.567v-2.51v-1.811V744.425z M858.403,744.425
					c9.245,0.156,12.818,2.685,11.022,4.939c-0.504,0.63-1.045,0.973-2.177,1.33c0.042-0.087,0.094-0.184,0.129-0.273
					c0.67-1.763-0.601-3.88-6.818-5.051c4.942,1.34,6.941,3.724,4.633,5.264c-3.925,0.285-6.792-1.243-6.792-3.003v-3.206H858.403z"
					/>
				<path fill="#333333" d="M825.813,752.198c0,0-5.846,17.677,31.185,17.728c36.287,0.054,32.698-17.728,32.698-17.728
					s-0.811,14.604-32.092,14.604C826.311,766.805,825.813,752.198,825.813,752.198z"/>
			</g>
		</g>
		<g>
			<path fill="#FFFFFF" d="M889.693,743.076c-0.727,11.134-13.677,17.629-31.813,17.629c-18.139,0-33.565-5.216-32.659-17.629
				c0.967-13.221,14.944-14.842,33.083-14.842C876.44,728.234,890.245,734.557,889.693,743.076z"/>
			<g>
				<path fill="#333333" d="M857.406,726.409c-17.637,0-31.938,6.72-31.938,15.016c0,8.293,14.302,15.014,31.938,15.014
					c17.644,0,31.948-6.721,31.948-15.014C889.354,733.129,875.049,726.409,857.406,726.409z M857.406,753.609
					c-14.292,0-25.924-5.462-25.924-12.188c0-6.72,11.632-12.19,25.924-12.19c14.302,0,25.937,5.468,25.937,12.19
					C883.336,748.144,871.707,753.609,857.406,753.609z"/>
				<path fill="#60965A" d="M857.406,730.555c-12.743,0-23.107,4.876-23.107,10.869c0,5.99,10.364,10.86,23.107,10.86
					c12.746,0,23.114-4.87,23.114-10.86C880.52,735.428,870.153,730.555,857.406,730.555z"/>
				<path id="path4934_5_" fill="#FFFFFF" d="M859.484,733.399c-0.438,0-0.886,0.003-1.342,0.009h-4.682h-5.242v12.238h-0.916v1.822
					h0.916v2.69h4.675v-2.69h0.567v2.69h4.682v-2.69h0.774v-1.822h-0.774v-1.981l2.036,0.006c4.074,0,7.645,0.142,10.733-1.75
					c1.195-0.832,1.937-1.812,2.136-2.799c0.405-2.003-1.36-4.057-5.85-5.087C865.276,733.57,862.579,733.402,859.484,733.399
					L859.484,733.399z M852.89,735.21h0.567v6.113v1.811v2.51h-0.567v-2.51v-1.811V735.21z M858.139,735.21
					c9.245,0.155,12.818,2.684,11.022,4.938c-0.505,0.631-1.045,0.974-2.181,1.33c0.049-0.087,0.094-0.183,0.13-0.272
					c0.673-1.763-0.598-3.88-6.816-5.051c4.942,1.339,6.942,3.724,4.634,5.264c-3.925,0.285-6.793-1.243-6.793-3.003v-3.206H858.139
					z"/>
				<path fill="#333333" d="M825.548,742.986c0,0-5.846,17.677,31.186,17.728c36.286,0.054,32.698-17.728,32.698-17.728
					s-0.811,14.604-32.092,14.604C826.047,757.591,825.548,742.986,825.548,742.986z"/>
			</g>
		</g>
	</g>
</g>
<g>
	<path fill="#333333" d="M589.313,843.732c-12.341-16.133-28.261-24.471-55.155-27.152c-4.855-0.979-8.513-5.278-8.513-10.386
		c0-3.741,11.999-14.938,11.914-15.02c12.387-12.809,19.025-33.626,19.025-49.624c0-24.853-20.004-45.026-44.686-45.026
		c-24.684,0-44.688,20.174-44.688,45.026c0,16.085,6.471,37.028,18.982,49.838c0,0,11.96,11.067,11.96,14.809
		c0,5.407-4.084,9.918-9.362,10.557c-26.345,2.769-42.091,11.063-54.306,26.982c-3.53,4.591-5.446,13.826-5.575,18.766
		c0.042,1.279,0,21.282,0,21.282c0,9.407,7.62,17.025,17.024,17.025h131.935c9.404,0,17.024-7.618,17.024-17.025
		c0,0-0.042-20.003,0-21.282C594.762,857.559,592.84,848.324,589.313,843.732z"/>
	<g>
		<g>
			<path fill="#FFFFFF" d="M576.693,897.854c-0.727,11.134-13.674,17.629-31.81,17.629c-18.139,0-33.566-5.216-32.656-17.629
				c0.967-13.22,14.943-14.842,33.079-14.842C563.445,883.012,577.251,889.336,576.693,897.854z"/>
			<g>
				<path fill="#333333" d="M544.414,881.184c-17.641,0-31.941,6.72-31.941,15.016c0,8.293,14.301,15.013,31.941,15.013
					s31.941-6.72,31.941-15.013S562.055,881.184,544.414,881.184z M544.414,908.387c-14.296,0-25.928-5.462-25.928-12.188
					c0-6.72,11.632-12.19,25.928-12.19c14.295,0,25.928,5.468,25.928,12.19S558.709,908.387,544.414,908.387z"/>
				<path fill="#60965A" d="M544.414,885.334c-12.746,0-23.111,4.876-23.111,10.869c0,5.99,10.368,10.86,23.111,10.86
					s23.114-4.87,23.114-10.86C567.529,890.207,557.16,885.334,544.414,885.334z"/>
				<path id="path4934_11_" fill="#FFFFFF" d="M546.49,888.177c-0.441,0-0.89,0.003-1.346,0.009h-4.678h-5.246v12.238h-0.915v1.822
					h0.915v2.69h4.679v-2.69h0.567v2.69h4.678v-2.69h0.774v-1.822h-0.774v-1.981l2.036,0.006c4.074,0,7.645,0.142,10.731-1.75
					c1.197-0.832,1.937-1.811,2.138-2.799c0.405-2.003-1.363-4.057-5.853-5.087C552.284,888.348,549.588,888.177,546.49,888.177
					L546.49,888.177z M539.899,889.988h0.567v6.113v1.811v2.51h-0.567v-2.51v-1.811V889.988z M545.144,889.988
					c9.248,0.156,12.815,2.684,11.022,4.938c-0.504,0.631-1.045,0.974-2.18,1.331c0.045-0.088,0.096-0.184,0.129-0.273
					c0.673-1.763-0.598-3.88-6.815-5.051c4.945,1.339,6.941,3.724,4.633,5.264c-3.925,0.285-6.792-1.243-6.792-3.003v-3.206H545.144
					z"/>
				<path fill="#333333" d="M512.554,897.764c0,0-5.847,17.677,31.182,17.728c36.286,0.054,32.701-17.728,32.701-17.728
					s-0.811,14.604-32.095,14.604S512.554,897.764,512.554,897.764z"/>
			</g>
		</g>
		<g>
			<path fill="#FFFFFF" d="M576.696,887.691c-0.727,11.133-13.677,17.628-31.813,17.628c-18.139,0-33.566-5.216-32.656-17.628
				c0.967-13.221,14.943-14.842,33.079-14.842S577.251,879.173,576.696,887.691z"/>
			<g>
				<path fill="#333333" d="M544.414,871.023c-17.641,0-31.941,6.72-31.941,15.016c0,8.294,14.301,15.014,31.941,15.014
					s31.941-6.72,31.941-15.014C576.356,877.743,562.052,871.023,544.414,871.023z M544.414,898.224
					c-14.296,0-25.928-5.462-25.928-12.188c0-6.72,11.632-12.19,25.928-12.19c14.295,0,25.931,5.468,25.931,12.19
					C570.342,892.76,558.709,898.224,544.414,898.224z"/>
				<path fill="#60965A" d="M544.414,875.17c-12.746,0-23.111,4.876-23.111,10.869c0,5.99,10.368,10.861,23.111,10.861
					s23.114-4.871,23.114-10.861C567.529,880.046,557.16,875.17,544.414,875.17z"/>
				<path id="path4934_10_" fill="#FFFFFF" d="M546.49,878.013c-0.441,0-0.89,0.003-1.346,0.009h-4.678h-5.246v12.238h-0.915v1.823
					h0.915v2.69h4.679v-2.69h0.567v2.69h4.678v-2.69h0.774v-1.823h-0.774v-1.981l2.036,0.006c4.074,0,7.645,0.142,10.731-1.75
					c1.194-0.832,1.937-1.811,2.135-2.799c0.408-2.003-1.36-4.057-5.85-5.086C552.284,878.184,549.585,878.016,546.49,878.013
					L546.49,878.013z M539.899,879.824h0.567v6.113v1.811v2.51h-0.567v-2.51v-1.811V879.824z M545.144,879.824
					c9.248,0.156,12.815,2.685,11.022,4.939c-0.507,0.63-1.045,0.973-2.18,1.33c0.045-0.087,0.093-0.184,0.129-0.273
					c0.673-1.763-0.598-3.88-6.815-5.051c4.945,1.34,6.938,3.724,4.633,5.264c-3.925,0.285-6.792-1.243-6.792-3.002v-3.207H545.144z
					"/>
				<path fill="#333333" d="M512.554,887.6c0,0-5.847,17.677,31.182,17.728c36.286,0.055,32.698-17.728,32.698-17.728
					s-0.808,14.605-32.092,14.605S512.554,887.6,512.554,887.6z"/>
			</g>
		</g>
		<g>
			<path fill="#FFFFFF" d="M576.405,877.061c-0.728,11.134-13.678,17.629-31.813,17.629c-18.139,0-33.565-5.216-32.656-17.629
				c0.967-13.22,14.944-14.842,33.08-14.842S576.956,868.543,576.405,877.061z"/>
			<g>
				<path fill="#333333" d="M544.12,860.394c-17.641,0-31.942,6.72-31.942,15.016c0,8.293,14.302,15.014,31.942,15.014
					c17.64,0,31.941-6.721,31.941-15.014C576.062,867.114,561.76,860.394,544.12,860.394z M544.12,887.594
					c-14.296,0-25.928-5.462-25.928-12.188c0-6.72,11.632-12.19,25.928-12.19c14.295,0,25.931,5.468,25.931,12.19
					S558.418,887.594,544.12,887.594z"/>
				<path fill="#60965A" d="M544.12,864.541c-12.746,0-23.111,4.876-23.111,10.869c0,5.99,10.368,10.86,23.111,10.86
					s23.113-4.87,23.113-10.86C567.234,869.414,556.866,864.541,544.12,864.541z"/>
				<path id="path4934_9_" fill="#FFFFFF" d="M546.195,867.385c-0.441,0-0.889,0.003-1.345,0.009h-4.678h-5.246v12.238h-0.916v1.822
					h0.916v2.69h4.678v-2.69h0.568v2.69h4.678v-2.69h0.774v-1.822h-0.774v-1.981l2.035,0.006c4.075,0,7.646,0.141,10.731-1.751
					c1.195-0.831,1.937-1.811,2.135-2.798c0.409-2.003-1.359-4.057-5.849-5.087C551.99,867.555,549.29,867.387,546.195,867.385
					L546.195,867.385z M539.604,869.195h0.568v6.113v1.811v2.51h-0.568v-2.51v-1.811V869.195z M544.85,869.195
					c9.248,0.156,12.814,2.684,11.022,4.938c-0.508,0.631-1.045,0.974-2.18,1.33c0.045-0.087,0.093-0.183,0.129-0.272
					c0.673-1.763-0.598-3.88-6.816-5.051c4.945,1.339,6.939,3.724,4.634,5.264c-3.925,0.285-6.792-1.243-6.792-3.003v-3.206H544.85z
					"/>
				<path fill="#333333" d="M512.259,876.971c0,0-5.846,17.677,31.183,17.728c36.286,0.054,32.698-17.728,32.698-17.728
					s-0.808,14.604-32.092,14.604S512.259,876.971,512.259,876.971z"/>
			</g>
		</g>
		<g>
			<path fill="#FFFFFF" d="M576.981,866.901c-0.727,11.133-13.677,17.628-31.813,17.628c-18.139,0-33.566-5.216-32.656-17.628
				c0.967-13.221,14.943-14.843,33.079-14.843S577.536,858.383,576.981,866.901z"/>
			<g>
				<path fill="#333333" d="M544.697,850.23c-17.641,0-31.938,6.72-31.938,15.016c0,8.294,14.301,15.014,31.938,15.014
					c17.644,0,31.944-6.72,31.944-15.014C576.641,856.95,562.337,850.23,544.697,850.23z M544.697,877.43
					c-14.296,0-25.928-5.461-25.928-12.188c0-6.72,11.632-12.19,25.928-12.19c14.299,0,25.934,5.468,25.934,12.19
					C570.627,871.967,558.995,877.43,544.697,877.43z"/>
				<path fill="#60965A" d="M544.697,854.38c-12.743,0-23.111,4.876-23.111,10.869c0,5.99,10.368,10.86,23.111,10.86
					c12.746,0,23.114-4.87,23.114-10.86C567.811,859.253,557.443,854.38,544.697,854.38z"/>
				<path id="path4934_8_" fill="#FFFFFF" d="M546.775,857.22c-0.438,0-0.889,0.003-1.343,0.009h-4.681h-5.246v12.238h-0.915v1.823
					h0.915v2.689h4.679v-2.689h0.567v2.689h4.681v-2.689h0.775v-1.823h-0.775v-1.981l2.036,0.006c4.074,0,7.645,0.142,10.731-1.75
					c1.195-0.832,1.937-1.811,2.135-2.799c0.408-2.003-1.36-4.057-5.85-5.086C552.567,857.394,549.87,857.223,546.775,857.22
					L546.775,857.22z M540.181,859.031h0.567v6.113v1.811v2.51h-0.567v-2.51v-1.811V859.031z M545.429,859.031
					c9.245,0.156,12.815,2.685,11.022,4.939c-0.507,0.63-1.045,0.973-2.18,1.33c0.045-0.087,0.093-0.184,0.129-0.273
					c0.673-1.763-0.598-3.88-6.815-5.051c4.942,1.34,6.938,3.724,4.633,5.264c-3.925,0.285-6.792-1.243-6.792-3.003v-3.206H545.429z
					"/>
				<path fill="#333333" d="M512.836,866.807c0,0-5.847,17.677,31.182,17.728c36.287,0.054,32.698-17.728,32.698-17.728
					s-0.808,14.604-32.092,14.604S512.836,866.807,512.836,866.807z"/>
			</g>
		</g>
	</g>
	<g>
		<g>
			<path fill="#FFFFFF" d="M618.84,901.887c-0.727,11.134-13.677,17.628-31.813,17.628c-18.139,0-33.566-5.216-32.656-17.628
				c0.967-13.221,14.943-14.843,33.079-14.843S619.393,893.369,618.84,901.887z"/>
			<g>
				<path fill="#333333" d="M586.556,885.217c-17.638,0-31.938,6.72-31.938,15.016c0,8.294,14.301,15.014,31.938,15.014
					c17.644,0,31.944-6.72,31.944-15.014C618.497,891.936,604.197,885.217,586.556,885.217z M586.556,912.42
					c-14.296,0-25.928-5.461-25.928-12.188c0-6.72,11.632-12.19,25.928-12.19c14.298,0,25.934,5.468,25.934,12.19
					C612.484,906.953,600.851,912.42,586.556,912.42z"/>
				<path fill="#60965A" d="M586.556,889.366c-12.743,0-23.111,4.876-23.111,10.87c0,5.989,10.368,10.86,23.111,10.86
					c12.746,0,23.114-4.871,23.114-10.86C609.67,894.239,599.302,889.366,586.556,889.366z"/>
				<path id="path4934_7_" fill="#FFFFFF" d="M588.631,892.207c-0.438,0-0.89,0.003-1.343,0.009h-4.681h-5.246v12.238h-0.916v1.823
					h0.916v2.69h4.679v-2.69h0.567v2.69h4.681v-2.69h0.774v-1.823h-0.774v-1.981l2.036,0.006c4.074,0,7.645,0.142,10.731-1.75
					c1.194-0.832,1.937-1.811,2.135-2.799c0.408-2.003-1.36-4.057-5.85-5.086C594.426,892.381,591.727,892.21,588.631,892.207
					L588.631,892.207z M582.04,894.02h0.567v6.113v1.811v2.511h-0.567v-2.511v-1.811V894.02z M587.288,894.02
					c9.245,0.156,12.815,2.685,11.022,4.939c-0.507,0.63-1.045,0.973-2.18,1.33c0.045-0.087,0.093-0.184,0.129-0.273
					c0.673-1.763-0.598-3.879-6.815-5.051c4.942,1.34,6.938,3.724,4.633,5.264c-3.925,0.285-6.792-1.243-6.792-3.002v-3.207H587.288
					z"/>
				<path fill="#333333" d="M554.696,901.797c0,0-5.847,17.677,31.182,17.728c36.287,0.055,32.698-17.728,32.698-17.728
					s-0.808,14.605-32.092,14.605S554.696,901.797,554.696,901.797z"/>
			</g>
		</g>
		<g>
			<path fill="#FFFFFF" d="M618.575,892.675c-0.727,11.134-13.677,17.629-31.813,17.629c-18.139,0-33.566-5.216-32.656-17.629
				c0.967-13.22,14.944-14.842,33.08-14.842S619.128,884.157,618.575,892.675z"/>
			<g>
				<path fill="#333333" d="M586.291,876.005c-17.637,0-31.938,6.72-31.938,15.016c0,8.294,14.302,15.014,31.938,15.014
					c17.644,0,31.945-6.72,31.945-15.014C618.234,882.724,603.932,876.005,586.291,876.005z M586.291,903.205
					c-14.295,0-25.927-5.461-25.927-12.188c0-6.72,11.632-12.19,25.927-12.19c14.299,0,25.934,5.468,25.934,12.19
					C612.219,897.74,600.587,903.205,586.291,903.205z"/>
				<path fill="#60965A" d="M586.291,880.154c-12.742,0-23.11,4.876-23.11,10.869c0,5.99,10.368,10.861,23.11,10.861
					c12.746,0,23.114-4.871,23.114-10.861C609.406,885.027,599.037,880.154,586.291,880.154z"/>
				<path id="path4934_6_" fill="#FFFFFF" d="M588.366,882.995c-0.438,0-0.889,0.003-1.342,0.009h-4.682h-5.245v12.238h-0.916v1.822
					h0.916v2.69h4.678v-2.69h0.567v2.69h4.682v-2.69h0.774v-1.822h-0.774v-1.981l2.035,0.006c4.075,0,7.645,0.142,10.731-1.75
					c1.195-0.832,1.937-1.811,2.135-2.799c0.408-2.003-1.36-4.057-5.849-5.087C594.161,883.169,591.462,882.998,588.366,882.995
					L588.366,882.995z M581.776,884.805h0.567v6.113v1.811v2.51h-0.567v-2.51v-1.811V884.805z M587.025,884.805
					c9.245,0.156,12.814,2.685,11.022,4.939c-0.508,0.63-1.045,0.973-2.18,1.33c0.045-0.087,0.093-0.184,0.129-0.273
					c0.672-1.763-0.598-3.88-6.816-5.051c4.942,1.34,6.939,3.724,4.633,5.264c-3.924,0.285-6.791-1.243-6.791-3.003v-3.206H587.025z
					"/>
				<path fill="#333333" d="M554.431,892.582c0,0-5.846,17.677,31.183,17.728c36.286,0.054,32.698-17.728,32.698-17.728
					s-0.808,14.604-32.092,14.604S554.431,892.582,554.431,892.582z"/>
			</g>
		</g>
	</g>
	<g>
		<g>
			<path fill="#FFFFFF" d="M576.329,856.977c-0.728,11.134-13.674,17.628-31.81,17.628c-18.139,0-33.566-5.216-32.656-17.628
				c0.967-13.221,14.943-14.842,33.079-14.842C563.081,842.135,576.884,848.459,576.329,856.977z"/>
			<g>
				<path fill="#333333" d="M544.051,840.306c-17.641,0-31.941,6.72-31.941,15.017c0,8.293,14.301,15.013,31.941,15.013
					s31.941-6.72,31.941-15.013C575.992,847.026,561.692,840.306,544.051,840.306z M544.051,867.51
					c-14.299,0-25.931-5.462-25.931-12.188c0-6.72,11.632-12.19,25.931-12.19s25.928,5.467,25.928,12.19
					C569.979,862.046,558.346,867.51,544.051,867.51z"/>
				<path fill="#60965A" d="M544.051,844.456c-12.746,0-23.114,4.877-23.114,10.87c0,5.99,10.368,10.86,23.114,10.86
					c12.743,0,23.111-4.87,23.111-10.86C567.162,849.33,556.794,844.456,544.051,844.456z"/>
				<path id="path4934_18_" fill="#FFFFFF" d="M546.122,847.297c-0.441,0-0.889,0.003-1.345,0.009H540.1h-5.246v12.239h-0.916v1.822
					h0.916v2.69h4.679v-2.69h0.567v2.69h4.678v-2.69h0.777v-1.822h-0.777v-1.982l2.039,0.006c4.074,0,7.645,0.142,10.729-1.75
					c1.197-0.832,1.939-1.811,2.141-2.799c0.405-2.002-1.366-4.057-5.853-5.086C551.918,847.47,549.225,847.3,546.122,847.297
					L546.122,847.297z M539.532,849.11h0.567v6.113v1.811v2.511h-0.567v-2.511v-1.811V849.11z M544.778,849.11
					c9.248,0.156,12.818,2.685,11.025,4.939c-0.504,0.631-1.045,0.973-2.183,1.33c0.048-0.087,0.096-0.184,0.132-0.273
					c0.673-1.763-0.598-3.879-6.818-5.05c4.945,1.339,6.944,3.723,4.636,5.263c-3.928,0.286-6.795-1.242-6.795-3.002v-3.207H544.778
					z"/>
				<path fill="#333333" d="M512.188,856.887c0,0-5.847,17.676,31.182,17.727c36.286,0.055,32.701-17.727,32.701-17.727
					s-0.811,14.604-32.095,14.604S512.188,856.887,512.188,856.887z"/>
			</g>
		</g>
		<g>
			<path fill="#FFFFFF" d="M576.332,846.813c-0.727,11.134-13.677,17.628-31.813,17.628c-18.139,0-33.566-5.215-32.656-17.628
				c0.967-13.221,14.943-14.842,33.079-14.842S576.884,838.295,576.332,846.813z"/>
			<g>
				<path fill="#333333" d="M544.051,830.142c-17.641,0-31.941,6.721-31.941,15.017c0,8.293,14.301,15.013,31.941,15.013
					s31.941-6.72,31.941-15.013S561.689,830.142,544.051,830.142z M544.051,857.346c-14.299,0-25.931-5.462-25.931-12.188
					c0-6.72,11.632-12.19,25.931-12.19c14.295,0,25.931,5.468,25.931,12.19C569.979,851.882,558.346,857.346,544.051,857.346z"/>
				<path fill="#60965A" d="M544.051,834.293c-12.746,0-23.114,4.876-23.114,10.869c0,5.99,10.368,10.86,23.114,10.86
					c12.743,0,23.111-4.87,23.111-10.86C567.162,839.166,556.794,834.293,544.051,834.293z"/>
				<path id="path4934_17_" fill="#FFFFFF" d="M546.122,837.133c-0.441,0-0.889,0.003-1.345,0.01H540.1h-5.246v12.238h-0.916v1.822
					h0.916v2.69h4.679v-2.69h0.567v2.69h4.678v-2.69h0.777v-1.822h-0.777v-1.981l2.039,0.006c4.074,0,7.645,0.141,10.731-1.751
					c1.194-0.831,1.937-1.811,2.135-2.798c0.408-2.003-1.36-4.057-5.85-5.087C551.918,837.307,549.221,837.135,546.122,837.133
					L546.122,837.133z M539.532,838.946h0.567v6.113v1.811v2.511h-0.567v-2.511v-1.811V838.946z M544.778,838.946
					c9.248,0.156,12.818,2.685,11.025,4.939c-0.507,0.631-1.045,0.973-2.18,1.33c0.045-0.087,0.093-0.183,0.129-0.272
					c0.673-1.763-0.598-3.88-6.818-5.051c4.945,1.339,6.941,3.723,4.636,5.264c-3.925,0.285-6.795-1.243-6.795-3.003v-3.207H544.778
					z"/>
				<path fill="#333333" d="M512.188,846.723c0,0-5.847,17.676,31.182,17.728c36.286,0.054,32.698-17.728,32.698-17.728
					s-0.808,14.604-32.092,14.604S512.188,846.723,512.188,846.723z"/>
			</g>
		</g>
		<g>
			<path fill="#FFFFFF" d="M576.037,836.184c-0.727,11.134-13.677,17.628-31.813,17.628c-18.139,0-33.566-5.216-32.656-17.628
				c0.967-13.221,14.944-14.842,33.08-14.842S576.593,827.666,576.037,836.184z"/>
			<g>
				<path fill="#333333" d="M543.757,819.513c-17.641,0-31.942,6.72-31.942,15.017c0,8.293,14.302,15.013,31.942,15.013
					c17.64,0,31.941-6.72,31.941-15.014C575.698,826.236,561.394,819.513,543.757,819.513z M543.757,846.718
					c-14.299,0-25.931-5.462-25.931-12.188c0-6.72,11.632-12.19,25.931-12.19c14.295,0,25.931,5.468,25.931,12.19
					C569.684,841.253,558.052,846.718,543.757,846.718z"/>
				<path fill="#60965A" d="M543.757,823.663c-12.746,0-23.114,4.877-23.114,10.87c0,5.99,10.368,10.86,23.114,10.86
					c12.743,0,23.11-4.87,23.11-10.86C566.867,828.536,556.5,823.663,543.757,823.663z"/>
				<path id="path4934_16_" fill="#FFFFFF" d="M545.831,826.504c-0.441,0-0.889,0.003-1.345,0.009h-4.679h-5.245v12.239h-0.916
					v1.822h0.916v2.69h4.678v-2.69h0.567v2.69h4.679v-2.69h0.777v-1.822h-0.777v-1.982l2.038,0.006c4.075,0,7.646,0.142,10.731-1.75
					c1.195-0.832,1.938-1.811,2.135-2.799c0.409-2.003-1.359-4.057-5.849-5.086C551.623,826.677,548.927,826.507,545.831,826.504
					L545.831,826.504z M539.238,828.317h0.567v6.113v1.811v2.51h-0.567v-2.51v-1.811V828.317z M544.484,828.317
					c9.248,0.156,12.817,2.685,11.025,4.939c-0.508,0.631-1.045,0.973-2.18,1.33c0.045-0.087,0.093-0.184,0.129-0.273
					c0.673-1.763-0.598-3.879-6.819-5.05c4.945,1.339,6.942,3.723,4.637,5.263c-3.925,0.286-6.795-1.243-6.795-3.002v-3.207H544.484
					z"/>
				<path fill="#333333" d="M511.893,836.094c0,0-5.846,17.677,31.183,17.728c36.286,0.055,32.698-17.728,32.698-17.728
					s-0.808,14.605-32.092,14.605S511.893,836.094,511.893,836.094z"/>
			</g>
		</g>
		<g>
			<path fill="#FFFFFF" d="M576.617,826.02c-0.727,11.134-13.677,17.628-31.813,17.628s-33.566-5.215-32.656-17.628
				c0.967-13.221,14.943-14.842,33.079-14.842S577.17,817.502,576.617,826.02z"/>
			<g>
				<path fill="#333333" d="M544.333,809.352c-17.641,0-31.938,6.721-31.938,15.017c0,8.293,14.298,15.013,31.938,15.013
					c17.644,0,31.944-6.72,31.944-15.013C576.275,816.072,561.974,809.352,544.333,809.352z M544.333,836.553
					c-14.296,0-25.928-5.462-25.928-12.188c0-6.72,11.629-12.19,25.928-12.19c14.298,0,25.934,5.468,25.934,12.19
					C570.261,831.089,558.629,836.553,544.333,836.553z"/>
				<path fill="#60965A" d="M544.333,813.5c-12.743,0-23.111,4.876-23.111,10.869c0,5.99,10.368,10.86,23.111,10.86
					c12.746,0,23.114-4.87,23.114-10.86C567.448,818.373,557.079,813.5,544.333,813.5z"/>
				<path id="path4934_15_" fill="#FFFFFF" d="M546.408,816.343c-0.438,0-0.89,0.003-1.343,0.009h-4.681h-5.246v12.239h-0.915v1.822
					h0.915v2.69h4.679v-2.69h0.567v2.69h4.681v-2.69h0.774v-1.822h-0.774v-1.981l2.036,0.006c4.074,0,7.645,0.141,10.731-1.751
					c1.194-0.831,1.937-1.811,2.135-2.798c0.408-2.003-1.36-4.057-5.85-5.087C552.203,816.513,549.504,816.345,546.408,816.343
					L546.408,816.343z M539.818,818.153h0.567v6.113v1.811v2.511h-0.567v-2.511v-1.811V818.153z M545.066,818.153
					c9.245,0.156,12.815,2.685,11.022,4.939c-0.507,0.631-1.045,0.973-2.18,1.33c0.045-0.087,0.093-0.183,0.129-0.273
					c0.673-1.762-0.598-3.879-6.815-5.05c4.942,1.339,6.938,3.723,4.633,5.264c-3.925,0.285-6.792-1.243-6.792-3.003v-3.207H545.066
					z"/>
				<path fill="#333333" d="M512.473,825.93c0,0-5.847,17.676,31.182,17.728c36.286,0.054,32.698-17.728,32.698-17.728
					s-0.808,14.604-32.092,14.604S512.473,825.93,512.473,825.93z"/>
			</g>
		</g>
	</g>
	<g>
		<g>
			<path fill="#FFFFFF" d="M620.182,885.127c-0.727,11.134-13.677,17.628-31.813,17.628c-18.139,0-33.566-5.216-32.656-17.628
				c0.964-13.221,14.944-14.842,33.08-14.842S620.735,876.608,620.182,885.127z"/>
			<g>
				<path fill="#333333" d="M587.898,868.456c-17.637,0-31.938,6.72-31.938,15.017c0,8.293,14.302,15.013,31.938,15.013
					c17.644,0,31.945-6.72,31.945-15.013C619.843,875.176,605.538,868.456,587.898,868.456z M587.898,895.66
					c-14.295,0-25.927-5.462-25.927-12.188c0-6.72,11.632-12.191,25.927-12.191c14.299,0,25.934,5.469,25.934,12.191
					C613.828,890.192,602.197,895.66,587.898,895.66z"/>
				<path fill="#60965A" d="M587.898,872.605c-12.743,0-23.11,4.877-23.11,10.87c0,5.99,10.367,10.86,23.11,10.86
					c12.746,0,23.114-4.87,23.114-10.86C611.012,877.479,600.644,872.605,587.898,872.605z"/>
				<path id="path4934_13_" fill="#FFFFFF" d="M589.973,875.446c-0.438,0-0.889,0.003-1.342,0.009h-4.682h-5.245v12.239h-0.916
					v1.822h0.916v2.69h4.678v-2.69h0.567v2.69h4.682v-2.69h0.774v-1.822h-0.774v-1.982l2.035,0.007
					c4.074,0,7.645,0.141,10.731-1.751c1.195-0.832,1.937-1.811,2.135-2.799c0.408-2.003-1.36-4.057-5.849-5.086
					C595.768,875.62,593.072,875.449,589.973,875.446L589.973,875.446z M583.382,877.26h0.567v6.113v1.811v2.511h-0.567v-2.511
					v-1.811V877.26z M588.631,877.26c9.244,0.156,12.814,2.685,11.022,4.939c-0.508,0.631-1.045,0.973-2.181,1.33
					c0.046-0.087,0.094-0.184,0.13-0.273c0.672-1.763-0.598-3.879-6.816-5.05c4.942,1.339,6.939,3.723,4.633,5.263
					c-3.924,0.286-6.792-1.242-6.792-3.002v-3.207H588.631z"/>
				<path fill="#333333" d="M556.037,885.037c0,0-5.843,17.676,31.186,17.727c36.286,0.055,32.698-17.727,32.698-17.727
					s-0.808,14.604-32.092,14.604S556.037,885.037,556.037,885.037z"/>
			</g>
		</g>
		<g>
			<path fill="#FFFFFF" d="M619.918,875.915c-0.727,11.134-13.678,17.628-31.813,17.628c-18.14,0-33.566-5.216-32.657-17.628
				c0.964-13.221,14.944-14.842,33.08-14.842S620.473,867.396,619.918,875.915z"/>
			<g>
				<path fill="#333333" d="M587.634,859.244c-17.638,0-31.938,6.72-31.938,15.017c0,8.293,14.301,15.013,31.938,15.013
					c17.644,0,31.944-6.72,31.944-15.013C619.578,865.964,605.274,859.244,587.634,859.244z M587.634,886.445
					c-14.296,0-25.928-5.462-25.928-12.188c0-6.721,11.632-12.191,25.928-12.191c14.298,0,25.934,5.468,25.934,12.191
					C613.565,880.98,601.932,886.445,587.634,886.445z"/>
				<path fill="#60965A" d="M587.634,863.393c-12.743,0-23.111,4.877-23.111,10.87c0,5.99,10.368,10.86,23.111,10.86
					c12.746,0,23.114-4.87,23.114-10.86C610.748,868.266,600.38,863.393,587.634,863.393z"/>
				<path id="path4934_12_" fill="#FFFFFF" d="M589.708,866.234c-0.438,0-0.889,0.003-1.342,0.009h-4.681h-5.246v12.238h-0.916
					v1.823h0.916v2.69h4.678v-2.69h0.568v2.69h4.681v-2.69h0.774v-1.823h-0.774V876.5l2.036,0.006c4.074,0,7.645,0.142,10.73-1.75
					c1.195-0.832,1.938-1.811,2.136-2.799c0.408-2.003-1.36-4.057-5.85-5.086C595.503,866.408,592.807,866.237,589.708,866.234
					L589.708,866.234z M583.117,868.045h0.568v6.113v1.811v2.51h-0.568v-2.51v-1.811V868.045z M588.366,868.045
					c9.245,0.156,12.815,2.685,11.022,4.939c-0.508,0.63-1.045,0.973-2.18,1.33c0.045-0.087,0.093-0.184,0.129-0.273
					c0.673-1.763-0.598-3.879-6.815-5.051c4.942,1.34,6.938,3.724,4.633,5.264c-3.925,0.285-6.792-1.243-6.792-3.002v-3.207H588.366
					z"/>
				<path fill="#333333" d="M555.773,875.821c0,0-5.843,17.677,31.186,17.728c36.286,0.055,32.698-17.728,32.698-17.728
					s-0.808,14.605-32.092,14.605S555.773,875.821,555.773,875.821z"/>
			</g>
		</g>
	</g>
</g>
<g>
	<path fill="#333333" d="M206.873,422.68c-12.341-16.134-28.261-24.472-55.154-27.153c-4.855-0.979-8.513-5.278-8.513-10.386
		c0-3.744,11.998-14.941,11.914-15.022c12.386-12.809,19.024-33.626,19.024-49.624c0-24.853-20.003-45.026-44.688-45.026
		S84.77,295.642,84.77,320.495c0,16.085,6.471,37.028,18.982,49.838c0,0,11.959,11.067,11.959,14.812
		c0,5.408-4.083,9.918-9.362,10.558c-26.345,2.768-42.09,11.062-54.305,26.981c-3.531,4.591-5.446,13.827-5.576,18.766
		c0.042,1.279,0,21.283,0,21.283c0,9.407,7.621,17.024,17.025,17.024h131.935c9.403,0,17.024-7.617,17.024-17.024
		c0,0-0.042-20.004,0-21.283C212.323,436.508,210.405,427.271,206.873,422.68z"/>
	<g>
		<g>
			<path fill="#FFFFFF" d="M229.406,471.668c-0.727,11.134-13.674,17.628-31.81,17.628c-18.14,0-33.566-5.215-32.657-17.628
				c0.967-13.221,14.944-14.842,33.08-14.842S229.96,463.149,229.406,471.668z"/>
			<g>
				<path fill="#333333" d="M197.124,454.997c-17.641,0-31.942,6.72-31.942,15.017c0,8.293,14.302,15.013,31.942,15.013
					c17.64,0,31.941-6.72,31.941-15.013C229.069,461.72,214.764,454.997,197.124,454.997z M197.124,482.201
					c-14.296,0-25.928-5.462-25.928-12.188c0-6.72,11.632-12.19,25.928-12.19c14.295,0,25.928,5.468,25.928,12.19
					S211.422,482.201,197.124,482.201z"/>
				<path fill="#60965A" d="M197.124,459.146c-12.746,0-23.111,4.877-23.111,10.87c0,5.99,10.368,10.86,23.111,10.86
					s23.114-4.87,23.114-10.86C220.239,464.02,209.87,459.146,197.124,459.146z"/>
				<path id="path4934_24_" fill="#FFFFFF" d="M199.198,461.99c-0.441,0-0.889,0.003-1.345,0.009h-4.678h-5.246v12.239h-0.916v1.822
					h0.916v2.69h4.679v-2.69h0.567v2.69h4.678v-2.69h0.774v-1.822h-0.774v-1.982l2.036,0.007c4.074,0,7.645,0.141,10.73-1.751
					c1.198-0.832,1.938-1.811,2.139-2.798c0.405-2.003-1.363-4.057-5.853-5.087C204.994,462.161,202.297,461.993,199.198,461.99
					L199.198,461.99z M192.609,463.801h0.567v6.113v1.811v2.511h-0.567v-2.511v-1.811V463.801z M197.857,463.801
					c9.248,0.156,12.815,2.685,11.022,4.939c-0.504,0.631-1.045,0.973-2.18,1.33c0.045-0.087,0.096-0.183,0.129-0.273
					c0.673-1.762-0.598-3.879-6.815-5.05c4.945,1.339,6.941,3.723,4.633,5.264c-3.925,0.285-6.792-1.243-6.792-3.003v-3.207H197.857
					z"/>
				<path fill="#333333" d="M165.263,471.578c0,0-5.846,17.676,31.183,17.727c36.286,0.055,32.701-17.727,32.701-17.727
					s-0.811,14.604-32.095,14.604S165.263,471.578,165.263,471.578z"/>
			</g>
		</g>
		<g>
			<path fill="#FFFFFF" d="M229.408,461.504c-0.727,11.134-13.677,17.629-31.813,17.629c-18.14,0-33.566-5.216-32.657-17.629
				c0.967-13.221,14.944-14.842,33.08-14.842S229.96,452.988,229.408,461.504z"/>
			<g>
				<path fill="#333333" d="M197.124,444.837c-17.641,0-31.942,6.72-31.942,15.016c0,8.293,14.302,15.013,31.942,15.013
					c17.64,0,31.941-6.72,31.941-15.013C229.069,451.556,214.764,444.837,197.124,444.837z M197.124,472.037
					c-14.296,0-25.928-5.462-25.928-12.188c0-6.72,11.632-12.19,25.928-12.19c14.295,0,25.931,5.468,25.931,12.19
					S211.422,472.037,197.124,472.037z"/>
				<path fill="#60965A" d="M197.124,448.983c-12.746,0-23.111,4.876-23.111,10.869c0,5.99,10.368,10.86,23.111,10.86
					s23.114-4.87,23.114-10.86C220.239,453.859,209.87,448.983,197.124,448.983z"/>
				<path id="path4934_23_" fill="#FFFFFF" d="M199.198,451.826c-0.441,0-0.889,0.004-1.345,0.01h-4.678h-5.246v12.238h-0.916v1.822
					h0.916v2.69h4.679v-2.69h0.567v2.69h4.678v-2.69h0.774v-1.822h-0.774v-1.981l2.036,0.006c4.074,0,7.645,0.141,10.73-1.751
					c1.195-0.831,1.938-1.811,2.136-2.798c0.408-2.003-1.36-4.057-5.85-5.087C204.994,451.998,202.297,451.83,199.198,451.826
					L199.198,451.826z M192.609,453.636h0.567v6.114v1.811v2.51h-0.567v-2.51v-1.811V453.636z M197.857,453.636
					c9.248,0.156,12.815,2.685,11.022,4.939c-0.508,0.631-1.045,0.973-2.18,1.33c0.045-0.087,0.093-0.183,0.129-0.272
					c0.673-1.763-0.598-3.88-6.815-5.051c4.945,1.339,6.938,3.724,4.633,5.264c-3.925,0.285-6.792-1.243-6.792-3.003v-3.207H197.857
					z"/>
				<path fill="#333333" d="M165.263,461.414c0,0-5.846,17.676,31.183,17.728c36.286,0.054,32.698-17.728,32.698-17.728
					s-0.808,14.604-32.092,14.604S165.263,461.414,165.263,461.414z"/>
			</g>
		</g>
		<g>
			<path fill="#FFFFFF" d="M229.114,450.875c-0.727,11.134-13.677,17.628-31.813,17.628c-18.139,0-33.566-5.216-32.656-17.628
				c0.967-13.221,14.944-14.842,33.08-14.842S229.669,442.356,229.114,450.875z"/>
			<g>
				<path fill="#333333" d="M196.833,434.207c-17.641,0-31.942,6.72-31.942,15.017c0,8.293,14.302,15.013,31.942,15.013
					c17.64,0,31.941-6.72,31.941-15.013C228.775,440.927,214.47,434.207,196.833,434.207z M196.833,461.408
					c-14.296,0-25.928-5.462-25.928-12.188c0-6.72,11.632-12.191,25.928-12.191c14.295,0,25.93,5.468,25.93,12.191
					C222.76,455.943,211.128,461.408,196.833,461.408z"/>
				<path fill="#60965A" d="M196.833,438.353c-12.746,0-23.111,4.877-23.111,10.87c0,5.99,10.368,10.86,23.111,10.86
					c12.742,0,23.113-4.87,23.113-10.86C219.944,443.23,209.575,438.353,196.833,438.353z"/>
				<path id="path4934_22_" fill="#FFFFFF" d="M198.907,441.197c-0.441,0-0.889,0.003-1.345,0.009h-4.679h-5.245v12.239h-0.916
					v1.822h0.916v2.69h4.678v-2.69h0.567v2.69h4.679v-2.69h0.774v-1.822h-0.774v-1.982l2.035,0.007
					c4.075,0,7.645,0.141,10.731-1.751c1.195-0.832,1.937-1.811,2.135-2.799c0.408-2.002-1.36-4.056-5.849-5.086
					C204.699,441.368,202.003,441.2,198.907,441.197L198.907,441.197z M192.314,443.008h0.567v6.113v1.811v2.511h-0.567v-2.511
					v-1.811V443.008z M197.563,443.008c9.248,0.156,12.814,2.685,11.022,4.939c-0.508,0.631-1.045,0.973-2.18,1.33
					c0.045-0.087,0.093-0.183,0.129-0.273c0.673-1.763-0.598-3.879-6.816-5.05c4.945,1.339,6.939,3.723,4.634,5.264
					c-3.925,0.285-6.792-1.243-6.792-3.003v-3.207H197.563z"/>
				<path fill="#333333" d="M164.969,450.785c0,0-5.846,17.676,31.183,17.727c36.286,0.055,32.698-17.727,32.698-17.727
					s-0.808,14.604-32.092,14.604S164.969,450.785,164.969,450.785z"/>
			</g>
		</g>
		<g>
			<path fill="#FFFFFF" d="M229.694,440.714c-0.727,11.134-13.677,17.628-31.813,17.628c-18.139,0-33.566-5.215-32.656-17.628
				c0.967-13.221,14.943-14.842,33.079-14.842S230.245,432.195,229.694,440.714z"/>
			<g>
				<path fill="#333333" d="M197.409,424.044c-17.641,0-31.938,6.72-31.938,15.016c0,8.293,14.301,15.013,31.938,15.013
					c17.644,0,31.944-6.72,31.944-15.013C229.351,430.763,215.05,424.044,197.409,424.044z M197.409,451.244
					c-14.296,0-25.928-5.462-25.928-12.188c0-6.72,11.632-12.19,25.928-12.19c14.298,0,25.934,5.468,25.934,12.19
					C223.337,445.779,211.704,451.244,197.409,451.244z"/>
				<path fill="#60965A" d="M197.409,428.193c-12.743,0-23.111,4.876-23.111,10.869c0,5.99,10.368,10.86,23.111,10.86
					c12.746,0,23.114-4.87,23.114-10.86C220.524,433.066,210.156,428.193,197.409,428.193z"/>
				<path id="path4934_21_" fill="#FFFFFF" d="M199.484,431.033c-0.438,0-0.889,0.003-1.342,0.01h-4.681h-5.246v12.238h-0.916v1.822
					h0.916v2.69h4.679v-2.69h0.567v2.69h4.681v-2.69h0.774v-1.822h-0.774V441.3l2.036,0.006c4.074,0,7.645,0.141,10.731-1.751
					c1.194-0.831,1.937-1.811,2.135-2.798c0.408-2.003-1.36-4.057-5.85-5.087C205.28,431.208,202.579,431.036,199.484,431.033
					L199.484,431.033z M192.894,432.844h0.567v6.113v1.811v2.511h-0.567v-2.511v-1.811V432.844z M198.142,432.844
					c9.245,0.156,12.815,2.685,11.022,4.939c-0.507,0.631-1.045,0.973-2.18,1.33c0.045-0.087,0.093-0.183,0.129-0.273
					c0.673-1.762-0.598-3.879-6.815-5.05c4.942,1.339,6.938,3.724,4.633,5.264c-3.925,0.285-6.792-1.243-6.792-3.003v-3.207H198.142
					z"/>
				<path fill="#333333" d="M165.549,440.621c0,0-5.847,17.676,31.182,17.728c36.286,0.054,32.698-17.728,32.698-17.728
					s-0.808,14.604-32.092,14.604S165.549,440.621,165.549,440.621z"/>
			</g>
		</g>
	</g>
</g>
<g>
	<path fill="#34994B" d="M396.827,572.744h79.599V343.726c0-8.873,0.271-18.202,0.813-27.981l-56.506,47.271
		c-2.356,1.996-4.753,3.354-7.2,4.074c-2.444,0.727-4.846,1.087-7.197,1.087c-3.627,0-6.927-0.769-9.917-2.312
		c-2.988-1.538-5.207-3.304-6.654-5.297L368.573,331.5l119.807-101.875h55.149v343.12h70.633v50.257H396.824v-50.258H396.827z"/>
</g>
<g>
	<path fill="#333333" d="M299.798,705.15c-12.341-16.133-28.261-24.471-55.154-27.152c-4.855-0.979-8.513-5.278-8.513-10.386
		c0-3.744,11.998-14.941,11.914-15.022c12.386-12.809,19.024-33.626,19.024-49.624c0-24.853-20.003-45.027-44.685-45.027
		c-24.685,0-44.688,20.175-44.688,45.027c0,16.085,6.471,37.028,18.982,49.837c0,0,11.959,11.068,11.959,14.813
		c0,5.407-4.083,9.917-9.362,10.557c-26.345,2.769-42.09,11.062-54.305,26.981c-3.531,4.591-5.447,13.827-5.576,18.767
		c0.042,1.279,0,21.282,0,21.282c0,9.407,7.621,17.024,17.025,17.024h131.935c9.403,0,17.024-7.617,17.024-17.024
		c0,0-0.042-20.003,0-21.282C305.247,718.98,303.326,709.744,299.798,705.15z"/>
	<g>
		<g>
			<path fill="#FFFFFF" d="M319.996,752.291c-0.727,11.134-13.677,17.629-31.813,17.629c-18.139,0-33.565-5.216-32.656-17.629
				c0.967-13.22,14.944-14.842,33.08-14.842S320.552,743.773,319.996,752.291z"/>
			<g>
				<path fill="#333333" d="M287.713,735.621c-17.638,0-31.939,6.72-31.939,15.016c0,8.293,14.302,15.014,31.939,15.014
					c17.643,0,31.944-6.721,31.944-15.014C319.657,742.341,305.353,735.621,287.713,735.621z M287.713,762.821
					c-14.296,0-25.928-5.462-25.928-12.188c0-6.72,11.632-12.19,25.928-12.19c14.298,0,25.933,5.468,25.933,12.19
					C313.643,757.356,302.011,762.821,287.713,762.821z"/>
				<path fill="#60965A" d="M287.713,739.77c-12.743,0-23.111,4.876-23.111,10.869c0,5.99,10.368,10.86,23.111,10.86
					c12.745,0,23.113-4.87,23.113-10.86C310.829,744.643,300.458,739.77,287.713,739.77z"/>
				<path id="path4934_20_" fill="#FFFFFF" d="M289.79,742.611c-0.438,0-0.889,0.003-1.342,0.009h-4.682h-5.245v12.238h-0.916v1.823
					h0.916v2.689h4.678v-2.689h0.567v2.689h4.682v-2.689h0.774v-1.823h-0.774v-1.981l2.035,0.006c4.075,0,7.645,0.142,10.731-1.75
					c1.195-0.832,1.937-1.811,2.135-2.799c0.408-2.003-1.36-4.057-5.849-5.086C295.582,742.785,292.886,742.614,289.79,742.611
					L289.79,742.611z M283.197,744.425h0.567v6.113v1.811v2.51h-0.567v-2.51v-1.811V744.425z M288.446,744.425
					c9.244,0.156,12.814,2.685,11.022,4.939c-0.508,0.63-1.045,0.973-2.18,1.33c0.045-0.087,0.093-0.184,0.129-0.273
					c0.672-1.763-0.598-3.88-6.816-5.051c4.942,1.34,6.939,3.724,4.634,5.264c-3.925,0.285-6.792-1.243-6.792-3.003v-3.206H288.446z
					"/>
				<path fill="#333333" d="M255.852,752.198c0,0-5.846,17.677,31.183,17.728c36.286,0.054,32.698-17.728,32.698-17.728
					s-0.809,14.604-32.092,14.604C256.357,766.802,255.852,752.198,255.852,752.198z"/>
			</g>
		</g>
		<g>
			<path fill="#FFFFFF" d="M319.733,743.076c-0.727,11.134-13.678,17.629-31.813,17.629c-18.139,0-33.566-5.216-32.656-17.629
				c0.967-13.221,14.943-14.842,33.079-14.842S320.287,734.557,319.733,743.076z"/>
			<g>
				<path fill="#333333" d="M287.448,726.409c-17.638,0-31.938,6.72-31.938,15.016c0,8.293,14.301,15.014,31.938,15.014
					c17.644,0,31.944-6.721,31.944-15.014C319.393,733.129,305.088,726.409,287.448,726.409z M287.448,753.609
					c-14.296,0-25.928-5.462-25.928-12.188c0-6.72,11.632-12.19,25.928-12.19c14.298,0,25.934,5.468,25.934,12.19
					C313.379,748.144,301.746,753.609,287.448,753.609z"/>
				<path fill="#60965A" d="M287.448,730.555c-12.743,0-23.111,4.876-23.111,10.869c0,5.99,10.368,10.86,23.111,10.86
					c12.746,0,23.114-4.87,23.114-10.86C310.566,735.428,300.198,730.555,287.448,730.555z"/>
				<path id="path4934_19_" fill="#FFFFFF" d="M289.527,733.399c-0.438,0-0.889,0.003-1.343,0.009h-4.681h-5.246v12.238h-0.915
					v1.822h0.915v2.69h4.679v-2.69h0.567v2.69h4.681v-2.69h0.775v-1.822h-0.775v-1.981l2.036,0.006c4.074,0,7.645,0.142,10.731-1.75
					c1.194-0.832,1.937-1.812,2.135-2.799c0.408-2.003-1.36-4.057-5.85-5.087C295.319,733.57,292.622,733.402,289.527,733.399
					L289.527,733.399z M282.933,735.21h0.567v6.113v1.811v2.51h-0.567v-2.51v-1.811V735.21z M288.184,735.21
					c9.245,0.155,12.815,2.684,11.022,4.938c-0.507,0.631-1.045,0.974-2.18,1.33c0.045-0.087,0.093-0.183,0.129-0.272
					c0.673-1.763-0.597-3.88-6.815-5.051c4.942,1.339,6.938,3.724,4.633,5.264c-3.924,0.285-6.792-1.243-6.792-3.003v-3.206H288.184
					z"/>
				<path fill="#333333" d="M255.591,742.986c0,0-5.847,17.677,31.182,17.728c36.286,0.054,32.698-17.728,32.698-17.728
					s-0.808,14.604-32.092,14.604S255.591,742.986,255.591,742.986z"/>
			</g>
		</g>
	</g>
</g>
<g>
	<path fill="#333333" d="M949.949,427.457c-12.344-16.133-28.261-24.471-55.155-27.152c-4.854-0.979-8.515-5.278-8.515-10.386
		c0-3.744,11.998-14.938,11.917-15.02c12.386-12.809,19.024-33.626,19.024-49.624c0-24.853-20.004-45.027-44.688-45.027
		c-24.685,0-44.688,20.175-44.688,45.027c0,16.085,6.468,37.028,18.983,49.838c0,0,11.956,11.067,11.956,14.809
		c0,5.407-4.087,9.917-9.365,10.557c-26.342,2.769-42.091,11.062-54.306,26.982c-3.53,4.591-5.446,13.826-5.572,18.766
		c0.045,1.279,0,21.282,0,21.282c0,9.407,7.62,17.025,17.021,17.025H938.5c9.401,0,17.025-7.618,17.025-17.025
		c0,0-0.043-20.003,0-21.282C955.399,441.284,953.481,432.049,949.949,427.457z"/>
	<g>
		<path fill="#FFFFFF" d="M975.492,475.01c-0.727,11.134-13.677,17.628-31.813,17.628s-33.566-5.215-32.656-17.628
			c0.964-13.221,14.943-14.842,33.079-14.842S976.048,466.494,975.492,475.01z"/>
		<g>
			<path fill="#333333" d="M943.208,458.342c-17.64,0-31.938,6.721-31.938,15.017c0,8.293,14.299,15.013,31.938,15.013
				c17.644,0,31.945-6.72,31.945-15.013C975.154,465.062,960.849,458.342,943.208,458.342z M943.208,485.543
				c-14.295,0-25.928-5.462-25.928-12.188c0-6.72,11.63-12.19,25.928-12.19c14.299,0,25.934,5.468,25.934,12.19
				C969.139,480.078,957.507,485.543,943.208,485.543z"/>
			<path fill="#60965A" d="M943.208,462.492c-12.743,0-23.11,4.876-23.11,10.869c0,5.99,10.367,10.86,23.11,10.86
				c12.746,0,23.114-4.87,23.114-10.86C966.325,467.365,955.954,462.492,943.208,462.492z"/>
			<path id="path4934_27_" fill="#FFFFFF" d="M945.286,465.332c-0.438,0-0.889,0.003-1.343,0.01h-4.681h-5.245v12.238h-0.916v1.822
				h0.916v2.69h4.678v-2.69h0.567v2.69h4.681v-2.69h0.775v-1.822h-0.775v-1.981l2.036,0.006c4.075,0,7.645,0.141,10.731-1.751
				c1.195-0.831,1.937-1.811,2.135-2.798c0.408-2.003-1.36-4.057-5.849-5.087C951.078,465.504,948.382,465.335,945.286,465.332
				L945.286,465.332z M938.693,467.142h0.567v6.113v1.811v2.511h-0.567v-2.511v-1.811V467.142z M943.944,467.142
				c9.246,0.156,12.815,2.685,11.023,4.939c-0.508,0.631-1.045,0.973-2.181,1.33c0.046-0.087,0.094-0.183,0.13-0.273
				c0.672-1.762-0.598-3.879-6.816-5.05c4.942,1.339,6.939,3.723,4.633,5.264c-3.924,0.285-6.792-1.243-6.792-3.003v-3.207H943.944z
				"/>
			<path fill="#333333" d="M911.348,474.92c0,0-5.844,17.676,31.185,17.728c36.287,0.054,32.698-17.728,32.698-17.728
				s-0.807,14.604-32.092,14.604C911.856,489.524,911.348,474.92,911.348,474.92z"/>
		</g>
	</g>
</g>
<path fill="#FDFEFF" stroke="#36994B" stroke-width="3" stroke-miterlimit="10" d="M940.23,222.745l44.769,64.148
	c0,0-466.154-262.729-967.397-3.702l32.837-67.61L9.062,186.678c0,0,507.53-230.072,971.535,1.879L940.23,222.745z"/>
<g>
	<path fill="none" d="M79.713,234.35c0,0,381.331-187.663,836.226,0"/>
	<path fill="#32984A" d="M245.67,179.382l-7.257,1.868c-0.814,0.21-1.535,0.177-2.165-0.097c-0.628-0.271-1.135-0.682-1.522-1.225
		l-6.417-9.326l-20.9,5.378l-1.123,11.263c-0.049,0.582-0.289,1.168-0.721,1.75c-0.436,0.583-1.045,0.976-1.838,1.18l-7.293,1.877
		l6.843-55.561l9.596-2.468L245.67,179.382z M208.108,168.728l16.088-4.138l-10.458-15.205c-0.472-0.673-1.006-1.471-1.604-2.396
		s-1.213-1.94-1.844-3.042c-0.021,1.271-0.057,2.456-0.107,3.562c-0.052,1.104-0.13,2.077-0.234,2.924L208.108,168.728z"/>
	<path fill="#32984A" d="M245.841,126.178c0.288-0.024,0.556-0.003,0.802,0.057c0.246,0.061,0.496,0.169,0.748,0.325
		c0.252,0.155,0.543,0.372,0.87,0.648l33.828,28.591c-0.265-0.805-0.496-1.595-0.694-2.378c-0.197-0.784-0.366-1.511-0.507-2.195
		l-6.404-31.017l8.362-1.727l10.532,51.026l-4.902,1.012c-0.754,0.156-1.399,0.168-1.943,0.033
		c-0.543-0.136-1.114-0.457-1.708-0.974l-33.692-28.474c0.225,0.739,0.433,1.475,0.621,2.207c0.189,0.732,0.346,1.405,0.472,2.018
		l6.468,31.336l-8.362,1.727l-10.533-51.026l4.976-1.027C245.196,126.257,245.55,126.203,245.841,126.178z"/>
	<path fill="#32984A" d="M301.182,115.369c0.292-0.009,0.559,0.021,0.799,0.094c0.24,0.071,0.486,0.191,0.732,0.36
		c0.246,0.168,0.522,0.398,0.838,0.69l32.401,30.2c-0.226-0.814-0.417-1.619-0.576-2.408c-0.159-0.79-0.295-1.528-0.399-2.216
		l-4.892-31.29l8.438-1.318l8.05,51.477l-4.948,0.774c-0.76,0.12-1.408,0.1-1.942-0.063c-0.535-0.159-1.09-0.511-1.661-1.055
		l-32.274-30.073c0.188,0.75,0.363,1.495,0.514,2.236c0.149,0.742,0.275,1.424,0.375,2.039l4.942,31.611l-8.438,1.318l-8.047-51.477
		l5.018-0.784C300.533,115.414,300.891,115.378,301.182,115.369z"/>
	<path fill="#32984A" d="M376.406,149.647c1.864-0.201,3.495-0.69,4.897-1.475c1.402-0.78,2.549-1.786,3.44-3.018
		c0.893-1.234,1.522-2.679,1.886-4.336s0.438-3.477,0.226-5.459l-3.36-31.022l9.636-1.045l3.356,31.022
		c0.334,3.081,0.147,5.984-0.562,8.705c-0.708,2.724-1.889,5.135-3.549,7.233c-1.657,2.102-3.753,3.825-6.29,5.176
		c-2.534,1.349-5.462,2.204-8.783,2.564c-3.32,0.36-6.362,0.15-9.128-0.624c-2.766-0.775-5.18-2.012-7.233-3.712
		c-2.057-1.696-3.723-3.801-4.996-6.308c-1.276-2.508-2.078-5.303-2.411-8.384l-3.359-31.022l9.635-1.042l3.354,30.986
		c0.213,1.982,0.679,3.744,1.387,5.285c0.712,1.543,1.628,2.825,2.754,3.852c1.126,1.027,2.456,1.769,3.993,2.231
		C372.845,149.719,374.545,149.848,376.406,149.647z"/>
	<path fill="#32984A" d="M451.868,151.572l-7.479,0.477c-0.838,0.055-1.541-0.11-2.108-0.498s-0.991-0.88-1.267-1.489l-4.562-10.362
		l-21.537,1.372l-3.207,10.854c-0.156,0.564-0.502,1.09-1.036,1.583c-0.534,0.492-1.21,0.763-2.023,0.813l-7.516,0.48l17.111-53.296
		l9.888-0.628L451.868,151.572z M416.959,134.082l16.578-1.058l-7.432-16.893c-0.336-0.75-0.712-1.633-1.126-2.654
		c-0.415-1.021-0.829-2.132-1.243-3.333c-0.258,1.246-0.514,2.405-0.771,3.48c-0.256,1.075-0.517,2.018-0.775,2.828L416.959,134.082
		z"/>
	<path fill="#32984A" d="M466.283,143.359l20.856-0.504l0.191,7.996l-30.545,0.741l-1.261-52.086l9.688-0.237L466.283,143.359z"/>
	<path fill="#32984A" d="M517.841,130.752l-0.528,20.352l-9.689-0.252l1.357-52.084l15.884,0.415
		c3.555,0.093,6.588,0.537,9.101,1.336c2.514,0.799,4.567,1.877,6.152,3.243c1.586,1.362,2.735,2.973,3.441,4.828
		c0.708,1.855,1.032,3.888,0.976,6.098c-0.045,1.751-0.349,3.402-0.903,4.948c-0.559,1.55-1.34,2.946-2.346,4.192
		c-1.006,1.249-2.236,2.333-3.69,3.255c-1.453,0.925-3.102,1.648-4.942,2.18c1.207,0.729,2.237,1.75,3.093,3.071l12.539,19.574
		l-8.717-0.229c-0.841-0.021-1.552-0.207-2.128-0.562c-0.58-0.351-1.066-0.844-1.457-1.48l-10.515-16.961
		c-0.391-0.634-0.832-1.09-1.315-1.369c-0.486-0.276-1.21-0.43-2.171-0.454L517.841,130.752z M518.022,123.801l6.053,0.156
		c1.822,0.048,3.42-0.139,4.789-0.562c1.369-0.421,2.502-1.021,3.399-1.805c0.897-0.784,1.576-1.721,2.039-2.813
		c0.462-1.093,0.708-2.3,0.744-3.621c0.069-2.643-0.751-4.693-2.453-6.155c-1.705-1.462-4.345-2.24-7.924-2.333l-6.194-0.162
		L518.022,123.801z"/>
	<path fill="#32984A" d="M590.198,102.488l-0.507,7.695l-23.045-1.519l-0.952,14.415l18.157,1.198l-0.493,7.443l-18.156-1.198
		l-0.97,14.704l23.045,1.522l-0.511,7.729l-32.788-2.165l3.432-51.987L590.198,102.488z"/>
	<path fill="#32984A" d="M595.885,102.488l8.086,0.964c0.835,0.099,1.508,0.378,2.023,0.841c0.514,0.459,0.826,1.036,0.938,1.727
		l5.107,31.998c0.126,0.79,0.222,1.64,0.294,2.559c0.072,0.916,0.132,1.883,0.18,2.906c0.313-0.979,0.631-1.9,0.968-2.768
		c0.333-0.868,0.675-1.667,1.029-2.399l13.854-29.735c0.255-0.525,0.69-0.981,1.306-1.369c0.615-0.384,1.327-0.531,2.138-0.435
		l2.825,0.336c0.835,0.099,1.502,0.378,2.003,0.838c0.502,0.459,0.82,1.036,0.955,1.729l6.396,32.151
		c0.343,1.589,0.595,3.336,0.754,5.243c0.276-0.91,0.559-1.784,0.838-2.622c0.279-0.837,0.562-1.615,0.841-2.329l12.493-29.897
		c0.24-0.576,0.67-1.045,1.295-1.405c0.624-0.36,1.342-0.495,2.152-0.396l7.549,0.901l-22.237,49.816l-8.695-1.039l-7.09-36.698
		c-0.09-0.469-0.18-0.976-0.27-1.52c-0.094-0.543-0.178-1.12-0.25-1.735c-0.213,0.58-0.429,1.123-0.648,1.628
		c-0.216,0.504-0.426,0.979-0.621,1.414l-15.632,33.986l-8.695-1.039L595.885,102.488z"/>
	<path fill="#32984A" d="M709.564,171.479l-7.384-1.285c-0.828-0.145-1.474-0.472-1.934-0.977c-0.459-0.507-0.754-1.09-0.883-1.747
		l-2.009-11.137l-21.265-3.705l-5.656,9.804c-0.285,0.51-0.745,0.942-1.379,1.297c-0.633,0.354-1.354,0.459-2.158,0.318l-7.42-1.294
		l29.104-47.816l9.762,1.699L709.564,171.479z M679.715,146.308l16.364,2.85l-3.273-18.163c-0.153-0.808-0.31-1.754-0.475-2.844
		s-0.306-2.267-0.426-3.531c-0.544,1.15-1.063,2.216-1.564,3.204c-0.502,0.984-0.973,1.841-1.417,2.567L679.715,146.308z"/>
	<path fill="#32984A" d="M728.411,154.844l-4.388,19.88l-9.464-2.087l11.227-50.879l15.515,3.426
		c3.472,0.766,6.365,1.781,8.684,3.042c2.315,1.261,4.126,2.711,5.423,4.351s2.12,3.438,2.462,5.396
		c0.343,1.958,0.276,4.015-0.198,6.174c-0.378,1.711-0.987,3.275-1.828,4.687c-0.841,1.415-1.874,2.637-3.099,3.673
		c-1.226,1.036-2.637,1.867-4.24,2.495c-1.604,0.63-3.359,1.029-5.264,1.201c1.049,0.942,1.865,2.144,2.45,3.603l8.591,21.598
		l-8.513-1.879c-0.819-0.181-1.483-0.499-1.984-0.955c-0.502-0.453-0.886-1.03-1.15-1.729l-7.101-18.649
		c-0.265-0.696-0.609-1.228-1.033-1.595c-0.426-0.363-1.104-0.648-2.045-0.855L728.411,154.844z M729.909,148.052l5.912,1.307
		c1.783,0.393,3.384,0.513,4.81,0.359c1.424-0.152,2.651-0.528,3.682-1.126c1.03-0.597,1.877-1.387,2.534-2.375
		c0.66-0.984,1.132-2.122,1.417-3.413c0.567-2.58,0.156-4.751-1.24-6.51c-1.396-1.76-3.84-3.024-7.335-3.796l-6.054-1.333
		L729.909,148.052z"/>
	<path fill="#32984A" d="M811.172,169.623c-0.994,3.69-2.52,6.909-4.579,9.663c-2.06,2.753-4.504,4.945-7.326,6.572
		c-2.826,1.628-5.973,2.634-9.435,3.021c-3.462,0.388-7.095,0.066-10.899-0.954l-19.205-5.171l13.539-50.309l19.205,5.167
		c3.804,1.024,7.104,2.58,9.902,4.663c2.799,2.084,5.012,4.534,6.642,7.348c1.631,2.816,2.646,5.931,3.045,9.344
		C812.46,162.384,812.165,165.936,811.172,169.623z M801.606,167.05c0.741-2.759,1.039-5.335,0.886-7.729
		c-0.153-2.393-0.709-4.53-1.67-6.419s-2.312-3.501-4.05-4.841c-1.745-1.339-3.844-2.339-6.303-3.002l-9.776-2.631l-9.533,35.419
		l9.776,2.63c2.459,0.661,4.777,0.851,6.957,0.564c2.18-0.285,4.155-1.003,5.933-2.152c1.778-1.15,3.333-2.724,4.666-4.714
		C799.823,172.184,800.861,169.809,801.606,167.05z"/>
</g>
<g>
	<path fill="#A3A2A2" d="M593.657,503.816c0,2.955-0.496,5.621-1.486,7.999c-0.991,2.378-2.315,4.405-3.973,6.08
		c-1.657,1.676-3.585,2.964-5.783,3.865c-2.198,0.9-4.485,1.351-6.864,1.351c-2.594,0-4.99-0.45-7.188-1.351
		c-2.198-0.901-4.099-2.189-5.702-3.865c-1.604-1.675-2.855-3.702-3.757-6.08c-0.9-2.378-1.351-5.044-1.351-7.999
		c0-3.026,0.45-5.765,1.351-8.215c0.901-2.45,2.153-4.521,3.757-6.215c1.604-1.694,3.504-3,5.702-3.919
		c2.194-0.919,4.594-1.378,7.188-1.378c2.595,0,5,0.459,7.216,1.378s4.135,2.225,5.756,3.919c1.621,1.693,2.883,3.765,3.783,6.215
		S593.657,500.79,593.657,503.816z M619.654,487.008c0.433-0.54,0.973-1.026,1.621-1.459s1.55-0.648,2.702-0.648h9.675
		l-58.046,76.152c-0.433,0.576-0.982,1.054-1.648,1.432c-0.667,0.379-1.469,0.567-2.405,0.567h-9.944L619.654,487.008z
		 M583.334,503.816c0-2.09-0.198-3.837-0.595-5.242s-0.945-2.54-1.648-3.405c-0.702-0.864-1.531-1.486-2.486-1.864
		c-0.954-0.379-1.973-0.567-3.054-0.567s-2.09,0.189-3.026,0.567s-1.747,1-2.432,1.864c-0.685,0.865-1.217,2-1.595,3.405
		c-0.379,1.405-0.567,3.152-0.567,5.242c0,2.019,0.189,3.702,0.567,5.054s0.91,2.441,1.595,3.27
		c0.685,0.829,1.495,1.424,2.432,1.784s1.945,0.54,3.026,0.54s2.1-0.18,3.054-0.54c0.955-0.36,1.784-0.955,2.486-1.784
		c0.703-0.828,1.252-1.918,1.648-3.27S583.334,505.835,583.334,503.816z M637.759,544.676c0,2.955-0.495,5.621-1.486,7.999
		c-0.99,2.379-2.314,4.405-3.972,6.081c-1.658,1.675-3.586,2.973-5.783,3.891c-2.198,0.919-4.486,1.379-6.864,1.379
		c-2.594,0-4.99-0.46-7.188-1.379c-2.197-0.918-4.099-2.216-5.701-3.891c-1.604-1.676-2.855-3.703-3.757-6.081
		c-0.9-2.378-1.351-5.044-1.351-7.999c0-3.026,0.45-5.765,1.351-8.215c0.901-2.45,2.153-4.521,3.757-6.215
		c1.603-1.693,3.504-3,5.701-3.919c2.195-0.919,4.595-1.378,7.188-1.378c2.595,0,4.999,0.459,7.216,1.378
		c2.216,0.919,4.134,2.226,5.756,3.919c1.621,1.693,2.882,3.765,3.783,6.215C637.309,538.911,637.759,541.649,637.759,544.676z
		 M627.49,544.676c0-2.09-0.207-3.837-0.622-5.242c-0.414-1.405-0.973-2.54-1.675-3.405c-0.703-0.864-1.531-1.486-2.486-1.864
		s-1.973-0.567-3.054-0.567s-2.09,0.189-3.026,0.567c-0.938,0.378-1.738,1-2.405,1.864c-0.667,0.865-1.198,2-1.595,3.405
		s-0.594,3.152-0.594,5.242c0,2.019,0.194,3.712,0.594,5.081c0.396,1.372,0.928,2.468,1.595,3.297
		c0.667,0.828,1.468,1.423,2.405,1.783c0.937,0.36,1.945,0.541,3.026,0.541s2.099-0.181,3.054-0.541s1.783-0.955,2.486-1.783
		c0.702-0.829,1.261-1.928,1.675-3.297C627.283,548.387,627.49,546.694,627.49,544.676z"/>
</g>
</svg>
