<?xml version="1.0" encoding="utf-8"?>
<!-- Generator: Adobe Illustrator 16.0.0, SVG Export Plug-In . SVG Version: 6.00 Build 0)  -->
<!DOCTYPE svg PUBLIC "-//W3C//DTD SVG 1.1 Tiny//EN" "http://www.w3.org/Graphics/SVG/1.1/DTD/svg11-tiny.dtd">
<svg version="1.1" baseProfile="tiny" id="Layer_1" xmlns="http://www.w3.org/2000/svg" xmlns:xlink="http://www.w3.org/1999/xlink"
	 x="0px" y="0px" viewBox="0 0 333.044 279.44" xml:space="preserve">
<g>
	<path fill="#333333" d="M283.753,203.635c-4.109-5.373-9.412-8.15-18.369-9.043c-1.617-0.326-2.835-1.758-2.835-3.459
		c0-1.246,3.996-4.975,3.968-5.002c4.125-4.266,6.336-11.199,6.336-16.527c0-8.277-6.662-14.996-14.882-14.996
		c-8.221,0-14.883,6.719-14.883,14.996c0,5.357,2.155,12.332,6.322,16.598c0,0,3.983,3.686,3.983,4.932
		c0,1.801-1.36,3.303-3.118,3.516c-8.774,0.922-14.018,3.684-18.086,8.986c-1.176,1.529-1.814,4.605-1.857,6.25
		c0.014,0.426,0,7.088,0,7.088c0,3.133,2.538,5.67,5.67,5.67h43.94c3.133,0,5.67-2.537,5.67-5.67c0,0-0.014-6.662,0-7.088
		C285.57,208.241,284.929,205.165,283.753,203.635z"/>
	<g>
		<g>
			<path fill="#FFFFFF" d="M282.359,222.401c-0.242,3.708-4.554,5.871-10.594,5.871c-6.041,0-11.179-1.737-10.876-5.871
				c0.322-4.403,4.977-4.943,11.017-4.943C277.946,217.458,282.544,219.564,282.359,222.401z"/>
			<g>
				<path fill="#333333" d="M271.608,216.849c-5.875,0-10.638,2.238-10.638,5.001c0,2.762,4.763,5,10.638,5
					c5.875,0,10.638-2.238,10.638-5C282.246,219.087,277.483,216.849,271.608,216.849z M271.608,225.909
					c-4.761,0-8.635-1.819-8.635-4.059c0-2.238,3.874-4.06,8.635-4.06s8.636,1.821,8.636,4.06S276.369,225.909,271.608,225.909z"/>
				<path fill="#60965A" d="M271.608,218.231c-4.245,0-7.697,1.624-7.697,3.62c0,1.995,3.453,3.617,7.697,3.617
					s7.698-1.622,7.698-3.617C279.306,219.854,275.853,218.231,271.608,218.231z"/>
				<path id="path4934_14_" fill="#FFFFFF" d="M272.299,219.177c-0.147,0-0.296,0.001-0.448,0.003h-1.558h-1.747v4.076h-0.305v0.607
					h0.305v0.896h1.558v-0.896h0.189v0.896h1.558v-0.896h0.258v-0.607h-0.258v-0.66l0.678,0.002c1.357,0,2.546,0.047,3.574-0.583
					c0.399-0.277,0.645-0.603,0.712-0.932c0.135-0.667-0.454-1.351-1.949-1.694C274.229,219.235,273.331,219.178,272.299,219.177
					L272.299,219.177z M270.104,219.781h0.189v2.036v0.603v0.836h-0.189v-0.836v-0.603V219.781z M271.851,219.781
					c3.08,0.052,4.268,0.894,3.671,1.645c-0.168,0.21-0.348,0.324-0.726,0.443c0.015-0.029,0.032-0.061,0.043-0.091
					c0.224-0.587-0.199-1.292-2.27-1.682c1.647,0.446,2.312,1.24,1.543,1.753c-1.307,0.095-2.262-0.414-2.262-1V219.781
					L271.851,219.781z"/>
				<path fill="#333333" d="M260.997,222.371c0,0-1.947,5.887,10.385,5.904c12.084,0.018,10.89-5.904,10.89-5.904
					s-0.269,4.864-10.689,4.864C261.163,227.235,260.997,222.371,260.997,222.371z"/>
			</g>
		</g>
		<g>
			<path fill="#FFFFFF" d="M282.359,219.016c-0.242,3.708-4.554,5.871-10.594,5.871c-6.041,0-11.179-1.737-10.876-5.871
				c0.322-4.403,4.977-4.943,11.017-4.943S282.544,216.179,282.359,219.016z"/>
			<g>
				<path fill="#333333" d="M271.608,213.464c-5.875,0-10.638,2.238-10.638,5.001c0,2.762,4.763,5,10.638,5
					c5.875,0,10.638-2.238,10.638-5C282.246,215.703,277.482,213.464,271.608,213.464z M271.608,222.524
					c-4.761,0-8.635-1.819-8.635-4.059c0-2.238,3.874-4.06,8.635-4.06c4.761,0,8.636,1.821,8.636,4.06
					S276.369,222.524,271.608,222.524z"/>
				<path fill="#60965A" d="M271.608,214.846c-4.245,0-7.697,1.624-7.697,3.62c0,1.995,3.453,3.617,7.697,3.617
					s7.698-1.622,7.698-3.617C279.306,216.469,275.853,214.846,271.608,214.846z"/>
				<path id="path4934_1_" fill="#FFFFFF" d="M272.299,215.792c-0.147,0-0.296,0.001-0.448,0.003h-1.558h-1.747v4.076h-0.305v0.607
					h0.305v0.896h1.558v-0.896h0.189v0.896h1.558v-0.896h0.258v-0.607h-0.258v-0.66l0.678,0.002c1.357,0,2.546,0.047,3.574-0.583
					c0.398-0.277,0.645-0.603,0.711-0.932c0.136-0.667-0.453-1.351-1.948-1.694C274.229,215.85,273.33,215.793,272.299,215.792
					L272.299,215.792z M270.104,216.396h0.189v2.036v0.603v0.836h-0.189v-0.836v-0.603V216.396z M271.851,216.396
					c3.08,0.052,4.268,0.894,3.671,1.645c-0.169,0.21-0.348,0.324-0.726,0.443c0.015-0.029,0.031-0.061,0.043-0.091
					c0.224-0.587-0.199-1.292-2.27-1.682c1.647,0.446,2.311,1.24,1.543,1.753c-1.307,0.095-2.262-0.414-2.262-1V216.396
					L271.851,216.396z"/>
				<path fill="#333333" d="M260.997,218.986c0,0-1.947,5.887,10.385,5.904c12.084,0.018,10.889-5.904,10.889-5.904
					s-0.268,4.864-10.688,4.864C261.163,223.85,260.997,218.986,260.997,218.986z"/>
			</g>
		</g>
		<g>
			<path fill="#FFFFFF" d="M282.261,215.476c-0.242,3.708-4.554,5.871-10.594,5.871c-6.041,0-11.179-1.737-10.876-5.871
				c0.322-4.403,4.977-4.943,11.017-4.943S282.447,212.639,282.261,215.476z"/>
			<g>
				<path fill="#333333" d="M271.51,209.924c-5.875,0-10.638,2.238-10.638,5.001c0,2.762,4.763,5,10.638,5
					c5.875,0,10.638-2.238,10.638-5C282.148,212.163,277.385,209.924,271.51,209.924z M271.51,218.984
					c-4.761,0-8.635-1.819-8.635-4.059c0-2.238,3.874-4.06,8.635-4.06c4.761,0,8.636,1.821,8.636,4.06
					S276.271,218.984,271.51,218.984z"/>
				<path fill="#60965A" d="M271.51,211.306c-4.245,0-7.697,1.624-7.697,3.62c0,1.995,3.453,3.617,7.697,3.617
					s7.698-1.622,7.698-3.617C279.208,212.929,275.755,211.306,271.51,211.306z"/>
				<path id="path4934_2_" fill="#FFFFFF" d="M272.201,212.252c-0.147,0-0.296,0.001-0.448,0.003h-1.558h-1.747v4.076h-0.305v0.607
					h0.305v0.896h1.558v-0.896h0.189v0.896h1.558v-0.896h0.258v-0.607h-0.258v-0.66l0.678,0.002c1.357,0,2.546,0.047,3.574-0.583
					c0.398-0.277,0.645-0.603,0.711-0.932c0.136-0.667-0.453-1.351-1.948-1.694C274.131,212.31,273.232,212.253,272.201,212.252
					L272.201,212.252z M270.006,212.856h0.189v2.036v0.603v0.836h-0.189v-0.836v-0.603V212.856z M271.753,212.856
					c3.08,0.052,4.268,0.894,3.671,1.645c-0.169,0.21-0.348,0.324-0.726,0.443c0.015-0.029,0.031-0.061,0.043-0.091
					c0.224-0.587-0.199-1.292-2.27-1.682c1.647,0.446,2.311,1.24,1.543,1.753c-1.307,0.095-2.262-0.414-2.262-1V212.856
					L271.753,212.856z"/>
				<path fill="#333333" d="M260.899,215.446c0,0-1.947,5.887,10.385,5.904c12.084,0.018,10.889-5.904,10.889-5.904
					s-0.268,4.864-10.688,4.864C261.065,220.31,260.899,215.446,260.899,215.446z"/>
			</g>
		</g>
		<g>
			<path fill="#FFFFFF" d="M282.455,212.091c-0.242,3.708-4.555,5.871-10.595,5.871c-6.041,0-11.179-1.737-10.876-5.871
				c0.322-4.403,4.977-4.943,11.017-4.943S282.638,209.254,282.455,212.091z"/>
			<g>
				<path fill="#333333" d="M271.702,206.54c-5.875,0-10.637,2.238-10.637,5.001c0,2.762,4.763,5,10.637,5
					c5.876,0,10.639-2.238,10.639-5C282.341,208.778,277.577,206.54,271.702,206.54z M271.702,215.599
					c-4.761,0-8.635-1.819-8.635-4.059c0-2.238,3.874-4.06,8.635-4.06c4.762,0,8.637,1.821,8.637,4.06
					C280.337,213.779,276.464,215.599,271.702,215.599z"/>
				<path fill="#60965A" d="M271.702,207.921c-4.244,0-7.697,1.624-7.697,3.62c0,1.995,3.453,3.617,7.697,3.617
					c4.245,0,7.698-1.622,7.698-3.617C279.4,209.544,275.947,207.921,271.702,207.921z"/>
				<path id="path4934_3_" fill="#FFFFFF" d="M272.394,208.868c-0.146,0-0.296,0.001-0.447,0.003h-1.559h-1.747v4.076h-0.305v0.607
					h0.305v0.896h1.558v-0.896h0.189v0.896h1.559v-0.896h0.258v-0.607h-0.258v-0.66l0.678,0.002c1.357,0,2.546,0.047,3.574-0.583
					c0.398-0.277,0.645-0.603,0.711-0.932c0.136-0.667-0.453-1.351-1.948-1.694C274.323,208.925,273.425,208.869,272.394,208.868
					L272.394,208.868z M270.198,209.471h0.189v2.036v0.603v0.836h-0.189v-0.836v-0.603V209.471z M271.946,209.471
					c3.079,0.052,4.268,0.894,3.671,1.645c-0.169,0.21-0.348,0.324-0.726,0.443c0.015-0.029,0.031-0.061,0.043-0.091
					c0.224-0.587-0.199-1.292-2.27-1.682c1.646,0.446,2.311,1.24,1.543,1.753c-1.307,0.095-2.262-0.414-2.262-1V209.471
					L271.946,209.471z"/>
				<path fill="#333333" d="M261.091,212.061c0,0-1.947,5.887,10.385,5.904c12.085,0.018,10.89-5.904,10.89-5.904
					s-0.27,4.864-10.689,4.864C261.258,216.925,261.091,212.061,261.091,212.061z"/>
			</g>
		</g>
	</g>
	<g>
		<g>
			<path fill="#FFFFFF" d="M296.395,223.744c-0.242,3.708-4.555,5.871-10.595,5.871c-6.041,0-11.179-1.737-10.877-5.871
				c0.322-4.403,4.977-4.943,11.018-4.943C291.981,218.8,296.579,220.907,296.395,223.744z"/>
			<g>
				<path fill="#333333" d="M285.642,218.192c-5.874,0-10.637,2.238-10.637,5.001c0,2.762,4.763,5,10.637,5
					c5.876,0,10.64-2.238,10.64-5C296.282,220.43,291.518,218.192,285.642,218.192z M285.642,227.251
					c-4.76,0-8.634-1.819-8.634-4.059c0-2.238,3.874-4.06,8.634-4.06c4.763,0,8.638,1.821,8.638,4.06
					C294.278,225.431,290.405,227.251,285.642,227.251z"/>
				<path fill="#60965A" d="M285.642,219.574c-4.244,0-7.696,1.624-7.696,3.62c0,1.995,3.452,3.617,7.696,3.617
					c4.245,0,7.698-1.622,7.698-3.617C293.34,221.197,289.887,219.574,285.642,219.574z"/>
				<path id="path4934_4_" fill="#FFFFFF" d="M286.333,220.52c-0.146,0-0.295,0.001-0.447,0.003h-1.559h-1.746v4.076h-0.305v0.607
					h0.305v0.896h1.557v-0.896h0.189v0.896h1.559v-0.896h0.258v-0.607h-0.258v-0.66l0.678,0.002c1.357,0,2.546,0.047,3.575-0.583
					c0.398-0.277,0.645-0.603,0.711-0.932c0.135-0.667-0.453-1.351-1.949-1.694C288.263,220.578,287.365,220.521,286.333,220.52
					L286.333,220.52z M284.138,221.124h0.189v2.036v0.603v0.836h-0.189v-0.836v-0.603V221.124z M285.886,221.124
					c3.079,0.052,4.269,0.894,3.671,1.645c-0.168,0.21-0.348,0.324-0.725,0.443c0.014-0.029,0.031-0.061,0.043-0.091
					c0.223-0.587-0.2-1.292-2.271-1.682c1.646,0.446,2.312,1.24,1.543,1.753c-1.307,0.095-2.262-0.414-2.262-1V221.124
					L285.886,221.124z"/>
				<path fill="#333333" d="M275.032,223.713c0,0-1.947,5.887,10.386,5.904c12.085,0.018,10.89-5.904,10.89-5.904
					s-0.27,4.864-10.688,4.864C275.198,228.578,275.032,223.713,275.032,223.713z"/>
			</g>
		</g>
		<g>
			<path fill="#FFFFFF" d="M296.307,220.675c-0.242,3.708-4.555,5.871-10.595,5.871c-6.041,0-11.179-1.737-10.877-5.871
				c0.322-4.403,4.977-4.943,11.018-4.943C291.893,215.732,296.491,217.838,296.307,220.675z"/>
			<g>
				<path fill="#333333" d="M285.554,215.124c-5.874,0-10.637,2.238-10.637,5.001c0,2.762,4.763,5,10.637,5
					c5.876,0,10.64-2.238,10.64-5C296.194,217.362,291.43,215.124,285.554,215.124z M285.554,224.183
					c-4.76,0-8.634-1.819-8.634-4.059c0-2.238,3.874-4.06,8.634-4.06c4.763,0,8.638,1.821,8.638,4.06
					C294.19,222.363,290.317,224.183,285.554,224.183z"/>
				<path fill="#60965A" d="M285.554,216.505c-4.244,0-7.696,1.624-7.696,3.62c0,1.995,3.452,3.617,7.696,3.617
					c4.245,0,7.698-1.622,7.698-3.617C293.252,218.128,289.799,216.505,285.554,216.505z"/>
				<path id="path4934_5_" fill="#FFFFFF" d="M286.246,217.452c-0.146,0-0.295,0.001-0.447,0.003h-1.559h-1.746v4.076h-0.305v0.607
					h0.305v0.896h1.557v-0.896h0.189v0.896h1.559v-0.896h0.258v-0.607h-0.258v-0.66l0.678,0.002c1.357,0,2.546,0.047,3.575-0.583
					c0.398-0.277,0.645-0.603,0.711-0.932c0.135-0.667-0.453-1.351-1.948-1.694C288.175,217.509,287.277,217.453,286.246,217.452
					L286.246,217.452z M284.05,218.055h0.189v2.036v0.603v0.836h-0.189v-0.836v-0.603V218.055z M285.798,218.055
					c3.079,0.052,4.269,0.894,3.671,1.645c-0.168,0.21-0.348,0.324-0.726,0.443c0.016-0.029,0.031-0.061,0.043-0.091
					c0.224-0.587-0.199-1.292-2.27-1.682c1.646,0.446,2.312,1.24,1.543,1.753c-1.307,0.095-2.262-0.414-2.262-1V218.055
					L285.798,218.055z"/>
				<path fill="#333333" d="M274.944,220.645c0,0-1.947,5.887,10.386,5.904c12.085,0.018,10.89-5.904,10.89-5.904
					s-0.27,4.864-10.688,4.864C275.11,225.509,274.944,220.645,274.944,220.645z"/>
			</g>
		</g>
	</g>
</g>
<g>
	<path fill="#333333" d="M196.267,254.198c-4.11-5.373-9.412-8.15-18.369-9.043c-1.617-0.326-2.835-1.758-2.835-3.459
		c0-1.246,3.996-4.975,3.968-5.002c4.125-4.266,6.336-11.199,6.336-16.527c0-8.277-6.662-14.996-14.882-14.996
		c-8.221,0-14.883,6.719-14.883,14.996c0,5.357,2.155,12.332,6.322,16.598c0,0,3.983,3.686,3.983,4.932
		c0,1.801-1.36,3.303-3.118,3.516c-8.774,0.922-14.018,3.684-18.086,8.986c-1.176,1.529-1.814,4.605-1.857,6.25
		c0.014,0.426,0,7.088,0,7.088c0,3.133,2.538,5.67,5.67,5.67h43.94c3.132,0,5.67-2.537,5.67-5.67c0,0-0.014-6.662,0-7.088
		C198.082,258.803,197.442,255.727,196.267,254.198z"/>
	<g>
		<g>
			<path fill="#FFFFFF" d="M192.064,272.223c-0.242,3.708-4.554,5.871-10.594,5.871c-6.041,0-11.179-1.737-10.876-5.871
				c0.322-4.403,4.977-4.943,11.017-4.943C187.652,267.28,192.25,269.386,192.064,272.223z"/>
			<g>
				<path fill="#333333" d="M181.314,266.671c-5.875,0-10.638,2.238-10.638,5.001c0,2.762,4.763,5,10.638,5
					c5.875,0,10.638-2.238,10.638-5C191.952,268.91,187.189,266.671,181.314,266.671z M181.314,275.731
					c-4.761,0-8.635-1.819-8.635-4.059c0-2.238,3.874-4.06,8.635-4.06s8.635,1.821,8.635,4.06S186.075,275.731,181.314,275.731z"/>
				<path fill="#60965A" d="M181.314,268.053c-4.245,0-7.697,1.624-7.697,3.62c0,1.995,3.453,3.617,7.697,3.617
					s7.698-1.622,7.698-3.617C189.012,269.676,185.559,268.053,181.314,268.053z"/>
				<path id="path4934_11_" fill="#FFFFFF" d="M182.005,269c-0.147,0-0.296,0.001-0.448,0.003h-1.558h-1.747v4.076h-0.305v0.607
					h0.305v0.896h1.558v-0.896h0.189v0.896h1.558v-0.896h0.258v-0.607h-0.258v-0.66l0.678,0.002c1.357,0,2.546,0.047,3.574-0.583
					c0.399-0.277,0.645-0.603,0.712-0.932c0.135-0.667-0.454-1.351-1.949-1.694C183.935,269.057,183.037,269,182.005,269
					L182.005,269z M179.81,269.603h0.189v2.036v0.603v0.836h-0.189v-0.836v-0.603V269.603z M181.557,269.603
					c3.08,0.052,4.268,0.894,3.671,1.645c-0.168,0.21-0.348,0.324-0.726,0.443c0.015-0.029,0.032-0.061,0.043-0.091
					c0.224-0.587-0.199-1.292-2.27-1.682c1.647,0.446,2.312,1.24,1.543,1.753c-1.307,0.095-2.262-0.414-2.262-1V269.603
					L181.557,269.603z"/>
				<path fill="#333333" d="M170.703,272.193c0,0-1.947,5.887,10.385,5.904c12.085,0.018,10.891-5.904,10.891-5.904
					s-0.27,4.864-10.689,4.864S170.703,272.193,170.703,272.193z"/>
			</g>
		</g>
		<g>
			<path fill="#FFFFFF" d="M192.065,268.838c-0.242,3.708-4.555,5.871-10.595,5.871c-6.041,0-11.179-1.737-10.876-5.871
				c0.322-4.403,4.977-4.943,11.017-4.943S192.25,266.001,192.065,268.838z"/>
			<g>
				<path fill="#333333" d="M181.314,263.287c-5.875,0-10.638,2.238-10.638,5.001c0,2.762,4.763,5,10.638,5
					c5.875,0,10.638-2.238,10.638-5C191.952,265.525,187.188,263.287,181.314,263.287z M181.314,272.346
					c-4.761,0-8.635-1.819-8.635-4.059c0-2.238,3.874-4.06,8.635-4.06c4.761,0,8.636,1.821,8.636,4.06
					C189.949,270.526,186.075,272.346,181.314,272.346z"/>
				<path fill="#60965A" d="M181.314,264.668c-4.245,0-7.697,1.624-7.697,3.62c0,1.995,3.453,3.617,7.697,3.617
					s7.698-1.622,7.698-3.617C189.012,266.292,185.559,264.668,181.314,264.668z"/>
				<path id="path4934_10_" fill="#FFFFFF" d="M182.005,265.615c-0.147,0-0.296,0.001-0.448,0.003h-1.558h-1.747v4.076h-0.305v0.607
					h0.305v0.896h1.558v-0.896h0.189v0.896h1.558v-0.896h0.258v-0.607h-0.258v-0.66l0.678,0.002c1.357,0,2.546,0.047,3.574-0.583
					c0.398-0.277,0.645-0.603,0.711-0.932c0.136-0.667-0.453-1.351-1.948-1.694C183.935,265.672,183.036,265.616,182.005,265.615
					L182.005,265.615z M179.81,266.218h0.189v2.036v0.603v0.836h-0.189v-0.836v-0.603V266.218z M181.557,266.218
					c3.08,0.052,4.268,0.894,3.671,1.645c-0.169,0.21-0.348,0.324-0.726,0.443c0.015-0.029,0.031-0.061,0.043-0.091
					c0.224-0.587-0.199-1.292-2.27-1.682c1.647,0.446,2.311,1.24,1.543,1.753c-1.307,0.095-2.262-0.414-2.262-1V266.218
					L181.557,266.218z"/>
				<path fill="#333333" d="M170.703,268.808c0,0-1.947,5.887,10.385,5.904c12.085,0.018,10.89-5.904,10.89-5.904
					s-0.269,4.864-10.688,4.864S170.703,268.808,170.703,268.808z"/>
			</g>
		</g>
		<g>
			<path fill="#FFFFFF" d="M191.968,265.298c-0.242,3.708-4.555,5.871-10.595,5.871c-6.041,0-11.179-1.737-10.876-5.871
				c0.322-4.403,4.977-4.943,11.017-4.943S192.152,262.461,191.968,265.298z"/>
			<g>
				<path fill="#333333" d="M181.216,259.747c-5.875,0-10.638,2.238-10.638,5.001c0,2.762,4.763,5,10.638,5
					c5.875,0,10.638-2.238,10.638-5C191.854,261.985,187.091,259.747,181.216,259.747z M181.216,268.806
					c-4.761,0-8.635-1.819-8.635-4.059c0-2.238,3.874-4.06,8.635-4.06c4.761,0,8.636,1.821,8.636,4.06
					C189.852,266.986,185.978,268.806,181.216,268.806z"/>
				<path fill="#60965A" d="M181.216,261.128c-4.245,0-7.697,1.624-7.697,3.62c0,1.995,3.453,3.617,7.697,3.617
					s7.698-1.622,7.698-3.617C188.914,262.751,185.461,261.128,181.216,261.128z"/>
				<path id="path4934_9_" fill="#FFFFFF" d="M181.907,262.075c-0.147,0-0.296,0.001-0.448,0.003h-1.558h-1.747v4.076h-0.305v0.607
					h0.305v0.896h1.558v-0.896h0.189v0.896h1.558v-0.896h0.258v-0.607h-0.258v-0.66l0.678,0.002c1.357,0,2.546,0.047,3.574-0.583
					c0.398-0.277,0.645-0.603,0.711-0.932c0.136-0.667-0.453-1.351-1.948-1.694C183.837,262.132,182.938,262.076,181.907,262.075
					L181.907,262.075z M179.712,262.678h0.189v2.036v0.603v0.836h-0.189v-0.836v-0.603V262.678z M181.459,262.678
					c3.08,0.052,4.268,0.894,3.671,1.645c-0.169,0.21-0.348,0.324-0.726,0.443c0.015-0.029,0.031-0.061,0.043-0.091
					c0.224-0.587-0.199-1.292-2.27-1.682c1.647,0.446,2.311,1.24,1.543,1.753c-1.307,0.095-2.262-0.414-2.262-1V262.678
					L181.459,262.678z"/>
				<path fill="#333333" d="M170.605,265.268c0,0-1.947,5.887,10.385,5.904c12.085,0.018,10.89-5.904,10.89-5.904
					s-0.269,4.864-10.688,4.864S170.605,265.268,170.605,265.268z"/>
			</g>
		</g>
		<g>
			<path fill="#FFFFFF" d="M192.16,261.914c-0.242,3.708-4.555,5.871-10.595,5.871c-6.041,0-11.179-1.737-10.876-5.871
				c0.322-4.403,4.977-4.943,11.017-4.943S192.345,259.077,192.16,261.914z"/>
			<g>
				<path fill="#333333" d="M181.408,256.362c-5.875,0-10.637,2.238-10.637,5.001c0,2.762,4.763,5,10.637,5
					c5.876,0,10.639-2.238,10.639-5C192.047,258.6,187.283,256.362,181.408,256.362z M181.408,265.421
					c-4.761,0-8.635-1.819-8.635-4.059c0-2.238,3.874-4.06,8.635-4.06c4.762,0,8.637,1.821,8.637,4.06
					C190.044,263.601,186.17,265.421,181.408,265.421z"/>
				<path fill="#60965A" d="M181.408,257.744c-4.244,0-7.697,1.624-7.697,3.62c0,1.995,3.453,3.617,7.697,3.617
					c4.245,0,7.698-1.622,7.698-3.617C189.106,259.367,185.653,257.744,181.408,257.744z"/>
				<path id="path4934_8_" fill="#FFFFFF" d="M182.1,258.69c-0.146,0-0.296,0.001-0.447,0.003h-1.559h-1.747v4.076h-0.305v0.607
					h0.305v0.896h1.558v-0.896h0.189v0.896h1.559v-0.896h0.258v-0.607h-0.258v-0.66l0.678,0.002c1.357,0,2.546,0.047,3.574-0.583
					c0.398-0.277,0.645-0.603,0.711-0.932c0.136-0.667-0.453-1.351-1.948-1.694C184.029,258.748,183.131,258.691,182.1,258.69
					L182.1,258.69z M179.904,259.293h0.189v2.036v0.603v0.836h-0.189v-0.836v-0.603V259.293z M181.652,259.293
					c3.079,0.052,4.268,0.894,3.671,1.645c-0.169,0.21-0.348,0.324-0.726,0.443c0.015-0.029,0.031-0.061,0.043-0.091
					c0.224-0.587-0.199-1.292-2.27-1.682c1.646,0.446,2.311,1.24,1.543,1.753c-1.307,0.095-2.262-0.414-2.262-1V259.293
					L181.652,259.293z"/>
				<path fill="#333333" d="M170.797,261.883c0,0-1.947,5.887,10.385,5.904c12.085,0.018,10.89-5.904,10.89-5.904
					s-0.269,4.864-10.688,4.864S170.797,261.883,170.797,261.883z"/>
			</g>
		</g>
	</g>
	<g>
		<g>
			<path fill="#FFFFFF" d="M206.101,273.566c-0.242,3.708-4.555,5.871-10.595,5.871c-6.041,0-11.179-1.737-10.876-5.871
				c0.322-4.403,4.977-4.943,11.017-4.943S206.285,270.729,206.101,273.566z"/>
			<g>
				<path fill="#333333" d="M195.349,268.014c-5.874,0-10.637,2.238-10.637,5.001c0,2.762,4.763,5,10.637,5
					c5.876,0,10.639-2.238,10.639-5C205.987,270.252,201.224,268.014,195.349,268.014z M195.349,277.074
					c-4.761,0-8.635-1.819-8.635-4.059c0-2.238,3.874-4.06,8.635-4.06c4.762,0,8.637,1.821,8.637,4.06
					C203.984,275.253,200.11,277.074,195.349,277.074z"/>
				<path fill="#60965A" d="M195.349,269.396c-4.244,0-7.697,1.624-7.697,3.62c0,1.995,3.453,3.617,7.697,3.617
					c4.245,0,7.698-1.622,7.698-3.617C203.047,271.019,199.594,269.396,195.349,269.396z"/>
				<path id="path4934_7_" fill="#FFFFFF" d="M196.04,270.342c-0.146,0-0.296,0.001-0.447,0.003h-1.559h-1.747v4.076h-0.305v0.607
					h0.305v0.896h1.558v-0.896h0.189v0.896h1.559v-0.896h0.258v-0.607h-0.258v-0.66l0.678,0.002c1.357,0,2.546,0.047,3.574-0.583
					c0.398-0.277,0.645-0.603,0.711-0.932c0.136-0.667-0.453-1.351-1.948-1.694C197.97,270.4,197.071,270.343,196.04,270.342
					L196.04,270.342z M193.845,270.946h0.189v2.036v0.603v0.836h-0.189v-0.836v-0.603V270.946z M195.593,270.946
					c3.079,0.052,4.268,0.894,3.671,1.645c-0.169,0.21-0.348,0.324-0.726,0.443c0.015-0.029,0.031-0.061,0.043-0.091
					c0.224-0.587-0.199-1.292-2.27-1.682c1.646,0.446,2.311,1.24,1.543,1.753c-1.307,0.095-2.262-0.414-2.262-1V270.946
					L195.593,270.946z"/>
				<path fill="#333333" d="M184.738,273.536c0,0-1.947,5.887,10.385,5.904c12.085,0.018,10.89-5.904,10.89-5.904
					s-0.269,4.864-10.688,4.864S184.738,273.536,184.738,273.536z"/>
			</g>
		</g>
		<g>
			<path fill="#FFFFFF" d="M206.013,270.498c-0.242,3.708-4.555,5.871-10.595,5.871c-6.041,0-11.179-1.737-10.876-5.871
				c0.322-4.403,4.977-4.943,11.017-4.943S206.197,267.661,206.013,270.498z"/>
			<g>
				<path fill="#333333" d="M195.261,264.946c-5.874,0-10.637,2.238-10.637,5.001c0,2.762,4.763,5,10.637,5
					c5.876,0,10.639-2.238,10.639-5C205.899,267.184,201.136,264.946,195.261,264.946z M195.261,274.005
					c-4.761,0-8.635-1.819-8.635-4.059c0-2.238,3.874-4.06,8.635-4.06c4.762,0,8.637,1.821,8.637,4.06
					C203.896,272.185,200.022,274.005,195.261,274.005z"/>
				<path fill="#60965A" d="M195.261,266.328c-4.244,0-7.697,1.624-7.697,3.62c0,1.995,3.453,3.617,7.697,3.617
					c4.245,0,7.698-1.622,7.698-3.617C202.959,267.951,199.506,266.328,195.261,266.328z"/>
				<path id="path4934_6_" fill="#FFFFFF" d="M195.952,267.274c-0.146,0-0.296,0.001-0.447,0.003h-1.559h-1.747v4.076h-0.305v0.607
					h0.305v0.896h1.558v-0.896h0.189v0.896h1.559v-0.896h0.258v-0.607h-0.258v-0.66l0.678,0.002c1.357,0,2.546,0.047,3.574-0.583
					c0.398-0.277,0.645-0.603,0.711-0.932c0.136-0.667-0.453-1.351-1.948-1.694C197.882,267.332,196.983,267.275,195.952,267.274
					L195.952,267.274z M193.757,267.877h0.189v2.036v0.603v0.836h-0.189v-0.836v-0.603V267.877z M195.505,267.877
					c3.079,0.052,4.268,0.894,3.671,1.645c-0.169,0.21-0.348,0.324-0.726,0.443c0.015-0.029,0.031-0.061,0.043-0.091
					c0.224-0.587-0.199-1.292-2.27-1.682c1.646,0.446,2.311,1.24,1.543,1.753c-1.307,0.095-2.262-0.414-2.262-1V267.877
					L195.505,267.877z"/>
				<path fill="#333333" d="M184.65,270.467c0,0-1.947,5.887,10.385,5.904c12.085,0.018,10.89-5.904,10.89-5.904
					s-0.269,4.864-10.688,4.864S184.65,270.467,184.65,270.467z"/>
			</g>
		</g>
	</g>
	<g>
		<g>
			<path fill="#FFFFFF" d="M191.943,258.609c-0.242,3.708-4.554,5.871-10.594,5.871c-6.041,0-11.179-1.737-10.876-5.871
				c0.322-4.403,4.977-4.943,11.017-4.943C187.531,253.666,192.128,255.772,191.943,258.609z"/>
			<g>
				<path fill="#333333" d="M181.193,253.057c-5.875,0-10.638,2.238-10.638,5.001c0,2.762,4.763,5,10.638,5s10.638-2.238,10.638-5
					C191.831,255.295,187.068,253.057,181.193,253.057z M181.193,262.117c-4.762,0-8.636-1.819-8.636-4.059
					c0-2.238,3.874-4.06,8.636-4.06s8.635,1.821,8.635,4.06S185.954,262.117,181.193,262.117z"/>
				<path fill="#60965A" d="M181.193,254.439c-4.245,0-7.698,1.624-7.698,3.62c0,1.995,3.453,3.617,7.698,3.617
					c4.244,0,7.697-1.622,7.697-3.617C188.89,256.062,185.437,254.439,181.193,254.439z"/>
				<path id="path4934_18_" fill="#FFFFFF" d="M181.883,255.385c-0.147,0-0.296,0.001-0.448,0.003h-1.558h-1.747v4.076h-0.305v0.607
					h0.305v0.896h1.558v-0.896h0.189v0.896h1.558v-0.896h0.259v-0.607h-0.259v-0.66l0.679,0.002c1.357,0,2.546,0.047,3.573-0.583
					c0.399-0.277,0.646-0.603,0.713-0.932c0.135-0.667-0.455-1.351-1.949-1.694C183.813,255.443,182.916,255.386,181.883,255.385
					L181.883,255.385z M179.688,255.989h0.189v2.036v0.603v0.836h-0.189v-0.836v-0.603V255.989z M181.435,255.989
					c3.08,0.052,4.269,0.894,3.672,1.645c-0.168,0.21-0.348,0.324-0.727,0.443c0.016-0.029,0.032-0.061,0.044-0.091
					c0.224-0.587-0.199-1.292-2.271-1.682c1.647,0.446,2.313,1.24,1.544,1.753c-1.308,0.095-2.263-0.414-2.263-1V255.989
					L181.435,255.989z"/>
				<path fill="#333333" d="M170.581,258.579c0,0-1.947,5.887,10.385,5.904c12.085,0.018,10.891-5.904,10.891-5.904
					s-0.27,4.864-10.689,4.864S170.581,258.579,170.581,258.579z"/>
			</g>
		</g>
		<g>
			<path fill="#FFFFFF" d="M191.944,255.224c-0.242,3.708-4.555,5.871-10.595,5.871c-6.041,0-11.179-1.737-10.876-5.871
				c0.322-4.403,4.977-4.943,11.017-4.943S192.128,252.387,191.944,255.224z"/>
			<g>
				<path fill="#333333" d="M181.193,249.672c-5.875,0-10.638,2.238-10.638,5.001c0,2.762,4.763,5,10.638,5s10.638-2.238,10.638-5
					C191.831,251.911,187.067,249.672,181.193,249.672z M181.193,258.732c-4.762,0-8.636-1.819-8.636-4.059
					c0-2.238,3.874-4.06,8.636-4.06c4.761,0,8.636,1.821,8.636,4.06C189.828,256.912,185.954,258.732,181.193,258.732z"/>
				<path fill="#60965A" d="M181.193,251.054c-4.245,0-7.698,1.624-7.698,3.62c0,1.995,3.453,3.617,7.698,3.617
					c4.244,0,7.697-1.622,7.697-3.617C188.89,252.677,185.437,251.054,181.193,251.054z"/>
				<path id="path4934_17_" fill="#FFFFFF" d="M181.883,252c-0.147,0-0.296,0.001-0.448,0.003h-1.558h-1.747v4.076h-0.305v0.607
					h0.305v0.896h1.558v-0.896h0.189v0.896h1.558v-0.896h0.259v-0.607h-0.259v-0.66l0.679,0.002c1.357,0,2.546,0.047,3.574-0.583
					c0.398-0.277,0.645-0.603,0.711-0.932c0.136-0.667-0.453-1.351-1.948-1.694C183.813,252.058,182.915,252.001,181.883,252
					L181.883,252z M179.688,252.604h0.189v2.036v0.603v0.836h-0.189v-0.836v-0.603V252.604z M181.435,252.604
					c3.08,0.052,4.269,0.894,3.672,1.645c-0.169,0.21-0.348,0.324-0.726,0.443c0.015-0.029,0.031-0.061,0.043-0.091
					c0.224-0.587-0.199-1.292-2.271-1.682c1.647,0.446,2.312,1.24,1.544,1.753c-1.307,0.095-2.263-0.414-2.263-1V252.604
					L181.435,252.604z"/>
				<path fill="#333333" d="M170.581,255.194c0,0-1.947,5.887,10.385,5.904c12.085,0.018,10.89-5.904,10.89-5.904
					s-0.269,4.864-10.688,4.864S170.581,255.194,170.581,255.194z"/>
			</g>
		</g>
		<g>
			<path fill="#FFFFFF" d="M191.846,251.684c-0.242,3.708-4.555,5.871-10.595,5.871c-6.041,0-11.179-1.737-10.876-5.871
				c0.322-4.403,4.977-4.943,11.017-4.943S192.031,248.847,191.846,251.684z"/>
			<g>
				<path fill="#333333" d="M181.095,246.132c-5.875,0-10.638,2.238-10.638,5.001c0,2.762,4.763,5,10.638,5s10.638-2.238,10.638-5
					C191.733,248.371,186.969,246.132,181.095,246.132z M181.095,255.192c-4.762,0-8.636-1.819-8.636-4.059
					c0-2.238,3.874-4.06,8.636-4.06c4.761,0,8.636,1.821,8.636,4.06C189.73,253.372,185.856,255.192,181.095,255.192z"/>
				<path fill="#60965A" d="M181.095,247.514c-4.245,0-7.698,1.624-7.698,3.62c0,1.995,3.453,3.617,7.698,3.617
					c4.244,0,7.697-1.622,7.697-3.617C188.792,249.137,185.339,247.514,181.095,247.514z"/>
				<path id="path4934_16_" fill="#FFFFFF" d="M181.786,248.46c-0.147,0-0.296,0.001-0.448,0.003h-1.558h-1.747v4.076h-0.305v0.607
					h0.305v0.896h1.558v-0.896h0.189v0.896h1.558v-0.896h0.259v-0.607h-0.259v-0.66l0.679,0.002c1.357,0,2.546,0.047,3.574-0.583
					c0.398-0.277,0.645-0.603,0.711-0.932c0.136-0.667-0.453-1.351-1.948-1.694C183.715,248.518,182.817,248.461,181.786,248.46
					L181.786,248.46z M179.59,249.064h0.189v2.036v0.603v0.836h-0.189v-0.836V251.1V249.064z M181.337,249.064
					c3.08,0.052,4.269,0.894,3.672,1.645c-0.169,0.21-0.348,0.324-0.726,0.443c0.015-0.029,0.031-0.061,0.043-0.091
					c0.224-0.587-0.199-1.292-2.271-1.682c1.647,0.446,2.312,1.24,1.544,1.753c-1.307,0.095-2.263-0.414-2.263-1V249.064
					L181.337,249.064z"/>
				<path fill="#333333" d="M170.483,251.654c0,0-1.947,5.887,10.385,5.904c12.085,0.018,10.89-5.904,10.89-5.904
					s-0.269,4.864-10.688,4.864S170.483,251.654,170.483,251.654z"/>
			</g>
		</g>
		<g>
			<path fill="#FFFFFF" d="M192.039,248.299c-0.242,3.708-4.555,5.871-10.595,5.871s-11.179-1.737-10.876-5.871
				c0.322-4.403,4.977-4.943,11.017-4.943S192.223,245.462,192.039,248.299z"/>
			<g>
				<path fill="#333333" d="M181.287,242.748c-5.875,0-10.637,2.238-10.637,5.001c0,2.762,4.762,5,10.637,5
					c5.876,0,10.639-2.238,10.639-5C191.925,244.986,187.162,242.748,181.287,242.748z M181.287,251.807
					c-4.761,0-8.635-1.819-8.635-4.059c0-2.238,3.873-4.06,8.635-4.06s8.637,1.821,8.637,4.06
					C189.922,249.987,186.048,251.807,181.287,251.807z"/>
				<path fill="#60965A" d="M181.287,244.129c-4.244,0-7.697,1.624-7.697,3.62c0,1.995,3.453,3.617,7.697,3.617
					c4.245,0,7.698-1.622,7.698-3.617C188.985,245.752,185.532,244.129,181.287,244.129z"/>
				<path id="path4934_15_" fill="#FFFFFF" d="M181.978,245.076c-0.146,0-0.296,0.001-0.447,0.003h-1.559h-1.747v4.076h-0.305v0.607
					h0.305v0.896h1.558v-0.896h0.189v0.896h1.559v-0.896h0.258v-0.607h-0.258v-0.66l0.678,0.002c1.357,0,2.546,0.047,3.574-0.583
					c0.398-0.277,0.645-0.603,0.711-0.932c0.136-0.667-0.453-1.351-1.948-1.694C183.908,245.133,183.009,245.077,181.978,245.076
					L181.978,245.076z M179.783,245.679h0.189v2.036v0.603v0.836h-0.189v-0.836v-0.603V245.679z M181.531,245.679
					c3.079,0.052,4.268,0.894,3.671,1.645c-0.169,0.21-0.348,0.324-0.726,0.443c0.015-0.029,0.031-0.061,0.043-0.091
					c0.224-0.587-0.199-1.292-2.27-1.682c1.646,0.446,2.311,1.24,1.543,1.753c-1.307,0.095-2.262-0.414-2.262-1V245.679
					L181.531,245.679z"/>
				<path fill="#333333" d="M170.676,248.269c0,0-1.947,5.887,10.385,5.904c12.085,0.018,10.89-5.904,10.89-5.904
					s-0.269,4.864-10.688,4.864S170.676,248.269,170.676,248.269z"/>
			</g>
		</g>
	</g>
	<g>
		<g>
			<path fill="#FFFFFF" d="M206.548,267.984c-0.242,3.708-4.555,5.871-10.595,5.871c-6.041,0-11.179-1.737-10.876-5.871
				c0.321-4.403,4.977-4.943,11.017-4.943S206.732,265.147,206.548,267.984z"/>
			<g>
				<path fill="#333333" d="M195.796,262.432c-5.874,0-10.637,2.238-10.637,5.001c0,2.762,4.763,5,10.637,5
					c5.876,0,10.639-2.238,10.639-5C206.435,264.67,201.671,262.432,195.796,262.432z M195.796,271.492
					c-4.761,0-8.635-1.819-8.635-4.059c0-2.238,3.874-4.06,8.635-4.06c4.762,0,8.637,1.821,8.637,4.06
					C204.432,269.671,200.558,271.492,195.796,271.492z"/>
				<path fill="#60965A" d="M195.796,263.814c-4.244,0-7.697,1.624-7.697,3.62c0,1.995,3.453,3.617,7.697,3.617
					c4.245,0,7.698-1.622,7.698-3.617C203.494,265.437,200.041,263.814,195.796,263.814z"/>
				<path id="path4934_13_" fill="#FFFFFF" d="M196.487,264.76c-0.146,0-0.296,0.001-0.447,0.003h-1.559h-1.747v4.076h-0.305v0.607
					h0.305v0.896h1.558v-0.896h0.189v0.896h1.559v-0.896h0.258v-0.607h-0.258v-0.66l0.678,0.002c1.357,0,2.546,0.047,3.574-0.583
					c0.398-0.277,0.645-0.603,0.711-0.932c0.136-0.667-0.453-1.351-1.948-1.694C198.417,264.818,197.519,264.761,196.487,264.76
					L196.487,264.76z M194.292,265.364h0.189v2.036v0.603v0.836h-0.189v-0.836V267.4V265.364z M196.04,265.364
					c3.079,0.052,4.268,0.894,3.671,1.645c-0.169,0.21-0.348,0.324-0.726,0.443c0.015-0.029,0.031-0.061,0.043-0.091
					c0.224-0.587-0.199-1.292-2.27-1.682c1.646,0.446,2.311,1.24,1.543,1.753c-1.307,0.095-2.262-0.414-2.262-1V265.364
					L196.04,265.364z"/>
				<path fill="#333333" d="M185.185,267.954c0,0-1.946,5.887,10.386,5.904c12.085,0.018,10.89-5.904,10.89-5.904
					s-0.269,4.864-10.688,4.864S185.185,267.954,185.185,267.954z"/>
			</g>
		</g>
		<g>
			<path fill="#FFFFFF" d="M206.46,264.916c-0.242,3.708-4.555,5.871-10.595,5.871c-6.041,0-11.179-1.737-10.876-5.871
				c0.321-4.403,4.977-4.943,11.017-4.943S206.645,262.079,206.46,264.916z"/>
			<g>
				<path fill="#333333" d="M195.708,259.364c-5.874,0-10.637,2.238-10.637,5.001c0,2.762,4.763,5,10.637,5
					c5.876,0,10.639-2.238,10.639-5C206.347,261.602,201.583,259.364,195.708,259.364z M195.708,268.423
					c-4.761,0-8.635-1.819-8.635-4.059c0-2.238,3.874-4.06,8.635-4.06c4.762,0,8.637,1.821,8.637,4.06
					C204.344,266.603,200.47,268.423,195.708,268.423z"/>
				<path fill="#60965A" d="M195.708,260.746c-4.244,0-7.697,1.624-7.697,3.62c0,1.995,3.453,3.617,7.697,3.617
					c4.245,0,7.698-1.622,7.698-3.617C203.406,262.369,199.953,260.746,195.708,260.746z"/>
				<path id="path4934_12_" fill="#FFFFFF" d="M196.399,261.692c-0.146,0-0.296,0.001-0.447,0.003h-1.559h-1.747v4.076h-0.305v0.607
					h0.305v0.896h1.558v-0.896h0.189v0.896h1.559v-0.896h0.258v-0.607h-0.258v-0.66l0.678,0.002c1.357,0,2.546,0.047,3.574-0.583
					c0.398-0.277,0.645-0.603,0.711-0.932c0.136-0.667-0.453-1.351-1.948-1.694C198.329,261.75,197.431,261.693,196.399,261.692
					L196.399,261.692z M194.204,262.295h0.189v2.036v0.603v0.836h-0.189v-0.836v-0.603V262.295z M195.952,262.295
					c3.079,0.052,4.268,0.894,3.671,1.645c-0.169,0.21-0.348,0.324-0.726,0.443c0.015-0.029,0.031-0.061,0.043-0.091
					c0.224-0.587-0.199-1.292-2.27-1.682c1.646,0.446,2.311,1.24,1.543,1.753c-1.307,0.095-2.262-0.414-2.262-1V262.295
					L195.952,262.295z"/>
				<path fill="#333333" d="M185.097,264.885c0,0-1.946,5.887,10.386,5.904c12.085,0.018,10.89-5.904,10.89-5.904
					s-0.269,4.864-10.688,4.864S185.097,264.885,185.097,264.885z"/>
			</g>
		</g>
	</g>
</g>
<g>
	<path fill="#333333" d="M68.898,113.969c-4.11-5.373-9.412-8.15-18.369-9.043c-1.617-0.326-2.835-1.758-2.835-3.459
		c0-1.247,3.996-4.976,3.968-5.003c4.125-4.266,6.336-11.199,6.336-16.527c0-8.277-6.662-14.996-14.883-14.996
		c-8.221,0-14.883,6.719-14.883,14.996c0,5.357,2.155,12.332,6.322,16.598c0,0,3.983,3.686,3.983,4.933
		c0,1.801-1.36,3.303-3.118,3.516c-8.774,0.922-14.018,3.684-18.086,8.986c-1.176,1.529-1.814,4.605-1.857,6.25
		c0.014,0.426,0,7.088,0,7.088c0,3.133,2.538,5.67,5.67,5.67h43.94c3.132,0,5.67-2.537,5.67-5.67c0,0-0.014-6.662,0-7.088
		C70.713,118.574,70.074,115.498,68.898,113.969z"/>
	<g>
		<g>
			<path fill="#FFFFFF" d="M76.402,130.284c-0.242,3.708-4.554,5.871-10.594,5.871c-6.041,0-11.179-1.737-10.876-5.871
				c0.322-4.403,4.977-4.943,11.017-4.943C71.989,125.341,76.587,127.447,76.402,130.284z"/>
			<g>
				<path fill="#333333" d="M65.651,124.732c-5.875,0-10.638,2.238-10.638,5.001c0,2.762,4.763,5,10.638,5
					c5.875,0,10.638-2.238,10.638-5C76.29,126.971,71.526,124.732,65.651,124.732z M65.651,133.792
					c-4.761,0-8.635-1.819-8.635-4.059c0-2.238,3.874-4.06,8.635-4.06s8.635,1.821,8.635,4.06S70.413,133.792,65.651,133.792z"/>
				<path fill="#60965A" d="M65.651,126.114c-4.245,0-7.697,1.624-7.697,3.62c0,1.995,3.453,3.617,7.697,3.617
					s7.698-1.622,7.698-3.617C73.349,127.737,69.896,126.114,65.651,126.114z"/>
				<path id="path4934_24_" fill="#FFFFFF" d="M66.342,127.061c-0.147,0-0.296,0.001-0.448,0.003h-1.558h-1.747v4.076h-0.305v0.607
					h0.305v0.896h1.558v-0.896h0.189v0.896h1.558v-0.896h0.258v-0.607h-0.258v-0.66l0.678,0.002c1.357,0,2.546,0.047,3.574-0.583
					c0.399-0.277,0.645-0.603,0.712-0.932c0.135-0.667-0.454-1.351-1.949-1.694C68.272,127.118,67.374,127.062,66.342,127.061
					L66.342,127.061z M64.147,127.664h0.189v2.036v0.603v0.836h-0.189v-0.836V129.7V127.664z M65.895,127.664
					c3.08,0.052,4.268,0.894,3.671,1.645c-0.168,0.21-0.348,0.324-0.726,0.443c0.015-0.029,0.032-0.061,0.043-0.091
					c0.224-0.587-0.199-1.292-2.27-1.682c1.647,0.446,2.312,1.24,1.543,1.753c-1.307,0.095-2.262-0.414-2.262-1V127.664
					L65.895,127.664z"/>
				<path fill="#333333" d="M55.04,130.254c0,0-1.947,5.887,10.385,5.904c12.085,0.018,10.891-5.904,10.891-5.904
					s-0.27,4.864-10.689,4.864S55.04,130.254,55.04,130.254z"/>
			</g>
		</g>
		<g>
			<path fill="#FFFFFF" d="M76.403,126.899c-0.242,3.708-4.555,5.871-10.595,5.871c-6.041,0-11.179-1.737-10.876-5.871
				c0.322-4.403,4.977-4.943,11.017-4.943S76.587,124.063,76.403,126.899z"/>
			<g>
				<path fill="#333333" d="M65.651,121.348c-5.875,0-10.638,2.238-10.638,5.001c0,2.762,4.763,5,10.638,5
					c5.875,0,10.638-2.238,10.638-5C76.29,123.586,71.526,121.348,65.651,121.348z M65.651,130.407
					c-4.761,0-8.635-1.819-8.635-4.059c0-2.238,3.874-4.06,8.635-4.06c4.761,0,8.636,1.821,8.636,4.06
					C74.287,128.587,70.413,130.407,65.651,130.407z"/>
				<path fill="#60965A" d="M65.651,122.729c-4.245,0-7.697,1.624-7.697,3.62c0,1.995,3.453,3.617,7.697,3.617
					s7.698-1.622,7.698-3.617C73.349,124.353,69.896,122.729,65.651,122.729z"/>
				<path id="path4934_23_" fill="#FFFFFF" d="M66.342,123.676c-0.147,0-0.296,0.001-0.448,0.003h-1.558h-1.747v4.076h-0.305v0.607
					h0.305v0.896h1.558v-0.896h0.189v0.896h1.558v-0.896h0.258v-0.607h-0.258v-0.66l0.678,0.002c1.357,0,2.546,0.047,3.574-0.583
					c0.398-0.277,0.645-0.603,0.711-0.932c0.136-0.667-0.453-1.351-1.948-1.694C68.272,123.733,67.374,123.677,66.342,123.676
					L66.342,123.676z M64.147,124.279h0.189v2.036v0.603v0.836h-0.189v-0.836v-0.603V124.279z M65.895,124.279
					c3.08,0.052,4.268,0.894,3.671,1.645c-0.169,0.21-0.348,0.324-0.726,0.443c0.015-0.029,0.031-0.061,0.043-0.091
					c0.224-0.587-0.199-1.292-2.27-1.682c1.647,0.446,2.311,1.24,1.543,1.753c-1.307,0.095-2.262-0.414-2.262-1V124.279
					L65.895,124.279z"/>
				<path fill="#333333" d="M55.04,126.869c0,0-1.947,5.887,10.385,5.904c12.085,0.018,10.89-5.904,10.89-5.904
					s-0.269,4.864-10.688,4.864S55.04,126.869,55.04,126.869z"/>
			</g>
		</g>
		<g>
			<path fill="#FFFFFF" d="M76.305,123.359c-0.242,3.708-4.555,5.871-10.595,5.871c-6.041,0-11.179-1.737-10.876-5.871
				c0.322-4.403,4.977-4.943,11.017-4.943S76.49,120.522,76.305,123.359z"/>
			<g>
				<path fill="#333333" d="M65.554,117.808c-5.875,0-10.638,2.238-10.638,5.001c0,2.762,4.763,5,10.638,5
					c5.875,0,10.638-2.238,10.638-5C76.192,120.046,71.428,117.808,65.554,117.808z M65.554,126.867
					c-4.761,0-8.635-1.819-8.635-4.059c0-2.238,3.874-4.06,8.635-4.06c4.761,0,8.636,1.821,8.636,4.06
					C74.189,125.047,70.315,126.867,65.554,126.867z"/>
				<path fill="#60965A" d="M65.554,119.189c-4.245,0-7.697,1.624-7.697,3.62c0,1.995,3.453,3.617,7.697,3.617
					s7.698-1.622,7.698-3.617C73.251,120.813,69.798,119.189,65.554,119.189z"/>
				<path id="path4934_22_" fill="#FFFFFF" d="M66.245,120.136c-0.147,0-0.296,0.001-0.448,0.003h-1.558h-1.747v4.076h-0.305v0.607
					h0.305v0.896h1.558v-0.896h0.189v0.896h1.558v-0.896h0.258v-0.607h-0.258v-0.66l0.678,0.002c1.357,0,2.546,0.047,3.574-0.583
					c0.398-0.277,0.645-0.603,0.711-0.932c0.136-0.667-0.453-1.351-1.948-1.694C68.174,120.193,67.276,120.137,66.245,120.136
					L66.245,120.136z M64.049,120.739h0.189v2.036v0.603v0.836h-0.189v-0.836v-0.603V120.739z M65.797,120.739
					c3.08,0.052,4.268,0.894,3.671,1.645c-0.169,0.21-0.348,0.324-0.726,0.443c0.015-0.029,0.031-0.061,0.043-0.091
					c0.224-0.587-0.199-1.292-2.27-1.682c1.647,0.446,2.311,1.24,1.543,1.753c-1.307,0.095-2.262-0.414-2.262-1V120.739
					L65.797,120.739z"/>
				<path fill="#333333" d="M54.942,123.329c0,0-1.947,5.887,10.385,5.904c12.085,0.018,10.89-5.904,10.89-5.904
					s-0.269,4.864-10.688,4.864S54.942,123.329,54.942,123.329z"/>
			</g>
		</g>
		<g>
			<path fill="#FFFFFF" d="M76.498,119.975c-0.242,3.708-4.555,5.871-10.595,5.871c-6.041,0-11.179-1.737-10.876-5.871
				c0.322-4.403,4.977-4.943,11.017-4.943S76.682,117.138,76.498,119.975z"/>
			<g>
				<path fill="#333333" d="M65.746,114.423c-5.875,0-10.637,2.238-10.637,5.001c0,2.762,4.763,5,10.637,5
					c5.876,0,10.639-2.238,10.639-5C76.384,116.661,71.621,114.423,65.746,114.423z M65.746,123.482
					c-4.761,0-8.635-1.819-8.635-4.059c0-2.238,3.874-4.06,8.635-4.06c4.762,0,8.637,1.821,8.637,4.06
					C74.381,121.662,70.507,123.482,65.746,123.482z"/>
				<path fill="#60965A" d="M65.746,115.805c-4.244,0-7.697,1.624-7.697,3.62c0,1.995,3.453,3.617,7.697,3.617
					c4.245,0,7.698-1.622,7.698-3.617C73.444,117.428,69.991,115.805,65.746,115.805z"/>
				<path id="path4934_21_" fill="#FFFFFF" d="M66.437,116.751c-0.146,0-0.296,0.001-0.447,0.003h-1.559h-1.747v4.076h-0.305v0.607
					h0.305v0.896h1.558v-0.896h0.189v0.896h1.559v-0.896h0.258v-0.607H65.99v-0.66l0.678,0.002c1.357,0,2.546,0.047,3.574-0.583
					c0.398-0.277,0.645-0.603,0.711-0.932c0.136-0.667-0.453-1.351-1.948-1.694C68.367,116.809,67.468,116.752,66.437,116.751
					L66.437,116.751z M64.242,117.354h0.189v2.036v0.603v0.836h-0.189v-0.836v-0.603V117.354z M65.99,117.354
					c3.079,0.052,4.268,0.894,3.671,1.645c-0.169,0.21-0.348,0.324-0.726,0.443c0.015-0.029,0.031-0.061,0.043-0.091
					c0.224-0.587-0.199-1.292-2.27-1.682c1.646,0.446,2.311,1.24,1.543,1.753c-1.307,0.095-2.262-0.414-2.262-1V117.354
					L65.99,117.354z"/>
				<path fill="#333333" d="M55.135,119.944c0,0-1.947,5.887,10.385,5.904c12.085,0.018,10.89-5.904,10.89-5.904
					s-0.269,4.864-10.688,4.864S55.135,119.944,55.135,119.944z"/>
			</g>
		</g>
	</g>
</g>
<g>
	<path fill="#34994B" d="M132.161,163.947h26.51V87.674c0-2.955,0.09-6.062,0.271-9.319l-18.819,15.743
		c-0.785,0.665-1.583,1.117-2.398,1.357c-0.814,0.242-1.614,0.362-2.397,0.362c-1.208,0-2.307-0.256-3.303-0.77
		c-0.995-0.512-1.734-1.1-2.216-1.764l-7.058-9.681l39.901-33.929h18.367v114.274h23.524v16.738h-72.383V163.947z"/>
</g>
<g>
	<path fill="#333333" d="M99.846,208.044c-4.11-5.373-9.412-8.15-18.369-9.043c-1.617-0.326-2.835-1.758-2.835-3.459
		c0-1.247,3.996-4.976,3.968-5.003c4.125-4.266,6.336-11.199,6.336-16.527c0-8.277-6.662-14.996-14.882-14.996
		c-8.221,0-14.883,6.719-14.883,14.996c0,5.357,2.155,12.332,6.322,16.598c0,0,3.983,3.686,3.983,4.933
		c0,1.801-1.36,3.303-3.118,3.516c-8.774,0.922-14.018,3.684-18.086,8.986c-1.176,1.529-1.814,4.605-1.857,6.25
		c0.014,0.426,0,7.088,0,7.088c0,3.133,2.538,5.67,5.67,5.67h43.94c3.132,0,5.67-2.537,5.67-5.67c0,0-0.014-6.662,0-7.088
		C101.661,212.65,101.021,209.574,99.846,208.044z"/>
	<g>
		<g>
			<path fill="#FFFFFF" d="M106.573,223.744c-0.242,3.708-4.555,5.871-10.595,5.871c-6.041,0-11.179-1.737-10.876-5.871
				c0.322-4.403,4.977-4.943,11.017-4.943S106.758,220.907,106.573,223.744z"/>
			<g>
				<path fill="#333333" d="M95.821,218.192c-5.874,0-10.637,2.238-10.637,5.001c0,2.762,4.763,5,10.637,5
					c5.876,0,10.639-2.238,10.639-5C106.46,220.43,101.696,218.192,95.821,218.192z M95.821,227.251
					c-4.761,0-8.635-1.819-8.635-4.059c0-2.238,3.874-4.06,8.635-4.06c4.762,0,8.637,1.821,8.637,4.06
					C104.457,225.431,100.583,227.251,95.821,227.251z"/>
				<path fill="#60965A" d="M95.821,219.574c-4.244,0-7.697,1.624-7.697,3.62c0,1.995,3.453,3.617,7.697,3.617
					c4.245,0,7.698-1.622,7.698-3.617C103.52,221.197,100.066,219.574,95.821,219.574z"/>
				<path id="path4934_20_" fill="#FFFFFF" d="M96.513,220.52c-0.146,0-0.296,0.001-0.447,0.003h-1.559H92.76v4.076h-0.305v0.607
					h0.305v0.896h1.558v-0.896h0.189v0.896h1.559v-0.896h0.258v-0.607h-0.258v-0.66l0.678,0.002c1.357,0,2.546,0.047,3.574-0.583
					c0.398-0.277,0.645-0.603,0.711-0.932c0.136-0.667-0.453-1.351-1.948-1.694C98.442,220.578,97.544,220.521,96.513,220.52
					L96.513,220.52z M94.317,221.124h0.189v2.036v0.603v0.836h-0.189v-0.836v-0.603V221.124z M96.065,221.124
					c3.079,0.052,4.268,0.894,3.671,1.645c-0.169,0.21-0.348,0.324-0.726,0.443c0.015-0.029,0.031-0.061,0.043-0.091
					c0.224-0.587-0.199-1.292-2.27-1.682c1.646,0.446,2.311,1.24,1.543,1.753c-1.307,0.095-2.262-0.414-2.262-1V221.124
					L96.065,221.124z"/>
				<path fill="#333333" d="M85.21,223.713c0,0-1.947,5.887,10.385,5.904c12.085,0.018,10.89-5.904,10.89-5.904
					s-0.269,4.864-10.688,4.864S85.21,223.713,85.21,223.713z"/>
			</g>
		</g>
		<g>
			<path fill="#FFFFFF" d="M106.485,220.675c-0.242,3.708-4.555,5.871-10.595,5.871c-6.041,0-11.179-1.737-10.876-5.871
				c0.322-4.403,4.977-4.943,11.017-4.943S106.67,217.838,106.485,220.675z"/>
			<g>
				<path fill="#333333" d="M95.733,215.124c-5.874,0-10.637,2.238-10.637,5.001c0,2.762,4.763,5,10.637,5
					c5.876,0,10.639-2.238,10.639-5C106.372,217.362,101.608,215.124,95.733,215.124z M95.733,224.183
					c-4.761,0-8.635-1.819-8.635-4.059c0-2.238,3.874-4.06,8.635-4.06c4.762,0,8.637,1.821,8.637,4.06
					C104.369,222.363,100.495,224.183,95.733,224.183z"/>
				<path fill="#60965A" d="M95.733,216.505c-4.244,0-7.697,1.624-7.697,3.62c0,1.995,3.453,3.617,7.697,3.617
					c4.245,0,7.698-1.622,7.698-3.617C103.432,218.128,99.979,216.505,95.733,216.505z"/>
				<path id="path4934_19_" fill="#FFFFFF" d="M96.425,217.452c-0.146,0-0.296,0.001-0.447,0.003h-1.559h-1.747v4.076h-0.305v0.607
					h0.305v0.896h1.558v-0.896h0.189v0.896h1.559v-0.896h0.258v-0.607h-0.258v-0.66l0.678,0.002c1.357,0,2.546,0.047,3.574-0.583
					c0.398-0.277,0.645-0.603,0.711-0.932c0.136-0.667-0.453-1.351-1.948-1.694C98.354,217.509,97.456,217.453,96.425,217.452
					L96.425,217.452z M94.229,218.055h0.189v2.036v0.603v0.836h-0.189v-0.836v-0.603V218.055z M95.978,218.055
					c3.079,0.052,4.268,0.894,3.671,1.645c-0.169,0.21-0.348,0.324-0.726,0.443c0.015-0.029,0.031-0.061,0.043-0.091
					c0.224-0.587-0.199-1.292-2.27-1.682c1.646,0.446,2.311,1.24,1.543,1.753c-1.307,0.095-2.262-0.414-2.262-1V218.055
					L95.978,218.055z"/>
				<path fill="#333333" d="M85.123,220.645c0,0-1.947,5.887,10.385,5.904c12.085,0.018,10.89-5.904,10.89-5.904
					s-0.269,4.864-10.688,4.864S85.123,220.645,85.123,220.645z"/>
			</g>
		</g>
	</g>
</g>
<g>
	<path fill="#333333" d="M316.375,115.56c-4.111-5.373-9.412-8.15-18.369-9.043c-1.617-0.326-2.836-1.758-2.836-3.459
		c0-1.247,3.996-4.975,3.969-5.002c4.125-4.266,6.336-11.199,6.336-16.527c0-8.277-6.662-14.996-14.883-14.996
		s-14.883,6.719-14.883,14.996c0,5.357,2.154,12.332,6.322,16.598c0,0,3.982,3.686,3.982,4.932c0,1.801-1.361,3.303-3.119,3.516
		c-8.773,0.922-14.018,3.684-18.086,8.986c-1.176,1.529-1.814,4.605-1.856,6.25c0.015,0.426,0,7.088,0,7.088
		c0,3.133,2.538,5.67,5.669,5.67h43.941c3.131,0,5.67-2.537,5.67-5.67c0,0-0.014-6.662,0-7.088
		C318.19,120.165,317.551,117.089,316.375,115.56z"/>
	<g>
		<path fill="#FFFFFF" d="M324.882,131.397c-0.242,3.708-4.555,5.871-10.595,5.871s-11.179-1.737-10.876-5.871
			c0.321-4.403,4.977-4.943,11.017-4.943S325.067,128.561,324.882,131.397z"/>
		<g>
			<path fill="#333333" d="M314.13,125.846c-5.875,0-10.637,2.238-10.637,5.001c0,2.762,4.762,5,10.637,5
				c5.876,0,10.639-2.238,10.639-5C324.769,128.084,320.005,125.846,314.13,125.846z M314.13,134.905
				c-4.761,0-8.635-1.819-8.635-4.059c0-2.238,3.873-4.06,8.635-4.06s8.637,1.821,8.637,4.06
				C322.766,133.085,318.892,134.905,314.13,134.905z"/>
			<path fill="#60965A" d="M314.13,127.228c-4.244,0-7.697,1.624-7.697,3.62c0,1.995,3.453,3.617,7.697,3.617
				c4.245,0,7.698-1.622,7.698-3.617C321.829,128.851,318.375,127.228,314.13,127.228z"/>
			<path id="path4934_27_" fill="#FFFFFF" d="M314.822,128.174c-0.146,0-0.296,0.001-0.447,0.003h-1.559h-1.747v4.076h-0.305v0.607
				h0.305v0.896h1.558v-0.896h0.189v0.896h1.559v-0.896h0.258v-0.607h-0.258v-0.66l0.678,0.002c1.357,0,2.546,0.047,3.574-0.583
				c0.398-0.277,0.645-0.603,0.711-0.932c0.136-0.667-0.453-1.351-1.948-1.694C316.751,128.231,315.853,128.175,314.822,128.174
				L314.822,128.174z M312.626,128.777h0.189v2.036v0.603v0.836h-0.189v-0.836v-0.603V128.777z M314.375,128.777
				c3.079,0.052,4.268,0.894,3.671,1.645c-0.169,0.21-0.348,0.324-0.726,0.443c0.015-0.029,0.031-0.061,0.043-0.091
				c0.224-0.587-0.199-1.292-2.27-1.682c1.646,0.446,2.311,1.24,1.543,1.753c-1.307,0.095-2.262-0.414-2.262-1V128.777
				L314.375,128.777z"/>
			<path fill="#333333" d="M303.519,131.367c0,0-1.946,5.887,10.386,5.904c12.085,0.018,10.89-5.904,10.89-5.904
				s-0.269,4.864-10.688,4.864S303.519,131.367,303.519,131.367z"/>
		</g>
	</g>
</g>
<path fill="#FDFEFF" stroke="#36994B" stroke-width="3" stroke-miterlimit="10" d="M313.138,47.382l14.91,21.364
	c0,0-155.25-87.5-322.186-1.233l10.936-22.517L3.018,35.37c0,0,169.03-76.624,323.564,0.626L313.138,47.382z"/>
<g>
	<path fill="none" d="M26.548,51.247c0,0,127-62.5,278.5,0"/>
	<path fill="#32984A" d="M81.819,32.94l-2.417,0.622c-0.271,0.07-0.511,0.059-0.721-0.032c-0.209-0.09-0.378-0.227-0.507-0.408
		l-2.137-3.106l-6.961,1.791l-0.374,3.751c-0.016,0.194-0.096,0.389-0.24,0.583c-0.145,0.194-0.348,0.325-0.612,0.393l-2.429,0.625
		L67.7,18.655l3.196-0.822L81.819,32.94z M69.309,29.392l5.358-1.378l-3.483-5.064c-0.157-0.224-0.335-0.49-0.534-0.798
		c-0.199-0.308-0.404-0.646-0.614-1.013c-0.007,0.423-0.019,0.818-0.036,1.186c-0.017,0.368-0.043,0.692-0.078,0.974L69.309,29.392z
		"/>
	<path fill="#32984A" d="M81.876,15.221c0.096-0.008,0.185-0.001,0.267,0.019c0.082,0.02,0.165,0.056,0.249,0.108
		c0.084,0.052,0.181,0.124,0.29,0.216l11.266,9.522c-0.088-0.268-0.165-0.531-0.231-0.792s-0.122-0.503-0.169-0.731l-2.133-10.33
		l2.785-0.575l3.508,16.994l-1.633,0.337c-0.251,0.052-0.466,0.056-0.647,0.011s-0.371-0.152-0.569-0.324l-11.221-9.483
		c0.075,0.246,0.144,0.491,0.207,0.735c0.063,0.244,0.115,0.468,0.157,0.672l2.154,10.436l-2.785,0.575l-3.508-16.994l1.657-0.342
		C81.661,15.247,81.779,15.229,81.876,15.221z"/>
	<path fill="#32984A" d="M100.307,11.621c0.097-0.003,0.186,0.007,0.266,0.031s0.162,0.064,0.244,0.12
		c0.082,0.056,0.174,0.133,0.279,0.23l10.791,10.058c-0.075-0.271-0.139-0.539-0.192-0.802c-0.053-0.263-0.098-0.509-0.133-0.738
		l-1.629-10.421l2.81-0.439l2.681,17.144l-1.648,0.258c-0.253,0.04-0.469,0.033-0.647-0.021c-0.178-0.053-0.363-0.17-0.553-0.351
		l-10.749-10.016c0.063,0.25,0.121,0.498,0.171,0.745s0.092,0.474,0.125,0.679l1.646,10.528l-2.81,0.439l-2.68-17.144l1.671-0.261
		C100.091,11.636,100.21,11.624,100.307,11.621z"/>
	<path fill="#32984A" d="M125.36,23.037c0.621-0.067,1.164-0.23,1.631-0.491c0.467-0.26,0.849-0.595,1.146-1.005
		c0.297-0.411,0.507-0.892,0.628-1.444c0.121-0.552,0.146-1.158,0.075-1.818l-1.119-10.332l3.209-0.348l1.118,10.332
		c0.111,1.026,0.049,1.993-0.187,2.899c-0.236,0.907-0.629,1.71-1.182,2.409c-0.552,0.7-1.25,1.274-2.095,1.724
		c-0.844,0.449-1.819,0.734-2.925,0.854c-1.106,0.12-2.119,0.05-3.04-0.208c-0.921-0.258-1.725-0.67-2.409-1.236
		c-0.685-0.565-1.24-1.266-1.664-2.101c-0.425-0.835-0.692-1.766-0.803-2.792l-1.119-10.332l3.209-0.347l1.117,10.32
		c0.071,0.66,0.226,1.247,0.462,1.76c0.237,0.514,0.542,0.941,0.917,1.283c0.375,0.342,0.818,0.589,1.33,0.743
		C124.174,23.061,124.74,23.104,125.36,23.037z"/>
	<path fill="#32984A" d="M150.492,23.678l-2.491,0.159c-0.279,0.018-0.513-0.037-0.702-0.166s-0.33-0.293-0.422-0.496l-1.519-3.451
		l-7.173,0.457l-1.068,3.615c-0.052,0.188-0.167,0.363-0.345,0.527c-0.178,0.164-0.403,0.254-0.674,0.271l-2.503,0.16l5.699-17.75
		l3.293-0.209L150.492,23.678z M138.866,17.853l5.521-0.352l-2.475-5.626c-0.112-0.25-0.237-0.544-0.375-0.884
		c-0.138-0.34-0.276-0.71-0.414-1.11c-0.086,0.415-0.171,0.801-0.257,1.159c-0.085,0.358-0.172,0.672-0.258,0.942L138.866,17.853z"
		/>
	<path fill="#32984A" d="M155.293,20.943l6.946-0.168l0.064,2.663l-10.173,0.247l-0.42-17.347l3.227-0.079L155.293,20.943z"/>
	<path fill="#32984A" d="M172.464,16.744l-0.176,6.778l-3.227-0.084l0.452-17.346l5.29,0.138c1.184,0.031,2.194,0.179,3.031,0.445
		c0.837,0.266,1.521,0.625,2.049,1.08c0.528,0.454,0.911,0.99,1.146,1.608c0.236,0.618,0.344,1.295,0.325,2.031
		c-0.015,0.583-0.116,1.133-0.301,1.648c-0.186,0.516-0.446,0.981-0.781,1.396c-0.335,0.416-0.745,0.777-1.229,1.084
		c-0.484,0.308-1.033,0.549-1.646,0.726c0.402,0.243,0.745,0.583,1.03,1.023l4.176,6.519l-2.903-0.076
		c-0.28-0.007-0.517-0.069-0.709-0.187c-0.193-0.117-0.355-0.281-0.485-0.493l-3.502-5.649c-0.13-0.211-0.277-0.363-0.438-0.456
		c-0.162-0.092-0.403-0.143-0.723-0.151L172.464,16.744z M172.524,14.429l2.016,0.052c0.607,0.016,1.139-0.046,1.595-0.187
		c0.456-0.14,0.833-0.34,1.132-0.601s0.525-0.573,0.679-0.937c0.154-0.364,0.236-0.766,0.248-1.206
		c0.023-0.88-0.25-1.563-0.817-2.05c-0.568-0.487-1.447-0.746-2.639-0.777l-2.063-0.054L172.524,14.429z"/>
	<path fill="#32984A" d="M196.562,7.331l-0.169,2.563l-7.675-0.506l-0.317,4.801l6.047,0.399l-0.164,2.479l-6.047-0.399
		l-0.323,4.897l7.675,0.507l-0.17,2.574l-10.92-0.721l1.143-17.314L196.562,7.331z"/>
	<path fill="#32984A" d="M198.456,7.331l2.693,0.321c0.278,0.033,0.502,0.126,0.674,0.28c0.171,0.153,0.275,0.345,0.312,0.575
		l1.701,10.657c0.042,0.263,0.074,0.546,0.098,0.852c0.024,0.305,0.044,0.627,0.06,0.968c0.104-0.326,0.21-0.633,0.322-0.922
		c0.111-0.289,0.225-0.555,0.343-0.799l4.614-9.903c0.085-0.175,0.23-0.327,0.435-0.456c0.205-0.128,0.442-0.177,0.712-0.145
		l0.941,0.112c0.278,0.033,0.5,0.126,0.667,0.279s0.273,0.345,0.318,0.576l2.13,10.708c0.114,0.529,0.198,1.111,0.251,1.746
		c0.092-0.303,0.186-0.594,0.279-0.873s0.187-0.538,0.28-0.776l4.161-9.957c0.08-0.192,0.223-0.348,0.431-0.468
		s0.447-0.165,0.717-0.132l2.514,0.3l-7.406,16.591l-2.896-0.346l-2.361-12.222c-0.03-0.156-0.06-0.325-0.09-0.506
		c-0.031-0.181-0.059-0.373-0.083-0.578c-0.071,0.193-0.143,0.374-0.216,0.542c-0.072,0.168-0.142,0.326-0.207,0.471l-5.206,11.319
		l-2.896-0.346L198.456,7.331z"/>
	<path fill="#32984A" d="M236.316,30.308l-2.459-0.428c-0.276-0.048-0.491-0.157-0.644-0.325c-0.153-0.169-0.251-0.363-0.294-0.582
		l-0.669-3.709l-7.082-1.234l-1.884,3.265c-0.095,0.17-0.248,0.314-0.459,0.432c-0.211,0.118-0.451,0.153-0.719,0.106l-2.471-0.431
		l9.693-15.925l3.251,0.566L236.316,30.308z M226.375,21.925l5.45,0.949l-1.09-6.049c-0.051-0.269-0.103-0.584-0.158-0.947
		s-0.102-0.755-0.142-1.176c-0.181,0.383-0.354,0.738-0.521,1.067c-0.167,0.328-0.324,0.613-0.472,0.855L226.375,21.925z"/>
	<path fill="#32984A" d="M242.593,24.768l-1.461,6.621l-3.152-0.695l3.739-16.945l5.167,1.141c1.156,0.255,2.12,0.593,2.892,1.013
		c0.771,0.42,1.374,0.903,1.806,1.449s0.706,1.145,0.82,1.797s0.092,1.337-0.066,2.056c-0.126,0.57-0.329,1.091-0.609,1.561
		c-0.28,0.471-0.624,0.878-1.032,1.223s-0.878,0.622-1.412,0.831c-0.534,0.21-1.119,0.343-1.753,0.4
		c0.349,0.314,0.621,0.714,0.816,1.2l2.861,7.193l-2.835-0.626c-0.273-0.06-0.494-0.166-0.661-0.318
		c-0.167-0.151-0.295-0.343-0.383-0.576l-2.365-6.211c-0.088-0.232-0.203-0.409-0.344-0.531c-0.142-0.121-0.368-0.216-0.681-0.285
		L242.593,24.768z M243.092,22.506l1.969,0.435c0.594,0.131,1.127,0.171,1.602,0.12c0.474-0.051,0.883-0.176,1.226-0.375
		s0.625-0.462,0.844-0.791c0.22-0.328,0.377-0.707,0.472-1.137c0.189-0.859,0.052-1.582-0.413-2.168
		c-0.465-0.586-1.279-1.007-2.443-1.264l-2.016-0.444L243.092,22.506z"/>
	<path fill="#32984A" d="M270.156,29.69c-0.331,1.229-0.839,2.301-1.525,3.218c-0.686,0.917-1.5,1.647-2.44,2.189
		c-0.941,0.542-1.989,0.877-3.142,1.006c-1.153,0.129-2.363,0.022-3.63-0.318l-6.396-1.722l4.509-16.755l6.396,1.721
		c1.267,0.341,2.366,0.859,3.298,1.553s1.669,1.51,2.212,2.447c0.543,0.938,0.881,1.975,1.014,3.112
		C270.585,27.279,270.487,28.462,270.156,29.69z M266.97,28.833c0.247-0.919,0.346-1.777,0.295-2.574
		c-0.051-0.797-0.236-1.509-0.556-2.138c-0.32-0.629-0.77-1.166-1.349-1.612c-0.581-0.446-1.28-0.779-2.099-1l-3.256-0.876
		l-3.175,11.796l3.256,0.876c0.819,0.22,1.591,0.283,2.317,0.188s1.384-0.334,1.976-0.717s1.11-0.907,1.554-1.57
		C266.376,30.543,266.722,29.752,266.97,28.833z"/>
</g>
<g>
	<path fill="#A3A2A2" d="M197.714,140.991c0,0.984-0.165,1.872-0.495,2.664s-0.771,1.467-1.323,2.025
		c-0.552,0.558-1.194,0.987-1.926,1.287s-1.494,0.45-2.286,0.45c-0.864,0-1.662-0.15-2.394-0.45c-0.732-0.3-1.365-0.729-1.899-1.287
		c-0.534-0.558-0.951-1.233-1.251-2.025s-0.45-1.68-0.45-2.664c0-1.008,0.15-1.92,0.45-2.736s0.717-1.506,1.251-2.07
		c0.534-0.564,1.167-0.999,1.899-1.305c0.731-0.306,1.53-0.459,2.394-0.459c0.864,0,1.665,0.153,2.403,0.459
		c0.738,0.306,1.377,0.741,1.917,1.305c0.54,0.564,0.96,1.254,1.26,2.07S197.714,139.983,197.714,140.991z M206.372,135.393
		c0.144-0.18,0.324-0.342,0.54-0.486c0.216-0.144,0.516-0.216,0.9-0.216h3.222l-19.332,25.362c-0.144,0.192-0.327,0.351-0.549,0.477
		c-0.222,0.126-0.489,0.189-0.801,0.189h-3.312L206.372,135.393z M194.276,140.991c0-0.696-0.066-1.278-0.198-1.746
		c-0.132-0.468-0.315-0.846-0.549-1.134s-0.51-0.495-0.828-0.621s-0.657-0.189-1.017-0.189c-0.36,0-0.696,0.063-1.008,0.189
		s-0.582,0.333-0.81,0.621s-0.405,0.666-0.531,1.134c-0.126,0.468-0.189,1.05-0.189,1.746c0,0.672,0.063,1.233,0.189,1.683
		c0.126,0.45,0.303,0.813,0.531,1.089c0.228,0.276,0.498,0.474,0.81,0.594s0.648,0.18,1.008,0.18c0.36,0,0.699-0.06,1.017-0.18
		s0.594-0.318,0.828-0.594c0.234-0.276,0.417-0.639,0.549-1.089C194.21,142.224,194.276,141.663,194.276,140.991z M212.402,154.599
		c0,0.984-0.165,1.872-0.495,2.664s-0.771,1.467-1.323,2.025c-0.552,0.558-1.194,0.99-1.926,1.296
		c-0.732,0.306-1.494,0.459-2.286,0.459c-0.864,0-1.662-0.153-2.394-0.459c-0.732-0.306-1.365-0.738-1.899-1.296
		c-0.534-0.558-0.951-1.233-1.251-2.025s-0.45-1.68-0.45-2.664c0-1.008,0.15-1.92,0.45-2.736s0.717-1.506,1.251-2.07
		c0.534-0.564,1.167-0.999,1.899-1.305c0.731-0.306,1.53-0.459,2.394-0.459c0.864,0,1.665,0.153,2.403,0.459
		c0.738,0.306,1.377,0.741,1.917,1.305s0.96,1.254,1.26,2.07S212.402,153.591,212.402,154.599z M208.982,154.599
		c0-0.696-0.069-1.278-0.207-1.746c-0.138-0.468-0.324-0.846-0.558-1.134s-0.51-0.495-0.828-0.621s-0.657-0.189-1.017-0.189
		c-0.36,0-0.696,0.063-1.008,0.189s-0.579,0.333-0.801,0.621c-0.222,0.288-0.399,0.666-0.531,1.134
		c-0.132,0.468-0.198,1.05-0.198,1.746c0,0.672,0.065,1.236,0.198,1.692c0.132,0.457,0.309,0.822,0.531,1.098
		c0.222,0.276,0.489,0.474,0.801,0.594s0.648,0.18,1.008,0.18c0.36,0,0.699-0.06,1.017-0.18s0.594-0.318,0.828-0.594
		c0.234-0.276,0.42-0.642,0.558-1.098C208.913,155.835,208.982,155.271,208.982,154.599z"/>
</g>
<g>
</g>
<g>
</g>
<g>
</g>
<g>
</g>
<g>
</g>
<g>
</g>
</svg>
