<?xml version="1.0" encoding="utf-8"?>
<!-- Generator: Adobe Illustrator 16.0.0, SVG Export Plug-In . SVG Version: 6.00 Build 0)  -->
<!DOCTYPE svg PUBLIC "-//W3C//DTD SVG 1.1 Tiny//EN" "http://www.w3.org/Graphics/SVG/1.1/DTD/svg11-tiny.dtd">
<svg version="1.1" baseProfile="tiny" id="Layer_1" xmlns="http://www.w3.org/2000/svg" xmlns:xlink="http://www.w3.org/1999/xlink"
	 x="0px" y="0px" viewBox="141.621 41.62 499.666 328.962" xml:space="preserve">
<g>
	<circle fill="#F1F2F2" stroke="#F1F2F2" stroke-miterlimit="10" cx="171.982" cy="131.703" r="29.861"/>
	<circle fill="#F1F2F2" stroke="#F1F2F2" stroke-miterlimit="10" cx="386.389" cy="79.11" r="29.861"/>
	<circle fill="#F1F2F2" stroke="#F1F2F2" stroke-miterlimit="10" cx="326.667" cy="202.722" r="29.861"/>
	<circle fill="#F1F2F2" stroke="#F1F2F2" stroke-miterlimit="10" cx="503.982" cy="196.703" r="29.861"/>
	<circle fill="#F1F2F2" stroke="#F1F2F2" stroke-miterlimit="10" cx="610.927" cy="71.981" r="29.861"/>
	<circle fill="#F1F2F2" stroke="#F1F2F2" stroke-miterlimit="10" cx="492.408" cy="340.221" r="29.861"/>
	<circle fill="#F1F2F2" stroke="#F1F2F2" stroke-miterlimit="10" cx="238.704" cy="299.944" r="29.861"/>
	<g>
		<line fill="none" x1="201.843" y1="118.046" x2="353.695" y2="86.102"/>
		<g>
			
				<line fill="none" stroke="#F1F2F2" stroke-width="3" stroke-linecap="square" stroke-miterlimit="10" x1="201.843" y1="118.046" x2="207.714" y2="116.811"/>
			
				<line fill="none" stroke="#F1F2F2" stroke-width="3" stroke-linecap="square" stroke-miterlimit="10" stroke-dasharray="11.4541,5.727" x1="213.319" y1="115.632" x2="345.021" y2="87.926"/>
			
				<line fill="none" stroke="#F1F2F2" stroke-width="3" stroke-linecap="square" stroke-miterlimit="10" x1="347.823" y1="87.337" x2="353.695" y2="86.102"/>
		</g>
	</g>
	
		<line fill="none" stroke="#F1F2F2" stroke-width="3" stroke-linecap="square" stroke-miterlimit="10" stroke-dasharray="12,6" x1="201.843" y1="148.602" x2="296.806" y2="185.639"/>
	
		<line fill="none" stroke="#F1F2F2" stroke-width="3" stroke-linecap="square" stroke-miterlimit="10" stroke-dasharray="12,6" x1="176.843" y1="166.842" x2="220.824" y2="270.083"/>
	
		<line fill="none" stroke="#F1F2F2" stroke-width="3" stroke-linecap="square" stroke-miterlimit="10" stroke-dasharray="12,6" x1="261.565" y1="274.527" x2="301.843" y2="228.694"/>
	
		<line fill="none" stroke="#F1F2F2" stroke-width="3" stroke-linecap="square" stroke-miterlimit="10" stroke-dasharray="12,6" x1="271.287" y1="310.36" x2="459.25" y2="332.397"/>
	
		<line fill="none" stroke="#F1F2F2" stroke-width="3" stroke-linecap="square" stroke-miterlimit="10" stroke-dasharray="12,6" x1="271.287" y1="288.416" x2="474.121" y2="214.806"/>
	
		<line fill="none" stroke="#F1F2F2" stroke-width="3" stroke-linecap="square" stroke-miterlimit="10" stroke-dasharray="12,6" x1="268.565" y1="279.62" x2="581.064" y2="92.583"/>
	
		<line fill="none" stroke="#F1F2F2" stroke-width="3" stroke-linecap="square" stroke-miterlimit="10" stroke-dasharray="12,6" x1="208.843" y1="131.703" x2="581.064" y2="88.879"/>
	
		<line fill="none" stroke="#F1F2F2" stroke-width="3" stroke-linecap="square" stroke-miterlimit="10" stroke-dasharray="12,6" x1="420.361" y1="79.11" x2="576.844" y2="71.981"/>
	
		<line fill="none" stroke="#F1F2F2" stroke-width="3" stroke-linecap="square" stroke-miterlimit="10" stroke-dasharray="12,6" x1="601.844" y1="102.074" x2="531.473" y2="174.99"/>
	
		<line fill="none" stroke="#F1F2F2" stroke-width="3" stroke-linecap="square" stroke-miterlimit="10" stroke-dasharray="12,6" x1="496.75" y1="306.472" x2="503.982" y2="232.583"/>
	
		<line fill="none" stroke="#F1F2F2" stroke-width="3" stroke-linecap="square" stroke-miterlimit="10" stroke-dasharray="12,6" x1="470.824" y1="310.36" x2="353.695" y2="228.694"/>
	
		<line fill="none" stroke="#F1F2F2" stroke-width="3" stroke-linecap="square" stroke-miterlimit="10" stroke-dasharray="12,6" x1="478.226" y1="181.585" x2="406.424" y2="108.972"/>
	
		<line fill="none" stroke="#F1F2F2" stroke-width="3" stroke-linecap="square" stroke-miterlimit="10" stroke-dasharray="12,6" x1="480.085" y1="306.472" x2="394.954" y2="110.291"/>
	
		<line fill="none" stroke="#F1F2F2" stroke-width="3" stroke-linecap="square" stroke-miterlimit="10" stroke-dasharray="12,6" x1="334.713" y1="170.361" x2="370.824" y2="108.972"/>
	
		<line fill="none" stroke="#F1F2F2" stroke-width="3" stroke-linecap="square" stroke-miterlimit="10" stroke-dasharray="12,6" x1="610.927" y1="105.083" x2="513.881" y2="312.49"/>
</g>
<g id="Livello_1_1_">
</g>
<g>
	<circle fill="#35994B" cx="384.296" cy="190.704" r="59.028"/>
	<g id="Livello_113">
		<path fill="#FFFFFF" d="M398.366,165.341v14.193h-28.145v-14.193c0-7.771,6.302-14.073,14.073-14.073
			C392.066,151.267,398.366,157.568,398.366,165.341 M378.65,197.094c0-3.118,2.528-5.646,5.645-5.646
			c3.118,0,5.645,2.527,5.645,5.646c0,2.405-1.508,4.453-3.629,5.269v18.115h-4.032v-18.115
			C380.158,201.548,378.65,199.499,378.65,197.094 M414.898,229.609L414.898,229.609v-47.292l0,0c0-0.002,0-0.005,0-0.007
			c0-1.534-1.243-2.775-2.777-2.775c-0.003,0-0.005,0.001-0.008,0.001v-0.001h-7.491v-14.192c0-11.228-9.102-20.328-20.327-20.328
			c-11.227,0-20.328,9.101-20.328,20.328v14.193h-7.492l0,0c-0.002,0-0.005,0-0.009,0c-1.532,0-2.774,1.241-2.774,2.775
			c0,0.002,0,0.005,0,0.007l0,0v47.292l0,0c0,0.005,0,0.008,0,0.01c0,1.53,1.243,2.774,2.775,2.774c0.003,0,0.006,0,0.008,0l0,0
			h55.641l0,0c0.002,0,0.005,0,0.007,0c1.532,0,2.777-1.242,2.777-2.774C414.898,229.615,414.898,229.612,414.898,229.609"/>
	</g>
	<g>
		<path fill="#FDFDFE" stroke="#35994B" stroke-width="3" stroke-miterlimit="10" d="M463.26,258.407
			c-76.391,38.01-156.945,1.852-156.945,1.852l18.519-8.797l-5.093-19.445c74.074,25.928,129.631,0.926,129.631,0.926l-4.168,19.029
			L463.26,258.407z"/>
		<g>
			<path fill="#35994B" d="M350.022,250.508c-0.132,0.156-0.267,0.257-0.401,0.302c-0.135,0.044-0.284,0.047-0.446,0.008
				c-0.161-0.039-0.329-0.146-0.501-0.319c-0.172-0.176-0.378-0.372-0.615-0.594c-0.238-0.221-0.527-0.438-0.865-0.652
				s-0.759-0.383-1.261-0.504c-0.454-0.11-0.863-0.15-1.227-0.123s-0.683,0.111-0.961,0.251c-0.278,0.139-0.507,0.33-0.686,0.574
				c-0.18,0.243-0.309,0.527-0.387,0.853c-0.1,0.413-0.067,0.786,0.098,1.117s0.414,0.641,0.748,0.927
				c0.334,0.287,0.726,0.565,1.175,0.837c0.449,0.272,0.906,0.557,1.371,0.854c0.464,0.297,0.912,0.618,1.342,0.968
				c0.43,0.349,0.793,0.745,1.089,1.188c0.296,0.445,0.498,0.95,0.605,1.518c0.106,0.566,0.072,1.215-0.104,1.943
				c-0.191,0.796-0.507,1.506-0.946,2.134c-0.438,0.627-0.981,1.136-1.629,1.522c-0.646,0.39-1.383,0.641-2.208,0.754
				s-1.725,0.054-2.696-0.183c-0.56-0.135-1.098-0.322-1.614-0.563c-0.518-0.239-1-0.521-1.449-0.846
				c-0.45-0.322-0.856-0.679-1.222-1.067c-0.365-0.388-0.676-0.798-0.933-1.229l1.328-1.34c0.116-0.092,0.247-0.161,0.392-0.207
				c0.144-0.047,0.293-0.052,0.446-0.016c0.203,0.05,0.401,0.187,0.597,0.408c0.194,0.223,0.428,0.476,0.698,0.754
				c0.271,0.28,0.604,0.557,0.997,0.827c0.395,0.271,0.896,0.479,1.502,0.626c0.933,0.227,1.707,0.18,2.324-0.14
				s1.026-0.892,1.227-1.718c0.111-0.462,0.087-0.866-0.073-1.214c-0.16-0.349-0.407-0.667-0.74-0.958
				c-0.333-0.29-0.726-0.563-1.179-0.818c-0.453-0.256-0.911-0.525-1.375-0.81c-0.464-0.283-0.911-0.598-1.342-0.941
				c-0.433-0.344-0.794-0.745-1.086-1.201c-0.293-0.457-0.489-0.987-0.587-1.59c-0.1-0.604-0.053-1.306,0.143-2.108
				c0.154-0.64,0.433-1.232,0.835-1.778c0.402-0.547,0.905-0.996,1.509-1.349c0.604-0.352,1.297-0.583,2.079-0.693
				c0.782-0.111,1.63-0.058,2.546,0.165c1.038,0.251,1.955,0.644,2.752,1.18s1.434,1.17,1.908,1.902L350.022,250.508z"/>
			<path fill="#35994B" d="M365.204,249.853l-0.442,2.641l-7.907-1.325l-0.829,4.945l6.229,1.046l-0.428,2.554l-6.229-1.045
				l-0.847,5.046l7.908,1.325l-0.445,2.651l-11.25-1.886l2.99-17.838L365.204,249.853z"/>
			<path fill="#35994B" d="M378.76,265.006c0.183,0.016,0.335,0.1,0.455,0.252l1.199,1.546c-0.809,0.844-1.767,1.461-2.876,1.852
				c-1.108,0.392-2.411,0.522-3.907,0.396c-1.338-0.114-2.521-0.444-3.549-0.993c-1.028-0.548-1.887-1.261-2.573-2.14
				c-0.686-0.879-1.183-1.9-1.489-3.064c-0.308-1.165-0.403-2.416-0.289-3.754c0.116-1.354,0.446-2.575,0.99-3.662
				c0.545-1.088,1.259-2.004,2.143-2.749s1.912-1.295,3.085-1.65c1.173-0.356,2.445-0.477,3.815-0.358
				c1.338,0.113,2.488,0.428,3.453,0.94c0.966,0.514,1.774,1.152,2.43,1.921l-1.254,1.462c-0.075,0.095-0.168,0.174-0.278,0.24
				c-0.11,0.064-0.257,0.091-0.439,0.074c-0.19-0.016-0.38-0.106-0.566-0.273c-0.188-0.166-0.426-0.351-0.719-0.551
				c-0.292-0.2-0.667-0.396-1.124-0.585c-0.457-0.189-1.046-0.315-1.77-0.378c-0.848-0.071-1.639,0.01-2.375,0.243
				c-0.735,0.234-1.382,0.604-1.939,1.108c-0.559,0.505-1.015,1.138-1.367,1.897c-0.354,0.761-0.572,1.633-0.656,2.612
				c-0.086,1.015-0.02,1.927,0.199,2.741c0.219,0.813,0.551,1.512,0.995,2.093c0.443,0.582,0.985,1.045,1.626,1.388
				c0.641,0.345,1.343,0.549,2.106,0.613c0.457,0.039,0.872,0.049,1.246,0.031c0.374-0.02,0.723-0.068,1.042-0.15
				c0.321-0.081,0.627-0.194,0.92-0.342c0.293-0.146,0.587-0.333,0.882-0.559c0.09-0.067,0.183-0.12,0.277-0.158
				C378.55,265.011,378.652,264.996,378.76,265.006z"/>
			<path fill="#35994B" d="M391.122,266.695c0.65-0.011,1.23-0.13,1.739-0.354c0.509-0.227,0.937-0.538,1.285-0.937
				c0.348-0.397,0.609-0.878,0.788-1.439c0.178-0.563,0.261-1.188,0.249-1.881l-0.19-10.831l3.364-0.06l0.189,10.831
				c0.02,1.075-0.137,2.072-0.467,2.991s-0.813,1.716-1.453,2.391c-0.639,0.675-1.417,1.205-2.336,1.593s-1.958,0.591-3.117,0.61
				c-1.158,0.021-2.204-0.146-3.137-0.501c-0.932-0.354-1.727-0.857-2.384-1.51c-0.658-0.651-1.168-1.431-1.53-2.338
				c-0.361-0.906-0.553-1.898-0.571-2.974l-0.19-10.83l3.364-0.061l0.189,10.818c0.013,0.691,0.117,1.314,0.314,1.871
				c0.197,0.556,0.475,1.027,0.832,1.418c0.356,0.39,0.794,0.688,1.311,0.896C389.889,266.607,390.471,266.707,391.122,266.695z"/>
			<path fill="#35994B" d="M405.896,261.392l0.973,7l-3.333,0.463l-2.488-17.915l5.464-0.759c1.223-0.17,2.286-0.188,3.192-0.059
				s1.67,0.385,2.29,0.762c0.621,0.377,1.105,0.863,1.453,1.459s0.575,1.273,0.681,2.033c0.083,0.604,0.073,1.186-0.028,1.747
				c-0.104,0.562-0.291,1.084-0.565,1.567c-0.272,0.484-0.633,0.927-1.079,1.324c-0.445,0.398-0.968,0.741-1.567,1.026
				c0.454,0.181,0.864,0.474,1.232,0.877l5.403,5.993l-2.998,0.416c-0.289,0.04-0.543,0.017-0.762-0.071
				c-0.219-0.087-0.412-0.229-0.582-0.424l-4.563-5.213c-0.17-0.195-0.347-0.327-0.528-0.396c-0.181-0.068-0.438-0.078-0.769-0.032
				L405.896,261.392z M405.564,259l2.081-0.289c0.628-0.087,1.164-0.241,1.608-0.463c0.444-0.223,0.8-0.492,1.063-0.812
				c0.264-0.317,0.442-0.678,0.539-1.079c0.096-0.399,0.111-0.828,0.049-1.281c-0.126-0.908-0.522-1.564-1.188-1.97
				c-0.667-0.403-1.614-0.521-2.846-0.35l-2.132,0.296L405.564,259z"/>
			<path fill="#35994B" d="M427.285,245.607l0.704,2.583l-7.736,2.107l1.318,4.839l6.095-1.66l0.682,2.499l-6.095,1.66l1.344,4.936
				l7.735-2.106l0.707,2.595l-11.007,2.999l-4.754-17.452L427.285,245.607z"/>
		</g>
	</g>
</g>
</svg>
