<?xml version="1.0" encoding="UTF-8" standalone="no"?>
<!-- Generator: Adobe Illustrator 16.0.0, SVG Export Plug-In . SVG Version: 6.00 Build 0)  -->

<svg
   xmlns:dc="http://purl.org/dc/elements/1.1/"
   xmlns:cc="http://creativecommons.org/ns#"
   xmlns:rdf="http://www.w3.org/1999/02/22-rdf-syntax-ns#"
   xmlns:svg="http://www.w3.org/2000/svg"
   xmlns="http://www.w3.org/2000/svg"
   xmlns:sodipodi="http://sodipodi.sourceforge.net/DTD/sodipodi-0.dtd"
   xmlns:inkscape="http://www.inkscape.org/namespaces/inkscape"
   version="1.1"
   id="Layer_1"
   x="0px"
   y="0px"
   viewBox="0 0 690.603 123.445"
   xml:space="preserve"
   inkscape:version="0.48.5 r10040"
   width="100%"
   height="100%"
   sodipodi:docname="mining-guide.svg"><metadata
     id="metadata67"><rdf:RDF><cc:Work
         rdf:about=""><dc:format>image/svg+xml</dc:format><dc:type
           rdf:resource="http://purl.org/dc/dcmitype/StillImage" /><dc:title></dc:title></cc:Work></rdf:RDF></metadata><defs
     id="defs65"><clipPath
       id="_clip1"><rect
         id="icon-only"
         x="0"
         y="0"
         width="1024"
         height="1024" /></clipPath></defs><sodipodi:namedview
     pagecolor="#ffffff"
     bordercolor="#666666"
     borderopacity="1"
     objecttolerance="10"
     gridtolerance="10"
     guidetolerance="10"
     inkscape:pageopacity="0"
     inkscape:pageshadow="2"
     inkscape:window-width="1230"
     inkscape:window-height="1009"
     id="namedview63"
     showgrid="false"
     inkscape:zoom="0.92672635"
     inkscape:cx="301.32775"
     inkscape:cy="-7.5679857"
     inkscape:window-x="1675"
     inkscape:window-y="-12"
     inkscape:window-maximized="1"
     inkscape:current-layer="Layer_1" /><path
     fill="#333333"
     d="M690.603,116.021c0,4.1-5.341,7.424-11.927,7.424H11.928C5.339,123.445,0,120.121,0,116.021V7.424  C0,3.324,5.339,0,11.928,0h666.749c6.586,0,11.927,3.324,11.927,7.424V116.021z"
     id="path3" /><g
     id="g5"><path
       d="M17.6,42.829v8.982v4.491v13.473v4.491v22.454v4.491c0,4.964,4.022,8.982,8.982,8.982h62.874   c4.964,0,8.981-4.018,8.981-8.982v-4.491V74.265V56.302V42.829H17.6z"
       id="path7"
       style="fill:#3cb054;fill-opacity:1"
       fill="#5E955A" /><path
       d="M17.6,38.338v8.982v4.491v13.473v4.491v22.455v4.49c0,4.939,4.022,8.982,8.982,8.982h62.874   c4.964,0,8.981-4.042,8.981-8.982v-4.49V69.774V51.811V38.338H17.6z"
       id="path9"
       fill="#EDF0F1" /><path
       d="M17.6,33.847v8.982v4.491v13.473v4.491v22.455v4.491c0,4.938,4.022,8.981,8.982,8.981h62.874   c4.964,0,8.981-4.043,8.981-8.981v-4.491V65.283V47.32V33.847H17.6z"
       id="path11"
       fill="#BDC3C7" /><path
       d="M17.6,29.355v8.982v4.491v13.473v4.491v22.455v4.491c0,4.938,4.022,8.981,8.982,8.981h62.874   c4.964,0,8.981-4.043,8.981-8.981v-4.491V60.792V42.829V29.355H17.6z"
       id="path13"
       fill="#EDF0F1" /><path
       d="M26.582,11.392c-4.96,0-8.982,4.022-8.982,8.982v4.491v17.963v8.982v4.491v13.473v4.491v22.454v4.491   c0,4.964,4.022,8.982,8.982,8.982h8.981v-4.491h-6.735c-3.722,0-6.737-3.018-6.737-6.737c0-3.718,3.015-6.735,6.737-6.735h56.136   h4.491c4.964,0,8.981-4.017,8.981-8.981v-4.491V56.302V38.338V24.865v-4.491c0-4.96-4.017-8.982-8.981-8.982H71.491H26.582z"
       id="path15"
       style="fill:#3cb054;fill-opacity:1"
       fill="#5E955A" /><path
       d="M40.054,11.392v80.837h4.491h40.418h4.491c4.964,0,8.981-4.017,8.981-8.981v-4.491V56.302V38.338V24.865   v-4.491c0-4.96-4.017-8.982-8.981-8.982H71.491H44.545H40.054z"
       id="path17"
       style="fill:#3cb054;fill-opacity:1"
       fill="#7CBC75" /></g><g
     id="g51" /><g
     id="g53" /><g
     id="g55" /><g
     id="g57" /><g
     id="g59" /><g
     id="g61" /><text
     xml:space="preserve"
     style="font-size:50.00000012px;font-style:normal;font-weight:normal;line-height:125%;letter-spacing:0px;word-spacing:0px;fill:#ffffff;fill-opacity:1;stroke:none;font-family:FontAwesome;-inkscape-font-specification:FontAwesome;font-stretch:normal;font-variant:normal"
     x="135.96246"
     y="75.966042"
     id="text3013"
     sodipodi:linespacing="125%"
     transform="translate(-1.4525516e-5,0)"><tspan
       sodipodi:role="line"
       id="tspan3015"
       x="135.96246"
       y="75.966042" /></text>
<text
     xml:space="preserve"
     style="font-size:40px;font-style:normal;font-weight:normal;line-height:125%;letter-spacing:0px;word-spacing:0px;fill:#000000;fill-opacity:1;stroke:none;font-family:FontAwesome;-inkscape-font-specification:FontAwesome;font-stretch:normal;font-variant:normal"
     x="134.88341"
     y="75.966042"
     id="text3017"
     sodipodi:linespacing="125%"
     transform="translate(-1.4525516e-5,0)"><tspan
       sodipodi:role="line"
       x="134.88341"
       y="75.966042"
       style="font-style:normal;font-variant:normal;font-weight:normal;font-stretch:normal;fill:#ffffff;font-family:FontAwesome;-inkscape-font-specification:FontAwesome"
       id="tspan3023" /></text>
<text
     xml:space="preserve"
     style="font-size:56px;font-style:normal;font-variant:normal;font-weight:normal;font-stretch:normal;line-height:125%;letter-spacing:0px;word-spacing:0px;fill:#000000;fill-opacity:1;stroke:none;font-family:FontAwesome;-inkscape-font-specification:FontAwesome"
     x="160.802"
     y="79.378754"
     id="text3029"
     sodipodi:linespacing="125%"><tspan
       sodipodi:role="line"
       id="tspan3031"
       x="160.802"
       y="79.378754"
       style="font-size:64px;font-style:normal;font-variant:normal;font-weight:normal;font-stretch:normal;fill:#ffffff;font-family:FontAwesome;-inkscape-font-specification:FontAwesome">Mining Guide</tspan></text>
</svg>