<?xml version="1.0" encoding="UTF-8" standalone="no"?>
<!-- Generator: Adobe Illustrator 16.0.0, SVG Export Plug-In . SVG Version: 6.00 Build 0)  -->
<svg id="Layer_1" xmlns:rdf="http://www.w3.org/1999/02/22-rdf-syntax-ns#" xmlns="http://www.w3.org/2000/svg" xml:space="preserve" viewBox="0 0 690.603 123.445" height="100%" width="100%" version="1.1" y="0px" x="0px" xmlns:cc="http://creativecommons.org/ns#" xmlns:dc="http://purl.org/dc/elements/1.1/"><metadata id="metadata67"><rdf:RDF><cc:Work rdf:about=""><dc:format>image/svg+xml</dc:format><dc:type rdf:resource="http://purl.org/dc/dcmitype/StillImage"/><dc:title/></cc:Work></rdf:RDF></metadata><defs id="defs65"/><path id="path3" d="M690.6,116.02c0,4.1-5.341,7.424-11.927,7.424h-666.74c-6.589,0-11.928-3.32-11.928-7.42v-108.6c0-4.1,5.339-7.424,11.928-7.424h666.75c6.586,0,11.927,3.324,11.927,7.424v108.6z" fill="#333"/><g id="g5"><path id="path7" fill="#3cb054" d="M17.6,42.829v58.382c0,4.964,4.022,8.982,8.982,8.982h62.874c4.964,0,8.981-4.018,8.981-8.982v-58.381h-80.837z"/><path id="path9" fill="#EDF0F1" d="M17.6,38.338v58.382c0,4.939,4.022,8.982,8.982,8.982h62.874c4.964,0,8.981-4.042,8.981-8.982v-58.38h-80.837z"/><path id="path11" fill="#BDC3C7" d="M17.6,33.847v58.383c0,4.938,4.022,8.981,8.982,8.981h62.874c4.964,0,8.981-4.043,8.981-8.981v-58.382h-80.837z"/><path id="path13" fill="#EDF0F1" d="M17.6,29.355v58.383c0,4.938,4.022,8.981,8.982,8.981h62.874c4.964,0,8.981-4.043,8.981-8.981v-58.383h-80.837z"/><path id="path15" fill="#3cb054" d="M26.582,11.392c-4.96,0-8.982,4.022-8.982,8.982v80.836c0,4.964,4.022,8.982,8.982,8.982h8.981v-4.491h-6.735c-3.722,0-6.737-3.018-6.737-6.737,0-3.718,3.015-6.735,6.737-6.735h60.627c4.964,0,8.981-4.017,8.981-8.981v-62.873c0-4.96-4.017-8.982-8.981-8.982h-62.873z"/><path id="path17" fill="#3cb054" d="M40.054,11.392v80.837h49.4c4.964,0,8.981-4.017,8.981-8.981v-62.874c0-4.96-4.017-8.982-8.981-8.982h-49.4z"/></g><text id="text3013" style="letter-spacing:0px;word-spacing:0px;" font-weight="normal" xml:space="preserve" transform="translate(-1.4525516e-5,0)" font-style="normal" font-stretch="normal" font-size="50.00000012px" font-variant="normal" y="75.966042" x="135.96246" font-family="FontAwesome" line-height="125%" fill="#ffffff"><tspan id="tspan3015" x="135.96246" y="75.966042"/></text>
<text id="text3017" style="letter-spacing:0px;word-spacing:0px;" font-weight="normal" xml:space="preserve" transform="translate(-1.4525516e-5,0)" font-style="normal" font-stretch="normal" font-size="40px" font-variant="normal" y="75.966042" x="134.88341" font-family="FontAwesome" line-height="125%" fill="#000000"><tspan id="tspan3023" font-weight="normal" font-style="normal" font-stretch="normal" font-variant="normal" y="75.966042" x="134.88341" font-family="FontAwesome" fill="#ffffff"/></text>
<text id="text3029" style="letter-spacing:0px;word-spacing:0px;" font-weight="normal" xml:space="preserve" font-size="56px" font-stretch="normal" line-height="125%" font-variant="normal" y="79.378754" x="140.802" font-family="FontAwesome" font-style="normal" fill="#000000"><tspan id="tspan3031" font-weight="normal" font-size="64px" font-style="normal" font-stretch="normal" font-variant="normal" y="79.378754" x="140.802" font-family="FontAwesome" fill="#ffffff">Minting Guide</tspan></text>
</svg>
