<?xml version="1.0" encoding="utf-8"?>
<!-- Generator: Adobe Illustrator 16.0.0, SVG Export Plug-In . SVG Version: 6.00 Build 0)  -->
<!DOCTYPE svg PUBLIC "-//W3C//DTD SVG 1.1 Tiny//EN" "http://www.w3.org/Graphics/SVG/1.1/DTD/svg11-tiny.dtd">
<svg version="1.1" baseProfile="tiny" id="Layer_1" xmlns="http://www.w3.org/2000/svg" xmlns:xlink="http://www.w3.org/1999/xlink"
	 x="0px" y="0px" viewBox="0 0 690.603 123.445" xml:space="preserve">
<path fill="#333333" d="M690.603,116.021c0,4.1-5.341,7.424-11.927,7.424H11.928C5.339,123.445,0,120.121,0,116.021V7.424
	C0,3.324,5.339,0,11.928,0h666.749c6.586,0,11.927,3.324,11.927,7.424V116.021z"/>
<g>
	<path fill="#5E955A" d="M17.6,42.829v8.982v4.491v13.473v4.491v22.454v4.491c0,4.964,4.022,8.982,8.982,8.982h62.874
		c4.964,0,8.981-4.018,8.981-8.982v-4.491V74.265V56.302V42.829H17.6z"/>
	<path fill="#EDF0F1" d="M17.6,38.338v8.982v4.491v13.473v4.491v22.455v4.49c0,4.939,4.022,8.982,8.982,8.982h62.874
		c4.964,0,8.981-4.042,8.981-8.982v-4.49V69.774V51.811V38.338H17.6z"/>
	<path fill="#BDC3C7" d="M17.6,33.847v8.982v4.491v13.473v4.491v22.455v4.491c0,4.938,4.022,8.981,8.982,8.981h62.874
		c4.964,0,8.981-4.043,8.981-8.981v-4.491V65.283V47.32V33.847H17.6z"/>
	<path fill="#EDF0F1" d="M17.6,29.355v8.982v4.491v13.473v4.491v22.455v4.491c0,4.938,4.022,8.981,8.982,8.981h62.874
		c4.964,0,8.981-4.043,8.981-8.981v-4.491V60.792V42.829V29.355H17.6z"/>
	<path fill="#5E955A" d="M26.582,11.392c-4.96,0-8.982,4.022-8.982,8.982v4.491v17.963v8.982v4.491v13.473v4.491v22.454v4.491
		c0,4.964,4.022,8.982,8.982,8.982h8.981v-4.491h-6.735c-3.722,0-6.737-3.018-6.737-6.737c0-3.718,3.015-6.735,6.737-6.735h56.136
		h4.491c4.964,0,8.981-4.017,8.981-8.981v-4.491V56.302V38.338V24.865v-4.491c0-4.96-4.017-8.982-8.981-8.982H71.491H26.582z"/>
	<path fill="#7CBC75" d="M40.054,11.392v80.837h4.491h40.418h4.491c4.964,0,8.981-4.017,8.981-8.981v-4.491V56.302V38.338V24.865
		v-4.491c0-4.96-4.017-8.982-8.981-8.982H71.491H44.545H40.054z"/>
</g>
<g>
	<path fill="#FFFFFF" d="M170.57,62.424c0,2.568-0.258,4.986-0.774,7.254s-1.254,4.356-2.214,6.264
		c-0.96,1.908-2.13,3.618-3.51,5.13c-1.38,1.512-2.934,2.808-4.662,3.888l13.248,14.184h-3.096c-0.48,0-0.912-0.066-1.296-0.198
		c-0.384-0.132-0.72-0.366-1.008-0.702l-10.872-11.736c-1.512,0.624-3.108,1.104-4.788,1.44c-1.68,0.335-3.456,0.504-5.328,0.504
		c-3.576,0-6.852-0.618-9.828-1.854c-2.976-1.236-5.532-2.988-7.668-5.256s-3.798-5.004-4.986-8.208
		c-1.188-3.204-1.782-6.774-1.782-10.71c0-3.912,0.594-7.47,1.782-10.674s2.85-5.94,4.986-8.208s4.692-4.026,7.668-5.274
		c2.976-1.248,6.252-1.872,9.828-1.872c3.624,0,6.924,0.618,9.9,1.854c2.976,1.236,5.532,2.994,7.668,5.274
		c2.136,2.281,3.792,5.022,4.968,8.226C169.981,54.954,170.57,58.513,170.57,62.424z M166.753,62.424
		c0-3.552-0.492-6.744-1.476-9.576c-0.984-2.832-2.371-5.232-4.158-7.2c-1.788-1.967-3.942-3.474-6.462-4.518
		c-2.52-1.044-5.316-1.566-8.388-1.566c-3.024,0-5.79,0.522-8.298,1.566c-2.508,1.044-4.668,2.551-6.48,4.518
		c-1.813,1.968-3.216,4.369-4.212,7.2c-0.996,2.832-1.494,6.024-1.494,9.576c0,3.576,0.498,6.774,1.494,9.594
		c0.996,2.82,2.399,5.214,4.212,7.182c1.812,1.968,3.972,3.468,6.48,4.5c2.508,1.032,5.274,1.548,8.298,1.548
		c3.072,0,5.868-0.516,8.388-1.548c2.52-1.032,4.674-2.532,6.462-4.5c1.788-1.968,3.174-4.362,4.158-7.182
		C166.261,69.198,166.753,66,166.753,62.424z"/>
	<path fill="#FFFFFF" d="M183.349,52.092v22.896c0,3.36,0.771,5.994,2.312,7.902c1.541,1.908,3.889,2.862,7.043,2.862
		c2.335,0,4.515-0.594,6.538-1.782c2.022-1.188,3.841-2.838,5.455-4.95V52.092h3.42v35.82h-1.885c-0.664,0-1.007-0.312-1.031-0.936
		l-0.326-5.328c-1.658,2.064-3.575,3.721-5.75,4.968c-2.175,1.248-4.597,1.872-7.264,1.872c-1.995,0-3.737-0.313-5.227-0.936
		c-1.49-0.624-2.728-1.524-3.713-2.7c-0.985-1.176-1.73-2.592-2.235-4.248c-0.505-1.656-0.757-3.528-0.757-5.616V52.092H183.349z"/>
	<path fill="#FFFFFF" d="M225.72,39.744c0,0.432-0.09,0.834-0.27,1.206s-0.414,0.702-0.702,0.99
		c-0.288,0.288-0.624,0.517-1.008,0.684c-0.384,0.168-0.792,0.252-1.224,0.252c-0.432,0-0.84-0.083-1.224-0.252
		c-0.384-0.167-0.72-0.396-1.008-0.684c-0.288-0.288-0.516-0.618-0.684-0.99s-0.252-0.774-0.252-1.206s0.084-0.846,0.252-1.242
		s0.396-0.738,0.684-1.026s0.624-0.516,1.008-0.684c0.383-0.167,0.792-0.252,1.224-0.252c0.432,0,0.84,0.084,1.224,0.252
		c0.384,0.168,0.72,0.396,1.008,0.684c0.288,0.288,0.522,0.63,0.702,1.026S225.72,39.312,225.72,39.744z M224.208,52.092v35.82
		h-3.42v-35.82H224.208z"/>
	<path fill="#FFFFFF" d="M260.458,56.88c-0.121,0.121-0.234,0.223-0.342,0.306c-0.108,0.084-0.258,0.126-0.45,0.126
		c-0.24,0-0.57-0.162-0.99-0.486c-0.42-0.324-0.978-0.678-1.674-1.062c-0.696-0.384-1.566-0.738-2.61-1.062
		c-1.044-0.324-2.311-0.486-3.798-0.486c-2.064,0-3.894,0.366-5.49,1.098c-1.597,0.732-2.94,1.782-4.032,3.15
		c-1.092,1.368-1.926,3.024-2.502,4.968c-0.576,1.944-0.864,4.128-0.864,6.552c0,2.52,0.293,4.752,0.882,6.696
		c0.588,1.944,1.422,3.582,2.502,4.914s2.388,2.346,3.924,3.042c1.536,0.696,3.24,1.044,5.112,1.044
		c1.728,0,3.173-0.204,4.338-0.612c1.164-0.408,2.124-0.852,2.88-1.332c0.756-0.48,1.356-0.924,1.8-1.332
		c0.444-0.408,0.797-0.612,1.062-0.612c0.312,0,0.552,0.121,0.72,0.36l0.936,1.152c-0.552,0.72-1.248,1.392-2.088,2.016
		c-0.84,0.624-1.788,1.164-2.844,1.62c-1.056,0.457-2.202,0.81-3.438,1.062c-1.236,0.252-2.526,0.378-3.87,0.378
		c-2.281,0-4.362-0.414-6.246-1.242c-1.884-0.828-3.504-2.028-4.86-3.6c-1.356-1.572-2.412-3.498-3.168-5.778
		c-0.756-2.28-1.134-4.872-1.134-7.776c0-2.736,0.36-5.231,1.08-7.488c0.72-2.255,1.77-4.2,3.15-5.832
		c1.38-1.632,3.072-2.898,5.076-3.798c2.003-0.9,4.302-1.35,6.894-1.35c2.328,0,4.397,0.373,6.21,1.116
		c1.812,0.744,3.39,1.752,4.734,3.024L260.458,56.88z"/>
	<path fill="#FFFFFF" d="M273.417,35.532v31.932h1.656c0.336,0,0.653-0.047,0.954-0.144c0.3-0.096,0.63-0.324,0.99-0.684
		l14.364-13.644c0.264-0.264,0.534-0.48,0.81-0.648c0.275-0.168,0.63-0.252,1.062-0.252h3.024l-15.804,15.012
		c-0.24,0.24-0.468,0.462-0.684,0.666c-0.216,0.204-0.456,0.378-0.72,0.522c0.383,0.192,0.708,0.42,0.972,0.684
		c0.264,0.265,0.54,0.552,0.828,0.864l16.596,18.072h-2.988c-0.336,0-0.636-0.066-0.9-0.198c-0.264-0.131-0.528-0.342-0.792-0.63
		l-15.048-16.128c-0.409-0.432-0.78-0.726-1.116-0.882c-0.336-0.156-0.864-0.234-1.584-0.234h-1.62v18.072h-3.42v-52.38H273.417z"/>
	<path fill="#FFFFFF" d="M345.345,43.164c-0.216,0.408-0.528,0.612-0.936,0.612c-0.313,0-0.717-0.221-1.21-0.666
		c-0.494-0.444-1.162-0.936-2.005-1.476s-1.896-1.038-3.16-1.494c-1.264-0.456-2.823-0.684-4.677-0.684s-3.485,0.265-4.894,0.792
		c-1.409,0.528-2.589,1.248-3.54,2.16s-1.673,1.968-2.167,3.168c-0.494,1.2-0.74,2.46-0.74,3.78c0,1.728,0.366,3.156,1.099,4.284
		c0.733,1.128,1.7,2.088,2.902,2.88c1.202,0.792,2.565,1.458,4.092,1.998c1.526,0.54,3.094,1.074,4.705,1.602
		c1.61,0.528,3.178,1.11,4.704,1.746c1.526,0.636,2.89,1.434,4.092,2.394s2.169,2.142,2.902,3.546c0.733,1.404,1.1,3.15,1.1,5.238
		c0,2.137-0.366,4.146-1.098,6.03c-0.732,1.884-1.794,3.522-3.186,4.914c-1.392,1.392-3.096,2.49-5.112,3.294
		c-2.016,0.804-4.32,1.206-6.912,1.206c-3.36,0-6.252-0.594-8.676-1.782c-2.424-1.188-4.548-2.813-6.372-4.878l1.008-1.584
		c0.288-0.36,0.624-0.54,1.008-0.54c0.216,0,0.493,0.144,0.829,0.432s0.745,0.642,1.226,1.062c0.48,0.42,1.058,0.876,1.73,1.368
		c0.673,0.492,1.454,0.949,2.343,1.368c0.889,0.42,1.91,0.774,3.064,1.062s2.464,0.432,3.93,0.432c2.019,0,3.822-0.306,5.408-0.918
		c1.586-0.612,2.926-1.446,4.02-2.502c1.094-1.056,1.929-2.31,2.505-3.762c0.577-1.452,0.865-3.006,0.865-4.662
		c0-1.8-0.367-3.282-1.1-4.446c-0.733-1.164-1.701-2.136-2.902-2.916c-1.202-0.78-2.565-1.434-4.092-1.962
		c-1.526-0.528-3.094-1.044-4.704-1.548c-1.61-0.504-3.179-1.067-4.705-1.692c-1.526-0.624-2.89-1.422-4.092-2.394
		c-1.202-0.972-2.169-2.184-2.902-3.636s-1.099-3.27-1.099-5.454c0-1.704,0.324-3.348,0.973-4.932
		c0.649-1.584,1.598-2.982,2.848-4.194s2.794-2.184,4.633-2.916c1.838-0.732,3.935-1.098,6.291-1.098c2.643,0,5.017,0.42,7.12,1.26
		c2.103,0.84,4.019,2.124,5.748,3.852L345.345,43.164z"/>
	<path fill="#FFFFFF" d="M366.332,88.488c-2.424,0-4.309-0.672-5.652-2.016c-1.344-1.344-2.016-3.42-2.016-6.228v-24.48h-5.148
		c-0.264,0-0.48-0.072-0.648-0.216c-0.168-0.144-0.252-0.348-0.252-0.612v-1.332l6.12-0.432l0.855-12.816
		c0.023-0.216,0.111-0.408,0.266-0.576s0.363-0.252,0.624-0.252h1.603v13.68h11.268v2.556h-11.268v24.3
		c0,0.984,0.126,1.831,0.378,2.538c0.253,0.708,0.6,1.291,1.044,1.746c0.444,0.456,0.967,0.792,1.566,1.008
		c0.6,0.216,1.248,0.324,1.943,0.324c0.865,0,1.607-0.126,2.232-0.378c0.624-0.252,1.164-0.528,1.62-0.828
		c0.456-0.3,0.828-0.576,1.116-0.828c0.287-0.252,0.516-0.378,0.684-0.378c0.191,0,0.384,0.121,0.576,0.36l0.936,1.512
		c-0.912,1.008-2.069,1.818-3.474,2.43C369.302,88.182,367.843,88.488,366.332,88.488z"/>
	<path fill="#FFFFFF" d="M405.103,87.912c-0.72,0-1.164-0.336-1.332-1.008l-0.504-4.572c-0.984,0.96-1.962,1.824-2.934,2.592
		c-0.973,0.768-1.986,1.416-3.043,1.944c-1.056,0.528-2.195,0.93-3.42,1.206c-1.224,0.275-2.568,0.414-4.031,0.414
		c-1.225,0-2.412-0.18-3.564-0.54c-1.152-0.36-2.172-0.912-3.06-1.656c-0.888-0.744-1.603-1.697-2.142-2.862
		c-0.541-1.164-0.811-2.562-0.811-4.194c0-1.512,0.432-2.916,1.296-4.212c0.864-1.296,2.214-2.424,4.05-3.384
		c1.836-0.959,4.199-1.728,7.092-2.304c2.893-0.576,6.366-0.912,10.422-1.008v-3.744c0-3.312-0.714-5.862-2.142-7.65
		c-1.429-1.788-3.546-2.682-6.354-2.682c-1.728,0-3.197,0.24-4.409,0.72c-1.212,0.48-2.238,1.008-3.078,1.584
		c-0.841,0.576-1.524,1.104-2.052,1.584c-0.528,0.48-0.973,0.72-1.332,0.72c-0.48,0-0.841-0.216-1.08-0.648l-0.612-1.044
		c1.872-1.872,3.84-3.288,5.904-4.248c2.063-0.959,4.403-1.44,7.021-1.44c1.919,0,3.6,0.306,5.039,0.918
		c1.44,0.612,2.634,1.489,3.582,2.628c0.948,1.141,1.662,2.52,2.143,4.14c0.479,1.62,0.72,3.426,0.72,5.418v23.328H405.103z
		 M390.703,86.004c1.393,0,2.67-0.149,3.834-0.45c1.164-0.3,2.244-0.72,3.24-1.26s1.926-1.182,2.79-1.926
		c0.864-0.744,1.716-1.548,2.556-2.412v-9.324c-3.408,0.096-6.342,0.354-8.801,0.774c-2.461,0.42-4.488,0.99-6.084,1.71
		c-1.598,0.72-2.772,1.578-3.529,2.574c-0.756,0.997-1.133,2.13-1.133,3.402c0,1.2,0.197,2.238,0.594,3.114
		c0.396,0.876,0.918,1.596,1.566,2.16c0.647,0.564,1.403,0.978,2.268,1.242C388.867,85.873,389.767,86.004,390.703,86.004z"/>
	<path fill="#FFFFFF" d="M417.271,87.912v-35.82h1.8c0.408,0,0.702,0.084,0.882,0.252s0.282,0.456,0.307,0.864l0.287,7.56
		c1.152-2.904,2.688-5.178,4.608-6.822c1.92-1.644,4.284-2.466,7.093-2.466c1.08,0,2.075,0.114,2.987,0.342s1.776,0.558,2.593,0.99
		l-0.469,2.376c-0.072,0.384-0.313,0.576-0.72,0.576c-0.144,0-0.349-0.048-0.612-0.144c-0.264-0.096-0.594-0.204-0.99-0.324
		c-0.396-0.12-0.882-0.228-1.457-0.324c-0.576-0.096-1.236-0.144-1.98-0.144c-2.713,0-4.938,0.84-6.678,2.52
		c-1.74,1.68-3.15,4.104-4.23,7.272v23.292H417.271z"/>
	<path fill="#FFFFFF" d="M455.61,88.488c-2.425,0-4.308-0.672-5.651-2.016c-1.345-1.344-2.017-3.42-2.017-6.228v-24.48h-5.147
		c-0.265,0-0.48-0.072-0.648-0.216c-0.168-0.144-0.252-0.348-0.252-0.612v-1.332l6.12-0.432l0.854-12.816
		c0.023-0.216,0.113-0.408,0.268-0.576c0.153-0.168,0.361-0.252,0.623-0.252h1.603v13.68h11.269v2.556h-11.269v24.3
		c0,0.984,0.126,1.831,0.378,2.538c0.252,0.708,0.6,1.291,1.045,1.746c0.443,0.456,0.965,0.792,1.565,1.008
		c0.6,0.216,1.247,0.324,1.944,0.324c0.863,0,1.607-0.126,2.231-0.378s1.164-0.528,1.62-0.828c0.455-0.3,0.828-0.576,1.116-0.828
		s0.516-0.378,0.684-0.378c0.192,0,0.384,0.121,0.576,0.36l0.937,1.512c-0.913,1.008-2.07,1.818-3.475,2.43
		C458.58,88.182,457.123,88.488,455.61,88.488z"/>
	<path fill="#FFFFFF" d="M509.033,85.5c1.752,0,3.348-0.09,4.788-0.27c1.44-0.18,2.778-0.45,4.015-0.81
		c1.235-0.36,2.412-0.797,3.527-1.314c1.116-0.516,2.238-1.098,3.366-1.746V67.644h-9.792c-0.265,0-0.486-0.084-0.666-0.252
		c-0.18-0.167-0.27-0.36-0.27-0.576V64.8h14.076v18.108c-1.273,0.888-2.593,1.68-3.961,2.376c-1.367,0.696-2.832,1.278-4.392,1.746
		c-1.561,0.468-3.24,0.828-5.04,1.08c-1.801,0.252-3.768,0.378-5.904,0.378c-3.672,0-7.025-0.618-10.063-1.854
		c-3.035-1.236-5.64-2.988-7.812-5.256c-2.173-2.268-3.858-5.009-5.058-8.226c-1.201-3.216-1.801-6.792-1.801-10.728
		s0.6-7.506,1.801-10.71c1.199-3.204,2.903-5.94,5.111-8.208c2.209-2.268,4.891-4.02,8.047-5.256
		c3.155-1.236,6.689-1.854,10.602-1.854c1.943,0,3.738,0.132,5.382,0.396c1.644,0.265,3.174,0.654,4.591,1.17
		c1.415,0.517,2.735,1.152,3.959,1.908c1.225,0.756,2.4,1.626,3.528,2.61l-0.972,1.584c-0.217,0.36-0.517,0.54-0.9,0.54
		c-0.216,0-0.42-0.048-0.611-0.144c-0.36-0.144-0.883-0.479-1.566-1.008c-0.684-0.528-1.608-1.08-2.771-1.656
		c-1.165-0.576-2.623-1.092-4.375-1.548c-1.752-0.456-3.876-0.684-6.371-0.684c-3.313,0-6.301,0.528-8.965,1.584
		c-2.664,1.057-4.938,2.568-6.822,4.536c-1.884,1.968-3.336,4.368-4.355,7.2c-1.021,2.832-1.529,6.012-1.529,9.54
		c0,3.6,0.516,6.828,1.547,9.684c1.032,2.856,2.479,5.274,4.338,7.254c1.86,1.98,4.092,3.498,6.697,4.554
		C503.015,84.973,505.888,85.5,509.033,85.5z"/>
	<path fill="#FFFFFF" d="M541.828,52.092v22.896c0,3.36,0.771,5.994,2.313,7.902s3.889,2.862,7.043,2.862
		c2.336,0,4.516-0.594,6.538-1.782c2.023-1.188,3.841-2.838,5.455-4.95V52.092h3.42v35.82h-1.885c-0.664,0-1.008-0.312-1.031-0.936
		l-0.326-5.328c-1.658,2.064-3.575,3.721-5.749,4.968c-2.176,1.248-4.598,1.872-7.265,1.872c-1.994,0-3.737-0.313-5.228-0.936
		c-1.49-0.624-2.728-1.524-3.713-2.7c-0.985-1.176-1.73-2.592-2.234-4.248c-0.506-1.656-0.758-3.528-0.758-5.616V52.092H541.828z"/>
	<path fill="#FFFFFF" d="M584.2,39.744c0,0.432-0.091,0.834-0.271,1.206s-0.414,0.702-0.702,0.99
		c-0.288,0.288-0.624,0.517-1.008,0.684c-0.384,0.168-0.792,0.252-1.224,0.252c-0.433,0-0.841-0.083-1.225-0.252
		c-0.384-0.167-0.72-0.396-1.008-0.684c-0.288-0.288-0.517-0.618-0.684-0.99c-0.169-0.372-0.252-0.774-0.252-1.206
		s0.083-0.846,0.252-1.242c0.167-0.396,0.396-0.738,0.684-1.026s0.624-0.516,1.008-0.684c0.384-0.167,0.792-0.252,1.225-0.252
		c0.432,0,0.84,0.084,1.224,0.252c0.384,0.168,0.72,0.396,1.008,0.684s0.522,0.63,0.702,1.026S584.2,39.312,584.2,39.744z
		 M582.687,52.092v35.82h-3.42v-35.82H582.687z"/>
	<path fill="#FFFFFF" d="M620.761,87.912c-0.593,0-0.937-0.312-1.031-0.936l-0.361-5.652c-1.587,2.16-3.443,3.876-5.569,5.148
		c-2.127,1.272-4.513,1.908-7.155,1.908c-4.397,0-7.828-1.523-10.292-4.572c-2.463-3.048-3.694-7.62-3.694-13.716
		c0-2.616,0.342-5.058,1.027-7.326s1.694-4.236,3.028-5.904s2.968-2.982,4.903-3.942c1.934-0.959,4.163-1.44,6.687-1.44
		c2.427,0,4.529,0.45,6.308,1.35c1.779,0.9,3.316,2.214,4.615,3.942v-21.24h3.42v52.38H620.761z M607.616,85.608
		c2.38,0,4.531-0.612,6.454-1.836c1.923-1.224,3.642-2.928,5.156-5.112v-18.9c-1.395-2.04-2.927-3.48-4.598-4.32
		c-1.671-0.84-3.563-1.26-5.679-1.26s-3.967,0.384-5.553,1.152c-1.587,0.769-2.915,1.854-3.984,3.258
		c-1.069,1.404-1.874,3.084-2.416,5.04c-0.541,1.957-0.811,4.11-0.811,6.462c0,5.328,0.985,9.246,2.956,11.754
		C601.114,84.354,603.938,85.608,607.616,85.608z"/>
	<path fill="#FFFFFF" d="M648.169,51.516c2.016,0,3.882,0.348,5.598,1.044c1.716,0.696,3.204,1.71,4.464,3.042
		c1.261,1.332,2.244,2.97,2.952,4.914s1.063,4.176,1.063,6.696c0,0.528-0.078,0.888-0.234,1.08
		c-0.155,0.192-0.401,0.288-0.736,0.288h-25.85v0.684c0,2.688,0.312,5.052,0.937,7.092c0.623,2.041,1.512,3.75,2.664,5.13
		c1.151,1.38,2.543,2.418,4.176,3.114c1.632,0.696,3.456,1.044,5.472,1.044c1.8,0,3.36-0.198,4.68-0.594
		c1.32-0.396,2.431-0.84,3.33-1.332c0.9-0.492,1.614-0.936,2.143-1.332c0.527-0.396,0.911-0.594,1.151-0.594
		c0.312,0,0.552,0.121,0.721,0.36l0.936,1.152c-0.576,0.72-1.338,1.392-2.286,2.016s-2.004,1.158-3.168,1.602
		c-1.164,0.445-2.412,0.798-3.744,1.062c-1.332,0.264-2.67,0.396-4.014,0.396c-2.448,0-4.68-0.426-6.696-1.278
		c-2.016-0.852-3.746-2.094-5.189-3.726c-1.443-1.632-2.56-3.63-3.348-5.994c-0.789-2.364-1.183-5.07-1.183-8.118
		c0-2.568,0.365-4.938,1.098-7.11c0.732-2.172,1.788-4.044,3.168-5.616c1.38-1.572,3.072-2.802,5.076-3.69
		C643.351,51.96,645.625,51.516,648.169,51.516z M648.222,54.072c-1.846,0-3.499,0.288-4.961,0.864
		c-1.462,0.576-2.726,1.404-3.792,2.484c-1.066,1.08-1.929,2.376-2.588,3.888s-1.097,3.204-1.312,5.076h23.579
		c0-1.92-0.264-3.642-0.79-5.166c-0.528-1.524-1.271-2.814-2.229-3.87c-0.959-1.056-2.109-1.866-3.451-2.43
		C651.336,54.354,649.851,54.072,648.222,54.072z"/>
</g>
<g>
</g>
<g>
</g>
<g>
</g>
<g>
</g>
<g>
</g>
<g>
</g>
</svg>
