<?xml version="1.0" encoding="utf-8"?>
<!-- Generator: Adobe Illustrator 16.0.0, SVG Export Plug-In . SVG Version: 6.00 Build 0)  -->
<!DOCTYPE svg PUBLIC "-//W3C//DTD SVG 1.1//EN" "http://www.w3.org/Graphics/SVG/1.1/DTD/svg11.dtd">
<svg version="1.1" id="Layer_1" xmlns="http://www.w3.org/2000/svg" xmlns:xlink="http://www.w3.org/1999/xlink" x="0px" y="0px"
	 viewBox="0 0 747.727 152.063" enable-background="new 0 0 747.727 152.063"
	 xml:space="preserve">
<path fill="#333333" d="M747.726,142.918c0,5.052-5.783,9.146-12.915,9.146H12.914C5.78,152.063,0,147.969,0,142.918V9.146
	C0,4.095,5.78,0,12.914,0h721.9c7.131,0,12.913,4.095,12.913,9.146L747.726,142.918L747.726,142.918z"/>
<g>
	<g>
		<g>
			<g>
				<path fill="#60965A" d="M151.775,76.033c0-31.14-25.245-56.386-56.384-56.386c-31.142,0-56.386,25.246-56.386,56.386
					c0,31.142,25.245,56.384,56.386,56.384C126.531,132.417,151.775,107.174,151.775,76.033z"/>
			</g>
		</g>
	</g>
	<g>
		<path fill="#FFFFFF" d="M122.136,73.005L83.355,50.901c-2.922-1.665-5.312-0.303-5.312,3.024v44.213
			c0,3.327,2.39,4.689,5.312,3.022l38.781-22.106C125.051,77.394,125.051,74.671,122.136,73.005z"/>
	</g>
</g>
<g>
	<path fill="#FFFFFF" d="M172.718,42.186h7.744c0.866,0,1.565,0.217,2.099,0.65c0.533,0.433,0.932,0.983,1.199,1.648l20.236,50.514
		c0.466,1.133,0.891,2.366,1.274,3.698c0.383,1.332,0.757,2.715,1.125,4.146c0.299-1.432,0.625-2.814,0.974-4.146
		s0.757-2.565,1.224-3.698l20.136-50.514c0.232-0.566,0.632-1.09,1.199-1.574c0.566-0.482,1.266-0.725,2.099-0.725h7.794
		l-29.18,71.6h-8.744L172.718,42.186z"/>
	<path fill="#FFFFFF" d="M259.456,47.282c0,0.867-0.175,1.674-0.525,2.423c-0.35,0.75-0.816,1.416-1.399,1.999
		c-0.583,0.583-1.258,1.042-2.023,1.374c-0.767,0.333-1.583,0.5-2.448,0.5c-0.867,0-1.674-0.166-2.423-0.5
		c-0.75-0.333-1.416-0.791-1.999-1.374c-0.583-0.583-1.042-1.249-1.374-1.999c-0.333-0.75-0.5-1.557-0.5-2.423
		c0-0.866,0.166-1.69,0.5-2.473c0.333-0.782,0.791-1.465,1.374-2.049c0.583-0.583,1.249-1.041,1.999-1.374
		c0.75-0.333,1.557-0.5,2.423-0.5c0.866,0,1.682,0.167,2.448,0.5c0.766,0.333,1.44,0.792,2.023,1.374
		c0.583,0.583,1.049,1.267,1.399,2.049C259.281,45.592,259.456,46.417,259.456,47.282z M257.458,63.171v50.614h-8.894V63.171
		H257.458z"/>
	<path fill="#FFFFFF" d="M308.771,113.785c-1.267,0-2.066-0.616-2.398-1.849l-0.8-6.146c-2.165,2.632-4.639,4.738-7.42,6.32
		s-5.971,2.373-9.568,2.373c-2.897,0-5.529-0.558-7.895-1.674c-2.365-1.115-4.38-2.756-6.045-4.921
		c-1.666-2.165-2.948-4.863-3.848-8.095c-0.898-3.23-1.349-6.945-1.349-11.142c0-3.73,0.499-7.203,1.499-10.418
		c0.999-3.214,2.439-6.003,4.322-8.369c1.881-2.365,4.172-4.222,6.869-5.571c2.699-1.349,5.763-2.023,9.193-2.023
		c3.099,0,5.746,0.525,7.945,1.574c2.198,1.049,4.163,2.523,5.896,4.422v-28.08h8.894v73.598H308.771z M291.533,107.29
		c2.898,0,5.438-0.666,7.62-1.999c2.181-1.332,4.188-3.214,6.021-5.646V75.163c-1.633-2.199-3.423-3.739-5.371-4.622
		c-1.949-0.882-4.105-1.324-6.471-1.324c-4.729,0-8.361,1.682-10.892,5.046c-2.532,3.365-3.798,8.161-3.798,14.39
		c0,3.297,0.282,6.12,0.849,8.469s1.4,4.28,2.499,5.796s2.448,2.623,4.047,3.322C287.635,106.94,289.467,107.29,291.533,107.29z"/>
	<path fill="#FFFFFF" d="M349.042,62.372c3.03,0,5.828,0.508,8.394,1.524c2.564,1.017,4.779,2.482,6.646,4.397
		c1.865,1.916,3.322,4.28,4.372,7.095c1.049,2.816,1.573,6.021,1.573,9.619c0,1.398-0.149,2.332-0.449,2.798
		c-0.3,0.467-0.866,0.699-1.699,0.699h-33.676c0.066,3.198,0.5,5.979,1.299,8.344c0.8,2.366,1.898,4.34,3.298,5.921
		c1.399,1.583,3.064,2.766,4.996,3.548c1.932,0.783,4.098,1.174,6.496,1.174c2.231,0,4.154-0.257,5.771-0.774
		c1.615-0.516,3.006-1.074,4.172-1.674s2.141-1.156,2.923-1.674c0.782-0.516,1.457-0.774,2.024-0.774
		c0.731,0,1.299,0.283,1.698,0.85l2.498,3.248c-1.099,1.332-2.415,2.49-3.947,3.473s-3.173,1.791-4.921,2.423
		c-1.749,0.633-3.557,1.107-5.422,1.424s-3.714,0.475-5.546,0.475c-3.497,0-6.72-0.592-9.668-1.773s-5.496-2.914-7.645-5.196
		c-2.148-2.281-3.822-5.104-5.021-8.469s-1.799-7.229-1.799-11.592c0-3.53,0.541-6.828,1.624-9.894
		c1.082-3.064,2.64-5.721,4.672-7.969c2.031-2.249,4.513-4.014,7.444-5.296C342.079,63.013,345.376,62.372,349.042,62.372z
		 M349.241,68.917c-4.297,0-7.678,1.241-10.143,3.722c-2.466,2.482-3.997,5.921-4.597,10.318h27.53c0-2.064-0.283-3.955-0.85-5.671
		c-0.566-1.715-1.398-3.198-2.498-4.447c-1.099-1.249-2.44-2.215-4.021-2.898C353.08,69.259,351.272,68.917,349.241,68.917z"/>
	<path fill="#FFFFFF" d="M401.853,62.372c3.697,0,7.036,0.617,10.018,1.849c2.981,1.233,5.513,2.981,7.595,5.246
		c2.082,2.266,3.681,5.005,4.797,8.219c1.115,3.215,1.674,6.804,1.674,10.768c0,3.997-0.559,7.595-1.674,10.792
		c-1.116,3.198-2.715,5.93-4.797,8.194c-2.082,2.266-4.613,4.006-7.595,5.222s-6.32,1.823-10.018,1.823s-7.037-0.607-10.018-1.823
		c-2.981-1.216-5.521-2.956-7.62-5.222c-2.099-2.265-3.714-4.996-4.847-8.194c-1.133-3.197-1.698-6.795-1.698-10.792
		c0-3.964,0.565-7.553,1.698-10.768c1.133-3.214,2.748-5.954,4.847-8.219c2.099-2.265,4.639-4.013,7.62-5.246
		C394.816,62.988,398.156,62.372,401.853,62.372z M401.853,107.54c4.996,0,8.727-1.674,11.192-5.021
		c2.465-3.348,3.697-8.02,3.697-14.016c0-6.028-1.232-10.726-3.697-14.09c-2.466-3.364-6.196-5.046-11.192-5.046
		c-2.531,0-4.73,0.433-6.596,1.299c-1.865,0.867-3.422,2.116-4.671,3.748c-1.249,1.632-2.183,3.64-2.799,6.021
		c-0.616,2.382-0.924,5.071-0.924,8.069s0.308,5.68,0.924,8.044c0.616,2.366,1.55,4.356,2.799,5.972s2.806,2.856,4.671,3.722
		C397.123,107.107,399.322,107.54,401.853,107.54z"/>
	<path fill="#FFFFFF" d="M489.54,106.74c1.932,0,3.705-0.092,5.321-0.275c1.615-0.183,3.14-0.457,4.572-0.824
		c1.432-0.366,2.78-0.807,4.047-1.324c1.266-0.516,2.531-1.106,3.797-1.773V86.754h-11.092c-0.633,0-1.142-0.183-1.523-0.549
		c-0.384-0.366-0.575-0.816-0.575-1.35v-5.496h21.984v27.48c-1.799,1.299-3.672,2.432-5.621,3.397
		c-1.948,0.967-4.03,1.774-6.245,2.424c-2.216,0.649-4.589,1.132-7.12,1.449c-2.532,0.315-5.28,0.475-8.244,0.475
		c-5.196,0-9.96-0.892-14.29-2.674c-4.33-1.781-8.062-4.279-11.192-7.494c-3.131-3.214-5.57-7.07-7.319-11.567
		c-1.749-4.496-2.623-9.443-2.623-14.84c0-5.462,0.857-10.442,2.573-14.939c1.715-4.497,4.163-8.352,7.345-11.566
		c3.181-3.214,7.027-5.704,11.542-7.47c4.513-1.766,9.568-2.648,15.164-2.648c2.831,0,5.463,0.208,7.895,0.625
		c2.431,0.417,4.688,1.017,6.77,1.799c2.082,0.783,4.006,1.732,5.771,2.848c1.765,1.116,3.414,2.373,4.946,3.772l-2.748,4.397
		c-0.566,0.899-1.299,1.349-2.198,1.349c-0.533,0-1.116-0.183-1.749-0.549c-0.833-0.466-1.766-1.032-2.798-1.699
		c-1.033-0.666-2.291-1.307-3.772-1.923c-1.482-0.616-3.231-1.141-5.246-1.574c-2.016-0.432-4.405-0.649-7.17-0.649
		c-4.031,0-7.679,0.658-10.942,1.974c-3.265,1.316-6.046,3.198-8.344,5.646c-2.299,2.448-4.064,5.414-5.297,8.894
		c-1.232,3.481-1.849,7.387-1.849,11.716c0,4.531,0.642,8.569,1.924,12.117s3.089,6.554,5.421,9.019
		c2.331,2.466,5.097,4.347,8.294,5.646C482.145,106.091,485.675,106.74,489.54,106.74z"/>
	<path fill="#FFFFFF" d="M537.255,63.171v32.277c0,3.831,0.883,6.795,2.648,8.894c1.765,2.099,4.43,3.147,7.994,3.147
		c2.599,0,5.047-0.615,7.345-1.849c2.299-1.231,4.413-2.947,6.346-5.146V63.171h8.894v50.614h-5.296
		c-1.267,0-2.066-0.616-2.398-1.849l-0.699-5.446c-2.199,2.432-4.664,4.39-7.396,5.871s-5.862,2.224-9.393,2.224
		c-2.766,0-5.205-0.459-7.32-1.374c-2.115-0.916-3.89-2.207-5.321-3.873c-1.433-1.665-2.507-3.68-3.223-6.045
		c-0.717-2.365-1.074-4.979-1.074-7.845V63.171H537.255z"/>
	<path fill="#FFFFFF" d="M597.014,47.282c0,0.867-0.175,1.674-0.524,2.423s-0.817,1.416-1.399,1.999
		c-0.583,0.583-1.258,1.042-2.023,1.374c-0.767,0.333-1.582,0.5-2.448,0.5s-1.674-0.166-2.424-0.5
		c-0.749-0.333-1.416-0.791-1.998-1.374c-0.583-0.583-1.042-1.249-1.374-1.999c-0.333-0.75-0.5-1.557-0.5-2.423
		c0-0.866,0.167-1.69,0.5-2.473c0.332-0.782,0.791-1.465,1.374-2.049c0.582-0.583,1.249-1.041,1.998-1.374
		c0.75-0.333,1.558-0.5,2.424-0.5s1.682,0.167,2.448,0.5c0.766,0.333,1.44,0.792,2.023,1.374c0.582,0.583,1.05,1.267,1.399,2.049
		C596.839,45.592,597.014,46.417,597.014,47.282z M595.015,63.171v50.614h-8.894V63.171H595.015z"/>
	<path fill="#FFFFFF" d="M646.329,113.785c-1.267,0-2.066-0.616-2.398-1.849l-0.8-6.146c-2.165,2.632-4.639,4.738-7.42,6.32
		s-5.971,2.373-9.567,2.373c-2.898,0-5.53-0.558-7.895-1.674c-2.366-1.115-4.381-2.756-6.046-4.921
		c-1.666-2.165-2.948-4.863-3.848-8.095c-0.899-3.23-1.349-6.945-1.349-11.142c0-3.73,0.499-7.203,1.499-10.418
		c0.999-3.214,2.439-6.003,4.321-8.369c1.882-2.365,4.173-4.222,6.87-5.571c2.698-1.349,5.763-2.023,9.194-2.023
		c3.098,0,5.745,0.525,7.944,1.574c2.198,1.049,4.163,2.523,5.896,4.422v-28.08h8.894v73.598H646.329z M629.09,107.29
		c2.898,0,5.438-0.666,7.62-1.999c2.181-1.332,4.188-3.214,6.021-5.646V75.163c-1.633-2.199-3.423-3.739-5.371-4.622
		c-1.949-0.882-4.105-1.324-6.471-1.324c-4.73,0-8.361,1.682-10.893,5.046c-2.531,3.365-3.797,8.161-3.797,14.39
		c0,3.297,0.282,6.12,0.85,8.469c0.565,2.349,1.398,4.28,2.498,5.796s2.448,2.623,4.047,3.322
		C625.193,106.94,627.025,107.29,629.09,107.29z"/>
	<path fill="#FFFFFF" d="M686.599,62.372c3.03,0,5.828,0.508,8.394,1.524c2.564,1.017,4.779,2.482,6.646,4.397
		c1.865,1.916,3.322,4.28,4.372,7.095c1.049,2.816,1.573,6.021,1.573,9.619c0,1.398-0.149,2.332-0.449,2.798
		c-0.3,0.467-0.866,0.699-1.699,0.699h-33.676c0.066,3.198,0.5,5.979,1.299,8.344c0.8,2.366,1.898,4.34,3.298,5.921
		c1.399,1.583,3.064,2.766,4.996,3.548c1.932,0.783,4.098,1.174,6.496,1.174c2.231,0,4.154-0.257,5.771-0.774
		c1.615-0.516,3.006-1.074,4.172-1.674s2.141-1.156,2.923-1.674c0.782-0.516,1.457-0.774,2.024-0.774
		c0.731,0,1.299,0.283,1.698,0.85l2.498,3.248c-1.099,1.332-2.415,2.49-3.947,3.473s-3.173,1.791-4.921,2.423
		c-1.749,0.633-3.557,1.107-5.422,1.424s-3.714,0.475-5.546,0.475c-3.497,0-6.72-0.592-9.668-1.773s-5.496-2.914-7.645-5.196
		c-2.148-2.281-3.822-5.104-5.021-8.469s-1.799-7.229-1.799-11.592c0-3.53,0.541-6.828,1.624-9.894
		c1.082-3.064,2.64-5.721,4.672-7.969c2.031-2.249,4.513-4.014,7.444-5.296C679.636,63.013,682.934,62.372,686.599,62.372z
		 M686.798,68.917c-4.297,0-7.678,1.241-10.143,3.722c-2.466,2.482-3.997,5.921-4.597,10.318h27.53c0-2.064-0.283-3.955-0.85-5.671
		c-0.566-1.715-1.398-3.198-2.498-4.447c-1.099-1.249-2.44-2.215-4.021-2.898C690.637,69.259,688.83,68.917,686.798,68.917z"/>
</g>
<g>
</g>
<g>
</g>
<g>
</g>
<g>
</g>
<g>
</g>
<g>
</g>
<g>
</g>
<g>
</g>
<g>
</g>
<g>
</g>
<g>
</g>
<g>
</g>
<g>
</g>
<g>
</g>
<g>
</g>
</svg>
