<?xml version="1.0" encoding="UTF-8" standalone="no"?>
<!-- Generator: Adobe Illustrator 16.0.0, SVG Export Plug-In . SVG Version: 6.00 Build 0)  -->

<svg
   xmlns:dc="http://purl.org/dc/elements/1.1/"
   xmlns:cc="http://creativecommons.org/ns#"
   xmlns:rdf="http://www.w3.org/1999/02/22-rdf-syntax-ns#"
   xmlns:svg="http://www.w3.org/2000/svg"
   xmlns="http://www.w3.org/2000/svg"
   xmlns:sodipodi="http://sodipodi.sourceforge.net/DTD/sodipodi-0.dtd"
   xmlns:inkscape="http://www.inkscape.org/namespaces/inkscape"
   version="1.1"
   id="Layer_1"
   x="0px"
   y="0px"
   viewBox="0 0 978.986 214.497"
   enable-background="new 0 0 978.986 214.497"
   xml:space="preserve"
   inkscape:version="0.48.5 r10040"
   width="100%"
   height="100%"
   sodipodi:docname="banner.svg"><metadata
     id="metadata99"><rdf:RDF><cc:Work
         rdf:about=""><dc:format>image/svg+xml</dc:format><dc:type
           rdf:resource="http://purl.org/dc/dcmitype/StillImage" /></cc:Work></rdf:RDF></metadata><defs
     id="defs97"><clipPath
       id="_clip1"><rect
         id="icon-only"
         x="0"
         y="0"
         width="1024"
         height="1024" /></clipPath></defs><sodipodi:namedview
     pagecolor="#ffffff"
     bordercolor="#666666"
     borderopacity="1"
     objecttolerance="10"
     gridtolerance="10"
     guidetolerance="10"
     inkscape:pageopacity="0"
     inkscape:pageshadow="2"
     inkscape:window-width="1680"
     inkscape:window-height="1035"
     id="namedview95"
     showgrid="false"
     inkscape:zoom="0.46226232"
     inkscape:cx="-207.8022"
     inkscape:cy="-268.54887"
     inkscape:window-x="-5"
     inkscape:window-y="-12"
     inkscape:window-maximized="1"
     inkscape:current-layer="Layer_1" /><rect
     x="84.29"
     y="176.803"
     fill="#333333"
     width="66.815"
     height="33.451"
     id="rect3" /><path
     fill="#333333"
     d="M226.475,0c4.927,0,8.919,3.969,8.919,8.868v164.307c0,4.896-3.992,8.868-8.919,8.868H8.916  c-4.924,0-8.916-3.973-8.916-8.868V8.868C0,3.969,3.992,0,8.916,0H226.475z"
     id="path5" /><rect
     x="12.663"
     y="12.246"
     fill="#0D2038"
     width="210.066"
     height="157.55"
     id="rect7" /><rect
     x="12.666"
     y="12.249"
     fill="#0D2038"
     width="210.062"
     height="12.337"
     id="rect9" /><g
     id="g11"><path
       fill="#0D2038"
       d="M24.308,18.415c0,1.841-1.493,3.336-3.333,3.336c-1.837,0-3.333-1.495-3.333-3.336   c0-1.835,1.495-3.33,3.333-3.33C22.816,15.084,24.308,16.58,24.308,18.415z"
       id="path13" /><path
       fill="#0D2038"
       d="M24.308,18.415c0,1.841-1.493,3.336-3.333,3.336c-1.837,0-3.333-1.495-3.333-3.336   c0-1.835,1.495-3.33,3.333-3.33C22.816,15.084,24.308,16.58,24.308,18.415z"
       id="path15" /></g><path
     fill="#0D2038"
     d="M33.536,18.415c0,1.841-1.492,3.336-3.333,3.336c-1.841,0-3.333-1.495-3.333-3.336  c0-1.835,1.492-3.33,3.333-3.33C32.043,15.084,33.536,16.58,33.536,18.415z"
     id="path17" /><path
     fill="#0D2038"
     d="M42.767,18.415c0,1.841-1.494,3.336-3.336,3.336s-3.333-1.495-3.333-3.336c0-1.835,1.492-3.33,3.333-3.33  C41.272,15.084,42.767,16.58,42.767,18.415z"
     id="path19" /><rect
     x="12.663"
     y="12.246"
     fill="#FFFFFF"
     width="210.066"
     height="157.55"
     id="rect21" /><rect
     x="12.666"
     y="12.249"
     opacity="0.8"
     fill="#D1CCE8"
     enable-background="new    "
     width="210.062"
     height="12.337"
     id="rect23" /><g
     id="g25"><path
       fill="#E27C3E"
       d="M24.308,18.415c0,1.841-1.493,3.336-3.333,3.336c-1.837,0-3.333-1.495-3.333-3.336   c0-1.835,1.495-3.33,3.333-3.33C22.816,15.084,24.308,16.58,24.308,18.415z"
       id="path27" /></g><path
     fill="#EFC849"
     d="M33.536,18.415c0,1.841-1.492,3.336-3.333,3.336c-1.841,0-3.333-1.495-3.333-3.336  c0-1.835,1.492-3.33,3.333-3.33C32.043,15.084,33.536,16.58,33.536,18.415z"
     id="path29" /><path
     fill="#1ABC9C"
     d="M42.767,18.415c0,1.841-1.494,3.336-3.336,3.336s-3.333-1.495-3.333-3.336c0-1.835,1.492-3.33,3.333-3.33  C41.272,15.084,42.767,16.58,42.767,18.415z"
     id="path31" /><path
     fill="#333333"
     d="M178.517,211.101c0,1.875-1.521,3.396-3.396,3.396H60.258c-1.875,0-3.396-1.521-3.396-3.396v-1.695  c0-1.875,1.521-3.396,3.396-3.396H175.12c1.875,0,3.396,1.521,3.396,3.396V211.101z"
     id="path33" /><g
     id="g35"><polygon
       fill="#60965A"
       points="84.02,69.354 71.646,56.977 49.976,78.647 49.937,78.61 37.563,90.984 37.602,91.021    37.563,91.061 49.937,103.435 49.976,103.398 71.646,125.066 84.02,112.692 62.349,91.021  "
       id="polygon37"
       style="fill:#3cb054;fill-opacity:1" /><polygon
       fill="#60965A"
       points="197.832,91.061 197.795,91.021 197.832,90.984 185.458,78.61 185.417,78.647 163.75,56.977    151.374,69.354 173.044,91.021 151.374,112.692 163.75,125.066 185.417,103.398 185.458,103.435  "
       id="polygon39"
       style="fill:#3cb054;fill-opacity:1" /><rect
       x="109.578"
       y="58.541"
       transform="matrix(0.8526 0.5226 -0.5226 0.8526 64.9091 -48.0928)"
       fill="#60965A"
       width="16.252"
       height="64.943"
       id="rect41"
       style="fill:#3cb054;fill-opacity:1" /></g><g
     id="g43"><path
       fill="#333333"
       d="M399.306,101.039c0,7.003-1.167,13.435-3.501,19.292c-2.335,5.859-5.616,10.902-9.844,15.13   c-4.229,4.229-9.316,7.51-15.262,9.844s-12.531,3.502-19.754,3.502h-36.47V53.271h36.47c7.223,0,13.808,1.179,19.754,3.535   c5.946,2.357,11.034,5.639,15.262,9.844c4.228,4.207,7.509,9.239,9.844,15.097C398.139,87.604,399.306,94.035,399.306,101.039z    M381.137,101.039c0-5.241-0.705-9.944-2.114-14.106c-1.41-4.162-3.414-7.686-6.012-10.571c-2.6-2.885-5.759-5.098-9.481-6.64   c-3.723-1.542-7.918-2.313-12.586-2.313h-18.565v67.259h18.565c4.668,0,8.863-0.771,12.586-2.313   c3.722-1.541,6.881-3.756,9.481-6.641c2.598-2.885,4.602-6.409,6.012-10.571C380.432,110.982,381.137,106.28,381.137,101.039z"
       id="path45" /><path
       fill="#333333"
       d="M440.334,79.962c4.271,0,8.203,0.684,11.793,2.048c3.589,1.366,6.683,3.359,9.282,5.979   c2.599,2.621,4.625,5.837,6.079,9.646c1.454,3.811,2.18,8.16,2.18,13.049c0,1.233-0.056,2.257-0.165,3.072   c-0.11,0.815-0.309,1.453-0.595,1.916c-0.287,0.463-0.672,0.793-1.156,0.991c-0.485,0.198-1.102,0.297-1.85,0.297h-41.887   c0.484,6.96,2.355,12.068,5.616,15.328c3.259,3.26,7.575,4.889,12.949,4.889c2.643,0,4.922-0.307,6.838-0.924   s3.589-1.299,5.021-2.049c1.431-0.748,2.687-1.432,3.766-2.049c1.079-0.615,2.125-0.924,3.138-0.924   c0.661,0,1.233,0.131,1.718,0.396c0.484,0.264,0.902,0.639,1.255,1.123l4.757,5.945c-1.807,2.115-3.832,3.889-6.078,5.318   c-2.247,1.432-4.592,2.578-7.037,3.436c-2.444,0.859-4.933,1.465-7.465,1.818c-2.534,0.352-4.988,0.527-7.367,0.527   c-4.714,0-9.096-0.781-13.148-2.346c-4.053-1.563-7.576-3.875-10.571-6.938c-2.996-3.061-5.352-6.848-7.069-11.363   c-1.718-4.514-2.577-9.745-2.577-15.691c0-4.625,0.749-8.974,2.247-13.049c1.497-4.074,3.644-7.62,6.442-10.637   c2.796-3.016,6.21-5.406,10.241-7.168C430.721,80.844,435.269,79.962,440.334,79.962z M440.665,91.657   c-4.757,0-8.479,1.344-11.166,4.03c-2.687,2.688-4.405,6.498-5.153,11.43h30.656c0-2.114-0.287-4.106-0.859-5.979   c-0.573-1.872-1.453-3.512-2.643-4.922c-1.189-1.409-2.687-2.521-4.493-3.336C445.201,92.064,443.086,91.657,440.665,91.657z"
       id="path47" /><path
       fill="#333333"
       d="M514.727,148.807h-14.8L472.971,81.02h13.544c1.189,0,2.19,0.287,3.006,0.859   c0.814,0.573,1.376,1.3,1.685,2.18l13.082,36.206c0.748,2.115,1.375,4.185,1.883,6.21c0.506,2.027,0.957,4.053,1.354,6.078   c0.396-2.025,0.848-4.051,1.355-6.078c0.506-2.025,1.156-4.096,1.948-6.21l13.411-36.206c0.309-0.88,0.859-1.607,1.652-2.18   c0.793-0.572,1.74-0.859,2.842-0.859h12.883L514.727,148.807z"
       id="path49" /><path
       fill="#333333"
       d="M577.095,79.962c4.271,0,8.203,0.684,11.793,2.048c3.59,1.366,6.684,3.359,9.283,5.979   c2.598,2.621,4.625,5.837,6.078,9.646c1.453,3.811,2.182,8.16,2.182,13.049c0,1.233-0.057,2.257-0.166,3.072   c-0.111,0.815-0.309,1.453-0.594,1.916c-0.287,0.463-0.674,0.793-1.156,0.991c-0.486,0.198-1.102,0.297-1.852,0.297h-41.887   c0.484,6.96,2.355,12.068,5.615,15.328s7.576,4.889,12.949,4.889c2.643,0,4.922-0.307,6.838-0.924s3.59-1.299,5.021-2.049   c1.432-0.748,2.688-1.432,3.766-2.049c1.08-0.615,2.125-0.924,3.139-0.924c0.662,0,1.232,0.131,1.719,0.396   c0.484,0.264,0.902,0.639,1.256,1.123l4.756,5.945c-1.807,2.115-3.832,3.889-6.078,5.318c-2.246,1.432-4.592,2.578-7.037,3.436   c-2.443,0.859-4.934,1.465-7.465,1.818c-2.533,0.352-4.988,0.527-7.367,0.527c-4.713,0-9.096-0.781-13.146-2.346   c-4.055-1.563-7.578-3.875-10.572-6.938c-2.996-3.061-5.352-6.848-7.068-11.363c-1.719-4.514-2.578-9.745-2.578-15.691   c0-4.625,0.75-8.974,2.246-13.049c1.498-4.074,3.645-7.62,6.443-10.637c2.797-3.016,6.209-5.406,10.24-7.168   C567.482,80.844,572.031,79.962,577.095,79.962z M577.425,91.657c-4.756,0-8.479,1.344-11.164,4.03   c-2.688,2.688-4.406,6.498-5.154,11.43h30.656c0-2.114-0.287-4.106-0.859-5.979c-0.572-1.872-1.453-3.512-2.643-4.922   c-1.189-1.409-2.688-2.521-4.492-3.336C581.962,92.064,579.847,91.657,577.425,91.657z"
       id="path51" /><path
       fill="#333333"
       d="M637.085,50.628v98.179h-16.32V50.628H637.085z"
       id="path53" /><path
       fill="#333333"
       d="M684.455,79.962c5.064,0,9.656,0.815,13.775,2.444c4.119,1.63,7.631,3.942,10.539,6.938   c2.906,2.996,5.152,6.651,6.738,10.967c1.586,4.317,2.379,9.14,2.379,14.469c0,5.374-0.793,10.219-2.379,14.536   s-3.832,7.994-6.738,11.033c-2.908,3.039-6.42,5.373-10.539,7.004c-4.119,1.629-8.711,2.443-13.775,2.443   s-9.668-0.814-13.809-2.443c-4.141-1.631-7.674-3.965-10.604-7.004s-5.197-6.717-6.805-11.033   c-1.609-4.316-2.412-9.162-2.412-14.536c0-5.329,0.803-10.152,2.412-14.469c1.607-4.316,3.875-7.972,6.805-10.967   c2.93-2.995,6.463-5.307,10.604-6.938C674.787,80.778,679.39,79.962,684.455,79.962z M684.455,137.244   c5.639,0,9.813-1.893,12.521-5.682c2.707-3.787,4.063-9.338,4.063-16.65c0-7.311-1.355-12.883-4.063-16.715   c-2.709-3.832-6.883-5.748-12.521-5.748c-5.727,0-9.955,1.928-12.686,5.781c-2.73,3.854-4.096,9.415-4.096,16.682   c0,7.267,1.365,12.808,4.096,16.617C674.5,135.34,678.728,137.244,684.455,137.244z"
       id="path55" /><path
       fill="#333333"
       d="M730.636,170.939V81.02h9.977c1.059,0,1.961,0.243,2.709,0.727c0.748,0.485,1.232,1.234,1.453,2.247   l1.322,6.276c2.73-3.127,5.869-5.659,9.414-7.598c3.545-1.938,7.697-2.907,12.455-2.907c3.699,0,7.08,0.771,10.141,2.313   c3.063,1.542,5.705,3.777,7.93,6.706c2.223,2.93,3.941,6.541,5.152,10.835s1.816,9.217,1.816,14.767   c0,5.065-0.684,9.756-2.047,14.073c-1.367,4.316-3.314,8.061-5.848,11.232c-2.533,3.17-5.594,5.648-9.184,7.432   s-7.609,2.676-12.057,2.676c-3.832,0-7.082-0.584-9.746-1.75c-2.666-1.168-5.055-2.785-7.168-4.857v27.75H730.636z M762.351,92.647   c-3.393,0-6.289,0.717-8.689,2.147c-2.4,1.432-4.635,3.447-6.705,6.045v30.392c1.85,2.291,3.865,3.887,6.045,4.789   c2.18,0.904,4.525,1.355,7.037,1.355c2.465,0,4.701-0.463,6.705-1.389c2.004-0.924,3.699-2.334,5.088-4.229   c1.387-1.893,2.455-4.283,3.203-7.168c0.75-2.885,1.123-6.287,1.123-10.208c0-3.964-0.318-7.322-0.957-10.076   c-0.639-2.752-1.553-4.988-2.742-6.706s-2.633-2.973-4.328-3.766S764.507,92.647,762.351,92.647z"
       id="path57" /><path
       fill="#333333"
       d="M833.373,79.962c4.271,0,8.203,0.684,11.793,2.048c3.59,1.366,6.684,3.359,9.283,5.979   c2.598,2.621,4.625,5.837,6.078,9.646c1.453,3.811,2.182,8.16,2.182,13.049c0,1.233-0.057,2.257-0.166,3.072   c-0.111,0.815-0.309,1.453-0.594,1.916c-0.287,0.463-0.674,0.793-1.156,0.991c-0.486,0.198-1.102,0.297-1.852,0.297h-41.887   c0.484,6.96,2.355,12.068,5.615,15.328s7.576,4.889,12.949,4.889c2.643,0,4.922-0.307,6.838-0.924s3.59-1.299,5.021-2.049   c1.432-0.748,2.688-1.432,3.766-2.049c1.08-0.615,2.125-0.924,3.139-0.924c0.662,0,1.232,0.131,1.719,0.396   c0.484,0.264,0.902,0.639,1.256,1.123l4.756,5.945c-1.807,2.115-3.832,3.889-6.078,5.318c-2.246,1.432-4.592,2.578-7.037,3.436   c-2.443,0.859-4.934,1.465-7.465,1.818c-2.533,0.352-4.988,0.527-7.367,0.527c-4.713,0-9.096-0.781-13.146-2.346   c-4.055-1.563-7.578-3.875-10.572-6.938c-2.996-3.061-5.352-6.848-7.068-11.363c-1.719-4.514-2.578-9.745-2.578-15.691   c0-4.625,0.75-8.974,2.246-13.049c1.498-4.074,3.645-7.62,6.443-10.637c2.797-3.016,6.209-5.406,10.24-7.168   C823.759,80.844,828.308,79.962,833.373,79.962z M833.703,91.657c-4.756,0-8.479,1.344-11.164,4.03   c-2.688,2.688-4.406,6.498-5.154,11.43h30.656c0-2.114-0.287-4.106-0.859-5.979c-0.572-1.872-1.453-3.512-2.643-4.922   c-1.189-1.409-2.688-2.521-4.492-3.336C838.24,92.064,836.125,91.657,833.703,91.657z"
       id="path59" /><path
       fill="#333333"
       d="M875.984,148.807V81.02h9.58c1.674,0,2.842,0.309,3.502,0.925c0.662,0.617,1.102,1.674,1.322,3.171   l0.99,8.192c2.422-4.184,5.264-7.487,8.523-9.91c3.26-2.422,6.914-3.634,10.967-3.634c3.348,0,6.123,0.771,8.324,2.313   l-2.113,12.223c-0.133,0.793-0.42,1.354-0.859,1.685c-0.439,0.331-1.035,0.496-1.783,0.496c-0.66,0-1.564-0.154-2.709-0.462   c-1.146-0.308-2.666-0.462-4.559-0.462c-3.393,0-6.299,0.936-8.721,2.808c-2.424,1.873-4.471,4.615-6.145,8.226v42.219H875.984z"
       id="path61" /><path
       fill="#333333"
       d="M970.199,94.233c-0.441,0.705-0.904,1.2-1.389,1.486c-0.484,0.287-1.102,0.43-1.85,0.43   c-0.793,0-1.641-0.22-2.543-0.661c-0.904-0.44-1.949-0.936-3.139-1.487c-1.189-0.55-2.543-1.046-4.063-1.486   c-1.52-0.44-3.314-0.661-5.385-0.661c-3.217,0-5.748,0.683-7.598,2.048c-1.852,1.366-2.775,3.15-2.775,5.352   c0,1.454,0.473,2.676,1.42,3.667c0.947,0.991,2.203,1.861,3.766,2.61c1.564,0.749,3.338,1.42,5.318,2.015   c1.982,0.595,4.008,1.245,6.08,1.949c2.068,0.705,4.096,1.509,6.078,2.412c1.98,0.903,3.754,2.048,5.318,3.436   c1.563,1.387,2.818,3.05,3.766,4.988c0.947,1.939,1.42,4.273,1.42,7.003c0,3.26-0.594,6.266-1.783,9.018   c-1.189,2.754-2.93,5.133-5.219,7.137c-2.291,2.004-5.121,3.566-8.49,4.689s-7.234,1.686-11.596,1.686   c-2.336,0-4.615-0.209-6.838-0.627c-2.225-0.42-4.361-1.002-6.408-1.752c-2.049-0.748-3.943-1.629-5.684-2.643   c-1.74-1.012-3.27-2.113-4.592-3.303l3.768-6.211c0.484-0.748,1.057-1.322,1.717-1.719c0.66-0.395,1.498-0.594,2.512-0.594   c1.012,0,1.971,0.287,2.873,0.859s1.949,1.189,3.139,1.85s2.586,1.277,4.195,1.85c1.607,0.572,3.645,0.859,6.111,0.859   c1.938,0,3.602-0.232,4.988-0.693c1.387-0.463,2.531-1.068,3.436-1.818c0.902-0.748,1.563-1.617,1.982-2.609   c0.418-0.99,0.627-2.014,0.627-3.072c0-1.586-0.475-2.883-1.42-3.897c-0.947-1.013-2.203-1.894-3.766-2.643   c-1.564-0.749-3.348-1.421-5.352-2.015c-2.006-0.596-4.053-1.245-6.145-1.95c-2.094-0.704-4.141-1.53-6.145-2.478   c-2.006-0.947-3.789-2.147-5.352-3.601c-1.564-1.454-2.82-3.238-3.766-5.352c-0.949-2.114-1.422-4.668-1.422-7.664   c0-2.775,0.551-5.418,1.652-7.928c1.1-2.511,2.719-4.702,4.855-6.574c2.137-1.872,4.801-3.369,7.994-4.493   c3.193-1.123,6.883-1.685,11.066-1.685c4.67,0,8.92,0.771,12.752,2.313c3.832,1.542,7.025,3.567,9.58,6.078L970.199,94.233z"
       id="path63" /></g><g
     id="g65" /><g
     id="g67" /><g
     id="g69" /><g
     id="g71" /><g
     id="g73" /><g
     id="g75" /><g
     id="g77" /><g
     id="g79" /><g
     id="g81" /><g
     id="g83" /><g
     id="g85" /><g
     id="g87" /><g
     id="g89" /><g
     id="g91" /><g
     id="g93" /></svg>