<?xml version="1.0" encoding="utf-8"?>
<!-- Generator: Adobe Illustrator 16.0.0, SVG Export Plug-In . SVG Version: 6.00 Build 0)  -->
<!DOCTYPE svg PUBLIC "-//W3C//DTD SVG 1.1//EN" "http://www.w3.org/Graphics/SVG/1.1/DTD/svg11.dtd">
<svg version="1.1" id="Layer_1" xmlns="http://www.w3.org/2000/svg" xmlns:xlink="http://www.w3.org/1999/xlink" x="0px" y="0px"
	 viewBox="0 0 922.163 200.761" enable-background="new 0 0 922.163 200.761"
	 xml:space="preserve">
<g>
	<g>
		<path fill="#333333" d="M58.911,77.688C26.371,77.688,0,104.06,0,136.61c0,32.548,26.377,58.913,58.911,58.913
			c32.545,0,58.924-26.365,58.924-58.913C117.835,104.06,91.451,77.688,58.911,77.688z M58.911,184.425
			c-26.37,0-47.825-21.43-47.825-47.826c0-26.367,21.455-47.834,47.825-47.834c26.375,0,47.835,21.454,47.835,47.834
			C106.741,162.984,85.286,184.425,58.911,184.425z"/>
		<g>
			<path fill="#60965A" d="M58.911,182.303c-25.199,0-45.7-20.492-45.7-45.681c0-25.21,20.5-45.719,45.7-45.719
				c25.2,0,45.703,20.509,45.703,45.719C104.614,161.811,84.111,182.303,58.911,182.303z"/>
			<path fill="#FFFFFF" d="M58.911,93.971c23.511,0,42.635,19.123,42.635,42.651c0,23.506-19.124,42.611-42.635,42.611
				c-23.506,0-42.631-19.105-42.631-42.611C16.28,113.107,35.405,93.971,58.911,93.971 M58.911,87.834
				c-26.891,0-48.768,21.887-48.768,48.788c0,26.88,21.877,48.749,48.768,48.749c26.893,0,48.771-21.869,48.771-48.749
				C107.682,109.721,85.804,87.834,58.911,87.834L58.911,87.834z"/>
		</g>
		<path id="path4934_13_" fill="#FFFFFF" d="M62.745,105.121c-0.81,0-1.639,0.012-2.476,0.035h-8.634h-9.677v48.02H40.27v7.155
			h1.688v10.555h8.63v-10.555h1.047v10.555h8.634v-10.555h1.431v-7.155h-1.431v-7.771l3.756,0.02c7.514,0,14.1,0.557,19.793-6.866
			c2.206-3.265,3.573-7.104,3.938-10.981c0.754-7.86-2.508-15.92-10.79-19.959C73.428,105.8,68.455,105.132,62.745,105.121
			L62.745,105.121z M50.583,112.224h1.044v23.992v7.1v9.852h-1.044v-9.852v-7.1V112.224z M60.263,112.224
			c17.054,0.613,23.64,10.534,20.332,19.382c-0.935,2.474-1.927,3.818-4.02,5.222c0.082-0.344,0.17-0.723,0.237-1.074
			c1.24-6.918-1.103-15.226-12.571-19.82c9.115,5.258,12.798,14.612,8.545,20.654c-7.241,1.121-12.529-4.877-12.529-11.781v-12.582
			H60.263z"/>
	</g>
	<g>
		<path fill="#333333" d="M117.829,62.917c-32.54,0-58.911,26.371-58.911,58.921c0,32.548,26.377,58.913,58.911,58.913
			c32.545,0,58.925-26.365,58.925-58.913C176.753,89.288,150.369,62.917,117.829,62.917z M117.829,169.654
			c-26.37,0-47.825-21.43-47.825-47.826c0-26.367,21.455-47.834,47.825-47.834c26.374,0,47.835,21.454,47.835,47.834
			C165.659,148.212,144.203,169.654,117.829,169.654z"/>
		<g>
			<path fill="#60965A" d="M117.829,167.532c-25.199,0-45.7-20.492-45.7-45.681c0-25.21,20.5-45.719,45.7-45.719
				c25.2,0,45.702,20.509,45.702,45.719C163.531,147.04,143.029,167.532,117.829,167.532z"/>
			<path fill="#FFFFFF" d="M117.829,79.2c23.511,0,42.635,19.123,42.635,42.651c0,23.506-19.124,42.611-42.635,42.611
				c-23.506,0-42.631-19.105-42.631-42.611C75.197,98.335,94.323,79.2,117.829,79.2 M117.829,73.063
				c-26.891,0-48.768,21.887-48.768,48.788c0,26.88,21.877,48.749,48.768,48.749c26.894,0,48.771-21.869,48.771-48.749
				C166.599,94.95,144.722,73.063,117.829,73.063L117.829,73.063z"/>
		</g>
		<path id="path4934_1_" fill="#FFFFFF" d="M121.662,90.349c-0.81,0-1.639,0.012-2.476,0.035h-8.634h-9.677v48.02h-1.688v7.155
			h1.688v10.555h8.63v-10.555h1.047v10.555h8.634v-10.555h1.431v-7.155h-1.431v-7.771l3.757,0.02c7.514,0,14.1,0.557,19.793-6.866
			c2.205-3.265,3.572-7.104,3.938-10.981c0.754-7.86-2.508-15.92-10.79-19.959C132.345,91.029,127.373,90.361,121.662,90.349
			L121.662,90.349z M109.5,97.453h1.044v23.992v7.1v9.852H109.5v-9.852v-7.1V97.453z M119.18,97.453
			c17.054,0.613,23.64,10.534,20.331,19.382c-0.935,2.474-1.926,3.818-4.02,5.222c0.082-0.344,0.17-0.723,0.237-1.074
			c1.239-6.918-1.103-15.226-12.571-19.82c9.115,5.258,12.798,14.612,8.545,20.654c-7.24,1.121-12.529-4.877-12.529-11.781V97.453
			H119.18z"/>
	</g>
	<g>
		<path fill="#333333" d="M76.821,4C44.281,4,17.91,30.371,17.91,62.921c0,32.548,26.377,58.913,58.911,58.913
			c32.545,0,58.925-26.365,58.925-58.913C135.746,30.371,109.361,4,76.821,4z M76.821,110.737c-26.37,0-47.825-21.43-47.825-47.827
			c0-26.367,21.455-47.834,47.825-47.834c26.374,0,47.835,21.454,47.835,47.834C124.651,89.295,103.195,110.737,76.821,110.737z"/>
		<g>
			<path fill="#60965A" d="M76.821,108.615c-25.199,0-45.7-20.492-45.7-45.681c0-25.21,20.5-45.719,45.7-45.719
				c25.2,0,45.702,20.509,45.702,45.719C122.523,88.123,102.021,108.615,76.821,108.615z"/>
			<path fill="#FFFFFF" d="M76.821,20.283c23.511,0,42.635,19.123,42.635,42.651c0,23.506-19.124,42.612-42.635,42.612
				c-23.506,0-42.631-19.105-42.631-42.612C34.189,39.418,53.315,20.283,76.821,20.283 M76.821,14.146
				c-26.891,0-48.768,21.887-48.768,48.788c0,26.88,21.877,48.75,48.768,48.75c26.894,0,48.771-21.869,48.771-48.75
				C125.591,36.033,103.714,14.146,76.821,14.146L76.821,14.146z"/>
		</g>
		<path id="path4934_2_" fill="#FFFFFF" d="M80.654,31.432c-0.81,0-1.639,0.013-2.476,0.036h-8.634h-9.677v48.019H58.18v7.155h1.688
			v10.555h8.63V86.642h1.047v10.555h8.634V86.642h1.431v-7.155h-1.431v-7.771l3.757,0.02c7.514,0,14.1,0.557,19.793-6.866
			c2.205-3.264,3.572-7.104,3.938-10.982c0.754-7.86-2.508-15.919-10.79-19.958C91.337,32.112,86.365,31.443,80.654,31.432
			L80.654,31.432z M68.493,38.536h1.044v23.992v7.1v9.852h-1.044v-9.852v-7.1V38.536z M78.172,38.536
			c17.054,0.614,23.64,10.534,20.331,19.382c-0.935,2.473-1.926,3.818-4.02,5.222c0.082-0.344,0.17-0.722,0.237-1.075
			c1.239-6.917-1.103-15.225-12.571-19.819c9.115,5.258,12.798,14.612,8.545,20.653c-7.24,1.122-12.529-4.877-12.529-11.78V38.536
			H78.172z"/>
	</g>
</g>
<g>
	<rect x="744.163" y="1.761" fill="#333333" width="178" height="199"/>
	<g>
		<g>
			<g>
				<path fill="#FFFFFF" d="M759.468,176.807l13.441-7.01v2.987c0,0.227-0.057,0.433-0.169,0.62
					c-0.113,0.187-0.301,0.348-0.561,0.483l-6.161,3.157c-0.26,0.136-0.534,0.252-0.823,0.348c-0.288,0.096-0.597,0.184-0.925,0.263
					c0.328,0.079,0.637,0.167,0.925,0.264c0.289,0.096,0.563,0.212,0.823,0.348l6.161,3.174c0.26,0.136,0.447,0.297,0.561,0.483
					c0.112,0.187,0.169,0.394,0.169,0.619v2.987l-13.441-7.026V176.807z"/>
				<path fill="#FFFFFF" d="M780.496,189.146c-0.103,0.261-0.232,0.486-0.391,0.679s-0.34,0.354-0.543,0.484
					c-0.204,0.13-0.419,0.229-0.646,0.297c-0.226,0.067-0.446,0.102-0.661,0.102h-1.766l9.912-25.356
					c0.192-0.476,0.469-0.84,0.831-1.095s0.798-0.382,1.308-0.382h1.781L780.496,189.146z"/>
				<path fill="#FFFFFF" d="M793.818,185.531v-2.987c0-0.226,0.057-0.433,0.17-0.619c0.112-0.187,0.3-0.348,0.56-0.483l6.161-3.174
					c0.498-0.249,1.08-0.452,1.748-0.611c-0.328-0.079-0.637-0.167-0.925-0.263c-0.289-0.096-0.563-0.212-0.823-0.348l-6.161-3.157
					c-0.26-0.136-0.447-0.297-0.56-0.483c-0.113-0.188-0.17-0.394-0.17-0.62v-2.987l13.442,7.01v1.697L793.818,185.531z"/>
			</g>
		</g>
		<g>
			<g>
				<path fill="#FFFFFF" d="M759.468,21.779l13.441-7.009v2.987c0,0.226-0.057,0.433-0.169,0.619
					c-0.113,0.187-0.301,0.348-0.561,0.484l-6.161,3.157c-0.26,0.136-0.534,0.252-0.823,0.348c-0.288,0.096-0.597,0.184-0.925,0.263
					c0.328,0.08,0.637,0.167,0.925,0.263c0.289,0.096,0.563,0.212,0.823,0.348l6.161,3.174c0.26,0.136,0.447,0.297,0.561,0.483
					c0.112,0.187,0.169,0.394,0.169,0.62v2.987l-13.441-7.027V21.779z"/>
				<path fill="#FFFFFF" d="M819.988,30.503v-2.987c0-0.226,0.057-0.433,0.17-0.62c0.112-0.187,0.3-0.348,0.56-0.483l6.161-3.174
					c0.498-0.249,1.08-0.453,1.748-0.611c-0.328-0.079-0.637-0.167-0.925-0.263c-0.289-0.096-0.563-0.212-0.823-0.348l-6.161-3.157
					c-0.26-0.136-0.447-0.297-0.56-0.484c-0.113-0.187-0.17-0.393-0.17-0.619V14.77l13.442,7.009v1.697L819.988,30.503z"/>
			</g>
			<rect x="777.163" y="15.761" fill="#FFFFFF" width="39" height="13"/>
		</g>
		<g>
			<rect x="778.163" y="48.761" fill="#FFFFFF" width="59" height="13"/>
			<rect x="841.163" y="48.761" fill="#60965A" width="30" height="13"/>
			<rect x="797.163" y="66.761" fill="#60965A" width="54" height="13"/>
			<rect x="856.163" y="66.761" fill="#FFFFFF" width="32" height="13"/>
			<rect x="892.163" y="66.761" fill="#FFFFFF" width="7" height="13"/>
			<rect x="797.163" y="84.761" fill="#FFFFFF" width="19" height="13"/>
			<rect x="821.163" y="84.761" fill="#FFFFFF" width="31" height="13"/>
			<rect x="856.163" y="84.761" fill="#60965A" width="27" height="13"/>
			<rect x="822.163" y="101.761" fill="#60965A" width="44" height="12"/>
			<rect x="779.163" y="117.761" fill="#FFFFFF" width="59" height="13"/>
			<rect x="779.163" y="134.761" fill="#60965A" width="54" height="13"/>
		</g>
	</g>
</g>
<g>
	<path fill="#333333" d="M251.427,102.507v18.324h-9.684V68.775h16.956c3.479,0,6.492,0.409,9.036,1.224
		c2.544,0.816,4.644,1.957,6.3,3.42c1.656,1.464,2.88,3.216,3.672,5.256s1.188,4.272,1.188,6.696c0,2.52-0.42,4.83-1.26,6.93
		c-0.84,2.1-2.101,3.906-3.78,5.418c-1.68,1.512-3.78,2.688-6.3,3.528c-2.52,0.84-5.472,1.26-8.856,1.26H251.427z M251.427,94.948
		h7.272c1.776,0,3.324-0.222,4.644-0.666c1.319-0.444,2.412-1.08,3.276-1.908c0.864-0.828,1.512-1.836,1.944-3.024
		s0.648-2.514,0.648-3.978c0-1.392-0.216-2.652-0.648-3.78c-0.432-1.127-1.08-2.088-1.944-2.88
		c-0.864-0.792-1.957-1.397-3.276-1.818c-1.32-0.419-2.868-0.63-4.644-0.63h-7.272V94.948z"/>
	<path fill="#333333" d="M300.099,83.319c2.328,0,4.47,0.373,6.426,1.116c1.956,0.744,3.642,1.831,5.058,3.258
		c1.416,1.428,2.52,3.181,3.312,5.256c0.792,2.076,1.188,4.446,1.188,7.11c0,0.672-0.03,1.23-0.09,1.674
		c-0.061,0.444-0.168,0.792-0.324,1.044c-0.156,0.252-0.366,0.432-0.63,0.54c-0.265,0.108-0.6,0.162-1.008,0.162h-22.824
		c0.264,3.792,1.284,6.576,3.06,8.352c1.776,1.776,4.127,2.664,7.056,2.664c1.44,0,2.682-0.167,3.726-0.504
		c1.044-0.336,1.956-0.708,2.736-1.116c0.779-0.408,1.463-0.78,2.052-1.116c0.588-0.336,1.158-0.504,1.71-0.504
		c0.36,0,0.672,0.072,0.936,0.216c0.264,0.144,0.492,0.348,0.684,0.612l2.592,3.24c-0.984,1.152-2.088,2.118-3.312,2.898
		c-1.224,0.779-2.502,1.403-3.834,1.871c-1.332,0.469-2.688,0.798-4.068,0.99c-1.38,0.191-2.718,0.288-4.014,0.288
		c-2.569,0-4.957-0.427-7.164-1.278c-2.208-0.852-4.128-2.111-5.76-3.78c-1.632-1.668-2.916-3.731-3.852-6.192
		c-0.936-2.46-1.404-5.31-1.404-8.55c0-2.52,0.408-4.89,1.224-7.11c0.815-2.22,1.985-4.152,3.51-5.796
		c1.524-1.644,3.384-2.946,5.58-3.906S297.339,83.319,300.099,83.319z M300.279,89.691c-2.592,0-4.62,0.732-6.084,2.196
		s-2.4,3.54-2.808,6.228h16.704c0-1.152-0.156-2.238-0.468-3.258c-0.312-1.02-0.792-1.914-1.44-2.682s-1.464-1.374-2.448-1.818
		C302.75,89.914,301.599,89.691,300.279,89.691z"/>
	<path fill="#333333" d="M338.582,83.319c2.328,0,4.47,0.373,6.426,1.116c1.956,0.744,3.642,1.831,5.058,3.258
		c1.416,1.428,2.52,3.181,3.312,5.256c0.792,2.076,1.188,4.446,1.188,7.11c0,0.672-0.03,1.23-0.09,1.674
		c-0.061,0.444-0.168,0.792-0.324,1.044c-0.156,0.252-0.366,0.432-0.63,0.54c-0.265,0.108-0.6,0.162-1.008,0.162H329.69
		c0.264,3.792,1.284,6.576,3.06,8.352c1.776,1.776,4.127,2.664,7.056,2.664c1.44,0,2.682-0.167,3.726-0.504
		c1.044-0.336,1.956-0.708,2.736-1.116c0.779-0.408,1.463-0.78,2.052-1.116c0.588-0.336,1.158-0.504,1.71-0.504
		c0.36,0,0.672,0.072,0.936,0.216c0.264,0.144,0.492,0.348,0.684,0.612l2.592,3.24c-0.984,1.152-2.088,2.118-3.312,2.898
		c-1.224,0.779-2.502,1.403-3.834,1.871c-1.332,0.469-2.688,0.798-4.068,0.99c-1.38,0.191-2.718,0.288-4.014,0.288
		c-2.569,0-4.957-0.427-7.164-1.278c-2.208-0.852-4.128-2.111-5.76-3.78c-1.632-1.668-2.916-3.731-3.852-6.192
		c-0.936-2.46-1.404-5.31-1.404-8.55c0-2.52,0.408-4.89,1.224-7.11c0.815-2.22,1.985-4.152,3.51-5.796
		c1.524-1.644,3.384-2.946,5.58-3.906S335.822,83.319,338.582,83.319z M338.762,89.691c-2.592,0-4.62,0.732-6.084,2.196
		s-2.4,3.54-2.808,6.228h16.704c0-1.152-0.156-2.238-0.468-3.258c-0.312-1.02-0.792-1.914-1.44-2.682s-1.464-1.374-2.448-1.818
		C341.233,89.914,340.082,89.691,338.762,89.691z"/>
	<path fill="#333333" d="M361.801,120.832V83.896h5.22c0.912,0,1.548,0.168,1.908,0.504c0.36,0.336,0.6,0.913,0.72,1.728l0.54,4.464
		c1.319-2.28,2.868-4.08,4.644-5.4c1.775-1.319,3.768-1.98,5.976-1.98c1.824,0,3.336,0.42,4.536,1.26l-1.152,6.66
		c-0.072,0.432-0.229,0.738-0.468,0.918c-0.24,0.18-0.564,0.27-0.972,0.27c-0.36,0-0.852-0.083-1.476-0.252
		c-0.625-0.167-1.453-0.252-2.484-0.252c-1.849,0-3.433,0.51-4.752,1.53c-1.32,1.02-2.437,2.514-3.348,4.482v23.004H361.801z"/>
	<path fill="#60965A" d="M420.373,101.211h6.552v5.148c0,0.48-0.156,0.895-0.468,1.242c-0.313,0.348-0.769,0.522-1.368,0.522h-4.716
		v12.708h-7.776v-12.708h-21.96c-0.6,0-1.128-0.186-1.584-0.558c-0.456-0.372-0.744-0.833-0.864-1.386l-0.9-4.5l24.66-32.94h8.424
		V101.211z M412.597,84.184c0-0.768,0.023-1.596,0.072-2.484c0.048-0.888,0.132-1.812,0.252-2.772l-16.164,22.284h15.84V84.184z"/>
	<path fill="#333333" d="M458.928,91.708c-0.265,0.336-0.522,0.6-0.774,0.792c-0.252,0.192-0.618,0.288-1.098,0.288
		c-0.456,0-0.9-0.138-1.332-0.414c-0.432-0.275-0.948-0.588-1.548-0.936c-0.601-0.348-1.314-0.66-2.142-0.936
		c-0.828-0.275-1.854-0.414-3.078-0.414c-1.561,0-2.929,0.283-4.104,0.846c-1.176,0.564-2.154,1.374-2.934,2.43
		c-0.78,1.056-1.362,2.334-1.746,3.834c-0.385,1.5-0.576,3.198-0.576,5.094c0,1.968,0.21,3.72,0.63,5.256
		c0.42,1.536,1.026,2.826,1.818,3.87s1.751,1.836,2.88,2.376c1.128,0.54,2.399,0.81,3.815,0.81s2.563-0.174,3.438-0.522
		c0.876-0.348,1.614-0.732,2.214-1.152s1.122-0.804,1.566-1.152c0.443-0.348,0.941-0.522,1.494-0.522c0.72,0,1.26,0.276,1.619,0.828
		l2.557,3.24c-0.984,1.152-2.052,2.118-3.204,2.898c-1.152,0.779-2.347,1.403-3.582,1.871c-1.236,0.469-2.515,0.798-3.834,0.99
		c-1.32,0.191-2.628,0.288-3.924,0.288c-2.28,0-4.429-0.427-6.444-1.278s-3.774-2.094-5.274-3.726
		c-1.5-1.632-2.688-3.63-3.564-5.994c-0.876-2.364-1.314-5.058-1.314-8.082c0-2.712,0.39-5.226,1.17-7.542
		c0.78-2.316,1.926-4.32,3.438-6.012c1.512-1.692,3.384-3.018,5.616-3.978c2.231-0.96,4.8-1.44,7.704-1.44
		c2.76,0,5.178,0.445,7.254,1.332c2.075,0.888,3.941,2.16,5.598,3.816L458.928,91.708z"/>
	<path fill="#333333" d="M483.082,83.319c2.76,0,5.262,0.445,7.507,1.332c2.243,0.888,4.157,2.148,5.741,3.78
		c1.584,1.632,2.809,3.624,3.673,5.976c0.863,2.352,1.296,4.98,1.296,7.884c0,2.928-0.433,5.568-1.296,7.92
		c-0.864,2.353-2.089,4.356-3.673,6.012c-1.584,1.656-3.498,2.928-5.741,3.816c-2.245,0.888-4.747,1.332-7.507,1.332
		s-5.268-0.444-7.523-1.332s-4.183-2.16-5.778-3.816c-1.596-1.656-2.832-3.66-3.708-6.012c-0.876-2.352-1.313-4.992-1.313-7.92
		c0-2.904,0.438-5.532,1.313-7.884s2.112-4.344,3.708-5.976c1.596-1.632,3.522-2.892,5.778-3.78
		C477.814,83.764,480.322,83.319,483.082,83.319z M483.082,114.532c3.072,0,5.347-1.032,6.822-3.096
		c1.477-2.064,2.214-5.088,2.214-9.072s-0.737-7.02-2.214-9.108c-1.476-2.088-3.75-3.132-6.822-3.132c-3.12,0-5.424,1.05-6.911,3.15
		c-1.489,2.101-2.232,5.13-2.232,9.09c0,3.96,0.743,6.978,2.232,9.054C477.658,113.494,479.962,114.532,483.082,114.532z"/>
	<path fill="#333333" d="M508.246,120.832V83.896h5.437c1.151,0,1.907,0.54,2.268,1.62l0.576,2.736
		c0.647-0.72,1.325-1.38,2.034-1.98c0.707-0.6,1.463-1.116,2.268-1.548c0.804-0.432,1.668-0.774,2.592-1.026
		c0.924-0.252,1.938-0.378,3.042-0.378c2.328,0,4.242,0.63,5.742,1.89c1.5,1.26,2.622,2.934,3.366,5.022
		c0.576-1.224,1.296-2.273,2.16-3.15c0.863-0.876,1.812-1.59,2.844-2.142c1.031-0.552,2.13-0.959,3.294-1.224
		c1.164-0.264,2.334-0.396,3.51-0.396c2.04,0,3.853,0.313,5.437,0.936c1.584,0.625,2.916,1.536,3.996,2.736s1.901,2.664,2.466,4.392
		c0.563,1.728,0.846,3.708,0.846,5.94v23.508h-8.892V97.324c0-2.352-0.517-4.122-1.548-5.31c-1.032-1.188-2.545-1.782-4.536-1.782
		c-0.913,0-1.759,0.156-2.538,0.468c-0.78,0.312-1.465,0.762-2.053,1.35c-0.588,0.588-1.05,1.327-1.386,2.214
		c-0.336,0.888-0.504,1.908-0.504,3.06v23.508h-8.928V97.324c0-2.472-0.498-4.272-1.494-5.4c-0.996-1.127-2.466-1.692-4.41-1.692
		c-1.272,0-2.466,0.318-3.582,0.954c-1.116,0.636-2.154,1.506-3.114,2.61v27.036H508.246z"/>
	<path fill="#333333" d="M568.87,120.832V83.896h5.437c1.151,0,1.907,0.54,2.268,1.62l0.576,2.736c0.647-0.72,1.325-1.38,2.034-1.98
		c0.707-0.6,1.463-1.116,2.268-1.548c0.804-0.432,1.668-0.774,2.592-1.026c0.924-0.252,1.938-0.378,3.042-0.378
		c2.328,0,4.242,0.63,5.742,1.89c1.5,1.26,2.622,2.934,3.366,5.022c0.576-1.224,1.296-2.273,2.16-3.15
		c0.863-0.876,1.812-1.59,2.844-2.142c1.031-0.552,2.13-0.959,3.294-1.224c1.164-0.264,2.334-0.396,3.51-0.396
		c2.04,0,3.853,0.313,5.437,0.936c1.584,0.625,2.916,1.536,3.996,2.736s1.901,2.664,2.466,4.392c0.563,1.728,0.846,3.708,0.846,5.94
		v23.508h-8.892V97.324c0-2.352-0.517-4.122-1.548-5.31c-1.032-1.188-2.545-1.782-4.536-1.782c-0.913,0-1.759,0.156-2.538,0.468
		c-0.78,0.312-1.465,0.762-2.053,1.35c-0.588,0.588-1.05,1.327-1.386,2.214c-0.336,0.888-0.504,1.908-0.504,3.06v23.508h-8.928
		V97.324c0-2.472-0.498-4.272-1.494-5.4c-0.996-1.127-2.466-1.692-4.41-1.692c-1.272,0-2.466,0.318-3.582,0.954
		c-1.116,0.636-2.154,1.506-3.114,2.61v27.036H568.87z"/>
	<path fill="#333333" d="M640.294,73.131c0,0.769-0.156,1.489-0.468,2.16c-0.313,0.672-0.727,1.26-1.242,1.764
		c-0.517,0.504-1.122,0.906-1.817,1.206c-0.697,0.3-1.44,0.45-2.232,0.45c-0.769,0-1.494-0.149-2.178-0.45
		c-0.685-0.3-1.278-0.702-1.782-1.206s-0.906-1.092-1.206-1.764c-0.301-0.671-0.45-1.392-0.45-2.16c0-0.792,0.149-1.536,0.45-2.232
		c0.3-0.696,0.702-1.296,1.206-1.8s1.098-0.906,1.782-1.206c0.684-0.3,1.409-0.45,2.178-0.45c0.792,0,1.535,0.15,2.232,0.45
		c0.695,0.3,1.301,0.702,1.817,1.206c0.516,0.504,0.93,1.104,1.242,1.8C640.138,71.596,640.294,72.339,640.294,73.131z
		 M638.962,83.896v36.936h-8.892V83.896H638.962z"/>
	<path fill="#333333" d="M661.138,121.408c-3.192,0-5.651-0.906-7.38-2.719c-1.728-1.811-2.592-4.313-2.592-7.505V90.556h-3.744
		c-0.48,0-0.895-0.156-1.242-0.468c-0.348-0.312-0.521-0.779-0.521-1.404v-3.528l5.939-0.972l1.872-10.08
		c0.096-0.48,0.318-0.852,0.666-1.116c0.348-0.264,0.786-0.396,1.314-0.396h4.607V84.22h9.721v6.336h-9.721v20.016
		c0,1.152,0.288,2.052,0.864,2.7s1.344,0.972,2.304,0.972c0.552,0,1.014-0.066,1.387-0.198c0.371-0.131,0.695-0.27,0.972-0.414
		c0.275-0.144,0.521-0.282,0.738-0.414c0.216-0.132,0.432-0.198,0.647-0.198c0.264,0,0.48,0.066,0.648,0.198
		c0.167,0.132,0.348,0.33,0.54,0.594l2.664,4.32c-1.296,1.08-2.785,1.896-4.465,2.448S662.938,121.408,661.138,121.408z"/>
</g>
<g>
</g>
<g>
</g>
<g>
</g>
<g>
</g>
<g>
</g>
<g>
</g>
<g>
</g>
<g>
</g>
<g>
</g>
<g>
</g>
<g>
</g>
<g>
</g>
<g>
</g>
<g>
</g>
<g>
</g>
</svg>
