<?xml version="1.0" encoding="UTF-8" standalone="no"?>
<!DOCTYPE svg PUBLIC "-//W3C//DTD SVG 1.1//EN" "http://www.w3.org/Graphics/SVG/1.1/DTD/svg11.dtd">
<svg width="100%" height="100%" viewBox="0 0 1024 241" version="1.1" xmlns="http://www.w3.org/2000/svg" xmlns:xlink="http://www.w3.org/1999/xlink" xml:space="preserve" style="fill-rule:evenodd;clip-rule:evenodd;stroke-linejoin:round;stroke-miterlimit:1.41421;">
    <g transform="matrix(1,0,0,1,-1074,-0)">
        <g id="text-only" transform="matrix(1,1.44946e-16,8.34986e-17,0.235156,0,-1.55672e-13)">
            <clipPath id="_clip1">
                <rect x="1074" y="0" width="1024" height="1024"/>
            </clipPath>
            <g clip-path="url(#_clip1)">
                <g id="white-text" transform="matrix(2.49786,-1.53964e-15,-8.86932e-16,10.6221,-4647.62,4274.15)">
                    <g transform="matrix(9.0408,0,0,9.0408,-1582.05,-6398.15)">
                        <path d="M431.408,665.556C430.586,665.556 430.01,665.886 429.608,666.39L429.608,665.706L428.354,665.706L428.354,673.854L429.608,673.854L429.608,670.77C430.01,671.274 430.586,671.604 431.408,671.604C433.016,671.604 434.282,670.338 434.282,668.58C434.282,666.822 433.016,665.556 431.408,665.556ZM431.258,666.738C432.338,666.738 432.992,667.572 432.992,668.58C432.992,669.588 432.338,670.422 431.258,670.422C430.226,670.422 429.524,669.63 429.524,668.58C429.524,667.53 430.226,666.738 431.258,666.738Z" style="fill:white;fill-rule:nonzero;"/>
                    </g>
                    <g transform="matrix(9.0408,0,0,9.0408,-1584.05,-6398.15)">
                        <path d="M438.284,665.556C436.592,665.556 435.422,666.78 435.422,668.58C435.422,670.404 436.634,671.604 438.362,671.604C439.232,671.604 440.024,671.394 440.726,670.794L440.102,669.9C439.622,670.284 439.016,670.506 438.44,670.506C437.63,670.506 436.892,670.074 436.73,669.042L440.978,669.042C440.996,668.898 441.002,668.736 441.002,668.574C441.002,666.78 439.886,665.556 438.284,665.556ZM438.26,666.672C439.058,666.672 439.58,667.194 439.718,668.088L436.736,668.088C436.862,667.248 437.366,666.672 438.26,666.672Z" style="fill:white;fill-rule:nonzero;"/>
                    </g>
                    <g transform="matrix(9.0408,0,0,9.0408,-1586.05,-6398.15)">
                        <path d="M445.004,665.556C443.312,665.556 442.142,666.78 442.142,668.58C442.142,670.404 443.354,671.604 445.082,671.604C445.952,671.604 446.744,671.394 447.446,670.794L446.822,669.9C446.342,670.284 445.736,670.506 445.16,670.506C444.35,670.506 443.612,670.074 443.45,669.042L447.698,669.042C447.716,668.898 447.722,668.736 447.722,668.574C447.722,666.78 446.606,665.556 445.004,665.556ZM444.98,666.672C445.778,666.672 446.3,667.194 446.438,668.088L443.456,668.088C443.582,667.248 444.086,666.672 444.98,666.672Z" style="fill:white;fill-rule:nonzero;"/>
                    </g>
                    <g transform="matrix(9.0408,0,0,9.0408,-1590.05,-6398.15)">
                        <path d="M452.186,665.556C451.484,665.556 450.902,665.802 450.518,666.354L450.518,665.706L449.276,665.706L449.276,671.454L450.53,671.454L450.53,668.292C450.53,667.308 451.1,666.75 451.898,666.75C452.204,666.75 452.588,666.822 452.852,666.96L453.152,665.718C452.864,665.604 452.57,665.556 452.186,665.556Z" style="fill:white;fill-rule:nonzero;"/>
                    </g>
                    <g transform="matrix(9.0408,0,0,9.0408,-1594.05,-6398.15)">
                        <path d="M456.8,665.556C454.976,665.556 453.776,666.858 453.776,668.58C453.776,670.302 454.976,671.604 456.8,671.604C457.664,671.604 458.42,671.292 458.948,670.686L458.174,669.822C457.808,670.164 457.316,670.422 456.764,670.422C455.798,670.422 455.066,669.666 455.066,668.58C455.066,667.494 455.798,666.738 456.764,666.738C457.316,666.738 457.736,666.948 458.144,667.332L458.948,666.474C458.438,665.868 457.664,665.556 456.8,665.556Z" style="fill:white;fill-rule:nonzero;"/>
                    </g>
                    <g transform="matrix(9.0408,0,0,9.0408,-1597.05,-6398.15)">
                        <path d="M462.908,665.556C461.132,665.556 459.818,666.858 459.818,668.58C459.818,670.302 461.132,671.604 462.908,671.604C464.684,671.604 466.004,670.302 466.004,668.58C466.004,666.858 464.684,665.556 462.908,665.556ZM462.908,666.738C463.934,666.738 464.714,667.494 464.714,668.58C464.714,669.666 463.934,670.422 462.908,670.422C461.882,670.422 461.108,669.666 461.108,668.58C461.108,667.494 461.882,666.738 462.908,666.738Z" style="fill:white;fill-rule:nonzero;"/>
                    </g>
                    <g transform="matrix(9.0408,0,0,9.0408,-1601.05,-6398.15)">
                        <rect x="467.558" y="665.706" width="1.26" height="5.748" style="fill:white;fill-rule:nonzero;"/>
                    </g>
                    <g transform="matrix(9.0408,0,0,9.0408,-1604.05,-6398.15)">
                        <path d="M473.798,665.556C473.21,665.556 472.496,665.736 472.034,666.408L472.034,665.706L470.786,665.706L470.786,671.454L472.046,671.454L472.046,668.268C472.046,667.284 472.724,666.75 473.534,666.75C474.38,666.75 474.872,667.29 474.872,668.256L474.872,671.454L476.132,671.454L476.132,667.842C476.132,666.498 475.166,665.556 473.798,665.556Z" style="fill:white;fill-rule:nonzero;"/>
                    </g>
                    <g id="path3439" transform="matrix(0.6187,0,0,0.6187,2314.24,-790.375)">
                        <path d="M498.091,627.11C519.524,627.878 527.79,640.34 523.641,651.462C522.465,654.557 521.216,656.251 518.589,658.016C518.696,657.57 518.806,657.121 518.889,656.665C520.444,647.988 517.498,637.547 503.094,631.78C514.554,638.387 519.179,650.143 513.835,657.732C504.739,659.117 498.091,651.591 498.091,642.921L498.091,627.11Z" style="fill:rgb(60,176,84);fill-rule:nonzero;"/>
                    </g>
                </g>
            </g>
        </g>
    </g>
</svg>
