<?xml version="1.0" encoding="UTF-8" standalone="no"?>
<!-- Generator: Adobe Illustrator 16.0.0, SVG Export Plug-In . SVG Version: 6.00 Build 0)  -->

<svg
   xmlns:dc="http://purl.org/dc/elements/1.1/"
   xmlns:cc="http://creativecommons.org/ns#"
   xmlns:rdf="http://www.w3.org/1999/02/22-rdf-syntax-ns#"
   xmlns:svg="http://www.w3.org/2000/svg"
   xmlns="http://www.w3.org/2000/svg"
   xmlns:sodipodi="http://sodipodi.sourceforge.net/DTD/sodipodi-0.dtd"
   xmlns:inkscape="http://www.inkscape.org/namespaces/inkscape"
   version="1.1"
   id="Layer_1"
   x="0px"
   y="0px"
   viewBox="52 16.079 826.735 187.16"
   enable-background="new 52 16.079 826.735 187.16"
   xml:space="preserve"
   inkscape:version="0.48.5 r10040"
   width="100%"
   height="100%"
   sodipodi:docname="banner.svg"><metadata
     id="metadata45"><rdf:RDF><cc:Work
         rdf:about=""><dc:format>image/svg+xml</dc:format><dc:type
           rdf:resource="http://purl.org/dc/dcmitype/StillImage" /></cc:Work></rdf:RDF></metadata><defs
     id="defs43"><clipPath
       id="_clip1"><rect
         id="icon-only"
         x="0"
         y="0"
         width="1024"
         height="1024" /></clipPath></defs><sodipodi:namedview
     pagecolor="#ffffff"
     bordercolor="#666666"
     borderopacity="1"
     objecttolerance="10"
     gridtolerance="10"
     guidetolerance="10"
     inkscape:pageopacity="0"
     inkscape:pageshadow="2"
     inkscape:window-width="1680"
     inkscape:window-height="1035"
     id="namedview41"
     showgrid="false"
     inkscape:zoom="2.189569"
     inkscape:cx="124.52957"
     inkscape:cy="246.38377"
     inkscape:window-x="-5"
     inkscape:window-y="-12"
     inkscape:window-maximized="1"
     inkscape:current-layer="Layer_1" /><rect
     x="239.158"
     y="16.079"
     fill="#333333"
     width="5.898"
     height="187.16"
     id="rect3" /><rect
     x="52"
     y="107.916"
     fill="#333333"
     width="187.158"
     height="5.898"
     id="rect5" /><rect
     x="179"
     y="43.04"
     fill="#333333"
     width="23.984"
     height="58.978"
     id="rect7" /><rect
     x="208.884"
     y="22.988"
     fill="#333333"
     width="24.377"
     height="79.032"
     id="rect9" /><rect
     x="148.725"
     y="62.699"
     fill="#333333"
     width="24.378"
     height="39.32"
     id="rect11" /><rect
     x="94.071"
     y="119.319"
     fill="#333333"
     width="23.985"
     height="58.979"
     id="rect13" /><rect
     x="63.796"
     y="119.319"
     fill="#333333"
     width="24.378"
     height="79.031"
     id="rect15" /><rect
     x="123.954"
     y="119.319"
     fill="#333333"
     width="24.377"
     height="39.318"
     id="rect17" /><polygon
     fill="#60965A"
     points="131.425,27.706 131.425,33.604 141.799,33.604 102.309,72.996 90.416,61.055 63.873,87.573   68.043,91.731 90.416,69.352 102.309,81.242 102.319,81.211 102.224,81.224 145.972,37.38 145.972,48.152 151.87,48.152   151.87,27.706 "
     id="polygon19"
     style="fill:#3cb054;fill-opacity:1" /><g
     id="g21"><path
       fill="#333333"
       d="M335.611,153.21h-18.816V52.432h18.816V153.21z"
       id="path23" /><path
       fill="#333333"
       d="M357.285,153.21V81.704h10.524c2.229,0,3.694,1.045,4.391,3.136l1.186,5.646   c1.438-1.487,2.962-2.833,4.564-4.042c1.604-1.208,3.298-2.253,5.088-3.136c1.788-0.882,3.705-1.557,5.75-2.021   c2.044-0.464,4.274-0.697,6.691-0.697c3.903,0,7.364,0.662,10.384,1.986c3.021,1.324,5.541,3.184,7.563,5.576   c2.021,2.394,3.554,5.251,4.6,8.572c1.045,3.322,1.568,6.98,1.568,10.977v45.511h-17.215V107.7c0-4.367-1.011-7.747-3.032-10.141   s-5.053-3.589-9.095-3.589c-2.975,0-5.763,0.674-8.364,2.021c-2.604,1.348-5.064,3.183-7.388,5.506v51.713H357.285L357.285,153.21z   "
       id="path25" /><path
       fill="#333333"
       d="M469.843,153.21h-15.611l-28.436-71.507h14.288c1.254,0,2.311,0.303,3.171,0.906   c0.858,0.604,1.451,1.371,1.776,2.3l13.8,38.192c0.79,2.229,1.452,4.415,1.986,6.552c0.533,2.138,1.01,4.275,1.429,6.412   c0.418-2.137,0.895-4.274,1.43-6.412c0.532-2.137,1.219-4.321,2.056-6.552l14.147-38.192c0.324-0.929,0.905-1.696,1.741-2.3   c0.837-0.604,1.835-0.906,2.997-0.906h13.592L469.843,153.21z"
       id="path27" /><path
       fill="#333333"
       d="M535.635,80.588c4.507,0,8.652,0.722,12.439,2.161c3.787,1.441,7.052,3.543,9.793,6.309   c2.74,2.765,4.878,6.156,6.411,10.175c1.533,4.02,2.3,8.606,2.3,13.765c0,1.301-0.059,2.382-0.174,3.241   c-0.116,0.86-0.325,1.533-0.627,2.021c-0.303,0.487-0.709,0.836-1.22,1.045c-0.512,0.209-1.162,0.313-1.952,0.313H518.42   c0.511,7.342,2.483,12.731,5.924,16.169c3.438,3.439,7.99,5.157,13.66,5.157c2.787,0,5.191-0.324,7.213-0.976   c2.021-0.65,3.787-1.37,5.297-2.16s2.834-1.511,3.973-2.161c1.139-0.649,2.241-0.977,3.312-0.977c0.696,0,1.301,0.141,1.813,0.418   c0.511,0.279,0.951,0.676,1.324,1.187l5.018,6.271c-1.904,2.23-4.042,4.102-6.411,5.61c-2.369,1.511-4.845,2.718-7.423,3.624   c-2.579,0.906-5.204,1.544-7.876,1.917c-2.672,0.371-5.262,0.558-7.771,0.558c-4.974,0-9.596-0.825-13.869-2.475   c-4.275-1.648-7.992-4.088-11.151-7.318c-3.16-3.229-5.646-7.224-7.458-11.986c-1.812-4.763-2.718-10.279-2.718-16.553   c0-4.879,0.79-9.467,2.37-13.765c1.579-4.297,3.844-8.038,6.795-11.221c2.95-3.183,6.552-5.703,10.803-7.563   C525.494,81.519,530.291,80.588,535.635,80.588z M535.984,92.924c-5.018,0-8.944,1.418-11.778,4.251   c-2.835,2.835-4.646,6.854-5.437,12.058h32.339c0-2.23-0.303-4.332-0.906-6.308c-0.604-1.975-1.533-3.704-2.788-5.191   c-1.254-1.486-2.834-2.659-4.738-3.521C540.769,93.354,538.538,92.924,535.984,92.924z"
       id="path29" /><path
       fill="#333333"
       d="M623.03,95.643c-0.465,0.744-0.952,1.267-1.463,1.567c-0.513,0.304-1.162,0.453-1.952,0.453   c-0.836,0-1.73-0.231-2.683-0.697c-0.953-0.464-2.057-0.986-3.312-1.567c-1.255-0.58-2.684-1.104-4.285-1.568   c-1.604-0.464-3.497-0.696-5.682-0.696c-3.392,0-6.063,0.721-8.015,2.159c-1.951,1.441-2.928,3.323-2.928,5.646   c0,1.533,0.499,2.823,1.499,3.868c0.997,1.045,2.321,1.963,3.973,2.753c1.647,0.791,3.52,1.498,5.61,2.125   c2.09,0.627,4.228,1.313,6.411,2.056c2.184,0.744,4.32,1.592,6.411,2.544c2.092,0.953,3.961,2.16,5.611,3.624   c1.648,1.463,2.973,3.218,3.972,5.262c0.999,2.045,1.499,4.508,1.499,7.389c0,3.438-0.627,6.608-1.882,9.513   s-3.091,5.413-5.506,7.527c-2.417,2.113-5.401,3.764-8.956,4.947c-3.555,1.185-7.632,1.777-12.23,1.777   c-2.464,0-4.867-0.221-7.214-0.662s-4.601-1.057-6.761-1.847s-4.159-1.719-5.994-2.788c-1.836-1.068-3.449-2.23-4.844-3.484   l3.973-6.552c0.512-0.789,1.115-1.394,1.813-1.813c0.697-0.418,1.579-0.627,2.647-0.627s2.079,0.303,3.031,0.905   c0.952,0.604,2.058,1.255,3.312,1.951c1.255,0.697,2.729,1.349,4.426,1.952c1.695,0.604,3.845,0.905,6.447,0.905   c2.044,0,3.798-0.243,5.262-0.731s2.671-1.126,3.624-1.917c0.952-0.789,1.648-1.707,2.091-2.753   c0.441-1.045,0.662-2.125,0.662-3.24c0-1.673-0.5-3.043-1.498-4.111c-1-1.068-2.324-1.997-3.973-2.788   c-1.65-0.789-3.532-1.498-5.646-2.125c-2.115-0.628-4.274-1.313-6.48-2.058c-2.208-0.742-4.368-1.613-6.481-2.612   c-2.115-0.999-3.997-2.266-5.646-3.799c-1.65-1.532-2.976-3.415-3.974-5.645c-1-2.23-1.499-4.925-1.499-8.085   c0-2.927,0.581-5.715,1.743-8.363c1.16-2.647,2.868-4.959,5.122-6.935c2.253-1.975,5.063-3.556,8.434-4.739   c3.368-1.185,7.26-1.777,11.675-1.777c4.924,0,9.407,0.813,13.45,2.439c4.042,1.627,7.41,3.764,10.105,6.412L623.03,95.643z"
       id="path31" /><path
       fill="#333333"
       d="M664.986,154.326c-6.18,0-10.94-1.753-14.287-5.262c-3.346-3.508-5.018-8.353-5.018-14.531V94.597h-7.249   c-0.93,0-1.731-0.303-2.404-0.906c-0.674-0.604-1.011-1.509-1.011-2.718v-6.83l11.5-1.882l3.624-19.516   c0.186-0.929,0.615-1.647,1.289-2.161c0.674-0.511,1.521-0.767,2.544-0.767h8.921V82.33h18.818v12.267h-18.818v38.75   c0,2.229,0.558,3.973,1.673,5.228c1.115,1.254,2.603,1.882,4.461,1.882c1.068,0,1.962-0.128,2.684-0.384   c0.72-0.255,1.348-0.522,1.882-0.801c0.534-0.279,1.011-0.546,1.429-0.802s0.837-0.385,1.255-0.385c0.512,0,0.93,0.129,1.254,0.385   c0.325,0.256,0.675,0.639,1.047,1.148l5.156,8.363c-2.509,2.091-5.391,3.671-8.642,4.739   C671.839,153.791,668.471,154.326,664.986,154.326z"
       id="path33" /><path
       fill="#333333"
       d="M725.967,80.588c5.343,0,10.187,0.86,14.531,2.579c4.345,1.721,8.05,4.159,11.116,7.318   c3.066,3.16,5.437,7.016,7.108,11.569c1.673,4.554,2.509,9.642,2.509,15.263c0,5.669-0.836,10.779-2.509,15.333   s-4.042,8.433-7.108,11.639s-6.771,5.669-11.116,7.389c-4.346,1.719-9.188,2.578-14.531,2.578c-5.344,0-10.199-0.859-14.565-2.578   c-4.368-1.72-8.097-4.183-11.187-7.389c-3.092-3.206-5.482-7.085-7.18-11.639c-1.696-4.554-2.544-9.664-2.544-15.333   c0-5.622,0.849-10.709,2.544-15.263c1.696-4.554,4.088-8.409,7.18-11.569c3.09-3.159,6.817-5.599,11.187-7.318   C715.768,81.449,720.625,80.588,725.967,80.588z M725.967,141.014c5.946,0,10.351-1.997,13.208-5.994   c2.856-3.995,4.286-9.851,4.286-17.563c0-7.712-1.43-13.59-4.286-17.633c-2.857-4.043-7.262-6.063-13.208-6.063   c-6.04,0-10.501,2.032-13.381,6.098c-2.883,4.065-4.321,9.932-4.321,17.598s1.438,13.51,4.321,17.528   C715.466,139.004,719.927,141.014,725.967,141.014z"
       id="path35" /><path
       fill="#333333"
       d="M774.685,153.21V81.704h10.104c1.766,0,2.997,0.326,3.693,0.977c0.697,0.65,1.161,1.767,1.396,3.346   l1.045,8.642c2.555-4.414,5.552-7.897,8.99-10.455c3.438-2.555,7.294-3.833,11.569-3.833c3.53,0,6.457,0.813,8.781,2.439   l-2.23,12.894c-0.14,0.836-0.441,1.43-0.905,1.777c-0.466,0.349-1.093,0.523-1.883,0.523c-0.695,0-1.648-0.162-2.856-0.488   c-1.208-0.325-2.813-0.488-4.81-0.488c-3.577,0-6.646,0.988-9.199,2.962c-2.557,1.977-4.717,4.868-6.481,8.678v44.534   L774.685,153.21L774.685,153.21z"
       id="path37" /><path
       fill="#333333"
       d="M874.068,95.643c-0.465,0.744-0.952,1.267-1.463,1.567c-0.513,0.304-1.162,0.453-1.952,0.453   c-0.836,0-1.73-0.231-2.683-0.697c-0.953-0.464-2.058-0.986-3.312-1.567c-1.255-0.58-2.684-1.104-4.285-1.568   c-1.604-0.464-3.498-0.696-5.682-0.696c-3.392,0-6.063,0.721-8.015,2.159c-1.951,1.441-2.929,3.323-2.929,5.646   c0,1.533,0.5,2.823,1.5,3.868c0.997,1.045,2.321,1.963,3.973,2.753c1.647,0.791,3.52,1.498,5.609,2.125s4.229,1.313,6.412,2.056   c2.184,0.744,4.32,1.592,6.411,2.544c2.091,0.953,3.961,2.16,5.611,3.624c1.647,1.463,2.973,3.218,3.972,5.262   c0.999,2.045,1.499,4.508,1.499,7.389c0,3.438-0.627,6.608-1.882,9.513s-3.091,5.413-5.506,7.527   c-2.417,2.113-5.401,3.764-8.956,4.947c-3.555,1.185-7.632,1.777-12.231,1.777c-2.463,0-4.867-0.221-7.213-0.662   c-2.347-0.441-4.601-1.057-6.761-1.847s-4.159-1.719-5.994-2.788c-1.836-1.068-3.449-2.23-4.844-3.484l3.973-6.552   c0.511-0.789,1.115-1.394,1.813-1.813c0.697-0.418,1.579-0.627,2.647-0.627s2.079,0.303,3.031,0.905   c0.952,0.604,2.058,1.255,3.312,1.951c1.255,0.697,2.729,1.349,4.426,1.952c1.695,0.604,3.845,0.905,6.447,0.905   c2.043,0,3.798-0.243,5.262-0.731s2.671-1.126,3.624-1.917c0.952-0.789,1.647-1.707,2.091-2.753   c0.441-1.045,0.662-2.125,0.662-3.24c0-1.673-0.5-3.043-1.498-4.111c-1-1.068-2.324-1.997-3.973-2.788   c-1.65-0.789-3.532-1.498-5.646-2.125c-2.115-0.628-4.275-1.313-6.48-2.058c-2.209-0.742-4.368-1.613-6.481-2.612   c-2.115-0.999-3.997-2.266-5.646-3.799c-1.65-1.532-2.976-3.415-3.974-5.645c-1-2.23-1.499-4.925-1.499-8.085   c0-2.927,0.581-5.715,1.743-8.363c1.16-2.647,2.868-4.959,5.122-6.935c2.253-1.975,5.063-3.556,8.434-4.739   c3.368-1.185,7.26-1.777,11.674-1.777c4.925,0,9.408,0.813,13.451,2.439c4.042,1.627,7.41,3.764,10.105,6.412L874.068,95.643z"
       id="path39" /></g></svg>