<?xml version="1.0" encoding="utf-8"?>
<!-- Generator: Adobe Illustrator 16.0.0, SVG Export Plug-In . SVG Version: 6.00 Build 0)  -->
<!DOCTYPE svg PUBLIC "-//W3C//DTD SVG 1.1//EN" "http://www.w3.org/Graphics/SVG/1.1/DTD/svg11.dtd">
<svg version="1.1" id="Layer_1" xmlns="http://www.w3.org/2000/svg" xmlns:xlink="http://www.w3.org/1999/xlink" x="0px" y="0px"
	 viewBox="0 0 480.564 376.675" enable-background="new 0 0 480.564 376.675"
	 xml:space="preserve">
<g>
	<path fill-rule="evenodd" clip-rule="evenodd" fill="#333333" d="M448.445,2.708c4.303,2.781,8.865,5.235,12.859,8.405
		c13.26,10.521,18.633,24.888,19.219,41.349c0.354,9.908-1.547,19.333-6.723,27.944c-3.4,5.655-8.092,9.996-14.035,12.714
		c-14.852,6.792-29.836,13.285-44.693,20.063c-2.668,1.217-3.76,0.347-4.764-1.934c-7.811-17.742-15.678-35.459-23.49-53.202
		c-5.018-11.395-9.977-22.818-15.018-34.361c0.064-0.059,0.291-0.378,0.602-0.515c15.938-7.082,31.832-14.271,47.854-21.158
		c6.684-2.871,13.756-2.189,20.748-0.913c1.537,0.28,3.109,0.367,4.666,0.543C446.596,1.999,447.52,2.353,448.445,2.708z"/>
	<path fill-rule="evenodd" clip-rule="evenodd" fill="#333333" d="M301.59,27.107c15.057-6.798,29.67-13.396,44.455-20.073
		c20.385,45.967,40.863,92.151,61.201,138.013c-14.461,6.44-29.229,13.019-44.344,19.752c-2.68-6.179-5.664-12.827-8.436-19.563
		c-1.031-2.505-2.23-3.082-4.793-1.989c-15.344,6.545-30.746,12.95-46.123,19.416c-41.709,17.534-83.381,35.159-125.173,52.493
		c-4.667,1.934-9.981,2.811-15.063,3.146c-15.318,1.018-30.661,1.814-46.007,2.121c-9.315,0.185-18.653-0.693-27.98-1.104
		c-3.459-0.151-6.001-1.352-7.367-4.967c-1.82-4.82-4.367-9.367-6.129-14.203c-0.55-1.513-0.201-4.101,0.801-5.316
		c10.462-12.691,20.727-25.594,31.9-37.64c8.166-8.804,17.174-16.979,26.646-24.355c5.828-4.539,13.145-7.244,19.951-10.438
		c39.089-18.344,78.225-36.585,117.342-54.87c11.988-5.603,23.932-11.304,35.971-16.796c2.527-1.152,2.992-2.281,1.791-4.771
		C307.131,39.531,304.266,32.984,301.59,27.107z M264.603,152.557c45.203-18.572-4.759,2.902,40.308-16.001
		c11.627-4.878,23.283-9.689,34.975-14.415c2.443-0.988,3.234-2.026,2.045-4.664c-6.713-14.876-13.277-29.818-19.912-44.73
		c-0.242-0.54-0.701-0.984-1.143-1.59c-0.881,0.295-1.713,0.485-2.469,0.84c-55.24,25.855-110.482,51.71-165.686,77.638
		c-2.647,1.243-5.372,2.756-7.404,4.796"/>
</g>
<g>
	<path fill="#333333" d="M75.57,225.519C33.829,225.519,0,259.347,0,301.103c0,41.752,33.836,75.572,75.57,75.572
		c41.749,0,75.587-33.82,75.587-75.572C151.157,259.347,117.311,225.519,75.57,225.519z M75.57,362.438
		c-33.827,0-61.349-27.488-61.349-61.35c0-33.823,27.522-61.361,61.349-61.361c33.833,0,61.363,27.521,61.363,61.361
		C136.926,334.935,109.403,362.438,75.57,362.438z"/>
	<g>
		<path fill="#60965A" d="M75.57,359.717c-32.324,0-58.622-26.288-58.622-58.599c0-32.338,26.298-58.647,58.622-58.647
			c32.327,0,58.627,26.31,58.627,58.647C134.197,333.429,107.897,359.717,75.57,359.717z"/>
		<path fill="#FFFFFF" d="M75.57,246.405c30.161,0,54.691,24.531,54.691,54.712c0,30.153-24.531,54.663-54.691,54.663
			c-30.152,0-54.687-24.51-54.687-54.663C20.883,270.952,45.417,246.405,75.57,246.405 M75.57,238.534
			c-34.494,0-62.558,28.075-62.558,62.583c0,34.482,28.064,62.535,62.558,62.535c34.498,0,62.563-28.054,62.563-62.535
			C138.133,266.609,110.068,238.534,75.57,238.534L75.57,238.534z"/>
	</g>
	<path id="path4934_13_" fill="#FFFFFF" d="M80.487,260.708c-1.038,0-2.103,0.016-3.176,0.046H66.236H53.822v61.599h-2.165v9.178
		h2.165v13.541h11.071V331.53h1.343v13.541h11.075V331.53h1.836v-9.18h-1.836v-9.969l4.819,0.025c9.639,0,18.086,0.715,25.391-8.808
		c2.829-4.187,4.583-9.113,5.05-14.087c0.967-10.083-3.216-20.422-13.84-25.603C94.191,261.581,87.813,260.723,80.487,260.708
		L80.487,260.708z M64.887,269.82h1.34v30.776v9.107v12.638h-1.34v-12.638v-9.107V269.82z M77.304,269.82
		c21.877,0.787,30.325,13.513,26.081,24.862c-1.199,3.173-2.471,4.898-5.157,6.698c0.105-0.44,0.219-0.926,0.305-1.378
		c1.59-8.873-1.415-19.531-16.126-25.424c11.692,6.744,16.417,18.744,10.962,26.494c-9.289,1.438-16.073-6.257-16.073-15.112V269.82
		H77.304z"/>
</g>
<g>
</g>
<g>
</g>
<g>
</g>
<g>
</g>
<g>
</g>
<g>
</g>
<g>
</g>
<g>
</g>
<g>
</g>
<g>
</g>
<g>
</g>
<g>
</g>
<g>
</g>
<g>
</g>
<g>
</g>
</svg>
