<?xml version="1.0" encoding="UTF-8" standalone="no"?>
<!-- Generator: Adobe Illustrator 16.0.0, SVG Export Plug-In . SVG Version: 6.00 Build 0)  -->

<svg
   xmlns:dc="http://purl.org/dc/elements/1.1/"
   xmlns:cc="http://creativecommons.org/ns#"
   xmlns:rdf="http://www.w3.org/1999/02/22-rdf-syntax-ns#"
   xmlns:svg="http://www.w3.org/2000/svg"
   xmlns="http://www.w3.org/2000/svg"
   xmlns:sodipodi="http://sodipodi.sourceforge.net/DTD/sodipodi-0.dtd"
   xmlns:inkscape="http://www.inkscape.org/namespaces/inkscape"
   version="1.1"
   id="Layer_1"
   x="0px"
   y="0px"
   viewBox="0 0 480.564 376.675"
   enable-background="new 0 0 480.564 376.675"
   xml:space="preserve"
   inkscape:version="0.48.5 r10040"
   width="100%"
   height="100%"
   sodipodi:docname="limited.svg"><metadata
     id="metadata54"><rdf:RDF><cc:Work
         rdf:about=""><dc:format>image/svg+xml</dc:format><dc:type
           rdf:resource="http://purl.org/dc/dcmitype/StillImage" /></cc:Work></rdf:RDF></metadata><defs
     id="defs52"><clipPath
       id="_clip1"><rect
         id="icon-only"
         x="0"
         y="0"
         width="1024"
         height="1024" /></clipPath></defs><sodipodi:namedview
     pagecolor="#ffffff"
     bordercolor="#666666"
     borderopacity="1"
     objecttolerance="10"
     gridtolerance="10"
     guidetolerance="10"
     inkscape:pageopacity="0"
     inkscape:pageshadow="2"
     inkscape:window-width="1680"
     inkscape:window-height="1035"
     id="namedview50"
     showgrid="false"
     inkscape:zoom="1.2530696"
     inkscape:cx="309.14923"
     inkscape:cy="45.668826"
     inkscape:window-x="-5"
     inkscape:window-y="-12"
     inkscape:window-maximized="1"
     inkscape:current-layer="Layer_1" /><g
     id="g3"><path
       fill-rule="evenodd"
       clip-rule="evenodd"
       fill="#333333"
       d="M448.445,2.708c4.303,2.781,8.865,5.235,12.859,8.405   c13.26,10.521,18.633,24.888,19.219,41.349c0.354,9.908-1.547,19.333-6.723,27.944c-3.4,5.655-8.092,9.996-14.035,12.714   c-14.852,6.792-29.836,13.285-44.693,20.063c-2.668,1.217-3.76,0.347-4.764-1.934c-7.811-17.742-15.678-35.459-23.49-53.202   c-5.018-11.395-9.977-22.818-15.018-34.361c0.064-0.059,0.291-0.378,0.602-0.515c15.938-7.082,31.832-14.271,47.854-21.158   c6.684-2.871,13.756-2.189,20.748-0.913c1.537,0.28,3.109,0.367,4.666,0.543C446.596,1.999,447.52,2.353,448.445,2.708z"
       id="path5" /><path
       fill-rule="evenodd"
       clip-rule="evenodd"
       fill="#333333"
       d="M301.59,27.107c15.057-6.798,29.67-13.396,44.455-20.073   c20.385,45.967,40.863,92.151,61.201,138.013c-14.461,6.44-29.229,13.019-44.344,19.752c-2.68-6.179-5.664-12.827-8.436-19.563   c-1.031-2.505-2.23-3.082-4.793-1.989c-15.344,6.545-30.746,12.95-46.123,19.416c-41.709,17.534-83.381,35.159-125.173,52.493   c-4.667,1.934-9.981,2.811-15.063,3.146c-15.318,1.018-30.661,1.814-46.007,2.121c-9.315,0.185-18.653-0.693-27.98-1.104   c-3.459-0.151-6.001-1.352-7.367-4.967c-1.82-4.82-4.367-9.367-6.129-14.203c-0.55-1.513-0.201-4.101,0.801-5.316   c10.462-12.691,20.727-25.594,31.9-37.64c8.166-8.804,17.174-16.979,26.646-24.355c5.828-4.539,13.145-7.244,19.951-10.438   c39.089-18.344,78.225-36.585,117.342-54.87c11.988-5.603,23.932-11.304,35.971-16.796c2.527-1.152,2.992-2.281,1.791-4.771   C307.131,39.531,304.266,32.984,301.59,27.107z M264.603,152.557c45.203-18.572-4.759,2.902,40.308-16.001   c11.627-4.878,23.283-9.689,34.975-14.415c2.443-0.988,3.234-2.026,2.045-4.664c-6.713-14.876-13.277-29.818-19.912-44.73   c-0.242-0.54-0.701-0.984-1.143-1.59c-0.881,0.295-1.713,0.485-2.469,0.84c-55.24,25.855-110.482,51.71-165.686,77.638   c-2.647,1.243-5.372,2.756-7.404,4.796"
       id="path7" /></g><path
     style="fill:#333333"
     inkscape:connector-curvature="0"
     id="path11"
     d="M 75.57,225.519 C 33.829,225.519 0,259.347 0,301.103 c 0,41.752 33.836,75.572 75.57,75.572 41.749,0 75.587,-33.82 75.587,-75.572 0,-41.756 -33.846,-75.584 -75.587,-75.584 z m 0,136.919 c -33.827,0 -61.349,-27.488 -61.349,-61.35 0,-33.823 27.522,-61.361 61.349,-61.361 33.833,0 61.363,27.521 61.363,61.361 -0.007,33.847 -27.53,61.35 -61.363,61.35 z" /><g
     id="g13"
     transform="translate(0.29926511,0)"><path
       style="fill:#3cb054;fill-opacity:1"
       inkscape:connector-curvature="0"
       id="path15"
       d="m 75.57,359.717 c -32.324,0 -58.622,-26.288 -58.622,-58.599 0,-32.338 26.298,-58.647 58.622,-58.647 32.327,0 58.627,26.31 58.627,58.647 0,32.311 -26.3,58.599 -58.627,58.599 z" /><path
       style="fill:#ffffff"
       inkscape:connector-curvature="0"
       id="path17"
       d="m 75.57,246.405 c 30.161,0 54.691,24.531 54.691,54.712 0,30.153 -24.531,54.663 -54.691,54.663 -30.152,0 -54.687,-24.51 -54.687,-54.663 0,-30.165 24.534,-54.712 54.687,-54.712 m 0,-7.871 c -34.494,0 -62.558,28.075 -62.558,62.583 0,34.482 28.064,62.535 62.558,62.535 34.498,0 62.563,-28.054 62.563,-62.535 0,-34.508 -28.065,-62.583 -62.563,-62.583 l 0,0 z" /></g><g
     id="g20" /><g
     id="g22" /><g
     id="g24" /><g
     id="g26" /><g
     id="g28" /><g
     id="g30" /><g
     id="g32" /><g
     id="g34" /><g
     id="g36" /><g
     id="g38" /><g
     id="g40" /><g
     id="g42" /><g
     id="g44" /><g
     id="g46" /><g
     id="g48" /><g
     style="fill-rule:evenodd;stroke-linejoin:round;stroke-miterlimit:1.41420996"
     transform="matrix(0.7481276,0,0,0.7481276,-201.01691,-54.510003)"
     id="g14"><path
       d="m 331.819,431.279 c 61.093,2.189 84.652,37.71 72.825,69.411 -3.351,8.821 -6.911,13.649 -14.399,18.679 0.305,-1.271 0.619,-2.549 0.856,-3.85 4.43,-24.732 -3.964,-54.49 -45.02,-70.929 32.665,18.834 45.847,52.341 30.614,73.971 -25.927,3.948 -44.876,-17.502 -44.876,-42.215 l 0,-45.067 z"
       style="fill:#ffffff"
       id="path16"
       inkscape:connector-curvature="0" /></g></svg>