<?xml version="1.0" encoding="utf-8"?>
<!-- Generator: Adobe Illustrator 16.0.0, SVG Export Plug-In . SVG Version: 6.00 Build 0)  -->
<!DOCTYPE svg PUBLIC "-//W3C//DTD SVG 1.1//EN" "http://www.w3.org/Graphics/SVG/1.1/DTD/svg11.dtd">
<svg version="1.1" id="Layer_1" xmlns="http://www.w3.org/2000/svg" xmlns:xlink="http://www.w3.org/1999/xlink" x="0px" y="0px"
	 viewBox="184.538 179.609 574.462 574.46"
	 enable-background="new 184.538 179.609 574.462 574.46" xml:space="preserve">
<g id="Layer_1_1_">
	<path id="world" fill="#333333" d="M471.769,228.182c-131.588,0-238.244,106.655-238.244,238.244
		c0,131.58,106.656,238.244,238.244,238.244c131.581,0,238.245-106.664,238.245-238.244
		C710.014,334.838,603.35,228.182,471.769,228.182z M678.881,458.741h-92.162c-0.842-34.043-6.906-66.57-17.64-96.344
		c20.761-8.654,39.943-20.166,57.416-33.767C657.598,363.538,677.051,408.862,678.881,458.741z M463.265,673.509
		c-25.54-21.285-46.967-48.904-62.646-80.98c20.122-6.289,41.438-9.742,63.464-10.432v91.442
		C463.806,673.539,463.541,673.509,463.265,673.509z M480.234,259.351c29,24.136,52.657,56.461,68.659,94.159
		c-21.932,7.489-45.211,11.836-69.454,12.608V259.305C479.724,259.321,479.98,259.336,480.234,259.351z M505.842,261.963
		c42.42,7.056,80.485,26.867,110.117,55.554c-16.093,12.338-33.685,22.793-52.688,30.711
		C549.282,315.069,529.648,285.762,505.842,261.963z M464.082,259.305V366.12c-24.241-0.788-47.537-5.119-69.444-12.608
		c16.001-37.698,39.657-70.023,68.643-94.159C463.558,259.336,463.806,259.321,464.082,259.305z M380.25,348.243
		c-18.98-7.918-36.58-18.365-52.672-30.712c29.615-28.685,67.689-48.491,110.115-55.554
		C413.866,285.762,394.255,315.069,380.25,348.243z M388.844,367.688c23.701,8.219,48.956,13.014,75.238,13.815v77.236h-91.899
		C373.015,426.552,378.712,395.795,388.844,367.688z M464.082,474.112v92.613c-24.241,0.721-47.681,4.699-69.768,11.813
		c-13.307-31.686-21.165-66.989-22.133-104.425L464.082,474.112L464.082,474.112z M437.695,670.896
		c-38.014-6.334-72.537-22.875-100.605-46.922c15.146-10.508,31.515-19.396,49.001-26.133
		C399.493,625.625,417.033,650.303,437.695,670.896z M479.454,673.539v-91.442c22.005,0.721,43.351,4.158,63.464,10.447
		c-15.701,32.075-37.105,59.694-62.653,80.965C480.009,673.509,479.724,673.539,479.454,673.539z M557.447,597.843
		c17.474,6.737,33.834,15.653,48.994,26.133c-28.067,24.016-62.594,40.588-100.6,46.922
		C526.495,650.303,544.029,625.625,557.447,597.843z M549.223,578.537c-22.096-7.112-45.541-11.092-69.769-11.813v-92.613h91.894
		C570.387,511.548,562.521,546.852,549.223,578.537z M479.454,458.741v-77.236c26.269-0.803,51.515-5.584,75.231-13.801
		c10.117,28.105,15.82,58.862,16.662,91.053h-91.894V458.741z M317.05,328.631c17.485,13.601,36.67,25.111,57.405,33.767
		c-10.739,29.772-16.797,62.301-17.645,96.344h-92.164C266.496,408.862,285.941,363.538,317.05,328.631z M264.648,474.112h92.164
		c0.953,39.268,9.164,76.373,23.102,109.695c-19.477,7.596-37.624,17.713-54.383,29.688
		C289.446,577.563,266.66,528.464,264.648,474.112z M618,613.468c-16.753-11.947-34.9-22.08-54.398-29.66
		c13.961-33.354,22.156-70.428,23.117-109.71h92.162C676.868,528.464,654.084,577.563,618,613.468z"/>
	<circle fill="none" stroke="#60965A" stroke-width="10" stroke-miterlimit="10" cx="472.27" cy="465.34" r="258"/>
	<g>
		<g>
			<circle fill="#60965A" stroke="#FFFFFF" stroke-width="5" stroke-miterlimit="10" cx="652.996" cy="647.065" r="28.231"/>
			<circle fill="#60965A" stroke="#FFFFFF" stroke-width="5" stroke-miterlimit="10" cx="290.958" cy="283.613" r="28.231"/>
			<circle fill="#60965A" stroke="#FFFFFF" stroke-width="5" stroke-miterlimit="10" cx="652.996" cy="285.027" r="28.231"/>
			<circle fill="#60965A" stroke="#FFFFFF" stroke-width="5" stroke-miterlimit="10" cx="289.544" cy="647.066" r="28.23"/>
		</g>
		<g>
			<circle fill="#60965A" stroke="#FFFFFF" stroke-width="5" stroke-miterlimit="10" cx="728.27" cy="466.339" r="28.23"/>
			<circle fill="#60965A" stroke="#FFFFFF" stroke-width="5" stroke-miterlimit="10" cx="215.269" cy="465.34" r="28.231"/>
			<circle fill="#60965A" stroke="#FFFFFF" stroke-width="5" stroke-miterlimit="10" cx="472.27" cy="210.34" r="28.231"/>
			<circle fill="#60965A" stroke="#FFFFFF" stroke-width="5" stroke-miterlimit="10" cx="471.27" cy="723.339" r="28.23"/>
		</g>
	</g>
</g>
<g id="Layer_2">
</g>
</svg>
