<?xml version="1.0" encoding="UTF-8" standalone="no"?>
<!-- Generator: Adobe Illustrator 16.0.0, SVG Export Plug-In . SVG Version: 6.00 Build 0)  -->

<svg
   xmlns:dc="http://purl.org/dc/elements/1.1/"
   xmlns:cc="http://creativecommons.org/ns#"
   xmlns:rdf="http://www.w3.org/1999/02/22-rdf-syntax-ns#"
   xmlns:svg="http://www.w3.org/2000/svg"
   xmlns="http://www.w3.org/2000/svg"
   xmlns:sodipodi="http://sodipodi.sourceforge.net/DTD/sodipodi-0.dtd"
   xmlns:inkscape="http://www.inkscape.org/namespaces/inkscape"
   version="1.1"
   id="Layer_1"
   x="0px"
   y="0px"
   viewBox="0 0 723.12 172.331"
   xml:space="preserve"
   inkscape:version="0.48.5 r10040"
   width="100%"
   height="100%"
   sodipodi:docname="banner.svg"><metadata
     id="metadata71"><rdf:RDF><cc:Work
         rdf:about=""><dc:format>image/svg+xml</dc:format><dc:type
           rdf:resource="http://purl.org/dc/dcmitype/StillImage" /></cc:Work></rdf:RDF></metadata><defs
     id="defs69"><clipPath
       id="_clip1"><rect
         id="icon-only"
         x="0"
         y="0"
         width="1024"
         height="1024" /></clipPath></defs><sodipodi:namedview
     pagecolor="#ffffff"
     bordercolor="#666666"
     borderopacity="1"
     objecttolerance="10"
     gridtolerance="10"
     guidetolerance="10"
     inkscape:pageopacity="0"
     inkscape:pageshadow="2"
     inkscape:window-width="1680"
     inkscape:window-height="1035"
     id="namedview67"
     showgrid="false"
     inkscape:zoom="0.44252683"
     inkscape:cx="775.42962"
     inkscape:cy="656.58884"
     inkscape:window-x="-5"
     inkscape:window-y="-12"
     inkscape:window-maximized="1"
     inkscape:current-layer="Layer_1" /><path
     fill="#C5C9C7"
     d="M6.144,172.228V107.69c0-7.534,5.648-13.641,12.583-13.641l157.369-21.4c6.935,0,12.563,6.056,12.563,13.588  l-5.585,85.99H6.144z"
     id="path3" /><path
     fill="#E3E5E4"
     d="M182.47,172.331V40.225L142.244,0H12.954C5.8,0,0,5.799,0,12.953v159.378H182.47L182.47,172.331z"
     id="path5" /><rect
     x="15.391"
     y="17.13"
     fill="#35994B"
     width="133.662"
     height="17.653"
     id="rect7"
     style="fill:#3cb054;fill-opacity:1" /><path
     fill="#F1F0F0"
     d="M154.808,39.985h27.662L142.483,0v27.661C142.483,34.918,147.552,39.985,154.808,39.985z"
     id="path9" /><rect
     x="15.391"
     y="51.176"
     fill="#35994B"
     width="52.54"
     height="58.004"
     id="rect11"
     style="fill:#3cb054;fill-opacity:1" /><rect
     x="79.7"
     y="51.176"
     fill="#ABB7B7"
     width="88.688"
     height="10.508"
     id="rect13" /><rect
     x="79.7"
     y="66.728"
     fill="#ABB7B7"
     width="88.688"
     height="10.928"
     id="rect15" /><rect
     x="79.7"
     y="82.699"
     fill="#ABB7B7"
     width="88.688"
     height="10.508"
     id="rect17" /><rect
     x="79.7"
     y="98.251"
     fill="#ABB7B7"
     width="53.801"
     height="10.929"
     id="rect19" /><path
     fill="#E3E5E4"
     d="M64.202,76.712c0-6.765-3.637-12.75-9.061-15.97l-9.32,16.072h18.374  C64.197,76.814,64.202,76.794,64.202,76.712z"
     id="path21" /><path
     fill="#E3E5E4"
     d="M39.415,81.019l9.321-16.132c-2.759-1.638-5.979-2.575-9.419-2.575c-10.205,0-18.479,8.276-18.479,18.482  c0,10.205,8.274,18.468,18.479,18.468c10.122,0,18.341-8.156,18.473-18.243H39.415z"
     id="path23" /><rect
     x="15.391"
     y="117.166"
     fill="#939999"
     width="152.997"
     height="10.508"
     id="rect25" /><rect
     x="15.391"
     y="132.718"
     fill="#ABB7B7"
     width="81.963"
     height="10.928"
     id="rect27" /><rect
     x="15.391"
     y="148.689"
     fill="#ABB7B7"
     width="81.963"
     height="10.508"
     id="rect29" /><rect
     x="15.391"
     y="164.241"
     fill="#ABB7B7"
     width="152.997"
     height="7.986"
     id="rect31" /><g
     id="g33"><path
       fill="#232323"
       d="M203.672,54.859h7.92c0.853,0,1.558,0.214,2.116,0.64c0.557,0.426,0.935,0.968,1.131,1.624l14.563,49   c0.262,0.886,0.5,1.838,0.713,2.854c0.213,1.018,0.418,2.083,0.615,3.198c0.229-1.115,0.459-2.189,0.689-3.223   c0.229-1.033,0.492-1.976,0.787-2.829l16.58-49c0.197-0.558,0.582-1.074,1.156-1.55c0.574-0.475,1.271-0.713,2.091-0.713h2.755   c0.853,0,1.55,0.214,2.091,0.64c0.541,0.426,0.927,0.968,1.156,1.624l16.48,49c0.591,1.706,1.115,3.658,1.575,5.854   c0.196-1.082,0.376-2.115,0.541-3.1c0.163-0.983,0.376-1.901,0.64-2.755l14.611-49c0.164-0.59,0.532-1.115,1.106-1.574   c0.574-0.459,1.271-0.689,2.091-0.689h7.43l-21.991,70.5h-8.561L254.1,71.586c-0.361-1.016-0.689-2.197-0.984-3.542   c-0.164,0.657-0.319,1.288-0.468,1.895c-0.147,0.607-0.303,1.156-0.467,1.648l-17.957,53.772h-8.561L203.672,54.859z"
       id="path35" /><path
       fill="#232323"
       d="M310.43,125.358V52.891h8.757v29.322c2.132-2.264,4.493-4.075,7.085-5.437   c2.591-1.36,5.575-2.042,8.954-2.042c2.722,0,5.124,0.451,7.207,1.354c2.082,0.902,3.82,2.181,5.215,3.837   c1.394,1.656,2.451,3.649,3.173,5.978c0.722,2.329,1.083,4.903,1.083,7.724v31.732h-8.758V93.626c0-3.771-0.86-6.698-2.582-8.781   c-1.723-2.083-4.354-3.124-7.896-3.124c-2.592,0-5.011,0.623-7.257,1.869c-2.247,1.247-4.321,2.936-6.224,5.067v36.701H310.43z"
       id="path37" /><path
       fill="#232323"
       d="M376.846,59.877c0,0.854-0.172,1.648-0.517,2.386c-0.344,0.738-0.804,1.394-1.377,1.968   c-0.574,0.574-1.239,1.025-1.993,1.353c-0.755,0.328-1.558,0.492-2.41,0.492c-0.854,0-1.648-0.164-2.387-0.492   c-0.737-0.328-1.394-0.779-1.968-1.353c-0.574-0.574-1.025-1.23-1.353-1.968c-0.328-0.738-0.492-1.533-0.492-2.386   c0-0.853,0.164-1.664,0.492-2.435c0.327-0.771,0.778-1.443,1.353-2.017c0.574-0.574,1.23-1.025,1.968-1.353   c0.738-0.328,1.533-0.492,2.387-0.492c0.853,0,1.655,0.165,2.41,0.492c0.754,0.328,1.419,0.779,1.993,1.353   c0.573,0.574,1.033,1.247,1.377,2.017C376.674,58.213,376.846,59.024,376.846,59.877z M374.878,75.521v49.837h-8.757V75.521   H374.878z"
       id="path39" /><path
       fill="#232323"
       d="M405.429,126.146c-3.936,0-6.961-1.099-9.077-3.296c-2.115-2.197-3.173-5.362-3.173-9.495V82.852h-6.002   c-0.525,0-0.968-0.155-1.328-0.467c-0.361-0.312-0.541-0.795-0.541-1.451V77.44l8.166-1.033l2.018-15.399   c0.065-0.492,0.278-0.893,0.64-1.205c0.36-0.312,0.819-0.467,1.377-0.467h4.428v17.17h14.268v6.346h-14.268v29.912   c0,2.1,0.509,3.658,1.525,4.674c1.017,1.018,2.328,1.525,3.936,1.525c0.918,0,1.714-0.123,2.387-0.369   c0.672-0.246,1.254-0.517,1.746-0.812s0.91-0.566,1.255-0.812c0.344-0.246,0.646-0.369,0.91-0.369c0.459,0,0.868,0.278,1.229,0.836   l2.559,4.182c-1.509,1.411-3.329,2.518-5.461,3.321C409.889,125.743,407.692,126.146,405.429,126.146z"
       id="path41" /><path
       fill="#232323"
       d="M446.754,74.734c2.983,0,5.739,0.501,8.265,1.501c2.525,1.001,4.706,2.443,6.543,4.329   c1.837,1.887,3.272,4.215,4.306,6.986c1.032,2.771,1.549,5.928,1.549,9.47c0,1.378-0.147,2.297-0.442,2.755   c-0.295,0.46-0.854,0.689-1.673,0.689h-33.159c0.065,3.148,0.492,5.888,1.279,8.216c0.787,2.329,1.87,4.272,3.247,5.83   c1.378,1.558,3.018,2.723,4.92,3.493c1.901,0.771,4.034,1.155,6.396,1.155c2.197,0,4.091-0.253,5.683-0.762   c1.59-0.509,2.959-1.059,4.107-1.648c1.148-0.591,2.107-1.14,2.878-1.648c0.771-0.508,1.435-0.763,1.993-0.763   c0.721,0,1.279,0.279,1.673,0.837l2.46,3.197c-1.083,1.313-2.379,2.452-3.887,3.42c-1.51,0.968-3.124,1.763-4.847,2.386   c-1.722,0.623-3.501,1.091-5.338,1.402c-1.837,0.311-3.657,0.467-5.461,0.467c-3.443,0-6.616-0.582-9.52-1.746   c-2.902-1.164-5.411-2.87-7.526-5.116c-2.116-2.246-3.764-5.026-4.944-8.339c-1.182-3.313-1.771-7.117-1.771-11.414   c0-3.477,0.532-6.724,1.599-9.741c1.065-3.018,2.6-5.633,4.601-7.847c2-2.214,4.443-3.952,7.33-5.215   C439.898,75.366,443.146,74.734,446.754,74.734z M446.95,81.18c-4.23,0-7.56,1.222-9.986,3.665   c-2.428,2.443-3.937,5.83-4.526,10.159h27.107c0-2.033-0.279-3.895-0.836-5.584c-0.559-1.688-1.378-3.148-2.46-4.379   c-1.083-1.229-2.403-2.181-3.961-2.854C450.73,81.516,448.95,81.18,446.95,81.18z"
       id="path43" /><path
       fill="#232323"
       d="M478.582,142.233V75.521h5.215c1.246,0,2.033,0.607,2.361,1.82l0.738,5.904   c2.132-2.591,4.567-4.674,7.306-6.248c2.738-1.575,5.896-2.362,9.471-2.362c2.854,0,5.444,0.55,7.773,1.648   c2.328,1.1,4.313,2.723,5.952,4.87c1.64,2.149,2.903,4.814,3.788,7.995c0.886,3.182,1.329,6.838,1.329,10.971   c0,3.674-0.492,7.093-1.477,10.258c-0.983,3.165-2.395,5.903-4.23,8.216c-1.837,2.313-4.092,4.133-6.765,5.461   c-2.674,1.328-5.683,1.992-9.027,1.992c-3.084,0-5.716-0.509-7.896-1.524c-2.182-1.017-4.108-2.46-5.781-4.33v22.041H478.582z    M500.771,81.721c-2.854,0-5.355,0.656-7.503,1.968c-2.148,1.313-4.125,3.165-5.929,5.56v24.106   c1.607,2.164,3.37,3.689,5.289,4.575s4.059,1.328,6.42,1.328c4.625,0,8.184-1.655,10.676-4.969   c2.492-3.313,3.739-8.035,3.739-14.169c0-3.247-0.287-6.034-0.861-8.363c-0.574-2.328-1.401-4.238-2.484-5.731   c-1.082-1.492-2.41-2.583-3.984-3.271C504.559,82.064,502.771,81.721,500.771,81.721z"
       id="path45" /><path
       fill="#232323"
       d="M569.497,125.358h-3.887c-0.853,0-1.542-0.131-2.065-0.394c-0.525-0.262-0.87-0.819-1.033-1.673   l-0.984-4.624c-1.313,1.181-2.591,2.238-3.837,3.173c-1.247,0.935-2.559,1.722-3.937,2.361c-1.377,0.64-2.846,1.124-4.402,1.451   c-1.559,0.328-3.289,0.492-5.19,0.492c-1.936,0-3.748-0.272-5.437-0.814c-1.689-0.542-3.157-1.357-4.403-2.443   c-1.247-1.086-2.238-2.461-2.977-4.122c-0.737-1.662-1.106-3.629-1.106-5.899c0-1.974,0.541-3.875,1.623-5.701   c1.083-1.827,2.829-3.448,5.239-4.863c2.411-1.415,5.567-2.575,9.471-3.48s8.675-1.357,14.316-1.357v-3.911   c0-3.895-0.828-6.84-2.484-8.837s-4.107-2.995-7.354-2.995c-2.133,0-3.929,0.271-5.388,0.812c-1.46,0.541-2.723,1.148-3.788,1.82   c-1.066,0.673-1.984,1.279-2.755,1.82c-0.771,0.541-1.533,0.812-2.288,0.812c-0.59,0-1.106-0.155-1.549-0.467   c-0.443-0.312-0.796-0.697-1.059-1.156l-1.574-2.805c2.755-2.656,5.724-4.641,8.905-5.953c3.181-1.311,6.707-1.968,10.577-1.968   c2.787,0,5.264,0.46,7.429,1.378c2.165,0.919,3.985,2.197,5.461,3.837c1.476,1.641,2.591,3.625,3.346,5.953   c0.754,2.329,1.131,4.888,1.131,7.675V125.358z M546.769,119.996c1.541,0,2.951-0.155,4.23-0.468   c1.279-0.312,2.484-0.754,3.616-1.328c1.132-0.573,2.214-1.271,3.247-2.091c1.033-0.819,2.042-1.754,3.025-2.805v-10.282   c-4.034,0-7.462,0.257-10.282,0.768c-2.821,0.512-5.116,1.18-6.888,2.004c-1.771,0.825-3.059,1.798-3.861,2.92   c-0.805,1.122-1.206,2.375-1.206,3.76c0,1.32,0.213,2.459,0.64,3.415c0.426,0.957,1,1.74,1.723,2.351   c0.721,0.61,1.574,1.057,2.558,1.336C544.555,119.856,545.62,119.996,546.769,119.996z"
       id="path47" /><path
       fill="#232323"
       d="M582.779,142.233V75.521h5.215c1.246,0,2.033,0.607,2.361,1.82l0.738,5.904   c2.132-2.591,4.567-4.674,7.306-6.248c2.738-1.575,5.896-2.362,9.471-2.362c2.854,0,5.444,0.55,7.773,1.648   c2.328,1.1,4.313,2.723,5.952,4.87c1.64,2.149,2.903,4.814,3.788,7.995c0.886,3.182,1.329,6.838,1.329,10.971   c0,3.674-0.492,7.093-1.477,10.258c-0.983,3.165-2.395,5.903-4.23,8.216c-1.837,2.313-4.092,4.133-6.765,5.461   c-2.674,1.328-5.683,1.992-9.027,1.992c-3.084,0-5.716-0.509-7.896-1.524c-2.182-1.017-4.108-2.46-5.781-4.33v22.041H582.779z    M604.968,81.721c-2.854,0-5.355,0.656-7.503,1.968c-2.148,1.313-4.125,3.165-5.929,5.56v24.106   c1.607,2.164,3.37,3.689,5.289,4.575s4.059,1.328,6.42,1.328c4.625,0,8.184-1.655,10.676-4.969   c2.492-3.313,3.739-8.035,3.739-14.169c0-3.247-0.287-6.034-0.861-8.363c-0.574-2.328-1.401-4.238-2.484-5.731   c-1.082-1.492-2.41-2.583-3.984-3.271C608.756,82.064,606.968,81.721,604.968,81.721z"
       id="path49" /><path
       fill="#232323"
       d="M656.82,74.734c2.983,0,5.739,0.501,8.265,1.501c2.525,1.001,4.706,2.443,6.543,4.329   c1.837,1.887,3.272,4.215,4.306,6.986c1.032,2.771,1.549,5.928,1.549,9.47c0,1.378-0.147,2.297-0.442,2.755   c-0.295,0.46-0.854,0.689-1.673,0.689h-33.159c0.065,3.148,0.492,5.888,1.279,8.216c0.787,2.329,1.87,4.272,3.247,5.83   c1.378,1.558,3.018,2.723,4.92,3.493c1.901,0.771,4.034,1.155,6.396,1.155c2.197,0,4.091-0.253,5.683-0.762   c1.59-0.509,2.959-1.059,4.107-1.648c1.148-0.591,2.107-1.14,2.878-1.648c0.771-0.508,1.435-0.763,1.993-0.763   c0.721,0,1.279,0.279,1.673,0.837l2.46,3.197c-1.083,1.313-2.379,2.452-3.887,3.42c-1.51,0.968-3.124,1.763-4.847,2.386   c-1.722,0.623-3.501,1.091-5.338,1.402c-1.837,0.311-3.657,0.467-5.461,0.467c-3.443,0-6.616-0.582-9.52-1.746   c-2.902-1.164-5.411-2.87-7.526-5.116c-2.116-2.246-3.764-5.026-4.944-8.339c-1.182-3.313-1.771-7.117-1.771-11.414   c0-3.477,0.532-6.724,1.599-9.741c1.065-3.018,2.6-5.633,4.601-7.847c2-2.214,4.443-3.952,7.33-5.215   C649.965,75.366,653.212,74.734,656.82,74.734z M657.017,81.18c-4.23,0-7.56,1.222-9.986,3.665   c-2.428,2.443-3.937,5.83-4.526,10.159h27.107c0-2.033-0.279-3.895-0.836-5.584c-0.559-1.688-1.378-3.148-2.46-4.379   c-1.083-1.229-2.403-2.181-3.961-2.854C660.797,81.516,659.017,81.18,657.017,81.18z"
       id="path51" /><path
       fill="#232323"
       d="M688.649,125.358V75.521h5.019c0.95,0,1.606,0.181,1.968,0.541c0.36,0.361,0.606,0.984,0.738,1.87   l0.59,7.772c1.705-3.476,3.813-6.19,6.322-8.142c2.509-1.951,5.452-2.928,8.83-2.928c1.378,0,2.624,0.156,3.739,0.468   c1.115,0.313,2.147,0.746,3.1,1.304l-1.132,6.543c-0.229,0.82-0.737,1.23-1.524,1.23c-0.46,0-1.165-0.155-2.116-0.468   c-0.951-0.312-2.279-0.467-3.984-0.467c-3.051,0-5.602,0.885-7.65,2.656c-2.05,1.771-3.764,4.346-5.142,7.724v31.732H688.649z"
       id="path53" /></g><g
     id="g55" /><g
     id="g57" /><g
     id="g59" /><g
     id="g61" /><g
     id="g63" /><g
     id="g65" /></svg>