<?xml version="1.0" encoding="utf-8"?>
<!-- Generator: Adobe Illustrator 16.0.0, SVG Export Plug-In . SVG Version: 6.00 Build 0)  -->
<!DOCTYPE svg PUBLIC "-//W3C//DTD SVG 1.1//EN" "http://www.w3.org/Graphics/SVG/1.1/DTD/svg11.dtd">
<svg version="1.1" id="Layer_1" xmlns="http://www.w3.org/2000/svg" xmlns:xlink="http://www.w3.org/1999/xlink" x="0px" y="0px"
	 viewBox="0 0 995.899 211.171" enable-background="new 0 0 995.899 211.171"
	 xml:space="preserve">
<g>
	<path fill="#36994B" d="M0.674,58.839c0.058-5.515,0.022-11.032-0.008-16.547c-0.002-0.47-0.052-0.94-0.666-1.408
		c0-0.172,0-0.345,0-0.518c0.614-0.274,0.621-0.527,0.721-0.83c1.347-4.045,3.333-5.394,8.226-5.806
		c0.967-0.082,1.956-0.581,2.908-0.581c104.358,0,208.716,0,313.073,0c0.344,0,0.691,0.464,1.03,0.458
		c4.787-0.081,8.084,1.639,9.829,5.314V9.208c0-5.086-4.123-9.208-9.208-9.208H9.208C4.122,0,0,4.122,0,9.208v192.754
		c0,0.643,0,1.268,0,1.873c0-47.763,0-95.524,0-143.286C0.614,59.978,0.668,59.41,0.674,58.839z"/>
</g>
<path fill="#34994B" d="M9.208,211.171h317.37c0.209,0,0.412,0,0.617,0H8.591C8.795,211.171,9,211.171,9.208,211.171z"/>
<path fill="#34994B" d="M6.059,210.607c-1.061-0.438-1.994-0.984-2.808-1.629C4.075,209.677,5.024,210.23,6.059,210.607z"/>
<path fill="#333333" d="M335.786,38.922v163.041c0,4.877-3.795,8.595-8.591,9.209h1.416c3.645-1.229,5.947-3.186,7.175-6.242
	c0-55.198,0-110.399,0-165.599C335.786,39.19,335.85,39.058,335.786,38.922z"/>
<path fill="#333333" d="M7.558,211.171h1.033c-0.884,0-1.732-0.243-2.532-0.533C6.536,210.834,7.031,211.171,7.558,211.171z"/>
<path fill="#333333" d="M0,203.835c0,0.364,0,0.729,0,1.094c0.614,1.631,1.709,2.979,3.059,4.049
	C1.526,207.673,0.614,205.88,0,203.835z"/>
<path fill="#333333" d="M335.786,201.962V38.922c-1.744-3.676-5.042-5.396-9.829-5.314c-0.339,0.005-0.687-0.458-1.03-0.458
	c-104.358,0-208.716,0-313.073,0c-0.953,0-1.893,0.499-2.859,0.581c-4.893,0.412-6.927,1.768-8.274,5.813
	c-0.1,0.302-0.107,0.548-0.721,0.823c0,0.173,0,0.346,0,0.518c0.614,0.469,0.711,0.938,0.713,1.408
	c0.031,5.515-0.029,11.032-0.087,16.547C0.62,59.41,0.614,59.978,0,60.549c0,47.762,0,95.523,0,143.286
	c0.614,2.045,1.622,3.838,3.155,5.143c0.813,0.646,1.795,1.206,2.855,1.645c0.799,0.291,1.696,0.549,2.58,0.549h318.604
	C331.991,210.557,335.786,206.839,335.786,201.962z M167.935,186.826c-35.637,0-64.526-28.891-64.526-64.525
	c0-35.637,28.89-64.526,64.526-64.526c35.637,0,64.526,28.89,64.526,64.526C232.461,157.935,203.571,186.826,167.935,186.826z"/>
<g>
	<circle fill="#36994B" cx="167.935" cy="122.3" r="64.526"/>
</g>
<path fill="#FFFFFF" d="M168.941,168.658c-4.328,0-8.273,0-12.624,0c0-4.592,0-9.191,0-13.791c-0.257,0.002-0.515,0.002-0.771,0.004
	c0,4.504,0,9.008,0,13.738c-4.182,0-7.999,0-12.279,0c0-3.895,0.115-7.744-0.077-11.578c-0.053-1.029-1.082-1.993-1.592-3.021
	c-0.331-0.666-0.722-1.383-0.764-2.097c-0.109-1.833-0.21-3.7,0.032-5.509c0.128-0.963,1.082-1.788,1.468-2.753
	c0.422-1.058,0.875-2.204,0.877-3.313c0.052-19.833,0.038-39.664,0.039-59.496c0-1.194,0-2.39,0-3.796
	c1.457-0.066,2.553-0.172,3.646-0.154c11.639,0.188,23.317-0.125,34.906,0.746c11.292,0.847,19.708,6.845,23.812,17.678
	c4.087,10.792,1.137,24.275-7.379,32.259c-4.313,4.044-9.739,5.214-15.38,5.621c-3.46,0.249-6.941,0.401-10.406,0.315
	c-2.561-0.063-3.891,0.602-3.537,3.428c0.175,1.409-0.137,2.885,0.09,4.279c0.152,0.937,0.885,1.771,1.315,2.674
	c0.328,0.691,0.928,1.472,0.821,2.115c-0.493,2.965,1.726,6.537-1.959,8.869c-0.412,0.26-0.223,1.544-0.228,2.354
	C168.93,160.979,168.941,164.73,168.941,168.658z M193.42,118.265c4.604-4.096,5.694-11.678,2.747-17.528
	c-3.537-7.021-16.563-13.642-24.362-12.22c-0.662,0.121-1.547,1.469-1.567,2.266c-0.139,5.312-0.368,10.65,0.018,15.938
	c0.367,5.027,2.259,9.738,7.15,11.984c2.418,1.109,5.88,1.899,8.049,0.953c1.574-0.686,2.534-4.477,2.487-6.857
	c-0.145-7.469-3.699-13.334-9.834-17.621c-0.908-0.635-1.726-1.396-2.584-2.1c5.365,0.918,9.227,4.137,12.558,7.871
	C192.365,105.752,194.233,111.547,193.42,118.265z M155.692,142.995c0.136,0.007,0.271,0.013,0.407,0.019c0-18.307,0-36.613,0-54.92
	c-0.135,0-0.271,0-0.407,0C155.692,106.394,155.692,124.695,155.692,142.995z"/>
<g>
	<path fill="#36994B" d="M660.759,58.839c0.058-5.516,0.022-11.032-0.008-16.547c-0.003-0.47-0.053-0.94-0.666-1.408
		c0-0.172,0-0.345,0-0.518c0.613-0.274,0.621-0.527,0.721-0.83c1.348-4.045,3.333-5.394,8.227-5.806
		c0.967-0.082,1.955-0.581,2.908-0.581c104.357,0,208.716,0,313.072,0c0.345,0,0.69,0.464,1.03,0.458
		c4.787-0.081,8.084,1.639,9.828,5.314V9.208c0-5.086-4.122-9.208-9.207-9.208H669.293c-5.086,0-9.208,4.122-9.208,9.208v192.754
		c0,0.643,0,1.268,0,1.873c0-47.763,0-95.524,0-143.286C660.698,59.978,660.753,59.41,660.759,58.839z"/>
</g>
<path fill="#34994B" d="M669.293,211.171h317.37c0.209,0,0.412,0,0.617,0H668.676C668.88,211.171,669.085,211.171,669.293,211.171z"
	/>
<path fill="#34994B" d="M666.144,210.607c-1.061-0.438-1.994-0.984-2.808-1.629C664.159,209.677,665.108,210.23,666.144,210.607z"/>
<path fill="#333333" d="M995.871,38.922v163.041c0,4.877-3.795,8.595-8.591,9.209h1.416c3.646-1.229,5.947-3.186,7.175-6.242
	c0-55.198,0-110.399,0-165.599C995.871,39.19,995.936,39.058,995.871,38.922z"/>
<path fill="#333333" d="M667.643,211.171h1.033c-0.884,0-1.732-0.243-2.532-0.533C666.62,210.834,667.116,211.171,667.643,211.171z"
	/>
<path fill="#333333" d="M660.085,203.835c0,0.364,0,0.729,0,1.094c0.613,1.631,1.709,2.979,3.059,4.049
	C661.611,207.673,660.698,205.88,660.085,203.835z"/>
<path fill="#333333" d="M995.871,201.962V38.922c-1.744-3.676-5.042-5.396-9.828-5.314c-0.34,0.005-0.688-0.458-1.03-0.458
	c-104.358,0-208.716,0-313.073,0c-0.952,0-1.894,0.499-2.859,0.581c-4.894,0.412-6.927,1.768-8.274,5.813
	c-0.1,0.302-0.107,0.548-0.721,0.823c0,0.173,0,0.346,0,0.518c0.613,0.469,0.711,0.938,0.713,1.408
	c0.031,5.515-0.029,11.032-0.087,16.547c-0.006,0.57-0.013,1.139-0.626,1.71c0,47.762,0,95.523,0,143.286
	c0.613,2.045,1.622,3.838,3.155,5.143c0.813,0.646,1.795,1.206,2.855,1.645c0.8,0.291,1.696,0.549,2.58,0.549H987.28
	C992.076,210.557,995.871,206.839,995.871,201.962z M828.02,186.826c-35.637,0-64.526-28.891-64.526-64.525
	c0-35.637,28.891-64.526,64.526-64.526c35.637,0,64.525,28.89,64.525,64.526C892.546,157.935,863.656,186.826,828.02,186.826z"/>
<g>
	<circle fill="#36994B" cx="828.02" cy="122.3" r="64.526"/>
</g>
<path fill="#FFFFFF" d="M829.025,168.658c-4.327,0-8.272,0-12.624,0c0-4.592,0-9.191,0-13.791c-0.257,0.002-0.514,0.002-0.771,0.004
	c0,4.504,0,9.008,0,13.738c-4.182,0-7.998,0-12.278,0c0-3.895,0.114-7.744-0.077-11.578c-0.053-1.029-1.082-1.993-1.592-3.021
	c-0.332-0.666-0.723-1.383-0.764-2.097c-0.109-1.833-0.211-3.7,0.031-5.509c0.128-0.963,1.082-1.788,1.468-2.753
	c0.422-1.058,0.874-2.204,0.878-3.313c0.052-19.833,0.037-39.664,0.038-59.496c0-1.194,0-2.39,0-3.796
	c1.457-0.066,2.553-0.172,3.646-0.154c11.639,0.188,23.317-0.125,34.906,0.746c11.291,0.847,19.707,6.845,23.811,17.678
	c4.088,10.792,1.137,24.275-7.379,32.259c-4.313,4.044-9.738,5.214-15.38,5.621c-3.46,0.249-6.941,0.401-10.405,0.315
	c-2.561-0.063-3.891,0.602-3.537,3.428c0.175,1.409-0.137,2.885,0.09,4.279c0.151,0.937,0.885,1.771,1.314,2.674
	c0.328,0.691,0.928,1.472,0.821,2.115c-0.493,2.965,1.726,6.537-1.959,8.869c-0.411,0.26-0.224,1.544-0.228,2.354
	C829.016,160.979,829.025,164.73,829.025,168.658z M853.506,118.265c4.604-4.096,5.693-11.678,2.746-17.528
	c-3.537-7.021-16.563-13.642-24.361-12.22c-0.662,0.121-1.547,1.469-1.568,2.266c-0.139,5.312-0.367,10.65,0.019,15.938
	c0.366,5.027,2.259,9.738,7.149,11.984c2.419,1.109,5.881,1.899,8.049,0.953c1.574-0.686,2.534-4.477,2.487-6.857
	c-0.146-7.469-3.698-13.334-9.835-17.621c-0.907-0.635-1.725-1.396-2.584-2.1c5.365,0.918,9.227,4.137,12.559,7.871
	C852.449,105.752,854.318,111.547,853.506,118.265z M815.776,142.995c0.137,0.007,0.271,0.013,0.407,0.019
	c0-18.307,0-36.613,0-54.92c-0.136,0-0.271,0-0.407,0C815.776,106.394,815.776,124.695,815.776,142.995z"/>
<g>
	<g>
		
			<line fill="none" stroke="#36994B" stroke-width="50" stroke-miterlimit="10" x1="373.028" y1="59.009" x2="562.028" y2="59.009"/>
		<g>
			<polygon fill="#36994B" points="547.028,108.873 633.381,59.009 547.028,9.146 			"/>
		</g>
	</g>
</g>
<g>
	<g>
		
			<line fill="none" stroke="#333333" stroke-width="50" stroke-miterlimit="10" x1="633.028" y1="156.009" x2="445.028" y2="156.009"/>
		<g>
			<polygon fill="#333333" points="459.028,106.146 372.676,156.009 459.028,205.873 			"/>
		</g>
	</g>
</g>
<g>
</g>
<g>
</g>
<g>
</g>
<g>
</g>
<g>
</g>
<g>
</g>
<g>
</g>
<g>
</g>
<g>
</g>
<g>
</g>
<g>
</g>
<g>
</g>
<g>
</g>
<g>
</g>
<g>
</g>
<g>
</g>
</svg>
