<?xml version="1.0" encoding="UTF-8" standalone="no"?>
<!-- Generator: Adobe Illustrator 16.0.0, SVG Export Plug-In . SVG Version: 6.00 Build 0)  -->

<svg
   xmlns:dc="http://purl.org/dc/elements/1.1/"
   xmlns:cc="http://creativecommons.org/ns#"
   xmlns:rdf="http://www.w3.org/1999/02/22-rdf-syntax-ns#"
   xmlns:svg="http://www.w3.org/2000/svg"
   xmlns="http://www.w3.org/2000/svg"
   xmlns:sodipodi="http://sodipodi.sourceforge.net/DTD/sodipodi-0.dtd"
   xmlns:inkscape="http://www.inkscape.org/namespaces/inkscape"
   version="1.1"
   id="Layer_1"
   x="0px"
   y="0px"
   viewBox="0 0 876.979 560.12"
   xml:space="preserve"
   inkscape:version="0.48.5 r10040"
   width="100%"
   height="100%"
   sodipodi:docname="compatibility.svg"><metadata
     id="metadata249"><rdf:RDF><cc:Work
         rdf:about=""><dc:format>image/svg+xml</dc:format><dc:type
           rdf:resource="http://purl.org/dc/dcmitype/StillImage" /></cc:Work></rdf:RDF></metadata><defs
     id="defs247"><clipPath
       id="_clip1"><rect
         id="icon-only"
         x="0"
         y="0"
         width="1024"
         height="1024" /></clipPath></defs><sodipodi:namedview
     pagecolor="#ffffff"
     bordercolor="#666666"
     borderopacity="1"
     objecttolerance="10"
     gridtolerance="10"
     guidetolerance="10"
     inkscape:pageopacity="0"
     inkscape:pageshadow="2"
     inkscape:window-width="1680"
     inkscape:window-height="1035"
     id="namedview245"
     showgrid="false"
     inkscape:zoom="0.51603099"
     inkscape:cx="232.4427"
     inkscape:cy="138.59423"
     inkscape:window-x="-5"
     inkscape:window-y="-12"
     inkscape:window-maximized="1"
     inkscape:current-layer="Layer_1" /><path
     fill="#333333"
     d="M255.375,239.017l-12.167-53.333l-32.243-3.582l-8.203-10.289l3.693-32.214l-49.299-23.728l-22.886,22.953  h-13.166l-22.892-22.953l-49.293,23.731l3.693,32.214l-8.2,10.289l-32.243,3.582L0,239.017l27.475,17.215l2.934,12.827  l-17.305,27.423l34.125,42.775l30.584-10.755l11.861,5.712l10.655,30.617h54.714l10.652-30.617l11.861-5.712l30.585,10.755  l34.128-42.775l-17.305-27.423l2.928-12.827L255.375,239.017z M218.261,295.154l-16.753,20.997l-25.122-8.834l-26.519,12.773  l-8.754,25.145h-26.853l-8.751-25.145l-26.519-12.773l-25.125,8.834l-16.753-20.997l14.214-22.526l-6.563-28.687l-22.561-14.134  l5.973-26.184l26.483-2.941l18.345-23.013l-3.04-26.455l24.2-11.65l18.804,18.854h29.434l18.801-18.854l24.203,11.647l-3.039,26.455  l18.344,23.014l26.483,2.94l5.974,26.184l-22.567,14.135l-6.551,28.69L218.261,295.154z M127.69,192.9  c-27.061,0-48.986,21.923-48.986,48.987s21.926,48.986,48.986,48.986c27.058,0,48.986-21.922,48.986-48.986  S154.748,192.9,127.69,192.9z M127.69,276.178c-18.909,0-34.291-15.382-34.291-34.291c0-18.909,15.381-34.291,34.291-34.291  s34.291,15.381,34.291,34.291C161.981,260.796,146.6,276.178,127.69,276.178z"
     id="path3" /><path
     fill="#333333"
     d="M330.497,131.006l-6.329-27.743l-16.773-1.863l-4.266-5.352l1.921-16.757l-25.646-12.343l-11.904,11.94  h-6.849l-11.908-11.94l-25.641,12.344l1.921,16.758l-4.265,5.352l-16.772,1.863l-6.331,27.742l14.292,8.955l1.526,6.673  l-9.001,14.266l17.751,22.25l15.91-5.594l6.17,2.971l5.542,15.926h28.461l5.541-15.926l6.17-2.971l15.91,5.594l17.753-22.25  l-9.001-14.266l1.523-6.673L330.497,131.006z M311.191,160.208l-8.714,10.923l-13.067-4.596l-13.795,6.644l-4.554,13.08h-13.969  l-4.552-13.08l-13.794-6.644l-13.069,4.596l-8.715-10.923l7.394-11.718l-3.414-14.922l-11.736-7.353l3.107-13.621l13.776-1.53  l9.543-11.971l-1.581-13.761l12.588-6.061l9.782,9.808h15.311l9.78-9.808l12.589,6.059l-1.581,13.761l9.543,11.971l13.776,1.53  l3.108,13.62l-11.74,7.353l-3.408,14.924L311.191,160.208z M264.078,107.017c-14.076,0-25.482,11.404-25.482,25.482  c0,14.078,11.406,25.482,25.482,25.482c14.075,0,25.482-11.405,25.482-25.482C289.56,118.42,278.153,107.017,264.078,107.017z   M264.078,150.336c-9.836,0-17.837-8.001-17.837-17.837c0-9.836,8.001-17.837,17.837-17.837c9.836,0,17.838,8.001,17.838,17.837  C281.916,142.335,273.915,150.336,264.078,150.336z"
     id="path5" /><path
     fill="#35994B"
     d="M564.862,168.535l6.33-54.336l-29.201-14.137l-4.297-12.436l14.232-29.135L513.372,19.67l-29.234,14  l-12.41-4.394L457.807,0l-54.386,5.919l-7.27,31.6l-11.163,6.962l-31.59-7.384l-29.271,46.211l20.155,25.397l-1.515,13.072  l-25.465,20.077l17.894,51.709l32.42,0.069l9.274,9.343l-0.173,32.417l51.577,18.26l20.26-25.306l13.086-1.426l25.242,20.344  l46.447-28.932l-7.16-31.626l7.041-11.116L564.862,168.535z M511.141,209.067l-22.799,14.204l-20.734-16.711l-29.26,3.19  l-16.644,20.78l-25.313-8.961l0.142-26.623l-20.736-20.891l-26.632-0.057l-8.785-25.385l20.917-16.49l3.387-29.233l-16.55-20.853  l14.369-22.689l25.947,6.066l24.973-15.571l5.964-25.953l26.7-2.906l11.434,24.049l27.746,9.823l24.016-11.5l18.928,19.056  l-11.693,23.924l9.613,27.816l23.982,11.61l-3.107,26.676l-25.99,5.793l-15.75,24.859L511.141,209.067z M459.889,82.451  c-25.51-9.031-53.495,4.318-62.527,29.83c-9.032,25.512,4.32,53.496,29.829,62.527c25.506,9.03,53.495-4.319,62.526-29.831  C498.75,119.465,485.395,91.48,459.889,82.451z M432.096,160.953c-17.825-6.311-27.191-25.943-20.88-43.768  c6.311-17.825,25.943-27.191,43.767-20.881c17.826,6.311,27.193,25.943,20.883,43.769S449.922,167.264,432.096,160.953z"
     id="path7"
     style="fill:#3cb054;fill-opacity:1" /><path
     fill="#333333"
     d="M876.979,349.768l-20.34-89.17l-53.91-5.988l-13.713-17.202l6.176-53.86l-82.426-39.671l-38.262,38.375  h-22.014l-38.271-38.375l-82.414,39.676l6.174,53.86l-13.709,17.202l-53.906,5.988l-20.348,89.165l45.936,28.781l4.904,21.447  l-28.932,45.851l57.055,71.514l51.135-17.979l19.83,9.549l17.816,51.188h91.475l17.811-51.188l19.83-9.549l51.135,17.979  l57.061-71.514l-28.932-45.851l4.895-21.447L876.979,349.768z M814.928,443.624L786.92,478.73l-42-14.769l-44.338,21.354  l-14.637,42.037h-44.896l-14.631-42.037l-44.338-21.354l-42.006,14.769l-28.008-35.106l23.764-37.66L524.858,358l-37.721-23.632  l9.986-43.776l44.279-4.917l30.67-38.476l-5.082-44.23l40.459-19.478l31.441,31.523h49.211l31.432-31.523l40.463,19.473l-5.08,44.23  l30.672,38.477l44.275,4.917l9.99,43.776l-37.732,23.632l-10.953,47.969L814.928,443.624z M663.502,272.664  c-45.242,0-81.9,36.653-81.9,81.902c0,45.248,36.658,81.903,81.9,81.903c45.24,0,81.9-36.655,81.9-81.903  C745.403,309.317,708.743,272.664,663.502,272.664z M663.502,411.897c-31.613,0-57.33-25.717-57.33-57.331  s25.717-57.331,57.33-57.331c31.615,0,57.332,25.717,57.332,57.331S695.118,411.897,663.502,411.897z"
     id="path9" /><g
     id="g16"
     transform="scale(0.015625)"><linearGradient
       id="coin_1_"
       gradientUnits="userSpaceOnUse"
       x1="-4623.25"
       y1="49817.4063"
       x2="-4623.25"
       y2="49817"
       gradientTransform="matrix(511.9456 0 0 -512.0052 2382131.25 25528026)"><stop
         offset="0"
         style="stop-color:#F9AA4B"
         id="stop13" /><stop
         offset="1"
         style="stop-color:#F7931A"
         id="stop15" /></linearGradient><path
       id="coin"
       fill="url(#coin_1_)"
       d="M21725.375,29533.719c-888.375,3562.75-4496.969,5731.125-8060.156,4842.75   c-3561.813-888.25-5730-4497.125-4841.375-8059.813c887.875-3563.188,4496.438-5731.75,8058.563-4843.438   C20445.375,22361.469,22613.625,25970.656,21725.375,29533.719z" /><path
       id="symbol"
       fill="#FFFFFF"
       d="M18205.75,26977.406c132.25-885-541.469-1360.688-1462.719-1678.063l298.813-1198.813   l-729.688-181.75l-291,1167.125c-191.75-47.813-388.875-92.875-584.625-137.625l293-1174.813l-729.25-181.813l-299,1198.25   c-158.813-36.125-314.688-71.813-465.875-109.438l0.75-3.75l-1006.375-251.313l-194.063,779.375   c0,0,541.375,124.125,529.938,131.75c295.625,73.813,349,269.375,340,424.438l-340.375,1365.563   c20.313,5.313,46.75,12.813,75.875,24.438c-24.25-6.125-50.375-12.75-77.125-19.125l-477.25,1912.938   c-36.063,89.875-127.75,224.5-334.313,173.375c7.188,10.625-530.438-132.25-530.438-132.25l-362.25,835.125l949.688,236.813   c176.563,44.25,349.688,90.625,520.125,134.125l-302,1212.625l728.938,181.875l299-1199.625   c199.125,54,392.438,103.875,581.5,150.75l-298,1194.125l729.625,181.875l301.938-1210.25   c1244.313,235.5,2180.063,140.5,2573.906-984.875c317.375-906.125-15.875-1428.813-670.531-1769.75   C17750.781,27938.781,18109.875,27625.156,18205.75,26977.406L18205.75,26977.406z M16538.406,29315.281   c-225.375,906.188-1751.125,416.313-2245.688,293.438l400.688-1606.313   C15188.031,28125.781,16774.156,28370.219,16538.406,29315.281z M16764.156,26964.281   c-205.75,824.25-1475.625,405.5-1887.5,302.875l363.375-1457C15651.781,25912.906,16978.406,26104.531,16764.156,26964.281z" /></g><g
     id="g215" /><g
     id="g217" /><g
     id="g219" /><g
     id="g221" /><g
     id="g223" /><g
     id="g225" /><g
     id="g227" /><g
     id="g229" /><g
     id="g231" /><g
     id="g233" /><g
     id="g235" /><g
     id="g237" /><g
     id="g239" /><g
     id="g241" /><g
     id="g243" /><g
     transform="matrix(0.2076143,0,0,0.2076143,262.46069,329.52074)"
     style="fill-rule:evenodd;stroke-linejoin:round;stroke-miterlimit:1.41420996"
     id="g3083"><g
       id="g10"
       transform="matrix(6.22663,0,0,6.22663,-1766.6844,-2445.0619)"><circle
         sodipodi:ry="82.227997"
         sodipodi:rx="82.227997"
         sodipodi:cy="474.90701"
         sodipodi:cx="365.95801"
         d="m 448.186,474.90701 c 0,45.41327 -36.81472,82.228 -82.22799,82.228 -45.41327,0 -82.228,-36.81473 -82.228,-82.228 0,-45.41327 36.81473,-82.22799 82.228,-82.22799 45.41327,0 82.22799,36.81472 82.22799,82.22799 z"
         id="circle12"
         style="fill:#3cb054"
         r="82.227997"
         cy="474.90701"
         cx="365.95801" /></g><g
       id="g14"
       transform="matrix(6.22663,0,0,6.22663,-1766.6844,-2445.0619)"><path
         inkscape:connector-curvature="0"
         id="path16"
         style="fill:#ffffff"
         d="m 331.819,431.279 c 61.093,2.189 84.652,37.71 72.825,69.411 -3.351,8.821 -6.911,13.649 -14.399,18.679 0.305,-1.271 0.619,-2.549 0.856,-3.85 4.43,-24.732 -3.964,-54.49 -45.02,-70.929 32.665,18.834 45.847,52.341 30.614,73.971 -25.927,3.948 -44.876,-17.502 -44.876,-42.215 l 0,-45.067 z" /></g></g></svg>