<?xml version="1.0" encoding="utf-8"?>
<!-- Generator: Adobe Illustrator 16.0.0, SVG Export Plug-In . SVG Version: 6.00 Build 0)  -->
<!DOCTYPE svg PUBLIC "-//W3C//DTD SVG 1.1 Tiny//EN" "http://www.w3.org/Graphics/SVG/1.1/DTD/svg11-tiny.dtd">
<svg version="1.1" baseProfile="tiny" id="Layer_1" xmlns="http://www.w3.org/2000/svg" xmlns:xlink="http://www.w3.org/1999/xlink"
	 x="0px" y="0px" viewBox="0 0 589.482 482.464" xml:space="preserve">
<g>
	<path fill="#333333" d="M165.984,434.609c-0.129-4.941-2.048-14.178-5.579-18.769c-12.341-16.134-28.261-24.472-55.154-27.153
		c-4.855-0.979-8.513-5.278-8.513-10.386c0-3.744,11.998-14.941,11.914-15.022c12.386-12.809,19.024-33.626,19.024-49.624
		c0-24.853-20.003-45.026-44.688-45.026s-44.688,20.174-44.688,45.026c0,16.085,6.471,37.028,18.982,49.838
		c0,0,11.959,11.067,11.959,14.812c0,5.408-4.083,9.918-9.362,10.558c-26.345,2.768-42.09,11.062-54.305,26.981
		C2.045,420.434,0.13,429.67,0,434.609c0.042,1.279,0,21.338,0,21.338c0,9.407,7.621,17.079,17.025,17.079H148.96
		c9.403,0,17.024-7.672,17.024-17.079C165.984,455.947,165.942,435.888,165.984,434.609z M62.631,343.026h42.045
		C81.676,372.026,62.631,343.026,62.631,343.026z"/>
	<g>
		<g>
			<path fill="#FFFFFF" d="M182.938,464.828c-0.727,11.134-13.674,17.628-31.81,17.628c-18.14,0-33.566-5.215-32.657-17.628
				c0.967-13.221,14.944-14.842,33.08-14.842S183.492,456.309,182.938,464.828z"/>
			<g>
				<path fill="#333333" d="M150.656,448.157c-17.641,0-31.942,6.72-31.942,15.017c0,8.293,14.302,15.013,31.942,15.013
					c17.64,0,31.941-6.72,31.941-15.013C182.601,454.88,168.296,448.157,150.656,448.157z M150.656,475.361
					c-14.296,0-25.928-5.462-25.928-12.188c0-6.72,11.632-12.19,25.928-12.19c14.295,0,25.928,5.468,25.928,12.19
					S164.954,475.361,150.656,475.361z"/>
				<path fill="#60965A" d="M150.656,452.306c-12.746,0-23.111,4.877-23.111,10.87c0,5.99,10.368,10.86,23.111,10.86
					s23.114-4.87,23.114-10.86C173.771,457.18,163.402,452.306,150.656,452.306z"/>
				<path id="path4934_24_" fill="#FFFFFF" d="M152.73,455.15c-0.441,0-0.889,0.003-1.345,0.009h-4.678h-5.246v12.239h-0.916v1.822
					h0.916v2.69h4.679v-2.69h0.567v2.69h4.678v-2.69h0.774v-1.822h-0.774v-1.982l2.036,0.007c4.074,0,7.645,0.141,10.73-1.751
					c1.198-0.832,1.938-1.811,2.139-2.798c0.405-2.003-1.363-4.057-5.853-5.087C158.526,455.321,155.829,455.153,152.73,455.15
					L152.73,455.15z M146.141,456.96h0.567v6.113v1.811v2.511h-0.567v-2.511v-1.811V456.96z M151.389,456.96
					c9.248,0.156,12.815,2.685,11.022,4.939c-0.504,0.631-1.045,0.973-2.18,1.33c0.045-0.087,0.096-0.183,0.129-0.273
					c0.673-1.762-0.598-3.879-6.815-5.05c4.945,1.339,6.941,3.723,4.633,5.264c-3.925,0.285-6.792-1.243-6.792-3.003v-3.207H151.389
					z"/>
				<path fill="#333333" d="M118.795,464.738c0,0-5.846,17.676,31.183,17.727c36.286,0.055,32.701-17.727,32.701-17.727
					s-0.811,14.604-32.095,14.604S118.795,464.738,118.795,464.738z"/>
			</g>
		</g>
		<g>
			<path fill="#FFFFFF" d="M182.94,454.664c-0.727,11.134-13.677,17.629-31.813,17.629c-18.14,0-33.566-5.216-32.657-17.629
				c0.967-13.221,14.944-14.842,33.08-14.842S183.492,446.148,182.94,454.664z"/>
			<g>
				<path fill="#333333" d="M150.656,437.997c-17.641,0-31.942,6.72-31.942,15.016c0,8.293,14.302,15.013,31.942,15.013
					c17.64,0,31.941-6.72,31.941-15.013C182.601,444.716,168.296,437.997,150.656,437.997z M150.656,465.197
					c-14.296,0-25.928-5.462-25.928-12.188c0-6.72,11.632-12.19,25.928-12.19c14.295,0,25.931,5.468,25.931,12.19
					S164.954,465.197,150.656,465.197z"/>
				<path fill="#60965A" d="M150.656,442.143c-12.746,0-23.111,4.876-23.111,10.869c0,5.99,10.368,10.86,23.111,10.86
					s23.114-4.87,23.114-10.86C173.771,447.019,163.402,442.143,150.656,442.143z"/>
				<path id="path4934_23_" fill="#FFFFFF" d="M152.73,444.986c-0.441,0-0.889,0.004-1.345,0.01h-4.678h-5.246v12.238h-0.916v1.822
					h0.916v2.69h4.679v-2.69h0.567v2.69h4.678v-2.69h0.774v-1.822h-0.774v-1.981l2.036,0.006c4.074,0,7.645,0.141,10.73-1.751
					c1.195-0.831,1.938-1.811,2.136-2.798c0.408-2.003-1.36-4.057-5.85-5.087C158.526,445.158,155.829,444.99,152.73,444.986
					L152.73,444.986z M146.141,446.796h0.567v6.114v1.811v2.51h-0.567v-2.51v-1.811V446.796z M151.389,446.796
					c9.248,0.156,12.815,2.685,11.022,4.939c-0.508,0.631-1.045,0.973-2.18,1.33c0.045-0.087,0.093-0.183,0.129-0.272
					c0.673-1.763-0.598-3.88-6.815-5.051c4.945,1.339,6.938,3.724,4.633,5.264c-3.925,0.285-6.792-1.243-6.792-3.003v-3.207H151.389
					z"/>
				<path fill="#333333" d="M118.795,454.574c0,0-5.846,17.676,31.183,17.728c36.286,0.054,32.698-17.728,32.698-17.728
					s-0.808,14.604-32.092,14.604S118.795,454.574,118.795,454.574z"/>
			</g>
		</g>
		<g>
			<path fill="#FFFFFF" d="M182.646,444.035c-0.727,11.134-13.677,17.628-31.813,17.628c-18.139,0-33.566-5.216-32.656-17.628
				c0.967-13.221,14.944-14.842,33.08-14.842S183.201,435.516,182.646,444.035z"/>
			<g>
				<path fill="#333333" d="M150.365,427.367c-17.641,0-31.942,6.72-31.942,15.017c0,8.293,14.302,15.013,31.942,15.013
					c17.64,0,31.941-6.72,31.941-15.013C182.307,434.086,168.002,427.367,150.365,427.367z M150.365,454.568
					c-14.296,0-25.928-5.462-25.928-12.188c0-6.72,11.632-12.191,25.928-12.191c14.295,0,25.93,5.468,25.93,12.191
					C176.292,449.103,164.66,454.568,150.365,454.568z"/>
				<path fill="#60965A" d="M150.365,431.513c-12.746,0-23.111,4.877-23.111,10.87c0,5.99,10.368,10.86,23.111,10.86
					c12.742,0,23.113-4.87,23.113-10.86C173.476,436.39,163.107,431.513,150.365,431.513z"/>
				<path id="path4934_22_" fill="#FFFFFF" d="M152.439,434.357c-0.441,0-0.889,0.003-1.345,0.009h-4.679h-5.245v12.239h-0.916
					v1.822h0.916v2.69h4.678v-2.69h0.567v2.69h4.679v-2.69h0.774v-1.822h-0.774v-1.982l2.035,0.007
					c4.075,0,7.645,0.141,10.731-1.751c1.195-0.832,1.937-1.811,2.135-2.799c0.408-2.002-1.36-4.056-5.849-5.086
					C158.231,434.528,155.535,434.36,152.439,434.357L152.439,434.357z M145.846,436.167h0.567v6.113v1.811v2.511h-0.567v-2.511
					v-1.811V436.167z M151.095,436.167c9.248,0.156,12.814,2.685,11.022,4.939c-0.508,0.631-1.045,0.973-2.18,1.33
					c0.045-0.087,0.093-0.183,0.129-0.273c0.673-1.763-0.598-3.879-6.816-5.05c4.945,1.339,6.939,3.723,4.634,5.264
					c-3.925,0.285-6.792-1.243-6.792-3.003v-3.207H151.095z"/>
				<path fill="#333333" d="M118.501,443.945c0,0-5.846,17.676,31.183,17.727c36.286,0.055,32.698-17.727,32.698-17.727
					s-0.808,14.604-32.092,14.604S118.501,443.945,118.501,443.945z"/>
			</g>
		</g>
		<g>
			<path fill="#FFFFFF" d="M183.226,433.874c-0.727,11.134-13.677,17.628-31.813,17.628c-18.139,0-33.566-5.215-32.656-17.628
				c0.967-13.221,14.943-14.842,33.079-14.842S183.777,425.355,183.226,433.874z"/>
			<g>
				<path fill="#333333" d="M150.941,417.204c-17.641,0-31.938,6.72-31.938,15.016c0,8.293,14.301,15.013,31.938,15.013
					c17.644,0,31.944-6.72,31.944-15.013C182.883,423.923,168.582,417.204,150.941,417.204z M150.941,444.404
					c-14.296,0-25.928-5.462-25.928-12.188c0-6.72,11.632-12.19,25.928-12.19c14.298,0,25.934,5.468,25.934,12.19
					C176.869,438.939,165.236,444.404,150.941,444.404z"/>
				<path fill="#60965A" d="M150.941,421.353c-12.743,0-23.111,4.876-23.111,10.869c0,5.99,10.368,10.86,23.111,10.86
					c12.746,0,23.114-4.87,23.114-10.86C174.056,426.226,163.688,421.353,150.941,421.353z"/>
				<path id="path4934_21_" fill="#FFFFFF" d="M153.016,424.193c-0.438,0-0.889,0.003-1.342,0.01h-4.681h-5.246v12.238h-0.916v1.822
					h0.916v2.69h4.679v-2.69h0.567v2.69h4.681v-2.69h0.774v-1.822h-0.774v-1.981l2.036,0.006c4.074,0,7.645,0.141,10.731-1.751
					c1.194-0.831,1.937-1.811,2.135-2.798c0.408-2.003-1.36-4.057-5.85-5.087C158.812,424.368,156.111,424.196,153.016,424.193
					L153.016,424.193z M146.426,426.003h0.567v6.113v1.811v2.511h-0.567v-2.511v-1.811V426.003z M151.674,426.003
					c9.245,0.156,12.815,2.685,11.022,4.939c-0.507,0.631-1.045,0.973-2.18,1.33c0.045-0.087,0.093-0.183,0.129-0.273
					c0.673-1.762-0.598-3.879-6.815-5.05c4.942,1.339,6.938,3.724,4.633,5.264c-3.925,0.285-6.792-1.243-6.792-3.003v-3.207H151.674
					z"/>
				<path fill="#333333" d="M119.081,433.781c0,0-5.847,17.676,31.182,17.728c36.286,0.054,32.698-17.728,32.698-17.728
					s-0.808,14.604-32.092,14.604S119.081,433.781,119.081,433.781z"/>
			</g>
		</g>
	</g>
</g>
<g>
	<path fill="#333333" d="M368.985,434.609c-0.129-4.941-2.049-14.178-5.58-18.769c-12.34-16.134-28.26-24.472-55.154-27.153
		c-4.855-0.979-8.512-5.278-8.512-10.386c0-3.744,11.998-14.941,11.914-15.022c12.385-12.809,19.023-33.626,19.023-49.624
		c0-24.853-20.002-45.026-44.687-45.026c-24.685,0-44.688,20.174-44.688,45.026c0,16.085,6.471,37.028,18.982,49.838
		c0,0,11.959,11.067,11.959,14.812c0,5.408-4.083,9.918-9.362,10.558c-26.345,2.768-42.09,11.062-54.305,26.981
		c-3.531,4.591-5.446,13.827-5.576,18.766c0.042,1.279,0,21.338,0,21.338c0,9.407,7.621,17.079,17.025,17.079h131.934
		c9.404,0,17.025-7.672,17.025-17.079C368.985,455.947,368.942,435.888,368.985,434.609z M265.631,343.026h42.045
		C284.676,372.026,265.631,343.026,265.631,343.026z"/>
	<g>
		<g>
			<path fill="#FFFFFF" d="M385.938,464.828c-0.727,11.134-13.674,17.628-31.811,17.628c-18.139,0-33.566-5.215-32.656-17.628
				c0.967-13.221,14.943-14.842,33.08-14.842C372.686,449.986,386.493,456.309,385.938,464.828z"/>
			<g>
				<path fill="#333333" d="M353.657,448.157c-17.641,0-31.943,6.72-31.943,15.017c0,8.293,14.303,15.013,31.943,15.013
					c17.639,0,31.941-6.72,31.941-15.013C385.6,454.88,371.295,448.157,353.657,448.157z M353.657,475.361
					c-14.297,0-25.928-5.462-25.928-12.188c0-6.72,11.631-12.19,25.928-12.19c14.295,0,25.928,5.468,25.928,12.19
					S367.954,475.361,353.657,475.361z"/>
				<path fill="#60965A" d="M353.657,452.306c-12.746,0-23.111,4.877-23.111,10.87c0,5.99,10.367,10.86,23.111,10.86
					c12.742,0,23.113-4.87,23.113-10.86C376.77,457.18,366.403,452.306,353.657,452.306z"/>
				<path id="path4934_4_" fill="#FFFFFF" d="M355.731,455.15c-0.441,0-0.889,0.003-1.346,0.009h-4.678h-5.246v12.239h-0.916v1.822
					h0.916v2.69h4.68v-2.69h0.566v2.69h4.678v-2.69h0.775v-1.822h-0.775v-1.982l2.037,0.007c4.074,0,7.645,0.141,10.73-1.751
					c1.197-0.832,1.938-1.811,2.139-2.798c0.404-2.003-1.363-4.057-5.854-5.087C361.526,455.321,358.829,455.153,355.731,455.15
					L355.731,455.15z M349.141,456.96h0.566v6.113v1.811v2.511h-0.566v-2.511v-1.811V456.96z M354.389,456.96
					c9.248,0.156,12.814,2.685,11.021,4.939c-0.504,0.631-1.045,0.973-2.18,1.33c0.045-0.087,0.096-0.183,0.129-0.273
					c0.674-1.762-0.598-3.879-6.814-5.05c4.945,1.339,6.941,3.723,4.633,5.264c-3.926,0.285-6.793-1.243-6.793-3.003v-3.207H354.389
					z"/>
				<path fill="#333333" d="M321.795,464.738c0,0-5.846,17.676,31.182,17.727c36.287,0.055,32.701-17.727,32.701-17.727
					s-0.811,14.604-32.094,14.604C322.299,479.342,321.795,464.738,321.795,464.738z"/>
			</g>
		</g>
		<g>
			<path fill="#FFFFFF" d="M385.94,454.664c-0.727,11.134-13.676,17.629-31.813,17.629c-18.139,0-33.566-5.216-32.656-17.629
				c0.967-13.221,14.943-14.842,33.08-14.842C372.686,439.822,386.493,446.148,385.94,454.664z"/>
			<g>
				<path fill="#333333" d="M353.657,437.997c-17.641,0-31.943,6.72-31.943,15.016c0,8.293,14.303,15.013,31.943,15.013
					c17.639,0,31.941-6.72,31.941-15.013C385.6,444.716,371.295,437.997,353.657,437.997z M353.657,465.197
					c-14.297,0-25.928-5.462-25.928-12.188c0-6.72,11.631-12.19,25.928-12.19c14.295,0,25.93,5.468,25.93,12.19
					S367.954,465.197,353.657,465.197z"/>
				<path fill="#60965A" d="M353.657,442.143c-12.746,0-23.111,4.876-23.111,10.869c0,5.99,10.367,10.86,23.111,10.86
					c12.742,0,23.113-4.87,23.113-10.86C376.77,447.019,366.403,442.143,353.657,442.143z"/>
				<path id="path4934_3_" fill="#FFFFFF" d="M355.731,444.986c-0.441,0-0.889,0.004-1.346,0.01h-4.678h-5.246v12.238h-0.916v1.822
					h0.916v2.69h4.68v-2.69h0.566v2.69h4.678v-2.69h0.775v-1.822h-0.775v-1.981l2.037,0.006c4.074,0,7.645,0.141,10.73-1.751
					c1.195-0.831,1.938-1.811,2.135-2.798c0.408-2.003-1.359-4.057-5.85-5.087C361.526,445.158,358.829,444.99,355.731,444.986
					L355.731,444.986z M349.141,446.796h0.566v6.114v1.811v2.51h-0.566v-2.51v-1.811V446.796z M354.389,446.796
					c9.248,0.156,12.814,2.685,11.021,4.939c-0.508,0.631-1.045,0.973-2.18,1.33c0.045-0.087,0.094-0.183,0.129-0.272
					c0.674-1.763-0.598-3.88-6.814-5.051c4.945,1.339,6.938,3.724,4.633,5.264c-3.926,0.285-6.793-1.243-6.793-3.003v-3.207H354.389
					z"/>
				<path fill="#333333" d="M321.795,454.574c0,0-5.846,17.676,31.182,17.728c36.287,0.054,32.699-17.728,32.699-17.728
					s-0.809,14.604-32.092,14.604C322.299,469.178,321.795,454.574,321.795,454.574z"/>
			</g>
		</g>
		<g>
			<path fill="#FFFFFF" d="M385.645,444.035c-0.727,11.134-13.676,17.628-31.813,17.628c-18.139,0-33.566-5.216-32.656-17.628
				c0.967-13.221,14.945-14.842,33.08-14.842C372.393,429.193,386.202,435.516,385.645,444.035z"/>
			<g>
				<path fill="#333333" d="M353.366,427.367c-17.641,0-31.943,6.72-31.943,15.017c0,8.293,14.303,15.013,31.943,15.013
					c17.639,0,31.941-6.72,31.941-15.013C385.307,434.086,371.002,427.367,353.366,427.367z M353.366,454.568
					c-14.297,0-25.928-5.462-25.928-12.188c0-6.72,11.631-12.191,25.928-12.191c14.295,0,25.93,5.468,25.93,12.191
					C379.292,449.103,367.661,454.568,353.366,454.568z"/>
				<path fill="#60965A" d="M353.366,431.513c-12.746,0-23.111,4.877-23.111,10.87c0,5.99,10.367,10.86,23.111,10.86
					c12.742,0,23.113-4.87,23.113-10.86C376.475,436.39,366.108,431.513,353.366,431.513z"/>
				<path id="path4934_2_" fill="#FFFFFF" d="M355.44,434.357c-0.441,0-0.889,0.003-1.346,0.009h-4.678h-5.246v12.239h-0.916v1.822
					h0.916v2.69h4.678v-2.69h0.568v2.69h4.678v-2.69h0.775v-1.822h-0.775v-1.982l2.035,0.007c4.076,0,7.645,0.141,10.732-1.751
					c1.195-0.832,1.936-1.811,2.135-2.799c0.408-2.002-1.361-4.056-5.85-5.086C361.231,434.528,358.536,434.36,355.44,434.357
					L355.44,434.357z M348.846,436.167h0.566v6.113v1.811v2.511h-0.566v-2.511v-1.811V436.167z M354.094,436.167
					c9.248,0.156,12.814,2.685,11.023,4.939c-0.508,0.631-1.045,0.973-2.18,1.33c0.045-0.087,0.092-0.183,0.129-0.273
					c0.672-1.763-0.598-3.879-6.816-5.05c4.945,1.339,6.939,3.723,4.633,5.264c-3.924,0.285-6.791-1.243-6.791-3.003v-3.207H354.094
					z"/>
				<path fill="#333333" d="M321.5,443.945c0,0-5.846,17.676,31.184,17.727c36.285,0.055,32.697-17.727,32.697-17.727
					s-0.807,14.604-32.092,14.604C322.006,458.549,321.5,443.945,321.5,443.945z"/>
			</g>
		</g>
		<g>
			<path fill="#FFFFFF" d="M386.225,433.874c-0.727,11.134-13.676,17.628-31.813,17.628c-18.139,0-33.566-5.215-32.656-17.628
				c0.967-13.221,14.943-14.842,33.08-14.842C372.971,419.032,386.778,425.355,386.225,433.874z"/>
			<g>
				<path fill="#333333" d="M353.942,417.204c-17.641,0-31.939,6.72-31.939,15.016c0,8.293,14.301,15.013,31.939,15.013
					c17.643,0,31.943-6.72,31.943-15.013C385.883,423.923,371.583,417.204,353.942,417.204z M353.942,444.404
					c-14.297,0-25.928-5.462-25.928-12.188c0-6.72,11.631-12.19,25.928-12.19s25.934,5.468,25.934,12.19
					C379.87,438.939,368.237,444.404,353.942,444.404z"/>
				<path fill="#60965A" d="M353.942,421.353c-12.744,0-23.111,4.876-23.111,10.869c0,5.99,10.367,10.86,23.111,10.86
					c12.746,0,23.113-4.87,23.113-10.86C377.055,426.226,366.688,421.353,353.942,421.353z"/>
				<path id="path4934_1_" fill="#FFFFFF" d="M356.016,424.193c-0.438,0-0.889,0.003-1.342,0.01h-4.682h-5.246v12.238h-0.916v1.822
					h0.916v2.69h4.68v-2.69h0.566v2.69h4.682v-2.69h0.773v-1.822h-0.773v-1.981l2.035,0.006c4.074,0,7.645,0.141,10.732-1.751
					c1.193-0.831,1.936-1.811,2.135-2.798c0.408-2.003-1.361-4.057-5.85-5.087C361.811,424.368,359.112,424.196,356.016,424.193
					L356.016,424.193z M349.426,426.003h0.566v6.113v1.811v2.511h-0.566v-2.511v-1.811V426.003z M354.674,426.003
					c9.244,0.156,12.814,2.685,11.021,4.939c-0.506,0.631-1.045,0.973-2.18,1.33c0.045-0.087,0.094-0.183,0.129-0.273
					c0.674-1.762-0.598-3.879-6.814-5.05c4.941,1.339,6.938,3.724,4.633,5.264c-3.926,0.285-6.793-1.243-6.793-3.003v-3.207H354.674
					z"/>
				<path fill="#333333" d="M322.081,433.781c0,0-5.846,17.676,31.182,17.728c36.287,0.054,32.699-17.728,32.699-17.728
					s-0.809,14.604-32.092,14.604C322.584,448.385,322.081,433.781,322.081,433.781z"/>
			</g>
		</g>
	</g>
</g>
<g>
	<path fill="#333333" d="M572.226,434.609c-0.129-4.941-2.049-14.178-5.58-18.769c-12.34-16.134-28.26-24.472-55.154-27.153
		c-4.855-0.979-8.512-5.278-8.512-10.386c0-3.744,11.998-14.941,11.914-15.022c12.385-12.809,19.023-33.626,19.023-49.624
		c0-24.853-20.002-45.026-44.687-45.026c-24.686,0-44.688,20.174-44.688,45.026c0,16.085,6.471,37.028,18.982,49.838
		c0,0,11.959,11.067,11.959,14.812c0,5.408-4.084,9.918-9.363,10.558c-26.344,2.768-42.09,11.062-54.305,26.981
		c-3.531,4.591-5.445,13.827-5.576,18.766c0.043,1.279,0,21.338,0,21.338c0,9.407,7.621,17.079,17.025,17.079h131.935
		c9.404,0,17.025-7.672,17.025-17.079C572.226,455.947,572.183,435.888,572.226,434.609z M468.872,343.026h42.046
		C487.917,372.026,468.872,343.026,468.872,343.026z"/>
	<g>
		<g>
			<path fill="#FFFFFF" d="M589.179,464.828c-0.727,11.134-13.674,17.628-31.811,17.628c-18.139,0-33.566-5.215-32.656-17.628
				c0.967-13.221,14.943-14.842,33.08-14.842C575.927,449.986,589.734,456.309,589.179,464.828z"/>
			<g>
				<path fill="#333333" d="M556.898,448.157c-17.641,0-31.943,6.72-31.943,15.017c0,8.293,14.303,15.013,31.943,15.013
					c17.639,0,31.941-6.72,31.941-15.013C588.841,454.88,574.537,448.157,556.898,448.157z M556.898,475.361
					c-14.297,0-25.928-5.462-25.928-12.188c0-6.72,11.631-12.19,25.928-12.19c14.295,0,25.928,5.468,25.928,12.19
					S571.195,475.361,556.898,475.361z"/>
				<path fill="#60965A" d="M556.898,452.306c-12.746,0-23.111,4.877-23.111,10.87c0,5.99,10.367,10.86,23.111,10.86
					c12.742,0,23.113-4.87,23.113-10.86C580.011,457.18,569.644,452.306,556.898,452.306z"/>
				<path id="path4934_8_" fill="#FFFFFF" d="M558.972,455.15c-0.441,0-0.889,0.003-1.346,0.009h-4.678h-5.246v12.239h-0.916v1.822
					h0.916v2.69h4.68v-2.69h0.566v2.69h4.678v-2.69h0.775v-1.822h-0.775v-1.982l2.037,0.007c4.074,0,7.645,0.141,10.73-1.751
					c1.197-0.832,1.938-1.811,2.139-2.798c0.404-2.003-1.363-4.057-5.854-5.087C564.767,455.321,562.07,455.153,558.972,455.15
					L558.972,455.15z M552.382,456.96h0.566v6.113v1.811v2.511h-0.566v-2.511v-1.811V456.96z M557.63,456.96
					c9.248,0.156,12.814,2.685,11.021,4.939c-0.504,0.631-1.045,0.973-2.18,1.33c0.045-0.087,0.096-0.183,0.129-0.273
					c0.674-1.762-0.598-3.879-6.814-5.05c4.945,1.339,6.941,3.723,4.633,5.264c-3.926,0.285-6.793-1.243-6.793-3.003v-3.207H557.63z
					"/>
				<path fill="#333333" d="M525.037,464.738c0,0-5.846,17.676,31.182,17.727c36.287,0.055,32.701-17.727,32.701-17.727
					s-0.811,14.604-32.094,14.604C525.541,479.342,525.037,464.738,525.037,464.738z"/>
			</g>
		</g>
		<g>
			<path fill="#FFFFFF" d="M589.181,454.664c-0.727,11.134-13.676,17.629-31.813,17.629c-18.139,0-33.566-5.216-32.656-17.629
				c0.967-13.221,14.943-14.842,33.08-14.842C575.927,439.822,589.734,446.148,589.181,454.664z"/>
			<g>
				<path fill="#333333" d="M556.898,437.997c-17.641,0-31.943,6.72-31.943,15.016c0,8.293,14.303,15.013,31.943,15.013
					c17.639,0,31.941-6.72,31.941-15.013C588.841,444.716,574.537,437.997,556.898,437.997z M556.898,465.197
					c-14.297,0-25.928-5.462-25.928-12.188c0-6.72,11.631-12.19,25.928-12.19c14.295,0,25.93,5.468,25.93,12.19
					S571.195,465.197,556.898,465.197z"/>
				<path fill="#60965A" d="M556.898,442.143c-12.746,0-23.111,4.876-23.111,10.869c0,5.99,10.367,10.86,23.111,10.86
					c12.742,0,23.113-4.87,23.113-10.86C580.011,447.019,569.644,442.143,556.898,442.143z"/>
				<path id="path4934_7_" fill="#FFFFFF" d="M558.972,444.986c-0.441,0-0.889,0.004-1.346,0.01h-4.678h-5.246v12.238h-0.916v1.822
					h0.916v2.69h4.68v-2.69h0.566v2.69h4.678v-2.69h0.775v-1.822h-0.775v-1.981l2.037,0.006c4.074,0,7.645,0.141,10.73-1.751
					c1.195-0.831,1.938-1.811,2.135-2.798c0.408-2.003-1.359-4.057-5.85-5.087C564.767,445.158,562.07,444.99,558.972,444.986
					L558.972,444.986z M552.382,446.796h0.566v6.114v1.811v2.51h-0.566v-2.51v-1.811V446.796z M557.63,446.796
					c9.248,0.156,12.814,2.685,11.021,4.939c-0.508,0.631-1.045,0.973-2.18,1.33c0.045-0.087,0.094-0.183,0.129-0.272
					c0.674-1.763-0.598-3.88-6.814-5.051c4.945,1.339,6.938,3.724,4.633,5.264c-3.926,0.285-6.793-1.243-6.793-3.003v-3.207H557.63z
					"/>
				<path fill="#333333" d="M525.037,454.574c0,0-5.846,17.676,31.182,17.728c36.287,0.054,32.699-17.728,32.699-17.728
					s-0.809,14.604-32.092,14.604C525.541,469.178,525.037,454.574,525.037,454.574z"/>
			</g>
		</g>
		<g>
			<path fill="#FFFFFF" d="M588.886,444.035c-0.727,11.134-13.676,17.628-31.813,17.628c-18.139,0-33.566-5.216-32.656-17.628
				c0.967-13.221,14.945-14.842,33.08-14.842C575.634,429.193,589.443,435.516,588.886,444.035z"/>
			<g>
				<path fill="#333333" d="M556.607,427.367c-17.641,0-31.943,6.72-31.943,15.017c0,8.293,14.303,15.013,31.943,15.013
					c17.639,0,31.941-6.72,31.941-15.013C588.548,434.086,574.244,427.367,556.607,427.367z M556.607,454.568
					c-14.297,0-25.928-5.462-25.928-12.188c0-6.72,11.631-12.191,25.928-12.191c14.295,0,25.93,5.468,25.93,12.191
					C582.533,449.103,570.902,454.568,556.607,454.568z"/>
				<path fill="#60965A" d="M556.607,431.513c-12.746,0-23.111,4.877-23.111,10.87c0,5.99,10.367,10.86,23.111,10.86
					c12.742,0,23.113-4.87,23.113-10.86C579.716,436.39,569.349,431.513,556.607,431.513z"/>
				<path id="path4934_6_" fill="#FFFFFF" d="M558.681,434.357c-0.441,0-0.889,0.003-1.346,0.009h-4.678h-5.246v12.239h-0.916v1.822
					h0.916v2.69h4.678v-2.69h0.568v2.69h4.678v-2.69h0.775v-1.822h-0.775v-1.982l2.035,0.007c4.076,0,7.645,0.141,10.732-1.751
					c1.195-0.832,1.936-1.811,2.135-2.799c0.408-2.002-1.361-4.056-5.85-5.086C564.472,434.528,561.777,434.36,558.681,434.357
					L558.681,434.357z M552.087,436.167h0.566v6.113v1.811v2.511h-0.566v-2.511v-1.811V436.167z M557.335,436.167
					c9.248,0.156,12.814,2.685,11.023,4.939c-0.508,0.631-1.045,0.973-2.18,1.33c0.045-0.087,0.092-0.183,0.129-0.273
					c0.672-1.763-0.598-3.879-6.816-5.05c4.945,1.339,6.939,3.723,4.633,5.264c-3.924,0.285-6.791-1.243-6.791-3.003v-3.207H557.335
					z"/>
				<path fill="#333333" d="M524.742,443.945c0,0-5.846,17.676,31.184,17.727c36.285,0.055,32.697-17.727,32.697-17.727
					s-0.807,14.604-32.092,14.604C525.248,458.549,524.742,443.945,524.742,443.945z"/>
			</g>
		</g>
		<g>
			<path fill="#FFFFFF" d="M589.466,433.874c-0.727,11.134-13.676,17.628-31.813,17.628c-18.139,0-33.566-5.215-32.656-17.628
				c0.967-13.221,14.943-14.842,33.08-14.842C576.212,419.032,590.019,425.355,589.466,433.874z"/>
			<g>
				<path fill="#333333" d="M557.183,417.204c-17.641,0-31.939,6.72-31.939,15.016c0,8.293,14.301,15.013,31.939,15.013
					c17.643,0,31.943-6.72,31.943-15.013C589.125,423.923,574.824,417.204,557.183,417.204z M557.183,444.404
					c-14.297,0-25.928-5.462-25.928-12.188c0-6.72,11.631-12.19,25.928-12.19s25.934,5.468,25.934,12.19
					C583.111,438.939,571.478,444.404,557.183,444.404z"/>
				<path fill="#60965A" d="M557.183,421.353c-12.744,0-23.111,4.876-23.111,10.869c0,5.99,10.367,10.86,23.111,10.86
					c12.746,0,23.113-4.87,23.113-10.86C580.296,426.226,569.929,421.353,557.183,421.353z"/>
				<path id="path4934_5_" fill="#FFFFFF" d="M559.257,424.193c-0.438,0-0.889,0.003-1.342,0.01h-4.682h-5.246v12.238h-0.916v1.822
					h0.916v2.69h4.68v-2.69h0.566v2.69h4.682v-2.69h0.773v-1.822h-0.773v-1.981l2.035,0.006c4.074,0,7.645,0.141,10.732-1.751
					c1.193-0.831,1.936-1.811,2.135-2.798c0.408-2.003-1.361-4.057-5.85-5.087C565.052,424.368,562.353,424.196,559.257,424.193
					L559.257,424.193z M552.667,426.003h0.566v6.113v1.811v2.511h-0.566v-2.511v-1.811V426.003z M557.916,426.003
					c9.244,0.156,12.814,2.685,11.021,4.939c-0.506,0.631-1.045,0.973-2.18,1.33c0.045-0.087,0.094-0.183,0.129-0.273
					c0.674-1.762-0.598-3.879-6.814-5.05c4.941,1.339,6.938,3.724,4.633,5.264c-3.926,0.285-6.793-1.243-6.793-3.003v-3.207H557.916
					z"/>
				<path fill="#333333" d="M525.322,433.781c0,0-5.846,17.676,31.182,17.728c36.287,0.054,32.699-17.728,32.699-17.728
					s-0.809,14.604-32.092,14.604C525.826,448.385,525.322,433.781,525.322,433.781z"/>
			</g>
		</g>
	</g>
</g>
<path fill="#34994B" d="M286.536,34.786c9.238-0.271,16.574-7.608,16.846-16.846c0.271-10.053-7.88-18.205-17.933-17.933
	c-9.238,0.271-16.574,7.608-16.846,16.846C268.332,26.906,276.483,35.058,286.536,34.786z M412.61,139.123h-4.891l-34.508-66.841
	c4.891-0.543,9.782-2.445,14.129-4.347c6.521-2.989,7.881-11.684,2.989-16.846l-0.271-0.271c-2.989-2.989-7.608-4.076-11.684-2.174
	c-3.804,1.63-9.238,3.532-14.401,3.532c-15.215,0-22.008-17.39-77.98-17.39s-62.765,17.39-77.981,17.39
	c-5.435,0-10.597-1.63-14.401-3.532c-4.076-1.63-8.695-0.815-11.684,2.174l-0.271,0.271c-4.891,5.163-3.533,13.585,2.989,16.846
	c4.347,2.174,9.238,3.804,14.129,4.347l-34.507,66.841h-4.891c-2.173,0-3.804,1.902-3.532,4.076
	c2.989,17.389,24.998,30.703,51.897,30.703s48.908-13.314,51.897-30.703c0.271-2.174-1.358-4.076-3.532-4.076h-4.891l-34.507-66.569
	c22.552-1.902,34.507-13.314,51.897-13.314v132.052c-9.51,0-17.39,7.879-17.39,17.39h-19.292c-7.608,0-15.487,7.879-15.487,17.389
	h139.117c0-9.51-7.881-17.389-19.292-17.389h-15.487c0-9.51-7.88-17.39-17.39-17.39V59.24c17.39,0,29.345,11.412,51.896,13.314
	l-34.507,66.569h-4.891c-2.174,0-3.805,1.902-3.533,4.076c2.989,17.389,24.998,30.703,51.897,30.703s48.907-13.314,51.896-30.703
	C416.415,141.025,414.784,139.123,412.61,139.123z M233.824,139.123h-52.168l26.084-48.908L233.824,139.123z M338.161,139.123
	l26.085-48.908l26.084,48.908H338.161z"/>
<g>
</g>
<g>
</g>
<g>
</g>
<g>
</g>
<g>
</g>
<g>
</g>
<g>
</g>
<g>
</g>
<g>
</g>
<g>
</g>
<g>
</g>
<g>
</g>
<g>
</g>
<g>
</g>
<g>
</g>
</svg>
