<?xml version="1.0" encoding="utf-8"?>
<!-- Generator: Adobe Illustrator 16.0.0, SVG Export Plug-In . SVG Version: 6.00 Build 0)  -->
<!DOCTYPE svg PUBLIC "-//W3C//DTD SVG 1.1 Tiny//EN" "http://www.w3.org/Graphics/SVG/1.1/DTD/svg11-tiny.dtd">
<svg version="1.1" baseProfile="tiny" id="Layer_1" xmlns="http://www.w3.org/2000/svg" xmlns:xlink="http://www.w3.org/1999/xlink"
	 x="0px" y="0px" viewBox="0 0 902.934 218.38" xml:space="preserve">
<g>
	<path fill="#333333" d="M727.965,103.122c-25.11,7.68-39.225,34.31-31.522,59.494c7.698,25.167,34.296,39.351,59.406,31.671
		c25.112-7.681,39.225-34.31,31.525-59.482C779.674,109.627,753.077,95.441,727.965,103.122z M753.224,185.704
		c-20.352,6.225-41.98-5.3-48.223-25.705c-6.241-20.408,5.238-42.067,25.59-48.292c20.351-6.224,41.982,5.306,48.226,25.716
		C785.057,157.825,773.576,179.479,753.224,185.704z"/>
	<path fill="#60965A" d="M728.19,117.054c-17.406,7.544-25.411,27.887-17.85,45.337c7.563,17.451,27.874,25.503,45.28,17.959
		c17.406-7.542,25.417-27.868,17.854-45.319C765.91,117.574,745.597,109.512,728.19,117.054z"/>
	<path id="path4934_1_" fill="#FFFFFF" d="M740.164,120.953c-0.648,0.115-1.3,0.242-1.968,0.379l-6.857,1.213l-7.689,1.358
		l6.765,38.261l-1.341,0.236l1.006,5.694l1.342-0.236l1.486,8.406l6.854-1.213l-1.484-8.406l0.833-0.146l1.487,8.405l6.857-1.213
		l-1.487-8.406l1.14-0.2l-1.007-5.693l-1.14,0.199l-1.094-6.189l2.987-0.514c5.974-1.059,11.281-1.542,14.762-8.253
		c1.299-2.91,1.838-6.153,1.587-9.296c-0.513-6.36-4.237-12.322-11.388-14.392C748.75,120.001,744.704,120.162,740.164,120.953
		L740.164,120.953z M731.501,128.329l0.834-0.148l3.378,19.107l1.002,5.658l1.386,7.842l-0.835,0.146l-1.387-7.841l-0.999-5.658
		L731.501,128.329z M739.192,126.97c13.642-1.915,20.269,5.065,18.889,12.577c-0.396,2.094-0.997,3.313-2.46,4.719
		c0.019-0.293,0.037-0.587,0.041-0.881c0.008-5.678-3.022-11.966-12.781-14.019c7.989,2.911,12.23,9.845,9.703,15.261
		c-5.599,1.901-10.646-2.131-11.618-7.625L739.192,126.97L739.192,126.97z"/>
</g>
<path fill="#333333" d="M600.717,101.41l-8.561-10.045c-0.788-0.924-0.676-2.313,0.246-3.1l68.548-56.527
	C649.202,19.309,635.514,9.3,620.373,1.68c-0.376-0.19-0.569-0.617-0.454-1.025c0.109-0.406,0.49-0.679,0.911-0.652
	c20.337,1.262,38.727,8.404,52.439,21.58l2.032-1.677c0.925-0.788,2.312-0.675,3.101,0.247l6.468,7.589
	c0.789,0.926,0.679,2.313-0.244,3.101l-2,1.753c10.721,15.582,14.807,34.781,12.842,54.96c-0.041,0.42-0.369,0.753-0.79,0.798
	c-0.42,0.044-0.813-0.212-0.94-0.614c-5.103-16.076-12.771-31.109-23.111-44.628l-66.806,58.547
	C602.895,102.444,601.508,102.333,600.717,101.41z"/>
<g>
	<path fill="#333333" d="M729.434,46.049c3.83-1.027,7.766,1.241,8.792,5.07c1.028,3.824-1.243,7.761-5.067,8.79
		c-3.828,1.028-7.765-1.241-8.794-5.07C723.34,51.012,725.61,47.077,729.434,46.049z"/>
	<circle fill="#333333" cx="710.455" cy="82.587" r="3.482"/>
	<circle fill="#333333" cx="709.668" cy="63.027" r="4.097"/>
	<path fill="#333333" d="M683.398,99.754c-0.435-1.633,0.531-3.313,2.166-3.753c1.634-0.438,3.313,0.532,3.752,2.164
		c0.441,1.637-0.529,3.314-2.165,3.754C685.522,102.358,683.839,101.388,683.398,99.754z"/>
	<circle fill="#333333" cx="666.472" cy="119.557" r="8.039"/>
	<path fill="#333333" d="M667.402,88.795c2.756-0.738,5.593,0.896,6.333,3.652c0.74,2.758-0.895,5.595-3.649,6.335
		c-2.761,0.739-5.597-0.895-6.338-3.652C663.009,92.372,664.646,89.537,667.402,88.795z"/>
</g>
<polygon fill="#333333" stroke="#FFFFFF" stroke-width="4" stroke-miterlimit="10" points="841.005,216.38 658.124,216.38 
	668.077,192.616 698.224,175.572 734.719,179.649 768.985,165.491 778.379,147.546 781.747,119.797 800.157,96.347 823.47,80.182 
	840.974,79.14 862.368,102.182 864.313,127.221 888.827,145.6 896.609,158.44 900.889,188.013 891.94,216.38 841.005,216.38 "/>
<g>
	<path fill="#333333" d="M73.054,127.628c0.781,1.86,1.549,3.734,2.304,5.62c0.754-1.94,1.537-3.854,2.345-5.741
		c0.809-1.886,1.67-3.692,2.588-5.417l34.606-64.766c0.431-0.809,0.875-1.456,1.334-1.941c0.458-0.485,0.97-0.835,1.537-1.051
		c0.566-0.215,1.199-0.35,1.9-0.404c0.7-0.053,1.536-0.081,2.507-0.081h16.414v116.918h-19.163v-75.52
		c0-1.401,0.041-2.938,0.122-4.609c0.081-1.67,0.202-3.368,0.364-5.094l-35.334,66.303c-0.809,1.51-1.86,2.682-3.153,3.518
		c-1.294,0.836-2.804,1.252-4.528,1.252h-2.992c-1.726,0-3.234-0.416-4.528-1.252c-1.293-0.836-2.345-2.008-3.153-3.518
		L30.402,85.299c0.214,1.779,0.364,3.518,0.444,5.215c0.081,1.698,0.122,3.275,0.122,4.73v75.52H11.805V53.846h16.414
		c0.97,0,1.805,0.028,2.506,0.081c0.7,0.054,1.334,0.189,1.9,0.404c0.566,0.216,1.092,0.566,1.577,1.051
		c0.485,0.485,0.942,1.132,1.375,1.941l34.93,64.928C71.423,123.977,72.272,125.769,73.054,127.628z"/>
	<path fill="#333333" d="M185.323,63.63c0,1.726-0.351,3.343-1.051,4.852c-0.701,1.51-1.631,2.83-2.79,3.962
		c-1.16,1.132-2.521,2.035-4.083,2.708c-1.564,0.675-3.234,1.011-5.013,1.011c-1.726,0-3.355-0.336-4.892-1.011
		c-1.536-0.673-2.87-1.577-4.002-2.708c-1.132-1.132-2.035-2.452-2.708-3.962c-0.675-1.509-1.011-3.126-1.011-4.852
		c0-1.779,0.336-3.449,1.011-5.013c0.673-1.563,1.577-2.911,2.708-4.043c1.132-1.132,2.466-2.034,4.002-2.708
		c1.537-0.673,3.166-1.011,4.892-1.011c1.779,0,3.449,0.337,5.013,1.011c1.563,0.675,2.923,1.577,4.083,2.708
		c1.159,1.132,2.088,2.48,2.79,4.043C184.972,60.181,185.323,61.851,185.323,63.63z M182.331,87.806v82.958h-19.972V87.806H182.331z
		"/>
	<path fill="#333333" d="M204.889,170.765V87.806h12.209c2.587,0,4.286,1.213,5.094,3.639l1.375,6.549
		c1.67-1.725,3.437-3.288,5.296-4.69c1.86-1.401,3.827-2.614,5.903-3.638c2.074-1.023,4.298-1.806,6.67-2.345
		c2.372-0.538,4.959-0.809,7.762-0.809c4.528,0,8.543,0.768,12.048,2.305c3.503,1.536,6.428,3.693,8.773,6.468
		c2.345,2.777,4.124,6.092,5.336,9.946c1.213,3.854,1.819,8.099,1.819,12.735v52.799h-19.972v-52.799
		c0-5.066-1.172-8.988-3.517-11.765c-2.345-2.776-5.862-4.164-10.552-4.164c-3.45,0-6.685,0.782-9.703,2.345
		c-3.02,1.564-5.876,3.693-8.571,6.388v59.995H204.889z"/>
	<path fill="#333333" d="M321.08,63.63c0,1.726-0.351,3.343-1.051,4.852c-0.701,1.51-1.631,2.83-2.79,3.962
		c-1.16,1.132-2.521,2.035-4.083,2.708c-1.564,0.675-3.234,1.011-5.013,1.011c-1.726,0-3.355-0.336-4.892-1.011
		c-1.536-0.673-2.87-1.577-4.002-2.708c-1.132-1.132-2.035-2.452-2.708-3.962c-0.675-1.509-1.011-3.126-1.011-4.852
		c0-1.779,0.336-3.449,1.011-5.013c0.673-1.563,1.577-2.911,2.708-4.043c1.132-1.132,2.466-2.034,4.002-2.708
		c1.537-0.673,3.166-1.011,4.892-1.011c1.779,0,3.449,0.337,5.013,1.011c1.563,0.675,2.923,1.577,4.083,2.708
		c1.159,1.132,2.088,2.48,2.79,4.043C320.729,60.181,321.08,61.851,321.08,63.63z M318.088,87.806v82.958h-19.972V87.806H318.088z"
		/>
	<path fill="#333333" d="M340.646,170.765V87.806h12.209c2.587,0,4.286,1.213,5.094,3.639l1.375,6.549
		c1.67-1.725,3.437-3.288,5.296-4.69c1.86-1.401,3.827-2.614,5.903-3.638c2.074-1.023,4.298-1.806,6.67-2.345
		c2.372-0.538,4.959-0.809,7.762-0.809c4.528,0,8.543,0.768,12.048,2.305c3.503,1.536,6.428,3.693,8.774,6.468
		c2.344,2.777,4.123,6.092,5.336,9.946c1.213,3.854,1.818,8.099,1.818,12.735v52.799h-19.971v-52.799
		c0-5.066-1.172-8.988-3.518-11.765c-2.345-2.776-5.862-4.164-10.551-4.164c-3.45,0-6.685,0.782-9.703,2.345
		c-3.02,1.564-5.876,3.693-8.571,6.388v59.995H340.646z"/>
	<path fill="#333333" d="M461.284,86.351c3.559,0,6.9,0.364,10.027,1.092c3.125,0.728,5.982,1.792,8.57,3.194h23.854v7.438
		c0,1.241-0.324,2.211-0.971,2.911c-0.646,0.701-1.752,1.186-3.314,1.455l-7.439,1.375c0.537,1.402,0.957,2.884,1.254,4.447
		c0.295,1.564,0.443,3.208,0.443,4.933c0,4.097-0.822,7.802-2.465,11.118c-1.646,3.315-3.91,6.133-6.793,8.449
		c-2.885,2.318-6.307,4.111-10.27,5.377c-3.961,1.268-8.26,1.901-12.896,1.901c-3.127,0-6.172-0.296-9.137-0.89
		c-2.586,1.576-3.881,3.341-3.881,5.294c0,1.684,0.77,2.92,2.305,3.707c1.537,0.787,3.559,1.342,6.064,1.668s5.35,0.488,8.531,0.488
		c3.18,0,6.439,0.137,9.783,0.406c3.342,0.27,6.602,0.744,9.783,1.42c3.18,0.676,6.023,1.744,8.531,3.205
		c2.506,1.459,4.527,3.447,6.063,5.963c1.537,2.514,2.305,5.746,2.305,9.691c0,3.678-0.902,7.248-2.709,10.709
		s-4.42,6.543-7.842,9.248c-3.424,2.703-7.615,4.879-12.574,6.531c-4.959,1.648-10.619,2.473-16.979,2.473
		c-6.307,0-11.779-0.605-16.414-1.818c-4.637-1.213-8.479-2.83-11.523-4.852s-5.322-4.354-6.832-6.994
		c-1.51-2.643-2.264-5.391-2.264-8.248c0-3.881,1.186-7.143,3.559-9.783c2.371-2.641,5.658-4.742,9.863-6.307
		c-2.049-1.133-3.693-2.641-4.932-4.529c-1.24-1.885-1.859-4.338-1.859-7.357c0-1.238,0.215-2.52,0.646-3.84
		c0.43-1.32,1.092-2.629,1.98-3.922c0.891-1.293,2.008-2.519,3.355-3.679c1.348-1.158,2.938-2.195,4.771-3.113
		c-4.205-2.264-7.508-5.282-9.906-9.056c-2.398-3.772-3.598-8.193-3.598-13.26c0-4.096,0.822-7.803,2.467-11.118
		c1.643-3.315,3.934-6.145,6.873-8.49c2.938-2.345,6.414-4.136,10.43-5.377C452.161,86.971,456.54,86.351,461.284,86.351z
		 M483.196,174.249c0-1.652-0.484-3-1.455-4.045c-0.971-1.047-2.291-1.857-3.961-2.436c-1.672-0.578-3.627-1.004-5.863-1.279
		s-4.607-0.414-7.115-0.414c-2.506,0-5.094,0-7.762,0s-5.242-0.295-7.723-0.889c-2.264,1.24-4.082,2.709-5.457,4.406
		s-2.063,3.65-2.063,5.861c0,1.457,0.365,2.816,1.092,4.084c0.729,1.266,1.887,2.357,3.477,3.275
		c1.59,0.916,3.652,1.629,6.186,2.143c2.533,0.512,5.633,0.768,9.299,0.768c3.721,0,6.926-0.289,9.623-0.867
		c2.693-0.578,4.918-1.375,6.67-2.395c1.752-1.018,3.031-2.229,3.84-3.631C482.792,177.425,483.196,175.897,483.196,174.249z
		 M461.284,127.264c2.48,0,4.637-0.336,6.469-1.011c1.832-0.673,3.355-1.603,4.568-2.79c1.213-1.185,2.129-2.614,2.75-4.285
		c0.619-1.67,0.93-3.503,0.93-5.499c0-4.096-1.227-7.344-3.68-9.743c-2.453-2.398-6.133-3.598-11.037-3.598s-8.584,1.2-11.037,3.598
		c-2.453,2.399-3.678,5.647-3.678,9.743c0,1.94,0.309,3.747,0.93,5.417c0.619,1.671,1.537,3.113,2.748,4.326
		c1.213,1.213,2.75,2.157,4.609,2.83C456.715,126.928,458.858,127.264,461.284,127.264z"/>
</g>
<g>
</g>
<g>
</g>
<g>
</g>
<g>
</g>
<g>
</g>
<g>
</g>
<g>
</g>
<g>
</g>
<g>
</g>
<g>
</g>
<g>
</g>
<g>
</g>
<g>
</g>
<g>
</g>
<g>
</g>
</svg>
