<?xml version="1.0" encoding="utf-8"?>
<!-- Generator: Adobe Illustrator 16.0.0, SVG Export Plug-In . SVG Version: 6.00 Build 0)  -->
<!DOCTYPE svg PUBLIC "-//W3C//DTD SVG 1.1 Tiny//EN" "http://www.w3.org/Graphics/SVG/1.1/DTD/svg11-tiny.dtd">
<svg version="1.1" baseProfile="tiny" id="Layer_1" xmlns="http://www.w3.org/2000/svg" xmlns:xlink="http://www.w3.org/1999/xlink"
	 x="0px" y="0px" viewBox="0 0 898.426 453.702" xml:space="preserve">
<g>
	<path fill="#333333" d="M422.657,76.444c-0.792-0.915-1.764-1.417-2.913-1.908c-1.146-0.491-2.454-0.536-3.92-0.536h-3.764v20
		h3.764c1.466,0,2.773,0.174,3.92-0.317c1.149-0.49,2.121-0.983,2.913-1.897c0.794-0.915,1.404-1.925,1.826-3.24
		c0.423-1.314,0.634-2.742,0.634-4.39c0-1.632-0.211-3.08-0.634-4.395C424.061,78.446,423.451,77.358,422.657,76.444z"/>
	<path fill="#333333" d="M226.06,0v115.335l112.985,0.976L339.332,393h20.729V117h115V0H226.06z M372.06,14h21v5h-14v7h10v7h-10v7
		h14v6h-21V14z M338.06,14h3.114c0.333,0,0.613-0.335,0.839-0.305c0.227,0.029,0.431-0.088,0.612-0.006
		c0.182,0.084,0.355,0.114,0.522,0.265c0.166,0.152,0.354,0.312,0.566,0.569L359.4,34.336c-0.06-0.634,0.315-1.262,0.284-1.859
		c-0.03-0.597,0.376-1.169,0.376-1.699V14h7v32h-5.075c-0.59,0-1.089,0.074-1.497-0.109c-0.407-0.18-0.802-0.43-1.178-0.915
		l-15.574-19.635c0.045,0.575,0.666,1.158,0.695,1.709c0.03,0.552,0.628,1.089,0.628,1.573V46h-7V14z M324.06,14h7v32h-7V14z
		 M279.06,14h6.849c0.333,0,0.624,0,0.873,0c0.249,0,0.472-0.301,0.669-0.226c0.196,0.076,0.374,0.024,0.532,0.183
		c0.159,0.159,0.313,0.297,0.465,0.584l8.501,16.728c0.302,0.575,0.592,1.151,0.872,1.771c0.28,0.62,0.548,1.245,0.806,1.895
		c0.256-0.665,0.528-1.317,0.816-1.945c0.287-0.627,0.582-1.239,0.884-1.83l8.478-16.702c0.151-0.288,0.306-0.511,0.464-0.67
		c0.158-0.158,0.336,0.062,0.533-0.014c0.196-0.076,0.419,0.225,0.669,0.225c0.249,0,0.54,0,0.873,0h5.717v32h-7V27.332
		c0-0.921,0.234-1.919,0.324-2.992l-8.656,16.979c-0.272,0.529-0.592,1.466-1.053,1.737c-0.461,0.272-0.939,0.944-1.528,0.944
		h-1.042c-0.59,0-1.115-0.672-1.575-0.944c-0.462-0.271-0.828-0.939-1.1-1.469l-8.796-17.136c0.061,0.529-0.272,0.987-0.242,1.508
		c0.03,0.521-0.333,0.935-0.333,1.372V46h-7V14z M271.662,88.719c0.461,1.315,1.089,2.422,1.882,3.321
		c0.792,0.899,1.719,1.583,2.776,2.051c1.058,0.468,2.192,0.703,3.401,0.703c0.694,0,1.33-0.035,1.903-0.102
		c0.574-0.068,1.107-0.186,1.599-0.352c0.491-0.167,0.959-0.382,1.406-0.646c0.444-0.265,0.895-0.593,1.348-0.986
		c0.181-0.151,0.377-0.276,0.589-0.374c0.212-0.098,0.431-0.147,0.658-0.147c0.182,0,0.363,0.034,0.544,0.102
		c0.181,0.068,0.355,0.185,0.521,0.351l3.038,3.196c-1.331,1.738-2.996,3.049-4.999,3.933c-2.002,0.884-4.371,1.327-7.106,1.327
		c-2.509,0-4.757-0.427-6.744-1.281c-1.987-0.853-3.672-2.032-5.055-3.536c-1.383-1.504-2.445-3.288-3.186-5.35
		c-0.74-2.063-1.11-4.304-1.11-6.722c0-2.463,0.422-4.727,1.27-6.79c0.846-2.063,2.029-3.842,3.547-5.338
		c1.52-1.497,3.336-2.66,5.452-3.491c2.115-0.832,4.451-1.248,7.005-1.248c1.238,0,2.406,0.11,3.502,0.329
		c1.095,0.219,2.12,0.522,3.071,0.906c0.952,0.386,1.829,0.848,2.629,1.384c0.802,0.537,1.511,1.13,2.131,1.779l-2.584,3.468
		c-0.166,0.212-0.363,0.404-0.589,0.578c-0.227,0.174-0.543,0.261-0.952,0.261c-0.272,0-0.53-0.061-0.771-0.182
		c-0.242-0.121-0.499-0.269-0.771-0.442c-0.271-0.173-0.57-0.363-0.895-0.566c-0.325-0.205-0.71-0.393-1.156-0.567
		c-0.446-0.173-0.967-0.321-1.563-0.441c-0.598-0.121-1.296-0.182-2.098-0.182c-1.39,0-2.66,0.247-3.808,0.737
		c-1.149,0.492-2.135,1.194-2.958,2.108c-0.824,0.915-1.467,2.021-1.928,3.321c-0.461,1.3-0.691,2.758-0.691,4.375
		C270.97,85.9,271.201,87.404,271.662,88.719z M315.06,101h-21V67h9v27h12V101z M347.897,90.873
		c-0.823,2.056-1.983,3.842-3.479,5.361c-1.497,1.519-3.299,2.709-5.407,3.571c-2.108,0.861-4.447,1.292-7.016,1.292
		s-4.912-0.431-7.028-1.292c-2.116-0.862-3.924-2.052-5.429-3.571c-1.503-1.519-2.667-3.305-3.49-5.361
		c-0.825-2.055-1.236-4.276-1.236-6.665c0-2.388,0.412-4.609,1.236-6.665c0.823-2.055,1.987-3.838,3.49-5.35
		c1.505-1.511,3.313-2.698,5.429-3.559c2.116-0.861,4.459-1.292,7.028-1.292s4.908,0.436,7.016,1.304
		c2.108,0.869,3.911,2.059,5.407,3.57c1.496,1.512,2.656,3.295,3.479,5.35c0.824,2.056,1.236,4.27,1.236,6.642
		C349.133,86.596,348.722,88.818,347.897,90.873z M372.776,94.432c-0.53,1.33-1.297,2.49-2.302,3.479
		c-1.004,0.991-2.244,1.769-3.717,2.335c-1.474,0.567-3.147,0.851-5.021,0.851c-1.027,0-2.074-0.106-3.139-0.318
		c-1.066-0.211-2.098-0.51-3.095-0.895c-0.997-0.386-1.934-0.843-2.81-1.372s-1.64-1.118-2.29-1.768l2.267-3.582
		c0.167-0.272,0.4-0.491,0.703-0.657c0.302-0.167,0.627-0.25,0.975-0.25c0.454,0,0.911,0.145,1.371,0.431
		c0.461,0.287,0.982,0.604,1.565,0.952c0.582,0.348,1.25,0.666,2.006,0.952c0.755,0.288,1.646,0.431,2.675,0.431
		c1.39,0,2.47-0.306,3.242-0.917c0.771-0.613,1.155-1.583,1.155-2.913c0-0.771-0.211-1.397-0.634-1.882
		c-0.423-0.483-0.979-0.884-1.666-1.201c-0.688-0.317-1.47-0.597-2.347-0.839c-0.876-0.241-1.776-0.51-2.697-0.804
		c-0.922-0.295-1.821-0.658-2.698-1.088c-0.877-0.431-1.658-0.998-2.347-1.701c-0.688-0.702-1.242-1.579-1.666-2.629
		c-0.423-1.05-0.635-2.346-0.635-3.888c0-1.239,0.25-2.448,0.748-3.627s1.231-2.229,2.199-3.151
		c0.967-0.921,2.154-1.658,3.559-2.209c1.406-0.553,3.016-0.829,4.829-0.829c1.013,0,2,0.08,2.958,0.238
		c0.959,0.159,1.87,0.393,2.732,0.703c0.861,0.31,1.666,0.68,2.415,1.11c0.747,0.431,1.416,0.918,2.006,1.462l-1.905,3.559
		c-0.226,0.363-0.464,0.634-0.714,0.816c-0.249,0.181-0.57,0.271-0.962,0.271c-0.348,0-0.723-0.109-1.123-0.329
		c-0.4-0.218-0.853-0.464-1.36-0.736s-1.085-0.517-1.734-0.736c-0.65-0.219-1.39-0.329-2.222-0.329
		c-1.435,0-2.504,0.306-3.208,0.917c-0.701,0.612-1.053,1.44-1.053,2.482c0,0.665,0.211,1.217,0.634,1.655s0.978,0.816,1.666,1.134
		c0.688,0.317,1.474,0.608,2.358,0.873c0.884,0.265,1.787,0.559,2.709,0.884c0.921,0.325,1.825,0.707,2.709,1.145
		c0.884,0.438,1.669,0.997,2.357,1.678c0.687,0.679,1.243,1.507,1.666,2.482c0.423,0.975,0.635,2.15,0.635,3.524
		C373.569,91.674,373.304,93.102,372.776,94.432z M400.06,74h-14v7h10v5h-10v8h14v7h-23V67h23V74z M399.728,45.479
		c-0.998-0.385-1.935-0.843-2.812-1.372c-0.876-0.529-1.64-1.118-2.289-1.768l2.267-3.582c0.166-0.272,0.399-0.491,0.702-0.657
		c0.303-0.167,0.627-0.25,0.976-0.25c0.453,0,0.91,0.144,1.371,0.43c0.461,0.288,0.982,0.604,1.564,0.952
		c0.582,0.348,1.251,0.666,2.006,0.952c0.756,0.287,1.647,0.431,2.676,0.431c1.39,0,2.471-0.306,3.24-0.918
		c0.771-0.612,1.156-1.583,1.156-2.913c0-0.771-0.211-1.398-0.634-1.882c-0.424-0.484-0.979-0.884-1.666-1.201
		c-0.688-0.317-1.47-0.597-2.347-0.839c-0.877-0.241-1.775-0.51-2.697-0.805c-0.923-0.295-1.821-0.658-2.698-1.088
		s-1.658-0.997-2.347-1.7c-0.688-0.703-1.242-1.579-1.666-2.63c-0.423-1.05-0.634-2.346-0.634-3.887
		c0-1.239,0.249-2.448,0.747-3.627c0.499-1.179,1.232-2.229,2.199-3.151c0.968-0.921,2.154-1.658,3.559-2.209
		c1.405-0.552,3.016-0.828,4.829-0.828c1.012,0,1.998,0.079,2.958,0.237c0.96,0.16,1.87,0.393,2.732,0.704
		c0.862,0.31,1.666,0.679,2.414,1.11c0.747,0.431,1.416,0.919,2.006,1.462l-1.905,3.559c-0.225,0.363-0.463,0.635-0.714,0.816
		c-0.248,0.181-0.57,0.271-0.963,0.271c-0.348,0-0.722-0.109-1.121-0.328c-0.401-0.219-0.854-0.464-1.36-0.737
		c-0.507-0.272-1.085-0.517-1.734-0.737c-0.649-0.219-1.391-0.329-2.222-0.329c-1.437,0-2.506,0.306-3.208,0.918
		s-1.054,1.439-1.054,2.482c0,0.666,0.211,1.217,0.635,1.655c0.423,0.438,0.978,0.816,1.666,1.134
		c0.688,0.316,1.474,0.608,2.357,0.873c0.885,0.265,1.787,0.559,2.709,0.884s1.825,0.707,2.709,1.145
		c0.885,0.438,1.67,0.997,2.356,1.677c0.688,0.68,1.243,1.508,1.666,2.482c0.424,0.975,0.638,2.15,0.638,3.525
		c0,1.527-0.266,2.955-0.795,4.285c-0.529,1.33-1.297,2.49-2.301,3.479c-1.005,0.991-2.245,1.768-3.718,2.335
		c-1.474,0.567-3.147,0.85-5.021,0.85c-1.027,0-2.074-0.106-3.14-0.317S400.725,45.863,399.728,45.479z M431.724,90.815
		c-0.822,2.018-1.981,3.764-3.48,5.237c-1.495,1.473-3.298,2.756-5.403,3.579c-2.108,0.825-4.447,1.369-7.017,1.369H402.06V67
		h13.764c2.569,0,4.908,0.768,7.017,1.6c2.105,0.831,3.908,2.155,5.403,3.621c1.499,1.466,2.658,3.296,3.48,5.314
		c0.824,2.017,1.236,4.256,1.236,6.629C432.96,86.552,432.548,88.798,431.724,90.815z"/>
	<path fill="#333333" d="M338.83,76.478c-0.793-0.907-1.765-1.602-2.912-2.085c-1.149-0.484-2.457-0.726-3.922-0.726
		c-1.481,0-2.8,0.242-3.957,0.726c-1.155,0.483-2.13,1.179-2.923,2.085s-1.402,2.014-1.825,3.321
		c-0.423,1.307-0.634,2.776-0.634,4.409c0,1.647,0.211,3.125,0.634,4.431c0.423,1.307,1.032,2.415,1.825,3.321
		c0.793,0.907,1.768,1.599,2.923,2.074c1.157,0.477,2.475,0.715,3.957,0.715c1.466,0,2.773-0.238,3.922-0.715
		c1.147-0.476,2.119-1.167,2.912-2.074c0.793-0.906,1.401-2.014,1.825-3.321c0.423-1.306,0.635-2.784,0.635-4.431
		c0-1.632-0.212-3.102-0.635-4.409C340.231,78.492,339.623,77.385,338.83,76.478z"/>
</g>
<g>
	<path fill="#60965A" d="M578.58,230.648l-121.462,88.579c19.466,22.442,42.388,41.027,67.932,55.739
		c0.64,0.368,0.943,1.122,0.728,1.805c-0.215,0.682-0.89,1.101-1.613,1.006c-34.854-4.532-66.026-18.762-88.863-42.638l-3.639,2.65
		c-1.643,1.234-4.029,0.88-5.335-0.793l-10.708-13.702c-1.297-1.67-1.027-4.022,0.617-5.258l3.517-2.733
		c-17.762-27.927-23.741-61.307-19.106-95.655c0.093-0.71,0.683-1.238,1.408-1.264c0.731-0.035,1.391,0.454,1.587,1.153
		c7.873,28.155,20.277,54.815,37.427,79.185l118.621-92.264c1.636-1.23,4.031-0.879,5.332,0.79l14.172,18.137
		C580.494,227.06,580.221,229.413,578.58,230.648z"/>
</g>
<g>
	<path fill="#60965A" d="M871.157,368.08l-148.739-44.766c-6.658,29.006-7.972,58.487-4.441,87.769
		c0.089,0.732-0.353,1.426-1.054,1.659c-0.7,0.233-1.465-0.059-1.834-0.696c-17.75-30.691-25.158-64.205-19.387-96.771l-4.454-1.343
		c-2.042-0.584-3.221-2.711-2.636-4.757l4.793-16.765c0.589-2.037,2.713-3.222,4.758-2.638l4.446,1.196
		c12.276-30.904,36.368-55.596,67.818-72.34c0.649-0.349,1.454-0.189,1.923,0.377c0.479,0.566,0.479,1.387,0.02,1.961
		c-18.573,23.099-33.104,48.946-42.797,77.241l150.051,40.288c2.035,0.581,3.222,2.713,2.637,4.753l-6.345,22.188
		C875.326,367.479,873.199,368.663,871.157,368.08z"/>
</g>
<g>
	<path fill="#60965A" d="M79.797,248.369l12.503-19.397c1.149-1.785,3.534-2.298,5.313-1.15l129.204,86.282
		c14.889-25.939,24.748-53.903,29.875-83.098c0.129-0.725,0.747-1.264,1.488-1.277c0.735-0.022,1.385,0.479,1.552,1.197
		c8.138,34.687,5.451,69.081-9.698,98.683l3.832,2.556c1.786,1.152,2.296,3.531,1.151,5.316l-9.447,14.654
		c-1.153,1.788-3.53,2.304-5.315,1.154l-3.944-2.466c-20.686,25.807-50.772,42.326-85.552,49.209
		c-0.723,0.143-1.446-0.239-1.733-0.92c-0.286-0.681-0.057-1.47,0.554-1.886c24.347-16.646,45.651-37.066,63.074-61.193
		L80.947,253.688C79.162,252.538,78.651,250.158,79.797,248.369z"/>
</g>
<polygon fill="#333333" stroke="#FFFFFF" stroke-width="4" stroke-miterlimit="10" points="552.279,451.702 3.006,451.702 
	32.899,380.33 137.097,349.429 230.782,398.203 278.015,372.727 322.333,364.771 351.878,339.771 396.196,313.636 453.7,330.18 
	484.833,364.772 523.469,348.863 587.105,404.546 643.923,377.272 745.06,369.318 823.469,395.454 892.788,451.702 552.279,451.702 
	"/>
<g>
</g>
<g>
</g>
<g>
</g>
<g>
</g>
<g>
</g>
<g>
</g>
<g>
</g>
<g>
</g>
<g>
</g>
<g>
</g>
<g>
</g>
<g>
</g>
<g>
</g>
<g>
</g>
<g>
</g>
</svg>
