<?xml version="1.0" encoding="utf-8"?>
<!-- Generator: Adobe Illustrator 16.0.0, SVG Export Plug-In . SVG Version: 6.00 Build 0)  -->
<!DOCTYPE svg PUBLIC "-//W3C//DTD SVG 1.1 Tiny//EN" "http://www.w3.org/Graphics/SVG/1.1/DTD/svg11-tiny.dtd">
<svg version="1.1" baseProfile="tiny" id="Layer_1" xmlns="http://www.w3.org/2000/svg" xmlns:xlink="http://www.w3.org/1999/xlink"
	 x="0px" y="0px" viewBox="0 0 943.558 235.791" xml:space="preserve">
<g>
	<path fill="#FFFFFF" d="M674.827,185.034c-0.706,10.804-13.271,17.108-30.871,17.108c-17.604,0-32.575-5.062-31.693-17.108
		c0.938-12.83,14.503-14.405,32.104-14.405C661.969,170.629,675.369,176.767,674.827,185.034z"/>
	<g>
		<path fill="#333333" d="M643.5,168.855c-17.119,0-30.998,6.521-30.998,14.573c0,8.048,13.879,14.569,30.998,14.569
			c17.121,0,30.999-6.521,30.999-14.569C674.499,175.38,660.621,168.855,643.5,168.855z M643.5,195.255
			c-13.873,0-25.162-5.3-25.162-11.827c0-6.521,11.289-11.831,25.162-11.831s25.163,5.306,25.163,11.831
			C668.663,189.952,657.373,195.255,643.5,195.255z"/>
		<path fill="#60965A" d="M643.5,172.883c-12.369,0-22.429,4.731-22.429,10.547c0,5.814,10.063,10.541,22.429,10.541
			c12.368,0,22.434-4.727,22.434-10.541C665.934,177.611,655.87,172.883,643.5,172.883z"/>
		<path id="path4934_4_" fill="#FFFFFF" d="M645.515,175.642c-0.429,0-0.863,0.003-1.306,0.009h-4.54h-5.091v11.876h-0.889v1.77
			h0.889v2.611h4.54v-2.611h0.551v2.611h4.54v-2.611h0.751v-1.77h-0.751v-1.923l1.976,0.006c3.954,0,7.419,0.137,10.415-1.699
			c1.161-0.807,1.879-1.756,2.074-2.716c0.394-1.943-1.323-3.937-5.68-4.936C651.139,175.808,648.521,175.642,645.515,175.642
			L645.515,175.642z M639.118,177.399h0.551v5.933v1.757v2.435h-0.551v-2.435v-1.757V177.399z M644.209,177.399
			c8.975,0.152,12.437,2.604,10.697,4.793c-0.489,0.611-1.015,0.945-2.116,1.292c0.044-0.085,0.094-0.178,0.126-0.265
			c0.652-1.71-0.58-3.766-6.615-4.902c4.8,1.299,6.737,3.614,4.496,5.109c-3.809,0.276-6.591-1.206-6.591-2.915v-3.111H644.209z"/>
		<path fill="#333333" d="M612.581,184.946c0,0-5.675,17.154,30.261,17.204c35.216,0.052,31.735-17.204,31.735-17.204
			s-0.786,14.173-31.146,14.173C613.069,199.119,612.581,184.946,612.581,184.946z"/>
	</g>
</g>
<g>
	<path fill="#FFFFFF" d="M674.829,175.17c-0.705,10.805-13.273,17.108-30.873,17.108c-17.604,0-32.575-5.062-31.693-17.108
		c0.938-12.83,14.503-14.403,32.104-14.403C661.966,160.767,675.369,166.903,674.829,175.17z"/>
	<g>
		<path fill="#333333" d="M643.5,158.995c-17.119,0-30.998,6.521-30.998,14.572c0,8.048,13.879,14.57,30.998,14.57
			c17.121,0,30.999-6.522,30.999-14.57C674.499,165.516,660.618,158.995,643.5,158.995z M643.5,185.392
			c-13.873,0-25.162-5.301-25.162-11.828c0-6.522,11.289-11.831,25.162-11.831s25.166,5.306,25.166,11.831
			C668.663,180.088,657.373,185.392,643.5,185.392z"/>
		<path fill="#60965A" d="M643.5,163.019c-12.369,0-22.429,4.731-22.429,10.548c0,5.813,10.063,10.541,22.429,10.541
			c12.368,0,22.434-4.728,22.434-10.541C665.934,167.75,655.87,163.019,643.5,163.019z"/>
		<path id="path4934_3_" fill="#FFFFFF" d="M645.515,165.778c-0.429,0-0.863,0.003-1.306,0.009h-4.54h-5.091v11.877h-0.889v1.769
			h0.889v2.611h4.54v-2.611h0.551v2.611h4.54v-2.611h0.751v-1.769h-0.751v-1.923l1.976,0.006c3.954,0,7.419,0.137,10.415-1.699
			c1.158-0.807,1.879-1.757,2.071-2.716c0.396-1.944-1.32-3.937-5.677-4.936C651.139,165.944,648.52,165.781,645.515,165.778
			L645.515,165.778z M639.118,167.536h0.551v5.932v1.758v2.436h-0.551v-2.436v-1.758V167.536z M644.209,167.536
			c8.975,0.151,12.437,2.605,10.697,4.793c-0.492,0.612-1.015,0.944-2.116,1.291c0.044-0.084,0.091-0.177,0.126-0.265
			c0.652-1.711-0.58-3.766-6.615-4.901c4.8,1.299,6.734,3.613,4.496,5.108c-3.809,0.277-6.591-1.207-6.591-2.913v-3.112H644.209z"/>
		<path fill="#333333" d="M612.581,175.082c0,0-5.675,17.155,30.261,17.204c35.216,0.054,31.733-17.204,31.733-17.204
			s-0.784,14.174-31.145,14.174C613.069,189.256,612.581,175.082,612.581,175.082z"/>
	</g>
</g>
<g>
	<path fill="#FFFFFF" d="M674.547,164.854c-0.706,10.805-13.274,17.109-30.875,17.109c-17.603,0-32.574-5.063-31.691-17.109
		c0.938-12.829,14.503-14.403,32.104-14.403C661.684,150.451,675.082,156.587,674.547,164.854z"/>
	<g>
		<path fill="#333333" d="M643.216,148.679c-17.12,0-31,6.521-31,14.572c0,8.048,13.88,14.57,31,14.57
			c17.118,0,30.998-6.522,30.998-14.57C674.214,155.201,660.334,148.679,643.216,148.679z M643.216,175.077
			c-13.875,0-25.163-5.301-25.163-11.828c0-6.521,11.288-11.831,25.163-11.831c13.873,0,25.165,5.307,25.165,11.831
			C668.381,169.773,657.092,175.077,643.216,175.077z"/>
		<path fill="#60965A" d="M643.216,152.704c-12.37,0-22.43,4.732-22.43,10.548c0,5.813,10.063,10.54,22.43,10.54
			c12.366,0,22.431-4.727,22.431-10.54C665.646,157.433,655.585,152.704,643.216,152.704z"/>
		<path id="path4934_2_" fill="#FFFFFF" d="M645.229,155.463c-0.429,0-0.862,0.003-1.305,0.009h-4.54h-5.091v11.877h-0.89v1.769
			h0.89v2.611h4.539v-2.611h0.552v2.611h4.54v-2.611h0.751v-1.769h-0.751v-1.923l1.975,0.006c3.955,0,7.42,0.136,10.415-1.7
			c1.159-0.807,1.879-1.757,2.071-2.715c0.396-1.944-1.319-3.936-5.676-4.937C650.853,155.629,648.232,155.466,645.229,155.463
			L645.229,155.463z M638.832,157.22h0.552v5.932v1.757v2.436h-0.552v-2.436v-1.757V157.22z M643.924,157.22
			c8.975,0.152,12.436,2.604,10.697,4.792c-0.494,0.612-1.015,0.945-2.116,1.292c0.044-0.085,0.09-0.178,0.125-0.265
			c0.653-1.71-0.58-3.766-6.614-4.901c4.799,1.3,6.733,3.614,4.496,5.108c-3.809,0.277-6.591-1.206-6.591-2.914v-3.112H643.924z"/>
		<path fill="#333333" d="M612.295,164.767c0,0-5.674,17.156,30.262,17.204c35.216,0.053,31.733-17.204,31.733-17.204
			s-0.784,14.174-31.145,14.174S612.295,164.767,612.295,164.767z"/>
	</g>
</g>
<g>
	<path fill="#FFFFFF" d="M675.105,154.994c-0.705,10.804-13.273,17.107-30.873,17.107c-17.604,0-32.575-5.063-31.692-17.107
		c0.938-12.83,14.502-14.405,32.103-14.405S675.645,146.727,675.105,154.994z"/>
	<g>
		<path fill="#333333" d="M643.774,138.815c-17.12,0-30.995,6.521-30.995,14.572c0,8.049,13.879,14.57,30.995,14.57
			c17.123,0,31.002-6.521,31.002-14.57C674.776,145.337,660.895,138.815,643.774,138.815z M643.774,165.212
			c-13.874,0-25.162-5.299-25.162-11.828c0-6.521,11.288-11.83,25.162-11.83c13.877,0,25.168,5.306,25.168,11.83
			C668.939,159.91,657.651,165.212,643.774,165.212z"/>
		<path fill="#60965A" d="M643.774,142.842c-12.366,0-22.429,4.732-22.429,10.548c0,5.813,10.063,10.539,22.429,10.539
			c12.37,0,22.432-4.726,22.432-10.539C666.206,147.571,656.145,142.842,643.774,142.842z"/>
		<path id="path4934_1_" fill="#FFFFFF" d="M645.791,145.599c-0.426,0-0.862,0.003-1.303,0.009h-4.543h-5.091v11.876h-0.888v1.769
			h0.888v2.61h4.541v-2.61h0.55v2.61h4.543v-2.61h0.753v-1.769h-0.753v-1.922l1.977,0.005c3.953,0,7.418,0.138,10.414-1.698
			c1.16-0.808,1.879-1.757,2.071-2.716c0.396-1.944-1.319-3.937-5.677-4.936C651.412,145.768,648.796,145.602,645.791,145.599
			L645.791,145.599z M639.393,147.356h0.55v5.933v1.756v2.436h-0.55v-2.436v-1.756V147.356z M644.485,147.356
			c8.973,0.151,12.438,2.605,10.697,4.793c-0.492,0.612-1.014,0.944-2.115,1.292c0.043-0.084,0.09-0.178,0.125-0.265
			c0.652-1.711-0.58-3.766-6.614-4.902c4.796,1.3,6.733,3.614,4.496,5.108c-3.809,0.277-6.592-1.207-6.592-2.914v-3.111H644.485z"/>
		<path fill="#333333" d="M612.854,154.903c0,0-5.674,17.154,30.262,17.204c35.216,0.052,31.732-17.204,31.732-17.204
			s-0.783,14.173-31.145,14.173C613.344,169.076,612.854,154.903,612.854,154.903z"/>
	</g>
</g>
<path fill="#60965A" d="M742.313,71.672l10.517-53.779c0.207-1.062,2.127-2.643,3.209-2.643h139.014
	c1.037,0,2.863,1.517,3.053,2.536l10.043,53.886h15.512l-10.563-56.681C911.561,6.746,903.44,0,895.053,0H756.039
	c-8.387,0-16.565,6.734-18.175,14.966l-11.089,56.706H742.313z"/>
<path fill="#333333" d="M930.849,79.297H719.391c-8.388,0-13.933,6.607-12.323,14.839l23.171,118.559
	c1.61,8.232,9.789,15.029,18.177,15.029h154.772c8.387,0,16.506-6.873,18.042-15.117l22.074-118.382
	C944.841,85.979,939.235,79.297,930.849,79.297z M906.703,200.275c0,1.965-1.593,3.558-3.558,3.558H747.094
	c-1.966,0-3.559-1.593-3.559-3.558v-0.509c0-1.965,1.593-3.558,3.559-3.558h156.052c1.965,0,3.558,1.593,3.558,3.558V200.275z
	 M906.703,177.401c0,1.965-1.593,3.558-3.558,3.558H747.094c-1.966,0-3.559-1.593-3.559-3.558v-0.508
	c0-1.965,1.593-3.558,3.559-3.558h156.052c1.965,0,3.558,1.593,3.558,3.558V177.401z M906.703,154.527
	c0,1.965-1.593,3.558-3.558,3.558H747.094c-1.966,0-3.559-1.593-3.559-3.558v-0.508c0-1.965,1.593-3.558,3.559-3.558h156.052
	c1.965,0,3.558,1.593,3.558,3.558V154.527z M906.703,131.653c0,1.965-1.593,3.558-3.558,3.558H747.094
	c-1.966,0-3.559-1.593-3.559-3.558v-0.508c0-1.965,1.593-3.558,3.559-3.558h156.052c1.965,0,3.558,1.593,3.558,3.558V131.653z
	 M906.703,108.779c0,1.965-1.593,3.558-3.558,3.558H747.094c-1.966,0-3.559-1.593-3.559-3.558v-0.508
	c0-1.965,1.593-3.558,3.559-3.558h156.052c1.965,0,3.558,1.593,3.558,3.558V108.779z"/>
<g>
	<g>
		<g>
			<path fill="#FFFFFF" d="M725.011,202.926c-0.705,10.805-13.271,17.108-30.87,17.108c-17.604,0-32.576-5.062-31.693-17.108
				c0.938-12.83,14.503-14.404,32.104-14.404C712.153,188.522,725.553,194.659,725.011,202.926z"/>
			<g>
				<path fill="#333333" d="M693.685,186.748c-17.119,0-30.998,6.522-30.998,14.573c0,8.048,13.879,14.569,30.998,14.569
					c17.121,0,30.999-6.521,30.999-14.569C724.684,193.272,710.806,186.748,693.685,186.748z M693.685,213.148
					c-13.873,0-25.162-5.302-25.162-11.828c0-6.521,11.289-11.831,25.162-11.831s25.163,5.307,25.163,11.831
					C718.848,207.845,707.558,213.148,693.685,213.148z"/>
				<path fill="#60965A" d="M693.685,190.775c-12.369,0-22.429,4.732-22.429,10.548c0,5.813,10.063,10.54,22.429,10.54
					c12.368,0,22.433-4.728,22.433-10.54C716.117,195.504,706.055,190.775,693.685,190.775z"/>
				<path id="path4934_11_" fill="#FFFFFF" d="M695.699,193.534c-0.429,0-0.863,0.003-1.306,0.009h-4.54h-5.092v11.877h-0.888v1.769
					h0.888v2.611h4.541v-2.611h0.551v2.611h4.54v-2.611h0.751v-1.769h-0.751v-1.923l1.976,0.006c3.954,0,7.419,0.137,10.415-1.698
					c1.161-0.808,1.879-1.757,2.074-2.717c0.394-1.943-1.323-3.936-5.68-4.937C701.323,193.7,698.706,193.534,695.699,193.534
					L695.699,193.534z M689.303,195.292h0.551v5.933v1.757v2.436h-0.551v-2.436v-1.757V195.292z M694.394,195.292
					c8.975,0.152,12.437,2.604,10.696,4.792c-0.488,0.612-1.014,0.945-2.115,1.292c0.044-0.085,0.094-0.178,0.126-0.265
					c0.652-1.711-0.581-3.766-6.615-4.902c4.8,1.3,6.737,3.614,4.496,5.108c-3.809,0.276-6.591-1.206-6.591-2.914v-3.112H694.394z"
					/>
				<path fill="#333333" d="M662.766,202.839c0,0-5.675,17.154,30.261,17.204c35.215,0.052,31.735-17.204,31.735-17.204
					s-0.786,14.173-31.146,14.173C663.254,217.012,662.766,202.839,662.766,202.839z"/>
			</g>
		</g>
		<g>
			<path fill="#FFFFFF" d="M725.014,193.063c-0.705,10.804-13.273,17.107-30.873,17.107c-17.604,0-32.576-5.062-31.693-17.107
				c0.938-12.831,14.503-14.404,32.104-14.404C712.15,178.659,725.553,184.796,725.014,193.063z"/>
			<g>
				<path fill="#333333" d="M693.685,176.887c-17.119,0-30.998,6.521-30.998,14.573c0,8.048,13.879,14.571,30.998,14.571
					c17.121,0,30.999-6.522,30.999-14.571C724.684,183.408,710.803,176.887,693.685,176.887z M693.685,203.285
					c-13.873,0-25.162-5.301-25.162-11.829c0-6.522,11.289-11.831,25.162-11.831s25.166,5.306,25.166,11.831
					C718.848,197.981,707.558,203.285,693.685,203.285z"/>
				<path fill="#60965A" d="M693.685,180.911c-12.369,0-22.429,4.732-22.429,10.549c0,5.813,10.063,10.54,22.429,10.54
					c12.368,0,22.433-4.727,22.433-10.54C716.117,185.643,706.055,180.911,693.685,180.911z"/>
				<path id="path4934_10_" fill="#FFFFFF" d="M695.699,183.67c-0.429,0-0.863,0.003-1.306,0.009h-4.54h-5.092v11.877h-0.888v1.769
					h0.888v2.611h4.541v-2.611h0.551v2.611h4.54v-2.611h0.751v-1.769h-0.751v-1.923l1.976,0.006c3.954,0,7.419,0.137,10.415-1.699
					c1.158-0.807,1.879-1.757,2.071-2.716c0.396-1.944-1.32-3.937-5.677-4.936C701.323,183.836,698.703,183.673,695.699,183.67
					L695.699,183.67z M689.303,185.428h0.551v5.933v1.758v2.435h-0.551v-2.435v-1.758V185.428z M694.394,185.428
					c8.975,0.151,12.437,2.605,10.696,4.794c-0.491,0.611-1.014,0.943-2.115,1.291c0.044-0.084,0.09-0.178,0.126-0.265
					c0.652-1.711-0.581-3.766-6.615-4.902c4.8,1.3,6.734,3.614,4.496,5.108c-3.809,0.277-6.591-1.207-6.591-2.914v-3.112H694.394z"
					/>
				<path fill="#333333" d="M662.766,192.975c0,0-5.675,17.155,30.261,17.204c35.215,0.053,31.733-17.204,31.733-17.204
					s-0.784,14.174-31.145,14.174C663.254,207.148,662.766,192.975,662.766,192.975z"/>
			</g>
		</g>
		<g>
			<path fill="#FFFFFF" d="M724.731,182.746c-0.707,10.805-13.274,17.109-30.875,17.109c-17.603,0-32.574-5.062-31.691-17.109
				c0.938-12.829,14.503-14.403,32.104-14.403C711.868,168.343,725.267,174.479,724.731,182.746z"/>
			<g>
				<path fill="#333333" d="M693.4,166.571c-17.121,0-31,6.521-31,14.572c0,8.048,13.879,14.571,31,14.571
					c17.118,0,30.998-6.523,30.998-14.571C724.398,173.093,710.519,166.571,693.4,166.571z M693.4,192.969
					c-13.875,0-25.163-5.301-25.163-11.828c0-6.521,11.288-11.831,25.163-11.831c13.872,0,25.164,5.307,25.164,11.831
					C718.564,187.666,707.275,192.969,693.4,192.969z"/>
				<path fill="#60965A" d="M693.4,170.596c-12.37,0-22.43,4.732-22.43,10.548c0,5.813,10.063,10.54,22.43,10.54
					c12.366,0,22.431-4.727,22.431-10.54C715.831,175.325,705.77,170.596,693.4,170.596z"/>
				<path id="path4934_9_" fill="#FFFFFF" d="M695.413,173.355c-0.429,0-0.862,0.003-1.306,0.008h-4.539h-5.091v11.877h-0.89v1.768
					h0.89v2.611h4.539v-2.611h0.552v2.611h4.539v-2.611h0.752v-1.768h-0.752v-1.923l1.976,0.006c3.955,0,7.42,0.136,10.414-1.7
					c1.16-0.807,1.88-1.757,2.072-2.715c0.396-1.943-1.319-3.937-5.676-4.937C701.037,173.521,698.417,173.358,695.413,173.355
					L695.413,173.355z M689.017,175.112h0.552v5.933v1.757v2.436h-0.552v-2.436v-1.757V175.112z M694.107,175.112
					c8.976,0.152,12.437,2.604,10.698,4.793c-0.494,0.612-1.015,0.945-2.116,1.291c0.044-0.085,0.09-0.178,0.125-0.265
					c0.653-1.71-0.58-3.765-6.615-4.901c4.8,1.3,6.734,3.614,4.497,5.108c-3.81,0.277-6.592-1.207-6.592-2.914v-3.112H694.107z"/>
				<path fill="#333333" d="M662.479,182.659c0,0-5.673,17.155,30.263,17.204c35.215,0.053,31.733-17.204,31.733-17.204
					s-0.784,14.174-31.146,14.174C662.97,196.833,662.479,182.659,662.479,182.659z"/>
			</g>
		</g>
		<g>
			<path fill="#FFFFFF" d="M725.29,172.886c-0.705,10.804-13.273,17.107-30.873,17.107c-17.604,0-32.575-5.062-31.692-17.107
				c0.938-12.83,14.502-14.404,32.103-14.404S725.829,164.619,725.29,172.886z"/>
			<g>
				<path fill="#333333" d="M693.959,156.708c-17.12,0-30.996,6.522-30.996,14.572c0,8.049,13.879,14.57,30.996,14.57
					c17.123,0,31.002-6.521,31.002-14.57C724.961,163.229,711.079,156.708,693.959,156.708z M693.959,183.105
					c-13.874,0-25.162-5.3-25.162-11.828c0-6.521,11.288-11.83,25.162-11.83c13.877,0,25.168,5.306,25.168,11.83
					C719.124,177.803,707.836,183.105,693.959,183.105z"/>
				<path fill="#60965A" d="M693.959,160.734c-12.367,0-22.43,4.732-22.43,10.548c0,5.813,10.063,10.54,22.43,10.54
					c12.37,0,22.432-4.726,22.432-10.54C716.391,165.463,706.329,160.734,693.959,160.734z"/>
				<path id="path4934_8_" fill="#FFFFFF" d="M695.976,163.491c-0.426,0-0.862,0.003-1.303,0.009h-4.543h-5.091v11.876h-0.888v1.77
					h0.888v2.61h4.541v-2.61h0.55v2.61h4.543v-2.61h0.753v-1.77h-0.753v-1.922l1.976,0.005c3.954,0,7.419,0.138,10.415-1.698
					c1.16-0.808,1.879-1.757,2.071-2.716c0.396-1.944-1.32-3.937-5.677-4.936C701.597,163.66,698.98,163.494,695.976,163.491
					L695.976,163.491z M689.577,165.249h0.55v5.933v1.757v2.436h-0.55v-2.436v-1.757V165.249z M694.67,165.249
					c8.973,0.151,12.438,2.605,10.697,4.793c-0.492,0.611-1.014,0.944-2.115,1.291c0.043-0.084,0.09-0.178,0.125-0.265
					c0.652-1.711-0.58-3.766-6.614-4.902c4.796,1.3,6.733,3.614,4.496,5.108c-3.81,0.277-6.592-1.206-6.592-2.914v-3.111H694.67z"/>
				<path fill="#333333" d="M663.039,172.795c0,0-5.674,17.155,30.261,17.204c35.217,0.052,31.733-17.204,31.733-17.204
					s-0.783,14.173-31.145,14.173C663.528,186.969,663.039,172.795,663.039,172.795z"/>
			</g>
		</g>
	</g>
	<g>
		<g>
			<path fill="#FFFFFF" d="M724.658,163.255c-0.706,10.805-13.271,17.107-30.871,17.107c-17.604,0-32.575-5.062-31.692-17.107
				c0.939-12.831,14.503-14.404,32.103-14.404C711.801,148.852,725.196,154.989,724.658,163.255z"/>
			<g>
				<path fill="#333333" d="M693.332,147.077c-17.119,0-30.998,6.521-30.998,14.573c0,8.048,13.879,14.569,30.998,14.569
					c17.12,0,30.999-6.521,30.999-14.569C724.331,153.598,710.452,147.077,693.332,147.077z M693.332,173.478
					c-13.876,0-25.165-5.301-25.165-11.827c0-6.522,11.289-11.831,25.165-11.831c13.877,0,25.163,5.305,25.163,11.831
					C718.495,168.174,707.205,173.478,693.332,173.478z"/>
				<path fill="#60965A" d="M693.332,151.104c-12.369,0-22.432,4.733-22.432,10.549c0,5.813,10.063,10.54,22.432,10.54
					c12.367,0,22.43-4.727,22.43-10.54C715.762,155.834,705.699,151.104,693.332,151.104z"/>
				<path id="path4934_18_" fill="#FFFFFF" d="M695.343,153.86c-0.429,0-0.862,0.003-1.305,0.009h-4.54h-5.092v11.878h-0.889v1.769
					h0.889v2.611h4.541v-2.611h0.551v2.611h4.54v-2.611h0.754v-1.769h-0.754v-1.924l1.979,0.006c3.954,0,7.419,0.137,10.412-1.699
					c1.161-0.807,1.882-1.757,2.077-2.716c0.394-1.943-1.326-3.937-5.68-4.936C700.968,154.029,698.354,153.863,695.343,153.86
					L695.343,153.86z M688.947,155.621h0.551v5.933v1.757v2.437h-0.551v-2.437v-1.757V155.621z M694.038,155.621
					c8.975,0.151,12.439,2.605,10.7,4.793c-0.49,0.612-1.015,0.944-2.119,1.291c0.047-0.084,0.094-0.179,0.128-0.265
					c0.653-1.711-0.58-3.765-6.617-4.901c4.8,1.299,6.739,3.612,4.499,5.107c-3.812,0.277-6.594-1.206-6.594-2.914v-3.112H694.038z"
					/>
				<path fill="#333333" d="M662.41,163.168c0,0-5.675,17.154,30.261,17.204c35.215,0.053,31.736-17.204,31.736-17.204
					s-0.787,14.174-31.147,14.174C662.898,177.342,662.41,163.168,662.41,163.168z"/>
			</g>
		</g>
		<g>
			<path fill="#FFFFFF" d="M724.661,153.392c-0.706,10.805-13.273,17.107-30.874,17.107c-17.604,0-32.575-5.061-31.692-17.107
				c0.939-12.831,14.503-14.404,32.103-14.404C711.799,138.988,725.196,145.124,724.661,153.392z"/>
			<g>
				<path fill="#333333" d="M693.332,137.212c-17.119,0-30.998,6.523-30.998,14.573c0,8.048,13.879,14.57,30.998,14.57
					c17.12,0,30.999-6.521,30.999-14.57C724.331,143.738,710.449,137.212,693.332,137.212z M693.332,163.614
					c-13.876,0-25.165-5.301-25.165-11.828c0-6.521,11.289-11.83,25.165-11.83c13.873,0,25.165,5.307,25.165,11.83
					C718.495,158.31,707.205,163.614,693.332,163.614z"/>
				<path fill="#60965A" d="M693.332,141.24c-12.369,0-22.432,4.732-22.432,10.548c0,5.814,10.063,10.54,22.432,10.54
					c12.367,0,22.43-4.726,22.43-10.54C715.762,145.97,705.699,141.24,693.332,141.24z"/>
				<path id="path4934_17_" fill="#FFFFFF" d="M695.343,143.997c-0.429,0-0.862,0.002-1.305,0.01h-4.54h-5.092v11.876h-0.889v1.769
					h0.889v2.611h4.541v-2.611h0.551v2.611h4.54v-2.611h0.754v-1.769h-0.754v-1.923l1.979,0.005c3.954,0,7.419,0.137,10.414-1.699
					c1.159-0.807,1.88-1.757,2.072-2.715c0.396-1.945-1.32-3.938-5.677-4.937C700.968,144.166,698.35,143.999,695.343,143.997
					L695.343,143.997z M688.947,145.756h0.551v5.933v1.757v2.437h-0.551v-2.437v-1.757V145.756z M694.038,145.756
					c8.975,0.152,12.439,2.606,10.7,4.794c-0.492,0.612-1.015,0.944-2.115,1.291c0.043-0.084,0.09-0.177,0.124-0.264
					c0.653-1.711-0.58-3.766-6.617-4.902c4.8,1.299,6.737,3.613,4.499,5.108c-3.809,0.277-6.594-1.206-6.594-2.914v-3.112H694.038z"
					/>
				<path fill="#333333" d="M662.41,153.304c0,0-5.675,17.154,30.261,17.204c35.215,0.052,31.733-17.204,31.733-17.204
					s-0.784,14.173-31.145,14.173C662.898,167.478,662.41,153.304,662.41,153.304z"/>
			</g>
		</g>
		<g>
			<path fill="#FFFFFF" d="M724.374,143.077c-0.704,10.804-13.272,17.107-30.873,17.107c-17.603,0-32.575-5.062-31.691-17.107
				c0.938-12.831,14.503-14.404,32.103-14.404C711.513,128.672,724.914,134.809,724.374,143.077z"/>
			<g>
				<path fill="#333333" d="M693.047,126.897c-17.119,0-30.999,6.521-30.999,14.573c0,8.048,13.88,14.57,30.999,14.57
					s30.999-6.522,30.999-14.571C724.046,133.422,710.163,126.897,693.047,126.897z M693.047,153.298
					c-13.877,0-25.165-5.301-25.165-11.829c0-6.521,11.288-11.83,25.165-11.83c13.873,0,25.166,5.306,25.166,11.83
					C718.209,147.995,706.92,153.298,693.047,153.298z"/>
				<path fill="#60965A" d="M693.047,130.925c-12.369,0-22.432,4.733-22.432,10.549c0,5.813,10.063,10.54,22.432,10.54
					c12.367,0,22.429-4.727,22.429-10.54C715.476,135.654,705.414,130.925,693.047,130.925z"/>
				<path id="path4934_16_" fill="#FFFFFF" d="M695.06,133.681c-0.428,0-0.862,0.003-1.304,0.009h-4.541h-5.091v11.878h-0.889v1.768
					h0.889v2.611h4.54v-2.611h0.551v2.611h4.541v-2.611h0.754v-1.768h-0.754v-1.924l1.978,0.006c3.954,0,7.419,0.137,10.414-1.699
					c1.16-0.807,1.881-1.757,2.072-2.716c0.396-1.943-1.319-3.937-5.676-4.935C700.682,133.85,698.064,133.684,695.06,133.681
					L695.06,133.681z M688.661,135.441h0.551v5.933v1.756v2.436h-0.551v-2.436v-1.756V135.441z M693.752,135.441
					c8.976,0.152,12.439,2.605,10.7,4.793c-0.493,0.613-1.014,0.944-2.115,1.292c0.044-0.084,0.09-0.178,0.125-0.265
					c0.653-1.711-0.58-3.765-6.617-4.901c4.799,1.299,6.736,3.613,4.499,5.107c-3.809,0.277-6.594-1.207-6.594-2.914v-3.112H693.752
					z"/>
				<path fill="#333333" d="M662.124,142.988c0,0-5.674,17.154,30.262,17.204c35.215,0.053,31.733-17.204,31.733-17.204
					s-0.784,14.174-31.145,14.174S662.124,142.988,662.124,142.988z"/>
			</g>
		</g>
		<g>
			<path fill="#FFFFFF" d="M724.938,133.212c-0.705,10.805-13.273,17.107-30.873,17.107c-17.601,0-32.576-5.061-31.692-17.107
				c0.938-12.831,14.502-14.404,32.103-14.404S725.474,124.945,724.938,133.212z"/>
			<g>
				<path fill="#333333" d="M693.606,117.036c-17.12,0-30.995,6.522-30.995,14.574c0,8.048,13.875,14.57,30.995,14.57
					c17.123,0,31.001-6.522,31.001-14.57C724.605,123.558,710.727,117.036,693.606,117.036z M693.606,143.435
					c-13.874,0-25.162-5.301-25.162-11.828c0-6.521,11.285-11.831,25.162-11.831c13.876,0,25.168,5.307,25.168,11.831
					C718.769,138.131,707.48,143.435,693.606,143.435z"/>
				<path fill="#60965A" d="M693.606,121.062c-12.367,0-22.429,4.732-22.429,10.548c0,5.813,10.062,10.54,22.429,10.54
					c12.37,0,22.432-4.727,22.432-10.54C716.038,125.791,705.977,121.062,693.606,121.062z"/>
				<path id="path4934_15_" fill="#FFFFFF" d="M695.62,123.82c-0.425,0-0.863,0.003-1.303,0.008h-4.543h-5.091v11.878h-0.888v1.768
					h0.888v2.612h4.541v-2.612h0.55v2.612h4.543v-2.612h0.751v-1.768h-0.751v-1.924l1.977,0.006c3.953,0,7.418,0.136,10.414-1.699
					c1.159-0.807,1.879-1.757,2.071-2.715c0.396-1.944-1.319-3.937-5.677-4.937C701.244,123.986,698.625,123.823,695.62,123.82
					L695.62,123.82z M689.225,125.578h0.55v5.932v1.757v2.437h-0.55v-2.437v-1.757V125.578z M694.317,125.578
					c8.972,0.151,12.437,2.605,10.697,4.793c-0.492,0.612-1.015,0.944-2.115,1.291c0.043-0.084,0.09-0.177,0.125-0.265
					c0.652-1.71-0.58-3.765-6.614-4.901c4.796,1.299,6.733,3.613,4.496,5.108c-3.809,0.277-6.592-1.207-6.592-2.915v-3.112H694.317z
					"/>
				<path fill="#333333" d="M662.687,133.125c0,0-5.674,17.154,30.262,17.204c35.215,0.052,31.732-17.204,31.732-17.204
					s-0.784,14.173-31.145,14.173S662.687,133.125,662.687,133.125z"/>
			</g>
		</g>
	</g>
</g>
<g>
	<path fill="#FFFFFF" d="M677.501,207.3c-0.706,10.805-13.274,17.108-30.875,17.108c-17.603,0-32.574-5.062-31.691-17.108
		c0.938-12.829,14.503-14.403,32.104-14.403C664.638,192.896,678.036,199.033,677.501,207.3z"/>
	<g>
		<path fill="#333333" d="M646.17,191.125c-17.121,0-31,6.521-31,14.572c0,8.048,13.879,14.57,31,14.57
			c17.118,0,30.998-6.522,30.998-14.57C677.168,197.646,663.288,191.125,646.17,191.125z M646.17,217.522
			c-13.875,0-25.163-5.302-25.163-11.828c0-6.521,11.288-11.831,25.163-11.831c13.873,0,25.165,5.308,25.165,11.831
			C671.335,212.219,660.046,217.522,646.17,217.522z"/>
		<path fill="#60965A" d="M646.17,195.149c-12.37,0-22.43,4.732-22.43,10.548c0,5.813,10.063,10.539,22.43,10.539
			c12.366,0,22.431-4.727,22.431-10.539C668.601,199.878,658.539,195.149,646.17,195.149z"/>
		<path id="path4934_14_" fill="#FFFFFF" d="M648.183,197.909c-0.429,0-0.862,0.003-1.305,0.008h-4.54h-5.091v11.877h-0.89v1.769
			h0.89v2.611h4.539v-2.611h0.552v2.611h4.54v-2.611h0.751v-1.769h-0.751v-1.923l1.975,0.006c3.955,0,7.42,0.137,10.415-1.699
			c1.16-0.808,1.879-1.757,2.071-2.716c0.396-1.943-1.319-3.936-5.676-4.937C653.807,198.075,651.187,197.912,648.183,197.909
			L648.183,197.909z M641.786,199.666h0.552v5.932v1.758v2.437h-0.552v-2.437v-1.758V199.666z M646.878,199.666
			c8.975,0.151,12.436,2.604,10.697,4.792c-0.494,0.612-1.015,0.945-2.116,1.292c0.044-0.086,0.09-0.178,0.125-0.266
			c0.653-1.71-0.58-3.766-6.614-4.901c4.799,1.3,6.733,3.614,4.496,5.108c-3.809,0.276-6.591-1.206-6.591-2.914v-3.111H646.878z"/>
		<path fill="#333333" d="M615.248,207.212c0,0-5.673,17.156,30.263,17.204c35.216,0.053,31.733-17.204,31.733-17.204
			s-0.784,14.175-31.145,14.175S615.248,207.212,615.248,207.212z"/>
	</g>
</g>
<g>
	<path fill="#FFFFFF" d="M678.06,197.439c-0.705,10.805-13.272,17.107-30.873,17.107c-17.604,0-32.575-5.063-31.692-17.107
		c0.938-12.83,14.502-14.404,32.103-14.404S678.599,189.172,678.06,197.439z"/>
	<g>
		<path fill="#333333" d="M646.729,181.261c-17.12,0-30.995,6.522-30.995,14.572c0,8.05,13.878,14.57,30.995,14.57
			c17.123,0,31.002-6.521,31.002-14.57C677.73,187.783,663.849,181.261,646.729,181.261z M646.729,207.658
			c-13.874,0-25.162-5.3-25.162-11.828c0-6.521,11.288-11.83,25.162-11.83c13.877,0,25.168,5.306,25.168,11.83
			C671.894,202.355,660.605,207.658,646.729,207.658z"/>
		<path fill="#60965A" d="M646.729,185.288c-12.367,0-22.43,4.732-22.43,10.548c0,5.813,10.063,10.539,22.43,10.539
			c12.37,0,22.432-4.726,22.432-10.539C669.16,190.017,659.099,185.288,646.729,185.288z"/>
		<path id="path4934_13_" fill="#FFFFFF" d="M648.745,188.045c-0.426,0-0.862,0.003-1.303,0.009H642.9h-5.092v11.876h-0.888v1.77
			h0.888v2.61h4.541v-2.61h0.551v2.61h4.542v-2.61h0.753v-1.77h-0.753v-1.922l1.977,0.005c3.953,0,7.418,0.138,10.414-1.698
			c1.16-0.807,1.88-1.757,2.071-2.716c0.396-1.944-1.319-3.937-5.677-4.936C654.366,188.213,651.75,188.048,648.745,188.045
			L648.745,188.045z M642.347,189.802h0.55v5.934v1.756v2.437h-0.55v-2.437v-1.756V189.802z M647.439,189.802
			c8.973,0.152,12.438,2.605,10.697,4.793c-0.492,0.612-1.014,0.944-2.115,1.292c0.043-0.085,0.09-0.179,0.125-0.266
			c0.652-1.711-0.58-3.766-6.614-4.902c4.796,1.3,6.733,3.614,4.496,5.108c-3.81,0.277-6.592-1.206-6.592-2.914v-3.112H647.439z"/>
		<path fill="#333333" d="M615.809,197.349c0,0-5.674,17.154,30.262,17.204c35.216,0.052,31.732-17.204,31.732-17.204
			s-0.783,14.174-31.145,14.174C616.298,211.522,615.809,197.349,615.809,197.349z"/>
	</g>
</g>
<g>
	<g>
		<path fill="#FFFFFF" d="M732.933,218.674c-0.706,10.805-13.271,17.108-30.871,17.108c-17.604,0-32.575-5.062-31.692-17.108
			c0.938-12.83,14.502-14.404,32.104-14.404C720.075,204.27,733.475,210.407,732.933,218.674z"/>
		<g>
			<path fill="#333333" d="M701.606,202.495c-17.12,0-30.999,6.521-30.999,14.573c0,8.048,13.879,14.569,30.999,14.569
				s30.999-6.521,30.999-14.569S718.727,202.495,701.606,202.495z M701.606,228.896c-13.873,0-25.162-5.3-25.162-11.827
				c0-6.521,11.289-11.831,25.162-11.831s25.163,5.307,25.163,11.831S715.479,228.896,701.606,228.896z"/>
			<path fill="#60965A" d="M701.606,206.523c-12.37,0-22.429,4.731-22.429,10.547c0,5.814,10.062,10.541,22.429,10.541
				s22.433-4.727,22.433-10.541C724.039,211.252,713.977,206.523,701.606,206.523z"/>
			<path id="path4934_12_" fill="#FFFFFF" d="M703.62,209.282c-0.428,0-0.863,0.003-1.306,0.009h-4.539h-5.092v11.877h-0.888v1.77
				h0.888v2.61h4.541v-2.61h0.551v2.61h4.539v-2.61h0.752v-1.77h-0.752v-1.923l1.977,0.006c3.953,0,7.418,0.137,10.414-1.699
				c1.162-0.807,1.88-1.756,2.075-2.716c0.393-1.943-1.323-3.937-5.681-4.937C709.244,209.448,706.628,209.282,703.62,209.282
				L703.62,209.282z M697.225,211.039h0.551v5.934v1.757v2.436h-0.551v-2.436v-1.757V211.039z M702.314,211.039
				c8.976,0.152,12.438,2.604,10.697,4.794c-0.489,0.611-1.014,0.945-2.115,1.291c0.043-0.085,0.093-0.178,0.125-0.265
				c0.653-1.711-0.58-3.766-6.614-4.902c4.8,1.3,6.736,3.613,4.496,5.108c-3.81,0.276-6.592-1.206-6.592-2.914v-3.112H702.314z"/>
			<path fill="#333333" d="M670.687,218.587c0,0-5.674,17.154,30.262,17.204c35.215,0.052,31.735-17.204,31.735-17.204
				s-0.786,14.173-31.147,14.173C671.176,232.76,670.687,218.587,670.687,218.587z"/>
		</g>
	</g>
	<g>
		<path fill="#FFFFFF" d="M732.935,208.811c-0.705,10.805-13.272,17.108-30.873,17.108c-17.604,0-32.575-5.063-31.692-17.108
			c0.938-12.83,14.502-14.403,32.104-14.403C720.072,194.407,733.475,200.544,732.935,208.811z"/>
		<g>
			<path fill="#333333" d="M701.606,192.635c-17.12,0-30.999,6.521-30.999,14.572c0,8.049,13.879,14.57,30.999,14.57
				s30.999-6.521,30.999-14.57C732.605,199.156,718.724,192.635,701.606,192.635z M701.606,219.032
				c-13.873,0-25.162-5.301-25.162-11.828c0-6.521,11.289-11.83,25.162-11.83s25.166,5.306,25.166,11.83
				C726.77,213.729,715.479,219.032,701.606,219.032z"/>
			<path fill="#60965A" d="M701.606,196.659c-12.37,0-22.429,4.731-22.429,10.548c0,5.813,10.062,10.541,22.429,10.541
				s22.433-4.728,22.433-10.541C724.039,201.391,713.977,196.659,701.606,196.659z"/>
			<path id="path4934_7_" fill="#FFFFFF" d="M703.62,199.419c-0.428,0-0.863,0.003-1.306,0.009h-4.539h-5.092v11.877h-0.888v1.769
				h0.888v2.611h4.541v-2.611h0.551v2.611h4.539v-2.611h0.752v-1.769h-0.752v-1.923l1.977,0.006c3.953,0,7.418,0.137,10.414-1.699
				c1.159-0.807,1.88-1.757,2.072-2.716c0.396-1.944-1.32-3.937-5.678-4.937C709.244,199.585,706.625,199.422,703.62,199.419
				L703.62,199.419z M697.225,201.176h0.551v5.933v1.758v2.436h-0.551v-2.436v-1.758V201.176z M702.314,201.176
				c8.976,0.151,12.438,2.605,10.697,4.793c-0.492,0.612-1.014,0.944-2.115,1.291c0.043-0.084,0.09-0.178,0.125-0.265
				c0.653-1.711-0.58-3.766-6.614-4.901c4.8,1.299,6.733,3.613,4.496,5.107c-3.81,0.277-6.592-1.206-6.592-2.913v-3.112H702.314z"/>
			<path fill="#333333" d="M670.687,208.723c0,0-5.674,17.155,30.262,17.204c35.215,0.054,31.733-17.204,31.733-17.204
				s-0.784,14.174-31.146,14.174C671.176,222.896,670.687,208.723,670.687,208.723z"/>
		</g>
	</g>
	<g>
		<path fill="#FFFFFF" d="M732.652,198.494c-0.705,10.805-13.273,17.109-30.874,17.109c-17.604,0-32.575-5.063-31.692-17.109
			c0.938-12.829,14.504-14.403,32.104-14.403S733.188,190.228,732.652,198.494z"/>
		<g>
			<path fill="#333333" d="M701.321,182.32c-17.12,0-30.999,6.521-30.999,14.572c0,8.048,13.879,14.57,30.999,14.57
				c17.119,0,30.999-6.522,30.999-14.57C732.32,188.841,718.44,182.32,701.321,182.32z M701.321,208.718
				c-13.874,0-25.162-5.302-25.162-11.829c0-6.521,11.288-11.83,25.162-11.83c13.873,0,25.165,5.307,25.165,11.83
				C726.486,203.414,715.197,208.718,701.321,208.718z"/>
			<path fill="#60965A" d="M701.321,186.344c-12.369,0-22.429,4.732-22.429,10.547c0,5.813,10.062,10.54,22.429,10.54
				s22.431-4.727,22.431-10.54C723.752,191.073,713.691,186.344,701.321,186.344z"/>
			<path id="path4934_6_" fill="#FFFFFF" d="M703.334,189.104c-0.428,0-0.861,0.003-1.305,0.008h-4.539h-5.092v11.877h-0.889v1.769
				h0.889v2.61h4.54v-2.61h0.552v2.61h4.539v-2.61h0.752v-1.769h-0.752v-1.923l1.976,0.006c3.954,0,7.419,0.136,10.414-1.699
				c1.16-0.808,1.88-1.758,2.071-2.716c0.397-1.944-1.318-3.937-5.675-4.937C708.958,189.27,706.339,189.106,703.334,189.104
				L703.334,189.104z M696.938,190.861h0.552v5.932v1.757v2.437h-0.552v-2.437v-1.757V190.861z M702.029,190.861
				c8.975,0.152,12.437,2.604,10.697,4.792c-0.493,0.613-1.015,0.946-2.115,1.292c0.044-0.085,0.09-0.178,0.125-0.265
				c0.653-1.71-0.58-3.766-6.615-4.901c4.799,1.299,6.734,3.614,4.497,5.107c-3.81,0.277-6.592-1.206-6.592-2.914v-3.111H702.029z"
				/>
			<path fill="#333333" d="M670.4,198.407c0,0-5.673,17.155,30.263,17.204c35.215,0.053,31.732-17.204,31.732-17.204
				s-0.783,14.174-31.145,14.174C670.891,212.581,670.4,198.407,670.4,198.407z"/>
		</g>
	</g>
	<g>
		<path fill="#FFFFFF" d="M733.212,188.634c-0.705,10.804-13.273,17.108-30.874,17.108c-17.604,0-32.575-5.063-31.691-17.108
			c0.938-12.83,14.502-14.404,32.103-14.404C720.349,174.23,733.751,180.367,733.212,188.634z"/>
		<g>
			<path fill="#333333" d="M701.881,172.456c-17.12,0-30.996,6.521-30.996,14.572c0,8.049,13.879,14.569,30.996,14.569
				c17.122,0,31.001-6.521,31.001-14.569C732.882,178.978,719,172.456,701.881,172.456z M701.881,198.853
				c-13.874,0-25.163-5.299-25.163-11.827c0-6.521,11.289-11.831,25.163-11.831c13.877,0,25.168,5.306,25.168,11.831
				C727.045,193.55,715.758,198.853,701.881,198.853z"/>
			<path fill="#60965A" d="M701.881,176.482c-12.367,0-22.43,4.732-22.43,10.549c0,5.813,10.063,10.539,22.43,10.539
				c12.369,0,22.432-4.726,22.432-10.539C724.313,181.212,714.25,176.482,701.881,176.482z"/>
			<path id="path4934_5_" fill="#FFFFFF" d="M703.897,179.24c-0.426,0-0.862,0.003-1.303,0.009h-4.543h-5.092v11.876h-0.888v1.769
				h0.888v2.61h4.541v-2.61h0.551v2.61h4.543v-2.61h0.752v-1.769h-0.752v-1.923l1.976,0.006c3.954,0,7.419,0.137,10.415-1.698
				c1.159-0.808,1.879-1.757,2.071-2.716c0.396-1.944-1.32-3.937-5.677-4.936C709.518,179.408,706.901,179.243,703.897,179.24
				L703.897,179.24z M697.498,180.997h0.551v5.933v1.757v2.436h-0.551v-2.436v-1.757V180.997z M702.592,180.997
				c8.972,0.151,12.437,2.605,10.697,4.793c-0.493,0.612-1.015,0.944-2.116,1.291c0.044-0.084,0.091-0.178,0.125-0.265
				c0.653-1.711-0.579-3.766-6.613-4.902c4.796,1.3,6.732,3.614,4.495,5.108c-3.809,0.277-6.592-1.206-6.592-2.914v-3.111H702.592z"
				/>
			<path fill="#333333" d="M670.961,188.543c0,0-5.675,17.155,30.261,17.205c35.217,0.052,31.733-17.205,31.733-17.205
				s-0.784,14.173-31.146,14.173C671.45,202.717,670.961,188.543,670.961,188.543z"/>
		</g>
	</g>
</g>
<g>
	<path fill="#333333" d="M54.239,119.757c0.58,1.381,1.15,2.772,1.711,4.172c0.56-1.441,1.141-2.861,1.741-4.262
		c0.6-1.401,1.24-2.741,1.921-4.022l25.694-48.086c0.32-0.601,0.65-1.081,0.991-1.441c0.339-0.36,0.72-0.62,1.141-0.78
		c0.42-0.16,0.89-0.26,1.411-0.3c0.52-0.039,1.141-0.06,1.861-0.06h12.187v86.807H88.668v-56.07c0-1.041,0.03-2.181,0.09-3.422
		c0.06-1.24,0.15-2.501,0.271-3.782l-26.234,49.227c-0.6,1.121-1.381,1.991-2.341,2.611c-0.96,0.621-2.082,0.93-3.362,0.93H54.87
		c-1.281,0-2.401-0.31-3.362-0.93c-0.96-0.62-1.741-1.491-2.341-2.611L22.572,88.33c0.159,1.321,0.27,2.612,0.33,3.873
		c0.06,1.26,0.09,2.431,0.09,3.512v56.07H8.765V64.978h12.187c0.721,0,1.341,0.021,1.861,0.06c0.52,0.041,0.99,0.141,1.411,0.3
		c0.42,0.16,0.811,0.42,1.17,0.78c0.36,0.36,0.7,0.84,1.021,1.441l25.934,48.206C53.028,117.046,53.659,118.376,54.239,119.757z"/>
	<path fill="#333333" d="M145.038,89.231c3.882,0,7.454,0.621,10.716,1.861c3.262,1.241,6.073,3.052,8.435,5.433
		c2.361,2.381,4.202,5.303,5.523,8.765c1.321,3.462,1.981,7.414,1.981,11.856c0,1.121-0.051,2.051-0.15,2.792
		c-0.1,0.741-0.28,1.321-0.54,1.741c-0.261,0.42-0.611,0.721-1.051,0.9c-0.441,0.18-1.001,0.271-1.681,0.271h-38.061
		c0.44,6.324,2.141,10.966,5.103,13.927c2.961,2.962,6.883,4.442,11.766,4.442c2.401,0,4.473-0.279,6.213-0.84
		c1.741-0.56,3.262-1.18,4.563-1.861c1.3-0.68,2.441-1.3,3.422-1.861c0.98-0.56,1.931-0.84,2.852-0.84c0.601,0,1.12,0.12,1.561,0.36
		c0.44,0.24,0.82,0.581,1.141,1.021l4.322,5.403c-1.642,1.921-3.482,3.533-5.523,4.833c-2.041,1.301-4.172,2.341-6.394,3.122
		c-2.221,0.78-4.483,1.33-6.784,1.651c-2.302,0.32-4.532,0.48-6.693,0.48c-4.283,0-8.265-0.711-11.947-2.131
		c-3.683-1.42-6.884-3.521-9.605-6.304c-2.722-2.781-4.863-6.223-6.423-10.326c-1.561-4.102-2.341-8.854-2.341-14.257
		c0-4.203,0.68-8.154,2.041-11.856c1.36-3.702,3.311-6.924,5.853-9.666c2.541-2.741,5.643-4.912,9.305-6.513
		C136.303,90.032,140.435,89.231,145.038,89.231z M145.338,99.856c-4.322,0-7.705,1.221-10.146,3.662
		c-2.441,2.441-4.002,5.904-4.683,10.386h27.855c0-1.921-0.261-3.731-0.78-5.433c-0.521-1.701-1.321-3.191-2.401-4.472
		c-1.081-1.281-2.441-2.291-4.082-3.032C149.459,100.227,147.539,99.856,145.338,99.856z"/>
	<path fill="#333333" d="M183.757,151.785V90.191h8.705c1.521,0,2.582,0.28,3.182,0.84c0.601,0.561,1,1.521,1.201,2.882l0.9,7.444
		c2.201-3.802,4.782-6.803,7.745-9.005c2.961-2.201,6.283-3.302,9.965-3.302c3.041,0,5.562,0.701,7.564,2.101l-1.921,11.106
		c-0.12,0.72-0.381,1.23-0.781,1.531c-0.4,0.3-0.94,0.45-1.621,0.45c-0.601,0-1.421-0.14-2.461-0.42
		c-1.041-0.28-2.422-0.42-4.142-0.42c-3.083,0-5.724,0.851-7.924,2.551c-2.202,1.702-4.063,4.193-5.583,7.474v38.361H183.757z"/>
	<path fill="#333333" d="M276.086,103.218c-0.44,0.561-0.87,1.001-1.291,1.321c-0.42,0.321-1.031,0.48-1.831,0.48
		c-0.761,0-1.5-0.23-2.221-0.69c-0.72-0.46-1.582-0.98-2.582-1.561c-1-0.58-2.191-1.1-3.572-1.561
		c-1.381-0.46-3.092-0.69-5.133-0.69c-2.602,0-4.883,0.471-6.844,1.411c-1.961,0.941-3.592,2.292-4.893,4.052
		c-1.301,1.761-2.272,3.893-2.912,6.394c-0.641,2.501-0.96,5.333-0.96,8.495c0,3.282,0.35,6.204,1.051,8.765
		c0.7,2.562,1.711,4.712,3.031,6.453c1.321,1.741,2.921,3.062,4.803,3.962c1.881,0.9,4.001,1.351,6.364,1.351
		c2.361,0,4.271-0.29,5.733-0.87c1.46-0.58,2.691-1.221,3.692-1.921c1-0.7,1.871-1.34,2.611-1.921c0.74-0.58,1.57-0.871,2.492-0.871
		c1.201,0,2.101,0.46,2.701,1.381l4.262,5.403c-1.641,1.921-3.422,3.533-5.343,4.833c-1.921,1.301-3.912,2.341-5.973,3.122
		c-2.062,0.78-4.193,1.33-6.394,1.651c-2.202,0.32-4.382,0.48-6.543,0.48c-3.803,0-7.384-0.711-10.746-2.131
		c-3.362-1.42-6.294-3.492-8.795-6.213c-2.502-2.721-4.483-6.053-5.943-9.996c-1.461-3.941-2.191-8.435-2.191-13.477
		c0-4.522,0.65-8.714,1.951-12.577c1.3-3.862,3.212-7.204,5.733-10.025c2.521-2.821,5.643-5.032,9.365-6.633
		c3.722-1.601,8.004-2.401,12.847-2.401c4.602,0,8.634,0.741,12.097,2.221c3.461,1.481,6.573,3.602,9.335,6.363L276.086,103.218z"/>
	<path fill="#333333" d="M290.072,151.785V62.576H304.9v34.279c2.401-2.281,5.042-4.122,7.924-5.523
		c2.881-1.4,6.263-2.101,10.146-2.101c3.362,0,6.343,0.57,8.945,1.711c2.601,1.141,4.772,2.742,6.513,4.802
		c1.741,2.062,3.062,4.523,3.962,7.384c0.9,2.862,1.351,6.014,1.351,9.455v39.201h-14.828v-39.201c0-3.761-0.87-6.673-2.611-8.735
		c-1.741-2.061-4.352-3.092-7.834-3.092c-2.562,0-4.963,0.581-7.204,1.741c-2.242,1.161-4.363,2.742-6.363,4.743v44.544H290.072z"/>
	<path fill="#333333" d="M406.595,151.785h-6.663c-1.401,0-2.501-0.21-3.302-0.63c-0.801-0.42-1.401-1.27-1.801-2.551l-1.32-4.382
		c-1.561,1.401-3.092,2.632-4.593,3.692c-1.5,1.061-3.052,1.951-4.652,2.671c-1.601,0.72-3.302,1.261-5.103,1.621
		c-1.801,0.36-3.802,0.54-6.003,0.54c-2.602,0-5.003-0.352-7.204-1.053c-2.202-0.703-4.092-1.757-5.673-3.162
		c-1.582-1.405-2.813-3.153-3.692-5.241c-0.88-2.088-1.32-4.518-1.32-7.288c0-2.329,0.609-4.628,1.831-6.897
		c1.22-2.268,3.251-4.315,6.093-6.143c2.841-1.827,6.623-3.343,11.346-4.547c4.722-1.204,10.585-1.808,17.589-1.808v-3.629
		c0-4.154-0.871-7.229-2.611-9.226c-1.741-1.996-4.273-2.994-7.594-2.994c-2.401,0-4.403,0.281-6.003,0.841
		c-1.601,0.561-2.992,1.191-4.172,1.891c-1.181,0.701-2.272,1.331-3.272,1.891c-1.001,0.561-2.101,0.841-3.302,0.841
		c-1.001,0-1.861-0.26-2.582-0.781c-0.72-0.52-1.301-1.16-1.741-1.921l-2.702-4.743c7.084-6.483,15.628-9.725,25.634-9.725
		c3.602,0,6.814,0.591,9.635,1.771c2.822,1.181,5.212,2.821,7.174,4.922c1.96,2.102,3.452,4.613,4.472,7.534
		c1.021,2.922,1.531,6.124,1.531,9.605V151.785z M377.78,142.54c1.521,0,2.921-0.138,4.202-0.414
		c1.28-0.276,2.491-0.689,3.632-1.241c1.141-0.552,2.241-1.231,3.302-2.039c1.06-0.808,2.131-1.763,3.212-2.867v-10.31
		c-4.322,0-7.935,0.272-10.836,0.816c-2.902,0.544-5.233,1.24-6.994,2.086c-1.762,0.847-3.012,1.834-3.752,2.963
		c-0.741,1.128-1.111,2.357-1.111,3.687c0,2.621,0.77,4.495,2.312,5.624C373.287,141.976,375.298,142.54,377.78,142.54z"/>
	<path fill="#333333" d="M421.183,151.785V90.191h9.065c1.921,0,3.182,0.9,3.782,2.701l1.021,4.863
		c1.24-1.28,2.551-2.44,3.932-3.482c1.381-1.04,2.842-1.94,4.383-2.701c1.54-0.76,3.191-1.341,4.952-1.741
		c1.761-0.399,3.682-0.6,5.764-0.6c3.361,0,6.343,0.57,8.944,1.711s4.772,2.742,6.514,4.802c1.741,2.062,3.062,4.523,3.962,7.384
		c0.901,2.862,1.352,6.014,1.352,9.455v39.201h-14.828v-39.201c0-3.761-0.871-6.673-2.611-8.735
		c-1.741-2.061-4.353-3.092-7.835-3.092c-2.562,0-4.963,0.581-7.203,1.741c-2.242,1.161-4.363,2.742-6.364,4.743v44.544H421.183z"/>
	<path fill="#333333" d="M509.67,152.745c-5.323,0-9.425-1.51-12.307-4.532c-2.882-3.021-4.322-7.194-4.322-12.517v-34.398h-6.243
		c-0.802,0-1.492-0.26-2.071-0.78c-0.581-0.52-0.871-1.3-0.871-2.341v-5.883l9.906-1.621l3.121-16.809
		c0.159-0.8,0.53-1.42,1.11-1.861c0.58-0.44,1.311-0.66,2.191-0.66h7.685v19.39h16.209v10.566h-16.209v33.378
		c0,1.921,0.48,3.422,1.44,4.502c0.961,1.081,2.241,1.621,3.842,1.621c0.921,0,1.69-0.11,2.312-0.33
		c0.62-0.22,1.16-0.451,1.621-0.69c0.46-0.24,0.87-0.47,1.23-0.69c0.36-0.22,0.721-0.33,1.081-0.33c0.439,0,0.8,0.11,1.08,0.33
		c0.279,0.22,0.58,0.55,0.9,0.99l4.442,7.204c-2.161,1.801-4.643,3.162-7.443,4.082C515.573,152.285,512.672,152.745,509.67,152.745
		z"/>
	<path fill="#333333" d="M572.464,102.198c-0.4,0.641-0.821,1.091-1.261,1.351c-0.441,0.261-1.001,0.391-1.681,0.391
		c-0.721,0-1.492-0.2-2.312-0.601c-0.821-0.399-1.771-0.85-2.852-1.351c-1.081-0.5-2.312-0.95-3.692-1.351
		c-1.381-0.4-3.012-0.601-4.893-0.601c-2.922,0-5.223,0.621-6.903,1.861c-1.682,1.241-2.521,2.862-2.521,4.863
		c0,1.321,0.43,2.431,1.29,3.332c0.86,0.9,2.001,1.691,3.422,2.371c1.421,0.681,3.032,1.291,4.833,1.831
		c1.801,0.54,3.642,1.131,5.523,1.771c1.88,0.641,3.722,1.371,5.522,2.191c1.801,0.821,3.412,1.861,4.833,3.122
		c1.42,1.26,2.561,2.771,3.422,4.532c0.86,1.762,1.29,3.882,1.29,6.363c0,2.962-0.54,5.694-1.62,8.195
		c-1.081,2.501-2.662,4.663-4.743,6.483c-2.081,1.821-4.652,3.242-7.714,4.262s-6.573,1.531-10.536,1.531
		c-2.121,0-4.192-0.19-6.213-0.57c-2.021-0.381-3.962-0.91-5.823-1.591c-1.861-0.68-3.582-1.48-5.163-2.401
		c-1.581-0.92-2.972-1.921-4.172-3.001l3.422-5.643c0.439-0.68,0.96-1.201,1.561-1.561c0.601-0.36,1.36-0.54,2.281-0.54
		c0.92,0,1.791,0.261,2.611,0.78c0.82,0.521,1.771,1.081,2.852,1.681c1.081,0.6,2.351,1.161,3.813,1.681
		c1.46,0.521,3.311,0.78,5.553,0.78c1.761,0,3.271-0.21,4.532-0.63c1.261-0.42,2.301-0.97,3.122-1.651
		c0.819-0.68,1.42-1.471,1.801-2.371c0.38-0.9,0.57-1.831,0.57-2.792c0-1.441-0.431-2.621-1.291-3.542
		c-0.86-0.92-2.001-1.72-3.422-2.401c-1.421-0.68-3.042-1.291-4.862-1.831c-1.821-0.54-3.683-1.13-5.583-1.771
		c-1.901-0.64-3.763-1.39-5.583-2.251c-1.821-0.86-3.442-1.951-4.862-3.272c-1.421-1.32-2.562-2.941-3.422-4.862
		c-0.861-1.921-1.291-4.242-1.291-6.964c0-2.521,0.5-4.923,1.501-7.204c1-2.281,2.471-4.271,4.412-5.973
		c1.941-1.701,4.362-3.062,7.264-4.082s6.253-1.531,10.056-1.531c4.242,0,8.104,0.701,11.587,2.101
		c3.481,1.401,6.383,3.242,8.704,5.523L572.464,102.198z"/>
</g>
<g>
</g>
<g>
</g>
<g>
</g>
<g>
</g>
<g>
</g>
<g>
</g>
<g>
</g>
<g>
</g>
<g>
</g>
<g>
</g>
<g>
</g>
<g>
</g>
<g>
</g>
<g>
</g>
<g>
</g>
</svg>
