<?xml version="1.0" encoding="UTF-8" standalone="no"?>
<!-- Generator: Adobe Illustrator 16.0.0, SVG Export Plug-In . SVG Version: 6.00 Build 0)  -->

<svg
   xmlns:dc="http://purl.org/dc/elements/1.1/"
   xmlns:cc="http://creativecommons.org/ns#"
   xmlns:rdf="http://www.w3.org/1999/02/22-rdf-syntax-ns#"
   xmlns:svg="http://www.w3.org/2000/svg"
   xmlns="http://www.w3.org/2000/svg"
   xmlns:sodipodi="http://sodipodi.sourceforge.net/DTD/sodipodi-0.dtd"
   xmlns:inkscape="http://www.inkscape.org/namespaces/inkscape"
   version="1.1"
   id="Layer_1"
   x="0px"
   y="0px"
   viewBox="0 0 357.212 420.048"
   xml:space="preserve"
   inkscape:version="0.48.5 r10040"
   width="100%"
   height="100%"
   sodipodi:docname="chargebacks.svg"><metadata
     id="metadata55"><rdf:RDF><cc:Work
         rdf:about=""><dc:format>image/svg+xml</dc:format><dc:type
           rdf:resource="http://purl.org/dc/dcmitype/StillImage" /></cc:Work></rdf:RDF></metadata><defs
     id="defs53"><clipPath
       id="_clip1"><rect
         id="icon-only"
         x="0"
         y="0"
         width="1024"
         height="1024" /></clipPath></defs><sodipodi:namedview
     pagecolor="#ffffff"
     bordercolor="#666666"
     borderopacity="1"
     objecttolerance="10"
     gridtolerance="10"
     guidetolerance="10"
     inkscape:pageopacity="0"
     inkscape:pageshadow="2"
     inkscape:window-width="1680"
     inkscape:window-height="1035"
     id="namedview51"
     showgrid="false"
     inkscape:zoom="0.56184055"
     inkscape:cx="-299.32616"
     inkscape:cy="417.96377"
     inkscape:window-x="-5"
     inkscape:window-y="-12"
     inkscape:window-maximized="1"
     inkscape:current-layer="Layer_1" /><path
     fill-rule="evenodd"
     fill="#333333"
     d="M357.207,90.9c-2.988,57.579-11.139,110.472-30.092,161.238  c-15.822,42.377-38.822,80.405-70.66,112.774c-20.41,20.751-43.584,37.985-68.74,52.562c-6.262,3.629-12.626,3.325-18.9-0.309  c-44.143-25.569-80.646-59.242-107.97-102.465c-19.355-30.617-32.991-63.774-42.457-98.694C9.42,182.927,4.056,149.25,1.513,115.099  C1.03,108.611,0.39,102.132,0.05,95.637c-0.688-13.175,5.724-20.612,18.886-21.679c16.684-1.353,31.713-7.719,45.939-15.79  c17.799-10.098,34.881-21.459,52.651-31.611c13.548-7.739,27.811-14.216,41.528-21.673c14.336-7.794,27.736-5.395,41.9,1.139  c25.621,11.817,49.156,27.084,73.064,41.799c15.326,9.432,30.996,18.311,48.498,23.168c5.297,1.47,10.814,2.356,16.291,2.915  C350.779,75.125,357.429,82.452,357.207,90.9z"
     id="path3" /><g
     id="g5"><path
       fill="#60965A"
       d="M189.763,201.204l27.147-51.577c1.286-2.44,0.382-5.48-2.014-6.783c-2.4-1.309-5.384-0.389-6.666,2.053   l-27.146,51.573c-6.01-0.923-12.219,1.994-15.249,7.75c-3.845,7.307-1.134,16.432,6.046,20.35   c7.177,3.913,16.148,1.152,19.996-6.152C194.908,212.659,193.856,205.786,189.763,201.204z"
       id="path7"
       style="fill:#3cb054;fill-opacity:1" /><path
       fill="#60965A"
       d="M184.87,221.836l30.754,35.884c1.455,1.699,4.013,1.895,5.707,0.439c1.699-1.456,1.896-4.013,0.438-5.708   l-30.753-35.883c2.484-4.335,2.135-9.946-1.297-13.951c-4.356-5.083-12.034-5.674-17.12-1.316   c-5.082,4.355-5.674,12.038-1.318,17.123C174.713,222.43,180.201,223.633,184.87,221.836z"
       id="path9"
       style="fill:#3cb054;fill-opacity:1" /><g
       id="g11"><path
         fill="none"
         stroke="#60965A"
         stroke-width="20"
         stroke-miterlimit="10"
         d="M99.235,163.544    c15.998-27.2,45.572-45.456,79.409-45.456c50.844,0,92.061,41.217,92.061,92.061c0,50.844-41.217,92.061-92.061,92.061    c-34.067,0-63.813-18.505-79.733-46.012"
         id="path13"
         style="stroke:#3cb054;stroke-opacity:1" /><g
         id="g15"><path
           fill="#60965A"
           d="M86.583,210.149c14.574-19.36,36.417-42.257,56.011-54.644l-40.394,2.308l-32.516-24.064     C79.288,154.847,85.01,185.971,86.583,210.149z"
           id="path17"
           style="fill:#3cb054;fill-opacity:1" /></g></g></g><g
     id="g19" /><g
     id="g21" /><g
     id="g23" /><g
     id="g25" /><g
     id="g27" /><g
     id="g29" /><g
     id="g31" /><g
     id="g33" /><g
     id="g35" /><g
     id="g37" /><g
     id="g39" /><g
     id="g41" /><g
     id="g43" /><g
     id="g45" /><g
     id="g47" /><g
     id="g49" /></svg>