<?xml version="1.0" encoding="UTF-8" standalone="no"?>
<!-- Generator: Adobe Illustrator 16.0.0, SVG Export Plug-In . SVG Version: 6.00 Build 0)  -->

<svg
   xmlns:dc="http://purl.org/dc/elements/1.1/"
   xmlns:cc="http://creativecommons.org/ns#"
   xmlns:rdf="http://www.w3.org/1999/02/22-rdf-syntax-ns#"
   xmlns:svg="http://www.w3.org/2000/svg"
   xmlns="http://www.w3.org/2000/svg"
   xmlns:sodipodi="http://sodipodi.sourceforge.net/DTD/sodipodi-0.dtd"
   xmlns:inkscape="http://www.inkscape.org/namespaces/inkscape"
   version="1.1"
   id="Layer_1"
   x="0px"
   y="0px"
   viewBox="0 0 255.335 255.336"
   xml:space="preserve"
   inkscape:version="0.48.5 r10040"
   width="100%"
   height="100%"
   sodipodi:docname="fees.svg"><metadata
     id="metadata59"><rdf:RDF><cc:Work
         rdf:about=""><dc:format>image/svg+xml</dc:format><dc:type
           rdf:resource="http://purl.org/dc/dcmitype/StillImage" /></cc:Work></rdf:RDF></metadata><defs
     id="defs57"><clipPath
       id="_clip1"><rect
         id="icon-only"
         x="0"
         y="0"
         width="1024"
         height="1024" /></clipPath></defs><sodipodi:namedview
     pagecolor="#ffffff"
     bordercolor="#666666"
     borderopacity="1"
     objecttolerance="10"
     gridtolerance="10"
     guidetolerance="10"
     inkscape:pageopacity="0"
     inkscape:pageshadow="2"
     inkscape:window-width="1680"
     inkscape:window-height="1035"
     id="namedview55"
     showgrid="false"
     inkscape:zoom="1.3071185"
     inkscape:cx="247.66392"
     inkscape:cy="124.30129"
     inkscape:window-x="-5"
     inkscape:window-y="-12"
     inkscape:window-maximized="1"
     inkscape:current-layer="Layer_1" /><path
     fill="#323232"
     d="M159.586,227.43H95.751c-2.203,0-3.989,1.785-3.989,3.989v19.928c0,2.203,1.786,3.989,3.989,3.989h63.835  c2.203,0,3.99-1.786,3.99-3.989v-19.928C163.574,229.215,161.788,227.43,159.586,227.43z M125.677,247.356H99.741v-11.948h25.936  V247.356z M135.648,247.356h-3.986v-11.948h3.986V247.356z M155.597,247.356h-7.979v-11.948h7.979V247.356z"
     id="path3" /><path
     fill="#323232"
     d="M159.586,207.496H95.751c-2.203,0-3.989,1.788-3.989,3.991v19.928c0,2.204,1.786,3.989,3.989,3.989h63.835  c2.203,0,3.99-1.785,3.99-3.989v-19.928C163.574,209.284,161.788,207.496,159.586,207.496z M125.677,227.427H99.741v-11.948h25.936  V227.427z M135.648,227.43h-3.986v-11.951h3.986V227.43z M155.597,227.43h-7.979v-11.951h7.979V227.43z"
     id="path5" /><path
     fill="#323232"
     d="M153.598,187.567H89.765c-2.203,0-3.99,1.788-3.99,3.991v19.929c0,2.205,1.787,3.991,3.99,3.991h63.833  c2.203,0,3.99-1.786,3.99-3.991v-19.929C157.588,189.355,155.803,187.567,153.598,187.567z M119.69,207.496H93.755v-11.949h25.936  V207.496z M129.663,207.496h-3.988v-11.949h3.988V207.496z M149.609,207.496h-7.978v-11.949h7.978V207.496z"
     id="path7" /><path
     fill="#323232"
     d="M75.802,227.43H11.967c-2.203,0-3.99,1.785-3.99,3.989v19.928c0,2.203,1.787,3.989,3.99,3.989H75.8  c2.203,0,3.99-1.786,3.99-3.989v-19.928C79.79,229.215,78.005,227.43,75.802,227.43z M41.893,247.356H15.957v-11.948h25.936V247.356  z M51.865,247.356h-3.988v-11.948h3.988V247.356z M71.811,247.356h-7.977v-11.948h7.977V247.356z"
     id="path9" /><path
     fill="#5E955A"
     d="M65.189,0C33.43,0,14.947,24.473,14.947,53.37c0,30.981,21.088,51.29,48.682,51.29  c25.771,0,49.723-19.007,49.723-54.413C113.352,22.649,96.43,0,65.189,0L65.189,0z M64.148,24.994  c10.934,0,14.837,11.717,14.837,27.335c0,17.966-4.945,27.338-14.317,27.338c-10.413,0-15.36-11.195-15.36-27.338  C49.31,36.969,53.476,24.994,64.148,24.994L64.148,24.994z M91.483,174.955L187.544,0.52h-23.949L67.271,174.955H91.483  L91.483,174.955z M192.23,70.295c-31.761,0-50.244,24.474-50.244,53.11c0,15.262,5.12,27.927,13.606,36.857v-8.625  c0-7.71,6.259-13.965,13.963-13.965h8.711c-1.287-4.176-1.918-9.28-1.918-15.049c0-15.358,4.164-27.336,14.839-27.336  c10.933,0,14.837,11.456,14.837,27.336c0,5.982-0.564,11.01-1.674,15.049h29.037c1.631,0,3.198,0.281,4.654,0.797  c1.517-5.403,2.348-11.385,2.348-17.926C240.392,92.946,223.471,70.295,192.23,70.295L192.23,70.295z"
     id="path11"
     style="fill:#3cb054;fill-opacity:1" /><path
     fill="#323232"
     d="M67.823,207.496H3.99c-2.201,0-3.99,1.788-3.99,3.991v19.928c0,2.204,1.787,3.989,3.99,3.989h63.833  c2.203,0,3.99-1.785,3.99-3.989v-19.928C71.813,209.284,70.026,207.496,67.823,207.496z M33.916,227.427H7.98v-11.948h25.936  V227.427z M43.889,227.43H39.9v-11.951h3.988V227.43z M63.834,227.43h-7.976v-11.951h7.977L63.834,227.43L63.834,227.43z"
     id="path13" /><path
     fill="#323232"
     d="M233.391,147.647h-63.835c-2.203,0-3.989,1.785-3.989,3.99v19.926c0,2.206,1.786,3.993,3.989,3.993h63.835  c2.203,0,3.99-1.787,3.99-3.993v-19.926C237.381,149.433,235.594,147.647,233.391,147.647z M199.483,167.576h-25.936v-11.95h25.936  V167.576z M209.455,167.576h-3.987v-11.95h3.987V167.576z M229.401,167.576h-7.979v-11.95h7.979V167.576z"
     id="path15" /><path
     fill="#323232"
     d="M243.354,167.576h-63.833c-2.203,0-3.99,1.785-3.99,3.99v19.929c0,2.201,1.787,3.99,3.99,3.99h63.833  c2.203,0,3.989-1.789,3.989-3.99v-19.929C247.344,169.361,245.558,167.576,243.354,167.576z M209.445,187.505h-25.935v-11.948  h25.935V187.505z M219.42,187.505h-3.99v-11.948h3.99V187.505z M239.363,187.505h-7.976v-11.948h7.976V187.505z"
     id="path17" /><path
     fill="#323232"
     d="M243.354,187.567h-63.833c-2.203,0-3.99,1.788-3.99,3.991v19.929c0,2.205,1.787,3.991,3.99,3.991h63.833  c2.203,0,3.989-1.786,3.989-3.991v-19.929C247.344,189.355,245.558,187.567,243.354,187.567z M209.445,207.496h-25.935v-11.949  h25.935V207.496z M219.42,207.496h-3.99v-11.949h3.99V207.496z M239.363,207.496h-7.976v-11.949h7.976V207.496z"
     id="path19" /><path
     fill="#323232"
     d="M251.346,207.496h-63.834c-2.203,0-3.989,1.788-3.989,3.991v19.928c0,2.204,1.786,3.989,3.989,3.989h63.834  c2.204,0,3.989-1.785,3.989-3.989v-19.928C255.335,209.284,253.55,207.496,251.346,207.496z M217.439,227.427h-25.936v-11.948  h25.936V227.427z M227.411,227.43h-3.987v-11.951h3.987V227.43z M247.355,227.43h-7.979v-11.951h7.979V227.43z"
     id="path21" /><path
     fill="#323232"
     d="M243.354,227.43h-63.833c-2.203,0-3.99,1.785-3.99,3.989v19.928c0,2.203,1.787,3.989,3.99,3.989h63.833  c2.203,0,3.989-1.786,3.989-3.989v-19.928C247.344,229.215,245.558,227.43,243.354,227.43z M209.445,247.356h-25.935v-11.948h25.935  V247.356z M219.42,247.356h-3.99v-11.948h3.99V247.356z M239.363,247.356h-7.976v-11.948h7.976V247.356z"
     id="path23" /><g
     id="g25" /><g
     id="g27" /><g
     id="g29" /><g
     id="g31" /><g
     id="g33" /><g
     id="g35" /><g
     id="g37" /><g
     id="g39" /><g
     id="g41" /><g
     id="g43" /><g
     id="g45" /><g
     id="g47" /><g
     id="g49" /><g
     id="g51" /><g
     id="g53" /></svg>