<?xml version="1.0" encoding="UTF-8" standalone="no"?>
<!-- Generator: Adobe Illustrator 16.0.0, SVG Export Plug-In . SVG Version: 6.00 Build 0)  -->

<svg
   xmlns:dc="http://purl.org/dc/elements/1.1/"
   xmlns:cc="http://creativecommons.org/ns#"
   xmlns:rdf="http://www.w3.org/1999/02/22-rdf-syntax-ns#"
   xmlns:svg="http://www.w3.org/2000/svg"
   xmlns="http://www.w3.org/2000/svg"
   xmlns:sodipodi="http://sodipodi.sourceforge.net/DTD/sodipodi-0.dtd"
   xmlns:inkscape="http://www.inkscape.org/namespaces/inkscape"
   version="1.1"
   id="Layer_1"
   x="0px"
   y="0px"
   viewBox="0 410.625 1175.5 178.75"
   xml:space="preserve"
   inkscape:version="0.48.5 r10040"
   width="100%"
   height="100%"
   sodipodi:docname="guide.svg"><metadata
     id="metadata71"><rdf:RDF><cc:Work
         rdf:about=""><dc:format>image/svg+xml</dc:format><dc:type
           rdf:resource="http://purl.org/dc/dcmitype/StillImage" /></cc:Work></rdf:RDF></metadata><defs
     id="defs69"><clipPath
       id="_clip1"><rect
         id="icon-only"
         x="0"
         y="0"
         width="1024"
         height="1024" /></clipPath></defs><sodipodi:namedview
     pagecolor="#ffffff"
     bordercolor="#666666"
     borderopacity="1"
     objecttolerance="10"
     gridtolerance="10"
     guidetolerance="10"
     inkscape:pageopacity="0"
     inkscape:pageshadow="2"
     inkscape:window-width="1680"
     inkscape:window-height="1035"
     id="namedview67"
     showgrid="false"
     inkscape:zoom="0.54444917"
     inkscape:cx="413.05889"
     inkscape:cy="-72.60462"
     inkscape:window-x="-5"
     inkscape:window-y="-12"
     inkscape:window-maximized="1"
     inkscape:current-layer="Layer_1" /><path
     fill="#333333"
     d="M1175.499,578.625c0,5.938-9.092,10.75-20.303,10.75H20.303C9.087,589.375,0,584.562,0,578.625V421.376  c0-5.938,9.087-10.751,20.303-10.751h1134.896c11.211,0,20.301,4.813,20.301,10.751L1175.499,578.625L1175.499,578.625z"
     id="path3" /><g
     id="g5"><path
       fill="#5E955A"
       d="M25.485,472.642v13.006v6.503v19.509v6.504v32.513v6.504c0,7.188,5.824,13.006,13.007,13.006h91.042   c7.188,0,13.004-5.818,13.004-13.006v-6.504v-32.515v-26.011v-19.509H25.485z"
       id="path7"
       style="fill:#3cb054;fill-opacity:1" /><path
       fill="#EDF0F1"
       d="M25.485,466.139v13.006v6.503v19.509v6.503v32.516v6.501c0,7.152,5.824,13.007,13.007,13.007h91.042   c7.188,0,13.004-5.854,13.004-13.007v-6.501v-32.517v-26.011v-19.509H25.485z"
       id="path9"
       style="fill:#3cb054;fill-opacity:1" /><path
       fill="#BDC3C7"
       d="M25.485,459.636v13.006v6.503v19.509v6.503v32.516v6.503c0,7.15,5.824,13.005,13.007,13.005h91.042   c7.188,0,13.004-5.854,13.004-13.005v-6.503v-32.517v-26.011v-19.509H25.485z"
       id="path11" /><path
       fill="#EDF0F1"
       d="M25.485,453.132v13.006v6.503v19.51v6.503v32.515v6.503c0,7.15,5.824,13.005,13.007,13.005h91.042   c7.188,0,13.004-5.854,13.004-13.005v-6.503v-32.515v-26.011v-19.511H25.485z"
       id="path13" /><path
       fill="#5E955A"
       d="M38.491,427.121c-7.183,0-13.007,5.824-13.007,13.006v6.504v26.01v13.007v6.503v19.509v6.503v32.514v6.503   c0,7.188,5.824,13.006,13.007,13.006h13.004v-6.503h-9.752c-5.39,0-9.756-4.37-9.756-9.755c0-5.384,4.366-9.753,9.756-9.753h81.285   h6.503c7.188,0,13.005-5.816,13.005-13.004v-6.503v-32.516v-26.012v-19.509v-6.504c0-7.182-5.816-13.006-13.005-13.006H103.52   H38.491z"
       id="path15"
       style="fill:#3cb054;fill-opacity:1" /><path
       fill="#7CBC75"
       d="M57.998,427.121v117.053h6.503h58.526h6.503c7.188,0,13.004-5.816,13.004-13.004v-6.503v-32.516v-26.012   v-19.509v-6.504c0-7.182-5.816-13.006-13.004-13.006H103.52H64.501H57.998z"
       id="path17"
       style="fill:#3cb054;fill-opacity:1" /></g><g
     id="g19"><path
       fill="#FFFFFF"
       d="M195.195,505.795v21.739h-7.828v-58.119h17.156c3.677,0,6.875,0.426,9.592,1.278s4.968,2.062,6.753,3.63   c1.785,1.568,3.116,3.461,3.995,5.678c0.878,2.217,1.318,4.691,1.318,7.422c0,2.704-0.473,5.178-1.419,7.422   c-0.947,2.245-2.332,4.178-4.157,5.8s-4.09,2.887-6.793,3.792c-2.704,0.906-5.8,1.358-9.288,1.358H195.195z M195.195,499.549h9.328   c2.244,0,4.225-0.297,5.942-0.892c1.717-0.594,3.156-1.426,4.319-2.494c1.162-1.068,2.041-2.346,2.636-3.833   c0.594-1.486,0.892-3.123,0.892-4.907c0-3.704-1.143-6.597-3.427-8.679c-2.285-2.082-5.739-3.123-10.362-3.123h-9.328V499.549z"
       id="path21" /><path
       fill="#FFFFFF"
       d="M263.129,527.534h-3.204c-0.703,0-1.271-0.107-1.703-0.324c-0.433-0.217-0.717-0.676-0.852-1.379   l-0.811-3.813c-1.082,0.974-2.136,1.845-3.164,2.616c-1.028,0.771-2.109,1.419-3.245,1.946s-2.346,0.927-3.63,1.196   c-1.285,0.271-2.711,0.405-4.279,0.405c-1.596,0-3.089-0.224-4.481-0.671c-1.393-0.447-2.603-1.119-3.63-2.015   c-1.028-0.896-1.845-2.028-2.454-3.398s-0.913-2.991-0.913-4.863c0-1.627,0.446-3.194,1.338-4.7   c0.892-1.505,2.332-2.842,4.319-4.009c1.987-1.166,4.589-2.123,7.807-2.869c3.217-0.746,7.151-1.119,11.802-1.119v-3.225   c0-3.21-0.683-5.638-2.048-7.284c-1.366-1.646-3.387-2.47-6.063-2.47c-1.758,0-3.238,0.223-4.441,0.669   c-1.204,0.446-2.245,0.947-3.123,1.5c-0.879,0.555-1.636,1.055-2.271,1.5c-0.635,0.446-1.264,0.669-1.886,0.669   c-0.487,0-0.913-0.128-1.277-0.385c-0.365-0.257-0.656-0.574-0.872-0.953l-1.298-2.312c2.271-2.19,4.718-3.826,7.341-4.907   c2.622-1.081,5.529-1.623,8.72-1.623c2.298,0,4.34,0.379,6.125,1.136c1.784,0.757,3.285,1.812,4.501,3.164   c1.217,1.352,2.136,2.988,2.758,4.907c0.622,1.92,0.933,4.029,0.933,6.327V527.534z M244.391,523.113   c1.271,0,2.434-0.128,3.488-0.385c1.054-0.257,2.048-0.622,2.981-1.096c0.933-0.473,1.825-1.047,2.677-1.724   c0.852-0.676,1.683-1.446,2.494-2.312v-8.477c-3.326,0-6.151,0.211-8.477,0.633c-2.326,0.422-4.218,0.973-5.678,1.651   c-1.46,0.681-2.521,1.482-3.184,2.407s-0.994,1.958-0.994,3.1c0,1.089,0.176,2.027,0.527,2.815   c0.351,0.789,0.825,1.435,1.419,1.938c0.595,0.504,1.298,0.871,2.109,1.102C242.566,522.998,243.444,523.113,244.391,523.113z"
       id="path23" /><path
       fill="#FFFFFF"
       d="M284.826,539.661c-0.243,0.54-0.547,0.973-0.913,1.298c-0.365,0.324-0.926,0.486-1.683,0.486h-5.354   l7.503-16.304l-16.953-38.692h6.246c0.622,0,1.108,0.156,1.46,0.467c0.351,0.311,0.608,0.656,0.771,1.034l10.991,25.876   c0.243,0.595,0.452,1.189,0.628,1.784c0.175,0.595,0.331,1.203,0.466,1.825c0.189-0.622,0.378-1.23,0.568-1.825   c0.189-0.595,0.406-1.203,0.649-1.825l10.667-25.835c0.163-0.432,0.439-0.791,0.832-1.075c0.392-0.284,0.817-0.426,1.278-0.426   h5.759L284.826,539.661z"
       id="path25" /><path
       fill="#FFFFFF"
       d="M314.312,527.534v-41.085h4.299c1.027,0,1.676,0.501,1.947,1.501l0.527,4.218   c1.514-1.866,3.21-3.393,5.09-4.583c1.879-1.189,4.062-1.785,6.55-1.785c2.785,0,5.036,0.771,6.753,2.312   c1.717,1.541,2.954,3.624,3.711,6.246c0.568-1.486,1.318-2.771,2.251-3.853s1.98-1.974,3.143-2.677   c1.162-0.703,2.399-1.216,3.711-1.541c1.312-0.324,2.643-0.487,3.995-0.487c2.163,0,4.089,0.345,5.779,1.034   c1.689,0.69,3.123,1.697,4.299,3.022s2.075,2.954,2.697,4.887s0.933,4.144,0.933,6.631v26.159h-7.219v-26.159   c0-3.218-0.704-5.658-2.109-7.321c-1.406-1.663-3.448-2.494-6.125-2.494c-1.19,0-2.318,0.21-3.386,0.629   c-1.068,0.419-2.008,1.034-2.819,1.845s-1.454,1.832-1.927,3.062c-0.473,1.231-0.709,2.657-0.709,4.279v26.159h-7.219v-26.159   c0-3.299-0.663-5.76-1.987-7.382c-1.325-1.623-3.259-2.434-5.8-2.434c-1.785,0-3.441,0.48-4.968,1.44   c-1.528,0.96-2.927,2.265-4.198,3.914v30.621H314.312z"
       id="path27" /><path
       fill="#FFFFFF"
       d="M397.171,485.8c2.46,0,4.731,0.413,6.813,1.237c2.082,0.825,3.88,2.015,5.394,3.569   c1.514,1.555,2.697,3.475,3.549,5.759c0.852,2.285,1.278,4.887,1.278,7.807c0,1.136-0.122,1.894-0.365,2.271   c-0.243,0.379-0.703,0.567-1.379,0.567h-27.336c0.054,2.596,0.406,4.854,1.055,6.773s1.541,3.522,2.677,4.806   c1.136,1.285,2.487,2.245,4.056,2.88c1.568,0.636,3.326,0.953,5.272,0.953c1.812,0,3.373-0.209,4.685-0.629   c1.311-0.419,2.44-0.872,3.387-1.358c0.946-0.486,1.737-0.939,2.373-1.358c0.635-0.419,1.183-0.629,1.643-0.629   c0.594,0,1.054,0.23,1.379,0.689l2.028,2.637c-0.892,1.081-1.961,2.021-3.204,2.818c-1.244,0.798-2.575,1.454-3.995,1.967   c-1.419,0.515-2.886,0.899-4.4,1.156c-1.515,0.257-3.015,0.385-4.502,0.385c-2.839,0-5.455-0.479-7.848-1.439   c-2.393-0.959-4.461-2.365-6.205-4.218c-1.744-1.852-3.103-4.144-4.076-6.875c-0.974-2.73-1.46-5.866-1.46-9.409   c0-2.865,0.439-5.542,1.318-8.03c0.878-2.487,2.143-4.644,3.792-6.469c1.649-1.825,3.664-3.258,6.043-4.299   C391.519,486.321,394.196,485.8,397.171,485.8z M397.333,491.114c-3.488,0-6.232,1.007-8.233,3.021   c-2.001,2.014-3.245,4.806-3.731,8.375h22.347c0-1.676-0.23-3.21-0.689-4.603c-0.46-1.392-1.136-2.596-2.028-3.609   c-0.893-1.014-1.981-1.798-3.265-2.353C400.449,491.391,398.982,491.114,397.333,491.114z"
       id="path29" /><path
       fill="#FFFFFF"
       d="M423.41,527.534v-41.085h4.299c1.027,0,1.676,0.501,1.947,1.501l0.567,4.461   c1.785-1.973,3.778-3.569,5.982-4.786c2.204-1.217,4.751-1.825,7.645-1.825c2.244,0,4.225,0.372,5.942,1.116   c1.717,0.744,3.149,1.798,4.299,3.163c1.149,1.366,2.021,3.008,2.616,4.928c0.594,1.92,0.892,4.042,0.892,6.368v26.159h-7.219   v-26.159c0-3.109-0.709-5.522-2.129-7.24c-1.419-1.717-3.589-2.576-6.509-2.576c-2.136,0-4.13,0.514-5.982,1.542   c-1.852,1.028-3.563,2.42-5.13,4.177v30.256H423.41z"
       id="path31" /><path
       fill="#FFFFFF"
       d="M480.961,528.182c-3.245,0-5.739-0.905-7.483-2.717s-2.616-4.421-2.616-7.828v-25.145h-4.948   c-0.433,0-0.798-0.128-1.095-0.385c-0.298-0.257-0.446-0.655-0.446-1.197v-2.879l6.732-0.852l1.663-12.695   c0.054-0.405,0.229-0.736,0.527-0.994c0.297-0.256,0.676-0.385,1.136-0.385h3.65v14.155h11.762v5.232h-11.762v24.659   c0,1.73,0.418,3.016,1.257,3.854c0.837,0.838,1.919,1.257,3.244,1.257c0.757,0,1.413-0.102,1.967-0.304   c0.554-0.203,1.034-0.427,1.44-0.67c0.405-0.243,0.75-0.466,1.034-0.669c0.284-0.203,0.534-0.304,0.75-0.304   c0.378,0,0.716,0.229,1.014,0.689l2.109,3.447c-1.244,1.162-2.745,2.075-4.502,2.737   C484.638,527.851,482.827,528.182,480.961,528.182z"
       id="path33" /><path
       fill="#FFFFFF"
       d="M524.883,527.534h-7.868v-58.119h7.868V527.534z"
       id="path35" /><path
       fill="#FFFFFF"
       d="M539.322,527.534v-41.085h4.299c1.027,0,1.676,0.501,1.946,1.501l0.568,4.461   c1.784-1.973,3.778-3.569,5.982-4.786c2.203-1.217,4.751-1.825,7.645-1.825c2.244,0,4.225,0.372,5.941,1.116s3.149,1.798,4.3,3.163   c1.148,1.366,2.021,3.008,2.615,4.928c0.595,1.92,0.893,4.042,0.893,6.368v26.159h-7.219v-26.159c0-3.109-0.71-5.522-2.13-7.24   c-1.419-1.717-3.589-2.576-6.51-2.576c-2.136,0-4.13,0.514-5.981,1.542c-1.853,1.028-3.563,2.42-5.131,4.177v30.256H539.322z"
       id="path37" /><path
       fill="#FFFFFF"
       d="M596.871,528.182c-3.244,0-5.738-0.905-7.482-2.717s-2.616-4.421-2.616-7.828v-25.145h-4.947   c-0.434,0-0.798-0.128-1.096-0.385s-0.446-0.655-0.446-1.197v-2.879l6.732-0.852l1.663-12.695c0.054-0.405,0.229-0.736,0.527-0.994   c0.298-0.256,0.676-0.385,1.136-0.385h3.65v14.155h11.762v5.232h-11.762v24.659c0,1.73,0.419,3.016,1.257,3.854   s1.92,1.257,3.245,1.257c0.757,0,1.412-0.102,1.967-0.304c0.554-0.203,1.034-0.427,1.439-0.67c0.406-0.243,0.751-0.466,1.034-0.669   c0.284-0.203,0.534-0.304,0.751-0.304c0.378,0,0.716,0.229,1.014,0.689l2.109,3.447c-1.244,1.162-2.745,2.075-4.502,2.737   C600.549,527.851,598.738,528.182,596.871,528.182z"
       id="path39" /><path
       fill="#FFFFFF"
       d="M630.939,485.8c2.461,0,4.731,0.413,6.814,1.237c2.081,0.825,3.879,2.015,5.394,3.569   c1.514,1.555,2.697,3.475,3.549,5.759c0.852,2.285,1.277,4.887,1.277,7.807c0,1.136-0.121,1.894-0.364,2.271   c-0.244,0.379-0.704,0.567-1.379,0.567h-27.336c0.054,2.596,0.405,4.854,1.055,6.773c0.648,1.92,1.541,3.522,2.677,4.806   c1.135,1.285,2.487,2.245,4.056,2.88c1.567,0.636,3.325,0.953,5.272,0.953c1.811,0,3.372-0.209,4.684-0.629   c1.312-0.419,2.44-0.872,3.387-1.358s1.737-0.939,2.373-1.358c0.635-0.419,1.183-0.629,1.643-0.629c0.595,0,1.055,0.23,1.379,0.689   l2.027,2.637c-0.892,1.081-1.96,2.021-3.203,2.818c-1.244,0.798-2.576,1.454-3.995,1.967c-1.42,0.515-2.887,0.899-4.4,1.156   c-1.515,0.257-3.016,0.385-4.502,0.385c-2.839,0-5.455-0.479-7.849-1.439c-2.393-0.959-4.461-2.365-6.205-4.218   c-1.744-1.852-3.103-4.144-4.076-6.875c-0.973-2.73-1.46-5.866-1.46-9.409c0-2.865,0.439-5.542,1.318-8.03   c0.878-2.487,2.143-4.644,3.792-6.469s3.664-3.258,6.043-4.299C625.287,486.321,627.964,485.8,630.939,485.8z M631.102,491.114   c-3.488,0-6.233,1.007-8.233,3.021c-2.002,2.014-3.245,4.806-3.731,8.375h22.347c0-1.676-0.229-3.21-0.689-4.603   c-0.46-1.392-1.135-2.596-2.027-3.609c-0.893-1.014-1.981-1.798-3.265-2.353C634.217,491.391,632.75,491.114,631.102,491.114z"
       id="path41" /><path
       fill="#FFFFFF"
       d="M671.01,485.76c1.784,0,3.453,0.197,5.009,0.588c1.554,0.392,2.967,0.967,4.238,1.724h11.153v2.677   c0,0.892-0.568,1.46-1.704,1.704l-4.664,0.649c0.919,1.758,1.379,3.718,1.379,5.88c0,2.002-0.385,3.819-1.155,5.455   c-0.771,1.637-1.84,3.035-3.204,4.198c-1.366,1.162-2.988,2.055-4.867,2.677c-1.88,0.622-3.941,0.933-6.185,0.933   c-1.921,0-3.731-0.229-5.436-0.689c-0.865,0.559-1.521,1.16-1.967,1.803c-0.446,0.644-0.669,1.272-0.669,1.887   c0,1.007,0.392,1.769,1.176,2.285c0.784,0.518,1.825,0.889,3.123,1.112s2.771,0.335,4.421,0.335s3.332,0,5.05,0   c1.717,0,3.399,0.15,5.049,0.452c1.649,0.301,3.123,0.793,4.421,1.478s2.339,1.629,3.123,2.833s1.176,2.765,1.176,4.681   c0,1.778-0.439,3.503-1.317,5.173c-0.879,1.669-2.144,3.153-3.793,4.455c-1.649,1.3-3.664,2.339-6.043,3.12   c-2.379,0.779-5.069,1.17-8.07,1.17c-3.002,0-5.632-0.298-7.889-0.894c-2.258-0.596-4.131-1.395-5.617-2.395   c-1.487-1.002-2.603-2.159-3.346-3.472c-0.744-1.313-1.115-2.687-1.115-4.121c0-2.03,0.642-3.756,1.926-5.177   c1.284-1.42,3.049-2.551,5.293-3.39c-1.163-0.54-2.089-1.262-2.778-2.166s-1.034-2.113-1.034-3.625   c0-0.594,0.107-1.207,0.324-1.843c0.217-0.634,0.548-1.262,0.994-1.882c0.446-0.621,0.993-1.215,1.643-1.782   c0.648-0.566,1.405-1.066,2.271-1.498c-2.028-1.136-3.617-2.643-4.766-4.522c-1.149-1.879-1.724-4.076-1.724-6.591   c0-2,0.385-3.818,1.155-5.455c0.771-1.636,1.846-3.028,3.225-4.178c1.379-1.149,3.021-2.034,4.928-2.656   C666.65,486.071,668.739,485.76,671.01,485.76z M683.825,529.619c0-1.048-0.283-1.889-0.852-2.522   c-0.567-0.635-1.338-1.125-2.312-1.47s-2.096-0.599-3.366-0.765c-1.271-0.165-2.609-0.248-4.016-0.248s-2.839,0-4.299,0   s-2.853-0.183-4.178-0.548c-1.541,0.731-2.792,1.626-3.751,2.682c-0.96,1.055-1.44,2.314-1.44,3.777c0,0.92,0.236,1.78,0.71,2.579   c0.473,0.799,1.196,1.489,2.17,2.071s2.196,1.043,3.671,1.382c1.473,0.338,3.21,0.508,5.211,0.508c1.947,0,3.691-0.18,5.232-0.538   s2.845-0.869,3.914-1.53c1.067-0.662,1.886-1.448,2.453-2.357C683.542,531.728,683.825,530.721,683.825,529.619z M671.01,507.458   c1.46,0,2.751-0.202,3.873-0.608c1.121-0.405,2.062-0.974,2.818-1.703c0.757-0.73,1.324-1.603,1.703-2.616s0.568-2.129,0.568-3.346   c0-2.515-0.765-4.515-2.292-6.002c-1.527-1.487-3.751-2.231-6.671-2.231c-2.894,0-5.104,0.744-6.632,2.231   c-1.527,1.487-2.291,3.488-2.291,6.002c0,1.217,0.195,2.332,0.588,3.346c0.392,1.014,0.967,1.886,1.724,2.616   c0.757,0.729,1.689,1.298,2.799,1.703C668.306,507.256,669.576,507.458,671.01,507.458z"
       id="path43" /><path
       fill="#FFFFFF"
       d="M698.628,527.534v-41.085h4.137c0.783,0,1.324,0.149,1.622,0.446c0.297,0.298,0.5,0.811,0.608,1.541   l0.486,6.408c1.406-2.866,3.144-5.103,5.212-6.712c2.068-1.608,4.495-2.413,7.28-2.413c1.136,0,2.163,0.129,3.082,0.385   c0.919,0.257,1.771,0.616,2.556,1.075l-0.934,5.394c-0.189,0.676-0.608,1.014-1.257,1.014c-0.379,0-0.96-0.128-1.744-0.385   c-0.784-0.256-1.88-0.385-3.285-0.385c-2.515,0-4.617,0.73-6.307,2.19c-1.69,1.46-3.103,3.583-4.238,6.368v26.159H698.628z"
       id="path45" /><path
       fill="#FFFFFF"
       d="M759.95,527.534h-3.203c-0.704,0-1.271-0.107-1.704-0.324s-0.717-0.676-0.852-1.379l-0.812-3.813   c-1.081,0.974-2.136,1.845-3.163,2.616c-1.027,0.771-2.109,1.419-3.244,1.946c-1.136,0.527-2.347,0.927-3.63,1.196   c-1.285,0.271-2.711,0.405-4.279,0.405c-1.596,0-3.089-0.224-4.481-0.671s-2.603-1.119-3.63-2.015   c-1.028-0.896-1.846-2.028-2.454-3.398s-0.912-2.991-0.912-4.863c0-1.627,0.446-3.194,1.338-4.7   c0.893-1.505,2.332-2.842,4.319-4.009c1.987-1.166,4.59-2.123,7.808-2.869s7.151-1.119,11.803-1.119v-3.225   c0-3.21-0.684-5.638-2.049-7.284s-3.387-2.47-6.063-2.47c-1.758,0-3.238,0.223-4.44,0.669c-1.204,0.446-2.245,0.947-3.123,1.5   c-0.879,0.555-1.637,1.055-2.271,1.5c-0.636,0.446-1.264,0.669-1.886,0.669c-0.486,0-0.912-0.128-1.277-0.385   c-0.365-0.257-0.656-0.574-0.872-0.953l-1.298-2.312c2.271-2.19,4.718-3.826,7.341-4.907c2.622-1.081,5.529-1.623,8.72-1.623   c2.298,0,4.34,0.379,6.124,1.136c1.785,0.757,3.285,1.812,4.502,3.164c1.217,1.352,2.136,2.988,2.758,4.907   c0.622,1.92,0.933,4.029,0.933,6.327V527.534z M741.213,523.113c1.271,0,2.434-0.128,3.488-0.385s2.048-0.622,2.98-1.096   c0.934-0.473,1.825-1.047,2.677-1.724c0.853-0.676,1.684-1.446,2.495-2.312v-8.477c-3.326,0-6.151,0.211-8.477,0.633   c-2.326,0.422-4.219,0.973-5.679,1.651c-1.46,0.681-2.521,1.482-3.184,2.407c-0.663,0.925-0.993,1.958-0.993,3.1   c0,1.089,0.175,2.027,0.527,2.815c0.351,0.789,0.824,1.435,1.419,1.938c0.595,0.504,1.298,0.871,2.109,1.102   C739.388,522.998,740.267,523.113,741.213,523.113z"
       id="path47" /><path
       fill="#FFFFFF"
       d="M783.351,528.182c-3.244,0-5.738-0.905-7.482-2.717s-2.616-4.421-2.616-7.828v-25.145h-4.947   c-0.434,0-0.798-0.128-1.096-0.385s-0.446-0.655-0.446-1.197v-2.879l6.732-0.852l1.663-12.695c0.054-0.405,0.229-0.736,0.527-0.994   c0.298-0.256,0.676-0.385,1.136-0.385h3.65v14.155h11.762v5.232h-11.762v24.659c0,1.73,0.419,3.016,1.257,3.854   s1.92,1.257,3.245,1.257c0.757,0,1.412-0.102,1.967-0.304c0.554-0.203,1.034-0.427,1.439-0.67c0.406-0.243,0.751-0.466,1.034-0.669   c0.284-0.203,0.534-0.304,0.751-0.304c0.378,0,0.716,0.229,1.014,0.689l2.109,3.447c-1.244,1.162-2.745,2.075-4.502,2.737   C787.029,527.851,785.217,528.182,783.351,528.182z"
       id="path49" /><path
       fill="#FFFFFF"
       d="M810.808,473.552c0,0.703-0.142,1.358-0.426,1.967s-0.663,1.15-1.136,1.623   c-0.474,0.473-1.021,0.845-1.643,1.115c-0.622,0.271-1.284,0.406-1.987,0.406s-1.358-0.135-1.967-0.406   c-0.608-0.27-1.149-0.642-1.623-1.115c-0.473-0.473-0.845-1.014-1.115-1.623s-0.405-1.264-0.405-1.967s0.135-1.372,0.405-2.008   c0.271-0.635,0.643-1.189,1.115-1.663c0.474-0.473,1.015-0.845,1.623-1.116c0.608-0.27,1.264-0.405,1.967-0.405   s1.365,0.136,1.987,0.405c0.622,0.271,1.169,0.643,1.643,1.116c0.473,0.473,0.852,1.028,1.136,1.663   C810.666,472.18,810.808,472.849,810.808,473.552z M809.186,486.449v41.085h-7.22v-41.085H809.186z"
       id="path51" /><path
       fill="#FFFFFF"
       d="M838.549,485.8c3.001,0,5.712,0.501,8.132,1.501c2.42,1,4.475,2.42,6.165,4.258   c1.689,1.839,2.987,4.063,3.894,6.672c0.905,2.609,1.358,5.522,1.358,8.74c0,3.244-0.453,6.165-1.358,8.761   c-0.906,2.595-2.204,4.813-3.894,6.651c-1.69,1.839-3.745,3.251-6.165,4.238c-2.42,0.986-5.131,1.479-8.132,1.479   s-5.712-0.493-8.132-1.479c-2.42-0.987-4.481-2.399-6.185-4.238c-1.704-1.839-3.016-4.057-3.935-6.651   c-0.919-2.596-1.379-5.517-1.379-8.761c0-3.218,0.46-6.131,1.379-8.74c0.919-2.609,2.23-4.833,3.935-6.672   c1.703-1.838,3.765-3.258,6.185-4.258C832.837,486.301,835.548,485.8,838.549,485.8z M838.549,522.465   c4.056,0,7.084-1.359,9.085-4.076c2.001-2.718,3.001-6.51,3.001-11.377c0-4.894-1-8.706-3.001-11.437   c-2.001-2.73-5.029-4.096-9.085-4.096c-2.055,0-3.84,0.352-5.354,1.055c-1.515,0.703-2.778,1.717-3.792,3.042   c-1.014,1.325-1.771,2.955-2.271,4.887c-0.5,1.934-0.75,4.117-0.75,6.55c0,2.434,0.25,4.61,0.75,6.53s1.258,3.535,2.271,4.847   s2.277,2.318,3.792,3.021C834.709,522.113,836.494,522.465,838.549,522.465z"
       id="path53" /><path
       fill="#FFFFFF"
       d="M867.021,527.534v-41.085h4.299c1.027,0,1.676,0.501,1.946,1.501l0.568,4.461   c1.784-1.973,3.778-3.569,5.982-4.786c2.203-1.217,4.751-1.825,7.645-1.825c2.244,0,4.225,0.372,5.941,1.116s3.149,1.798,4.3,3.163   c1.148,1.366,2.021,3.008,2.615,4.928c0.595,1.92,0.893,4.042,0.893,6.368v26.159h-7.219v-26.159c0-3.109-0.71-5.522-2.13-7.24   c-1.419-1.717-3.589-2.576-6.51-2.576c-2.136,0-4.13,0.514-5.981,1.542c-1.853,1.028-3.563,2.42-5.131,4.177v30.256H867.021z"
       id="path55" /><path
       fill="#FFFFFF"
       d="M954.827,521.815c1.567,0,3.007-0.074,4.319-0.223c1.311-0.148,2.548-0.372,3.711-0.67   c1.162-0.297,2.257-0.655,3.285-1.074c1.027-0.419,2.055-0.898,3.082-1.439v-12.816h-9.004c-0.514,0-0.926-0.148-1.236-0.446   c-0.312-0.297-0.467-0.662-0.467-1.095v-4.462h17.846v22.307c-1.461,1.055-2.981,1.975-4.563,2.758   c-1.581,0.785-3.271,1.44-5.069,1.968c-1.799,0.526-3.725,0.918-5.779,1.176c-2.056,0.257-4.286,0.385-6.692,0.385   c-4.218,0-8.085-0.723-11.6-2.169s-6.543-3.475-9.085-6.084c-2.541-2.609-4.521-5.739-5.941-9.389   c-1.419-3.65-2.129-7.666-2.129-12.046c0-4.434,0.695-8.477,2.089-12.127c1.392-3.65,3.379-6.779,5.962-9.389   c2.581-2.609,5.704-4.63,9.368-6.063s7.767-2.15,12.31-2.15c2.298,0,4.434,0.169,6.408,0.507c1.974,0.338,3.806,0.825,5.495,1.46   c1.689,0.636,3.251,1.406,4.685,2.312c1.433,0.906,2.771,1.927,4.016,3.063l-2.231,3.569c-0.46,0.73-1.054,1.095-1.784,1.095   c-0.433,0-0.906-0.148-1.42-0.446c-0.676-0.378-1.433-0.838-2.271-1.379c-0.839-0.541-1.859-1.061-3.063-1.562   c-1.203-0.5-2.623-0.926-4.259-1.277c-1.636-0.351-3.575-0.527-5.819-0.527c-3.272,0-6.232,0.534-8.883,1.602   c-2.649,1.068-4.907,2.596-6.772,4.583c-1.866,1.987-3.299,4.394-4.299,7.219c-1.001,2.826-1.501,5.996-1.501,9.511   c0,3.678,0.521,6.955,1.562,9.835c1.04,2.88,2.508,5.32,4.4,7.32c1.893,2.002,4.137,3.529,6.732,4.583   C948.824,521.288,951.69,521.815,954.827,521.815z"
       id="path57" /><path
       fill="#FFFFFF"
       d="M993.558,486.449v26.2c0,3.109,0.717,5.516,2.149,7.22c1.434,1.703,3.596,2.555,6.489,2.555   c2.109,0,4.097-0.5,5.962-1.501c1.866-1,3.583-2.393,5.151-4.177v-30.297h7.219v41.085h-4.299c-1.028,0-1.677-0.5-1.946-1.501   l-0.568-4.421c-1.784,1.975-3.786,3.563-6.002,4.766c-2.218,1.203-4.76,1.805-7.625,1.805c-2.245,0-4.226-0.371-5.942-1.115   c-1.717-0.743-3.156-1.79-4.319-3.143c-1.162-1.352-2.034-2.987-2.615-4.907c-0.582-1.92-0.872-4.042-0.872-6.368v-26.2H993.558z"
       id="path59" /><path
       fill="#FFFFFF"
       d="M1042.066,473.552c0,0.703-0.142,1.358-0.426,1.967s-0.663,1.15-1.136,1.623   c-0.474,0.473-1.021,0.845-1.643,1.115c-0.622,0.271-1.284,0.406-1.987,0.406s-1.358-0.135-1.967-0.406   c-0.608-0.27-1.149-0.642-1.623-1.115c-0.473-0.473-0.845-1.014-1.115-1.623s-0.405-1.264-0.405-1.967s0.135-1.372,0.405-2.008   c0.271-0.635,0.643-1.189,1.115-1.663c0.474-0.473,1.015-0.845,1.623-1.116c0.608-0.27,1.264-0.405,1.967-0.405   s1.365,0.136,1.987,0.405c0.622,0.271,1.169,0.643,1.643,1.116c0.473,0.473,0.852,1.028,1.136,1.663   C1041.924,472.18,1042.066,472.849,1042.066,473.552z M1040.444,486.449v41.085h-7.22v-41.085H1040.444z"
       id="path61" /><path
       fill="#FFFFFF"
       d="M1082.095,527.534c-1.028,0-1.677-0.5-1.946-1.501l-0.649-4.988c-1.758,2.137-3.766,3.847-6.022,5.131   c-2.258,1.284-4.847,1.926-7.767,1.926c-2.353,0-4.489-0.453-6.408-1.358c-1.921-0.905-3.556-2.237-4.908-3.995   c-1.352-1.757-2.393-3.947-3.122-6.57c-0.73-2.622-1.096-5.637-1.096-9.044c0-3.028,0.406-5.847,1.217-8.456   c0.812-2.609,1.98-4.874,3.509-6.793c1.526-1.919,3.386-3.427,5.576-4.522c2.19-1.095,4.678-1.643,7.463-1.643   c2.515,0,4.664,0.426,6.448,1.278c1.785,0.852,3.38,2.048,4.786,3.589v-22.793h7.219v59.741H1082.095z M1068.103,522.261   c2.353,0,4.414-0.541,6.185-1.622s3.4-2.609,4.888-4.583v-19.874c-1.325-1.784-2.778-3.035-4.36-3.751   c-1.581-0.716-3.332-1.075-5.252-1.075c-3.84,0-6.787,1.366-8.842,4.096c-2.055,2.731-3.082,6.625-3.082,11.681   c0,2.677,0.229,4.968,0.689,6.874c0.459,1.906,1.136,3.475,2.027,4.705c0.893,1.23,1.987,2.129,3.285,2.697   C1064.939,521.977,1066.426,522.261,1068.103,522.261z"
       id="path63" /><path
       fill="#FFFFFF"
       d="M1114.783,485.8c2.461,0,4.731,0.413,6.814,1.237c2.081,0.825,3.879,2.015,5.394,3.569   c1.514,1.555,2.697,3.475,3.549,5.759c0.852,2.285,1.277,4.887,1.277,7.807c0,1.136-0.121,1.894-0.364,2.271   c-0.244,0.379-0.704,0.567-1.379,0.567h-27.336c0.054,2.596,0.405,4.854,1.055,6.773c0.648,1.92,1.541,3.522,2.677,4.806   c1.135,1.285,2.487,2.245,4.056,2.88c1.567,0.636,3.325,0.953,5.272,0.953c1.811,0,3.372-0.209,4.684-0.629   c1.312-0.419,2.44-0.872,3.387-1.358s1.737-0.939,2.373-1.358c0.635-0.419,1.183-0.629,1.643-0.629c0.595,0,1.055,0.23,1.379,0.689   l2.027,2.637c-0.892,1.081-1.96,2.021-3.203,2.818c-1.244,0.798-2.576,1.454-3.995,1.967c-1.42,0.515-2.887,0.899-4.4,1.156   c-1.515,0.257-3.016,0.385-4.502,0.385c-2.839,0-5.455-0.479-7.849-1.439c-2.393-0.959-4.461-2.365-6.205-4.218   c-1.744-1.852-3.103-4.144-4.076-6.875c-0.973-2.73-1.46-5.866-1.46-9.409c0-2.865,0.439-5.542,1.318-8.03   c0.878-2.487,2.143-4.644,3.792-6.469s3.664-3.258,6.043-4.299C1109.132,486.321,1111.809,485.8,1114.783,485.8z M1114.947,491.114   c-3.488,0-6.233,1.007-8.233,3.021c-2.002,2.014-3.245,4.806-3.731,8.375h22.347c0-1.676-0.229-3.21-0.689-4.603   c-0.46-1.392-1.135-2.596-2.027-3.609c-0.893-1.014-1.981-1.798-3.265-2.353C1118.062,491.391,1116.595,491.114,1114.947,491.114z"
       id="path65" /></g></svg>