<?xml version="1.0" encoding="utf-8"?>
<!-- Generator: Adobe Illustrator 16.0.0, SVG Export Plug-In . SVG Version: 6.00 Build 0)  -->
<!DOCTYPE svg PUBLIC "-//W3C//DTD SVG 1.1 Tiny//EN" "http://www.w3.org/Graphics/SVG/1.1/DTD/svg11-tiny.dtd">
<svg version="1.1" baseProfile="tiny" id="Layer_1" xmlns="http://www.w3.org/2000/svg" xmlns:xlink="http://www.w3.org/1999/xlink"
	 x="0px" y="0px" viewBox="0 0 513.608 365.765" xml:space="preserve">
<g>
	<path fill="#333333" d="M364.06,66.465c-82.593,0-149.547,66.953-149.547,149.548c0,82.593,66.954,149.547,149.547,149.547
		c82.595,0,149.548-66.954,149.548-149.547C513.608,133.417,446.655,66.465,364.06,66.465z M364.06,338.974
		c-67.802,0-122.961-55.159-122.961-122.961c0-67.801,55.159-122.962,122.961-122.962s122.961,55.161,122.961,122.962
		C487.021,283.814,431.862,338.974,364.06,338.974z"/>
	<path fill="#333333" d="M397.293,0h-66.466c-7.341,0-13.292,5.95-13.292,13.293v16.615c0,7.344,5.951,13.294,13.292,13.294h19.938
		v9.969h26.587v-9.969h19.94c7.342,0,13.293-5.95,13.293-13.294V13.293C410.586,5.95,404.635,0,397.293,0z"/>
	<path fill="#333333" d="M237.83,113.275l23.5-23.496l-5.365-5.363c-5.189-5.189-13.609-5.189-18.801,0l-4.698,4.698
		c-5.192,5.189-5.192,13.609,0,18.8L237.83,113.275z"/>
	<path fill="#333333" d="M490.293,113.275l5.359-5.361c5.192-5.191,5.192-13.611,0-18.8l-4.698-4.698
		c-5.189-5.189-13.608-5.189-18.797,0l-5.365,5.363L490.293,113.275z"/>
	<path fill="#333333" d="M379.106,204.322l36.646-68.401c1.736-3.237,0.516-7.269-2.719-8.997c-3.24-1.735-7.268-0.515-8.998,2.723
		l-36.646,68.399c-8.112-1.224-16.493,2.645-20.584,10.277c-5.19,9.691-1.531,21.793,8.162,26.988
		c9.688,5.191,21.8,1.53,26.993-8.16C386.051,219.516,384.63,210.399,379.106,204.322z"/>
</g>
<path fill="#333333" d="M206.729,173.734c-53.028,0-96.004,42.976-96.004,96.021c0,53.043,42.985,96.009,96.004,96.009
	c53.037,0,96.026-42.966,96.026-96.009C302.755,216.71,259.757,173.734,206.729,173.734z M206.729,347.676
	c-42.974,0-77.938-34.921-77.938-77.939c0-42.969,34.964-77.953,77.938-77.953c42.982,0,77.955,34.963,77.955,77.953
	C284.676,312.736,249.711,347.676,206.729,347.676z"/>
<g>
	<path fill="#60965A" d="M206.729,344.22c-41.065,0-74.474-33.396-74.474-74.444c0-41.083,33.409-74.506,74.474-74.506
		c41.068,0,74.48,33.423,74.48,74.506C281.209,310.824,247.797,344.22,206.729,344.22z"/>
	<path fill="#FFFFFF" d="M206.729,200.269c38.316,0,69.48,31.164,69.48,69.506c0,38.307-31.164,69.444-69.48,69.444
		c-38.306,0-69.474-31.137-69.474-69.444C137.255,231.453,168.423,200.269,206.729,200.269 M206.729,190.269
		c-43.822,0-79.474,35.667-79.474,79.506c0,43.806,35.652,79.444,79.474,79.444c43.826,0,79.48-35.639,79.48-79.444
		C286.209,225.936,250.555,190.269,206.729,190.269L206.729,190.269z"/>
</g>
<path id="path4934_13_" fill="#FFFFFF" d="M212.976,218.438c-1.319,0-2.671,0.02-4.035,0.059h-14.069h-15.771v78.254h-2.75v11.661
	h2.75v17.201h14.065v-17.201h1.706v17.201h14.069v-17.201h2.332V296.75h-2.332v-12.664l6.122,0.032
	c12.245,0,22.977,0.908,32.256-11.19c3.594-5.319,5.823-11.577,6.416-17.896c1.229-12.809-4.086-25.943-17.583-32.525
	C230.386,219.547,222.283,218.457,212.976,218.438L212.976,218.438z M193.157,230.015h1.703v39.098v11.57v16.055h-1.703v-16.055
	v-11.57V230.015z M208.932,230.015c27.792,1,38.524,17.167,33.133,31.585c-1.523,4.031-3.14,6.223-6.551,8.51
	c0.133-0.56,0.278-1.177,0.387-1.751c2.02-11.273-1.797-24.812-20.487-32.299c14.854,8.568,20.856,23.813,13.926,33.658
	c-11.8,1.828-20.418-7.948-20.418-19.198v-20.505H208.932z"/>
<line fill="#333333" stroke="#000000" stroke-width="12" stroke-miterlimit="10" x1="0.076" y1="201.57" x2="122.439" y2="200.585"/>
<line fill="#333333" stroke="#000000" stroke-width="12" stroke-miterlimit="10" x1="20.79" y1="229.16" x2="103.828" y2="228.667"/>
<line fill="#333333" stroke="#000000" stroke-width="12" stroke-miterlimit="10" x1="43.229" y1="257.242" x2="95.167" y2="256.257"/>
<g>
</g>
<g>
</g>
<g>
</g>
<g>
</g>
<g>
</g>
<g>
</g>
<g>
</g>
<g>
</g>
<g>
</g>
<g>
</g>
<g>
</g>
<g>
</g>
<g>
</g>
<g>
</g>
<g>
</g>
</svg>
