<?xml version="1.0" encoding="UTF-8" standalone="no"?>
<!-- Generator: Adobe Illustrator 16.0.0, SVG Export Plug-In . SVG Version: 6.00 Build 0)  -->

<svg
   xmlns:dc="http://purl.org/dc/elements/1.1/"
   xmlns:cc="http://creativecommons.org/ns#"
   xmlns:rdf="http://www.w3.org/1999/02/22-rdf-syntax-ns#"
   xmlns:svg="http://www.w3.org/2000/svg"
   xmlns="http://www.w3.org/2000/svg"
   xmlns:sodipodi="http://sodipodi.sourceforge.net/DTD/sodipodi-0.dtd"
   xmlns:inkscape="http://www.inkscape.org/namespaces/inkscape"
   version="1.1"
   id="Layer_1"
   x="0px"
   y="0px"
   viewBox="0 0 513.608 365.765"
   xml:space="preserve"
   inkscape:version="0.48.5 r10040"
   width="100%"
   height="100%"
   sodipodi:docname="instant.svg"><metadata
     id="metadata64"><rdf:RDF><cc:Work
         rdf:about=""><dc:format>image/svg+xml</dc:format><dc:type
           rdf:resource="http://purl.org/dc/dcmitype/StillImage" /></cc:Work></rdf:RDF></metadata><defs
     id="defs62"><clipPath
       id="_clip1"><rect
         id="icon-only"
         x="0"
         y="0"
         width="1024"
         height="1024" /></clipPath></defs><sodipodi:namedview
     pagecolor="#ffffff"
     bordercolor="#666666"
     borderopacity="1"
     objecttolerance="10"
     gridtolerance="10"
     guidetolerance="10"
     inkscape:pageopacity="0"
     inkscape:pageshadow="2"
     inkscape:window-width="1680"
     inkscape:window-height="1035"
     id="namedview60"
     showgrid="false"
     inkscape:zoom="1.7622324"
     inkscape:cx="139.79782"
     inkscape:cy="107.20286"
     inkscape:window-x="-5"
     inkscape:window-y="-12"
     inkscape:window-maximized="1"
     inkscape:current-layer="Layer_1" /><g
     id="g3"><path
       fill="#333333"
       d="M364.06,66.465c-82.593,0-149.547,66.953-149.547,149.548c0,82.593,66.954,149.547,149.547,149.547   c82.595,0,149.548-66.954,149.548-149.547C513.608,133.417,446.655,66.465,364.06,66.465z M364.06,338.974   c-67.802,0-122.961-55.159-122.961-122.961c0-67.801,55.159-122.962,122.961-122.962s122.961,55.161,122.961,122.962   C487.021,283.814,431.862,338.974,364.06,338.974z"
       id="path5" /><path
       fill="#333333"
       d="M397.293,0h-66.466c-7.341,0-13.292,5.95-13.292,13.293v16.615c0,7.344,5.951,13.294,13.292,13.294h19.938   v9.969h26.587v-9.969h19.94c7.342,0,13.293-5.95,13.293-13.294V13.293C410.586,5.95,404.635,0,397.293,0z"
       id="path7" /><path
       fill="#333333"
       d="M237.83,113.275l23.5-23.496l-5.365-5.363c-5.189-5.189-13.609-5.189-18.801,0l-4.698,4.698   c-5.192,5.189-5.192,13.609,0,18.8L237.83,113.275z"
       id="path9" /><path
       fill="#333333"
       d="M490.293,113.275l5.359-5.361c5.192-5.191,5.192-13.611,0-18.8l-4.698-4.698   c-5.189-5.189-13.608-5.189-18.797,0l-5.365,5.363L490.293,113.275z"
       id="path11" /><path
       fill="#333333"
       d="M379.106,204.322l36.646-68.401c1.736-3.237,0.516-7.269-2.719-8.997c-3.24-1.735-7.268-0.515-8.998,2.723   l-36.646,68.399c-8.112-1.224-16.493,2.645-20.584,10.277c-5.19,9.691-1.531,21.793,8.162,26.988   c9.688,5.191,21.8,1.53,26.993-8.16C386.051,219.516,384.63,210.399,379.106,204.322z"
       id="path13" /></g><path
     fill="#333333"
     d="M206.729,173.734c-53.028,0-96.004,42.976-96.004,96.021c0,53.043,42.985,96.009,96.004,96.009  c53.037,0,96.026-42.966,96.026-96.009C302.755,216.71,259.757,173.734,206.729,173.734z M206.729,347.676  c-42.974,0-77.938-34.921-77.938-77.939c0-42.969,34.964-77.953,77.938-77.953c42.982,0,77.955,34.963,77.955,77.953  C284.676,312.736,249.711,347.676,206.729,347.676z"
     id="path15" /><g
     id="g17"><path
       fill="#60965A"
       d="M206.729,344.22c-41.065,0-74.474-33.396-74.474-74.444c0-41.083,33.409-74.506,74.474-74.506   c41.068,0,74.48,33.423,74.48,74.506C281.209,310.824,247.797,344.22,206.729,344.22z"
       id="path19"
       style="fill:#3cb054;fill-opacity:1" /><path
       fill="#FFFFFF"
       d="M206.729,200.269c38.316,0,69.48,31.164,69.48,69.506c0,38.307-31.164,69.444-69.48,69.444   c-38.306,0-69.474-31.137-69.474-69.444C137.255,231.453,168.423,200.269,206.729,200.269 M206.729,190.269   c-43.822,0-79.474,35.667-79.474,79.506c0,43.806,35.652,79.444,79.474,79.444c43.826,0,79.48-35.639,79.48-79.444   C286.209,225.936,250.555,190.269,206.729,190.269L206.729,190.269z"
       id="path21" /></g><line
     fill="#333333"
     stroke="#000000"
     stroke-width="12"
     stroke-miterlimit="10"
     x1="0.076"
     y1="201.57"
     x2="122.439"
     y2="200.585"
     id="line24" /><line
     fill="#333333"
     stroke="#000000"
     stroke-width="12"
     stroke-miterlimit="10"
     x1="20.79"
     y1="229.16"
     x2="103.828"
     y2="228.667"
     id="line26" /><line
     fill="#333333"
     stroke="#000000"
     stroke-width="12"
     stroke-miterlimit="10"
     x1="43.229"
     y1="257.242"
     x2="95.167"
     y2="256.257"
     id="line28" /><g
     id="g30" /><g
     id="g32" /><g
     id="g34" /><g
     id="g36" /><g
     id="g38" /><g
     id="g40" /><g
     id="g42" /><g
     id="g44" /><g
     id="g46" /><g
     id="g48" /><g
     id="g50" /><g
     id="g52" /><g
     id="g54" /><g
     id="g56" /><g
     id="g58" /><g
     style="fill-rule:evenodd;stroke-linejoin:round;stroke-miterlimit:1.41420996"
     transform="matrix(1.0286755,0,0,1.0286755,-173.57846,-219.21015)"
     id="g14"><path
       d="m 331.819,431.279 c 61.093,2.189 84.652,37.71 72.825,69.411 -3.351,8.821 -6.911,13.649 -14.399,18.679 0.305,-1.271 0.619,-2.549 0.856,-3.85 4.43,-24.732 -3.964,-54.49 -45.02,-70.929 32.665,18.834 45.847,52.341 30.614,73.971 -25.927,3.948 -44.876,-17.502 -44.876,-42.215 l 0,-45.067 z"
       style="fill:#ffffff"
       id="path16"
       inkscape:connector-curvature="0" /></g></svg>