<?xml version="1.0" encoding="utf-8"?>
<!-- Generator: Adobe Illustrator 16.0.0, SVG Export Plug-In . SVG Version: 6.00 Build 0)  -->
<!DOCTYPE svg PUBLIC "-//W3C//DTD SVG 1.1//EN" "http://www.w3.org/Graphics/SVG/1.1/DTD/svg11.dtd">
<svg version="1.1" id="Layer_1" xmlns="http://www.w3.org/2000/svg" xmlns:xlink="http://www.w3.org/1999/xlink" x="0px" y="0px"
	 viewBox="-200 0 676.153 277.095" enable-background="new 0 0 276.153 277.095"
	 xml:space="preserve">
<path fill="#5D945A" d="M276.153,44.391H0.098V0h276.056V44.391z M49.567,38.148c1.926,0,3.639-0.246,5.14-0.739
	c1.5-0.492,2.76-1.176,3.782-2.051s1.798-1.901,2.327-3.077c0.529-1.177,0.794-2.449,0.794-3.816c0-1.808-0.507-3.29-1.522-4.444
	c-1.014-1.154-2.581-1.989-4.698-2.504c0.97-0.353,1.801-0.768,2.492-1.246c0.691-0.478,1.258-1.011,1.698-1.599
	c0.441-0.588,0.765-1.217,0.971-1.886c0.206-0.668,0.309-1.364,0.309-2.084c0-1.323-0.225-2.521-0.673-3.595
	s-1.165-1.985-2.15-2.735c-0.985-0.75-2.257-1.331-3.816-1.742c-1.559-0.412-3.449-0.618-5.669-0.618H36.73v32.137H49.567z
	 M44.186,11.592h4.367c0.838,0,1.563,0.066,2.173,0.198s1.114,0.353,1.511,0.662s0.691,0.717,0.882,1.224s0.287,1.144,0.287,1.908
	c0,0.779-0.121,1.426-0.364,1.941c-0.243,0.515-0.595,0.919-1.058,1.213c-0.464,0.294-1.026,0.5-1.688,0.618
	c-0.662,0.118-1.405,0.177-2.228,0.177h-3.882V11.592z M49.391,24.517c0.94,0,1.721,0.088,2.338,0.265
	c0.618,0.176,1.114,0.427,1.489,0.75c0.375,0.324,0.64,0.721,0.794,1.191c0.155,0.471,0.232,1,0.232,1.588
	c0,0.515-0.066,1.022-0.199,1.521c-0.132,0.5-0.375,0.949-0.728,1.346s-0.842,0.721-1.467,0.97c-0.625,0.25-1.43,0.375-2.415,0.375
	h-5.25v-8.007H49.391z M83.137,6.012h-7.631l-12.44,32.137h5.823c0.618,0,1.14-0.166,1.566-0.496
	c0.426-0.331,0.713-0.702,0.86-1.114l1.897-5.603h12.22l1.896,5.603c0.162,0.471,0.452,0.857,0.871,1.158s0.952,0.452,1.6,0.452
	h5.778L83.137,6.012z M77.888,17.106c0.221-0.559,0.456-1.22,0.706-1.984c0.25-0.765,0.492-1.596,0.728-2.493
	c0.25,0.883,0.504,1.702,0.762,2.459c0.257,0.758,0.481,1.416,0.672,1.974l2.956,8.801h-8.778L77.888,17.106z M105.636,6.012h-7.455
	v32.137h19.365v-5.956h-11.91V6.012z M138.544,6.012h-7.632l-12.44,32.137h5.823c0.618,0,1.139-0.166,1.565-0.496
	c0.427-0.331,0.713-0.702,0.86-1.114l1.897-5.603h12.219l1.897,5.603c0.161,0.471,0.453,0.857,0.872,1.158
	c0.417,0.301,0.951,0.452,1.598,0.452h5.778L138.544,6.012z M133.294,17.106c0.22-0.559,0.456-1.22,0.706-1.984
	c0.25-0.765,0.492-1.596,0.727-2.493c0.25,0.883,0.504,1.702,0.761,2.459c0.257,0.758,0.482,1.416,0.673,1.974l2.956,8.801h-8.778
	L133.294,17.106z M157.512,6.012h-3.926v32.137h6.572V20.922c0-0.47-0.015-0.974-0.043-1.511c-0.03-0.537-0.067-1.084-0.11-1.643
	l15.152,19.145c0.368,0.471,0.75,0.794,1.147,0.971c0.396,0.176,0.882,0.265,1.457,0.265h3.881V6.012h-6.572v17.006
	c0,0.515,0.014,1.063,0.042,1.643c0.03,0.582,0.074,1.181,0.132,1.798L159.982,7.159c-0.206-0.25-0.39-0.449-0.552-0.596
	c-0.161-0.147-0.331-0.261-0.507-0.341c-0.177-0.081-0.375-0.137-0.596-0.166C158.108,6.026,157.835,6.012,157.512,6.012z
	 M207.89,29.976c-0.206,0.096-0.396,0.217-0.573,0.364c-0.44,0.383-0.879,0.703-1.313,0.96c-0.434,0.257-0.89,0.467-1.367,0.629
	c-0.478,0.161-0.996,0.275-1.555,0.341c-0.56,0.067-1.176,0.1-1.853,0.1c-1.178,0-2.28-0.228-3.309-0.684
	c-1.029-0.456-1.931-1.121-2.702-1.996c-0.771-0.875-1.383-1.953-1.831-3.231c-0.448-1.28-0.672-2.743-0.672-4.39
	c0-1.573,0.224-2.992,0.672-4.257c0.448-1.265,1.073-2.341,1.875-3.231c0.802-0.889,1.761-1.573,2.878-2.051
	c1.117-0.477,2.354-0.717,3.706-0.717c0.778,0,1.459,0.06,2.04,0.177c0.581,0.118,1.088,0.261,1.521,0.43
	c0.434,0.17,0.809,0.353,1.125,0.552c0.316,0.198,0.606,0.383,0.872,0.551c0.265,0.169,0.515,0.313,0.749,0.43
	c0.234,0.119,0.486,0.177,0.751,0.177c0.396,0,0.706-0.084,0.926-0.254c0.221-0.169,0.412-0.356,0.572-0.562l2.517-3.375
	c-0.604-0.631-1.295-1.208-2.074-1.731c-0.779-0.521-1.633-0.97-2.559-1.346c-0.927-0.375-1.923-0.668-2.988-0.882
	c-1.067-0.213-2.202-0.32-3.407-0.32c-2.486,0-4.758,0.405-6.817,1.213c-2.058,0.809-3.826,1.941-5.304,3.397
	c-1.478,1.455-2.628,3.187-3.453,5.194c-0.823,2.007-1.234,4.209-1.234,6.606c0,2.353,0.36,4.533,1.081,6.54
	c0.719,2.008,1.753,3.743,3.099,5.206c1.346,1.463,2.985,2.611,4.918,3.441c1.935,0.83,4.121,1.246,6.563,1.246
	c2.661,0,4.966-0.43,6.914-1.291c1.949-0.86,3.57-2.136,4.864-3.827l-2.956-3.11c-0.162-0.162-0.331-0.275-0.507-0.342
	s-0.353-0.1-0.53-0.1C208.31,29.833,208.096,29.881,207.89,29.976z M215.918,6.012v32.137h20.69v-5.735h-13.19V24.76h10.103v-5.514
	h-10.103v-7.5h13.19V6.012H215.918z"/>
<linearGradient id="path4888_1_" gradientUnits="userSpaceOnUse" x1="104.0771" y1="-257.1304" x2="92.3957" y2="-242.7449" gradientTransform="matrix(-3.2107 0 0 3.2107 376.3766 889.0703)">
	<stop  offset="0" style="stop-color:#FFFFFF"/>
	<stop  offset="0.09" style="stop-color:#FEFAE8"/>
	<stop  offset="0.1873" style="stop-color:#E5C520"/>
	<stop  offset="0.3283" style="stop-color:#E2D17E"/>
	<stop  offset="0.3923" style="stop-color:#ECE9D6"/>
	<stop  offset="0.5" style="stop-color:#F3CA2B"/>
	<stop  offset="0.75" style="stop-color:#D29E2A"/>
	<stop  offset="0.875" style="stop-color:#DEC127"/>
	<stop  offset="1" style="stop-color:#FBEF55"/>
</linearGradient>
<path id="path4888" fill="url(#path4888_1_)" d="
	M31.721,86.883c0-16.285,13.201-29.486,29.486-29.486s29.486,13.201,29.486,29.486c0,16.284-13.201,29.486-29.486,29.486
	S31.721,103.167,31.721,86.883z"/>
<linearGradient id="path4890_1_" gradientUnits="userSpaceOnUse" x1="103.1699" y1="-257.9702" x2="93.9395" y2="-242.9918" gradientTransform="matrix(-3.2107 0 0 3.2107 376.3766 889.0703)">
	<stop  offset="0" style="stop-color:#FFFFFF;stop-opacity:0"/>
	<stop  offset="0.0192" style="stop-color:#FFFFFF"/>
	<stop  offset="0.0384" style="stop-color:#FFFFFF;stop-opacity:0"/>
	<stop  offset="0.2655" style="stop-color:#FFFFFF;stop-opacity:0"/>
	<stop  offset="0.3423" style="stop-color:#FFFFFF;stop-opacity:0.6496"/>
	<stop  offset="0.4397" style="stop-color:#FFFFFF;stop-opacity:0"/>
	<stop  offset="1" style="stop-color:#FFFFFF;stop-opacity:0"/>
</linearGradient>
<path id="path4890" fill="url(#path4890_1_)" d="
	M31.721,86.883c0-16.285,13.201-29.486,29.486-29.486s29.486,13.201,29.486,29.486c0,16.284-13.201,29.486-29.486,29.486
	S31.721,103.167,31.721,86.883z"/>
<radialGradient id="path4892_1_" cx="178.8208" cy="-515.1973" r="7.2139" gradientTransform="matrix(-5.4434 0.0224 0.0174 4.2295 1079.558 2303.9299)" gradientUnits="userSpaceOnUse">
	<stop  offset="0" style="stop-color:#010101"/>
	<stop  offset="1" style="stop-color:#010101;stop-opacity:0"/>
</radialGradient>
<path id="path4892" fill="url(#path4892_1_)" d="M81.649,65.638
	c3.113,3.275,5.485,7.268,6.837,11.703c0.012,0.04,0.025,0.078,0.037,0.118c1.019,2.955,1.581,6.122,1.581,9.422
	c0,15.958-12.941,28.899-28.9,28.899c-3.372,0-6.604-0.584-9.613-1.646c-4.392-1.355-8.348-3.709-11.6-6.792
	c5.363,5.556,12.881,9.03,21.213,9.03c16.285,0,29.49-13.206,29.49-29.49C90.694,78.535,87.222,71.001,81.649,65.638L81.649,65.638z
	"/>
<linearGradient id="path4894_1_" gradientUnits="userSpaceOnUse" x1="9.3652" y1="-79.3965" x2="8.1049" y2="-99.0405" gradientTransform="matrix(2.4382 -1.4077 -1.4077 -2.4382 -87.6709 -122.3639)">
	<stop  offset="0" style="stop-color:#FFFFFF"/>
	<stop  offset="0.125" style="stop-color:#FAEAA0"/>
	<stop  offset="0.25" style="stop-color:#F8D844"/>
	<stop  offset="0.5" style="stop-color:#F2B428"/>
	<stop  offset="0.75" style="stop-color:#CA9A2C"/>
	<stop  offset="1" style="stop-color:#FBEF55"/>
</linearGradient>
<path id="path4894" fill="url(#path4894_1_)" d="
	M83.598,73.961c7.14,12.366,2.903,28.18-9.464,35.319c-12.366,7.14-28.18,2.902-35.319-9.464c-7.14-12.367-2.903-28.18,9.464-35.32
	C60.645,57.357,76.458,61.594,83.598,73.961z"/>
<linearGradient id="path4896_1_" gradientUnits="userSpaceOnUse" x1="-25.541" y1="-253.1787" x2="-36.8072" y2="-233.973" gradientTransform="matrix(3.2107 0 0 3.2107 149.4886 889.0703)">
	<stop  offset="0" style="stop-color:#FFFFFF;stop-opacity:0"/>
	<stop  offset="0.1125" style="stop-color:#FFFFFF"/>
	<stop  offset="0.3168" style="stop-color:#FFFFFF;stop-opacity:0"/>
	<stop  offset="0.3923" style="stop-color:#FFFFFF;stop-opacity:0"/>
	<stop  offset="0.564" style="stop-color:#FFFFFF;stop-opacity:0.6496"/>
	<stop  offset="0.7445" style="stop-color:#FFFFFF;stop-opacity:0"/>
	<stop  offset="1" style="stop-color:#FFFFFF;stop-opacity:0"/>
</linearGradient>
<path id="path4896" opacity="0.6" fill="url(#path4896_1_)" enable-background="new    " d="
	M90.692,86.883c0-16.285-13.201-29.486-29.486-29.486S31.721,70.598,31.721,86.883c0,16.284,13.201,29.486,29.486,29.486
	S90.692,103.167,90.692,86.883z"/>
<linearGradient id="path4898_1_" gradientUnits="userSpaceOnUse" x1="-41.6309" y1="-265.8809" x2="-31.3209" y2="-251.314" gradientTransform="matrix(2.7991 0 0 2.7991 164.0322 811.7402)">
	<stop  offset="0" style="stop-color:#85451E"/>
	<stop  offset="1" style="stop-color:#85451E;stop-opacity:0"/>
</linearGradient>
<path id="path4898" opacity="0.6" fill="url(#path4898_1_)" enable-background="new    " d="
	M86.912,86.883c0-14.197-11.509-25.706-25.706-25.706S35.501,72.686,35.501,86.883c0,14.197,11.509,25.706,25.706,25.706
	S86.912,101.08,86.912,86.883z"/>
<radialGradient id="path4900_1_" cx="107.3877" cy="-427.2393" r="7.214" gradientTransform="matrix(3.5141 0 0 -3.5161 -338.2958 -1441.5117)" gradientUnits="userSpaceOnUse">
	<stop  offset="0" style="stop-color:#FFFFFF"/>
	<stop  offset="1" style="stop-color:#FFFFFF;stop-opacity:0"/>
</radialGradient>
<path id="path4900" fill="url(#path4900_1_)" d="M61.204,57.391
	c-16.285,0-29.49,13.205-29.49,29.49c0,8.345,3.473,15.878,9.045,21.243c-3.094-3.255-5.452-7.22-6.808-11.622
	c-1.062-3.009-1.639-6.249-1.639-9.621c0-15.958,12.934-28.892,28.892-28.892c3.294,0,6.458,0.558,9.407,1.573
	c0.045,0.014,0.088,0.03,0.133,0.044c4.421,1.352,8.403,3.714,11.673,6.815C77.055,60.864,69.536,57.391,61.204,57.391z"/>
<radialGradient id="path4902_1_" cx="55.2148" cy="-423.8823" r="7.214" gradientTransform="matrix(1.3324 0.1627 0.1521 -1.2459 38.8568 -476.175)" gradientUnits="userSpaceOnUse">
	<stop  offset="0" style="stop-color:#FFFFFF"/>
	<stop  offset="1" style="stop-color:#FFFFFF;stop-opacity:0"/>
</radialGradient>
<path id="path4902" fill="url(#path4902_1_)" d="M61.204,57.391
	c-16.285,0-29.49,13.205-29.49,29.49c0,8.345,3.473,15.878,9.045,21.243c-3.094-3.255-5.452-7.22-6.808-11.622
	c-1.062-3.009-1.639-6.249-1.639-9.621c0-15.958,12.934-28.892,28.892-28.892c3.294,0,6.458,0.558,9.407,1.573
	c0.045,0.014,0.088,0.03,0.133,0.044c4.421,1.352,8.403,3.714,11.673,6.815C77.055,60.864,69.536,57.391,61.204,57.391z"/>
<path id="path4904" fill="none" stroke="#AB732A" stroke-width="1.1138" d="
	M31.721,86.883c0-16.285,13.201-29.486,29.486-29.486s29.486,13.201,29.486,29.486c0,16.284-13.201,29.486-29.486,29.486
	S31.721,103.167,31.721,86.883z"/>
<path id="path4906" fill="none" stroke="#FFFFFF" stroke-width="0.8387" d="
	M31.838,86.883c0-16.22,13.149-29.369,29.369-29.369s29.368,13.149,29.368,29.369s-13.148,29.368-29.368,29.368
	S31.838,103.103,31.838,86.883z"/>
<radialGradient id="path4908_1_" cx="19.584" cy="-71.542" r="8.1261" gradientTransform="matrix(4.3091 -2.3638 -1.9913 -3.6292 -178.572 -148.8526)" gradientUnits="userSpaceOnUse">
	<stop  offset="0" style="stop-color:#85451E"/>
	<stop  offset="1" style="stop-color:#85451E;stop-opacity:0"/>
</radialGradient>
<path id="path4908" fill="url(#path4908_1_)" d="M61.138,61.03
	c-4.372,0.008-8.804,1.127-12.862,3.471C35.909,71.64,31.678,87.45,38.817,99.816c0.071,0.123,0.149,0.241,0.221,0.362
	c-3.283-5.901-4.006-12.55-2.525-18.651c0.014-0.064,0.03-0.128,0.044-0.191c0.005-0.02,0.009-0.04,0.015-0.06
	c1.509-6.615,5.659-12.605,11.998-16.266c6.337-3.658,13.602-4.265,20.083-2.267c0.022,0.006,0.044,0.016,0.066,0.022
	c6.1,1.74,11.572,5.708,15.077,11.563c-0.068-0.123-0.128-0.247-0.199-0.369C78.802,65.65,70.09,61.015,61.138,61.03L61.138,61.03z"
	/>
<radialGradient id="path4910_1_" cx="31.1777" cy="-197.8257" r="8.1266" gradientTransform="matrix(4.373 -3.2911 -3.1421 -4.175 -679.4604 -605.0239)" gradientUnits="userSpaceOnUse">
	<stop  offset="0" style="stop-color:#FFFFFF"/>
	<stop  offset="1" style="stop-color:#FFFFFF;stop-opacity:0"/>
</radialGradient>
<path id="path4910" fill="url(#path4910_1_)" d="M83.377,73.597
	c3.34,6.004,4.029,12.782,2.444,18.968c-1.521,6.589-5.666,12.56-11.984,16.208c-6.326,3.652-13.573,4.252-20.046,2.267
	c-0.096-0.027-0.191-0.061-0.288-0.089c-6.025-1.767-11.423-5.716-14.893-11.511c0.068,0.123,0.128,0.247,0.199,0.37
	c7.14,12.366,22.957,16.605,35.323,9.465c12.367-7.14,16.606-22.949,9.466-35.315C83.528,73.836,83.45,73.718,83.377,73.597
	L83.377,73.597z"/>
<linearGradient id="path4912_1_" gradientUnits="userSpaceOnUse" x1="1964.5723" y1="-44.8623" x2="1960.5214" y2="-35.5465" gradientTransform="matrix(1.7881 0 0 -1.7881 -3442.3926 9.6543)">
	<stop  offset="0" style="stop-color:#205E2F"/>
	<stop  offset="0.5" style="stop-color:#329445"/>
	<stop  offset="1" style="stop-color:#86C440"/>
</linearGradient>
<path id="path4912" fill="url(#path4912_1_)" d="M60.32,72.081
	l0.082,15.748l8.506,2.008l4.961-3.544l0.827-7.561l-4.253-5.789L60.32,72.081z"/>
<path id="path4914" opacity="0.5" fill="#010101" enable-background="new    " d="
	M63.355,69.777c-0.454,0-0.912,0.009-1.381,0.022h-4.799h-5.383v26.707h-0.938l-0.473,3.507l0.473,0.472h0.938l-0.473,5.397
	l0.473,0.473h4.799v-5.87h0.583l-0.473,5.397l0.473,0.473h4.799v-5.87h0.798v-3.979l-0.473-0.473l-0.325,0.473v-4.32l2.09,0.007
	c4.182,0,7.842,0.31,11.009-3.817c1.23-1.818,1.987-3.946,2.193-6.106c0.416-4.364-1.398-8.849-6.003-11.105
	C69.298,70.162,66.532,69.787,63.355,69.777L63.355,69.777z M56.592,73.734h0.583v13.342v3.95v5.479h-0.583v-5.479v-3.95V73.734z
	 M61.974,73.734c9.489,0.34,13.148,5.857,11.311,10.781c-0.52,1.37-1.073,2.12-2.236,2.901c0.047-0.197,0.097-0.396,0.133-0.599
	c0.688-3.841-0.616-8.463-6.992-11.016c5.073,2.926,7.121,8.13,4.754,11.489c-4.027,0.613-6.97-2.718-6.97-6.556V73.734z"/>
<path id="path4916" fill="#705122" d="
	M63.355,69.777c-0.454,0-0.912,0.009-1.381,0.022h-4.799h-5.383v26.707h-0.938l-0.473,3.507l0.473,0.472h0.938l-0.473,5.397
	l0.473,0.473h4.799v-5.87h0.583l-0.473,5.397l0.473,0.473h4.799v-5.87h0.798v-3.979l-0.473-0.473l-0.325,0.473v-4.32l2.09,0.007
	c4.182,0,7.842,0.31,11.009-3.817c1.23-1.818,1.987-3.946,2.193-6.106c0.416-4.364-1.398-8.849-6.003-11.105
	C69.298,70.162,66.532,69.787,63.355,69.777L63.355,69.777z M56.592,73.734h0.583v13.342v3.95v5.479h-0.583v-5.479v-3.95V73.734z
	 M61.974,73.734c9.489,0.34,13.148,5.857,11.311,10.781c-0.52,1.37-1.073,2.12-2.236,2.901c0.047-0.197,0.097-0.396,0.133-0.599
	c0.688-3.841-0.616-8.463-6.992-11.016c5.073,2.926,7.121,8.13,4.754,11.489c-4.027,0.613-6.97-2.718-6.97-6.556V73.734z"/>
<linearGradient id="path4918_1_" gradientUnits="userSpaceOnUse" x1="487.6377" y1="2768.5322" x2="494.1504" y2="2757.189" gradientTransform="matrix(2.5163 0 0 -2.5163 -1175.7623 7035.7539)">
	<stop  offset="0" style="stop-color:#FFFFFF"/>
	<stop  offset="0.09" style="stop-color:#FEFAE8"/>
	<stop  offset="0.1873" style="stop-color:#E5C520"/>
	<stop  offset="0.3283" style="stop-color:#E2D17E"/>
	<stop  offset="0.3923" style="stop-color:#ECE9D6"/>
	<stop  offset="0.5" style="stop-color:#F3CA2B"/>
	<stop  offset="0.75" style="stop-color:#D29E2A"/>
	<stop  offset="0.875" style="stop-color:#DEC127"/>
	<stop  offset="1" style="stop-color:#FBEF55"/>
</linearGradient>
<path id="path4918" fill="url(#path4918_1_)" d="
	M62.882,69.304c-0.453,0-0.912,0.009-1.38,0.022h-4.799H51.32v26.707h-0.938v3.98h0.938v5.87h4.799v-5.87h0.583v5.87h4.799v-5.87
	h0.797v-3.98h-0.797v-4.32l2.089,0.007c4.182,0,7.842,0.31,11.009-3.817c1.231-1.818,1.987-3.946,2.193-6.106
	c0.416-4.364-1.398-8.85-6.003-11.105C68.826,69.689,66.059,69.314,62.882,69.304L62.882,69.304z M56.119,73.262h0.583v13.342v3.951
	v5.479h-0.583v-5.479v-3.951V73.262z M61.502,73.262c9.489,0.34,13.148,5.857,11.311,10.78c-0.521,1.37-1.074,2.12-2.237,2.901
	c0.047-0.197,0.097-0.396,0.133-0.598c0.688-3.841-0.616-8.463-6.992-11.017c5.073,2.926,7.121,8.13,4.755,11.489
	c-4.027,0.613-6.97-2.718-6.97-6.556V73.262z"/>
<radialGradient id="path4920_1_" cx="1968.7939" cy="3092.3604" r="6.6115" gradientTransform="matrix(2.2436 0.039 0.0527 -3.0282 -4528.7109 9356.7275)" gradientUnits="userSpaceOnUse">
	<stop  offset="0" style="stop-color:#FFFFFF"/>
	<stop  offset="1" style="stop-color:#FFFFFF;stop-opacity:0"/>
</radialGradient>
<path id="path4920" fill="url(#path4920_1_)" d="M62.882,69.304c-0.453,0-0.912,0.01-1.38,0.022
	h-4.799H51.32v26.707h-0.938v3.98h0.473v-3.507h0.938V69.799h5.383h4.799c0.469-0.013,0.927-0.022,1.381-0.022
	c3.177,0.009,5.942,0.385,7.908,1.388c1.069,0.523,1.987,1.171,2.762,1.905c-0.866-0.935-1.938-1.743-3.234-2.377
	C68.825,69.689,66.059,69.314,62.882,69.304L62.882,69.304z"/>
<radialGradient id="path4922_1_" cx="2048.7119" cy="3017.8008" r="0.133" gradientTransform="matrix(32.1854 0.447 1.1966 -86.1547 -69492.3281 259158.8438)" gradientUnits="userSpaceOnUse">
	<stop  offset="0" style="stop-color:#FFFFFF"/>
	<stop  offset="1" style="stop-color:#FFFFFF;stop-opacity:0"/>
</radialGradient>
<path id="path4922" fill="url(#path4922_1_)" d="M56.703,73.262v13.342v3.951v5.479h0.473v-5.006
	v-3.95V73.262H56.703z"/>
<radialGradient id="path4924_1_" cx="1962.1445" cy="3163.5244" r="1.3193" gradientTransform="matrix(1.7881 0 0 -1.1585 -3442.3926 3741.707)" gradientUnits="userSpaceOnUse">
	<stop  offset="0" style="stop-color:#FFFFFF"/>
	<stop  offset="1" style="stop-color:#FFFFFF;stop-opacity:0"/>
</radialGradient>
<path id="path4924" fill="url(#path4924_1_)" d="M63.717,75.329
	c0.432,0.25,0.838,0.518,1.225,0.798c1.435,0.653,2.587,1.42,3.493,2.259C67.328,77.214,65.795,76.161,63.717,75.329L63.717,75.329z
	"/>
<radialGradient id="path4926_1_" cx="2078.9238" cy="3043.208" r="0.7543" gradientTransform="matrix(6.6688 -0.1386 -0.2124 -10.2149 -13144.9297 31454.8496)" gradientUnits="userSpaceOnUse">
	<stop  offset="0" style="stop-color:#FFFFFF"/>
	<stop  offset="1" style="stop-color:#FFFFFF;stop-opacity:0"/>
</radialGradient>
<path id="path4926" fill="url(#path4926_1_)" d="M71.418,76.947
	c1.859,2.035,2.312,4.64,1.396,7.095c-0.409,1.076-0.844,1.766-1.572,2.392c-0.019,0.129-0.642,0.382-0.665,0.51l-0.196,0.598
	c0.535-0.165,1.02-0.362,1.418-0.7c0.681-0.608,1.094-1.291,1.487-2.327C74.275,81.864,73.667,79.041,71.418,76.947L71.418,76.947z"
	/>
<radialGradient id="path4928_1_" cx="1963.0234" cy="3084.918" r="1.7331" gradientTransform="matrix(1.7881 0 0 -2.7666 -3442.3926 8620.5859)" gradientUnits="userSpaceOnUse">
	<stop  offset="0" style="stop-color:#FFFFFF"/>
	<stop  offset="1" style="stop-color:#FFFFFF;stop-opacity:0"/>
</radialGradient>
<path id="path4928" fill="url(#path4928_1_)" d="M66.825,77.773
	c2.691,2.874,3.445,6.491,1.647,9.044c-1.884,0.288-3.528-0.285-4.748-1.373c1.249,1.385,3.081,2.171,5.22,1.845
	C70.843,84.595,69.895,80.714,66.825,77.773z"/>
<radialGradient id="path4930_1_" cx="2017.7354" cy="2950.9883" r="0.1324" gradientTransform="matrix(12.9636 1.7881 3.0349 -22.003 -35061.2031 61423.2461)" gradientUnits="userSpaceOnUse">
	<stop  offset="0" style="stop-color:#FFFFFF"/>
	<stop  offset="1" style="stop-color:#FFFFFF;stop-opacity:0"/>
</radialGradient>
<path id="path4930" fill="url(#path4930_1_)" d="M51.32,100.013v5.87h0.473v-5.87H51.32z"/>
<radialGradient id="path4932_1_" cx="2042.1953" cy="2951.0742" r="0.129" gradientTransform="matrix(16.9867 1.7881 2.3252 -22.0893 -41494.875 61636.0117)" gradientUnits="userSpaceOnUse">
	<stop  offset="0" style="stop-color:#FFFFFF"/>
	<stop  offset="1" style="stop-color:#FFFFFF;stop-opacity:0"/>
</radialGradient>
<path id="path4932" fill="url(#path4932_1_)" d="M56.703,100.013v5.87h0.473v-5.87H56.703z"/>
<linearGradient id="path4934_1_" gradientUnits="userSpaceOnUse" x1="496.4785" y1="2770.2305" x2="483.0845" y2="2752.5957" gradientTransform="matrix(2.5163 0 0 -2.5163 -1175.7623 7035.7539)">
	<stop  offset="0" style="stop-color:#FFFFFF;stop-opacity:0"/>
	<stop  offset="0.0838" style="stop-color:#FFFFFF"/>
	<stop  offset="0.1798" style="stop-color:#FFFFFF;stop-opacity:0"/>
	<stop  offset="0.2655" style="stop-color:#FFFFFF;stop-opacity:0"/>
	<stop  offset="0.3423" style="stop-color:#FFFFFF;stop-opacity:0.6496"/>
	<stop  offset="0.529" style="stop-color:#FFFFFF;stop-opacity:0"/>
	<stop  offset="1" style="stop-color:#FFFFFF;stop-opacity:0"/>
</linearGradient>
<path id="path4934" fill="url(#path4934_1_)" d="
	M62.882,69.304c-0.453,0-0.912,0.009-1.38,0.022h-4.799H51.32v26.707h-0.938v3.98h0.938v5.87h4.799v-5.87h0.583v5.87h4.799v-5.87
	h0.797v-3.98h-0.797v-4.32l2.089,0.007c4.182,0,7.842,0.31,11.009-3.817c1.231-1.818,1.987-3.946,2.193-6.106
	c0.416-4.364-1.398-8.85-6.003-11.105C68.826,69.689,66.059,69.314,62.882,69.304L62.882,69.304z M56.119,73.262h0.583v13.342v3.951
	v5.479h-0.583v-5.479v-3.951V73.262z M61.502,73.262c9.489,0.34,13.148,5.857,11.311,10.78c-0.521,1.37-1.074,2.12-2.237,2.901
	c0.047-0.197,0.097-0.396,0.133-0.598c0.688-3.841-0.616-8.463-6.992-11.017c5.073,2.926,7.121,8.13,4.755,11.489
	c-4.027,0.613-6.97-2.718-6.97-6.556V73.262z"/>
<g>
	<defs>
		<circle id="SVGID_1_" cx="61.208" cy="87.125" r="25.856"/>
	</defs>
	<clipPath id="SVGID_2_">
		<use xlink:href="#SVGID_1_"  overflow="visible"/>
	</clipPath>
	<g id="path4936" opacity="0.5" clip-path="url(#SVGID_2_)" enable-background="new    ">
		<path fill="#333333" d="M61.139,61.267c-4.372,0.007-8.805,1.127-12.862,3.47c-12.367,7.14-16.598,22.949-9.458,35.316
			c0.071,0.122,0.149,0.241,0.222,0.362c-3.283-5.902-4.007-12.551-2.525-18.651c0.014-0.064,0.03-0.128,0.044-0.192
			c0.005-0.02,0.01-0.04,0.015-0.059c1.509-6.615,5.659-12.606,11.998-16.266c6.337-3.659,13.603-4.265,20.084-2.267
			c0.022,0.007,0.043,0.016,0.066,0.022c6.1,1.739,11.572,5.708,15.077,11.563c-0.068-0.123-0.128-0.247-0.199-0.369
			C78.803,65.887,70.091,61.251,61.139,61.267L61.139,61.267z"/>
	</g>
</g>
<g>
	<path fill="#5D945A" d="M52.891,189.515c-2.3-0.379-4.495-1.045-6.585-1.995c-2.09-0.95-3.855-2.095-5.295-3.435l2.88-4.17
		c0.24-0.34,0.565-0.625,0.975-0.855c0.41-0.229,0.845-0.345,1.305-0.345c0.48,0,0.97,0.125,1.47,0.375s1.045,0.555,1.635,0.915
		c0.589,0.36,1.234,0.725,1.935,1.095c0.7,0.371,1.5,0.675,2.4,0.915l1.11-11.34c-1.44-0.401-2.87-0.874-4.29-1.415
		c-1.42-0.542-2.7-1.274-3.84-2.198s-2.065-2.098-2.775-3.522c-0.71-1.425-1.065-3.211-1.065-5.359c0-1.585,0.32-3.131,0.96-4.636
		c0.64-1.505,1.575-2.86,2.805-4.064c1.23-1.205,2.745-2.193,4.545-2.966c1.8-0.772,3.86-1.159,6.18-1.159l0.33-3.385
		c0.06-0.569,0.31-1.082,0.75-1.539c0.439-0.458,1.01-0.687,1.71-0.687h3.42l-0.6,5.91c2.16,0.4,4.02,1.045,5.58,1.935
		c1.56,0.89,2.88,1.845,3.96,2.865l-2.28,3.33c-0.34,0.5-0.686,0.865-1.035,1.095c-0.35,0.23-0.765,0.345-1.245,0.345
		c-0.32,0-0.68-0.07-1.08-0.21c-0.4-0.14-0.84-0.315-1.32-0.525s-0.995-0.435-1.545-0.675c-0.55-0.24-1.135-0.45-1.755-0.63
		l-1.05,10.65c0.96,0.28,1.92,0.585,2.88,0.915c0.96,0.33,1.885,0.71,2.775,1.14c0.89,0.43,1.72,0.925,2.49,1.485
		c0.77,0.561,1.44,1.22,2.01,1.98c0.57,0.76,1.015,1.635,1.335,2.625c0.32,0.99,0.48,2.115,0.48,3.375c0,1.9-0.32,3.685-0.96,5.355
		c-0.641,1.67-1.58,3.145-2.82,4.425c-1.24,1.28-2.76,2.325-4.56,3.135c-1.8,0.81-3.86,1.305-6.18,1.485l-0.36,3.75
		c-0.06,0.56-0.311,1.065-0.75,1.515c-0.44,0.45-1.01,0.675-1.71,0.675h-3.42L52.891,189.515z M51.511,157.325
		c0,1.18,0.375,2.135,1.125,2.865s1.735,1.345,2.955,1.845l0.9-9.06c-0.92,0.14-1.695,0.345-2.325,0.615
		c-0.63,0.27-1.14,0.595-1.53,0.975s-0.675,0.805-0.855,1.275C51.601,156.31,51.511,156.805,51.511,157.325z M64.231,176.735
		c0-1.14-0.365-2.05-1.095-2.73c-0.73-0.68-1.695-1.25-2.895-1.71l-0.96,9.9C62.581,181.615,64.231,179.795,64.231,176.735z"/>
	<path fill="#5D945A" d="M41.191,232.864h3.6c0.5-2.359,1.27-4.505,2.31-6.435c1.04-1.931,2.29-3.575,3.75-4.936
		c1.46-1.359,3.11-2.41,4.95-3.149c1.84-0.74,3.81-1.11,5.91-1.11c2.839,0,5.295,0.565,7.365,1.695s3.735,2.625,4.995,4.484
		l-3.42,3.54c-0.221,0.24-0.465,0.455-0.735,0.646s-0.625,0.284-1.065,0.284c-0.48,0-0.885-0.149-1.215-0.449
		c-0.33-0.301-0.715-0.635-1.155-1.005c-0.44-0.37-0.99-0.705-1.65-1.006c-0.66-0.3-1.56-0.449-2.7-0.449
		c-1.88,0-3.485,0.665-4.815,1.995c-1.331,1.33-2.306,3.295-2.925,5.895h13.8v2.76c0,0.261-0.06,0.521-0.18,0.78
		s-0.29,0.495-0.51,0.705s-0.485,0.38-0.795,0.51c-0.31,0.131-0.655,0.195-1.035,0.195h-11.91c-0.02,0.28-0.03,0.56-0.03,0.84
		s0,0.561,0,0.84v1.05h11.58v2.761c0,0.26-0.06,0.52-0.18,0.779c-0.12,0.261-0.291,0.495-0.51,0.705
		c-0.22,0.21-0.485,0.38-0.795,0.51c-0.31,0.131-0.655,0.195-1.035,0.195h-8.58c0.52,2.9,1.43,5.051,2.73,6.45
		c1.3,1.4,2.89,2.1,4.77,2.1c0.84,0,1.56-0.085,2.16-0.255s1.11-0.375,1.53-0.615c0.42-0.239,0.775-0.51,1.065-0.81
		c0.29-0.3,0.56-0.57,0.81-0.81c0.25-0.24,0.5-0.445,0.75-0.615c0.25-0.17,0.544-0.255,0.885-0.255c0.28,0,0.515,0.04,0.705,0.12
		c0.19,0.08,0.395,0.229,0.615,0.449l4.08,3.63c-1.38,2.261-3.19,3.976-5.43,5.146c-2.24,1.17-4.791,1.755-7.65,1.755
		c-2.38,0-4.515-0.396-6.405-1.185c-1.89-0.79-3.53-1.896-4.92-3.315c-1.39-1.42-2.53-3.13-3.42-5.13c-0.89-2-1.525-4.22-1.905-6.66
		h-3.39v-4.95h2.94v-1.05c0-0.279,0-0.56,0-0.84s0.01-0.56,0.03-0.84h-2.97V232.864z"/>
</g>
<g>
	<path fill="#323232" d="M127.437,62.933c2.16,0,4.105,0.315,5.835,0.945c1.729,0.63,3.205,1.505,4.425,2.625
		c1.22,1.121,2.155,2.456,2.805,4.005c0.65,1.55,0.975,3.255,0.975,5.115c0,1.6-0.225,3.08-0.675,4.44
		c-0.45,1.36-1.065,2.655-1.845,3.885c-0.78,1.23-1.685,2.42-2.715,3.57c-1.031,1.15-2.125,2.315-3.285,3.495l-8.55,8.76
		c1.1-0.32,2.185-0.575,3.255-0.765c1.069-0.189,2.075-0.285,3.015-0.285h8.16c1,0,1.79,0.275,2.37,0.825
		c0.58,0.55,0.87,1.275,0.87,2.175v5.4h-30.72v-3c0-0.58,0.12-1.2,0.36-1.86c0.24-0.66,0.66-1.26,1.26-1.8l12.6-12.69
		c1.08-1.08,2.02-2.11,2.82-3.09c0.8-0.98,1.459-1.945,1.98-2.895c0.52-0.95,0.91-1.9,1.17-2.85c0.26-0.95,0.39-1.955,0.39-3.015
		c0-1.74-0.416-3.075-1.245-4.005c-0.83-0.93-2.095-1.395-3.795-1.395c-0.7,0-1.34,0.101-1.92,0.3c-0.581,0.2-1.1,0.47-1.56,0.81
		c-0.46,0.34-0.855,0.74-1.185,1.2c-0.33,0.46-0.595,0.96-0.795,1.5c-0.32,0.9-0.725,1.55-1.215,1.95
		c-0.491,0.4-1.155,0.6-1.995,0.6c-0.2,0-0.416-0.01-0.645-0.03c-0.23-0.02-0.465-0.05-0.705-0.09l-4.92-0.87
		c0.32-2.18,0.935-4.08,1.845-5.7c0.91-1.62,2.04-2.97,3.39-4.05s2.895-1.885,4.635-2.415
		C123.566,63.198,125.437,62.933,127.437,62.933z"/>
	<path fill="#323232" d="M177.776,85.253c0,3.82-0.41,7.13-1.23,9.93c-0.82,2.8-1.955,5.12-3.405,6.96
		c-1.45,1.84-3.17,3.21-5.16,4.11c-1.991,0.9-4.146,1.35-6.465,1.35c-2.32,0-4.465-0.45-6.435-1.35s-3.675-2.27-5.115-4.11
		c-1.44-1.84-2.565-4.16-3.375-6.96c-0.81-2.8-1.215-6.11-1.215-9.93c0-3.82,0.405-7.129,1.215-9.93c0.81-2.8,1.935-5.12,3.375-6.96
		s3.145-3.205,5.115-4.095c1.97-0.89,4.115-1.335,6.435-1.335c2.32,0,4.475,0.445,6.465,1.335c1.99,0.89,3.709,2.255,5.16,4.095
		s2.585,4.16,3.405,6.96C177.366,78.124,177.776,81.433,177.776,85.253z M168.176,85.253c0-3.02-0.19-5.495-0.57-7.425
		c-0.38-1.93-0.885-3.445-1.515-4.545c-0.63-1.1-1.345-1.855-2.145-2.265c-0.8-0.41-1.61-0.615-2.43-0.615
		c-0.82,0-1.625,0.206-2.415,0.615c-0.79,0.41-1.49,1.166-2.1,2.265c-0.61,1.1-1.101,2.615-1.47,4.545
		c-0.37,1.93-0.555,4.405-0.555,7.425c0,3.041,0.185,5.52,0.555,7.44c0.37,1.92,0.86,3.435,1.47,4.545c0.61,1.11,1.31,1.87,2.1,2.28
		c0.79,0.41,1.595,0.615,2.415,0.615c0.82,0,1.63-0.205,2.43-0.615c0.8-0.41,1.515-1.17,2.145-2.28
		c0.63-1.11,1.135-2.625,1.515-4.545C167.985,90.773,168.176,88.293,168.176,85.253z"/>
	<path fill="#323232" d="M212.574,85.253c0,3.82-0.41,7.13-1.229,9.93c-0.82,2.8-1.955,5.12-3.405,6.96
		c-1.45,1.84-3.17,3.21-5.16,4.11s-4.145,1.35-6.465,1.35s-4.466-0.45-6.435-1.35c-1.97-0.9-3.675-2.27-5.115-4.11
		c-1.44-1.84-2.565-4.16-3.375-6.96c-0.81-2.8-1.215-6.11-1.215-9.93c0-3.82,0.405-7.129,1.215-9.93c0.81-2.8,1.935-5.12,3.375-6.96
		s3.145-3.205,5.115-4.095c1.969-0.89,4.114-1.335,6.435-1.335s4.475,0.445,6.465,1.335c1.99,0.89,3.71,2.255,5.16,4.095
		s2.585,4.16,3.405,6.96C212.164,78.124,212.574,81.433,212.574,85.253z M202.975,85.253c0-3.02-0.19-5.495-0.57-7.425
		c-0.38-1.93-0.885-3.445-1.515-4.545c-0.63-1.1-1.346-1.855-2.146-2.265c-0.8-0.41-1.609-0.615-2.43-0.615
		s-1.625,0.206-2.415,0.615c-0.79,0.41-1.49,1.166-2.1,2.265c-0.61,1.1-1.101,2.615-1.471,4.545
		c-0.369,1.93-0.555,4.405-0.555,7.425c0,3.041,0.186,5.52,0.555,7.44c0.37,1.92,0.86,3.435,1.471,4.545
		c0.609,1.11,1.31,1.87,2.1,2.28c0.79,0.41,1.595,0.615,2.415,0.615s1.63-0.205,2.43-0.615c0.8-0.41,1.516-1.17,2.146-2.28
		c0.63-1.11,1.135-2.625,1.515-4.545C202.784,90.773,202.975,88.293,202.975,85.253z"/>
	<path fill="#323232" d="M247.374,85.253c0,3.82-0.41,7.13-1.229,9.93c-0.82,2.8-1.955,5.12-3.405,6.96
		c-1.45,1.84-3.17,3.21-5.16,4.11s-4.145,1.35-6.465,1.35s-4.465-0.45-6.435-1.35c-1.971-0.9-3.675-2.27-5.115-4.11
		c-1.44-1.84-2.565-4.16-3.375-6.96c-0.81-2.8-1.215-6.11-1.215-9.93c0-3.82,0.405-7.129,1.215-9.93c0.81-2.8,1.935-5.12,3.375-6.96
		s3.145-3.205,5.115-4.095c1.97-0.89,4.114-1.335,6.435-1.335s4.475,0.445,6.465,1.335c1.99,0.89,3.71,2.255,5.16,4.095
		s2.585,4.16,3.405,6.96C246.964,78.124,247.374,81.433,247.374,85.253z M237.774,85.253c0-3.02-0.19-5.495-0.57-7.425
		c-0.38-1.93-0.885-3.445-1.515-4.545c-0.63-1.1-1.346-1.855-2.146-2.265c-0.8-0.41-1.609-0.615-2.43-0.615
		s-1.625,0.206-2.415,0.615c-0.79,0.41-1.49,1.166-2.1,2.265c-0.61,1.1-1.101,2.615-1.47,4.545c-0.371,1.93-0.556,4.405-0.556,7.425
		c0,3.041,0.185,5.52,0.556,7.44c0.369,1.92,0.859,3.435,1.47,4.545c0.609,1.11,1.31,1.87,2.1,2.28
		c0.79,0.41,1.595,0.615,2.415,0.615s1.63-0.205,2.43-0.615c0.8-0.41,1.516-1.17,2.146-2.28c0.63-1.11,1.135-2.625,1.515-4.545
		C237.584,90.773,237.774,88.293,237.774,85.253z"/>
</g>
<g>
	<path fill="#323232" d="M164.017,234.377c1.58,0,3.14,0.261,4.68,0.78c1.54,0.521,2.92,1.32,4.14,2.4
		c1.22,1.079,2.205,2.444,2.955,4.095s1.125,3.596,1.125,5.835c0,2.04-0.38,3.976-1.14,5.806c-0.76,1.83-1.835,3.43-3.225,4.799
		c-1.39,1.371-3.065,2.456-5.025,3.256c-1.96,0.799-4.13,1.199-6.51,1.199c-2.44,0-4.63-0.385-6.57-1.154s-3.585-1.846-4.935-3.225
		c-1.35-1.381-2.38-3.031-3.09-4.951s-1.065-4.029-1.065-6.33c0-2.18,0.42-4.35,1.26-6.51c0.84-2.16,2.08-4.359,3.72-6.6l9.84-13.29
		c0.44-0.601,1.1-1.104,1.98-1.515s1.88-0.615,3-0.615h8.28l-12.96,15.48c-0.2,0.22-0.395,0.445-0.585,0.674
		c-0.19,0.23-0.375,0.456-0.555,0.676c0.7-0.26,1.435-0.46,2.205-0.6C162.311,234.447,163.136,234.377,164.017,234.377z
		 M154.296,248.147c0,1.08,0.13,2.05,0.39,2.91c0.26,0.86,0.66,1.601,1.2,2.22c0.54,0.62,1.22,1.096,2.04,1.425
		c0.82,0.33,1.79,0.495,2.91,0.495c0.96,0,1.855-0.18,2.685-0.54c0.83-0.36,1.545-0.854,2.145-1.485
		c0.6-0.629,1.075-1.369,1.425-2.22c0.35-0.85,0.525-1.774,0.525-2.774c0-1.12-0.165-2.12-0.495-3
		c-0.33-0.881-0.795-1.62-1.395-2.221c-0.6-0.6-1.325-1.06-2.175-1.38c-0.85-0.319-1.795-0.479-2.835-0.479
		c-0.94,0-1.8,0.164-2.58,0.494c-0.78,0.33-1.455,0.806-2.025,1.426c-0.57,0.62-1.015,1.36-1.335,2.22
		C154.457,246.098,154.296,247.067,154.296,248.147z"/>
	<path fill="#323232" d="M207.456,245.088h4.5v5.22c0,0.46-0.155,0.86-0.465,1.2c-0.311,0.34-0.756,0.51-1.336,0.51h-2.699v10.05
		h-8.1v-10.05h-17.581c-0.581,0-1.105-0.18-1.575-0.54c-0.47-0.36-0.765-0.81-0.885-1.351l-0.96-4.59l20.219-27.18h8.881V245.088z
		 M199.356,233.688c0-0.7,0.024-1.455,0.074-2.266c0.05-0.81,0.125-1.645,0.225-2.504l-11.549,16.17h11.25V233.688z"/>
	<path fill="#323232" d="M231.875,217.877c2.159,0,4.08,0.306,5.76,0.916c1.68,0.609,3.1,1.435,4.26,2.475s2.04,2.245,2.64,3.615
		c0.601,1.369,0.9,2.814,0.9,4.334c0,1.381-0.14,2.596-0.42,3.646s-0.695,1.96-1.245,2.729c-0.55,0.771-1.229,1.426-2.04,1.966
		c-0.81,0.54-1.735,0.989-2.774,1.35c4.84,1.681,7.26,4.97,7.26,9.87c0,2.32-0.42,4.34-1.26,6.061
		c-0.841,1.72-1.966,3.149-3.375,4.289c-1.41,1.141-3.046,1.996-4.905,2.565c-1.86,0.569-3.801,0.854-5.82,0.854
		c-2.08,0-3.93-0.225-5.55-0.674c-1.62-0.451-3.06-1.15-4.32-2.101c-1.26-0.95-2.365-2.165-3.315-3.646
		c-0.949-1.479-1.774-3.24-2.475-5.279l4.141-1.68c0.359-0.16,0.715-0.271,1.064-0.33c0.35-0.061,0.695-0.09,1.035-0.09
		c0.64,0,1.215,0.125,1.725,0.375s0.896,0.614,1.155,1.094c0.9,1.661,1.854,2.865,2.865,3.615c1.01,0.75,2.194,1.125,3.555,1.125
		c1.04,0,1.945-0.174,2.715-0.524c0.771-0.351,1.41-0.8,1.92-1.351c0.511-0.549,0.896-1.174,1.155-1.875
		c0.26-0.699,0.391-1.41,0.391-2.13c0-0.939-0.065-1.784-0.195-2.534c-0.131-0.75-0.495-1.396-1.095-1.936
		c-0.601-0.54-1.506-0.955-2.716-1.245s-2.895-0.435-5.055-0.435v-6.42c1.819,0,3.29-0.141,4.41-0.42
		c1.12-0.28,1.984-0.665,2.595-1.155s1.015-1.085,1.215-1.785s0.301-1.47,0.301-2.31c0-1.721-0.416-3.045-1.245-3.976
		c-0.83-0.93-2.096-1.396-3.795-1.396c-0.7,0-1.341,0.102-1.92,0.301c-0.581,0.2-1.101,0.47-1.561,0.81
		c-0.46,0.341-0.855,0.74-1.186,1.2c-0.329,0.461-0.595,0.96-0.795,1.5c-0.319,0.9-0.725,1.551-1.215,1.95
		c-0.49,0.4-1.154,0.6-1.994,0.6c-0.201,0-0.416-0.01-0.646-0.03c-0.229-0.02-0.465-0.049-0.705-0.09l-4.92-0.869
		c0.319-2.18,0.935-4.08,1.845-5.701c0.91-1.619,2.041-2.969,3.391-4.049s2.895-1.885,4.635-2.416
		C228.005,218.143,229.874,217.877,231.875,217.877z"/>
</g>
<g>
	<path fill="#323232" d="M248.477,167.495c0,3.82-0.41,7.13-1.229,9.93c-0.82,2.8-1.955,5.12-3.406,6.96
		c-1.449,1.84-3.17,3.21-5.159,4.11c-1.991,0.9-4.146,1.35-6.466,1.35s-4.465-0.45-6.435-1.35s-3.675-2.27-5.114-4.11
		c-1.44-1.84-2.565-4.16-3.375-6.96c-0.811-2.8-1.215-6.11-1.215-9.93c0-3.82,0.404-7.129,1.215-9.93
		c0.81-2.8,1.935-5.12,3.375-6.96c1.439-1.84,3.145-3.205,5.114-4.095c1.97-0.89,4.114-1.335,6.435-1.335s4.475,0.445,6.466,1.335
		c1.989,0.89,3.71,2.255,5.159,4.095c1.451,1.84,2.586,4.16,3.406,6.96C248.066,160.365,248.477,163.675,248.477,167.495z
		 M238.876,167.495c0-3.02-0.189-5.495-0.569-7.425c-0.38-1.93-0.886-3.445-1.515-4.545c-0.631-1.1-1.346-1.855-2.146-2.265
		c-0.8-0.41-1.61-0.615-2.431-0.615s-1.625,0.206-2.414,0.615c-0.791,0.41-1.49,1.166-2.1,2.265c-0.611,1.1-1.102,2.615-1.471,4.545
		c-0.37,1.93-0.555,4.405-0.555,7.425c0,3.041,0.185,5.52,0.555,7.44c0.369,1.92,0.859,3.435,1.471,4.545
		c0.609,1.11,1.309,1.87,2.1,2.28c0.789,0.41,1.594,0.615,2.414,0.615s1.631-0.205,2.431-0.615c0.8-0.41,1.515-1.17,2.146-2.28
		c0.629-1.11,1.135-2.625,1.515-4.545C238.687,173.015,238.876,170.535,238.876,167.495z"/>
</g>
<line fill="none" stroke="#5D935A" stroke-width="2" stroke-miterlimit="10" x1="1.098" y1="44.391" x2="1.098" y2="276.095"/>
<line fill="none" stroke="#5D935A" stroke-width="2" stroke-miterlimit="10" x1="275.153" y1="44.141" x2="275.153" y2="275.845"/>
<line fill="none" stroke="#5D935A" stroke-width="2" stroke-miterlimit="10" x1="0" y1="276.095" x2="275.987" y2="276.095"/>
<g>
</g>
<g>
</g>
<g>
</g>
<g>
</g>
<g>
</g>
<g>
</g>
</svg>
