<?xml version="1.0" encoding="UTF-8" standalone="no"?>
<!-- Generator: Adobe Illustrator 16.0.0, SVG Export Plug-In . SVG Version: 6.00 Build 0)  -->

<svg
   xmlns:dc="http://purl.org/dc/elements/1.1/"
   xmlns:cc="http://creativecommons.org/ns#"
   xmlns:rdf="http://www.w3.org/1999/02/22-rdf-syntax-ns#"
   xmlns:svg="http://www.w3.org/2000/svg"
   xmlns="http://www.w3.org/2000/svg"
   xmlns:sodipodi="http://sodipodi.sourceforge.net/DTD/sodipodi-0.dtd"
   xmlns:inkscape="http://www.inkscape.org/namespaces/inkscape"
   version="1.1"
   id="Layer_1"
   x="0px"
   y="0px"
   viewBox="-100 0 608.555 237.648"
   xml:space="preserve"
   inkscape:version="0.48.5 r10040"
   width="100%"
   height="100%"
   sodipodi:docname="buy-sell-orders.svg"><metadata
     id="metadata133"><rdf:RDF><cc:Work
         rdf:about=""><dc:format>image/svg+xml</dc:format><dc:type
           rdf:resource="http://purl.org/dc/dcmitype/StillImage" /></cc:Work></rdf:RDF></metadata><defs
     id="defs131"><clipPath
       id="_clip1"><rect
         id="icon-only"
         x="0"
         y="0"
         width="1024"
         height="1024" /></clipPath></defs><sodipodi:namedview
     pagecolor="#ffffff"
     bordercolor="#666666"
     borderopacity="1"
     objecttolerance="10"
     gridtolerance="10"
     guidetolerance="10"
     inkscape:pageopacity="0"
     inkscape:pageshadow="2"
     inkscape:window-width="1680"
     inkscape:window-height="1035"
     id="namedview129"
     showgrid="false"
     inkscape:zoom="1.4872882"
     inkscape:cx="447.67355"
     inkscape:cy="130.18843"
     inkscape:window-x="-5"
     inkscape:window-y="-12"
     inkscape:window-maximized="1"
     inkscape:current-layer="Layer_1" /><rect
     x="1"
     y="1"
     fill="none"
     stroke="#5D945A"
     stroke-width="2"
     stroke-miterlimit="10"
     width="194.907"
     height="235.648"
     id="rect3"
     style="fill:#ffffff;fill-opacity:1" /><line
     fill="none"
     stroke="#5D945A"
     stroke-width="2"
     stroke-miterlimit="10"
     x1="1"
     y1="23.223"
     x2="195.907"
     y2="23.223"
     id="line5"
     style="fill:#3cb054;fill-opacity:1" /><line
     fill="none"
     stroke="#5D945A"
     stroke-width="2"
     stroke-miterlimit="10"
     x1="1"
     y1="36.648"
     x2="195.907"
     y2="36.648"
     id="line7"
     style="fill:#3cb054;fill-opacity:1" /><line
     fill="none"
     stroke="#5D945A"
     stroke-width="2"
     stroke-miterlimit="10"
     x1="1"
     y1="50.074"
     x2="195.907"
     y2="50.074"
     id="line9"
     style="fill:#3cb054;fill-opacity:1" /><line
     fill="none"
     stroke="#5D945A"
     stroke-width="2"
     stroke-miterlimit="10"
     x1="1"
     y1="63.5"
     x2="195.907"
     y2="63.5"
     id="line11"
     style="fill:#3cb054;fill-opacity:1" /><line
     fill="none"
     stroke="#5D945A"
     stroke-width="2"
     stroke-miterlimit="10"
     x1="1"
     y1="76.925"
     x2="195.907"
     y2="76.925"
     id="line13"
     style="fill:#3cb054;fill-opacity:1" /><line
     fill="none"
     stroke="#5D945A"
     stroke-width="2"
     stroke-miterlimit="10"
     x1="1"
     y1="90.352"
     x2="195.907"
     y2="90.352"
     id="line15"
     style="fill:#3cb054;fill-opacity:1" /><line
     fill="none"
     stroke="#5D945A"
     stroke-width="2"
     stroke-miterlimit="10"
     x1="1"
     y1="103.777"
     x2="195.907"
     y2="103.777"
     id="line17"
     style="fill:#3cb054;fill-opacity:1" /><line
     fill="none"
     stroke="#5D945A"
     stroke-width="2"
     stroke-miterlimit="10"
     x1="1.001"
     y1="117.203"
     x2="195.907"
     y2="117.203"
     id="line19"
     style="fill:#3cb054;fill-opacity:1" /><line
     fill="none"
     stroke="#5D945A"
     stroke-width="2"
     stroke-miterlimit="10"
     x1="1.001"
     y1="130.628"
     x2="195.907"
     y2="130.628"
     id="line21"
     style="fill:#3cb054;fill-opacity:1" /><line
     fill="none"
     stroke="#5D945A"
     stroke-width="2"
     stroke-miterlimit="10"
     x1="1"
     y1="144.054"
     x2="195.907"
     y2="144.054"
     id="line23"
     style="fill:#3cb054;fill-opacity:1" /><line
     fill="none"
     stroke="#5D945A"
     stroke-width="2"
     stroke-miterlimit="10"
     x1="1"
     y1="157.48"
     x2="195.907"
     y2="157.48"
     id="line25"
     style="fill:#3cb054;fill-opacity:1" /><line
     fill="none"
     stroke="#5D945A"
     stroke-width="2"
     stroke-miterlimit="10"
     x1="1"
     y1="170.906"
     x2="195.907"
     y2="170.906"
     id="line27"
     style="fill:#3cb054;fill-opacity:1" /><line
     fill="none"
     stroke="#5D945A"
     stroke-width="2"
     stroke-miterlimit="10"
     x1="1"
     y1="184.332"
     x2="195.907"
     y2="184.332"
     id="line29"
     style="fill:#3cb054;fill-opacity:1" /><line
     fill="none"
     stroke="#5D945A"
     stroke-width="2"
     stroke-miterlimit="10"
     x1="1"
     y1="197.757"
     x2="195.907"
     y2="197.757"
     id="line31"
     style="fill:#3cb054;fill-opacity:1" /><line
     fill="none"
     stroke="#5D945A"
     stroke-width="2"
     stroke-miterlimit="10"
     x1="1.001"
     y1="211.183"
     x2="195.907"
     y2="211.183"
     id="line33"
     style="fill:#3cb054;fill-opacity:1" /><line
     fill="none"
     stroke="#5D945A"
     stroke-width="2"
     stroke-miterlimit="10"
     x1="1.001"
     y1="224.609"
     x2="195.907"
     y2="224.609"
     id="line35"
     style="fill:#3cb054;fill-opacity:1" /><rect
     x="1"
     y="1"
     fill="#5D935A"
     width="194.907"
     height="22.223"
     id="rect37"
     style="fill:#3cb054;fill-opacity:1" /><rect
     x="212.648"
     y="1"
     fill="none"
     stroke="#5D945A"
     stroke-width="2"
     stroke-miterlimit="10"
     width="194.907"
     height="235.648"
     id="rect39"
     style="fill:#ffffff;fill-opacity:1" /><line
     fill="none"
     stroke="#5D945A"
     stroke-width="2"
     stroke-miterlimit="10"
     x1="212.648"
     y1="23.223"
     x2="407.555"
     y2="23.223"
     id="line41"
     style="fill:#3cb054;fill-opacity:1" /><line
     fill="none"
     stroke="#5D945A"
     stroke-width="2"
     stroke-miterlimit="10"
     x1="212.648"
     y1="36.648"
     x2="407.555"
     y2="36.648"
     id="line43"
     style="fill:#3cb054;fill-opacity:1" /><line
     fill="none"
     stroke="#5D945A"
     stroke-width="2"
     stroke-miterlimit="10"
     x1="212.648"
     y1="50.074"
     x2="407.555"
     y2="50.074"
     id="line45"
     style="fill:#3cb054;fill-opacity:1" /><line
     fill="none"
     stroke="#5D945A"
     stroke-width="2"
     stroke-miterlimit="10"
     x1="212.649"
     y1="63.5"
     x2="407.555"
     y2="63.5"
     id="line47"
     style="fill:#3cb054;fill-opacity:1" /><line
     fill="none"
     stroke="#5D945A"
     stroke-width="2"
     stroke-miterlimit="10"
     x1="212.649"
     y1="76.925"
     x2="407.555"
     y2="76.925"
     id="line49"
     style="fill:#3cb054;fill-opacity:1" /><line
     fill="none"
     stroke="#5D945A"
     stroke-width="2"
     stroke-miterlimit="10"
     x1="212.649"
     y1="90.352"
     x2="407.555"
     y2="90.352"
     id="line51"
     style="fill:#3cb054;fill-opacity:1" /><line
     fill="none"
     stroke="#5D945A"
     stroke-width="2"
     stroke-miterlimit="10"
     x1="212.649"
     y1="103.777"
     x2="407.555"
     y2="103.777"
     id="line53"
     style="fill:#3cb054;fill-opacity:1" /><line
     fill="none"
     stroke="#5D945A"
     stroke-width="2"
     stroke-miterlimit="10"
     x1="212.649"
     y1="117.203"
     x2="407.555"
     y2="117.203"
     id="line55"
     style="fill:#3cb054;fill-opacity:1" /><line
     fill="none"
     stroke="#5D945A"
     stroke-width="2"
     stroke-miterlimit="10"
     x1="212.649"
     y1="130.628"
     x2="407.555"
     y2="130.628"
     id="line57"
     style="fill:#3cb054;fill-opacity:1" /><line
     fill="none"
     stroke="#5D945A"
     stroke-width="2"
     stroke-miterlimit="10"
     x1="212.648"
     y1="144.054"
     x2="407.555"
     y2="144.054"
     id="line59"
     style="fill:#3cb054;fill-opacity:1" /><line
     fill="none"
     stroke="#5D945A"
     stroke-width="2"
     stroke-miterlimit="10"
     x1="212.649"
     y1="157.48"
     x2="407.555"
     y2="157.48"
     id="line61"
     style="fill:#3cb054;fill-opacity:1" /><line
     fill="none"
     stroke="#5D945A"
     stroke-width="2"
     stroke-miterlimit="10"
     x1="212.649"
     y1="170.906"
     x2="407.555"
     y2="170.906"
     id="line63"
     style="fill:#3cb054;fill-opacity:1" /><line
     fill="none"
     stroke="#5D945A"
     stroke-width="2"
     stroke-miterlimit="10"
     x1="212.649"
     y1="184.332"
     x2="407.555"
     y2="184.332"
     id="line65"
     style="fill:#3cb054;fill-opacity:1" /><line
     fill="none"
     stroke="#5D945A"
     stroke-width="2"
     stroke-miterlimit="10"
     x1="212.649"
     y1="197.757"
     x2="407.555"
     y2="197.757"
     id="line67"
     style="fill:#3cb054;fill-opacity:1" /><line
     fill="none"
     stroke="#5D945A"
     stroke-width="2"
     stroke-miterlimit="10"
     x1="212.649"
     y1="211.183"
     x2="407.555"
     y2="211.183"
     id="line69"
     style="fill:#3cb054;fill-opacity:1" /><line
     fill="none"
     stroke="#5D945A"
     stroke-width="2"
     stroke-miterlimit="10"
     x1="212.649"
     y1="224.609"
     x2="407.555"
     y2="224.609"
     id="line71"
     style="fill:#3cb054;fill-opacity:1" /><rect
     x="212.648"
     y="1"
     fill="#5D935A"
     width="194.907"
     height="22.223"
     id="rect73"
     style="fill:#3cb054;fill-opacity:1" /><g
     id="g75"
     style="fill:#ffffff;fill-opacity:1"><path
       fill="#FFFFFF"
       d="M41.432,18.592V5.479h4.824c0.906,0,1.677,0.084,2.313,0.252c0.636,0.168,1.155,0.405,1.557,0.711   c0.402,0.306,0.694,0.678,0.877,1.116c0.183,0.438,0.274,0.927,0.274,1.467c0,0.294-0.042,0.578-0.126,0.851   s-0.216,0.529-0.396,0.77c-0.18,0.24-0.411,0.458-0.693,0.652s-0.621,0.364-1.017,0.508c0.864,0.21,1.503,0.551,1.917,1.021   c0.414,0.471,0.621,1.076,0.621,1.813c0,0.558-0.108,1.077-0.324,1.557c-0.216,0.48-0.533,0.898-0.95,1.255   c-0.417,0.357-0.932,0.636-1.543,0.837c-0.612,0.201-1.311,0.301-2.097,0.301H41.432z M44.474,10.996h1.584   c0.336,0,0.639-0.024,0.909-0.072c0.27-0.048,0.499-0.132,0.688-0.252c0.189-0.12,0.333-0.285,0.432-0.495   c0.099-0.21,0.148-0.474,0.148-0.792c0-0.312-0.039-0.571-0.117-0.778c-0.078-0.207-0.198-0.374-0.36-0.5   c-0.162-0.126-0.368-0.216-0.617-0.27c-0.249-0.054-0.544-0.081-0.887-0.081h-1.782V10.996z M44.474,13.03v3.267h2.142   c0.402,0,0.73-0.051,0.985-0.153c0.255-0.102,0.455-0.234,0.599-0.396c0.144-0.162,0.243-0.345,0.297-0.549   c0.054-0.204,0.081-0.411,0.081-0.621c0-0.24-0.032-0.456-0.095-0.648c-0.063-0.192-0.171-0.354-0.324-0.486   c-0.153-0.132-0.355-0.234-0.607-0.306c-0.252-0.072-0.57-0.108-0.954-0.108H44.474z"
       id="path77"
       style="fill:#ffffff;fill-opacity:1" /><path
       fill="#FFFFFF"
       d="M58.693,16.189c0.408,0,0.772-0.068,1.093-0.203c0.321-0.135,0.592-0.329,0.814-0.581   s0.392-0.56,0.509-0.922c0.117-0.363,0.175-0.775,0.175-1.238V5.479h3.042v7.767c0,0.804-0.13,1.542-0.392,2.214   c-0.261,0.672-0.634,1.251-1.121,1.737c-0.486,0.486-1.077,0.864-1.773,1.134c-0.696,0.27-1.479,0.405-2.349,0.405   c-0.876,0-1.662-0.135-2.358-0.405c-0.696-0.27-1.287-0.648-1.773-1.134c-0.486-0.486-0.858-1.065-1.116-1.737   c-0.258-0.672-0.387-1.41-0.387-2.214V5.479h3.042v7.758c0,0.462,0.059,0.875,0.176,1.237c0.117,0.363,0.286,0.672,0.508,0.927   s0.494,0.45,0.814,0.585C57.92,16.122,58.285,16.189,58.693,16.189z"
       id="path79"
       style="fill:#ffffff;fill-opacity:1" /><path
       fill="#FFFFFF"
       d="M72.841,13.606v4.986h-3.042v-4.986l-4.752-8.127h2.682c0.264,0,0.474,0.062,0.63,0.184   c0.156,0.123,0.282,0.281,0.378,0.473l1.854,3.816c0.15,0.306,0.288,0.588,0.414,0.846s0.237,0.513,0.333,0.765   c0.09-0.258,0.198-0.516,0.324-0.774c0.126-0.258,0.261-0.537,0.405-0.837l1.836-3.816c0.036-0.078,0.086-0.156,0.149-0.234   s0.135-0.148,0.216-0.211s0.174-0.114,0.279-0.153c0.105-0.039,0.221-0.058,0.347-0.058h2.7L72.841,13.606z"
       id="path81"
       style="fill:#ffffff;fill-opacity:1" /><path
       fill="#FFFFFF"
       d="M94.909,12.031c0,0.948-0.164,1.83-0.49,2.646c-0.327,0.816-0.788,1.525-1.382,2.128   c-0.594,0.603-1.31,1.076-2.146,1.417c-0.837,0.342-1.766,0.513-2.786,0.513s-1.95-0.171-2.79-0.513   c-0.84-0.342-1.559-0.814-2.156-1.417s-1.059-1.313-1.386-2.128c-0.327-0.816-0.491-1.698-0.491-2.646   c0-0.948,0.164-1.83,0.491-2.646c0.327-0.816,0.789-1.524,1.386-2.124c0.597-0.6,1.315-1.071,2.156-1.413   c0.84-0.342,1.77-0.513,2.79-0.513s1.949,0.172,2.786,0.518c0.837,0.345,1.553,0.817,2.146,1.417   c0.594,0.6,1.055,1.308,1.382,2.124C94.746,10.21,94.909,11.089,94.909,12.031z M91.795,12.031c0-0.648-0.084-1.231-0.252-1.75   s-0.409-0.958-0.724-1.318c-0.315-0.36-0.701-0.636-1.157-0.828s-0.975-0.288-1.557-0.288c-0.588,0-1.111,0.096-1.57,0.288   s-0.846,0.468-1.161,0.828c-0.315,0.36-0.557,0.799-0.724,1.318c-0.168,0.519-0.252,1.103-0.252,1.75   c0,0.654,0.084,1.241,0.252,1.76c0.167,0.519,0.409,0.958,0.724,1.318s0.702,0.634,1.161,0.823s0.982,0.284,1.57,0.284   c0.582,0,1.101-0.095,1.557-0.284s0.842-0.463,1.157-0.823s0.556-0.799,0.724-1.318S91.795,12.686,91.795,12.031z"
       id="path83"
       style="fill:#ffffff;fill-opacity:1" /><path
       fill="#FFFFFF"
       d="M99.409,13.741v4.851h-3.042V5.479h4.266c0.948,0,1.756,0.097,2.425,0.292   c0.669,0.195,1.215,0.466,1.638,0.814c0.423,0.348,0.73,0.759,0.922,1.233s0.288,0.99,0.288,1.548c0,0.426-0.057,0.828-0.171,1.206   c-0.114,0.378-0.284,0.728-0.509,1.048c-0.225,0.321-0.501,0.608-0.828,0.86c-0.327,0.252-0.703,0.459-1.129,0.621   c0.204,0.103,0.395,0.229,0.572,0.378c0.177,0.15,0.331,0.333,0.463,0.549l2.79,4.563h-2.754c-0.51,0-0.876-0.192-1.098-0.576   l-2.178-3.807c-0.096-0.168-0.208-0.288-0.337-0.36c-0.129-0.072-0.311-0.108-0.544-0.108H99.409z M99.409,11.644h1.224   c0.414,0,0.766-0.052,1.057-0.157s0.53-0.25,0.716-0.437c0.186-0.186,0.321-0.403,0.405-0.652s0.126-0.518,0.126-0.806   c0-0.576-0.188-1.026-0.563-1.35c-0.375-0.324-0.956-0.486-1.741-0.486h-1.224V11.644z"
       id="path85"
       style="fill:#ffffff;fill-opacity:1" /><path
       fill="#FFFFFF"
       d="M120.235,12.031c0,0.948-0.164,1.823-0.491,2.624c-0.327,0.801-0.787,1.494-1.381,2.079   c-0.594,0.585-1.31,1.041-2.146,1.368c-0.837,0.327-1.766,0.491-2.786,0.491h-5.094V5.479h5.094c1.02,0,1.949,0.165,2.786,0.495   c0.837,0.33,1.553,0.786,2.146,1.368c0.594,0.582,1.055,1.273,1.381,2.075C120.071,10.218,120.235,11.089,120.235,12.031z    M117.121,12.031c0-0.648-0.084-1.233-0.252-1.755s-0.409-0.964-0.724-1.328c-0.315-0.363-0.701-0.642-1.157-0.837   s-0.975-0.292-1.557-0.292h-2.034v8.433h2.034c0.582,0,1.101-0.098,1.557-0.292c0.456-0.195,0.841-0.474,1.157-0.837   c0.315-0.363,0.556-0.805,0.724-1.327S117.121,12.686,117.121,12.031z"
       id="path87"
       style="fill:#ffffff;fill-opacity:1" /><path
       fill="#FFFFFF"
       d="M130.134,5.479v2.34h-5.382v3.06h4.122v2.25h-4.122v3.123h5.382v2.34h-8.442V5.479H130.134z"
       id="path89"
       style="fill:#ffffff;fill-opacity:1" /><path
       fill="#FFFFFF"
       d="M134.904,13.741v4.851h-3.042V5.479h4.266c0.948,0,1.756,0.097,2.425,0.292   c0.669,0.195,1.215,0.466,1.638,0.814c0.423,0.348,0.73,0.759,0.922,1.233s0.288,0.99,0.288,1.548c0,0.426-0.057,0.828-0.171,1.206   c-0.114,0.378-0.284,0.728-0.509,1.048c-0.225,0.321-0.501,0.608-0.828,0.86c-0.327,0.252-0.703,0.459-1.129,0.621   c0.204,0.103,0.395,0.229,0.572,0.378c0.177,0.15,0.331,0.333,0.463,0.549l2.79,4.563h-2.754c-0.51,0-0.876-0.192-1.098-0.576   l-2.178-3.807c-0.096-0.168-0.208-0.288-0.337-0.36c-0.129-0.072-0.311-0.108-0.544-0.108H134.904z M134.904,11.644h1.224   c0.414,0,0.766-0.052,1.057-0.157s0.53-0.25,0.716-0.437c0.186-0.186,0.321-0.403,0.405-0.652s0.126-0.518,0.126-0.806   c0-0.576-0.188-1.026-0.563-1.35c-0.375-0.324-0.956-0.486-1.741-0.486h-1.224V11.644z"
       id="path91"
       style="fill:#ffffff;fill-opacity:1" /><path
       fill="#FFFFFF"
       d="M151.14,8.143c-0.09,0.144-0.185,0.252-0.284,0.324s-0.227,0.108-0.382,0.108   c-0.138,0-0.287-0.043-0.446-0.13c-0.159-0.087-0.339-0.185-0.54-0.292c-0.201-0.108-0.431-0.206-0.688-0.292   s-0.552-0.13-0.882-0.13c-0.57,0-0.995,0.121-1.273,0.364c-0.279,0.243-0.418,0.572-0.418,0.985c0,0.264,0.084,0.483,0.252,0.657   s0.388,0.324,0.662,0.45c0.273,0.126,0.585,0.241,0.936,0.346c0.351,0.105,0.709,0.222,1.075,0.351s0.725,0.281,1.076,0.455   s0.663,0.396,0.936,0.666c0.273,0.27,0.493,0.599,0.661,0.985c0.168,0.387,0.252,0.854,0.252,1.399   c0,0.606-0.105,1.173-0.315,1.701s-0.514,0.989-0.913,1.381c-0.399,0.393-0.891,0.702-1.476,0.927s-1.25,0.337-1.994,0.337   c-0.408,0-0.823-0.042-1.247-0.126c-0.423-0.084-0.833-0.203-1.229-0.355c-0.396-0.153-0.768-0.334-1.116-0.544   c-0.348-0.21-0.651-0.444-0.909-0.702l0.9-1.422c0.066-0.108,0.159-0.195,0.279-0.261c0.12-0.066,0.249-0.099,0.387-0.099   c0.18,0,0.361,0.057,0.544,0.171c0.183,0.114,0.39,0.24,0.621,0.378s0.497,0.264,0.796,0.378c0.3,0.114,0.654,0.171,1.062,0.171   c0.552,0,0.981-0.122,1.287-0.364c0.306-0.243,0.459-0.628,0.459-1.157c0-0.306-0.084-0.555-0.252-0.747   c-0.168-0.192-0.389-0.351-0.662-0.477s-0.583-0.237-0.931-0.333c-0.348-0.096-0.705-0.202-1.071-0.319   c-0.366-0.117-0.723-0.261-1.071-0.432c-0.348-0.171-0.659-0.396-0.932-0.675s-0.494-0.627-0.662-1.044s-0.252-0.932-0.252-1.543   c0-0.492,0.099-0.972,0.297-1.44c0.198-0.468,0.489-0.885,0.873-1.251c0.384-0.366,0.855-0.659,1.413-0.878   c0.558-0.219,1.197-0.328,1.917-0.328c0.402,0,0.793,0.031,1.175,0.094c0.381,0.063,0.742,0.156,1.084,0.279   c0.342,0.123,0.661,0.27,0.958,0.441c0.297,0.171,0.563,0.364,0.796,0.581L151.14,8.143z"
       id="path93"
       style="fill:#ffffff;fill-opacity:1" /></g><g
     id="g95"
     style="fill:#ffffff;fill-opacity:1"><path
       fill="#FFFFFF"
       d="M262.407,8.143c-0.09,0.144-0.185,0.252-0.283,0.324c-0.1,0.072-0.227,0.108-0.383,0.108   c-0.139,0-0.287-0.043-0.445-0.13c-0.159-0.087-0.34-0.185-0.541-0.292c-0.2-0.108-0.43-0.206-0.688-0.292s-0.553-0.13-0.883-0.13   c-0.57,0-0.994,0.121-1.273,0.364s-0.418,0.572-0.418,0.985c0,0.264,0.084,0.483,0.252,0.657s0.389,0.324,0.662,0.45   c0.272,0.126,0.584,0.241,0.936,0.346c0.351,0.105,0.709,0.222,1.075,0.351s0.725,0.281,1.075,0.455   c0.352,0.174,0.663,0.396,0.937,0.666c0.272,0.27,0.493,0.599,0.661,0.985c0.168,0.387,0.252,0.854,0.252,1.399   c0,0.606-0.105,1.173-0.314,1.701c-0.211,0.528-0.515,0.989-0.914,1.381c-0.398,0.393-0.891,0.702-1.476,0.927   s-1.249,0.337-1.993,0.337c-0.408,0-0.824-0.042-1.247-0.126s-0.833-0.203-1.229-0.355c-0.396-0.153-0.769-0.334-1.116-0.544   s-0.65-0.444-0.908-0.702l0.899-1.422c0.065-0.108,0.159-0.195,0.279-0.261c0.12-0.066,0.249-0.099,0.387-0.099   c0.181,0,0.361,0.057,0.544,0.171c0.184,0.114,0.391,0.24,0.621,0.378c0.231,0.138,0.497,0.264,0.797,0.378   c0.301,0.114,0.654,0.171,1.063,0.171c0.552,0,0.98-0.122,1.287-0.364c0.306-0.243,0.459-0.628,0.459-1.157   c0-0.306-0.084-0.555-0.252-0.747c-0.168-0.192-0.389-0.351-0.662-0.477s-0.584-0.237-0.932-0.333   c-0.348-0.096-0.705-0.202-1.07-0.319c-0.366-0.117-0.724-0.261-1.071-0.432c-0.349-0.171-0.659-0.396-0.932-0.675   s-0.493-0.627-0.661-1.044s-0.252-0.932-0.252-1.543c0-0.492,0.099-0.972,0.297-1.44c0.197-0.468,0.488-0.885,0.873-1.251   c0.384-0.366,0.854-0.659,1.412-0.878c0.559-0.219,1.197-0.328,1.918-0.328c0.401,0,0.793,0.031,1.174,0.094   s0.742,0.156,1.085,0.279c0.342,0.123,0.661,0.27,0.958,0.441s0.563,0.364,0.797,0.581L262.407,8.143z"
       id="path97"
       style="fill:#ffffff;fill-opacity:1" /><path
       fill="#FFFFFF"
       d="M273.296,5.479v2.34h-5.382v3.06h4.122v2.25h-4.122v3.123h5.382v2.34h-8.442V5.479H273.296z"
       id="path99"
       style="fill:#ffffff;fill-opacity:1" /><path
       fill="#FFFFFF"
       d="M278.067,16.162h4.859v2.43h-7.902V5.479h3.043V16.162z"
       id="path101"
       style="fill:#ffffff;fill-opacity:1" /><path
       fill="#FFFFFF"
       d="M287.409,16.162h4.859v2.43h-7.902V5.479h3.043V16.162z"
       id="path103"
       style="fill:#ffffff;fill-opacity:1" /><path
       fill="#FFFFFF"
       d="M310.124,12.031c0,0.948-0.163,1.83-0.49,2.646c-0.326,0.816-0.787,1.525-1.381,2.128   s-1.311,1.076-2.146,1.417c-0.838,0.342-1.766,0.513-2.786,0.513s-1.95-0.171-2.79-0.513c-0.84-0.342-1.559-0.814-2.155-1.417   s-1.06-1.313-1.386-2.128c-0.327-0.816-0.49-1.698-0.49-2.646c0-0.948,0.163-1.83,0.49-2.646c0.326-0.816,0.789-1.524,1.386-2.124   c0.597-0.6,1.315-1.071,2.155-1.413c0.84-0.342,1.77-0.513,2.79-0.513s1.948,0.172,2.786,0.518   c0.836,0.345,1.553,0.817,2.146,1.417c0.594,0.6,1.055,1.308,1.381,2.124C309.96,10.21,310.124,11.089,310.124,12.031z    M307.01,12.031c0-0.648-0.084-1.231-0.252-1.75s-0.41-0.958-0.725-1.318c-0.314-0.36-0.701-0.636-1.156-0.828   c-0.457-0.192-0.976-0.288-1.558-0.288c-0.588,0-1.111,0.096-1.57,0.288s-0.847,0.468-1.161,0.828   c-0.314,0.36-0.557,0.799-0.725,1.318s-0.252,1.103-0.252,1.75c0,0.654,0.084,1.241,0.252,1.76s0.41,0.958,0.725,1.318   s0.702,0.634,1.161,0.823s0.982,0.284,1.57,0.284c0.582,0,1.101-0.095,1.558-0.284c0.455-0.189,0.842-0.463,1.156-0.823   s0.557-0.799,0.725-1.318S307.01,12.686,307.01,12.031z"
       id="path105"
       style="fill:#ffffff;fill-opacity:1" /><path
       fill="#FFFFFF"
       d="M314.624,13.741v4.851h-3.041V5.479h4.266c0.947,0,1.756,0.097,2.426,0.292   c0.668,0.195,1.215,0.466,1.638,0.814s0.73,0.759,0.923,1.233c0.191,0.474,0.287,0.99,0.287,1.548c0,0.426-0.057,0.828-0.17,1.206   c-0.115,0.378-0.284,0.728-0.51,1.048c-0.225,0.321-0.5,0.608-0.828,0.86c-0.326,0.252-0.703,0.459-1.129,0.621   c0.204,0.103,0.395,0.229,0.572,0.378c0.176,0.15,0.33,0.333,0.463,0.549l2.79,4.563h-2.754c-0.511,0-0.876-0.192-1.099-0.576   l-2.178-3.807c-0.096-0.168-0.209-0.288-0.338-0.36c-0.129-0.072-0.311-0.108-0.544-0.108H314.624z M314.624,11.644h1.225   c0.414,0,0.766-0.052,1.057-0.157s0.53-0.25,0.717-0.437c0.186-0.186,0.32-0.403,0.404-0.652s0.126-0.518,0.126-0.806   c0-0.576-0.188-1.026-0.563-1.35c-0.375-0.324-0.956-0.486-1.741-0.486h-1.225V11.644z"
       id="path107"
       style="fill:#ffffff;fill-opacity:1" /><path
       fill="#FFFFFF"
       d="M335.45,12.031c0,0.948-0.164,1.823-0.49,2.624c-0.327,0.801-0.787,1.494-1.382,2.079   c-0.594,0.585-1.31,1.041-2.146,1.368c-0.837,0.327-1.766,0.491-2.786,0.491h-5.094V5.479h5.094c1.021,0,1.949,0.165,2.786,0.495   c0.837,0.33,1.553,0.786,2.146,1.368c0.595,0.582,1.055,1.273,1.382,2.075C335.286,10.218,335.45,11.089,335.45,12.031z    M332.335,12.031c0-0.648-0.084-1.233-0.252-1.755s-0.409-0.964-0.724-1.328c-0.316-0.363-0.701-0.642-1.157-0.837   s-0.976-0.292-1.558-0.292h-2.033v8.433h2.033c0.582,0,1.102-0.098,1.558-0.292c0.456-0.195,0.841-0.474,1.157-0.837   c0.314-0.363,0.556-0.805,0.724-1.327S332.335,12.686,332.335,12.031z"
       id="path109"
       style="fill:#ffffff;fill-opacity:1" /><path
       fill="#FFFFFF"
       d="M345.35,5.479v2.34h-5.383v3.06h4.123v2.25h-4.123v3.123h5.383v2.34h-8.442V5.479H345.35z"
       id="path111"
       style="fill:#ffffff;fill-opacity:1" /><path
       fill="#FFFFFF"
       d="M350.12,13.741v4.851h-3.043V5.479h4.267c0.948,0,1.757,0.097,2.425,0.292   c0.67,0.195,1.215,0.466,1.639,0.814c0.423,0.348,0.73,0.759,0.922,1.233c0.192,0.474,0.289,0.99,0.289,1.548   c0,0.426-0.058,0.828-0.172,1.206c-0.113,0.378-0.283,0.728-0.508,1.048c-0.226,0.321-0.502,0.608-0.828,0.86   c-0.327,0.252-0.703,0.459-1.13,0.621c0.204,0.103,0.395,0.229,0.571,0.378c0.178,0.15,0.332,0.333,0.464,0.549l2.79,4.563h-2.754   c-0.51,0-0.877-0.192-1.098-0.576l-2.179-3.807c-0.096-0.168-0.208-0.288-0.337-0.36c-0.129-0.072-0.311-0.108-0.545-0.108H350.12z    M350.12,11.644h1.224c0.413,0,0.767-0.052,1.058-0.157s0.529-0.25,0.715-0.437s0.321-0.403,0.405-0.652s0.126-0.518,0.126-0.806   c0-0.576-0.188-1.026-0.563-1.35c-0.375-0.324-0.955-0.486-1.741-0.486h-1.224V11.644z"
       id="path113"
       style="fill:#ffffff;fill-opacity:1" /><path
       fill="#FFFFFF"
       d="M366.356,8.143c-0.091,0.144-0.186,0.252-0.284,0.324s-0.227,0.108-0.382,0.108   c-0.139,0-0.287-0.043-0.446-0.13s-0.339-0.185-0.54-0.292s-0.431-0.206-0.688-0.292s-0.552-0.13-0.882-0.13   c-0.57,0-0.994,0.121-1.273,0.364s-0.418,0.572-0.418,0.985c0,0.264,0.084,0.483,0.252,0.657s0.388,0.324,0.661,0.45   c0.272,0.126,0.585,0.241,0.937,0.346c0.35,0.105,0.709,0.222,1.074,0.351c0.367,0.129,0.725,0.281,1.076,0.455   s0.662,0.396,0.936,0.666s0.494,0.599,0.662,0.985c0.168,0.387,0.252,0.854,0.252,1.399c0,0.606-0.105,1.173-0.315,1.701   s-0.515,0.989-0.913,1.381c-0.399,0.393-0.891,0.702-1.477,0.927c-0.584,0.225-1.249,0.337-1.993,0.337   c-0.408,0-0.823-0.042-1.247-0.126c-0.422-0.084-0.832-0.203-1.229-0.355c-0.396-0.153-0.768-0.334-1.115-0.544   s-0.651-0.444-0.909-0.702l0.899-1.422c0.066-0.108,0.16-0.195,0.279-0.261c0.12-0.066,0.249-0.099,0.387-0.099   c0.181,0,0.361,0.057,0.545,0.171c0.184,0.114,0.391,0.24,0.621,0.378s0.496,0.264,0.797,0.378c0.3,0.114,0.654,0.171,1.062,0.171   c0.552,0,0.981-0.122,1.287-0.364c0.306-0.243,0.459-0.628,0.459-1.157c0-0.306-0.084-0.555-0.252-0.747   c-0.168-0.192-0.389-0.351-0.661-0.477c-0.273-0.126-0.584-0.237-0.932-0.333c-0.348-0.096-0.705-0.202-1.071-0.319   s-0.724-0.261-1.071-0.432c-0.348-0.171-0.658-0.396-0.932-0.675c-0.272-0.279-0.493-0.627-0.661-1.044s-0.252-0.932-0.252-1.543   c0-0.492,0.099-0.972,0.297-1.44c0.198-0.468,0.489-0.885,0.873-1.251c0.384-0.366,0.854-0.659,1.413-0.878   c0.559-0.219,1.197-0.328,1.917-0.328c0.401,0,0.794,0.031,1.175,0.094s0.742,0.156,1.084,0.279s0.662,0.27,0.959,0.441   s0.563,0.364,0.797,0.581L366.356,8.143z"
       id="path115"
       style="fill:#ffffff;fill-opacity:1" /></g><g
     id="g117" /><g
     id="g119" /><g
     id="g121" /><g
     id="g123" /><g
     id="g125" /><g
     id="g127" /></svg>