<?xml version="1.0" encoding="utf-8"?>
<!-- Generator: Adobe Illustrator 16.0.0, SVG Export Plug-In . SVG Version: 6.00 Build 0)  -->
<!DOCTYPE svg PUBLIC "-//W3C//DTD SVG 1.1//EN" "http://www.w3.org/Graphics/SVG/1.1/DTD/svg11.dtd">
<svg version="1.1" id="Layer_1" xmlns="http://www.w3.org/2000/svg" xmlns:xlink="http://www.w3.org/1999/xlink" x="0px" y="0px"
	 viewBox="0 0 733.647 363.315" enable-background="new 0 0 733.647 363.315"
	 xml:space="preserve">
<g>
	<path fill="#60965A" d="M554.523,218.612c-1.13,0.842-3.165,2.084-5.61,3.256l4.277,2.361c-7.787,0.72-14.925,4.938-18.823,12
		c-3.844,6.965-3.671,15.121-0.27,22.033l-14.017-7.738c0.632-0.574,1.179-1.256,1.611-2.039c2.249-4.075,0.553-9.321-3.79-11.719
		c-0.834-0.46-1.707-0.78-2.587-0.972l8.619-15.614c0.631,0.643,1.366,1.21,2.201,1.671c1.293,0.714,2.676,1.091,4.038,1.167
		c-0.485-0.271-0.948-0.561-1.38-0.866c-2.103-1.489-3.311-3.198-3.494-4.94c-0.133-1.26,0.183-3.613,3.791-5.233
		c1.008-0.452,3.819-2.139,6.786-4.002l-9.46-5.222l-24.522,44.428l85.638,47.271l24.522-44.428l-57.26-31.607
		C554.711,218.477,554.622,218.54,554.523,218.612z M579.493,261.14c3.898-7.063,3.664-15.35,0.123-22.323l14.252,7.866
		c-0.632,0.576-1.179,1.258-1.611,2.041c-2.249,4.074-0.552,9.32,3.79,11.719c0.835,0.461,1.706,0.781,2.586,0.971l-8.619,15.615
		c-0.629-0.643-1.365-1.209-2.2-1.67c-4.343-2.398-9.687-1.037-11.936,3.037c-0.433,0.783-0.717,1.609-0.867,2.451l-14.018-7.738
		C568.655,272.304,575.649,268.104,579.493,261.14z M563.573,233.217l1.643-2.976l3.761,2.075l-1.618,2.933
		c2.475,1.576,4.423,3.584,6.192,6.217l-5.606,5.045c-1.8-2.781-3.726-4.74-5.78-5.875c-0.979-0.54-1.745-0.777-2.3-0.713
		c-0.555,0.066-0.984,0.375-1.291,0.931c-0.266,0.481-0.342,0.958-0.228,1.431s0.42,1.098,0.915,1.877
		c0.496,0.777,1.232,1.77,2.211,2.976c1.96,2.491,3.115,4.733,3.468,6.728c0.351,1.992-0.083,4.07-1.283,6.244
		c-1.354,2.453-3.114,4.08-5.264,4.893c-2.147,0.814-4.521,0.742-7.286-0.309l-1.606,2.908l-3.761-2.074l1.533-2.779
		c-2.654-1.654-4.823-3.785-6.507-6.391l4.011-7.269c0.893,1.616,2.065,3.202,3.41,4.696s2.625,2.576,3.885,3.271
		c1.039,0.574,1.883,0.846,2.531,0.813s1.166-0.398,1.553-1.1c0.266-0.482,0.316-0.986,0.153-1.516
		c-0.164-0.527-0.535-1.227-1.114-2.1c-0.58-0.873-1.396-1.988-2.447-3.35c-1.176-1.543-2.003-3.006-2.486-4.386
		c-0.482-1.38-0.649-2.72-0.5-4.017c0.15-1.299,0.66-2.735,1.529-4.312c1.33-2.407,3.017-3.933,5.063-4.575
		C558.396,231.873,560.66,232.028,563.573,233.217z"/>
	<path fill="#333333" d="M529.854,213.677c2.294-1.029,12.374-7.432,15.249-9.569c2.876-2.138,5.288-3.683,10.984-2.624
		c5.694,1.058,17.978,2.355,17.978,2.355s11.852-6.58,13.464-7.933c8.686,6.995,19.448,20.146,23.896,28.638
		c-2.659,6.078-9.898,10.709-19.782,11.861c-6.498-3.406-31.548-17.135-33.417-18.381c-1.87-1.246-1.938-3.044-4.813-0.906
		c-2.876,2.139-12.2,7.148-18.064,5.889C529.483,221.748,523.519,216.521,529.854,213.677z"/>
</g>
<g>
	<path fill="#5E955A" d="M422.612,22.168l0.203,19.201h59.948V55.16h-4.761l0.019,81.88h4.742v9.569l-220.834,0.015v-9.584h3.888
		L265.8,55.16h-3.87V41.371h59.082l0.226-19.205l-11.863,2.277V10.677L369.316,0h5.172l59.97,10.677v13.767L422.612,22.168
		L422.612,22.168z M329.216,20.782V137.04h85.401V20.782l-42.7-7.483l-42.701,7.294V20.782z M469.826,55.16h-46.582v82.019
		c24.152,0,21.566-0.017,46.582-0.017V55.16L469.826,55.16z M261.93,151.604l220.834,0.183v13.694H261.93v-13.691V151.604z
		 M321.452,55.16h-46.583v81.88h46.583V55.16z"/>
	<path fill="#5E955A" d="M281.209,45.869V25.964c-10.352,0.306-20.705,5.645-31.055,5.645c0-6.67,0-13.341,0-20.01
		c10.351,0,20.568-5.339,30.434-5.646c0-2.29-0.684-5.952,2.466-5.952c1.416,0,2.468,1.162,2.468,2.557v43.313H281.209z"/>
	<path fill="#5E955A" d="M365.446,33.613h12.94v20.686h-12.94V33.613L365.446,33.613z M341.293,33.613h12.076v20.686h-12.076V33.613
		L341.293,33.613z M390.463,33.613h12.076v20.686h-12.076V33.613L390.463,33.613z M365.446,64.641h12.94v27.582h-12.94V64.641
		L365.446,64.641z M365.446,102.566h12.94v24.994h-12.94V102.566L365.446,102.566z M341.293,64.641h12.076v27.582h-12.076V64.641
		L341.293,64.641z M341.293,102.566h12.076v24.994h-12.076V102.566L341.293,102.566z M390.463,64.641h12.076v27.582h-12.076V64.641
		L390.463,64.641z M390.463,102.566h12.076v24.994h-12.076V102.566L390.463,102.566z M431.869,64.641h10.352v27.582h-10.352V64.641
		L431.869,64.641z M449.983,64.641h10.354v27.582h-10.354V64.641L449.983,64.641z M282.633,64.641h10.353v27.582h-10.353V64.641
		L282.633,64.641z M302.474,64.641h10.352v27.582h-10.352V64.641L302.474,64.641z M282.633,102.566h10.353v24.994h-10.353V102.566
		L282.633,102.566z M302.474,102.566h10.352v24.994h-10.352V102.566L302.474,102.566z M431.869,102.566h10.352v24.994h-10.352
		V102.566L431.869,102.566z M449.983,102.566h10.354v24.994h-10.354V102.566z"/>
	<path fill="#5E955A" d="M481.902,208.334H261.93v-37.497h219.973V208.334z M288.713,178.336v22.661h14.532v-4.044h-9.266v-5.397
		h7.095v-3.888h-7.095v-5.288h9.266v-4.044H288.713z M304.514,200.998h4.896c0.31,0,0.568-0.086,0.774-0.257
		s0.371-0.366,0.496-0.584l4.214-7.341c0.103-0.166,0.196-0.362,0.279-0.591l4.524,7.932c0.124,0.229,0.291,0.426,0.503,0.591
		c0.211,0.166,0.488,0.25,0.828,0.25h5.236l-7.233-11.884l7.079-10.777h-5.02c-0.444,0-0.795,0.219-1.053,0.653l-3.934,6.78
		c-0.084,0.135-0.159,0.266-0.226,0.39c-0.067,0.124-0.127,0.254-0.179,0.389l-4.493-7.636c-0.123-0.208-0.265-0.355-0.426-0.444
		c-0.159-0.088-0.41-0.132-0.751-0.132h-5.236l6.987,11.011L304.514,200.998z M342.532,195.235
		c-0.145,0.067-0.279,0.152-0.402,0.257c-0.312,0.27-0.619,0.494-0.923,0.676c-0.305,0.182-0.625,0.33-0.96,0.443
		c-0.336,0.115-0.701,0.195-1.093,0.242c-0.394,0.045-0.828,0.068-1.301,0.068c-0.828,0-1.602-0.16-2.326-0.481
		c-0.722-0.321-1.354-0.79-1.896-1.408c-0.542-0.617-0.972-1.375-1.286-2.278c-0.316-0.901-0.473-1.934-0.473-3.096
		c0-1.108,0.156-2.108,0.473-3c0.314-0.893,0.753-1.651,1.316-2.279c0.563-0.627,1.237-1.109,2.022-1.446
		c0.783-0.337,1.652-0.505,2.603-0.505c0.547,0,1.025,0.041,1.432,0.125c0.409,0.082,0.764,0.183,1.069,0.302
		c0.305,0.119,0.568,0.249,0.79,0.39c0.222,0.14,0.427,0.27,0.612,0.389c0.187,0.119,0.362,0.221,0.528,0.303
		c0.164,0.084,0.339,0.125,0.526,0.125c0.279,0,0.496-0.06,0.651-0.179c0.154-0.119,0.289-0.251,0.403-0.396l1.764-2.381
		c-0.423-0.445-0.907-0.852-1.456-1.22c-0.547-0.368-1.146-0.684-1.796-0.949c-0.651-0.264-1.35-0.472-2.1-0.622
		c-0.748-0.149-1.547-0.225-2.394-0.225c-1.744,0-3.34,0.285-4.785,0.854c-1.448,0.57-2.688,1.368-3.727,2.396
		c-1.037,1.025-1.846,2.247-2.424,3.663c-0.578,1.415-0.867,2.967-0.867,4.656c0,1.659,0.252,3.198,0.758,4.612
		c0.506,1.415,1.232,2.64,2.177,3.671c0.944,1.031,2.096,1.841,3.455,2.427c1.357,0.585,2.894,0.878,4.608,0.878
		c1.87,0,3.488-0.304,4.857-0.91c1.368-0.606,2.507-1.507,3.416-2.698l-2.075-2.193c-0.114-0.114-0.234-0.195-0.356-0.242
		c-0.124-0.046-0.249-0.069-0.373-0.069C342.826,195.133,342.676,195.167,342.532,195.235z M367.877,178.336h-5.268v9.472h-9.172
		v-9.472h-5.266v22.661h5.266v-9.581h9.172v9.581h5.268V178.336z M383.863,178.336h-5.36l-8.738,22.661h4.091
		c0.436,0,0.802-0.117,1.101-0.351s0.501-0.495,0.604-0.786l1.333-3.95h8.582l1.332,3.95c0.115,0.332,0.318,0.604,0.612,0.817
		c0.295,0.212,0.669,0.319,1.122,0.319h4.061L383.863,178.336z M380.178,186.16c0.153-0.395,0.319-0.86,0.494-1.4
		c0.176-0.538,0.346-1.124,0.513-1.757c0.175,0.622,0.353,1.2,0.534,1.733c0.18,0.534,0.338,0.998,0.473,1.392l2.075,6.206h-6.165
		L380.178,186.16z M397.185,178.336h-2.756v22.661h4.617V188.85c0-0.331-0.011-0.687-0.031-1.065
		c-0.021-0.378-0.048-0.765-0.077-1.158l10.643,13.5c0.258,0.331,0.526,0.559,0.805,0.685c0.278,0.123,0.62,0.187,1.023,0.187h2.728
		v-22.661h-4.619v11.991c0,0.363,0.011,0.749,0.033,1.158c0.02,0.409,0.051,0.833,0.092,1.268l-10.72-13.608
		c-0.146-0.177-0.273-0.316-0.388-0.42c-0.115-0.103-0.232-0.184-0.356-0.24c-0.125-0.058-0.263-0.097-0.419-0.117
		C397.604,178.347,397.412,178.336,397.185,178.336z M425.854,196.697c-0.8-0.338-1.493-0.827-2.075-1.47
		c-0.584-0.644-1.04-1.431-1.372-2.364c-0.329-0.934-0.495-2-0.495-3.205c0-1.088,0.15-2.076,0.449-2.961
		c0.299-0.888,0.725-1.647,1.278-2.279c0.553-0.632,1.222-1.122,2.007-1.47c0.783-0.348,1.667-0.521,2.648-0.521
		c0.526,0,1.001,0.025,1.424,0.077c0.425,0.052,0.828,0.135,1.21,0.249c0.381,0.114,0.755,0.262,1.122,0.443s0.756,0.396,1.17,0.646
		c0.331,0.207,0.651,0.311,0.962,0.311c0.236,0,0.455-0.063,0.656-0.187c0.203-0.124,0.377-0.295,0.521-0.513l1.518-2.318
		c-0.454-0.435-0.97-0.839-1.548-1.212c-0.58-0.374-1.217-0.694-1.915-0.965c-0.696-0.27-1.457-0.482-2.284-0.638
		s-1.709-0.232-2.649-0.232c-1.817,0-3.464,0.285-4.934,0.854c-1.473,0.57-2.727,1.368-3.766,2.396
		c-1.037,1.025-1.835,2.247-2.394,3.663c-0.557,1.415-0.836,2.967-0.836,4.656c0,1.659,0.291,3.198,0.875,4.612
		c0.585,1.415,1.391,2.64,2.417,3.671s2.244,1.841,3.649,2.427c1.404,0.585,2.932,0.878,4.584,0.878c0.919,0,1.78-0.047,2.581-0.141
		c0.8-0.094,1.555-0.239,2.261-0.435c0.706-0.197,1.375-0.448,1.999-0.754c0.624-0.307,1.226-0.671,1.806-1.097v-9.564h-8.026v2.892
		c0,0.271,0.093,0.493,0.279,0.669c0.187,0.177,0.444,0.265,0.775,0.265h2.23v3.438c-0.497,0.208-1.023,0.373-1.58,0.496
		c-0.559,0.126-1.198,0.188-1.922,0.188C427.531,197.202,426.655,197.033,425.854,196.697z M439.913,178.336v22.661h14.532v-4.044
		h-9.267v-5.397h7.096v-3.888h-7.096v-5.288h9.267v-4.044H439.913z"/>
</g>
<g>
	<path fill="#333333" d="M192.972,187.375c-18.293,0-33.741,12.171-38.695,28.856c2.315-0.395,4.692-0.604,7.118-0.604
		c23.303,0,42.261,18.959,42.261,42.262c0,3.099-0.338,6.12-0.975,9.03c17.601-4.347,30.653-20.239,30.653-39.183
		C233.334,205.445,215.263,187.375,192.972,187.375z"/>
	<path fill="#333333" d="M161.395,217.527c-22.291,0-40.362,18.071-40.362,40.362s18.071,40.361,40.362,40.361
		c22.292,0,40.362-18.07,40.362-40.361S183.686,217.527,161.395,217.527z M161.395,290.653c-18.066,0-32.764-14.697-32.764-32.764
		s14.698-32.765,32.764-32.765c18.066,0,32.764,14.698,32.764,32.765S179.461,290.653,161.395,290.653z"/>
	<path fill="#60965A" d="M161.395,228.683c-16.104,0-29.206,13.103-29.206,29.207c0,16.104,13.102,29.205,29.206,29.205
		S190.6,273.993,190.6,257.89C190.6,241.785,177.499,228.683,161.395,228.683z"/>
	
		<path id="path4934" fill="#FFFFFF" d="
		M164.017,236.313c-0.559,0-1.123,0.012-1.701,0.028h-5.911h-6.629v32.893h-1.155v4.902h1.155v7.229h5.911v-7.229h0.719v7.229h5.911
		v-7.229h0.982v-4.902h-0.982v-5.319l2.574,0.009c5.15,0,9.659,0.381,13.559-4.701c1.516-2.239,2.447-4.86,2.702-7.522
		c0.512-5.374-1.723-10.897-7.394-13.677C171.337,236.788,167.93,236.325,164.017,236.313L164.017,236.313z M155.687,241.188h0.719
		v16.432v4.865v6.748h-0.719v-6.748v-4.865V241.188z M162.316,241.188c11.687,0.418,16.194,7.213,13.932,13.276
		c-0.641,1.688-1.322,2.612-2.755,3.574c0.058-0.242,0.119-0.487,0.164-0.736c0.847-4.731-0.758-10.424-8.612-13.569
		c6.249,3.604,8.77,10.012,5.856,14.151c-4.96,0.755-8.585-3.349-8.585-8.076V241.188z"/>
</g>
<g>
	<path fill="#333333" d="M54.371,121.606c13.334,0.065,24.143-10.744,24.143-24.142c0-13.335-10.809-24.145-24.143-24.145
		c-13.333,0-24.143,10.81-24.143,24.145C30.228,110.797,41.038,121.606,54.371,121.606z"/>
	<g>
		<path fill="#333333" d="M78.579,127.045H54.371H30.163C11.91,127.045,0,143.098,0,158.373v73.529c0,14.242,20.066,14.242,20.066,0
			v-67.964h3.883v184.86c0,19.678,27.186,19.031,27.833,0V242.26h4.531h0.647v106.605c1.1,20.193,27.833,18.252,27.833-0.066
			v-184.86h3.236v67.964c0,14.242,20.712,14.242,20.712,0v-73.529C108.741,143.162,96.767,127.045,78.579,127.045z"/>
	</g>
</g>
<g>
	<path fill="#333333" d="M679.276,121.606c13.334,0.065,24.143-10.744,24.143-24.142c0-13.335-10.809-24.145-24.143-24.145
		c-13.332,0-24.143,10.81-24.143,24.145C655.134,110.796,665.944,121.606,679.276,121.606z"/>
	<g>
		<path fill="#333333" d="M703.485,127.044h-24.209h-24.207c-18.254,0-30.164,16.053-30.164,31.328v73.529
			c0,14.242,20.066,14.242,20.066,0v-67.963h3.883v184.86c0,19.678,27.186,19.031,27.832,0V242.259h4.531h0.648v106.605
			c1.1,20.193,27.832,18.252,27.832-0.066v-184.86h3.236v67.963c0,14.242,20.713,14.242,20.713,0v-73.529
			C733.647,143.162,721.673,127.044,703.485,127.044z"/>
	</g>
</g>
</svg>
