<?xml version="1.0" encoding="utf-8"?>
<!-- Generator: Adobe Illustrator 16.0.0, SVG Export Plug-In . SVG Version: 6.00 Build 0)  -->
<!DOCTYPE svg PUBLIC "-//W3C//DTD SVG 1.1 Tiny//EN" "http://www.w3.org/Graphics/SVG/1.1/DTD/svg11-tiny.dtd">
<svg version="1.1" baseProfile="tiny" id="Layer_1" xmlns="http://www.w3.org/2000/svg" xmlns:xlink="http://www.w3.org/1999/xlink"
	 x="0px" y="0px" viewBox="-100 0 629.091 208.334" xml:space="preserve">
<g>
	<path fill="#323232" d="M368.94,22.168l0.203,19.201h59.948V55.16h-4.761l0.019,81.88h4.742v9.569l-220.834,0.016v-9.585h3.888
		l-0.018-81.88h-3.87V41.371h59.082l0.226-19.205l-11.863,2.277V10.678L315.644,0h5.172l59.97,10.678v13.766L368.94,22.168
		L368.94,22.168z M275.543,20.781V137.04h85.401V20.781l-42.7-7.482l-42.701,7.294V20.781z M416.154,55.16h-46.582v82.019
		c24.152,0,21.566-0.017,46.582-0.017V55.16L416.154,55.16z M208.257,151.604l220.834,0.184v13.694H208.257v-13.69V151.604z
		 M267.779,55.16h-46.583v81.88h46.583V55.16z"/>
	<path fill="#323232" d="M227.537,45.869V25.964c-10.352,0.306-20.705,5.646-31.055,5.646c0-6.671,0-13.342,0-20.011
		c10.351,0,20.568-5.339,30.434-5.646c0-2.29-0.684-5.952,2.466-5.952c1.416,0,2.468,1.162,2.468,2.557v43.313H227.537z"/>
	<path fill="#323232" d="M311.774,33.613h12.94v20.686h-12.94V33.613L311.774,33.613z M287.621,33.613h12.076v20.686h-12.076V33.613
		L287.621,33.613z M336.791,33.613h12.076v20.686h-12.076V33.613L336.791,33.613z M311.774,64.641h12.94v27.582h-12.94V64.641
		L311.774,64.641z M311.774,102.566h12.94v24.993h-12.94V102.566L311.774,102.566z M287.621,64.641h12.076v27.582h-12.076V64.641
		L287.621,64.641z M287.621,102.566h12.076v24.993h-12.076V102.566L287.621,102.566z M336.791,64.641h12.076v27.582h-12.076V64.641
		L336.791,64.641z M336.791,102.566h12.076v24.993h-12.076V102.566L336.791,102.566z M378.197,64.641h10.352v27.582h-10.352V64.641
		L378.197,64.641z M396.311,64.641h10.354v27.582h-10.354V64.641L396.311,64.641z M228.96,64.641h10.353v27.582H228.96V64.641
		L228.96,64.641z M248.801,64.641h10.352v27.582h-10.352V64.641L248.801,64.641z M228.96,102.566h10.353v24.993H228.96V102.566
		L228.96,102.566z M248.801,102.566h10.352v24.993h-10.352V102.566L248.801,102.566z M378.197,102.566h10.352v24.993h-10.352
		V102.566L378.197,102.566z M396.311,102.566h10.354v24.993h-10.354V102.566z"/>
	<path fill="#323232" d="M428.23,208.334H208.257v-37.496H428.23V208.334z M235.041,178.336v22.662h14.532v-4.045h-9.266v-5.396
		h7.095v-3.889h-7.095v-5.287h9.266v-4.045H235.041z M250.842,200.998h4.896c0.31,0,0.568-0.086,0.774-0.258
		c0.207-0.17,0.371-0.365,0.496-0.584l4.214-7.34c0.103-0.166,0.196-0.363,0.279-0.592l4.524,7.932
		c0.124,0.229,0.291,0.426,0.503,0.592c0.211,0.166,0.488,0.25,0.828,0.25h5.236l-7.233-11.885l7.079-10.777h-5.02
		c-0.444,0-0.795,0.219-1.053,0.654l-3.934,6.779c-0.084,0.135-0.159,0.266-0.226,0.391c-0.067,0.123-0.127,0.254-0.179,0.389
		l-4.493-7.637c-0.123-0.207-0.265-0.355-0.426-0.443c-0.159-0.088-0.41-0.133-0.751-0.133h-5.236l6.987,11.012L250.842,200.998z
		 M288.859,195.234c-0.145,0.068-0.279,0.152-0.402,0.258c-0.312,0.27-0.619,0.494-0.923,0.676c-0.305,0.182-0.625,0.33-0.96,0.443
		c-0.336,0.115-0.701,0.195-1.093,0.242c-0.394,0.045-0.828,0.068-1.301,0.068c-0.828,0-1.602-0.16-2.326-0.482
		c-0.722-0.32-1.354-0.789-1.896-1.408c-0.542-0.617-0.972-1.375-1.286-2.277c-0.316-0.902-0.473-1.934-0.473-3.096
		c0-1.109,0.156-2.109,0.473-3c0.314-0.893,0.753-1.652,1.316-2.279s1.237-1.109,2.022-1.447c0.783-0.336,1.652-0.504,2.603-0.504
		c0.547,0,1.025,0.041,1.432,0.125c0.409,0.082,0.764,0.182,1.069,0.301c0.305,0.119,0.568,0.25,0.79,0.391
		c0.222,0.139,0.427,0.27,0.612,0.389c0.187,0.119,0.362,0.221,0.528,0.303c0.164,0.084,0.339,0.125,0.526,0.125
		c0.279,0,0.496-0.061,0.651-0.18c0.154-0.119,0.289-0.25,0.403-0.396l1.764-2.381c-0.423-0.445-0.907-0.852-1.456-1.219
		c-0.547-0.369-1.146-0.684-1.796-0.949c-0.651-0.264-1.35-0.473-2.1-0.623c-0.748-0.148-1.547-0.225-2.394-0.225
		c-1.744,0-3.34,0.285-4.785,0.855c-1.448,0.57-2.688,1.367-3.727,2.395c-1.037,1.025-1.846,2.248-2.424,3.664
		c-0.578,1.414-0.867,2.967-0.867,4.656c0,1.658,0.252,3.197,0.758,4.611c0.506,1.416,1.232,2.641,2.177,3.672
		c0.944,1.031,2.096,1.84,3.455,2.426c1.357,0.586,2.894,0.879,4.608,0.879c1.87,0,3.488-0.305,4.857-0.91
		c1.368-0.605,2.507-1.506,3.416-2.697l-2.075-2.193c-0.114-0.115-0.234-0.195-0.356-0.242c-0.124-0.047-0.249-0.07-0.373-0.07
		C289.154,195.133,289.004,195.166,288.859,195.234z M314.205,178.336h-5.268v9.473h-9.172v-9.473h-5.266v22.662h5.266v-9.582h9.172
		v9.582h5.268V178.336z M330.191,178.336h-5.36l-8.738,22.662h4.091c0.436,0,0.802-0.117,1.101-0.352
		c0.299-0.232,0.501-0.494,0.604-0.785l1.333-3.951h8.582l1.332,3.951c0.115,0.332,0.318,0.604,0.612,0.816
		c0.295,0.213,0.669,0.32,1.122,0.32h4.061L330.191,178.336z M326.505,186.16c0.153-0.395,0.319-0.861,0.494-1.4
		c0.176-0.539,0.346-1.125,0.513-1.758c0.175,0.623,0.353,1.201,0.534,1.734c0.18,0.533,0.338,0.998,0.473,1.391l2.075,6.207h-6.165
		L326.505,186.16z M343.512,178.336h-2.756v22.662h4.617V188.85c0-0.33-0.011-0.686-0.031-1.064
		c-0.021-0.379-0.048-0.766-0.077-1.158l10.643,13.5c0.258,0.33,0.526,0.559,0.805,0.684c0.278,0.123,0.62,0.188,1.023,0.188h2.728
		v-22.662h-4.619v11.992c0,0.363,0.011,0.748,0.033,1.158c0.02,0.408,0.051,0.832,0.092,1.268l-10.72-13.609
		c-0.146-0.176-0.273-0.316-0.388-0.42c-0.115-0.102-0.232-0.184-0.356-0.24c-0.125-0.057-0.263-0.096-0.419-0.117
		C343.932,178.348,343.74,178.336,343.512,178.336z M372.182,196.697c-0.8-0.338-1.493-0.828-2.075-1.471
		c-0.584-0.643-1.04-1.43-1.372-2.363c-0.329-0.934-0.495-2-0.495-3.205c0-1.088,0.15-2.076,0.449-2.961
		c0.299-0.889,0.725-1.648,1.278-2.279c0.553-0.633,1.222-1.123,2.007-1.471c0.783-0.348,1.667-0.52,2.648-0.52
		c0.526,0,1.001,0.025,1.424,0.076c0.425,0.053,0.828,0.135,1.21,0.25c0.381,0.113,0.755,0.262,1.122,0.443s0.756,0.396,1.17,0.645
		c0.331,0.207,0.651,0.311,0.962,0.311c0.236,0,0.455-0.063,0.656-0.186c0.203-0.125,0.377-0.295,0.521-0.514l1.518-2.318
		c-0.454-0.434-0.97-0.838-1.548-1.211c-0.58-0.375-1.217-0.695-1.915-0.965c-0.696-0.27-1.457-0.482-2.284-0.639
		c-0.827-0.154-1.709-0.232-2.649-0.232c-1.817,0-3.464,0.285-4.934,0.855c-1.473,0.57-2.727,1.367-3.766,2.395
		c-1.037,1.025-1.835,2.248-2.394,3.664c-0.557,1.414-0.836,2.967-0.836,4.656c0,1.658,0.291,3.197,0.875,4.611
		c0.585,1.416,1.391,2.641,2.417,3.672s2.244,1.84,3.649,2.426c1.404,0.586,2.932,0.879,4.584,0.879c0.919,0,1.78-0.047,2.581-0.141
		c0.8-0.094,1.555-0.238,2.261-0.436s1.375-0.447,1.999-0.754s1.226-0.67,1.806-1.096v-9.564h-8.026v2.891
		c0,0.271,0.093,0.494,0.279,0.67s0.444,0.264,0.775,0.264h2.23v3.438c-0.497,0.209-1.023,0.373-1.58,0.496
		c-0.559,0.127-1.198,0.188-1.922,0.188C373.859,197.201,372.983,197.033,372.182,196.697z M386.241,178.336v22.662h14.532v-4.045
		h-9.267v-5.396h7.096v-3.889h-7.096v-5.287h9.267v-4.045H386.241z"/>
</g>
<path fill="#323232" d="M100.394,171.687H60.236c-1.386,0-2.51,1.123-2.51,2.51v12.536c0,1.386,1.124,2.51,2.51,2.51h40.158
	c1.386,0,2.51-1.124,2.51-2.51v-12.536C102.903,172.81,101.779,171.687,100.394,171.687z M79.062,184.223H62.746v-7.517h16.316
	V184.223z M85.335,184.223h-2.508v-7.517h2.508V184.223z M97.884,184.223h-5.019v-7.517h5.019V184.223z"/>
<path fill="#323232" d="M100.394,159.147H60.236c-1.386,0-2.51,1.125-2.51,2.511v12.536c0,1.387,1.124,2.51,2.51,2.51h40.158
	c1.386,0,2.51-1.123,2.51-2.51v-12.536C102.903,160.272,101.779,159.147,100.394,159.147z M79.062,171.685H62.746v-7.516h16.316
	V171.685z M85.335,171.687h-2.508v-7.518h2.508V171.687z M97.884,171.687h-5.019v-7.518h5.019V171.687z"/>
<path fill="#323232" d="M96.627,146.61H56.47c-1.386,0-2.51,1.125-2.51,2.511v12.537c0,1.387,1.124,2.511,2.51,2.511h40.157
	c1.386,0,2.51-1.124,2.51-2.511v-12.537C99.137,147.735,98.014,146.61,96.627,146.61z M75.296,159.147H58.98v-7.517h16.316V159.147z
	 M81.57,159.147h-2.509v-7.517h2.509V159.147z M94.118,159.147h-5.019v-7.517h5.019V159.147z"/>
<path fill="#323232" d="M47.686,171.687H7.528c-1.386,0-2.51,1.123-2.51,2.51v12.536c0,1.386,1.124,2.51,2.51,2.51h40.157
	c1.386,0,2.51-1.124,2.51-2.51v-12.536C50.195,172.81,49.072,171.687,47.686,171.687z M26.354,184.223H10.038v-7.517h16.316V184.223
	z M32.628,184.223h-2.509v-7.517h2.509V184.223z M45.175,184.223h-5.018v-7.517h5.018V184.223z"/>
<path fill="#5E955A" d="M41.01,28.613c-19.98,0-31.607,15.396-31.607,33.575c0,19.49,13.266,32.266,30.625,32.266
	c16.213,0,31.28-11.957,31.28-34.231C71.308,42.862,60.663,28.613,41.01,28.613L41.01,28.613z M40.355,44.337
	c6.878,0,9.334,7.371,9.334,17.196c0,11.302-3.111,17.198-9.007,17.198c-6.551,0-9.663-7.043-9.663-17.198
	C31.02,51.87,33.641,44.337,40.355,44.337L40.355,44.337z M57.551,138.676L117.982,28.94h-15.066L42.32,138.676H57.551
	L57.551,138.676z M120.93,72.835c-19.98,0-31.608,15.396-31.608,33.411c0,9.601,3.221,17.569,8.56,23.187v-5.426
	c0-4.85,3.937-8.785,8.784-8.785h5.48c-0.81-2.627-1.207-5.838-1.207-9.467c0-9.662,2.62-17.197,9.335-17.197
	c6.878,0,9.334,7.207,9.334,17.197c0,3.763-0.355,6.926-1.053,9.467h18.267c1.026,0,2.012,0.177,2.928,0.501
	c0.954-3.399,1.477-7.162,1.477-11.277C151.228,87.085,140.583,72.835,120.93,72.835L120.93,72.835z"/>
<path fill="#323232" d="M42.667,159.147H2.51c-1.385,0-2.51,1.125-2.51,2.511v12.536c0,1.387,1.124,2.51,2.51,2.51h40.157
	c1.386,0,2.51-1.123,2.51-2.51v-12.536C45.177,160.272,44.053,159.147,42.667,159.147z M21.336,171.685H5.02v-7.516h16.316V171.685z
	 M27.61,171.687h-2.509v-7.518h2.509V171.687z M40.157,171.687H35.14v-7.518h5.018V171.687z"/>
<path fill="#323232" d="M146.824,121.497h-40.158c-1.386,0-2.51,1.123-2.51,2.51v12.535c0,1.388,1.124,2.512,2.51,2.512h40.158
	c1.386,0,2.51-1.124,2.51-2.512v-12.535C149.334,122.62,148.21,121.497,146.824,121.497z M125.493,134.034h-16.316v-7.518h16.316
	V134.034z M131.766,134.034h-2.508v-7.518h2.508V134.034z M144.314,134.034h-5.019v-7.518h5.019V134.034z"/>
<path fill="#323232" d="M153.092,134.034h-40.157c-1.386,0-2.51,1.123-2.51,2.51v12.537c0,1.385,1.124,2.51,2.51,2.51h40.157
	c1.386,0,2.51-1.125,2.51-2.51v-12.537C155.602,135.157,154.478,134.034,153.092,134.034z M131.76,146.571h-16.315v-7.517h16.315
	V146.571z M138.035,146.571h-2.51v-7.517h2.51V146.571z M150.581,146.571h-5.017v-7.517h5.017V146.571z"/>
<path fill="#323232" d="M153.092,146.61h-40.157c-1.386,0-2.51,1.125-2.51,2.511v12.537c0,1.387,1.124,2.511,2.51,2.511h40.157
	c1.386,0,2.51-1.124,2.51-2.511v-12.537C155.602,147.735,154.478,146.61,153.092,146.61z M131.76,159.147h-16.315v-7.517h16.315
	V159.147z M138.035,159.147h-2.51v-7.517h2.51V159.147z M150.581,159.147h-5.017v-7.517h5.017V159.147z"/>
<path fill="#323232" d="M158.119,159.147h-40.157c-1.386,0-2.51,1.125-2.51,2.511v12.536c0,1.387,1.124,2.51,2.51,2.51h40.157
	c1.387,0,2.51-1.123,2.51-2.51v-12.536C160.629,160.272,159.506,159.147,158.119,159.147z M136.789,171.685h-16.316v-7.516h16.316
	V171.685z M143.062,171.687h-2.508v-7.518h2.508V171.687z M155.609,171.687h-5.019v-7.518h5.019V171.687z"/>
<path fill="#323232" d="M153.092,171.687h-40.157c-1.386,0-2.51,1.123-2.51,2.51v12.536c0,1.386,1.124,2.51,2.51,2.51h40.157
	c1.386,0,2.51-1.124,2.51-2.51v-12.536C155.602,172.81,154.478,171.687,153.092,171.687z M131.76,184.223h-16.315v-7.517h16.315
	V184.223z M138.035,184.223h-2.51v-7.517h2.51V184.223z M150.581,184.223h-5.017v-7.517h5.017V184.223z"/>
<g>
</g>
<g>
</g>
<g>
</g>
<g>
</g>
<g>
</g>
<g>
</g>
</svg>
