<?xml version="1.0" encoding="UTF-8" standalone="no"?>
<!-- Generator: Adobe Illustrator 16.0.0, SVG Export Plug-In . SVG Version: 6.00 Build 0)  -->

<svg
   xmlns:dc="http://purl.org/dc/elements/1.1/"
   xmlns:cc="http://creativecommons.org/ns#"
   xmlns:rdf="http://www.w3.org/1999/02/22-rdf-syntax-ns#"
   xmlns:svg="http://www.w3.org/2000/svg"
   xmlns="http://www.w3.org/2000/svg"
   xmlns:sodipodi="http://sodipodi.sourceforge.net/DTD/sodipodi-0.dtd"
   xmlns:inkscape="http://www.inkscape.org/namespaces/inkscape"
   version="1.1"
   id="Layer_1"
   x="0px"
   y="0px"
   viewBox="0 0 549 490"
   xml:space="preserve"
   inkscape:version="0.48.5 r10040"
   width="100%"
   height="100%"
   sodipodi:docname="download.svg"><metadata
     id="metadata71"><rdf:RDF><cc:Work
         rdf:about=""><dc:format>image/svg+xml</dc:format><dc:type
           rdf:resource="http://purl.org/dc/dcmitype/StillImage" /></cc:Work></rdf:RDF></metadata><defs
     id="defs69"><clipPath
       id="_clip1"><rect
         id="icon-only"
         x="0"
         y="0"
         width="1024"
         height="1024" /></clipPath></defs><sodipodi:namedview
     pagecolor="#ffffff"
     bordercolor="#666666"
     borderopacity="1"
     objecttolerance="10"
     gridtolerance="10"
     guidetolerance="10"
     inkscape:pageopacity="0"
     inkscape:pageshadow="2"
     inkscape:window-width="1680"
     inkscape:window-height="1035"
     id="namedview67"
     showgrid="false"
     inkscape:zoom="0.96326531"
     inkscape:cx="100.1617"
     inkscape:cy="235.26189"
     inkscape:window-x="-5"
     inkscape:window-y="-12"
     inkscape:window-maximized="1"
     inkscape:current-layer="Layer_1" /><path
     fill-rule="evenodd"
     fill="#FFFFFF"
     d="M21,146c-1.552,0.395-3.083,0.992-4.658,1.149c-7.971,0.796-11.128,3.43-13.322,11.247  C2.856,158.98,2.348,159.468,2,160c0-4.666,0-9.334,0-14C8.333,146,14.667,146,21,146z"
     id="path3" /><path
     fill-rule="evenodd"
     fill="#FFFFFF"
     d="M549,158c-2.751-7.655-8.237-11.249-16.322-11.087  c-0.553,0.011-1.118-0.595-1.678-0.913c6,0,12,0,18,0C549,150,549,154,549,158z"
     id="path5" /><path
     fill-rule="evenodd"
     fill="#FFFFFF"
     d="M2,478c2.091,5.908,6.063,9.938,12,12c-4,0-8,0-12,0C2,486,2,482,2,478z"
     id="path7" /><path
     fill-rule="evenodd"
     fill="#FFFFFF"
     d="M537,490c5.938-2.063,9.908-6.092,12-12c0,4,0,8,0,12C545,490,541,490,537,490z"
     id="path9" /><path
     fill-rule="evenodd"
     fill="#FFFFFF"
     d="M2,161c0.351,0.906,1.002,1.813,1.006,2.721c0.049,10.658,0.03,21.317-0.064,31.976  C2.933,196.801,2.329,197.898,2,199C2,186.334,2,173.666,2,161z"
     id="path11" /><path
     d="M 1.098,241.85 C 1.192,232.865 1.134,223.879 1.084,214.894 1.08,214.128 1,213.363 0,212.6 c 0,-0.281 0,-0.562 0,-0.843 1,-0.448 1.012,-0.859 1.175,-1.353 2.194,-6.59 5.429,-8.787 13.4,-9.458 1.575,-0.133 3.185,-0.946 4.737,-0.946 170,0 340,0 510,0 0.56,0 1.125,0.756 1.678,0.747 7.798,-0.132 13.17,2.669 16.011,8.658 V 161 c 0,-8.284 -6.716,-15 -15,-15 H 15 c -8.284,0 -15,6.716 -15,15 v 314 c 0,1.045 0,2.064 0,3.05 0,-77.805 0,-155.61 0,-233.415 1,-0.93 1.088,-1.855 1.098,-2.785 z"
     id="path17"
     inkscape:connector-curvature="0"
     style="fill:#3cb054;fill-opacity:1" /><path
     d="m 15,490 h 517 c 0.34,0 0.672,0 1.006,0 H 13.995 c 0.333,0 0.666,0 1.005,0 z"
     id="path19"
     inkscape:connector-curvature="0"
     style="fill:#34994b" /><path
     d="m 9.87,489.081 c -1.728,-0.714 -3.248,-1.603 -4.574,-2.654 1.342,1.14 2.888,2.039 4.574,2.654 z"
     id="path21"
     inkscape:connector-curvature="0"
     style="fill:#34994b" /><path
     d="M 547,209.405 V 475 c 0,7.944 -6.182,14 -13.994,15 h 2.306 c 5.938,-2 9.688,-5.187 11.688,-10.167 0,-89.92 0,-179.842 0,-269.763 0,-0.228 0.104,-0.444 0,-0.665 z"
     id="path23"
     inkscape:connector-curvature="0"
     style="fill:#333333" /><path
     d="m 12.312,490 h 1.683 c -1.441,0 -2.823,-0.395 -4.125,-0.868 0.777,0.32 1.583,0.868 2.442,0.868 z"
     id="path25"
     inkscape:connector-curvature="0"
     style="fill:#333333" /><path
     d="m 0,478.05 c 0,0.594 0,1.188 0,1.783 1,2.657 2.785,4.85 4.984,6.594 C 2.486,484.303 1,481.381 0,478.05 z"
     id="path27"
     inkscape:connector-curvature="0"
     style="fill:#333333" /><path
     d="M 547,475 V 209.405 c -2.841,-5.989 -8.213,-8.79 -16.011,-8.658 -0.553,0.009 -1.118,-0.747 -1.678,-0.747 -170,0 -340,0 -510,0 -1.552,0 -3.083,0.813 -4.658,0.946 -7.971,0.671 -11.284,2.88 -13.478,9.47 C 1.012,210.908 1,211.309 0,211.757 c 0,0.281 0,0.562 0,0.843 1,0.764 1.158,1.528 1.162,2.294 0.049,8.985 -0.048,17.971 -0.142,26.956 -0.009,0.93 -0.02,1.855 -1.02,2.785 0,77.805 0,155.61 0,233.415 1,3.331 2.642,6.253 5.14,8.377 1.326,1.052 2.924,1.966 4.652,2.68 1.302,0.474 2.762,0.894 4.203,0.894 H 533.006 C 540.818,489 547,482.944 547,475 z M 273.568,450.341 c -58.053,0 -105.113,-47.062 -105.113,-105.113 0,-58.053 47.061,-105.113 105.113,-105.113 58.052,0 105.113,47.061 105.113,105.113 0.001,58.051 -47.06,105.113 -105.113,105.113 z"
     id="path29"
     inkscape:connector-curvature="0"
     style="fill:#333333" /><circle
     cx="273.56799"
     cy="345.228"
     r="105.113"
     id="circle31"
     sodipodi:cx="273.56799"
     sodipodi:cy="345.228"
     sodipodi:rx="105.113"
     sodipodi:ry="105.113"
     style="fill:#3cb054;fill-opacity:1" /><polygon
     fill="#333333"
     points="306,91 306,0 274,0 242,0 242,91 202,91 274,165 346.5,91 "
     id="polygon35" /><g
     id="g37" /><g
     id="g39" /><g
     id="g41" /><g
     id="g43" /><g
     id="g45" /><g
     id="g47" /><g
     id="g49" /><g
     id="g51" /><g
     id="g53" /><g
     id="g55" /><g
     id="g57" /><g
     id="g59" /><g
     id="g61" /><g
     id="g63" /><g
     id="g65" /><g
     style="fill-rule:evenodd;stroke-linejoin:round;stroke-miterlimit:1.41420996"
     transform="matrix(1.4027392,0,0,1.4027392,-245.03713,-321.52761)"
     id="g14"><path
       d="m 331.819,431.279 c 61.093,2.189 84.652,37.71 72.825,69.411 -3.351,8.821 -6.911,13.649 -14.399,18.679 0.305,-1.271 0.619,-2.549 0.856,-3.85 4.43,-24.732 -3.964,-54.49 -45.02,-70.929 32.665,18.834 45.847,52.341 30.614,73.971 -25.927,3.948 -44.876,-17.502 -44.876,-42.215 l 0,-45.067 z"
       style="fill:#ffffff"
       id="path16"
       inkscape:connector-curvature="0" /></g></svg>