<?xml version="1.0" encoding="utf-8"?>
<!-- Generator: Adobe Illustrator 16.0.0, SVG Export Plug-In . SVG Version: 6.00 Build 0)  -->
<!DOCTYPE svg PUBLIC "-//W3C//DTD SVG 1.1 Tiny//EN" "http://www.w3.org/Graphics/SVG/1.1/DTD/svg11-tiny.dtd">
<svg version="1.1" baseProfile="tiny" id="Layer_1" xmlns="http://www.w3.org/2000/svg" xmlns:xlink="http://www.w3.org/1999/xlink"
	 x="0px" y="0px" viewBox="0 0 549 490" xml:space="preserve">
<path fill-rule="evenodd" fill="#FFFFFF" d="M21,146c-1.552,0.395-3.083,0.992-4.658,1.149c-7.971,0.796-11.128,3.43-13.322,11.247
	C2.856,158.98,2.348,159.468,2,160c0-4.666,0-9.334,0-14C8.333,146,14.667,146,21,146z"/>
<path fill-rule="evenodd" fill="#FFFFFF" d="M549,158c-2.751-7.655-8.237-11.249-16.322-11.087
	c-0.553,0.011-1.118-0.595-1.678-0.913c6,0,12,0,18,0C549,150,549,154,549,158z"/>
<path fill-rule="evenodd" fill="#FFFFFF" d="M2,478c2.091,5.908,6.063,9.938,12,12c-4,0-8,0-12,0C2,486,2,482,2,478z"/>
<path fill-rule="evenodd" fill="#FFFFFF" d="M537,490c5.938-2.063,9.908-6.092,12-12c0,4,0,8,0,12C545,490,541,490,537,490z"/>
<path fill-rule="evenodd" fill="#FFFFFF" d="M2,161c0.351,0.906,1.002,1.813,1.006,2.721c0.049,10.658,0.03,21.317-0.064,31.976
	C2.933,196.801,2.329,197.898,2,199C2,186.334,2,173.666,2,161z"/>
<g>
	<g>
		<path fill="#34994B" d="M1.098,241.85c0.094-8.985,0.036-17.971-0.014-26.956C1.08,214.128,1,213.363,0,212.6
			c0-0.281,0-0.562,0-0.843c1-0.448,1.012-0.859,1.175-1.353c2.194-6.59,5.429-8.787,13.4-9.458C16.15,200.813,17.76,200,19.312,200
			c170,0,340,0,510,0c0.56,0,1.125,0.756,1.678,0.747c7.798-0.132,13.17,2.669,16.011,8.658V161c0-8.284-6.716-15-15-15H15
			c-8.284,0-15,6.716-15,15v314c0,1.045,0,2.064,0,3.05c0-77.805,0-155.61,0-233.415C1,243.705,1.088,242.78,1.098,241.85z"/>
		<path fill="#34994B" d="M15,490h517c0.34,0,0.672,0,1.006,0H13.995C14.328,490,14.661,490,15,490z"/>
		<path fill="#34994B" d="M9.87,489.081c-1.728-0.714-3.248-1.603-4.574-2.654C6.638,487.567,8.184,488.466,9.87,489.081z"/>
		<path fill="#333333" d="M547,209.405V475c0,7.944-6.182,14-13.994,15h2.306c5.938-2,9.688-5.187,11.688-10.167
			c0-89.92,0-179.842,0-269.763C547,209.842,547.104,209.626,547,209.405z"/>
		<path fill="#333333" d="M12.312,490h1.683c-1.441,0-2.823-0.395-4.125-0.868C10.647,489.452,11.453,490,12.312,490z"/>
		<path fill="#333333" d="M0,478.05c0,0.594,0,1.188,0,1.783c1,2.657,2.785,4.85,4.984,6.594C2.486,484.303,1,481.381,0,478.05z"/>
		<path fill="#333333" d="M547,475V209.405c-2.841-5.989-8.213-8.79-16.011-8.658c-0.553,0.009-1.118-0.747-1.678-0.747
			c-170,0-340,0-510,0c-1.552,0-3.083,0.813-4.658,0.946c-7.971,0.671-11.284,2.88-13.478,9.47C1.012,210.908,1,211.309,0,211.757
			c0,0.281,0,0.562,0,0.843c1,0.764,1.158,1.528,1.162,2.294c0.049,8.985-0.048,17.971-0.142,26.956
			C1.011,242.78,1,243.705,0,244.635c0,77.805,0,155.61,0,233.415c1,3.331,2.642,6.253,5.14,8.377
			c1.326,1.052,2.924,1.966,4.652,2.68c1.302,0.474,2.762,0.894,4.203,0.894h519.011C540.818,489,547,482.944,547,475z
			 M273.568,450.341c-58.053,0-105.113-47.062-105.113-105.113c0-58.053,47.061-105.113,105.113-105.113
			s105.113,47.061,105.113,105.113C378.682,403.279,331.621,450.341,273.568,450.341z"/>
		<circle fill="#34994B" cx="273.568" cy="345.228" r="105.113"/>
	</g>
	<path fill-rule="evenodd" fill="#FFFFFF" d="M275.207,420.745c-7.049,0-13.477,0-20.565,0c0-7.48,0-14.973,0-22.465
		c-0.419,0.002-0.838,0.004-1.257,0.006c0,7.338,0,14.674,0,22.381c-6.811,0-13.03,0-20.002,0c0-6.346,0.188-12.617-0.126-18.863
		c-0.085-1.676-1.761-3.246-2.593-4.92c-0.54-1.086-1.176-2.254-1.244-3.416c-0.178-2.986-0.343-6.029,0.051-8.973
		c0.209-1.57,1.762-2.914,2.391-4.486c0.688-1.723,1.425-3.59,1.43-5.396c0.085-32.307,0.062-64.613,0.063-96.92
		c0-1.945,0-3.893,0-6.184c2.373-0.107,4.158-0.279,5.94-0.25c18.96,0.305,37.984-0.205,56.862,1.213
		c18.395,1.381,32.104,11.152,38.789,28.799c6.658,17.58,1.852,39.545-12.02,52.549c-7.025,6.588-15.866,8.494-25.055,9.158
		c-5.637,0.406-11.307,0.654-16.951,0.514c-4.171-0.104-6.338,0.979-5.762,5.584c0.286,2.295-0.223,4.699,0.146,6.971
		c0.247,1.525,1.442,2.885,2.142,4.354c0.535,1.127,1.512,2.398,1.338,3.447c-0.803,4.83,2.811,10.648-3.191,14.447
		c-0.67,0.424-0.363,2.516-0.371,3.836C275.189,408.237,275.207,414.347,275.207,420.745z M315.085,338.655
		c7.499-6.672,9.275-19.023,4.474-28.553c-5.762-11.436-26.982-22.223-39.686-19.906c-1.078,0.197-2.52,2.391-2.553,3.689
		c-0.226,8.654-0.6,17.352,0.029,25.963c0.598,8.191,3.68,15.863,11.647,19.523c3.94,1.809,9.579,3.094,13.112,1.553
		c2.563-1.117,4.127-7.293,4.051-11.172c-0.236-12.166-6.025-21.719-16.02-28.705c-1.479-1.033-2.811-2.275-4.211-3.42
		c8.741,1.496,15.031,6.74,20.457,12.824C313.365,318.272,316.408,327.712,315.085,338.655z M253.625,378.94
		c0.221,0.012,0.441,0.021,0.662,0.031c0-29.822,0-59.645,0-89.465c-0.221-0.002-0.441-0.002-0.662-0.002
		C253.625,319.317,253.625,349.13,253.625,378.94z"/>
</g>
<polygon fill="#333333" points="306,91 306,0 274,0 242,0 242,91 202,91 274,165 346.5,91 "/>
<g>
</g>
<g>
</g>
<g>
</g>
<g>
</g>
<g>
</g>
<g>
</g>
<g>
</g>
<g>
</g>
<g>
</g>
<g>
</g>
<g>
</g>
<g>
</g>
<g>
</g>
<g>
</g>
<g>
</g>
</svg>
