<?xml version="1.0" encoding="utf-8"?>
<!-- Generator: Adobe Illustrator 16.0.0, SVG Export Plug-In . SVG Version: 6.00 Build 0)  -->
<!DOCTYPE svg PUBLIC "-//W3C//DTD SVG 1.1 Tiny//EN" "http://www.w3.org/Graphics/SVG/1.1/DTD/svg11-tiny.dtd">
<svg version="1.1" baseProfile="tiny" id="Layer_1" xmlns="http://www.w3.org/2000/svg" xmlns:xlink="http://www.w3.org/1999/xlink"
	 x="0px" y="0px" viewBox="0 0 188.919 225.127" xml:space="preserve">
<g>
	<rect x="5.545" y="5.727" fill="#FFFFFF" width="113" height="164"/>
	<path fill="#333333" d="M130.918,173.276L130.918,173.276c0,2.129-1.722,3.852-3.85,3.852H19.252l0,0
		C8.618,177.127,0,168.508,0,157.874V19.252C0,8.621,8.618,0,19.252,0l0,0h100.115l0,0c1.594,0,2.963,0.97,3.55,2.352
		c0.195,0.458,0.301,0.967,0.301,1.498l0,0v26.955l0,0h3.851l0,0c1.068,0,2.038,0.441,2.738,1.146
		c0.684,0.698,1.112,1.649,1.112,2.704l0,0L130.918,173.276L130.918,173.276z M115.518,30.804V7.701H19.252l0,0l0,0
		c-6.375,0-11.551,5.172-11.551,11.551c0,6.38,5.176,11.552,11.551,11.552H115.518L115.518,30.804z M123.218,38.505H38.506v130.919
		h84.712V38.505z M19.252,23.103c-2.13,0-3.851-1.724-3.851-3.851c0-2.126,1.721-3.85,3.851-3.85h84.713
		c2.129,0,3.852,1.724,3.852,3.85c0,2.127-1.723,3.851-3.852,3.851H19.252z"/>
	<g>
		<path fill="#60965A" d="M76.414,72.478h-0.23v15.01c0,8.118,6.228,15.17,14.602,13.853c4.917-7.103,0.715-18.103-9.826-24.284
			c13.263,5.401,15.999,15.17,14.565,23.304c-0.076,0.413-0.166,0.859-0.26,1.263c2.422-1.65,3.574-3.34,4.656-6.249
			C103.744,84.971,96.135,73.272,76.414,72.478z"/>
		<polygon fill="#60965A" points="65.245,100.904 65.245,109.25 65.245,120.939 66.806,120.939 66.806,109.25 66.806,100.904 
			66.806,72.478 65.245,72.478 		"/>
		<path fill="#60965A" d="M38.678,36.727v132.674h84.387V36.727H38.678L38.678,36.727z M108.207,90.745
			c-0.421,4.56-2.003,9.073-4.553,12.909c-6.585,8.73-14.32,8.075-23.008,8.075l-4.463-0.024v9.234h2.344v7.945h-2.344v12.711
			h-9.377v-12.711h-1.562v12.711H55.086v-12.711h-1.563v-7.945h1.563V64.533h11.351h9.983c0.968,0,1.927-0.116,2.864-0.116
			c6.604,0.015,12.354,0.764,16.445,2.899C105.307,72.065,109.079,81.502,108.207,90.745z"/>
	</g>
</g>
<g>
	<rect x="63.545" y="53.727" fill="#FFFFFF" width="113" height="164"/>
	<path fill="#333333" d="M188.918,221.276L188.918,221.276c0,2.129-1.722,3.852-3.85,3.852H77.252l0,0
		c-10.635,0-19.252-8.619-19.252-19.254V67.252C58,56.621,66.618,48,77.252,48l0,0h100.115l0,0c1.594,0,2.963,0.97,3.55,2.352
		c0.195,0.458,0.301,0.967,0.301,1.498l0,0v26.955l0,0h3.851l0,0c1.068,0,2.038,0.441,2.738,1.146
		c0.684,0.698,1.112,1.649,1.112,2.704l0,0L188.918,221.276L188.918,221.276z M173.518,78.804V55.701H77.252l0,0l0,0
		c-6.375,0-11.551,5.172-11.551,11.551c0,6.38,5.176,11.552,11.551,11.552H173.518L173.518,78.804z M181.218,86.505H96.506v130.919
		h84.712V86.505z M77.252,71.103c-2.13,0-3.851-1.724-3.851-3.851c0-2.126,1.721-3.85,3.851-3.85h84.713
		c2.129,0,3.852,1.724,3.852,3.85c0,2.127-1.723,3.851-3.852,3.851H77.252z"/>
	<g>
		<path fill="#60965A" d="M134.414,120.478h-0.23v15.01c0,8.118,6.228,15.17,14.602,13.853c4.917-7.103,0.715-18.103-9.826-24.284
			c13.263,5.401,15.999,15.17,14.565,23.304c-0.076,0.413-0.166,0.859-0.26,1.263c2.422-1.65,3.574-3.34,4.656-6.249
			C161.744,132.971,154.135,121.272,134.414,120.478z"/>
		<polygon fill="#60965A" points="123.245,148.904 123.245,157.25 123.245,168.939 124.806,168.939 124.806,157.25 124.806,148.904 
			124.806,120.478 123.245,120.478 		"/>
		<path fill="#60965A" d="M96.678,84.727v132.674h84.387V84.727H96.678L96.678,84.727z M166.207,138.745
			c-0.421,4.56-2.003,9.073-4.553,12.909c-6.585,8.73-14.32,8.075-23.008,8.075l-4.463-0.024v9.234h2.344v7.945h-2.344v12.711
			h-9.377v-12.711h-1.562v12.711h-10.158v-12.711h-1.563v-7.945h1.563v-56.406h11.351h9.983c0.968,0,1.927-0.116,2.864-0.116
			c6.604,0.015,12.354,0.764,16.445,2.899C163.307,120.065,167.079,129.502,166.207,138.745z"/>
	</g>
</g>
<g>
</g>
<g>
</g>
<g>
</g>
<g>
</g>
<g>
</g>
<g>
</g>
<g>
</g>
<g>
</g>
<g>
</g>
<g>
</g>
<g>
</g>
<g>
</g>
<g>
</g>
<g>
</g>
<g>
</g>
</svg>
