<?xml version="1.0" encoding="utf-8"?>
<!-- Generator: Adobe Illustrator 16.0.0, SVG Export Plug-In . SVG Version: 6.00 Build 0)  -->
<!DOCTYPE svg PUBLIC "-//W3C//DTD SVG 1.1//EN" "http://www.w3.org/Graphics/SVG/1.1/DTD/svg11.dtd">
<svg version="1.1" id="Layer_1" xmlns="http://www.w3.org/2000/svg" xmlns:xlink="http://www.w3.org/1999/xlink" x="0px" y="0px"
	 viewBox="15.445 348.336 988.179 303.329"
	 enable-background="new 15.445 348.336 988.179 303.329" xml:space="preserve">
<g>
	<g>
		<path fill="#333333" d="M203.27,368.579c0-11.18-9.063-20.243-20.239-20.243c-11.18,0-20.242,9.063-20.242,20.243
			c0,11.233,9.063,20.296,20.242,20.239C194.206,388.818,203.27,379.757,203.27,368.579z"/>
		<g>
			<path fill="#333333" d="M137.446,419.643v61.647c0,11.939,17.366,11.939,17.366,0v-56.981h2.714v154.985
				c0,15.357,22.413,16.985,23.333,0.055v-89.376h0.544h3.799v89.321c0.543,15.955,23.335,16.498,23.335,0V424.309h3.255v56.981
				c0,11.939,16.823,11.939,16.823,0v-61.647c0-12.807-9.985-26.265-25.289-26.265h-20.295h-20.298
				C147.484,393.378,137.445,406.891,137.446,419.643z"/>
		</g>
	</g>
	<g>
		<g>
			<path fill="#34994B" d="M114.692,486.033c-0.251-0.658-0.513-1.314-0.773-1.969c-0.023-0.057-0.05-0.109-0.145-0.137
				c-0.007-0.021-0.017-0.04-0.025-0.062c0.062-0.063,0.048-0.092,0.046-0.133c-0.027-0.545,0.144-0.797,0.708-1.074
				c0.11-0.056,0.206-0.161,0.318-0.206c12.417-4.875,24.835-9.753,37.25-14.627c0.04-0.016,0.104,0.023,0.144,0.007
				c0.565-0.232,1.039-0.183,1.418,0.173l-1.388-3.535c-0.238-0.605-0.922-0.901-1.527-0.664l-37.759,14.826
				c-0.606,0.239-0.903,0.92-0.666,1.525l9.005,22.934c0.031,0.076,0.06,0.15,0.087,0.223c-2.232-5.682-4.463-11.367-6.693-17.047
				C114.739,486.172,114.718,486.1,114.692,486.033z"/>
			<path fill="#34994B" d="M122.825,503.758l37.759-14.828c0.025-0.008,0.05-0.02,0.074-0.029l-37.908,14.886
				C122.775,503.776,122.799,503.767,122.825,503.758z"/>
			<path fill="#34994B" d="M122.423,503.837c-0.146-0.001-0.283-0.022-0.41-0.063C122.143,503.819,122.281,503.843,122.423,503.837z
				"/>
			<path fill="#333333" d="M153.634,468.006l7.616,19.399c0.228,0.582-0.049,1.2-0.592,1.497l0.168-0.066
				c0.376-0.315,0.56-0.656,0.563-1.077c-2.577-6.567-5.156-13.135-7.736-19.703C153.644,468.039,153.648,468.019,153.634,468.006z"
				/>
			<path fill="#333333" d="M122.628,503.836l0.122-0.048c-0.104,0.041-0.217,0.051-0.325,0.055
				C122.491,503.844,122.566,503.858,122.628,503.836z"/>
			<path fill="#333333" d="M121.386,503.316c0.017,0.043,0.035,0.086,0.052,0.13c0.148,0.167,0.341,0.275,0.552,0.34
				C121.747,503.702,121.555,503.53,121.386,503.316z"/>
			<path fill="#333333" d="M161.25,487.405l-7.616-19.399c-0.379-0.355-0.852-0.405-1.418-0.173
				c-0.039,0.017-0.104-0.021-0.144-0.007c-12.415,4.876-24.833,9.752-37.25,14.627c-0.112,0.045-0.202,0.147-0.312,0.203
				c-0.563,0.277-0.742,0.534-0.715,1.078c0.002,0.04,0.014,0.069-0.046,0.132c0.009,0.021,0.017,0.04,0.025,0.062
				c0.095,0.027,0.128,0.077,0.149,0.135c0.263,0.654,0.513,1.314,0.764,1.974c0.026,0.068,0.051,0.138,0.005,0.233
				c2.231,5.682,4.462,11.365,6.694,17.047c0.17,0.214,0.373,0.381,0.617,0.464c0.127,0.039,0.271,0.061,0.415,0.064
				c0.109-0.004,0.228-0.016,0.332-0.057l37.906-14.888C161.199,488.605,161.478,487.985,161.25,487.405z M140.573,493.446
				c-4.241,1.665-9.027-0.424-10.691-4.663c-1.665-4.239,0.422-9.027,4.663-10.691c4.239-1.665,9.027,0.423,10.69,4.663
				C146.901,486.994,144.812,491.781,140.573,493.446z"/>
			<circle fill="#34994B" cx="137.558" cy="485.769" r="8.248"/>
		</g>
		<path fill="#FFFFFF" d="M139.843,491.236c-0.516,0.203-0.984,0.387-1.502,0.589c-0.214-0.546-0.43-1.095-0.646-1.641
			c-0.029,0.012-0.061,0.024-0.091,0.036c0.21,0.536,0.421,1.072,0.642,1.636c-0.498,0.196-0.951,0.374-1.461,0.574
			c-0.182-0.464-0.348-0.927-0.551-1.374c-0.055-0.118-0.221-0.186-0.329-0.285c-0.071-0.063-0.15-0.13-0.188-0.213
			c-0.099-0.213-0.199-0.432-0.254-0.657c-0.031-0.121,0.045-0.265,0.046-0.396c0-0.145,0-0.303-0.051-0.435
			c-0.92-2.363-1.849-4.721-2.775-7.08c-0.056-0.142-0.111-0.286-0.176-0.452c0.171-0.076,0.295-0.139,0.427-0.189
			c1.394-0.521,2.769-1.104,4.188-1.542c1.383-0.427,2.664-0.107,3.658,0.991c0.991,1.093,1.27,2.834,0.629,4.183
			c-0.323,0.683-0.915,1.075-1.566,1.387c-0.401,0.193-0.809,0.373-1.224,0.524c-0.309,0.112-0.436,0.254-0.261,0.574
			c0.086,0.16,0.117,0.35,0.21,0.505c0.063,0.104,0.188,0.17,0.279,0.257c0.073,0.067,0.181,0.132,0.198,0.213
			c0.079,0.376,0.512,0.697,0.182,1.146c-0.036,0.051,0.046,0.194,0.082,0.292C139.483,490.323,139.658,490.77,139.843,491.236z
			 M140.401,484.097c0.356-0.703,0.132-1.656-0.491-2.214c-0.749-0.671-2.608-0.851-3.47-0.316c-0.072,0.047-0.115,0.247-0.08,0.343
			c0.232,0.639,0.453,1.285,0.746,1.895c0.279,0.582,0.725,1.054,1.412,1.092c0.338,0.02,0.788-0.048,1.001-0.263
			c0.154-0.154,0.092-0.65-0.025-0.931c-0.366-0.883-1.063-1.413-1.993-1.638c-0.137-0.033-0.271-0.086-0.404-0.131
			c0.68-0.14,1.29,0.062,1.86,0.35C139.692,482.658,140.183,483.261,140.401,484.097z M137.069,488.802
			c0.016-0.005,0.034-0.01,0.049-0.016c-0.855-2.18-1.711-4.356-2.565-6.534c-0.017,0.007-0.033,0.014-0.05,0.02
			C135.359,484.448,136.212,486.625,137.069,488.802z"/>
	</g>
</g>
<g>
	<g>
		<path fill="#333333" d="M61.029,449.019c11.179,0.055,20.241-9.008,20.241-20.239c0-11.18-9.063-20.243-20.241-20.243
			c-11.178,0-20.241,9.063-20.241,20.243C40.789,439.956,49.851,449.019,61.029,449.019z"/>
		<g>
			<path fill="#333333" d="M81.325,453.579H61.029H40.733c-15.303,0-25.288,13.458-25.288,26.265v61.648
				c0,11.938,16.823,11.938,16.823,0V484.51h3.257v154.985c0,16.498,22.792,15.954,23.332,0v-89.322h3.799H63.2v89.378
				c0.923,16.931,23.334,15.302,23.334-0.056V484.51h2.713v56.982c0,11.938,17.365,11.938,17.365,0v-61.649
				C106.613,467.091,96.574,453.579,81.325,453.579z"/>
		</g>
	</g>
	<g>
		<g>
			<path fill="#34994B" d="M89.267,531.768c0.247-0.659,0.484-1.323,0.722-1.988c0.02-0.056,0.035-0.113-0.02-0.198
				c0.008-0.021,0.015-0.041,0.023-0.061c0.087-0.007,0.099-0.038,0.123-0.069c0.34-0.427,0.637-0.505,1.242-0.34
				c0.12,0.034,0.261,0.017,0.376,0.058c12.537,4.551,25.077,9.102,37.616,13.651c0.042,0.017,0.063,0.088,0.104,0.101
				c0.578,0.199,0.9,0.551,0.949,1.068l1.297-3.571c0.221-0.612-0.095-1.286-0.706-1.507l-38.133-13.841
				c-0.611-0.223-1.286,0.094-1.509,0.704l-8.405,23.161c-0.028,0.078-0.057,0.153-0.081,0.226
				c2.082-5.737,4.165-11.478,6.249-17.215C89.21,531.904,89.242,531.838,89.267,531.768z"/>
			<path fill="#34994B" d="M83.651,550.443l38.133,13.839c0.024,0.01,0.05,0.02,0.074,0.029l-38.283-13.893
				C83.6,550.426,83.626,550.433,83.651,550.443z"/>
			<path fill="#34994B" d="M83.296,550.237c-0.107-0.099-0.196-0.202-0.266-0.314C83.098,550.041,83.188,550.148,83.296,550.237z"/>
			<path fill="#333333" d="M130.402,543.99l-7.109,19.588c-0.213,0.588-0.831,0.868-1.435,0.732l0.17,0.061
				c0.491,0.014,0.854-0.121,1.135-0.438c2.407-6.631,4.814-13.264,7.222-19.896C130.389,544.021,130.404,544.008,130.402,543.99z"
				/>
			<path fill="#333333" d="M83.451,550.373l0.123,0.045c-0.105-0.039-0.195-0.106-0.28-0.176
				C83.344,550.287,83.389,550.351,83.451,550.373z"/>
			<path fill="#333333" d="M82.865,549.162c-0.017,0.042-0.033,0.088-0.048,0.131c0.003,0.224,0.075,0.434,0.191,0.619
				C82.879,549.689,82.848,549.434,82.865,549.162z"/>
			<path fill="#333333" d="M123.292,563.578l7.109-19.588c-0.049-0.518-0.371-0.869-0.949-1.068
				c-0.041-0.014-0.063-0.084-0.104-0.101c-12.537-4.551-25.077-9.102-37.616-13.651c-0.114-0.041-0.249-0.023-0.37-0.055
				c-0.604-0.164-0.908-0.09-1.246,0.339c-0.026,0.033-0.036,0.061-0.123,0.067c-0.007,0.02-0.016,0.04-0.023,0.061
				c0.055,0.085,0.044,0.144,0.024,0.2c-0.237,0.664-0.484,1.325-0.731,1.985c-0.026,0.068-0.052,0.137-0.149,0.178
				c-2.082,5.738-4.166,11.478-6.249,17.215c-0.015,0.272,0.028,0.531,0.155,0.754c0.069,0.114,0.163,0.227,0.272,0.323
				c0.084,0.069,0.18,0.141,0.285,0.179l38.283,13.893C122.461,564.445,123.077,564.165,123.292,563.578z M103.783,554.44
				c-4.282-1.554-6.493-6.286-4.94-10.565c1.555-4.284,6.285-6.494,10.567-4.94c4.282,1.555,6.493,6.287,4.938,10.567
				C112.795,553.784,108.065,555.995,103.783,554.44z"/>
			<circle fill="#34994B" cx="106.597" cy="546.687" r="8.248"/>
		</g>
		<path fill="#FFFFFF" d="M104.697,552.302c-0.52-0.189-0.994-0.36-1.517-0.551c0.201-0.55,0.4-1.104,0.602-1.657
			c-0.031-0.011-0.063-0.022-0.093-0.034c-0.196,0.541-0.392,1.081-0.599,1.652c-0.502-0.183-0.961-0.35-1.476-0.536
			c0.17-0.469,0.352-0.927,0.497-1.395c0.037-0.128-0.043-0.287-0.062-0.435c-0.01-0.094-0.026-0.195,0-0.283
			c0.067-0.226,0.137-0.455,0.244-0.661c0.058-0.11,0.208-0.168,0.295-0.266c0.098-0.109,0.203-0.229,0.251-0.361
			c0.87-2.379,1.734-4.766,2.599-7.146c0.051-0.145,0.104-0.289,0.167-0.456c0.178,0.054,0.313,0.091,0.444,0.141
			c1.391,0.528,2.809,1.002,4.162,1.612c1.32,0.594,2.069,1.682,2.091,3.162c0.021,1.476-0.922,2.966-2.294,3.555
			c-0.694,0.297-1.398,0.201-2.092,0.004c-0.428-0.119-0.853-0.254-1.265-0.416c-0.306-0.118-0.494-0.097-0.574,0.258
			c-0.041,0.176-0.144,0.341-0.177,0.518c-0.023,0.118,0.029,0.25,0.041,0.377c0.011,0.1,0.048,0.218,0.007,0.291
			c-0.188,0.332-0.077,0.86-0.621,0.98c-0.062,0.014-0.095,0.175-0.131,0.273C105.03,551.379,104.868,551.829,104.697,552.302z
			 M109.836,547.314c0.732-0.29,1.193-1.154,1.095-1.985c-0.119-0.996-1.395-2.362-2.394-2.531
			c-0.085-0.015-0.249,0.109-0.287,0.205c-0.247,0.631-0.51,1.265-0.692,1.916c-0.175,0.618-0.153,1.27,0.336,1.753
			c0.241,0.238,0.623,0.482,0.927,0.463c0.22-0.014,0.5-0.427,0.597-0.716c0.309-0.901,0.137-1.761-0.412-2.546
			c-0.082-0.115-0.146-0.242-0.219-0.365c0.603,0.344,0.928,0.899,1.165,1.493C110.254,545.763,110.225,546.543,109.836,547.314z
			 M104.223,548.639c0.016,0.007,0.033,0.014,0.048,0.02c0.798-2.199,1.596-4.398,2.396-6.599c-0.017-0.005-0.032-0.01-0.049-0.017
			C105.822,544.242,105.022,546.44,104.223,548.639z"/>
	</g>
</g>
<g>
	<g>
		<path fill="#333333" d="M283.872,415.159c0-11.181-9.064-20.243-20.241-20.243c-11.18,0-20.242,9.063-20.242,20.243
			c0,11.233,9.063,20.296,20.242,20.239C274.808,435.4,283.872,426.336,283.872,415.159z"/>
		<g>
			<path fill="#333333" d="M218.046,466.223v61.649c0,11.938,17.366,11.938,17.366,0v-56.983h2.713v154.985
				c0,15.357,22.412,16.986,23.334,0.057v-89.378h0.544h3.799v89.321c0.543,15.954,23.335,16.498,23.335,0V470.889h3.256v56.983
				c0,11.938,16.822,11.938,16.822,0v-61.649c0-12.807-9.984-26.265-25.287-26.265h-20.296h-20.297
				C228.085,439.959,218.046,453.473,218.046,466.223z"/>
		</g>
	</g>
	<g>
		<g>
			<path fill="#34994B" d="M195.294,532.613c-0.25-0.658-0.513-1.313-0.773-1.967c-0.023-0.055-0.049-0.109-0.146-0.139
				c-0.008-0.021-0.016-0.038-0.024-0.062c0.062-0.061,0.048-0.091,0.047-0.132c-0.028-0.544,0.145-0.796,0.709-1.071
				c0.11-0.058,0.205-0.162,0.317-0.206c12.418-4.876,24.835-9.752,37.25-14.627c0.039-0.017,0.104,0.022,0.143,0.006
				c0.566-0.234,1.039-0.183,1.419,0.174l-1.389-3.537c-0.237-0.605-0.922-0.903-1.527-0.666l-37.759,14.828
				c-0.606,0.237-0.903,0.92-0.666,1.525l9.005,22.935c0.031,0.075,0.061,0.15,0.089,0.224c-2.232-5.684-4.464-11.367-6.694-17.05
				C195.34,532.752,195.321,532.68,195.294,532.613z"/>
			<path fill="#34994B" d="M203.426,550.338l37.759-14.826c0.026-0.01,0.05-0.02,0.074-0.029l-37.907,14.886
				C203.377,550.356,203.402,550.347,203.426,550.338z"/>
			<path fill="#34994B" d="M203.024,550.419c-0.146-0.003-0.282-0.022-0.41-0.063C202.745,550.398,202.884,550.424,203.024,550.419z
				"/>
			<path fill="#333333" d="M234.235,514.588l7.618,19.396c0.228,0.582-0.05,1.202-0.592,1.498l0.17-0.068
				c0.376-0.313,0.557-0.652,0.563-1.075c-2.579-6.567-5.156-13.136-7.736-19.702C234.246,514.619,234.248,514.601,234.235,514.588z
				"/>
			<path fill="#333333" d="M203.23,550.416l0.122-0.047c-0.105,0.04-0.216,0.05-0.324,0.053
				C203.093,550.424,203.167,550.44,203.23,550.416z"/>
			<path fill="#333333" d="M201.989,549.896c0.017,0.041,0.033,0.086,0.051,0.129c0.15,0.166,0.343,0.275,0.555,0.339
				C202.348,550.282,202.156,550.11,201.989,549.896z"/>
			<path fill="#333333" d="M241.853,533.984l-7.617-19.396c-0.38-0.358-0.853-0.407-1.419-0.173
				c-0.039,0.016-0.104-0.023-0.143-0.007c-12.416,4.876-24.834,9.751-37.25,14.627c-0.112,0.045-0.201,0.148-0.312,0.203
				c-0.563,0.276-0.742,0.532-0.714,1.078c0.002,0.038,0.014,0.067-0.046,0.129c0.007,0.022,0.017,0.041,0.024,0.061
				c0.096,0.029,0.129,0.081,0.15,0.135c0.263,0.655,0.513,1.314,0.764,1.975c0.026,0.067,0.051,0.135,0.005,0.232
				c2.231,5.682,4.462,11.365,6.694,17.049c0.17,0.214,0.373,0.38,0.615,0.464c0.127,0.038,0.271,0.059,0.415,0.063
				c0.109-0.002,0.228-0.015,0.333-0.055l37.907-14.886C241.802,535.185,242.08,534.565,241.853,533.984z M221.173,540.026
				c-4.241,1.665-9.027-0.424-10.691-4.663c-1.665-4.239,0.42-9.027,4.661-10.689c4.241-1.667,9.027,0.421,10.691,4.661
				C227.501,533.574,225.413,538.361,221.173,540.026z"/>
			<circle fill="#34994B" cx="218.158" cy="532.349" r="8.248"/>
		</g>
		<path fill="#FFFFFF" d="M220.444,537.816c-0.514,0.203-0.984,0.387-1.502,0.591c-0.214-0.546-0.429-1.095-0.645-1.642
			c-0.029,0.014-0.061,0.026-0.091,0.035c0.21,0.537,0.419,1.072,0.642,1.636c-0.498,0.194-0.951,0.374-1.461,0.574
			c-0.182-0.464-0.349-0.929-0.551-1.374c-0.055-0.12-0.221-0.187-0.33-0.285c-0.07-0.064-0.151-0.132-0.188-0.214
			c-0.099-0.213-0.199-0.431-0.254-0.658c-0.031-0.119,0.045-0.261,0.045-0.395c0-0.146,0.001-0.305-0.05-0.437
			c-0.92-2.361-1.849-4.719-2.775-7.078c-0.056-0.142-0.112-0.287-0.176-0.452c0.171-0.076,0.295-0.141,0.427-0.188
			c1.394-0.521,2.769-1.104,4.188-1.543c1.383-0.427,2.664-0.105,3.658,0.992c0.991,1.092,1.27,2.835,0.629,4.184
			c-0.323,0.682-0.915,1.072-1.567,1.385c-0.4,0.193-0.808,0.375-1.223,0.524c-0.309,0.112-0.436,0.253-0.261,0.574
			c0.086,0.161,0.118,0.35,0.209,0.505c0.063,0.104,0.188,0.17,0.282,0.257c0.072,0.065,0.18,0.132,0.198,0.213
			c0.079,0.376,0.511,0.697,0.181,1.147c-0.036,0.049,0.045,0.193,0.083,0.29C220.085,536.905,220.261,537.349,220.444,537.816z
			 M221.003,530.679c0.356-0.703,0.132-1.658-0.491-2.215c-0.749-0.67-2.609-0.851-3.47-0.315c-0.072,0.045-0.115,0.247-0.081,0.343
			c0.233,0.641,0.453,1.283,0.747,1.895c0.278,0.582,0.724,1.055,1.411,1.092c0.339,0.02,0.787-0.048,1.001-0.262
			c0.155-0.157,0.093-0.653-0.024-0.932c-0.366-0.883-1.063-1.414-1.994-1.638c-0.137-0.033-0.27-0.086-0.405-0.129
			c0.682-0.142,1.291,0.062,1.86,0.35C220.294,529.238,220.785,529.842,221.003,530.679z M217.669,535.381
			c0.017-0.003,0.033-0.01,0.05-0.016c-0.856-2.177-1.712-4.356-2.566-6.534c-0.016,0.006-0.033,0.013-0.049,0.02
			C215.959,531.028,216.815,533.205,217.669,535.381z"/>
	</g>
</g>
<g>
	<path fill="#333333" d="M390.231,457.573c0.473,0.059,0.896,0.177,1.271,0.354c0.374,0.177,0.739,0.434,1.093,0.768
		c0.354,0.335,0.748,0.778,1.182,1.33l44.849,57.139c-0.158-1.379-0.266-2.729-0.325-4.048s-0.088-2.55-0.088-3.693v-51.939h14.004
		v85.442h-8.213c-1.261,0-2.305-0.196-3.132-0.59c-0.827-0.395-1.635-1.104-2.422-2.128l-44.671-56.902
		c0.118,1.261,0.207,2.511,0.266,3.752c0.059,1.241,0.088,2.374,0.088,3.398v52.47h-14.004v-85.442h8.332
		C389.168,457.484,389.759,457.513,390.231,457.573z"/>
	<path fill="#333333" d="M493.696,481.356c3.82,0,7.336,0.611,10.547,1.832c3.211,1.222,5.978,3.004,8.303,5.348
		c2.323,2.344,4.136,5.22,5.436,8.627c1.3,3.408,1.95,7.297,1.95,11.67c0,1.104-0.05,2.02-0.147,2.748
		c-0.1,0.729-0.276,1.299-0.532,1.713c-0.257,0.414-0.601,0.709-1.034,0.887s-0.985,0.266-1.654,0.266h-37.462
		c0.433,6.225,2.106,10.794,5.022,13.709c2.914,2.916,6.774,4.373,11.581,4.373c2.363,0,4.402-0.275,6.116-0.828
		c1.713-0.551,3.21-1.161,4.49-1.832c1.279-0.669,2.402-1.279,3.368-1.831c0.965-0.552,1.9-0.827,2.807-0.827
		c0.591,0,1.103,0.117,1.536,0.354s0.808,0.572,1.123,1.006l4.254,5.317c-1.615,1.891-3.427,3.478-5.436,4.757
		c-2.01,1.28-4.107,2.305-6.293,3.072c-2.187,0.768-4.412,1.309-6.678,1.625c-2.266,0.314-4.461,0.473-6.588,0.473
		c-4.216,0-8.135-0.699-11.759-2.098c-3.625-1.398-6.775-3.466-9.454-6.204c-2.68-2.737-4.786-6.125-6.322-10.163
		c-1.536-4.037-2.305-8.716-2.305-14.033c0-4.137,0.669-8.026,2.009-11.671c1.339-3.643,3.26-6.814,5.762-9.513
		c2.501-2.698,5.554-4.835,9.158-6.411C485.098,482.144,489.165,481.356,493.696,481.356z M493.99,491.814
		c-4.254,0-7.583,1.202-9.985,3.604c-2.403,2.403-3.939,5.812-4.609,10.222h27.417c0-1.891-0.256-3.672-0.768-5.347
		c-0.513-1.674-1.3-3.141-2.363-4.402c-1.064-1.26-2.403-2.254-4.019-2.984C498.048,492.179,496.156,491.814,493.99,491.814z"/>
	<path fill="#333333" d="M524.42,482.301h11.581c1.103,0,2.028,0.256,2.777,0.768c0.748,0.512,1.221,1.163,1.418,1.95l8.686,32.381
		c0.473,1.771,0.857,3.506,1.152,5.199c0.296,1.694,0.581,3.389,0.857,5.082c0.433-1.693,0.896-3.388,1.389-5.082
		c0.491-1.693,1.014-3.428,1.565-5.199l10.045-32.5c0.236-0.787,0.709-1.438,1.418-1.95c0.709-0.512,1.537-0.768,2.482-0.768h6.44
		c1.063,0,1.95,0.256,2.659,0.768c0.709,0.512,1.182,1.163,1.418,1.95l9.927,33.089c0.512,1.695,0.975,3.339,1.389,4.935
		c0.413,1.595,0.817,3.2,1.211,4.815c0.275-1.693,0.581-3.387,0.916-5.082c0.334-1.693,0.758-3.445,1.271-5.258l8.981-32.381
		c0.196-0.787,0.67-1.438,1.418-1.95c0.748-0.512,1.615-0.768,2.601-0.768h11.049l-19.203,60.625h-11.759
		c-1.262,0-2.167-0.865-2.719-2.6l-10.931-35.039c-0.354-1.143-0.68-2.295-0.976-3.457c-0.295-1.162-0.542-2.314-0.738-3.457
		c-0.236,1.182-0.493,2.354-0.769,3.515c-0.275,1.162-0.591,2.334-0.945,3.516l-11.05,34.922c-0.552,1.734-1.615,2.6-3.19,2.6
		h-11.168L524.42,482.301z"/>
	<path fill="#333333" d="M667.885,495.123c-0.434,0.552-0.856,0.985-1.271,1.3c-0.413,0.316-1.015,0.473-1.802,0.473
		c-0.749,0-1.478-0.226-2.187-0.679c-0.709-0.453-1.557-0.965-2.541-1.537c-0.984-0.57-2.156-1.083-3.516-1.536
		c-1.358-0.453-3.043-0.68-5.052-0.68c-2.562,0-4.807,0.463-6.736,1.389c-1.931,0.926-3.536,2.255-4.815,3.988
		c-1.28,1.734-2.236,3.832-2.866,6.293s-0.945,5.25-0.945,8.361c0,3.23,0.345,6.105,1.034,8.627
		c0.688,2.521,1.685,4.638,2.984,6.352c1.3,1.713,2.875,3.014,4.727,3.9c1.852,0.886,3.938,1.329,6.264,1.329
		c2.324,0,4.204-0.286,5.643-0.856c1.438-0.571,2.649-1.201,3.635-1.892c0.983-0.688,1.841-1.319,2.57-1.891
		c0.729-0.571,1.545-0.856,2.452-0.856c1.182,0,2.067,0.453,2.658,1.359l4.195,5.317c-1.615,1.891-3.367,3.478-5.259,4.757
		c-1.891,1.28-3.851,2.305-5.879,3.072c-2.029,0.768-4.127,1.309-6.293,1.625c-2.167,0.314-4.313,0.473-6.44,0.473
		c-3.743,0-7.269-0.699-10.577-2.098c-3.31-1.398-6.195-3.436-8.656-6.115c-2.463-2.679-4.413-5.958-5.851-9.839
		c-1.438-3.88-2.156-8.302-2.156-13.265c0-4.451,0.64-8.578,1.92-12.38c1.28-3.801,3.162-7.09,5.644-9.868
		c2.481-2.777,5.554-4.953,9.218-6.529c3.663-1.575,7.878-2.363,12.645-2.363c4.53,0,8.499,0.729,11.907,2.186
		c3.406,1.458,6.47,3.545,9.188,6.264L667.885,495.123z"/>
	<path fill="#333333" d="M707.533,481.356c4.529,0,8.636,0.729,12.32,2.186c3.683,1.458,6.824,3.526,9.424,6.205
		c2.601,2.679,4.609,5.948,6.027,9.809c1.418,3.861,2.127,8.174,2.127,12.941c0,4.807-0.709,9.139-2.127,12.999
		s-3.427,7.149-6.027,9.868c-2.6,2.718-5.741,4.807-9.424,6.264c-3.685,1.456-7.791,2.186-12.32,2.186
		c-4.53,0-8.647-0.729-12.35-2.186c-3.703-1.457-6.864-3.546-9.483-6.264c-2.62-2.719-4.649-6.008-6.087-9.868
		c-1.438-3.86-2.156-8.192-2.156-12.999c0-4.767,0.718-9.08,2.156-12.941c1.438-3.86,3.467-7.129,6.087-9.809
		c2.619-2.679,5.78-4.747,9.483-6.205C698.886,482.085,703.003,481.356,707.533,481.356z M707.533,532.586
		c5.042,0,8.774-1.693,11.197-5.082c2.423-3.387,3.634-8.351,3.634-14.891c0-6.538-1.211-11.521-3.634-14.949
		c-2.423-3.427-6.155-5.141-11.197-5.141c-5.121,0-8.903,1.724-11.345,5.17c-2.443,3.447-3.664,8.419-3.664,14.919
		s1.221,11.455,3.664,14.861C698.63,530.883,702.412,532.586,707.533,532.586z"/>
	<path fill="#333333" d="M748.835,542.926v-60.625h8.922c1.892,0,3.132,0.886,3.723,2.659l0.946,4.491
		c1.063-1.182,2.176-2.265,3.338-3.25c1.161-0.984,2.402-1.832,3.723-2.541c1.319-0.709,2.737-1.271,4.255-1.684
		c1.516-0.414,3.181-0.62,4.992-0.62c3.821,0,6.963,1.034,9.425,3.102c2.462,2.068,4.304,4.815,5.525,8.243
		c0.945-2.009,2.127-3.732,3.545-5.17c1.418-1.438,2.974-2.609,4.668-3.516c1.693-0.906,3.495-1.575,5.406-2.009
		c1.911-0.433,3.831-0.65,5.762-0.65c3.348,0,6.322,0.512,8.922,1.536c2.601,1.025,4.787,2.521,6.56,4.491
		c1.772,1.97,3.121,4.373,4.047,7.209c0.926,2.836,1.389,6.086,1.389,9.75v38.584h-14.595v-38.584c0-3.861-0.848-6.766-2.541-8.716
		c-1.693-1.95-4.176-2.925-7.445-2.925c-1.497,0-2.886,0.257-4.165,0.768c-1.281,0.513-2.403,1.251-3.368,2.216
		c-0.966,0.966-1.724,2.177-2.275,3.634c-0.552,1.458-0.827,3.132-0.827,5.023v38.584h-14.653v-38.584
		c0-4.057-0.818-7.012-2.452-8.864c-1.636-1.851-4.048-2.777-7.239-2.777c-2.088,0-4.047,0.522-5.879,1.566
		c-1.832,1.044-3.536,2.473-5.111,4.284v44.375H748.835z"/>
	<path fill="#333333" d="M873.395,481.356c3.82,0,7.336,0.611,10.547,1.832c3.211,1.222,5.978,3.004,8.303,5.348
		c2.323,2.344,4.136,5.22,5.436,8.627c1.3,3.408,1.95,7.297,1.95,11.67c0,1.104-0.05,2.02-0.147,2.748
		c-0.1,0.729-0.276,1.299-0.532,1.713c-0.257,0.414-0.601,0.709-1.034,0.887s-0.985,0.266-1.654,0.266H858.8
		c0.433,6.225,2.106,10.794,5.022,13.709c2.914,2.916,6.774,4.373,11.581,4.373c2.363,0,4.402-0.275,6.116-0.828
		c1.713-0.551,3.21-1.161,4.49-1.832c1.279-0.669,2.402-1.279,3.368-1.831c0.965-0.552,1.9-0.827,2.807-0.827
		c0.591,0,1.103,0.117,1.536,0.354s0.808,0.572,1.123,1.006l4.254,5.317c-1.615,1.891-3.427,3.478-5.436,4.757
		c-2.01,1.28-4.107,2.305-6.293,3.072c-2.187,0.768-4.412,1.309-6.678,1.625c-2.266,0.314-4.461,0.473-6.588,0.473
		c-4.216,0-8.135-0.699-11.759-2.098c-3.625-1.398-6.775-3.466-9.454-6.204c-2.68-2.737-4.786-6.125-6.322-10.163
		c-1.536-4.037-2.305-8.716-2.305-14.033c0-4.137,0.669-8.026,2.009-11.671c1.339-3.643,3.26-6.814,5.762-9.513
		c2.501-2.698,5.554-4.835,9.158-6.411C864.797,482.144,868.865,481.356,873.395,481.356z M873.69,491.814
		c-4.254,0-7.583,1.202-9.985,3.604c-2.403,2.403-3.939,5.812-4.609,10.222h27.417c0-1.891-0.256-3.672-0.768-5.347
		c-0.513-1.674-1.3-3.141-2.363-4.402c-1.064-1.26-2.403-2.254-4.019-2.984C877.747,492.179,875.856,491.814,873.69,491.814z"/>
	<path fill="#333333" d="M911.505,542.926v-60.625h8.567c1.497,0,2.541,0.276,3.132,0.827c0.591,0.552,0.984,1.498,1.182,2.836
		l0.887,7.327c2.166-3.742,4.707-6.696,7.622-8.863c2.915-2.166,6.185-3.25,9.81-3.25c2.993,0,5.475,0.689,7.444,2.068
		l-1.891,10.932c-0.118,0.709-0.375,1.211-0.768,1.506c-0.395,0.296-0.927,0.443-1.596,0.443c-0.591,0-1.398-0.138-2.423-0.414
		c-1.024-0.275-2.384-0.414-4.077-0.414c-3.033,0-5.634,0.837-7.8,2.511c-2.167,1.675-3.998,4.127-5.495,7.356v37.758H911.505z"/>
	<path fill="#333333" d="M995.765,494.119c-0.395,0.63-0.809,1.074-1.241,1.329c-0.434,0.257-0.985,0.384-1.654,0.384
		c-0.709,0-1.468-0.197-2.275-0.591c-0.808-0.394-1.743-0.836-2.807-1.33c-1.063-0.492-2.274-0.935-3.634-1.33
		c-1.359-0.393-2.965-0.591-4.815-0.591c-2.876,0-5.141,0.611-6.796,1.832c-1.654,1.221-2.481,2.816-2.481,4.786
		c0,1.3,0.423,2.393,1.271,3.279c0.847,0.887,1.97,1.665,3.368,2.334c1.397,0.671,2.984,1.271,4.757,1.803s3.584,1.113,5.436,1.743
		s3.664,1.35,5.437,2.157c1.772,0.807,3.357,1.831,4.757,3.072c1.397,1.24,2.521,2.729,3.368,4.461
		c0.847,1.734,1.271,3.821,1.271,6.264c0,2.916-0.532,5.604-1.596,8.065s-2.62,4.589-4.668,6.382
		c-2.049,1.793-4.579,3.19-7.593,4.195c-3.014,1.004-6.471,1.506-10.37,1.506c-2.089,0-4.127-0.188-6.116-0.561
		c-1.989-0.375-3.899-0.896-5.731-1.566c-1.832-0.669-3.525-1.457-5.081-2.363c-1.557-0.906-2.926-1.891-4.107-2.955l3.368-5.554
		c0.434-0.669,0.945-1.182,1.536-1.536s1.339-0.531,2.246-0.531c0.905,0,1.762,0.256,2.57,0.768
		c0.807,0.512,1.743,1.063,2.807,1.654s2.313,1.143,3.752,1.654c1.438,0.513,3.259,0.769,5.466,0.769c1.732,0,3.22-0.207,4.461-0.62
		c1.241-0.414,2.265-0.955,3.072-1.625s1.398-1.448,1.773-2.334c0.374-0.887,0.561-1.803,0.561-2.748c0-1.418-0.423-2.58-1.27-3.486
		c-0.848-0.906-1.971-1.693-3.368-2.363c-1.399-0.67-2.994-1.271-4.786-1.803c-1.793-0.531-3.625-1.112-5.496-1.742
		c-1.871-0.631-3.703-1.369-5.495-2.217c-1.793-0.846-3.388-1.92-4.786-3.22s-2.521-2.896-3.368-4.786s-1.271-4.176-1.271-6.854
		c0-2.482,0.492-4.845,1.478-7.091c0.984-2.245,2.432-4.205,4.343-5.879c1.911-1.674,4.294-3.013,7.15-4.018
		c2.855-1.004,6.154-1.506,9.897-1.506c4.175,0,7.977,0.689,11.404,2.068c3.427,1.379,6.282,3.191,8.567,5.436L995.765,494.119z"/>
</g>
</svg>
