<?xml version="1.0" encoding="UTF-8" standalone="no"?>
<!-- Generator: Adobe Illustrator 16.0.0, SVG Export Plug-In . SVG Version: 6.00 Build 0)  -->

<svg
   xmlns:dc="http://purl.org/dc/elements/1.1/"
   xmlns:cc="http://creativecommons.org/ns#"
   xmlns:rdf="http://www.w3.org/1999/02/22-rdf-syntax-ns#"
   xmlns:svg="http://www.w3.org/2000/svg"
   xmlns="http://www.w3.org/2000/svg"
   xmlns:sodipodi="http://sodipodi.sourceforge.net/DTD/sodipodi-0.dtd"
   xmlns:inkscape="http://www.inkscape.org/namespaces/inkscape"
   version="1.1"
   id="Layer_1"
   x="0px"
   y="0px"
   viewBox="0 0 638.263 295.28"
   xml:space="preserve"
   inkscape:version="0.48.5 r10040"
   width="100%"
   height="100%"
   sodipodi:docname="send-to-exchange.svg"><metadata
     id="metadata61"><rdf:RDF><cc:Work
         rdf:about=""><dc:format>image/svg+xml</dc:format><dc:type
           rdf:resource="http://purl.org/dc/dcmitype/StillImage" /></cc:Work></rdf:RDF></metadata><defs
     id="defs59"><clipPath
       id="_clip1"><rect
         id="icon-only"
         x="0"
         y="0"
         width="1024"
         height="1024" /></clipPath></defs><sodipodi:namedview
     pagecolor="#ffffff"
     bordercolor="#666666"
     borderopacity="1"
     objecttolerance="10"
     gridtolerance="10"
     guidetolerance="10"
     inkscape:pageopacity="0"
     inkscape:pageshadow="2"
     inkscape:window-width="1680"
     inkscape:window-height="1035"
     id="namedview57"
     showgrid="false"
     inkscape:zoom="0.50136072"
     inkscape:cx="1002.0474"
     inkscape:cy="-257.86172"
     inkscape:window-x="-5"
     inkscape:window-y="-12"
     inkscape:window-maximized="1"
     inkscape:current-layer="Layer_1" /><g
     id="g3"><path
       fill="#333333"
       d="M554.201,44.572l0.277,26.172h81.711v18.798h-6.488l0.025,111.607h6.463v13.043l-301.008,0.021v-13.063   h5.299l-0.023-111.607h-5.273V70.747h80.531l0.309-26.178l-16.17,3.104V28.909l81.701-14.553h7.051l81.742,14.553v18.766   L554.201,44.572L554.201,44.572z M426.896,42.684v158.466h116.406V42.684l-58.201-10.2l-58.205,9.942V42.684z M618.557,89.542   h-63.494v111.797c32.92,0,29.395-0.023,63.494-0.023V89.542L618.557,89.542z M335.184,221.001l301.008,0.249v18.666H335.184   v-18.662V221.001z M416.314,89.542h-63.496v111.607h63.496V89.542z"
       id="path5" /><path
       fill="#333333"
       d="M361.461,76.878V49.746c-14.109,0.418-28.223,7.695-42.33,7.695c0-9.092,0-18.185,0-27.275   c14.109,0,28.035-7.277,41.484-7.695c0-3.122-0.934-8.113,3.361-8.113c1.93,0,3.363,1.584,3.363,3.485v59.038h-5.879V76.878z"
       id="path7" /><path
       fill="#333333"
       d="M476.281,60.173h17.637v28.196h-17.637V60.173L476.281,60.173z M443.359,60.173h16.459v28.196h-16.459   V60.173L443.359,60.173z M510.381,60.173h16.459v28.196h-16.459V60.173L510.381,60.173z M476.281,102.466h17.637v37.596h-17.637   V102.466L476.281,102.466z M476.281,154.159h17.637v34.068h-17.637V154.159L476.281,154.159z M443.359,102.466h16.459v37.596   h-16.459V102.466L443.359,102.466z M443.359,154.159h16.459v34.068h-16.459V154.159L443.359,154.159z M510.381,102.466h16.459   v37.596h-16.459V102.466L510.381,102.466z M510.381,154.159h16.459v34.068h-16.459V154.159L510.381,154.159z M566.818,102.466   h14.111v37.596h-14.111V102.466L566.818,102.466z M591.51,102.466h14.111v37.596H591.51V102.466L591.51,102.466z M363.402,102.466   h14.111v37.596h-14.111V102.466L363.402,102.466z M390.447,102.466h14.109v37.596h-14.109V102.466L390.447,102.466z    M363.402,154.159h14.111v34.068h-14.111V154.159L363.402,154.159z M390.447,154.159h14.109v34.068h-14.109V154.159   L390.447,154.159z M566.818,154.159h14.111v34.068h-14.111V154.159L566.818,154.159z M591.51,154.159h14.111v34.068H591.51V154.159   z"
       id="path9" /><path
       fill="#333333"
       d="M635.016,298.327H335.184v-51.11h299.834v51.11H635.016z M371.689,257.438v30.889h19.809v-5.513h-12.631   v-7.356h9.672v-5.299h-9.672v-7.208h12.631v-5.513H371.689z M393.227,288.327h6.674c0.422,0,0.773-0.117,1.055-0.35   c0.281-0.233,0.506-0.499,0.676-0.797l5.744-10.006c0.141-0.227,0.268-0.493,0.381-0.806l6.166,10.812   c0.17,0.313,0.396,0.581,0.686,0.806c0.287,0.227,0.666,0.341,1.129,0.341h7.137l-9.859-16.198l9.65-14.689h-6.844   c-0.605,0-1.084,0.299-1.436,0.89l-5.361,9.242c-0.115,0.184-0.217,0.362-0.309,0.531s-0.172,0.346-0.244,0.53l-6.123-10.408   c-0.168-0.283-0.361-0.484-0.582-0.605c-0.217-0.12-0.559-0.18-1.023-0.18h-7.137l9.523,15.009L393.227,288.327z M445.047,280.473   c-0.197,0.091-0.379,0.207-0.547,0.35c-0.426,0.368-0.844,0.674-1.258,0.922c-0.416,0.248-0.854,0.449-1.309,0.604   c-0.459,0.157-0.957,0.266-1.49,0.33c-0.537,0.062-1.129,0.093-1.773,0.093c-1.129,0-2.184-0.219-3.17-0.656   c-0.984-0.438-1.846-1.076-2.584-1.919c-0.74-0.841-1.326-1.874-1.754-3.104c-0.432-1.229-0.645-2.637-0.645-4.221   c0-1.51,0.213-2.873,0.645-4.089c0.428-1.217,1.027-2.25,1.793-3.106c0.768-0.854,1.688-1.512,2.758-1.971   c1.066-0.46,2.25-0.688,3.547-0.688c0.746,0,1.396,0.056,1.953,0.17c0.557,0.112,1.041,0.25,1.457,0.412   c0.414,0.162,0.773,0.339,1.076,0.531c0.303,0.191,0.582,0.368,0.834,0.53c0.256,0.162,0.494,0.302,0.721,0.413   c0.223,0.114,0.461,0.171,0.717,0.171c0.379,0,0.676-0.082,0.887-0.244c0.209-0.162,0.395-0.343,0.549-0.54l2.404-3.245   c-0.576-0.606-1.236-1.161-1.984-1.663c-0.746-0.502-1.563-0.933-2.447-1.294c-0.889-0.359-1.84-0.644-2.863-0.848   c-1.02-0.203-2.107-0.307-3.264-0.307c-2.377,0-4.551,0.389-6.521,1.164c-1.973,0.777-3.664,1.864-5.08,3.266   c-1.414,1.397-2.516,3.063-3.305,4.993c-0.787,1.929-1.182,4.044-1.182,6.347c0,2.261,0.344,4.358,1.033,6.286   c0.689,1.929,1.68,3.599,2.969,5.004c1.285,1.405,2.855,2.509,4.709,3.308c1.85,0.798,3.943,1.197,6.281,1.197   c2.549,0,4.754-0.414,6.619-1.24s3.418-2.055,4.656-3.678l-2.828-2.989c-0.154-0.155-0.318-0.266-0.484-0.33   c-0.17-0.063-0.34-0.094-0.51-0.094C445.449,280.333,445.244,280.38,445.047,280.473z M479.594,257.438h-7.18v12.911h-12.502   v-12.911h-7.178v30.889h7.178v-13.06h12.502v13.06h7.18V257.438z M501.385,257.438h-7.307l-11.91,30.889h5.576   c0.594,0,1.094-0.159,1.5-0.479c0.408-0.319,0.684-0.675,0.824-1.071l1.816-5.384h11.697l1.816,5.384   c0.156,0.452,0.434,0.823,0.834,1.113c0.402,0.289,0.912,0.436,1.529,0.436h5.535L501.385,257.438z M496.361,268.103   c0.209-0.538,0.434-1.172,0.674-1.908c0.238-0.733,0.471-1.532,0.699-2.396c0.238,0.849,0.48,1.636,0.727,2.362   c0.246,0.729,0.461,1.36,0.645,1.897l2.828,8.459h-8.402L496.361,268.103z M519.543,257.438h-3.758v30.889h6.295V271.77   c0-0.451-0.016-0.937-0.043-1.452c-0.029-0.516-0.066-1.043-0.105-1.578l14.508,18.401c0.352,0.451,0.717,0.762,1.098,0.934   c0.379,0.167,0.844,0.255,1.393,0.255h3.719V257.44h-6.295v16.345c0,0.495,0.014,1.021,0.045,1.578   c0.027,0.558,0.068,1.136,0.125,1.729l-14.611-18.549c-0.199-0.241-0.373-0.431-0.529-0.572c-0.156-0.141-0.316-0.251-0.486-0.327   c-0.17-0.079-0.357-0.132-0.57-0.159C520.113,257.453,519.852,257.438,519.543,257.438z M558.619,282.465   c-1.09-0.461-2.035-1.127-2.828-2.004c-0.795-0.877-1.418-1.95-1.869-3.222c-0.449-1.273-0.676-2.727-0.676-4.369   c0-1.482,0.205-2.829,0.613-4.036c0.406-1.21,0.988-2.244,1.742-3.105c0.754-0.862,1.664-1.53,2.734-2.004   c1.068-0.475,2.273-0.71,3.609-0.71c0.717,0,1.365,0.033,1.941,0.104c0.58,0.071,1.129,0.184,1.648,0.34   c0.52,0.155,1.029,0.356,1.529,0.604c0.502,0.246,1.031,0.54,1.596,0.881c0.451,0.281,0.887,0.424,1.311,0.424   c0.322,0,0.621-0.086,0.895-0.255c0.277-0.169,0.514-0.402,0.711-0.699l2.068-3.16c-0.619-0.593-1.322-1.144-2.109-1.651   c-0.791-0.51-1.658-0.946-2.611-1.315c-0.947-0.368-1.984-0.657-3.113-0.87c-1.127-0.213-2.328-0.316-3.609-0.316   c-2.477,0-4.723,0.389-6.727,1.164c-2.008,0.777-3.717,1.865-5.133,3.267c-1.414,1.396-2.5,3.063-3.264,4.992   c-0.758,1.929-1.139,4.044-1.139,6.347c0,2.262,0.396,4.359,1.193,6.286c0.797,1.929,1.895,3.599,3.293,5.004   s3.059,2.51,4.975,3.309c1.914,0.797,3.996,1.196,6.248,1.196c1.252,0,2.426-0.064,3.518-0.192s2.121-0.325,3.082-0.593   c0.963-0.269,1.875-0.61,2.725-1.027c0.852-0.419,1.672-0.915,2.463-1.495v-13.037h-10.941v3.942c0,0.369,0.127,0.672,0.381,0.912   c0.256,0.241,0.605,0.361,1.057,0.361h3.039v4.686c-0.678,0.284-1.395,0.509-2.152,0.677c-0.762,0.171-1.633,0.256-2.621,0.256   C560.906,283.153,559.711,282.923,558.619,282.465z M577.783,257.438v30.889h19.809v-5.513h-12.633v-7.356h9.672v-5.299h-9.672   v-7.208h12.633v-5.513H577.783z"
       id="path11" /></g><g
     id="g13"><path
       fill="#60965A"
       d="M218.706,192.352c1.71-1.275,4.79-3.154,8.489-4.928l-6.472-3.573c11.784-1.089,22.586-7.474,28.486-18.161   c5.817-10.54,5.556-22.884,0.408-33.343l21.213,11.709c-0.957,0.869-1.784,1.901-2.438,3.086   c-3.405,6.167-0.837,14.106,5.735,17.735c1.263,0.696,2.583,1.181,3.914,1.471L265,189.979c-0.955-0.973-2.066-1.832-3.331-2.528   c-1.958-1.082-4.05-1.652-6.11-1.767c0.733,0.41,1.434,0.849,2.087,1.311c3.185,2.253,5.012,4.839,5.289,7.477   c0.2,1.906-0.277,5.468-5.737,7.919c-1.525,0.685-5.779,3.237-10.271,6.057l14.317,7.901l37.11-67.235L168.753,77.575   l-37.11,67.237l86.654,47.832C218.422,192.556,218.557,192.461,218.706,192.352z M180.918,127.991   c-5.9,10.689-5.546,23.231-0.186,33.783l-21.57-11.904c0.958-0.872,1.785-1.904,2.438-3.089c3.403-6.165,0.835-14.104-5.736-17.735   c-1.263-0.697-2.581-1.182-3.911-1.469l13.042-23.631c0.952,0.973,2.065,1.83,3.33,2.527c6.572,3.629,14.659,1.569,18.063-4.596   c0.655-1.186,1.085-2.436,1.312-3.709l21.215,11.711C197.319,111.096,186.735,117.452,180.918,127.991z M205.011,170.249   l-2.486,4.504l-5.693-3.14l2.449-4.438c-3.745-2.385-6.694-5.423-9.371-9.408l8.484-7.635c2.724,4.209,5.639,7.173,8.747,8.891   c1.482,0.818,2.641,1.176,3.481,1.079c0.839-0.1,1.489-0.567,1.953-1.409c0.403-0.727,0.519-1.449,0.346-2.166   s-0.636-1.662-1.385-2.84c-0.752-1.176-1.865-2.68-3.346-4.504c-2.967-3.77-4.714-7.163-5.25-10.182   c-0.531-3.015,0.127-6.16,1.942-9.45c2.049-3.712,4.713-6.175,7.967-7.404c3.248-1.232,6.841-1.124,11.026,0.467l2.432-4.401   l5.691,3.139l-2.321,4.206c4.018,2.503,7.3,5.728,9.848,9.671l-6.069,11.001c-1.352-2.446-3.125-4.846-5.16-7.108   c-2.036-2.261-3.973-3.898-5.88-4.949c-1.573-0.869-2.851-1.28-3.832-1.231c-0.979,0.05-1.763,0.603-2.348,1.665   c-0.404,0.729-0.479,1.493-0.232,2.294c0.248,0.798,0.81,1.857,1.685,3.178c0.879,1.322,2.112,3.009,3.704,5.07   c1.779,2.335,3.031,4.55,3.761,6.638c0.73,2.088,0.983,4.116,0.758,6.08c-0.227,1.965-0.998,4.138-2.313,6.526   c-2.013,3.642-4.566,5.951-7.662,6.923C212.846,172.283,209.418,172.048,205.011,170.249z"
       id="path15"
       style="fill:#3cb054;fill-opacity:1" /><path
       fill="#333333"
       d="M256.039,199.82c-3.472,1.557-18.726,11.248-23.076,14.481c-4.354,3.236-8.004,5.573-16.624,3.97   c-8.617-1.6-27.207-3.563-27.207-3.563s-17.936,9.958-20.376,12.005c-13.146-10.585-29.433-30.488-36.162-43.339   c4.023-9.199,14.979-16.207,29.936-17.95c9.834,5.155,47.744,25.931,50.573,27.816c2.828,1.885,2.932,4.607,7.283,1.372   c4.353-3.238,18.462-10.818,27.338-8.913C256.601,187.606,265.626,195.516,256.039,199.82z"
       id="path17" /></g><g
     id="g19"><path
       fill="#333333"
       d="M79.942,24.585C79.942,11.007,68.935,0,55.359,0C41.782,0,30.776,11.007,30.776,24.585   c0,13.642,11.006,24.648,24.583,24.582C68.935,49.167,79.941,38.16,79.942,24.585z"
       id="path21" /><g
       id="g23"><path
         fill="#333333"
         d="M-0.001,86.603v74.87c0,14.501,21.09,14.501,21.09,0V92.27h3.295v188.228    c0,18.652,27.22,20.629,28.34,0.068V172.019h0.66h4.613v108.479c0.657,19.377,28.339,20.037,28.339,0V92.27h3.954v69.202    c0,14.501,20.432,14.501,20.432,0v-74.87c0-15.553-12.128-31.898-30.714-31.898H55.359H30.71    C12.189,54.704-0.003,71.116-0.001,86.603z"
         id="path25" /></g></g><g
     id="g27" /><g
     id="g29" /><g
     id="g31" /><g
     id="g33" /><g
     id="g35" /><g
     id="g37" /><g
     id="g39" /><g
     id="g41" /><g
     id="g43" /><g
     id="g45" /><g
     id="g47" /><g
     id="g49" /><g
     id="g51" /><g
     id="g53" /><g
     id="g55" /></svg>