<?xml version="1.0" encoding="utf-8"?>
<!-- Generator: Adobe Illustrator 16.0.0, SVG Export Plug-In . SVG Version: 6.00 Build 0)  -->
<!DOCTYPE svg PUBLIC "-//W3C//DTD SVG 1.1 Tiny//EN" "http://www.w3.org/Graphics/SVG/1.1/DTD/svg11-tiny.dtd">
<svg version="1.1" baseProfile="tiny" id="Layer_1" xmlns="http://www.w3.org/2000/svg" xmlns:xlink="http://www.w3.org/1999/xlink"
	 x="0px" y="0px" viewBox="0 0 595.19 283.971" xml:space="preserve">
<g>
	<g>
		<path fill="#34994B" d="M382.26,187.18c0.037-3.503,0.014-7.009-0.005-10.513c-0.002-0.299-0.033-0.597-0.423-0.895
			c0-0.109,0-0.219,0-0.329c0.39-0.175,0.394-0.335,0.458-0.528c0.856-2.57,2.117-3.427,5.227-3.688
			c0.614-0.052,1.241-0.369,1.847-0.369c66.303,0,132.605,0,198.909,0c0.219,0,0.438,0.295,0.654,0.291
			c3.041-0.051,5.136,1.042,6.244,3.376v-18.878c0-3.231-2.619-5.85-5.85-5.85h-201.64c-3.232,0-5.851,2.619-5.851,5.85v122.466
			c0,0.406,0,0.805,0,1.189c0-30.346,0-60.691,0-91.037C382.223,187.904,382.257,187.543,382.26,187.18z"/>
		<path fill="#34994B" d="M387.683,283.963h201.639c0.133,0,0.262,0,0.393,0H387.29C387.42,283.963,387.551,283.963,387.683,283.963
			z"/>
		<path fill="#34994B" d="M385.681,283.605c-0.673-0.278-1.267-0.624-1.783-1.036C384.422,283.014,385.025,283.366,385.681,283.605z
			"/>
		<path fill="#333333" d="M595.171,174.526v103.588c0,3.098-2.41,5.46-5.457,5.85h0.898c2.317-0.779,3.779-2.023,4.559-3.965
			c0-35.07,0-70.142,0-105.212C595.171,174.697,595.212,174.613,595.171,174.526z"/>
		<path fill="#333333" d="M386.634,283.963h0.656c-0.561,0-1.1-0.154-1.609-0.338C385.985,283.75,386.299,283.963,386.634,283.963z"
			/>
		<path fill="#333333" d="M381.833,279.303c0,0.23,0,0.463,0,0.695c0.39,1.036,1.085,1.891,1.944,2.57
			C382.802,281.742,382.223,280.602,381.833,279.303z"/>
		<path fill="#333333" d="M595.171,278.114V174.526c-1.107-2.335-3.202-3.428-6.244-3.376c-0.215,0.004-0.437-0.291-0.653-0.291
			c-66.304,0-132.606,0-198.909,0c-0.606,0-1.204,0.317-1.817,0.369c-3.109,0.262-4.4,1.123-5.256,3.693
			c-0.064,0.192-0.068,0.349-0.458,0.523c0,0.11,0,0.219,0,0.329c0.39,0.298,0.452,0.596,0.453,0.895
			c0.02,3.504-0.019,7.009-0.056,10.513c-0.003,0.363-0.007,0.724-0.397,1.086c0,30.345,0,60.69,0,91.037
			c0.39,1.299,1.031,2.438,2.004,3.266c0.518,0.412,1.14,0.768,1.815,1.046c0.508,0.186,1.077,0.349,1.638,0.349h202.424
			C592.761,283.574,595.171,281.211,595.171,278.114z M488.529,268.495c-22.642,0-40.996-18.354-40.996-40.995
			c0-22.642,18.354-40.996,40.996-40.996s40.995,18.354,40.995,40.996C529.526,250.141,511.171,268.495,488.529,268.495z"/>
		<circle fill="#34994B" cx="488.529" cy="227.5" r="40.995"/>
	</g>
	<path fill="#FFFFFF" d="M489.167,256.954c-2.749,0-5.256,0-8.02,0c0-2.918,0-5.84,0-8.763c-0.164,0.001-0.327,0.001-0.49,0.002
		c0,2.861,0,5.723,0,8.729c-2.657,0-5.083,0-7.801,0c0-2.475,0.072-4.921-0.05-7.357c-0.033-0.654-0.687-1.266-1.012-1.919
		c-0.21-0.424-0.459-0.879-0.484-1.333c-0.07-1.164-0.135-2.351,0.02-3.5c0.081-0.612,0.688-1.136,0.933-1.749
		c0.268-0.672,0.556-1.4,0.557-2.105c0.034-12.6,0.024-25.2,0.025-37.8c0-0.759,0-1.519,0-2.412
		c0.926-0.042,1.621-0.109,2.316-0.098c7.395,0.119,14.814-0.079,22.177,0.474c7.175,0.539,12.521,4.349,15.129,11.232
		c2.597,6.856,0.722,15.423-4.688,20.496c-2.739,2.569-6.188,3.312-9.771,3.571c-2.198,0.159-4.41,0.255-6.611,0.201
		c-1.627-0.041-2.472,0.381-2.246,2.178c0.11,0.895-0.088,1.832,0.056,2.718c0.097,0.595,0.563,1.125,0.836,1.699
		c0.208,0.439,0.589,0.935,0.521,1.344c-0.313,1.884,1.097,4.153-1.244,5.635c-0.262,0.165-0.142,0.981-0.145,1.496
		C489.161,252.075,489.167,254.458,489.167,256.954z M504.721,224.937c2.925-2.603,3.618-7.42,1.745-11.137
		c-2.247-4.459-10.523-8.667-15.478-7.763c-0.421,0.077-0.983,0.933-0.996,1.439c-0.089,3.375-0.234,6.768,0.011,10.125
		c0.233,3.195,1.436,6.187,4.543,7.615c1.536,0.705,3.735,1.206,5.113,0.605c1-0.436,1.61-2.844,1.58-4.358
		c-0.092-4.744-2.35-8.47-6.248-11.195c-0.576-0.403-1.097-0.887-1.643-1.334c3.41,0.583,5.863,2.628,7.979,5.001
		C504.05,216.986,505.238,220.668,504.721,224.937z M480.75,240.648c0.086,0.005,0.173,0.008,0.258,0.012
		c0-11.631,0-23.263,0-34.893c-0.085-0.001-0.171-0.001-0.258-0.001C480.75,217.394,480.75,229.021,480.75,240.648z"/>
</g>
<g>
	<path fill="#333333" d="M235.069,30.216l0.277,26.172h81.712v18.798h-6.489l0.025,111.607h6.464v13.043L16.05,199.856v-13.063h5.3
		L21.326,75.186h-5.274V56.391h80.531l0.309-26.178l-16.17,3.104V14.553L162.424,0h7.05l81.743,14.553v18.766L235.069,30.216
		L235.069,30.216z M107.766,28.327v158.466h116.406V28.327l-58.202-10.2l-58.204,9.942V28.327z M299.425,75.186h-63.494v111.797
		c32.921,0,29.396-0.023,63.494-0.023V75.186L299.425,75.186z M16.052,206.645l301.008,0.249v18.666H16.052v-18.662V206.645z
		 M97.184,75.186H33.688v111.607h63.496V75.186z"/>
	<path fill="#333333" d="M42.33,62.521V35.39C28.22,35.808,14.107,43.085,0,43.085C0,33.993,0,24.9,0,15.81
		c14.109,0,28.035-7.277,41.483-7.695c0-3.122-0.933-8.113,3.361-8.113c1.93,0,3.364,1.584,3.364,3.485v59.038H42.33V62.521z"/>
	<path fill="#333333" d="M157.149,45.816h17.638v28.196h-17.638V45.816L157.149,45.816z M124.228,45.816h16.46v28.196h-16.46V45.816
		L124.228,45.816z M191.249,45.816h16.46v28.196h-16.46V45.816L191.249,45.816z M157.149,88.109h17.638v37.596h-17.638V88.109
		L157.149,88.109z M157.149,139.803h17.638v34.068h-17.638V139.803L157.149,139.803z M124.228,88.109h16.46v37.596h-16.46V88.109
		L124.228,88.109z M124.228,139.803h16.46v34.068h-16.46V139.803L124.228,139.803z M191.249,88.109h16.46v37.596h-16.46V88.109
		L191.249,88.109z M191.249,139.803h16.46v34.068h-16.46V139.803L191.249,139.803z M247.688,88.109h14.11v37.596h-14.11V88.109
		L247.688,88.109z M272.378,88.109h14.112v37.596h-14.112V88.109L272.378,88.109z M44.271,88.109h14.112v37.596H44.271V88.109
		L44.271,88.109z M71.315,88.109h14.11v37.596h-14.11V88.109L71.315,88.109z M44.271,139.803h14.112v34.068H44.271V139.803
		L44.271,139.803z M71.315,139.803h14.11v34.068h-14.11V139.803L71.315,139.803z M247.688,139.803h14.11v34.068h-14.11V139.803
		L247.688,139.803z M272.378,139.803h14.112v34.068h-14.112V139.803z"/>
	<path fill="#333333" d="M315.885,283.971H16.052V232.86h299.835v51.111H315.885z M52.559,243.081v30.888h19.808v-5.512h-12.63
		V261.1h9.671v-5.299h-9.671v-7.208h12.63v-5.513H52.559z M74.096,273.971h6.674c0.422,0,0.773-0.117,1.055-0.35
		c0.281-0.234,0.506-0.5,0.676-0.797l5.744-10.006c0.141-0.227,0.268-0.494,0.38-0.807l6.167,10.813
		c0.169,0.313,0.396,0.58,0.686,0.805c0.287,0.227,0.665,0.342,1.129,0.342h7.137l-9.859-16.199l9.649-14.689h-6.843
		c-0.605,0-1.084,0.299-1.436,0.89l-5.361,9.242c-0.115,0.184-0.217,0.362-0.309,0.531s-0.173,0.346-0.244,0.53l-6.124-10.408
		c-0.168-0.283-0.361-0.484-0.581-0.605c-0.217-0.12-0.559-0.18-1.023-0.18h-7.137l9.523,15.009L74.096,273.971z M125.916,266.116
		c-0.197,0.092-0.38,0.207-0.548,0.35c-0.425,0.369-0.844,0.674-1.258,0.922c-0.416,0.248-0.853,0.449-1.309,0.604
		c-0.458,0.158-0.956,0.266-1.49,0.33c-0.537,0.063-1.128,0.094-1.772,0.094c-1.129,0-2.184-0.219-3.171-0.656
		c-0.984-0.438-1.846-1.076-2.584-1.92c-0.739-0.84-1.325-1.873-1.753-3.104c-0.432-1.229-0.646-2.637-0.646-4.221
		c0-1.51,0.213-2.873,0.646-4.089c0.428-1.217,1.026-2.25,1.793-3.106c0.768-0.854,1.687-1.512,2.757-1.971
		c1.067-0.46,2.251-0.688,3.548-0.688c0.745,0,1.396,0.056,1.952,0.17c0.558,0.112,1.041,0.25,1.457,0.412
		c0.415,0.162,0.774,0.339,1.076,0.531c0.303,0.191,0.582,0.368,0.835,0.53c0.255,0.162,0.493,0.302,0.72,0.413
		c0.224,0.114,0.462,0.171,0.717,0.171c0.38,0,0.676-0.082,0.887-0.244c0.21-0.162,0.395-0.343,0.55-0.54l2.404-3.245
		c-0.576-0.606-1.236-1.161-1.984-1.663c-0.746-0.502-1.563-0.933-2.448-1.294c-0.888-0.359-1.84-0.644-2.862-0.848
		c-1.02-0.203-2.108-0.307-3.264-0.307c-2.377,0-4.552,0.389-6.521,1.164c-1.974,0.777-3.664,1.864-5.08,3.266
		c-1.414,1.397-2.517,3.063-3.305,4.993c-0.787,1.929-1.182,4.044-1.182,6.347c0,2.26,0.344,4.357,1.033,6.285
		c0.689,1.93,1.68,3.6,2.968,5.004c1.286,1.406,2.856,2.51,4.709,3.309c1.85,0.797,3.944,1.197,6.281,1.197
		c2.549,0,4.754-0.414,6.62-1.24c1.864-0.826,3.417-2.055,4.656-3.678l-2.828-2.99c-0.155-0.154-0.319-0.266-0.485-0.33
		c-0.169-0.063-0.34-0.094-0.509-0.094C126.317,265.977,126.112,266.024,125.916,266.116z M160.463,243.081h-7.181v12.912H140.78
		v-12.912h-7.178v30.888h7.178v-13.059h12.502v13.059h7.181V243.081z M182.253,243.081h-7.307l-11.91,30.888h5.576
		c0.595,0,1.094-0.158,1.501-0.479c0.407-0.318,0.683-0.674,0.823-1.07l1.817-5.385h11.697l1.815,5.385
		c0.157,0.451,0.434,0.822,0.835,1.113c0.401,0.289,0.911,0.436,1.529,0.436h5.535L182.253,243.081z M177.229,253.746
		c0.209-0.538,0.435-1.172,0.674-1.908c0.239-0.733,0.472-1.532,0.699-2.396c0.238,0.849,0.481,1.636,0.728,2.362
		c0.245,0.729,0.461,1.36,0.645,1.897l2.828,8.458H174.4L177.229,253.746z M200.411,243.081h-3.757v30.888h6.294v-16.557
		c0-0.451-0.016-0.936-0.043-1.451c-0.028-0.516-0.065-1.043-0.104-1.579l14.507,18.401c0.352,0.451,0.717,0.762,1.098,0.934
		c0.379,0.168,0.845,0.256,1.394,0.256h3.719v-30.889h-6.296v16.344c0,0.496,0.015,1.021,0.045,1.578
		c0.027,0.559,0.069,1.137,0.126,1.729l-14.612-18.548c-0.199-0.241-0.372-0.431-0.529-0.572c-0.156-0.141-0.315-0.251-0.485-0.327
		c-0.17-0.079-0.358-0.132-0.57-0.159C200.982,243.097,200.721,243.081,200.411,243.081z M239.488,268.108
		c-1.09-0.461-2.035-1.127-2.828-2.004c-0.796-0.877-1.418-1.949-1.87-3.221c-0.448-1.273-0.675-2.727-0.675-4.369
		c0-1.482,0.205-2.83,0.612-4.037c0.407-1.21,0.988-2.244,1.742-3.105c0.754-0.862,1.665-1.53,2.735-2.004
		c1.067-0.475,2.272-0.71,3.609-0.71c0.717,0,1.364,0.033,1.941,0.104c0.579,0.071,1.128,0.184,1.648,0.34
		c0.52,0.155,1.029,0.356,1.529,0.604c0.501,0.246,1.031,0.54,1.596,0.881c0.451,0.281,0.887,0.424,1.311,0.424
		c0.322,0,0.62-0.086,0.895-0.255c0.276-0.169,0.514-0.402,0.71-0.699l2.069-3.16c-0.619-0.593-1.322-1.144-2.11-1.651
		c-0.79-0.51-1.658-0.946-2.61-1.315c-0.948-0.368-1.985-0.657-3.113-0.87c-1.127-0.213-2.329-0.316-3.61-0.316
		c-2.477,0-4.722,0.389-6.726,1.164c-2.008,0.777-3.717,1.865-5.133,3.267c-1.414,1.396-2.501,3.063-3.264,4.992
		c-0.759,1.929-1.139,4.043-1.139,6.346c0,2.262,0.396,4.359,1.192,6.287c0.797,1.928,1.896,3.598,3.294,5.004
		c1.398,1.404,3.059,2.51,4.975,3.309c1.913,0.797,3.996,1.195,6.248,1.195c1.252,0,2.426-0.064,3.518-0.191
		c1.091-0.129,2.12-0.326,3.082-0.594c0.963-0.268,1.874-0.609,2.725-1.027s1.671-0.914,2.462-1.494v-13.037h-10.94v3.941
		c0,0.369,0.127,0.672,0.381,0.912c0.255,0.242,0.605,0.361,1.057,0.361h3.039v4.686c-0.678,0.285-1.395,0.51-2.153,0.678
		c-0.762,0.17-1.633,0.256-2.62,0.256C241.774,268.797,240.58,268.567,239.488,268.108z M258.651,243.081v30.888h19.809v-5.512
		h-12.632V261.1h9.672v-5.299h-9.672v-7.208h12.632v-5.513H258.651z"/>
</g>
<g>
	<path fill="#333333" d="M503.984,26.271c-17.907,0-33.028,11.914-37.878,28.246c2.267-0.386,4.593-0.591,6.968-0.591
		c22.811,0,41.368,18.558,41.368,41.369c0,3.033-0.331,5.991-0.954,8.839c17.229-4.255,30.005-19.812,30.005-38.356
		C543.493,43.959,525.804,26.271,503.984,26.271z"/>
	<path fill="#333333" d="M473.074,55.787c-21.82,0-39.509,17.689-39.509,39.509c0,21.82,17.688,39.508,39.509,39.508
		c21.821,0,39.509-17.688,39.509-39.508C512.583,73.476,494.894,55.787,473.074,55.787z M473.074,127.368
		c-17.685,0-32.072-14.387-32.072-32.072s14.388-32.073,32.072-32.073c17.684,0,32.071,14.388,32.071,32.073
		S490.757,127.368,473.074,127.368z"/>
	<path fill="#60965A" d="M473.074,66.707c-15.764,0-28.589,12.827-28.589,28.59c0,15.764,12.825,28.589,28.589,28.589
		s28.588-12.826,28.588-28.589C501.662,79.532,488.837,66.707,473.074,66.707z"/>
	<path id="path4934" fill="#FFFFFF" d="M475.64,74.176c-0.547,0-1.099,0.012-1.665,0.027h-5.786H461.7v32.198h-1.13v4.798h1.13
		v7.076h5.786V111.2h0.704v7.076h5.786V111.2h0.961v-4.798h-0.961v-5.207l2.52,0.008c5.041,0,9.455,0.373,13.272-4.602
		c1.484-2.191,2.396-4.758,2.646-7.363c0.501-5.261-1.687-10.667-7.238-13.388C482.805,74.641,479.47,74.188,475.64,74.176
		L475.64,74.176z M467.486,78.947h0.704v16.085v4.763v6.605h-0.704v-6.605v-4.763V78.947z M473.975,78.947
		c11.44,0.41,15.852,7.061,13.638,12.996c-0.628,1.652-1.294,2.557-2.697,3.499c0.057-0.237,0.117-0.477,0.161-0.72
		c0.829-4.632-0.742-10.205-8.431-13.283c6.117,3.528,8.585,9.801,5.733,13.853c-4.855,0.739-8.404-3.279-8.404-7.905V78.947z"/>
</g>
<g>
</g>
<g>
</g>
<g>
</g>
<g>
</g>
<g>
</g>
<g>
</g>
<g>
</g>
<g>
</g>
<g>
</g>
<g>
</g>
<g>
</g>
<g>
</g>
<g>
</g>
<g>
</g>
<g>
</g>
</svg>
